%FSLAX45Y45*%
G04 Gerber Fmt 4.5, Leading zero omitted, Abs format (unit mm)*
G04 Created by KiCad (PCBNEW (2015-07-11 BZR 5925, Git c291b88)-product) date 2015/12/21 0:47:50*
%MOMM*%
G01*
G04 APERTURE LIST*
%ADD10C,0.127000*%
%ADD11C,0.150000*%
%ADD12C,0.200000*%
%ADD13C,0.300000*%
G04 APERTURE END LIST*
D10*
D11*
X17703800Y-7454900D02*
X17551400Y-7302500D01*
X17703800Y-8597900D02*
X17703800Y-7454900D01*
X17957800Y-8851900D02*
X17703800Y-8597900D01*
X17957800Y-12128500D02*
X17957800Y-8851900D01*
X17703800Y-12382500D02*
X17957800Y-12128500D01*
X17703800Y-12636500D02*
X17703800Y-12382500D01*
X11099800Y-12636500D02*
X17703800Y-12636500D01*
X11099800Y-7302500D02*
X11099800Y-12636500D01*
X17551400Y-7302500D02*
X11099800Y-7302500D01*
D12*
X11236960Y-9738360D02*
X11267440Y-9768840D01*
X11267440Y-9738360D02*
X11236960Y-9768840D01*
X11287760Y-9941560D02*
X11318240Y-9972040D01*
X11318240Y-9941560D02*
X11287760Y-9972040D01*
X11402060Y-10119360D02*
X11432540Y-10149840D01*
X11432540Y-10119360D02*
X11402060Y-10149840D01*
X11452860Y-7884160D02*
X11483340Y-7914640D01*
X11483340Y-7884160D02*
X11452860Y-7914640D01*
X11465560Y-11186160D02*
X11496040Y-11216640D01*
X11496040Y-11186160D02*
X11465560Y-11216640D01*
X11935460Y-11046460D02*
X11965940Y-11076940D01*
X11965940Y-11046460D02*
X11935460Y-11076940D01*
X11986260Y-7884160D02*
X12016740Y-7914640D01*
X12016740Y-7884160D02*
X11986260Y-7914640D01*
X12024360Y-9547860D02*
X12054840Y-9578340D01*
X12054840Y-9547860D02*
X12024360Y-9578340D01*
X12176760Y-11173460D02*
X12207240Y-11203940D01*
X12207240Y-11173460D02*
X12176760Y-11203940D01*
X12214860Y-8176260D02*
X12245340Y-8206740D01*
X12245340Y-8176260D02*
X12214860Y-8206740D01*
X12214860Y-8557260D02*
X12245340Y-8587740D01*
X12245340Y-8557260D02*
X12214860Y-8587740D01*
X12214860Y-8747760D02*
X12245340Y-8778240D01*
X12245340Y-8747760D02*
X12214860Y-8778240D01*
X12252960Y-8912860D02*
X12283440Y-8943340D01*
X12283440Y-8912860D02*
X12252960Y-8943340D01*
X12468860Y-9255760D02*
X12499340Y-9286240D01*
X12499340Y-9255760D02*
X12468860Y-9286240D01*
X12481560Y-9827260D02*
X12512040Y-9857740D01*
X12512040Y-9827260D02*
X12481560Y-9857740D01*
X12481560Y-11262360D02*
X12512040Y-11292840D01*
X12512040Y-11262360D02*
X12481560Y-11292840D01*
X12494260Y-10881360D02*
X12524740Y-10911840D01*
X12524740Y-10881360D02*
X12494260Y-10911840D01*
X12557760Y-9712960D02*
X12588240Y-9743440D01*
X12588240Y-9712960D02*
X12557760Y-9743440D01*
X12684760Y-11821160D02*
X12715240Y-11851640D01*
X12715240Y-11821160D02*
X12684760Y-11851640D01*
X12710160Y-9052560D02*
X12740640Y-9083040D01*
X12740640Y-9052560D02*
X12710160Y-9083040D01*
X12748260Y-8557260D02*
X12778740Y-8587740D01*
X12778740Y-8557260D02*
X12748260Y-8587740D01*
X12811760Y-11021060D02*
X12842240Y-11051540D01*
X12842240Y-11021060D02*
X12811760Y-11051540D01*
X12824460Y-12138660D02*
X12854940Y-12169140D01*
X12854940Y-12138660D02*
X12824460Y-12169140D01*
X12837160Y-8785860D02*
X12867640Y-8816340D01*
X12867640Y-8785860D02*
X12837160Y-8816340D01*
X12837160Y-9166860D02*
X12867640Y-9197340D01*
X12867640Y-9166860D02*
X12837160Y-9197340D01*
X12837160Y-9433560D02*
X12867640Y-9464040D01*
X12867640Y-9433560D02*
X12837160Y-9464040D01*
X12837160Y-9573260D02*
X12867640Y-9603740D01*
X12867640Y-9573260D02*
X12837160Y-9603740D01*
X12837160Y-9674860D02*
X12867640Y-9705340D01*
X12867640Y-9674860D02*
X12837160Y-9705340D01*
X13078460Y-10805160D02*
X13108940Y-10835640D01*
X13108940Y-10805160D02*
X13078460Y-10835640D01*
X13091160Y-8455660D02*
X13121640Y-8486140D01*
X13121640Y-8455660D02*
X13091160Y-8486140D01*
X13091160Y-8912860D02*
X13121640Y-8943340D01*
X13121640Y-8912860D02*
X13091160Y-8943340D01*
X13091160Y-9611360D02*
X13121640Y-9641840D01*
X13121640Y-9611360D02*
X13091160Y-9641840D01*
X13091160Y-9903460D02*
X13121640Y-9933940D01*
X13121640Y-9903460D02*
X13091160Y-9933940D01*
X13103860Y-11351260D02*
X13134340Y-11381740D01*
X13134340Y-11351260D02*
X13103860Y-11381740D01*
X13141960Y-9966960D02*
X13172440Y-9997440D01*
X13172440Y-9966960D02*
X13141960Y-9997440D01*
X13154660Y-8849360D02*
X13185140Y-8879840D01*
X13185140Y-8849360D02*
X13154660Y-8879840D01*
X13192760Y-10030460D02*
X13223240Y-10060940D01*
X13223240Y-10030460D02*
X13192760Y-10060940D01*
X13243560Y-10093960D02*
X13274040Y-10124440D01*
X13274040Y-10093960D02*
X13243560Y-10124440D01*
X13357860Y-8785860D02*
X13388340Y-8816340D01*
X13388340Y-8785860D02*
X13357860Y-8816340D01*
X13408660Y-10690860D02*
X13439140Y-10721340D01*
X13439140Y-10690860D02*
X13408660Y-10721340D01*
X13497560Y-10309860D02*
X13528040Y-10340340D01*
X13528040Y-10309860D02*
X13497560Y-10340340D01*
X13611860Y-11021060D02*
X13642340Y-11051540D01*
X13642340Y-11021060D02*
X13611860Y-11051540D01*
X13624560Y-9941560D02*
X13655040Y-9972040D01*
X13655040Y-9941560D02*
X13624560Y-9972040D01*
X13624560Y-10449560D02*
X13655040Y-10480040D01*
X13655040Y-10449560D02*
X13624560Y-10480040D01*
X13637260Y-9370060D02*
X13667740Y-9400540D01*
X13667740Y-9370060D02*
X13637260Y-9400540D01*
X13637260Y-9827260D02*
X13667740Y-9857740D01*
X13667740Y-9827260D02*
X13637260Y-9857740D01*
X13675360Y-10005060D02*
X13705840Y-10035540D01*
X13705840Y-10005060D02*
X13675360Y-10035540D01*
X13688060Y-12303760D02*
X13718540Y-12334240D01*
X13718540Y-12303760D02*
X13688060Y-12334240D01*
X13700760Y-9420860D02*
X13731240Y-9451340D01*
X13731240Y-9420860D02*
X13700760Y-9451340D01*
X13700760Y-11338560D02*
X13731240Y-11369040D01*
X13731240Y-11338560D02*
X13700760Y-11369040D01*
X13700760Y-11427460D02*
X13731240Y-11457940D01*
X13731240Y-11427460D02*
X13700760Y-11457940D01*
X13713460Y-8481060D02*
X13743940Y-8511540D01*
X13743940Y-8481060D02*
X13713460Y-8511540D01*
X13713460Y-8595360D02*
X13743940Y-8625840D01*
X13743940Y-8595360D02*
X13713460Y-8625840D01*
X13726160Y-9827260D02*
X13756640Y-9857740D01*
X13756640Y-9827260D02*
X13726160Y-9857740D01*
X13726160Y-10068560D02*
X13756640Y-10099040D01*
X13756640Y-10068560D02*
X13726160Y-10099040D01*
X13751560Y-10551160D02*
X13782040Y-10581640D01*
X13782040Y-10551160D02*
X13751560Y-10581640D01*
X13764260Y-9471660D02*
X13794740Y-9502140D01*
X13794740Y-9471660D02*
X13764260Y-9502140D01*
X13776960Y-8531860D02*
X13807440Y-8562340D01*
X13807440Y-8531860D02*
X13776960Y-8562340D01*
X13776960Y-8658860D02*
X13807440Y-8689340D01*
X13807440Y-8658860D02*
X13776960Y-8689340D01*
X13776960Y-10132060D02*
X13807440Y-10162540D01*
X13807440Y-10132060D02*
X13776960Y-10162540D01*
X14018260Y-8709660D02*
X14048740Y-8740140D01*
X14048740Y-8709660D02*
X14018260Y-8740140D01*
X14030960Y-9408160D02*
X14061440Y-9438640D01*
X14061440Y-9408160D02*
X14030960Y-9438640D01*
X14119860Y-10462260D02*
X14150340Y-10492740D01*
X14150340Y-10462260D02*
X14119860Y-10492740D01*
X14119860Y-10652760D02*
X14150340Y-10683240D01*
X14150340Y-10652760D02*
X14119860Y-10683240D01*
X14132560Y-10855960D02*
X14163040Y-10886440D01*
X14163040Y-10855960D02*
X14132560Y-10886440D01*
X14196060Y-9992360D02*
X14226540Y-10022840D01*
X14226540Y-9992360D02*
X14196060Y-10022840D01*
X14208760Y-8976360D02*
X14239240Y-9006840D01*
X14239240Y-8976360D02*
X14208760Y-9006840D01*
X14323060Y-8354060D02*
X14353540Y-8384540D01*
X14353540Y-8354060D02*
X14323060Y-8384540D01*
X14386560Y-11338560D02*
X14417040Y-11369040D01*
X14417040Y-11338560D02*
X14386560Y-11369040D01*
X14399260Y-9992360D02*
X14429740Y-10022840D01*
X14429740Y-9992360D02*
X14399260Y-10022840D01*
X14437360Y-9077960D02*
X14467840Y-9108440D01*
X14467840Y-9077960D02*
X14437360Y-9108440D01*
X14450060Y-8354060D02*
X14480540Y-8384540D01*
X14480540Y-8354060D02*
X14450060Y-8384540D01*
X14513560Y-11338560D02*
X14544040Y-11369040D01*
X14544040Y-11338560D02*
X14513560Y-11369040D01*
X14513560Y-11592560D02*
X14544040Y-11623040D01*
X14544040Y-11592560D02*
X14513560Y-11623040D01*
X14577060Y-8354060D02*
X14607540Y-8384540D01*
X14607540Y-8354060D02*
X14577060Y-8384540D01*
X14640560Y-11338560D02*
X14671040Y-11369040D01*
X14671040Y-11338560D02*
X14640560Y-11369040D01*
X14716760Y-11046460D02*
X14747240Y-11076940D01*
X14747240Y-11046460D02*
X14716760Y-11076940D01*
X14729460Y-10347960D02*
X14759940Y-10378440D01*
X14759940Y-10347960D02*
X14729460Y-10378440D01*
X14729460Y-10652760D02*
X14759940Y-10683240D01*
X14759940Y-10652760D02*
X14729460Y-10683240D01*
X14754860Y-10182860D02*
X14785340Y-10213340D01*
X14785340Y-10182860D02*
X14754860Y-10213340D01*
X14767560Y-11338560D02*
X14798040Y-11369040D01*
X14798040Y-11338560D02*
X14767560Y-11369040D01*
X14843760Y-8900160D02*
X14874240Y-8930640D01*
X14874240Y-8900160D02*
X14843760Y-8930640D01*
X14843760Y-9116060D02*
X14874240Y-9146540D01*
X14874240Y-9116060D02*
X14843760Y-9146540D01*
X14894560Y-9458960D02*
X14925040Y-9489440D01*
X14925040Y-9458960D02*
X14894560Y-9489440D01*
X14894560Y-11338560D02*
X14925040Y-11369040D01*
X14925040Y-11338560D02*
X14894560Y-11369040D01*
X14932660Y-9116060D02*
X14963140Y-9146540D01*
X14963140Y-9116060D02*
X14932660Y-9146540D01*
X14970760Y-9420860D02*
X15001240Y-9451340D01*
X15001240Y-9420860D02*
X14970760Y-9451340D01*
X14970760Y-10690860D02*
X15001240Y-10721340D01*
X15001240Y-10690860D02*
X14970760Y-10721340D01*
X14996160Y-8646160D02*
X15026640Y-8676640D01*
X15026640Y-8646160D02*
X14996160Y-8676640D01*
X15021560Y-11338560D02*
X15052040Y-11369040D01*
X15052040Y-11338560D02*
X15021560Y-11369040D01*
X15046960Y-9382760D02*
X15077440Y-9413240D01*
X15077440Y-9382760D02*
X15046960Y-9413240D01*
X15123160Y-9344660D02*
X15153640Y-9375140D01*
X15153640Y-9344660D02*
X15123160Y-9375140D01*
X15148560Y-11338560D02*
X15179040Y-11369040D01*
X15179040Y-11338560D02*
X15148560Y-11369040D01*
X15275560Y-11330940D02*
X15306040Y-11361420D01*
X15306040Y-11330940D02*
X15275560Y-11361420D01*
X15339060Y-9039860D02*
X15369540Y-9070340D01*
X15369540Y-9039860D02*
X15339060Y-9070340D01*
X15351760Y-8519160D02*
X15382240Y-8549640D01*
X15382240Y-8519160D02*
X15351760Y-8549640D01*
X15351760Y-8620760D02*
X15382240Y-8651240D01*
X15382240Y-8620760D02*
X15351760Y-8651240D01*
X15402560Y-11338560D02*
X15433040Y-11369040D01*
X15433040Y-11338560D02*
X15402560Y-11369040D01*
X15529560Y-11338560D02*
X15560040Y-11369040D01*
X15560040Y-11338560D02*
X15529560Y-11369040D01*
X15542260Y-10373360D02*
X15572740Y-10403840D01*
X15572740Y-10373360D02*
X15542260Y-10403840D01*
X15618460Y-10309860D02*
X15648940Y-10340340D01*
X15648940Y-10309860D02*
X15618460Y-10340340D01*
X15656560Y-9509760D02*
X15687040Y-9540240D01*
X15687040Y-9509760D02*
X15656560Y-9540240D01*
X15656560Y-10182860D02*
X15687040Y-10213340D01*
X15687040Y-10182860D02*
X15656560Y-10213340D01*
X15656560Y-11338560D02*
X15687040Y-11369040D01*
X15687040Y-11338560D02*
X15656560Y-11369040D01*
X15694660Y-10436860D02*
X15725140Y-10467340D01*
X15725140Y-10436860D02*
X15694660Y-10467340D01*
X15770860Y-10309860D02*
X15801340Y-10340340D01*
X15801340Y-10309860D02*
X15770860Y-10340340D01*
X15783560Y-11338560D02*
X15814040Y-11369040D01*
X15814040Y-11338560D02*
X15783560Y-11369040D01*
X15796260Y-10716260D02*
X15826740Y-10746740D01*
X15826740Y-10716260D02*
X15796260Y-10746740D01*
X15885160Y-10716260D02*
X15915640Y-10746740D01*
X15915640Y-10716260D02*
X15885160Y-10746740D01*
X15961360Y-10716260D02*
X15991840Y-10746740D01*
X15991840Y-10716260D02*
X15961360Y-10746740D01*
X15986760Y-9192260D02*
X16017240Y-9222740D01*
X16017240Y-9192260D02*
X15986760Y-9222740D01*
X16037560Y-8569960D02*
X16068040Y-8600440D01*
X16068040Y-8569960D02*
X16037560Y-8600440D01*
X16037560Y-10716260D02*
X16068040Y-10746740D01*
X16068040Y-10716260D02*
X16037560Y-10746740D01*
X16050260Y-9547860D02*
X16080740Y-9578340D01*
X16080740Y-9547860D02*
X16050260Y-9578340D01*
X16075660Y-11808460D02*
X16106140Y-11838940D01*
X16106140Y-11808460D02*
X16075660Y-11838940D01*
X16126460Y-11148060D02*
X16156940Y-11178540D01*
X16156940Y-11148060D02*
X16126460Y-11178540D01*
X16139160Y-9255760D02*
X16169640Y-9286240D01*
X16169640Y-9255760D02*
X16139160Y-9286240D01*
X16228060Y-11376660D02*
X16258540Y-11407140D01*
X16258540Y-11376660D02*
X16228060Y-11407140D01*
X16240760Y-10144760D02*
X16271240Y-10175240D01*
X16271240Y-10144760D02*
X16240760Y-10175240D01*
X16240760Y-11808460D02*
X16271240Y-11838940D01*
X16271240Y-11808460D02*
X16240760Y-11838940D01*
X16316960Y-9674860D02*
X16347440Y-9705340D01*
X16347440Y-9674860D02*
X16316960Y-9705340D01*
X16329660Y-10106660D02*
X16360140Y-10137140D01*
X16360140Y-10106660D02*
X16329660Y-10137140D01*
X16380460Y-9611360D02*
X16410940Y-9641840D01*
X16410940Y-9611360D02*
X16380460Y-9641840D01*
X16380460Y-9738360D02*
X16410940Y-9768840D01*
X16410940Y-9738360D02*
X16380460Y-9768840D01*
X16418560Y-10106660D02*
X16449040Y-10137140D01*
X16449040Y-10106660D02*
X16418560Y-10137140D01*
X16431260Y-10754360D02*
X16461740Y-10784840D01*
X16461740Y-10754360D02*
X16431260Y-10784840D01*
X16443960Y-9547860D02*
X16474440Y-9578340D01*
X16474440Y-9547860D02*
X16443960Y-9578340D01*
X16443960Y-9801860D02*
X16474440Y-9832340D01*
X16474440Y-9801860D02*
X16443960Y-9832340D01*
X16482060Y-11275060D02*
X16512540Y-11305540D01*
X16512540Y-11275060D02*
X16482060Y-11305540D01*
X16507460Y-9484360D02*
X16537940Y-9514840D01*
X16537940Y-9484360D02*
X16507460Y-9514840D01*
X16507460Y-9865360D02*
X16537940Y-9895840D01*
X16537940Y-9865360D02*
X16507460Y-9895840D01*
X16507460Y-10106660D02*
X16537940Y-10137140D01*
X16537940Y-10106660D02*
X16507460Y-10137140D01*
X16545560Y-8290560D02*
X16576040Y-8321040D01*
X16576040Y-8290560D02*
X16545560Y-8321040D01*
X16558260Y-10436860D02*
X16588740Y-10467340D01*
X16588740Y-10436860D02*
X16558260Y-10467340D01*
X16570960Y-9928860D02*
X16601440Y-9959340D01*
X16601440Y-9928860D02*
X16570960Y-9959340D01*
X16583660Y-9141460D02*
X16614140Y-9171940D01*
X16614140Y-9141460D02*
X16583660Y-9171940D01*
X16583660Y-9395460D02*
X16614140Y-9425940D01*
X16614140Y-9395460D02*
X16583660Y-9425940D01*
X16609060Y-11275060D02*
X16639540Y-11305540D01*
X16639540Y-11275060D02*
X16609060Y-11305540D01*
X16736060Y-11275060D02*
X16766540Y-11305540D01*
X16766540Y-11275060D02*
X16736060Y-11305540D01*
X16799560Y-8290560D02*
X16830040Y-8321040D01*
X16830040Y-8290560D02*
X16799560Y-8321040D01*
X16850360Y-8976360D02*
X16880840Y-9006840D01*
X16880840Y-8976360D02*
X16850360Y-9006840D01*
X16913860Y-11592560D02*
X16944340Y-11623040D01*
X16944340Y-11592560D02*
X16913860Y-11623040D01*
X16977360Y-9776460D02*
X17007840Y-9806940D01*
X17007840Y-9776460D02*
X16977360Y-9806940D01*
X16977360Y-9878060D02*
X17007840Y-9908540D01*
X17007840Y-9878060D02*
X16977360Y-9908540D01*
X16977360Y-10017760D02*
X17007840Y-10048240D01*
X17007840Y-10017760D02*
X16977360Y-10048240D01*
X17053560Y-9344660D02*
X17084040Y-9375140D01*
X17084040Y-9344660D02*
X17053560Y-9375140D01*
X17117060Y-10208260D02*
X17147540Y-10238740D01*
X17147540Y-10208260D02*
X17117060Y-10238740D01*
X17155160Y-9712960D02*
X17185640Y-9743440D01*
X17185640Y-9712960D02*
X17155160Y-9743440D01*
X17180560Y-9433560D02*
X17211040Y-9464040D01*
X17211040Y-9433560D02*
X17180560Y-9464040D01*
X17269460Y-10640060D02*
X17299940Y-10670540D01*
X17299940Y-10640060D02*
X17269460Y-10670540D01*
X17599660Y-11033760D02*
X17630140Y-11064240D01*
X17630140Y-11033760D02*
X17599660Y-11064240D01*
X11232554Y-8476410D02*
G75*
G03X11232554Y-8476410I-25000J0D01*
G01*
X11232554Y-9176410D02*
G75*
G03X11232554Y-9176410I-25000J0D01*
G01*
X11248804Y-8476410D02*
G75*
G03X11248804Y-8476410I-25000J0D01*
G01*
X11248804Y-9176410D02*
G75*
G03X11248804Y-9176410I-25000J0D01*
G01*
X11265054Y-8476410D02*
G75*
G03X11265054Y-8476410I-25000J0D01*
G01*
X11265054Y-9176410D02*
G75*
G03X11265054Y-9176410I-25000J0D01*
G01*
X11281304Y-8476410D02*
G75*
G03X11281304Y-8476410I-25000J0D01*
G01*
X11281554Y-9176410D02*
G75*
G03X11281554Y-9176410I-25000J0D01*
G01*
X11297554Y-8476410D02*
G75*
G03X11297554Y-8476410I-25000J0D01*
G01*
X11298054Y-9176410D02*
G75*
G03X11298054Y-9176410I-25000J0D01*
G01*
X11510054Y-8533910D02*
X11510054Y-8588910D01*
X11482554Y-8561410D02*
X11537554Y-8561410D01*
X11510054Y-8548910D02*
X11510054Y-8603910D01*
X11482554Y-8576410D02*
X11537554Y-8576410D01*
X11510054Y-8563910D02*
X11510054Y-8618910D01*
X11482554Y-8591410D02*
X11537554Y-8591410D01*
X11510054Y-9033910D02*
X11510054Y-9088910D01*
X11482554Y-9061410D02*
X11537554Y-9061410D01*
X11510054Y-9048910D02*
X11510054Y-9103910D01*
X11482554Y-9076410D02*
X11537554Y-9076410D01*
X11510054Y-9063910D02*
X11510054Y-9118910D01*
X11482554Y-9091410D02*
X11537554Y-9091410D01*
X13006341Y-7583441D02*
X13006341Y-7529559D01*
X12952459Y-7529559D01*
X12952459Y-7583441D01*
X13006341Y-7583441D01*
X13006341Y-7837441D02*
X13006341Y-7783559D01*
X12952459Y-7783559D01*
X12952459Y-7837441D01*
X13006341Y-7837441D01*
X13260341Y-7583441D02*
X13260341Y-7529559D01*
X13206459Y-7529559D01*
X13206459Y-7583441D01*
X13260341Y-7583441D01*
X13260341Y-7837441D02*
X13260341Y-7783559D01*
X13206459Y-7783559D01*
X13206459Y-7837441D01*
X13260341Y-7837441D01*
X13514341Y-7583441D02*
X13514341Y-7529559D01*
X13460459Y-7529559D01*
X13460459Y-7583441D01*
X13514341Y-7583441D01*
X13514341Y-7837441D02*
X13514341Y-7783559D01*
X13460459Y-7783559D01*
X13460459Y-7837441D01*
X13514341Y-7837441D01*
X13768341Y-7583441D02*
X13768341Y-7529559D01*
X13714459Y-7529559D01*
X13714459Y-7583441D01*
X13768341Y-7583441D01*
X13768341Y-7837441D02*
X13768341Y-7783559D01*
X13714459Y-7783559D01*
X13714459Y-7837441D01*
X13768341Y-7837441D01*
X13920741Y-12155441D02*
X13920741Y-12101559D01*
X13866859Y-12101559D01*
X13866859Y-12155441D01*
X13920741Y-12155441D01*
X13920741Y-12409441D02*
X13920741Y-12355559D01*
X13866859Y-12355559D01*
X13866859Y-12409441D01*
X13920741Y-12409441D01*
X14022341Y-7583441D02*
X14022341Y-7529559D01*
X13968459Y-7529559D01*
X13968459Y-7583441D01*
X14022341Y-7583441D01*
X14022341Y-7837441D02*
X14022341Y-7783559D01*
X13968459Y-7783559D01*
X13968459Y-7837441D01*
X14022341Y-7837441D01*
X14174741Y-12155441D02*
X14174741Y-12101559D01*
X14120859Y-12101559D01*
X14120859Y-12155441D01*
X14174741Y-12155441D01*
X14174741Y-12409441D02*
X14174741Y-12355559D01*
X14120859Y-12355559D01*
X14120859Y-12409441D01*
X14174741Y-12409441D01*
X14276341Y-7583441D02*
X14276341Y-7529559D01*
X14222459Y-7529559D01*
X14222459Y-7583441D01*
X14276341Y-7583441D01*
X14276341Y-7837441D02*
X14276341Y-7783559D01*
X14222459Y-7783559D01*
X14222459Y-7837441D01*
X14276341Y-7837441D01*
X14428741Y-12155441D02*
X14428741Y-12101559D01*
X14374859Y-12101559D01*
X14374859Y-12155441D01*
X14428741Y-12155441D01*
X14428741Y-12409441D02*
X14428741Y-12355559D01*
X14374859Y-12355559D01*
X14374859Y-12409441D01*
X14428741Y-12409441D01*
X14530341Y-7583441D02*
X14530341Y-7529559D01*
X14476459Y-7529559D01*
X14476459Y-7583441D01*
X14530341Y-7583441D01*
X14530341Y-7837441D02*
X14530341Y-7783559D01*
X14476459Y-7783559D01*
X14476459Y-7837441D01*
X14530341Y-7837441D01*
X14682741Y-12155441D02*
X14682741Y-12101559D01*
X14628859Y-12101559D01*
X14628859Y-12155441D01*
X14682741Y-12155441D01*
X14682741Y-12409441D02*
X14682741Y-12355559D01*
X14628859Y-12355559D01*
X14628859Y-12409441D01*
X14682741Y-12409441D01*
X14784341Y-7583441D02*
X14784341Y-7529559D01*
X14730459Y-7529559D01*
X14730459Y-7583441D01*
X14784341Y-7583441D01*
X14784341Y-7837441D02*
X14784341Y-7783559D01*
X14730459Y-7783559D01*
X14730459Y-7837441D01*
X14784341Y-7837441D01*
X14936741Y-12155441D02*
X14936741Y-12101559D01*
X14882859Y-12101559D01*
X14882859Y-12155441D01*
X14936741Y-12155441D01*
X14936741Y-12409441D02*
X14936741Y-12355559D01*
X14882859Y-12355559D01*
X14882859Y-12409441D01*
X14936741Y-12409441D01*
X15038341Y-7583441D02*
X15038341Y-7529559D01*
X14984459Y-7529559D01*
X14984459Y-7583441D01*
X15038341Y-7583441D01*
X15038341Y-7837441D02*
X15038341Y-7783559D01*
X14984459Y-7783559D01*
X14984459Y-7837441D01*
X15038341Y-7837441D01*
X15190741Y-12155441D02*
X15190741Y-12101559D01*
X15136859Y-12101559D01*
X15136859Y-12155441D01*
X15190741Y-12155441D01*
X15190741Y-12409441D02*
X15190741Y-12355559D01*
X15136859Y-12355559D01*
X15136859Y-12409441D01*
X15190741Y-12409441D01*
X15292341Y-7583441D02*
X15292341Y-7529559D01*
X15238459Y-7529559D01*
X15238459Y-7583441D01*
X15292341Y-7583441D01*
X15292341Y-7837441D02*
X15292341Y-7783559D01*
X15238459Y-7783559D01*
X15238459Y-7837441D01*
X15292341Y-7837441D01*
X15444741Y-12155441D02*
X15444741Y-12101559D01*
X15390859Y-12101559D01*
X15390859Y-12155441D01*
X15444741Y-12155441D01*
X15444741Y-12409441D02*
X15444741Y-12355559D01*
X15390859Y-12355559D01*
X15390859Y-12409441D01*
X15444741Y-12409441D01*
X15698741Y-7583441D02*
X15698741Y-7529559D01*
X15644859Y-7529559D01*
X15644859Y-7583441D01*
X15698741Y-7583441D01*
X15698741Y-7837441D02*
X15698741Y-7783559D01*
X15644859Y-7783559D01*
X15644859Y-7837441D01*
X15698741Y-7837441D01*
X15698741Y-12155441D02*
X15698741Y-12101559D01*
X15644859Y-12101559D01*
X15644859Y-12155441D01*
X15698741Y-12155441D01*
X15698741Y-12409441D02*
X15698741Y-12355559D01*
X15644859Y-12355559D01*
X15644859Y-12409441D01*
X15698741Y-12409441D01*
X15952741Y-7583441D02*
X15952741Y-7529559D01*
X15898859Y-7529559D01*
X15898859Y-7583441D01*
X15952741Y-7583441D01*
X15952741Y-7837441D02*
X15952741Y-7783559D01*
X15898859Y-7783559D01*
X15898859Y-7837441D01*
X15952741Y-7837441D01*
X16206741Y-7583441D02*
X16206741Y-7529559D01*
X16152859Y-7529559D01*
X16152859Y-7583441D01*
X16206741Y-7583441D01*
X16206741Y-7837441D02*
X16206741Y-7783559D01*
X16152859Y-7783559D01*
X16152859Y-7837441D01*
X16206741Y-7837441D01*
X16206741Y-12155441D02*
X16206741Y-12101559D01*
X16152859Y-12101559D01*
X16152859Y-12155441D01*
X16206741Y-12155441D01*
X16206741Y-12409441D02*
X16206741Y-12355559D01*
X16152859Y-12355559D01*
X16152859Y-12409441D01*
X16206741Y-12409441D01*
X16460741Y-7583441D02*
X16460741Y-7529559D01*
X16406859Y-7529559D01*
X16406859Y-7583441D01*
X16460741Y-7583441D01*
X16460741Y-7837441D02*
X16460741Y-7783559D01*
X16406859Y-7783559D01*
X16406859Y-7837441D01*
X16460741Y-7837441D01*
X16460741Y-12155441D02*
X16460741Y-12101559D01*
X16406859Y-12101559D01*
X16406859Y-12155441D01*
X16460741Y-12155441D01*
X16460741Y-12409441D02*
X16460741Y-12355559D01*
X16406859Y-12355559D01*
X16406859Y-12409441D01*
X16460741Y-12409441D01*
X16714741Y-7583441D02*
X16714741Y-7529559D01*
X16660859Y-7529559D01*
X16660859Y-7583441D01*
X16714741Y-7583441D01*
X16714741Y-7837441D02*
X16714741Y-7783559D01*
X16660859Y-7783559D01*
X16660859Y-7837441D01*
X16714741Y-7837441D01*
X16714741Y-12155441D02*
X16714741Y-12101559D01*
X16660859Y-12101559D01*
X16660859Y-12155441D01*
X16714741Y-12155441D01*
X16714741Y-12409441D02*
X16714741Y-12355559D01*
X16660859Y-12355559D01*
X16660859Y-12409441D01*
X16714741Y-12409441D01*
X16968741Y-7583441D02*
X16968741Y-7529559D01*
X16914859Y-7529559D01*
X16914859Y-7583441D01*
X16968741Y-7583441D01*
X16968741Y-7837441D02*
X16968741Y-7783559D01*
X16914859Y-7783559D01*
X16914859Y-7837441D01*
X16968741Y-7837441D01*
X16968741Y-12155441D02*
X16968741Y-12101559D01*
X16914859Y-12101559D01*
X16914859Y-12155441D01*
X16968741Y-12155441D01*
X16968741Y-12409441D02*
X16968741Y-12355559D01*
X16914859Y-12355559D01*
X16914859Y-12409441D01*
X16968741Y-12409441D01*
X17222741Y-7583441D02*
X17222741Y-7529559D01*
X17168859Y-7529559D01*
X17168859Y-7583441D01*
X17222741Y-7583441D01*
X17222741Y-7837441D02*
X17222741Y-7783559D01*
X17168859Y-7783559D01*
X17168859Y-7837441D01*
X17222741Y-7837441D01*
X17222741Y-12155441D02*
X17222741Y-12101559D01*
X17168859Y-12101559D01*
X17168859Y-12155441D01*
X17222741Y-12155441D01*
X17222741Y-12409441D02*
X17222741Y-12355559D01*
X17168859Y-12355559D01*
X17168859Y-12409441D01*
X17222741Y-12409441D01*
X17476741Y-7583441D02*
X17476741Y-7529559D01*
X17422859Y-7529559D01*
X17422859Y-7583441D01*
X17476741Y-7583441D01*
X17476741Y-7837441D02*
X17476741Y-7783559D01*
X17422859Y-7783559D01*
X17422859Y-7837441D01*
X17476741Y-7837441D01*
X17476741Y-12155441D02*
X17476741Y-12101559D01*
X17422859Y-12101559D01*
X17422859Y-12155441D01*
X17476741Y-12155441D01*
X17476741Y-12409441D02*
X17476741Y-12355559D01*
X17422859Y-12355559D01*
X17422859Y-12409441D01*
X17476741Y-12409441D01*
X11723700Y-8742140D02*
X11764340Y-8701500D01*
X11723700Y-8660860D01*
X11683060Y-8701500D01*
X11723700Y-8742140D01*
X11723700Y-8992140D02*
X11764340Y-8951500D01*
X11723700Y-8910860D01*
X11683060Y-8951500D01*
X11723700Y-8992140D01*
X11923700Y-8742140D02*
X11964340Y-8701500D01*
X11923700Y-8660860D01*
X11883060Y-8701500D01*
X11923700Y-8742140D01*
X11923700Y-8992140D02*
X11964340Y-8951500D01*
X11923700Y-8910860D01*
X11883060Y-8951500D01*
X11923700Y-8992140D01*
X11337700Y-8174500D02*
X11437700Y-8274500D01*
X11437700Y-8174500D02*
X11337700Y-8274500D01*
X11437700Y-8224500D02*
G75*
G03X11437700Y-8224500I-50000J0D01*
G01*
X11337700Y-9378500D02*
X11437700Y-9478500D01*
X11437700Y-9378500D02*
X11337700Y-9478500D01*
X11437700Y-9428500D02*
G75*
G03X11437700Y-9428500I-50000J0D01*
G01*
X11359700Y-8174500D02*
X11459700Y-8274500D01*
X11459700Y-8174500D02*
X11359700Y-8274500D01*
X11459700Y-8224500D02*
G75*
G03X11459700Y-8224500I-50000J0D01*
G01*
X11359700Y-9378500D02*
X11459700Y-9478500D01*
X11459700Y-9378500D02*
X11359700Y-9478500D01*
X11459700Y-9428500D02*
G75*
G03X11459700Y-9428500I-50000J0D01*
G01*
X11381700Y-8174500D02*
X11481700Y-8274500D01*
X11481700Y-8174500D02*
X11381700Y-8274500D01*
X11481700Y-8224500D02*
G75*
G03X11481700Y-8224500I-50000J0D01*
G01*
X11381700Y-9378500D02*
X11481700Y-9478500D01*
X11481700Y-9378500D02*
X11381700Y-9478500D01*
X11481700Y-9428500D02*
G75*
G03X11481700Y-9428500I-50000J0D01*
G01*
X11403700Y-8174500D02*
X11503700Y-8274500D01*
X11503700Y-8174500D02*
X11403700Y-8274500D01*
X11503700Y-8224500D02*
G75*
G03X11503700Y-8224500I-50000J0D01*
G01*
X11403700Y-9378500D02*
X11503700Y-9478500D01*
X11503700Y-9378500D02*
X11403700Y-9478500D01*
X11503700Y-9428500D02*
G75*
G03X11503700Y-9428500I-50000J0D01*
G01*
X11425700Y-8174500D02*
X11525700Y-8274500D01*
X11525700Y-8174500D02*
X11425700Y-8274500D01*
X11525700Y-8224500D02*
G75*
G03X11525700Y-8224500I-50000J0D01*
G01*
X11425700Y-9378500D02*
X11525700Y-9478500D01*
X11525700Y-9378500D02*
X11425700Y-9478500D01*
X11525700Y-9428500D02*
G75*
G03X11525700Y-9428500I-50000J0D01*
G01*
X11447700Y-8174500D02*
X11547700Y-8274500D01*
X11547700Y-8174500D02*
X11447700Y-8274500D01*
X11547700Y-8224500D02*
G75*
G03X11547700Y-8224500I-50000J0D01*
G01*
X11447700Y-9378500D02*
X11547700Y-9478500D01*
X11547700Y-9378500D02*
X11447700Y-9478500D01*
X11547700Y-9428500D02*
G75*
G03X11547700Y-9428500I-50000J0D01*
G01*
X11450866Y-11724500D02*
X11550866Y-11824500D01*
X11550866Y-11724500D02*
X11450866Y-11824500D01*
X11550866Y-11774500D02*
G75*
G03X11550866Y-11774500I-50000J0D01*
G01*
X11450866Y-11749500D02*
X11550866Y-11849500D01*
X11550866Y-11749500D02*
X11450866Y-11849500D01*
X11550866Y-11799500D02*
G75*
G03X11550866Y-11799500I-50000J0D01*
G01*
X11450866Y-11774500D02*
X11550866Y-11874500D01*
X11550866Y-11774500D02*
X11450866Y-11874500D01*
X11550866Y-11824500D02*
G75*
G03X11550866Y-11824500I-50000J0D01*
G01*
X11450866Y-11799500D02*
X11550866Y-11899500D01*
X11550866Y-11799500D02*
X11450866Y-11899500D01*
X11550866Y-11849500D02*
G75*
G03X11550866Y-11849500I-50000J0D01*
G01*
X11450866Y-11824500D02*
X11550866Y-11924500D01*
X11550866Y-11824500D02*
X11450866Y-11924500D01*
X11550866Y-11874500D02*
G75*
G03X11550866Y-11874500I-50000J0D01*
G01*
X11450866Y-11849500D02*
X11550866Y-11949500D01*
X11550866Y-11849500D02*
X11450866Y-11949500D01*
X11550866Y-11899500D02*
G75*
G03X11550866Y-11899500I-50000J0D01*
G01*
X11450866Y-11874500D02*
X11550866Y-11974500D01*
X11550866Y-11874500D02*
X11450866Y-11974500D01*
X11550866Y-11924500D02*
G75*
G03X11550866Y-11924500I-50000J0D01*
G01*
X11450866Y-11899500D02*
X11550866Y-11999500D01*
X11550866Y-11899500D02*
X11450866Y-11999500D01*
X11550866Y-11949500D02*
G75*
G03X11550866Y-11949500I-50000J0D01*
G01*
X11450866Y-11924500D02*
X11550866Y-12024500D01*
X11550866Y-11924500D02*
X11450866Y-12024500D01*
X11550866Y-11974500D02*
G75*
G03X11550866Y-11974500I-50000J0D01*
G01*
X11469700Y-8174500D02*
X11569700Y-8274500D01*
X11569700Y-8174500D02*
X11469700Y-8274500D01*
X11569700Y-8224500D02*
G75*
G03X11569700Y-8224500I-50000J0D01*
G01*
X11469700Y-9378500D02*
X11569700Y-9478500D01*
X11569700Y-9378500D02*
X11469700Y-9478500D01*
X11569700Y-9428500D02*
G75*
G03X11569700Y-9428500I-50000J0D01*
G01*
X11650840Y-12294400D02*
X11750840Y-12394400D01*
X11750840Y-12294400D02*
X11650840Y-12394400D01*
X11750840Y-12344400D02*
G75*
G03X11750840Y-12344400I-50000J0D01*
G01*
X11675840Y-12294400D02*
X11775840Y-12394400D01*
X11775840Y-12294400D02*
X11675840Y-12394400D01*
X11775840Y-12344400D02*
G75*
G03X11775840Y-12344400I-50000J0D01*
G01*
X11700840Y-12294400D02*
X11800840Y-12394400D01*
X11800840Y-12294400D02*
X11700840Y-12394400D01*
X11800840Y-12344400D02*
G75*
G03X11800840Y-12344400I-50000J0D01*
G01*
X11725840Y-12294400D02*
X11825840Y-12394400D01*
X11825840Y-12294400D02*
X11725840Y-12394400D01*
X11825840Y-12344400D02*
G75*
G03X11825840Y-12344400I-50000J0D01*
G01*
X11750840Y-12294400D02*
X11850840Y-12394400D01*
X11850840Y-12294400D02*
X11750840Y-12394400D01*
X11850840Y-12344400D02*
G75*
G03X11850840Y-12344400I-50000J0D01*
G01*
X11775840Y-12294400D02*
X11875840Y-12394400D01*
X11875840Y-12294400D02*
X11775840Y-12394400D01*
X11875840Y-12344400D02*
G75*
G03X11875840Y-12344400I-50000J0D01*
G01*
X11800840Y-12294400D02*
X11900840Y-12394400D01*
X11900840Y-12294400D02*
X11800840Y-12394400D01*
X11900840Y-12344400D02*
G75*
G03X11900840Y-12344400I-50000J0D01*
G01*
X11825840Y-12294400D02*
X11925840Y-12394400D01*
X11925840Y-12294400D02*
X11825840Y-12394400D01*
X11925840Y-12344400D02*
G75*
G03X11925840Y-12344400I-50000J0D01*
G01*
X11850840Y-12294400D02*
X11950840Y-12394400D01*
X11950840Y-12294400D02*
X11850840Y-12394400D01*
X11950840Y-12344400D02*
G75*
G03X11950840Y-12344400I-50000J0D01*
G01*
X12050814Y-11724500D02*
X12150814Y-11824500D01*
X12150814Y-11724500D02*
X12050814Y-11824500D01*
X12150814Y-11774500D02*
G75*
G03X12150814Y-11774500I-50000J0D01*
G01*
X12050814Y-11749500D02*
X12150814Y-11849500D01*
X12150814Y-11749500D02*
X12050814Y-11849500D01*
X12150814Y-11799500D02*
G75*
G03X12150814Y-11799500I-50000J0D01*
G01*
X12050814Y-11774500D02*
X12150814Y-11874500D01*
X12150814Y-11774500D02*
X12050814Y-11874500D01*
X12150814Y-11824500D02*
G75*
G03X12150814Y-11824500I-50000J0D01*
G01*
X12050814Y-11799500D02*
X12150814Y-11899500D01*
X12150814Y-11799500D02*
X12050814Y-11899500D01*
X12150814Y-11849500D02*
G75*
G03X12150814Y-11849500I-50000J0D01*
G01*
X12050814Y-11824500D02*
X12150814Y-11924500D01*
X12150814Y-11824500D02*
X12050814Y-11924500D01*
X12150814Y-11874500D02*
G75*
G03X12150814Y-11874500I-50000J0D01*
G01*
X12050814Y-11849500D02*
X12150814Y-11949500D01*
X12150814Y-11849500D02*
X12050814Y-11949500D01*
X12150814Y-11899500D02*
G75*
G03X12150814Y-11899500I-50000J0D01*
G01*
X12050814Y-11874500D02*
X12150814Y-11974500D01*
X12150814Y-11874500D02*
X12050814Y-11974500D01*
X12150814Y-11924500D02*
G75*
G03X12150814Y-11924500I-50000J0D01*
G01*
X12050814Y-11899500D02*
X12150814Y-11999500D01*
X12150814Y-11899500D02*
X12050814Y-11999500D01*
X12150814Y-11949500D02*
G75*
G03X12150814Y-11949500I-50000J0D01*
G01*
X12050814Y-11924500D02*
X12150814Y-12024500D01*
X12150814Y-11924500D02*
X12050814Y-12024500D01*
X12150814Y-11974500D02*
G75*
G03X12150814Y-11974500I-50000J0D01*
G01*
X11696700Y-11569700D02*
X11798300Y-11671300D01*
X11798300Y-11569700D02*
X11696700Y-11671300D01*
X11747500Y-11569700D02*
X11747500Y-11671300D01*
X11696700Y-11620500D02*
X11798300Y-11620500D01*
X11696700Y-12077700D02*
X11798300Y-12179300D01*
X11798300Y-12077700D02*
X11696700Y-12179300D01*
X11747500Y-12077700D02*
X11747500Y-12179300D01*
X11696700Y-12128500D02*
X11798300Y-12128500D01*
X17411700Y-9537700D02*
X17513300Y-9639300D01*
X17513300Y-9537700D02*
X17411700Y-9639300D01*
X17462500Y-9537700D02*
X17462500Y-9639300D01*
X17411700Y-9588500D02*
X17513300Y-9588500D01*
X17411700Y-9791700D02*
X17513300Y-9893300D01*
X17513300Y-9791700D02*
X17411700Y-9893300D01*
X17462500Y-9791700D02*
X17462500Y-9893300D01*
X17411700Y-9842500D02*
X17513300Y-9842500D01*
X17411700Y-10045700D02*
X17513300Y-10147300D01*
X17513300Y-10045700D02*
X17411700Y-10147300D01*
X17462500Y-10045700D02*
X17462500Y-10147300D01*
X17411700Y-10096500D02*
X17513300Y-10096500D01*
X17411700Y-10299700D02*
X17513300Y-10401300D01*
X17513300Y-10299700D02*
X17411700Y-10401300D01*
X17462500Y-10299700D02*
X17462500Y-10401300D01*
X17411700Y-10350500D02*
X17513300Y-10350500D01*
X17411700Y-10553700D02*
X17513300Y-10655300D01*
X17513300Y-10553700D02*
X17411700Y-10655300D01*
X17462500Y-10553700D02*
X17462500Y-10655300D01*
X17411700Y-10604500D02*
X17513300Y-10604500D01*
X17665700Y-9537700D02*
X17767300Y-9639300D01*
X17767300Y-9537700D02*
X17665700Y-9639300D01*
X17716500Y-9537700D02*
X17716500Y-9639300D01*
X17665700Y-9588500D02*
X17767300Y-9588500D01*
X17665700Y-9791700D02*
X17767300Y-9893300D01*
X17767300Y-9791700D02*
X17665700Y-9893300D01*
X17716500Y-9791700D02*
X17716500Y-9893300D01*
X17665700Y-9842500D02*
X17767300Y-9842500D01*
X17665700Y-10045700D02*
X17767300Y-10147300D01*
X17767300Y-10045700D02*
X17665700Y-10147300D01*
X17716500Y-10045700D02*
X17716500Y-10147300D01*
X17665700Y-10096500D02*
X17767300Y-10096500D01*
X17665700Y-10299700D02*
X17767300Y-10401300D01*
X17767300Y-10299700D02*
X17665700Y-10401300D01*
X17716500Y-10299700D02*
X17716500Y-10401300D01*
X17665700Y-10350500D02*
X17767300Y-10350500D01*
X17665700Y-10553700D02*
X17767300Y-10655300D01*
X17767300Y-10553700D02*
X17665700Y-10655300D01*
X17716500Y-10553700D02*
X17716500Y-10655300D01*
X17665700Y-10604500D02*
X17767300Y-10604500D01*
X12344400Y-12230100D02*
X12649200Y-12534900D01*
X12649200Y-12230100D02*
X12344400Y-12534900D01*
X12604564Y-12490264D02*
X12604564Y-12274736D01*
X12389036Y-12274736D01*
X12389036Y-12490264D01*
X12604564Y-12490264D01*
X12471400Y-7404100D02*
X12776200Y-7708900D01*
X12776200Y-7404100D02*
X12471400Y-7708900D01*
X12731564Y-7664264D02*
X12731564Y-7448736D01*
X12516036Y-7448736D01*
X12516036Y-7664264D01*
X12731564Y-7664264D01*
X17551400Y-8928100D02*
X17856200Y-9232900D01*
X17856200Y-8928100D02*
X17551400Y-9232900D01*
X17811564Y-9188264D02*
X17811564Y-8972736D01*
X17596036Y-8972736D01*
X17596036Y-9188264D01*
X17811564Y-9188264D01*
X17551400Y-11722100D02*
X17856200Y-12026900D01*
X17856200Y-11722100D02*
X17551400Y-12026900D01*
X17811564Y-11982264D02*
X17811564Y-11766736D01*
X17596036Y-11766736D01*
X17596036Y-11982264D01*
X17811564Y-11982264D01*
D13*
X11363728Y-13109714D02*
X11363728Y-12809714D01*
X11435157Y-12809714D01*
X11478014Y-12824000D01*
X11506586Y-12852571D01*
X11520871Y-12881143D01*
X11535157Y-12938286D01*
X11535157Y-12981143D01*
X11520871Y-13038286D01*
X11506586Y-13066857D01*
X11478014Y-13095429D01*
X11435157Y-13109714D01*
X11363728Y-13109714D01*
X11663728Y-13109714D02*
X11663728Y-12909714D01*
X11663728Y-12966857D02*
X11678014Y-12938286D01*
X11692300Y-12924000D01*
X11720871Y-12909714D01*
X11749443Y-12909714D01*
X11849443Y-13109714D02*
X11849443Y-12909714D01*
X11849443Y-12809714D02*
X11835157Y-12824000D01*
X11849443Y-12838286D01*
X11863728Y-12824000D01*
X11849443Y-12809714D01*
X11849443Y-12838286D01*
X12035157Y-13109714D02*
X12006586Y-13095429D01*
X11992300Y-13066857D01*
X11992300Y-12809714D01*
X12192300Y-13109714D02*
X12163728Y-13095429D01*
X12149443Y-13066857D01*
X12149443Y-12809714D01*
X12535157Y-13109714D02*
X12535157Y-12809714D01*
X12635157Y-13024000D01*
X12735157Y-12809714D01*
X12735157Y-13109714D01*
X13006586Y-13109714D02*
X13006586Y-12952571D01*
X12992300Y-12924000D01*
X12963728Y-12909714D01*
X12906586Y-12909714D01*
X12878014Y-12924000D01*
X13006586Y-13095429D02*
X12978014Y-13109714D01*
X12906586Y-13109714D01*
X12878014Y-13095429D01*
X12863728Y-13066857D01*
X12863728Y-13038286D01*
X12878014Y-13009714D01*
X12906586Y-12995429D01*
X12978014Y-12995429D01*
X13006586Y-12981143D01*
X13149443Y-12909714D02*
X13149443Y-13209714D01*
X13149443Y-12924000D02*
X13178014Y-12909714D01*
X13235157Y-12909714D01*
X13263728Y-12924000D01*
X13278014Y-12938286D01*
X13292300Y-12966857D01*
X13292300Y-13052571D01*
X13278014Y-13081143D01*
X13263728Y-13095429D01*
X13235157Y-13109714D01*
X13178014Y-13109714D01*
X13149443Y-13095429D01*
X13420871Y-13081143D02*
X13435157Y-13095429D01*
X13420871Y-13109714D01*
X13406586Y-13095429D01*
X13420871Y-13081143D01*
X13420871Y-13109714D01*
X13420871Y-12924000D02*
X13435157Y-12938286D01*
X13420871Y-12952571D01*
X13406586Y-12938286D01*
X13420871Y-12924000D01*
X13420871Y-12952571D01*
X11061820Y-13588760D02*
X11092300Y-13619240D01*
X11092300Y-13588760D02*
X11061820Y-13619240D01*
X11420871Y-13439714D02*
X11449443Y-13439714D01*
X11478014Y-13454000D01*
X11492300Y-13468286D01*
X11506586Y-13496857D01*
X11520871Y-13554000D01*
X11520871Y-13625429D01*
X11506586Y-13682571D01*
X11492300Y-13711143D01*
X11478014Y-13725429D01*
X11449443Y-13739714D01*
X11420871Y-13739714D01*
X11392300Y-13725429D01*
X11378014Y-13711143D01*
X11363728Y-13682571D01*
X11349443Y-13625429D01*
X11349443Y-13554000D01*
X11363728Y-13496857D01*
X11378014Y-13468286D01*
X11392300Y-13454000D01*
X11420871Y-13439714D01*
X11649443Y-13711143D02*
X11663728Y-13725429D01*
X11649443Y-13739714D01*
X11635157Y-13725429D01*
X11649443Y-13711143D01*
X11649443Y-13739714D01*
X11763728Y-13439714D02*
X11949443Y-13439714D01*
X11849443Y-13554000D01*
X11892300Y-13554000D01*
X11920871Y-13568286D01*
X11935157Y-13582571D01*
X11949443Y-13611143D01*
X11949443Y-13682571D01*
X11935157Y-13711143D01*
X11920871Y-13725429D01*
X11892300Y-13739714D01*
X11806586Y-13739714D01*
X11778014Y-13725429D01*
X11763728Y-13711143D01*
X12135157Y-13439714D02*
X12163728Y-13439714D01*
X12192300Y-13454000D01*
X12206586Y-13468286D01*
X12220871Y-13496857D01*
X12235157Y-13554000D01*
X12235157Y-13625429D01*
X12220871Y-13682571D01*
X12206586Y-13711143D01*
X12192300Y-13725429D01*
X12163728Y-13739714D01*
X12135157Y-13739714D01*
X12106586Y-13725429D01*
X12092300Y-13711143D01*
X12078014Y-13682571D01*
X12063728Y-13625429D01*
X12063728Y-13554000D01*
X12078014Y-13496857D01*
X12092300Y-13468286D01*
X12106586Y-13454000D01*
X12135157Y-13439714D01*
X12363728Y-13739714D02*
X12363728Y-13539714D01*
X12363728Y-13568286D02*
X12378014Y-13554000D01*
X12406586Y-13539714D01*
X12449443Y-13539714D01*
X12478014Y-13554000D01*
X12492300Y-13582571D01*
X12492300Y-13739714D01*
X12492300Y-13582571D02*
X12506586Y-13554000D01*
X12535157Y-13539714D01*
X12578014Y-13539714D01*
X12606586Y-13554000D01*
X12620871Y-13582571D01*
X12620871Y-13739714D01*
X12763728Y-13739714D02*
X12763728Y-13539714D01*
X12763728Y-13568286D02*
X12778014Y-13554000D01*
X12806586Y-13539714D01*
X12849443Y-13539714D01*
X12878014Y-13554000D01*
X12892300Y-13582571D01*
X12892300Y-13739714D01*
X12892300Y-13582571D02*
X12906586Y-13554000D01*
X12935157Y-13539714D01*
X12978014Y-13539714D01*
X13006586Y-13554000D01*
X13020871Y-13582571D01*
X13020871Y-13739714D01*
X13606586Y-13425429D02*
X13349443Y-13811143D01*
X13992300Y-13439714D02*
X14020871Y-13439714D01*
X14049443Y-13454000D01*
X14063728Y-13468286D01*
X14078014Y-13496857D01*
X14092300Y-13554000D01*
X14092300Y-13625429D01*
X14078014Y-13682571D01*
X14063728Y-13711143D01*
X14049443Y-13725429D01*
X14020871Y-13739714D01*
X13992300Y-13739714D01*
X13963728Y-13725429D01*
X13949443Y-13711143D01*
X13935157Y-13682571D01*
X13920871Y-13625429D01*
X13920871Y-13554000D01*
X13935157Y-13496857D01*
X13949443Y-13468286D01*
X13963728Y-13454000D01*
X13992300Y-13439714D01*
X14220871Y-13711143D02*
X14235157Y-13725429D01*
X14220871Y-13739714D01*
X14206586Y-13725429D01*
X14220871Y-13711143D01*
X14220871Y-13739714D01*
X14420871Y-13439714D02*
X14449443Y-13439714D01*
X14478014Y-13454000D01*
X14492300Y-13468286D01*
X14506585Y-13496857D01*
X14520871Y-13554000D01*
X14520871Y-13625429D01*
X14506585Y-13682571D01*
X14492300Y-13711143D01*
X14478014Y-13725429D01*
X14449443Y-13739714D01*
X14420871Y-13739714D01*
X14392300Y-13725429D01*
X14378014Y-13711143D01*
X14363728Y-13682571D01*
X14349443Y-13625429D01*
X14349443Y-13554000D01*
X14363728Y-13496857D01*
X14378014Y-13468286D01*
X14392300Y-13454000D01*
X14420871Y-13439714D01*
X14806585Y-13739714D02*
X14635157Y-13739714D01*
X14720871Y-13739714D02*
X14720871Y-13439714D01*
X14692300Y-13482571D01*
X14663728Y-13511143D01*
X14635157Y-13525429D01*
X14920871Y-13468286D02*
X14935157Y-13454000D01*
X14963728Y-13439714D01*
X15035157Y-13439714D01*
X15063728Y-13454000D01*
X15078014Y-13468286D01*
X15092300Y-13496857D01*
X15092300Y-13525429D01*
X15078014Y-13568286D01*
X14906585Y-13739714D01*
X15092300Y-13739714D01*
X15206586Y-13439714D02*
X15206586Y-13496857D01*
X15320871Y-13439714D02*
X15320871Y-13496857D01*
X15763728Y-13854000D02*
X15749443Y-13839714D01*
X15720871Y-13796857D01*
X15706585Y-13768286D01*
X15692300Y-13725429D01*
X15678014Y-13654000D01*
X15678014Y-13596857D01*
X15692300Y-13525429D01*
X15706585Y-13482571D01*
X15720871Y-13454000D01*
X15749443Y-13411143D01*
X15763728Y-13396857D01*
X16035157Y-13739714D02*
X15863728Y-13739714D01*
X15949443Y-13739714D02*
X15949443Y-13439714D01*
X15920871Y-13482571D01*
X15892300Y-13511143D01*
X15863728Y-13525429D01*
X16306585Y-13439714D02*
X16163728Y-13439714D01*
X16149443Y-13582571D01*
X16163728Y-13568286D01*
X16192300Y-13554000D01*
X16263728Y-13554000D01*
X16292300Y-13568286D01*
X16306585Y-13582571D01*
X16320871Y-13611143D01*
X16320871Y-13682571D01*
X16306585Y-13711143D01*
X16292300Y-13725429D01*
X16263728Y-13739714D01*
X16192300Y-13739714D01*
X16163728Y-13725429D01*
X16149443Y-13711143D01*
X16606585Y-13739714D02*
X16435157Y-13739714D01*
X16520871Y-13739714D02*
X16520871Y-13439714D01*
X16492300Y-13482571D01*
X16463728Y-13511143D01*
X16435157Y-13525429D01*
X16963728Y-13739714D02*
X16963728Y-13439714D01*
X17092300Y-13739714D02*
X17092300Y-13582571D01*
X17078014Y-13554000D01*
X17049443Y-13539714D01*
X17006586Y-13539714D01*
X16978014Y-13554000D01*
X16963728Y-13568286D01*
X17278014Y-13739714D02*
X17249443Y-13725429D01*
X17235157Y-13711143D01*
X17220871Y-13682571D01*
X17220871Y-13596857D01*
X17235157Y-13568286D01*
X17249443Y-13554000D01*
X17278014Y-13539714D01*
X17320871Y-13539714D01*
X17349443Y-13554000D01*
X17363728Y-13568286D01*
X17378014Y-13596857D01*
X17378014Y-13682571D01*
X17363728Y-13711143D01*
X17349443Y-13725429D01*
X17320871Y-13739714D01*
X17278014Y-13739714D01*
X17549443Y-13739714D02*
X17520871Y-13725429D01*
X17506586Y-13696857D01*
X17506586Y-13439714D01*
X17778014Y-13725429D02*
X17749443Y-13739714D01*
X17692300Y-13739714D01*
X17663729Y-13725429D01*
X17649443Y-13696857D01*
X17649443Y-13582571D01*
X17663729Y-13554000D01*
X17692300Y-13539714D01*
X17749443Y-13539714D01*
X17778014Y-13554000D01*
X17792300Y-13582571D01*
X17792300Y-13611143D01*
X17649443Y-13639714D01*
X17906586Y-13725429D02*
X17935157Y-13739714D01*
X17992300Y-13739714D01*
X18020871Y-13725429D01*
X18035157Y-13696857D01*
X18035157Y-13682571D01*
X18020871Y-13654000D01*
X17992300Y-13639714D01*
X17949443Y-13639714D01*
X17920871Y-13625429D01*
X17906586Y-13596857D01*
X17906586Y-13582571D01*
X17920871Y-13554000D01*
X17949443Y-13539714D01*
X17992300Y-13539714D01*
X18020871Y-13554000D01*
X18135157Y-13854000D02*
X18149443Y-13839714D01*
X18178014Y-13796857D01*
X18192300Y-13768286D01*
X18206586Y-13725429D01*
X18220871Y-13654000D01*
X18220871Y-13596857D01*
X18206586Y-13525429D01*
X18192300Y-13482571D01*
X18178014Y-13454000D01*
X18149443Y-13411143D01*
X18135157Y-13396857D01*
X11092300Y-14000000D02*
G75*
G03X11092300Y-14000000I-25000J0D01*
G01*
X11420871Y-13835714D02*
X11449443Y-13835714D01*
X11478014Y-13850000D01*
X11492300Y-13864286D01*
X11506586Y-13892857D01*
X11520871Y-13950000D01*
X11520871Y-14021429D01*
X11506586Y-14078571D01*
X11492300Y-14107143D01*
X11478014Y-14121429D01*
X11449443Y-14135714D01*
X11420871Y-14135714D01*
X11392300Y-14121429D01*
X11378014Y-14107143D01*
X11363728Y-14078571D01*
X11349443Y-14021429D01*
X11349443Y-13950000D01*
X11363728Y-13892857D01*
X11378014Y-13864286D01*
X11392300Y-13850000D01*
X11420871Y-13835714D01*
X11649443Y-14107143D02*
X11663728Y-14121429D01*
X11649443Y-14135714D01*
X11635157Y-14121429D01*
X11649443Y-14107143D01*
X11649443Y-14135714D01*
X11935157Y-13835714D02*
X11792300Y-13835714D01*
X11778014Y-13978571D01*
X11792300Y-13964286D01*
X11820871Y-13950000D01*
X11892300Y-13950000D01*
X11920871Y-13964286D01*
X11935157Y-13978571D01*
X11949443Y-14007143D01*
X11949443Y-14078571D01*
X11935157Y-14107143D01*
X11920871Y-14121429D01*
X11892300Y-14135714D01*
X11820871Y-14135714D01*
X11792300Y-14121429D01*
X11778014Y-14107143D01*
X12135157Y-13835714D02*
X12163728Y-13835714D01*
X12192300Y-13850000D01*
X12206586Y-13864286D01*
X12220871Y-13892857D01*
X12235157Y-13950000D01*
X12235157Y-14021429D01*
X12220871Y-14078571D01*
X12206586Y-14107143D01*
X12192300Y-14121429D01*
X12163728Y-14135714D01*
X12135157Y-14135714D01*
X12106586Y-14121429D01*
X12092300Y-14107143D01*
X12078014Y-14078571D01*
X12063728Y-14021429D01*
X12063728Y-13950000D01*
X12078014Y-13892857D01*
X12092300Y-13864286D01*
X12106586Y-13850000D01*
X12135157Y-13835714D01*
X12363728Y-14135714D02*
X12363728Y-13935714D01*
X12363728Y-13964286D02*
X12378014Y-13950000D01*
X12406586Y-13935714D01*
X12449443Y-13935714D01*
X12478014Y-13950000D01*
X12492300Y-13978571D01*
X12492300Y-14135714D01*
X12492300Y-13978571D02*
X12506586Y-13950000D01*
X12535157Y-13935714D01*
X12578014Y-13935714D01*
X12606586Y-13950000D01*
X12620871Y-13978571D01*
X12620871Y-14135714D01*
X12763728Y-14135714D02*
X12763728Y-13935714D01*
X12763728Y-13964286D02*
X12778014Y-13950000D01*
X12806586Y-13935714D01*
X12849443Y-13935714D01*
X12878014Y-13950000D01*
X12892300Y-13978571D01*
X12892300Y-14135714D01*
X12892300Y-13978571D02*
X12906586Y-13950000D01*
X12935157Y-13935714D01*
X12978014Y-13935714D01*
X13006586Y-13950000D01*
X13020871Y-13978571D01*
X13020871Y-14135714D01*
X13606586Y-13821429D02*
X13349443Y-14207143D01*
X13992300Y-13835714D02*
X14020871Y-13835714D01*
X14049443Y-13850000D01*
X14063728Y-13864286D01*
X14078014Y-13892857D01*
X14092300Y-13950000D01*
X14092300Y-14021429D01*
X14078014Y-14078571D01*
X14063728Y-14107143D01*
X14049443Y-14121429D01*
X14020871Y-14135714D01*
X13992300Y-14135714D01*
X13963728Y-14121429D01*
X13949443Y-14107143D01*
X13935157Y-14078571D01*
X13920871Y-14021429D01*
X13920871Y-13950000D01*
X13935157Y-13892857D01*
X13949443Y-13864286D01*
X13963728Y-13850000D01*
X13992300Y-13835714D01*
X14220871Y-14107143D02*
X14235157Y-14121429D01*
X14220871Y-14135714D01*
X14206586Y-14121429D01*
X14220871Y-14107143D01*
X14220871Y-14135714D01*
X14420871Y-13835714D02*
X14449443Y-13835714D01*
X14478014Y-13850000D01*
X14492300Y-13864286D01*
X14506585Y-13892857D01*
X14520871Y-13950000D01*
X14520871Y-14021429D01*
X14506585Y-14078571D01*
X14492300Y-14107143D01*
X14478014Y-14121429D01*
X14449443Y-14135714D01*
X14420871Y-14135714D01*
X14392300Y-14121429D01*
X14378014Y-14107143D01*
X14363728Y-14078571D01*
X14349443Y-14021429D01*
X14349443Y-13950000D01*
X14363728Y-13892857D01*
X14378014Y-13864286D01*
X14392300Y-13850000D01*
X14420871Y-13835714D01*
X14635157Y-13864286D02*
X14649443Y-13850000D01*
X14678014Y-13835714D01*
X14749443Y-13835714D01*
X14778014Y-13850000D01*
X14792300Y-13864286D01*
X14806585Y-13892857D01*
X14806585Y-13921429D01*
X14792300Y-13964286D01*
X14620871Y-14135714D01*
X14806585Y-14135714D01*
X14992300Y-13835714D02*
X15020871Y-13835714D01*
X15049443Y-13850000D01*
X15063728Y-13864286D01*
X15078014Y-13892857D01*
X15092300Y-13950000D01*
X15092300Y-14021429D01*
X15078014Y-14078571D01*
X15063728Y-14107143D01*
X15049443Y-14121429D01*
X15020871Y-14135714D01*
X14992300Y-14135714D01*
X14963728Y-14121429D01*
X14949443Y-14107143D01*
X14935157Y-14078571D01*
X14920871Y-14021429D01*
X14920871Y-13950000D01*
X14935157Y-13892857D01*
X14949443Y-13864286D01*
X14963728Y-13850000D01*
X14992300Y-13835714D01*
X15206586Y-13835714D02*
X15206586Y-13892857D01*
X15320871Y-13835714D02*
X15320871Y-13892857D01*
X15763728Y-14250000D02*
X15749443Y-14235714D01*
X15720871Y-14192857D01*
X15706585Y-14164286D01*
X15692300Y-14121429D01*
X15678014Y-14050000D01*
X15678014Y-13992857D01*
X15692300Y-13921429D01*
X15706585Y-13878571D01*
X15720871Y-13850000D01*
X15749443Y-13807143D01*
X15763728Y-13792857D01*
X16035157Y-14135714D02*
X15863728Y-14135714D01*
X15949443Y-14135714D02*
X15949443Y-13835714D01*
X15920871Y-13878571D01*
X15892300Y-13907143D01*
X15863728Y-13921429D01*
X16220871Y-13835714D02*
X16249443Y-13835714D01*
X16278014Y-13850000D01*
X16292300Y-13864286D01*
X16306585Y-13892857D01*
X16320871Y-13950000D01*
X16320871Y-14021429D01*
X16306585Y-14078571D01*
X16292300Y-14107143D01*
X16278014Y-14121429D01*
X16249443Y-14135714D01*
X16220871Y-14135714D01*
X16192300Y-14121429D01*
X16178014Y-14107143D01*
X16163728Y-14078571D01*
X16149443Y-14021429D01*
X16149443Y-13950000D01*
X16163728Y-13892857D01*
X16178014Y-13864286D01*
X16192300Y-13850000D01*
X16220871Y-13835714D01*
X16678014Y-14135714D02*
X16678014Y-13835714D01*
X16806586Y-14135714D02*
X16806586Y-13978571D01*
X16792300Y-13950000D01*
X16763728Y-13935714D01*
X16720871Y-13935714D01*
X16692300Y-13950000D01*
X16678014Y-13964286D01*
X16992300Y-14135714D02*
X16963728Y-14121429D01*
X16949443Y-14107143D01*
X16935157Y-14078571D01*
X16935157Y-13992857D01*
X16949443Y-13964286D01*
X16963728Y-13950000D01*
X16992300Y-13935714D01*
X17035157Y-13935714D01*
X17063728Y-13950000D01*
X17078014Y-13964286D01*
X17092300Y-13992857D01*
X17092300Y-14078571D01*
X17078014Y-14107143D01*
X17063728Y-14121429D01*
X17035157Y-14135714D01*
X16992300Y-14135714D01*
X17263728Y-14135714D02*
X17235157Y-14121429D01*
X17220871Y-14092857D01*
X17220871Y-13835714D01*
X17492300Y-14121429D02*
X17463729Y-14135714D01*
X17406586Y-14135714D01*
X17378014Y-14121429D01*
X17363729Y-14092857D01*
X17363729Y-13978571D01*
X17378014Y-13950000D01*
X17406586Y-13935714D01*
X17463729Y-13935714D01*
X17492300Y-13950000D01*
X17506586Y-13978571D01*
X17506586Y-14007143D01*
X17363729Y-14035714D01*
X17620871Y-14121429D02*
X17649443Y-14135714D01*
X17706586Y-14135714D01*
X17735157Y-14121429D01*
X17749443Y-14092857D01*
X17749443Y-14078571D01*
X17735157Y-14050000D01*
X17706586Y-14035714D01*
X17663729Y-14035714D01*
X17635157Y-14021429D01*
X17620871Y-13992857D01*
X17620871Y-13978571D01*
X17635157Y-13950000D01*
X17663729Y-13935714D01*
X17706586Y-13935714D01*
X17735157Y-13950000D01*
X17849443Y-14250000D02*
X17863729Y-14235714D01*
X17892300Y-14192857D01*
X17906586Y-14164286D01*
X17920871Y-14121429D01*
X17935157Y-14050000D01*
X17935157Y-13992857D01*
X17920871Y-13921429D01*
X17906586Y-13878571D01*
X17892300Y-13850000D01*
X17863729Y-13807143D01*
X17849443Y-13792857D01*
X11064800Y-14368500D02*
X11064800Y-14423500D01*
X11037300Y-14396000D02*
X11092300Y-14396000D01*
X11420871Y-14231714D02*
X11449443Y-14231714D01*
X11478014Y-14246000D01*
X11492300Y-14260286D01*
X11506586Y-14288857D01*
X11520871Y-14346000D01*
X11520871Y-14417429D01*
X11506586Y-14474571D01*
X11492300Y-14503143D01*
X11478014Y-14517429D01*
X11449443Y-14531714D01*
X11420871Y-14531714D01*
X11392300Y-14517429D01*
X11378014Y-14503143D01*
X11363728Y-14474571D01*
X11349443Y-14417429D01*
X11349443Y-14346000D01*
X11363728Y-14288857D01*
X11378014Y-14260286D01*
X11392300Y-14246000D01*
X11420871Y-14231714D01*
X11649443Y-14503143D02*
X11663728Y-14517429D01*
X11649443Y-14531714D01*
X11635157Y-14517429D01*
X11649443Y-14503143D01*
X11649443Y-14531714D01*
X11935157Y-14231714D02*
X11792300Y-14231714D01*
X11778014Y-14374571D01*
X11792300Y-14360286D01*
X11820871Y-14346000D01*
X11892300Y-14346000D01*
X11920871Y-14360286D01*
X11935157Y-14374571D01*
X11949443Y-14403143D01*
X11949443Y-14474571D01*
X11935157Y-14503143D01*
X11920871Y-14517429D01*
X11892300Y-14531714D01*
X11820871Y-14531714D01*
X11792300Y-14517429D01*
X11778014Y-14503143D01*
X12220871Y-14231714D02*
X12078014Y-14231714D01*
X12063728Y-14374571D01*
X12078014Y-14360286D01*
X12106586Y-14346000D01*
X12178014Y-14346000D01*
X12206586Y-14360286D01*
X12220871Y-14374571D01*
X12235157Y-14403143D01*
X12235157Y-14474571D01*
X12220871Y-14503143D01*
X12206586Y-14517429D01*
X12178014Y-14531714D01*
X12106586Y-14531714D01*
X12078014Y-14517429D01*
X12063728Y-14503143D01*
X12363728Y-14531714D02*
X12363728Y-14331714D01*
X12363728Y-14360286D02*
X12378014Y-14346000D01*
X12406586Y-14331714D01*
X12449443Y-14331714D01*
X12478014Y-14346000D01*
X12492300Y-14374571D01*
X12492300Y-14531714D01*
X12492300Y-14374571D02*
X12506586Y-14346000D01*
X12535157Y-14331714D01*
X12578014Y-14331714D01*
X12606586Y-14346000D01*
X12620871Y-14374571D01*
X12620871Y-14531714D01*
X12763728Y-14531714D02*
X12763728Y-14331714D01*
X12763728Y-14360286D02*
X12778014Y-14346000D01*
X12806586Y-14331714D01*
X12849443Y-14331714D01*
X12878014Y-14346000D01*
X12892300Y-14374571D01*
X12892300Y-14531714D01*
X12892300Y-14374571D02*
X12906586Y-14346000D01*
X12935157Y-14331714D01*
X12978014Y-14331714D01*
X13006586Y-14346000D01*
X13020871Y-14374571D01*
X13020871Y-14531714D01*
X13606586Y-14217429D02*
X13349443Y-14603143D01*
X13992300Y-14231714D02*
X14020871Y-14231714D01*
X14049443Y-14246000D01*
X14063728Y-14260286D01*
X14078014Y-14288857D01*
X14092300Y-14346000D01*
X14092300Y-14417429D01*
X14078014Y-14474571D01*
X14063728Y-14503143D01*
X14049443Y-14517429D01*
X14020871Y-14531714D01*
X13992300Y-14531714D01*
X13963728Y-14517429D01*
X13949443Y-14503143D01*
X13935157Y-14474571D01*
X13920871Y-14417429D01*
X13920871Y-14346000D01*
X13935157Y-14288857D01*
X13949443Y-14260286D01*
X13963728Y-14246000D01*
X13992300Y-14231714D01*
X14220871Y-14503143D02*
X14235157Y-14517429D01*
X14220871Y-14531714D01*
X14206586Y-14517429D01*
X14220871Y-14503143D01*
X14220871Y-14531714D01*
X14420871Y-14231714D02*
X14449443Y-14231714D01*
X14478014Y-14246000D01*
X14492300Y-14260286D01*
X14506585Y-14288857D01*
X14520871Y-14346000D01*
X14520871Y-14417429D01*
X14506585Y-14474571D01*
X14492300Y-14503143D01*
X14478014Y-14517429D01*
X14449443Y-14531714D01*
X14420871Y-14531714D01*
X14392300Y-14517429D01*
X14378014Y-14503143D01*
X14363728Y-14474571D01*
X14349443Y-14417429D01*
X14349443Y-14346000D01*
X14363728Y-14288857D01*
X14378014Y-14260286D01*
X14392300Y-14246000D01*
X14420871Y-14231714D01*
X14635157Y-14260286D02*
X14649443Y-14246000D01*
X14678014Y-14231714D01*
X14749443Y-14231714D01*
X14778014Y-14246000D01*
X14792300Y-14260286D01*
X14806585Y-14288857D01*
X14806585Y-14317429D01*
X14792300Y-14360286D01*
X14620871Y-14531714D01*
X14806585Y-14531714D01*
X14920871Y-14260286D02*
X14935157Y-14246000D01*
X14963728Y-14231714D01*
X15035157Y-14231714D01*
X15063728Y-14246000D01*
X15078014Y-14260286D01*
X15092300Y-14288857D01*
X15092300Y-14317429D01*
X15078014Y-14360286D01*
X14906585Y-14531714D01*
X15092300Y-14531714D01*
X15206586Y-14231714D02*
X15206586Y-14288857D01*
X15320871Y-14231714D02*
X15320871Y-14288857D01*
X15763728Y-14646000D02*
X15749443Y-14631714D01*
X15720871Y-14588857D01*
X15706585Y-14560286D01*
X15692300Y-14517429D01*
X15678014Y-14446000D01*
X15678014Y-14388857D01*
X15692300Y-14317429D01*
X15706585Y-14274571D01*
X15720871Y-14246000D01*
X15749443Y-14203143D01*
X15763728Y-14188857D01*
X16006585Y-14231714D02*
X15949443Y-14231714D01*
X15920871Y-14246000D01*
X15906585Y-14260286D01*
X15878014Y-14303143D01*
X15863728Y-14360286D01*
X15863728Y-14474571D01*
X15878014Y-14503143D01*
X15892300Y-14517429D01*
X15920871Y-14531714D01*
X15978014Y-14531714D01*
X16006585Y-14517429D01*
X16020871Y-14503143D01*
X16035157Y-14474571D01*
X16035157Y-14403143D01*
X16020871Y-14374571D01*
X16006585Y-14360286D01*
X15978014Y-14346000D01*
X15920871Y-14346000D01*
X15892300Y-14360286D01*
X15878014Y-14374571D01*
X15863728Y-14403143D01*
X16392300Y-14531714D02*
X16392300Y-14231714D01*
X16520871Y-14531714D02*
X16520871Y-14374571D01*
X16506585Y-14346000D01*
X16478014Y-14331714D01*
X16435157Y-14331714D01*
X16406585Y-14346000D01*
X16392300Y-14360286D01*
X16706585Y-14531714D02*
X16678014Y-14517429D01*
X16663728Y-14503143D01*
X16649443Y-14474571D01*
X16649443Y-14388857D01*
X16663728Y-14360286D01*
X16678014Y-14346000D01*
X16706585Y-14331714D01*
X16749443Y-14331714D01*
X16778014Y-14346000D01*
X16792300Y-14360286D01*
X16806586Y-14388857D01*
X16806586Y-14474571D01*
X16792300Y-14503143D01*
X16778014Y-14517429D01*
X16749443Y-14531714D01*
X16706585Y-14531714D01*
X16978014Y-14531714D02*
X16949443Y-14517429D01*
X16935157Y-14488857D01*
X16935157Y-14231714D01*
X17206586Y-14517429D02*
X17178014Y-14531714D01*
X17120871Y-14531714D01*
X17092300Y-14517429D01*
X17078014Y-14488857D01*
X17078014Y-14374571D01*
X17092300Y-14346000D01*
X17120871Y-14331714D01*
X17178014Y-14331714D01*
X17206586Y-14346000D01*
X17220871Y-14374571D01*
X17220871Y-14403143D01*
X17078014Y-14431714D01*
X17335157Y-14517429D02*
X17363729Y-14531714D01*
X17420871Y-14531714D01*
X17449443Y-14517429D01*
X17463729Y-14488857D01*
X17463729Y-14474571D01*
X17449443Y-14446000D01*
X17420871Y-14431714D01*
X17378014Y-14431714D01*
X17349443Y-14417429D01*
X17335157Y-14388857D01*
X17335157Y-14374571D01*
X17349443Y-14346000D01*
X17378014Y-14331714D01*
X17420871Y-14331714D01*
X17449443Y-14346000D01*
X17563728Y-14646000D02*
X17578014Y-14631714D01*
X17606586Y-14588857D01*
X17620871Y-14560286D01*
X17635157Y-14517429D01*
X17649443Y-14446000D01*
X17649443Y-14388857D01*
X17635157Y-14317429D01*
X17620871Y-14274571D01*
X17606586Y-14246000D01*
X17578014Y-14203143D01*
X17563728Y-14188857D01*
X11081141Y-14818941D02*
X11081141Y-14765059D01*
X11027259Y-14765059D01*
X11027259Y-14818941D01*
X11081141Y-14818941D01*
X11420871Y-14627714D02*
X11449443Y-14627714D01*
X11478014Y-14642000D01*
X11492300Y-14656286D01*
X11506586Y-14684857D01*
X11520871Y-14742000D01*
X11520871Y-14813429D01*
X11506586Y-14870571D01*
X11492300Y-14899143D01*
X11478014Y-14913429D01*
X11449443Y-14927714D01*
X11420871Y-14927714D01*
X11392300Y-14913429D01*
X11378014Y-14899143D01*
X11363728Y-14870571D01*
X11349443Y-14813429D01*
X11349443Y-14742000D01*
X11363728Y-14684857D01*
X11378014Y-14656286D01*
X11392300Y-14642000D01*
X11420871Y-14627714D01*
X11649443Y-14899143D02*
X11663728Y-14913429D01*
X11649443Y-14927714D01*
X11635157Y-14913429D01*
X11649443Y-14899143D01*
X11649443Y-14927714D01*
X11763728Y-14627714D02*
X11963728Y-14627714D01*
X11835157Y-14927714D01*
X12206586Y-14627714D02*
X12149443Y-14627714D01*
X12120871Y-14642000D01*
X12106586Y-14656286D01*
X12078014Y-14699143D01*
X12063728Y-14756286D01*
X12063728Y-14870571D01*
X12078014Y-14899143D01*
X12092300Y-14913429D01*
X12120871Y-14927714D01*
X12178014Y-14927714D01*
X12206586Y-14913429D01*
X12220871Y-14899143D01*
X12235157Y-14870571D01*
X12235157Y-14799143D01*
X12220871Y-14770571D01*
X12206586Y-14756286D01*
X12178014Y-14742000D01*
X12120871Y-14742000D01*
X12092300Y-14756286D01*
X12078014Y-14770571D01*
X12063728Y-14799143D01*
X12363728Y-14927714D02*
X12363728Y-14727714D01*
X12363728Y-14756286D02*
X12378014Y-14742000D01*
X12406586Y-14727714D01*
X12449443Y-14727714D01*
X12478014Y-14742000D01*
X12492300Y-14770571D01*
X12492300Y-14927714D01*
X12492300Y-14770571D02*
X12506586Y-14742000D01*
X12535157Y-14727714D01*
X12578014Y-14727714D01*
X12606586Y-14742000D01*
X12620871Y-14770571D01*
X12620871Y-14927714D01*
X12763728Y-14927714D02*
X12763728Y-14727714D01*
X12763728Y-14756286D02*
X12778014Y-14742000D01*
X12806586Y-14727714D01*
X12849443Y-14727714D01*
X12878014Y-14742000D01*
X12892300Y-14770571D01*
X12892300Y-14927714D01*
X12892300Y-14770571D02*
X12906586Y-14742000D01*
X12935157Y-14727714D01*
X12978014Y-14727714D01*
X13006586Y-14742000D01*
X13020871Y-14770571D01*
X13020871Y-14927714D01*
X13606586Y-14613429D02*
X13349443Y-14999143D01*
X13992300Y-14627714D02*
X14020871Y-14627714D01*
X14049443Y-14642000D01*
X14063728Y-14656286D01*
X14078014Y-14684857D01*
X14092300Y-14742000D01*
X14092300Y-14813429D01*
X14078014Y-14870571D01*
X14063728Y-14899143D01*
X14049443Y-14913429D01*
X14020871Y-14927714D01*
X13992300Y-14927714D01*
X13963728Y-14913429D01*
X13949443Y-14899143D01*
X13935157Y-14870571D01*
X13920871Y-14813429D01*
X13920871Y-14742000D01*
X13935157Y-14684857D01*
X13949443Y-14656286D01*
X13963728Y-14642000D01*
X13992300Y-14627714D01*
X14220871Y-14899143D02*
X14235157Y-14913429D01*
X14220871Y-14927714D01*
X14206586Y-14913429D01*
X14220871Y-14899143D01*
X14220871Y-14927714D01*
X14420871Y-14627714D02*
X14449443Y-14627714D01*
X14478014Y-14642000D01*
X14492300Y-14656286D01*
X14506585Y-14684857D01*
X14520871Y-14742000D01*
X14520871Y-14813429D01*
X14506585Y-14870571D01*
X14492300Y-14899143D01*
X14478014Y-14913429D01*
X14449443Y-14927714D01*
X14420871Y-14927714D01*
X14392300Y-14913429D01*
X14378014Y-14899143D01*
X14363728Y-14870571D01*
X14349443Y-14813429D01*
X14349443Y-14742000D01*
X14363728Y-14684857D01*
X14378014Y-14656286D01*
X14392300Y-14642000D01*
X14420871Y-14627714D01*
X14620871Y-14627714D02*
X14806585Y-14627714D01*
X14706585Y-14742000D01*
X14749443Y-14742000D01*
X14778014Y-14756286D01*
X14792300Y-14770571D01*
X14806585Y-14799143D01*
X14806585Y-14870571D01*
X14792300Y-14899143D01*
X14778014Y-14913429D01*
X14749443Y-14927714D01*
X14663728Y-14927714D01*
X14635157Y-14913429D01*
X14620871Y-14899143D01*
X14992300Y-14627714D02*
X15020871Y-14627714D01*
X15049443Y-14642000D01*
X15063728Y-14656286D01*
X15078014Y-14684857D01*
X15092300Y-14742000D01*
X15092300Y-14813429D01*
X15078014Y-14870571D01*
X15063728Y-14899143D01*
X15049443Y-14913429D01*
X15020871Y-14927714D01*
X14992300Y-14927714D01*
X14963728Y-14913429D01*
X14949443Y-14899143D01*
X14935157Y-14870571D01*
X14920871Y-14813429D01*
X14920871Y-14742000D01*
X14935157Y-14684857D01*
X14949443Y-14656286D01*
X14963728Y-14642000D01*
X14992300Y-14627714D01*
X15206586Y-14627714D02*
X15206586Y-14684857D01*
X15320871Y-14627714D02*
X15320871Y-14684857D01*
X15763728Y-15042000D02*
X15749443Y-15027714D01*
X15720871Y-14984857D01*
X15706585Y-14956286D01*
X15692300Y-14913429D01*
X15678014Y-14842000D01*
X15678014Y-14784857D01*
X15692300Y-14713429D01*
X15706585Y-14670571D01*
X15720871Y-14642000D01*
X15749443Y-14599143D01*
X15763728Y-14584857D01*
X16006585Y-14627714D02*
X15949443Y-14627714D01*
X15920871Y-14642000D01*
X15906585Y-14656286D01*
X15878014Y-14699143D01*
X15863728Y-14756286D01*
X15863728Y-14870571D01*
X15878014Y-14899143D01*
X15892300Y-14913429D01*
X15920871Y-14927714D01*
X15978014Y-14927714D01*
X16006585Y-14913429D01*
X16020871Y-14899143D01*
X16035157Y-14870571D01*
X16035157Y-14799143D01*
X16020871Y-14770571D01*
X16006585Y-14756286D01*
X15978014Y-14742000D01*
X15920871Y-14742000D01*
X15892300Y-14756286D01*
X15878014Y-14770571D01*
X15863728Y-14799143D01*
X16292300Y-14727714D02*
X16292300Y-14927714D01*
X16220871Y-14613429D02*
X16149443Y-14827714D01*
X16335157Y-14827714D01*
X16678014Y-14927714D02*
X16678014Y-14627714D01*
X16806586Y-14927714D02*
X16806586Y-14770571D01*
X16792300Y-14742000D01*
X16763728Y-14727714D01*
X16720871Y-14727714D01*
X16692300Y-14742000D01*
X16678014Y-14756286D01*
X16992300Y-14927714D02*
X16963728Y-14913429D01*
X16949443Y-14899143D01*
X16935157Y-14870571D01*
X16935157Y-14784857D01*
X16949443Y-14756286D01*
X16963728Y-14742000D01*
X16992300Y-14727714D01*
X17035157Y-14727714D01*
X17063728Y-14742000D01*
X17078014Y-14756286D01*
X17092300Y-14784857D01*
X17092300Y-14870571D01*
X17078014Y-14899143D01*
X17063728Y-14913429D01*
X17035157Y-14927714D01*
X16992300Y-14927714D01*
X17263728Y-14927714D02*
X17235157Y-14913429D01*
X17220871Y-14884857D01*
X17220871Y-14627714D01*
X17492300Y-14913429D02*
X17463729Y-14927714D01*
X17406586Y-14927714D01*
X17378014Y-14913429D01*
X17363729Y-14884857D01*
X17363729Y-14770571D01*
X17378014Y-14742000D01*
X17406586Y-14727714D01*
X17463729Y-14727714D01*
X17492300Y-14742000D01*
X17506586Y-14770571D01*
X17506586Y-14799143D01*
X17363729Y-14827714D01*
X17620871Y-14913429D02*
X17649443Y-14927714D01*
X17706586Y-14927714D01*
X17735157Y-14913429D01*
X17749443Y-14884857D01*
X17749443Y-14870571D01*
X17735157Y-14842000D01*
X17706586Y-14827714D01*
X17663729Y-14827714D01*
X17635157Y-14813429D01*
X17620871Y-14784857D01*
X17620871Y-14770571D01*
X17635157Y-14742000D01*
X17663729Y-14727714D01*
X17706586Y-14727714D01*
X17735157Y-14742000D01*
X17849443Y-15042000D02*
X17863729Y-15027714D01*
X17892300Y-14984857D01*
X17906586Y-14956286D01*
X17920871Y-14913429D01*
X17935157Y-14842000D01*
X17935157Y-14784857D01*
X17920871Y-14713429D01*
X17906586Y-14670571D01*
X17892300Y-14642000D01*
X17863729Y-14599143D01*
X17849443Y-14584857D01*
X11051660Y-15228640D02*
X11092300Y-15188000D01*
X11051660Y-15147360D01*
X11011020Y-15188000D01*
X11051660Y-15228640D01*
X11420871Y-15023714D02*
X11449443Y-15023714D01*
X11478014Y-15038000D01*
X11492300Y-15052286D01*
X11506586Y-15080857D01*
X11520871Y-15138000D01*
X11520871Y-15209429D01*
X11506586Y-15266571D01*
X11492300Y-15295143D01*
X11478014Y-15309429D01*
X11449443Y-15323714D01*
X11420871Y-15323714D01*
X11392300Y-15309429D01*
X11378014Y-15295143D01*
X11363728Y-15266571D01*
X11349443Y-15209429D01*
X11349443Y-15138000D01*
X11363728Y-15080857D01*
X11378014Y-15052286D01*
X11392300Y-15038000D01*
X11420871Y-15023714D01*
X11649443Y-15295143D02*
X11663728Y-15309429D01*
X11649443Y-15323714D01*
X11635157Y-15309429D01*
X11649443Y-15295143D01*
X11649443Y-15323714D01*
X11835157Y-15152286D02*
X11806586Y-15138000D01*
X11792300Y-15123714D01*
X11778014Y-15095143D01*
X11778014Y-15080857D01*
X11792300Y-15052286D01*
X11806586Y-15038000D01*
X11835157Y-15023714D01*
X11892300Y-15023714D01*
X11920871Y-15038000D01*
X11935157Y-15052286D01*
X11949443Y-15080857D01*
X11949443Y-15095143D01*
X11935157Y-15123714D01*
X11920871Y-15138000D01*
X11892300Y-15152286D01*
X11835157Y-15152286D01*
X11806586Y-15166571D01*
X11792300Y-15180857D01*
X11778014Y-15209429D01*
X11778014Y-15266571D01*
X11792300Y-15295143D01*
X11806586Y-15309429D01*
X11835157Y-15323714D01*
X11892300Y-15323714D01*
X11920871Y-15309429D01*
X11935157Y-15295143D01*
X11949443Y-15266571D01*
X11949443Y-15209429D01*
X11935157Y-15180857D01*
X11920871Y-15166571D01*
X11892300Y-15152286D01*
X12235157Y-15323714D02*
X12063728Y-15323714D01*
X12149443Y-15323714D02*
X12149443Y-15023714D01*
X12120871Y-15066571D01*
X12092300Y-15095143D01*
X12063728Y-15109429D01*
X12363728Y-15323714D02*
X12363728Y-15123714D01*
X12363728Y-15152286D02*
X12378014Y-15138000D01*
X12406586Y-15123714D01*
X12449443Y-15123714D01*
X12478014Y-15138000D01*
X12492300Y-15166571D01*
X12492300Y-15323714D01*
X12492300Y-15166571D02*
X12506586Y-15138000D01*
X12535157Y-15123714D01*
X12578014Y-15123714D01*
X12606586Y-15138000D01*
X12620871Y-15166571D01*
X12620871Y-15323714D01*
X12763728Y-15323714D02*
X12763728Y-15123714D01*
X12763728Y-15152286D02*
X12778014Y-15138000D01*
X12806586Y-15123714D01*
X12849443Y-15123714D01*
X12878014Y-15138000D01*
X12892300Y-15166571D01*
X12892300Y-15323714D01*
X12892300Y-15166571D02*
X12906586Y-15138000D01*
X12935157Y-15123714D01*
X12978014Y-15123714D01*
X13006586Y-15138000D01*
X13020871Y-15166571D01*
X13020871Y-15323714D01*
X13606586Y-15009429D02*
X13349443Y-15395143D01*
X13992300Y-15023714D02*
X14020871Y-15023714D01*
X14049443Y-15038000D01*
X14063728Y-15052286D01*
X14078014Y-15080857D01*
X14092300Y-15138000D01*
X14092300Y-15209429D01*
X14078014Y-15266571D01*
X14063728Y-15295143D01*
X14049443Y-15309429D01*
X14020871Y-15323714D01*
X13992300Y-15323714D01*
X13963728Y-15309429D01*
X13949443Y-15295143D01*
X13935157Y-15266571D01*
X13920871Y-15209429D01*
X13920871Y-15138000D01*
X13935157Y-15080857D01*
X13949443Y-15052286D01*
X13963728Y-15038000D01*
X13992300Y-15023714D01*
X14220871Y-15295143D02*
X14235157Y-15309429D01*
X14220871Y-15323714D01*
X14206586Y-15309429D01*
X14220871Y-15295143D01*
X14220871Y-15323714D01*
X14420871Y-15023714D02*
X14449443Y-15023714D01*
X14478014Y-15038000D01*
X14492300Y-15052286D01*
X14506585Y-15080857D01*
X14520871Y-15138000D01*
X14520871Y-15209429D01*
X14506585Y-15266571D01*
X14492300Y-15295143D01*
X14478014Y-15309429D01*
X14449443Y-15323714D01*
X14420871Y-15323714D01*
X14392300Y-15309429D01*
X14378014Y-15295143D01*
X14363728Y-15266571D01*
X14349443Y-15209429D01*
X14349443Y-15138000D01*
X14363728Y-15080857D01*
X14378014Y-15052286D01*
X14392300Y-15038000D01*
X14420871Y-15023714D01*
X14620871Y-15023714D02*
X14806585Y-15023714D01*
X14706585Y-15138000D01*
X14749443Y-15138000D01*
X14778014Y-15152286D01*
X14792300Y-15166571D01*
X14806585Y-15195143D01*
X14806585Y-15266571D01*
X14792300Y-15295143D01*
X14778014Y-15309429D01*
X14749443Y-15323714D01*
X14663728Y-15323714D01*
X14635157Y-15309429D01*
X14620871Y-15295143D01*
X14920871Y-15052286D02*
X14935157Y-15038000D01*
X14963728Y-15023714D01*
X15035157Y-15023714D01*
X15063728Y-15038000D01*
X15078014Y-15052286D01*
X15092300Y-15080857D01*
X15092300Y-15109429D01*
X15078014Y-15152286D01*
X14906585Y-15323714D01*
X15092300Y-15323714D01*
X15206586Y-15023714D02*
X15206586Y-15080857D01*
X15320871Y-15023714D02*
X15320871Y-15080857D01*
X15763728Y-15438000D02*
X15749443Y-15423714D01*
X15720871Y-15380857D01*
X15706585Y-15352286D01*
X15692300Y-15309429D01*
X15678014Y-15238000D01*
X15678014Y-15180857D01*
X15692300Y-15109429D01*
X15706585Y-15066571D01*
X15720871Y-15038000D01*
X15749443Y-14995143D01*
X15763728Y-14980857D01*
X16006585Y-15123714D02*
X16006585Y-15323714D01*
X15935157Y-15009429D02*
X15863728Y-15223714D01*
X16049443Y-15223714D01*
X16392300Y-15323714D02*
X16392300Y-15023714D01*
X16520871Y-15323714D02*
X16520871Y-15166571D01*
X16506585Y-15138000D01*
X16478014Y-15123714D01*
X16435157Y-15123714D01*
X16406585Y-15138000D01*
X16392300Y-15152286D01*
X16706585Y-15323714D02*
X16678014Y-15309429D01*
X16663728Y-15295143D01*
X16649443Y-15266571D01*
X16649443Y-15180857D01*
X16663728Y-15152286D01*
X16678014Y-15138000D01*
X16706585Y-15123714D01*
X16749443Y-15123714D01*
X16778014Y-15138000D01*
X16792300Y-15152286D01*
X16806586Y-15180857D01*
X16806586Y-15266571D01*
X16792300Y-15295143D01*
X16778014Y-15309429D01*
X16749443Y-15323714D01*
X16706585Y-15323714D01*
X16978014Y-15323714D02*
X16949443Y-15309429D01*
X16935157Y-15280857D01*
X16935157Y-15023714D01*
X17206586Y-15309429D02*
X17178014Y-15323714D01*
X17120871Y-15323714D01*
X17092300Y-15309429D01*
X17078014Y-15280857D01*
X17078014Y-15166571D01*
X17092300Y-15138000D01*
X17120871Y-15123714D01*
X17178014Y-15123714D01*
X17206586Y-15138000D01*
X17220871Y-15166571D01*
X17220871Y-15195143D01*
X17078014Y-15223714D01*
X17335157Y-15309429D02*
X17363729Y-15323714D01*
X17420871Y-15323714D01*
X17449443Y-15309429D01*
X17463729Y-15280857D01*
X17463729Y-15266571D01*
X17449443Y-15238000D01*
X17420871Y-15223714D01*
X17378014Y-15223714D01*
X17349443Y-15209429D01*
X17335157Y-15180857D01*
X17335157Y-15166571D01*
X17349443Y-15138000D01*
X17378014Y-15123714D01*
X17420871Y-15123714D01*
X17449443Y-15138000D01*
X17563728Y-15438000D02*
X17578014Y-15423714D01*
X17606586Y-15380857D01*
X17620871Y-15352286D01*
X17635157Y-15309429D01*
X17649443Y-15238000D01*
X17649443Y-15180857D01*
X17635157Y-15109429D01*
X17620871Y-15066571D01*
X17606586Y-15038000D01*
X17578014Y-14995143D01*
X17563728Y-14980857D01*
X10992300Y-15534000D02*
X11092300Y-15634000D01*
X11092300Y-15534000D02*
X10992300Y-15634000D01*
X11092300Y-15584000D02*
G75*
G03X11092300Y-15584000I-50000J0D01*
G01*
X11520871Y-15719714D02*
X11349443Y-15719714D01*
X11435157Y-15719714D02*
X11435157Y-15419714D01*
X11406586Y-15462571D01*
X11378014Y-15491143D01*
X11349443Y-15505429D01*
X11649443Y-15691143D02*
X11663728Y-15705429D01*
X11649443Y-15719714D01*
X11635157Y-15705429D01*
X11649443Y-15691143D01*
X11649443Y-15719714D01*
X11849443Y-15419714D02*
X11878014Y-15419714D01*
X11906586Y-15434000D01*
X11920871Y-15448286D01*
X11935157Y-15476857D01*
X11949443Y-15534000D01*
X11949443Y-15605429D01*
X11935157Y-15662571D01*
X11920871Y-15691143D01*
X11906586Y-15705429D01*
X11878014Y-15719714D01*
X11849443Y-15719714D01*
X11820871Y-15705429D01*
X11806586Y-15691143D01*
X11792300Y-15662571D01*
X11778014Y-15605429D01*
X11778014Y-15534000D01*
X11792300Y-15476857D01*
X11806586Y-15448286D01*
X11820871Y-15434000D01*
X11849443Y-15419714D01*
X12135157Y-15419714D02*
X12163728Y-15419714D01*
X12192300Y-15434000D01*
X12206586Y-15448286D01*
X12220871Y-15476857D01*
X12235157Y-15534000D01*
X12235157Y-15605429D01*
X12220871Y-15662571D01*
X12206586Y-15691143D01*
X12192300Y-15705429D01*
X12163728Y-15719714D01*
X12135157Y-15719714D01*
X12106586Y-15705429D01*
X12092300Y-15691143D01*
X12078014Y-15662571D01*
X12063728Y-15605429D01*
X12063728Y-15534000D01*
X12078014Y-15476857D01*
X12092300Y-15448286D01*
X12106586Y-15434000D01*
X12135157Y-15419714D01*
X12363728Y-15719714D02*
X12363728Y-15519714D01*
X12363728Y-15548286D02*
X12378014Y-15534000D01*
X12406586Y-15519714D01*
X12449443Y-15519714D01*
X12478014Y-15534000D01*
X12492300Y-15562571D01*
X12492300Y-15719714D01*
X12492300Y-15562571D02*
X12506586Y-15534000D01*
X12535157Y-15519714D01*
X12578014Y-15519714D01*
X12606586Y-15534000D01*
X12620871Y-15562571D01*
X12620871Y-15719714D01*
X12763728Y-15719714D02*
X12763728Y-15519714D01*
X12763728Y-15548286D02*
X12778014Y-15534000D01*
X12806586Y-15519714D01*
X12849443Y-15519714D01*
X12878014Y-15534000D01*
X12892300Y-15562571D01*
X12892300Y-15719714D01*
X12892300Y-15562571D02*
X12906586Y-15534000D01*
X12935157Y-15519714D01*
X12978014Y-15519714D01*
X13006586Y-15534000D01*
X13020871Y-15562571D01*
X13020871Y-15719714D01*
X13606586Y-15405429D02*
X13349443Y-15791143D01*
X13992300Y-15419714D02*
X14020871Y-15419714D01*
X14049443Y-15434000D01*
X14063728Y-15448286D01*
X14078014Y-15476857D01*
X14092300Y-15534000D01*
X14092300Y-15605429D01*
X14078014Y-15662571D01*
X14063728Y-15691143D01*
X14049443Y-15705429D01*
X14020871Y-15719714D01*
X13992300Y-15719714D01*
X13963728Y-15705429D01*
X13949443Y-15691143D01*
X13935157Y-15662571D01*
X13920871Y-15605429D01*
X13920871Y-15534000D01*
X13935157Y-15476857D01*
X13949443Y-15448286D01*
X13963728Y-15434000D01*
X13992300Y-15419714D01*
X14220871Y-15691143D02*
X14235157Y-15705429D01*
X14220871Y-15719714D01*
X14206586Y-15705429D01*
X14220871Y-15691143D01*
X14220871Y-15719714D01*
X14420871Y-15419714D02*
X14449443Y-15419714D01*
X14478014Y-15434000D01*
X14492300Y-15448286D01*
X14506585Y-15476857D01*
X14520871Y-15534000D01*
X14520871Y-15605429D01*
X14506585Y-15662571D01*
X14492300Y-15691143D01*
X14478014Y-15705429D01*
X14449443Y-15719714D01*
X14420871Y-15719714D01*
X14392300Y-15705429D01*
X14378014Y-15691143D01*
X14363728Y-15662571D01*
X14349443Y-15605429D01*
X14349443Y-15534000D01*
X14363728Y-15476857D01*
X14378014Y-15448286D01*
X14392300Y-15434000D01*
X14420871Y-15419714D01*
X14620871Y-15419714D02*
X14806585Y-15419714D01*
X14706585Y-15534000D01*
X14749443Y-15534000D01*
X14778014Y-15548286D01*
X14792300Y-15562571D01*
X14806585Y-15591143D01*
X14806585Y-15662571D01*
X14792300Y-15691143D01*
X14778014Y-15705429D01*
X14749443Y-15719714D01*
X14663728Y-15719714D01*
X14635157Y-15705429D01*
X14620871Y-15691143D01*
X14949443Y-15719714D02*
X15006585Y-15719714D01*
X15035157Y-15705429D01*
X15049443Y-15691143D01*
X15078014Y-15648286D01*
X15092300Y-15591143D01*
X15092300Y-15476857D01*
X15078014Y-15448286D01*
X15063728Y-15434000D01*
X15035157Y-15419714D01*
X14978014Y-15419714D01*
X14949443Y-15434000D01*
X14935157Y-15448286D01*
X14920871Y-15476857D01*
X14920871Y-15548286D01*
X14935157Y-15576857D01*
X14949443Y-15591143D01*
X14978014Y-15605429D01*
X15035157Y-15605429D01*
X15063728Y-15591143D01*
X15078014Y-15576857D01*
X15092300Y-15548286D01*
X15206586Y-15419714D02*
X15206586Y-15476857D01*
X15320871Y-15419714D02*
X15320871Y-15476857D01*
X15763728Y-15834000D02*
X15749443Y-15819714D01*
X15720871Y-15776857D01*
X15706585Y-15748286D01*
X15692300Y-15705429D01*
X15678014Y-15634000D01*
X15678014Y-15576857D01*
X15692300Y-15505429D01*
X15706585Y-15462571D01*
X15720871Y-15434000D01*
X15749443Y-15391143D01*
X15763728Y-15376857D01*
X16006585Y-15519714D02*
X16006585Y-15719714D01*
X15935157Y-15405429D02*
X15863728Y-15619714D01*
X16049443Y-15619714D01*
X16320871Y-15719714D02*
X16149443Y-15719714D01*
X16235157Y-15719714D02*
X16235157Y-15419714D01*
X16206585Y-15462571D01*
X16178014Y-15491143D01*
X16149443Y-15505429D01*
X16678014Y-15719714D02*
X16678014Y-15419714D01*
X16806586Y-15719714D02*
X16806586Y-15562571D01*
X16792300Y-15534000D01*
X16763728Y-15519714D01*
X16720871Y-15519714D01*
X16692300Y-15534000D01*
X16678014Y-15548286D01*
X16992300Y-15719714D02*
X16963728Y-15705429D01*
X16949443Y-15691143D01*
X16935157Y-15662571D01*
X16935157Y-15576857D01*
X16949443Y-15548286D01*
X16963728Y-15534000D01*
X16992300Y-15519714D01*
X17035157Y-15519714D01*
X17063728Y-15534000D01*
X17078014Y-15548286D01*
X17092300Y-15576857D01*
X17092300Y-15662571D01*
X17078014Y-15691143D01*
X17063728Y-15705429D01*
X17035157Y-15719714D01*
X16992300Y-15719714D01*
X17263728Y-15719714D02*
X17235157Y-15705429D01*
X17220871Y-15676857D01*
X17220871Y-15419714D01*
X17492300Y-15705429D02*
X17463729Y-15719714D01*
X17406586Y-15719714D01*
X17378014Y-15705429D01*
X17363729Y-15676857D01*
X17363729Y-15562571D01*
X17378014Y-15534000D01*
X17406586Y-15519714D01*
X17463729Y-15519714D01*
X17492300Y-15534000D01*
X17506586Y-15562571D01*
X17506586Y-15591143D01*
X17363729Y-15619714D01*
X17620871Y-15705429D02*
X17649443Y-15719714D01*
X17706586Y-15719714D01*
X17735157Y-15705429D01*
X17749443Y-15676857D01*
X17749443Y-15662571D01*
X17735157Y-15634000D01*
X17706586Y-15619714D01*
X17663729Y-15619714D01*
X17635157Y-15605429D01*
X17620871Y-15576857D01*
X17620871Y-15562571D01*
X17635157Y-15534000D01*
X17663729Y-15519714D01*
X17706586Y-15519714D01*
X17735157Y-15534000D01*
X17849443Y-15834000D02*
X17863729Y-15819714D01*
X17892300Y-15776857D01*
X17906586Y-15748286D01*
X17920871Y-15705429D01*
X17935157Y-15634000D01*
X17935157Y-15576857D01*
X17920871Y-15505429D01*
X17906586Y-15462571D01*
X17892300Y-15434000D01*
X17863729Y-15391143D01*
X17849443Y-15376857D01*
X10990700Y-15929200D02*
X11092300Y-16030800D01*
X11092300Y-15929200D02*
X10990700Y-16030800D01*
X11041500Y-15929200D02*
X11041500Y-16030800D01*
X10990700Y-15980000D02*
X11092300Y-15980000D01*
X11520871Y-16115714D02*
X11349443Y-16115714D01*
X11435157Y-16115714D02*
X11435157Y-15815714D01*
X11406586Y-15858571D01*
X11378014Y-15887143D01*
X11349443Y-15901429D01*
X11649443Y-16087143D02*
X11663728Y-16101429D01*
X11649443Y-16115714D01*
X11635157Y-16101429D01*
X11649443Y-16087143D01*
X11649443Y-16115714D01*
X11849443Y-15815714D02*
X11878014Y-15815714D01*
X11906586Y-15830000D01*
X11920871Y-15844286D01*
X11935157Y-15872857D01*
X11949443Y-15930000D01*
X11949443Y-16001429D01*
X11935157Y-16058571D01*
X11920871Y-16087143D01*
X11906586Y-16101429D01*
X11878014Y-16115714D01*
X11849443Y-16115714D01*
X11820871Y-16101429D01*
X11806586Y-16087143D01*
X11792300Y-16058571D01*
X11778014Y-16001429D01*
X11778014Y-15930000D01*
X11792300Y-15872857D01*
X11806586Y-15844286D01*
X11820871Y-15830000D01*
X11849443Y-15815714D01*
X12063728Y-15844286D02*
X12078014Y-15830000D01*
X12106586Y-15815714D01*
X12178014Y-15815714D01*
X12206586Y-15830000D01*
X12220871Y-15844286D01*
X12235157Y-15872857D01*
X12235157Y-15901429D01*
X12220871Y-15944286D01*
X12049443Y-16115714D01*
X12235157Y-16115714D01*
X12363728Y-16115714D02*
X12363728Y-15915714D01*
X12363728Y-15944286D02*
X12378014Y-15930000D01*
X12406586Y-15915714D01*
X12449443Y-15915714D01*
X12478014Y-15930000D01*
X12492300Y-15958571D01*
X12492300Y-16115714D01*
X12492300Y-15958571D02*
X12506586Y-15930000D01*
X12535157Y-15915714D01*
X12578014Y-15915714D01*
X12606586Y-15930000D01*
X12620871Y-15958571D01*
X12620871Y-16115714D01*
X12763728Y-16115714D02*
X12763728Y-15915714D01*
X12763728Y-15944286D02*
X12778014Y-15930000D01*
X12806586Y-15915714D01*
X12849443Y-15915714D01*
X12878014Y-15930000D01*
X12892300Y-15958571D01*
X12892300Y-16115714D01*
X12892300Y-15958571D02*
X12906586Y-15930000D01*
X12935157Y-15915714D01*
X12978014Y-15915714D01*
X13006586Y-15930000D01*
X13020871Y-15958571D01*
X13020871Y-16115714D01*
X13606586Y-15801429D02*
X13349443Y-16187143D01*
X13992300Y-15815714D02*
X14020871Y-15815714D01*
X14049443Y-15830000D01*
X14063728Y-15844286D01*
X14078014Y-15872857D01*
X14092300Y-15930000D01*
X14092300Y-16001429D01*
X14078014Y-16058571D01*
X14063728Y-16087143D01*
X14049443Y-16101429D01*
X14020871Y-16115714D01*
X13992300Y-16115714D01*
X13963728Y-16101429D01*
X13949443Y-16087143D01*
X13935157Y-16058571D01*
X13920871Y-16001429D01*
X13920871Y-15930000D01*
X13935157Y-15872857D01*
X13949443Y-15844286D01*
X13963728Y-15830000D01*
X13992300Y-15815714D01*
X14220871Y-16087143D02*
X14235157Y-16101429D01*
X14220871Y-16115714D01*
X14206586Y-16101429D01*
X14220871Y-16087143D01*
X14220871Y-16115714D01*
X14420871Y-15815714D02*
X14449443Y-15815714D01*
X14478014Y-15830000D01*
X14492300Y-15844286D01*
X14506585Y-15872857D01*
X14520871Y-15930000D01*
X14520871Y-16001429D01*
X14506585Y-16058571D01*
X14492300Y-16087143D01*
X14478014Y-16101429D01*
X14449443Y-16115714D01*
X14420871Y-16115714D01*
X14392300Y-16101429D01*
X14378014Y-16087143D01*
X14363728Y-16058571D01*
X14349443Y-16001429D01*
X14349443Y-15930000D01*
X14363728Y-15872857D01*
X14378014Y-15844286D01*
X14392300Y-15830000D01*
X14420871Y-15815714D01*
X14778014Y-15915714D02*
X14778014Y-16115714D01*
X14706585Y-15801429D02*
X14635157Y-16015714D01*
X14820871Y-16015714D01*
X14992300Y-15815714D02*
X15020871Y-15815714D01*
X15049443Y-15830000D01*
X15063728Y-15844286D01*
X15078014Y-15872857D01*
X15092300Y-15930000D01*
X15092300Y-16001429D01*
X15078014Y-16058571D01*
X15063728Y-16087143D01*
X15049443Y-16101429D01*
X15020871Y-16115714D01*
X14992300Y-16115714D01*
X14963728Y-16101429D01*
X14949443Y-16087143D01*
X14935157Y-16058571D01*
X14920871Y-16001429D01*
X14920871Y-15930000D01*
X14935157Y-15872857D01*
X14949443Y-15844286D01*
X14963728Y-15830000D01*
X14992300Y-15815714D01*
X15206586Y-15815714D02*
X15206586Y-15872857D01*
X15320871Y-15815714D02*
X15320871Y-15872857D01*
X15763728Y-16230000D02*
X15749443Y-16215714D01*
X15720871Y-16172857D01*
X15706585Y-16144286D01*
X15692300Y-16101429D01*
X15678014Y-16030000D01*
X15678014Y-15972857D01*
X15692300Y-15901429D01*
X15706585Y-15858571D01*
X15720871Y-15830000D01*
X15749443Y-15787143D01*
X15763728Y-15772857D01*
X16035157Y-16115714D02*
X15863728Y-16115714D01*
X15949443Y-16115714D02*
X15949443Y-15815714D01*
X15920871Y-15858571D01*
X15892300Y-15887143D01*
X15863728Y-15901429D01*
X16149443Y-15844286D02*
X16163728Y-15830000D01*
X16192300Y-15815714D01*
X16263728Y-15815714D01*
X16292300Y-15830000D01*
X16306585Y-15844286D01*
X16320871Y-15872857D01*
X16320871Y-15901429D01*
X16306585Y-15944286D01*
X16135157Y-16115714D01*
X16320871Y-16115714D01*
X16678014Y-16115714D02*
X16678014Y-15815714D01*
X16806586Y-16115714D02*
X16806586Y-15958571D01*
X16792300Y-15930000D01*
X16763728Y-15915714D01*
X16720871Y-15915714D01*
X16692300Y-15930000D01*
X16678014Y-15944286D01*
X16992300Y-16115714D02*
X16963728Y-16101429D01*
X16949443Y-16087143D01*
X16935157Y-16058571D01*
X16935157Y-15972857D01*
X16949443Y-15944286D01*
X16963728Y-15930000D01*
X16992300Y-15915714D01*
X17035157Y-15915714D01*
X17063728Y-15930000D01*
X17078014Y-15944286D01*
X17092300Y-15972857D01*
X17092300Y-16058571D01*
X17078014Y-16087143D01*
X17063728Y-16101429D01*
X17035157Y-16115714D01*
X16992300Y-16115714D01*
X17263728Y-16115714D02*
X17235157Y-16101429D01*
X17220871Y-16072857D01*
X17220871Y-15815714D01*
X17492300Y-16101429D02*
X17463729Y-16115714D01*
X17406586Y-16115714D01*
X17378014Y-16101429D01*
X17363729Y-16072857D01*
X17363729Y-15958571D01*
X17378014Y-15930000D01*
X17406586Y-15915714D01*
X17463729Y-15915714D01*
X17492300Y-15930000D01*
X17506586Y-15958571D01*
X17506586Y-15987143D01*
X17363729Y-16015714D01*
X17620871Y-16101429D02*
X17649443Y-16115714D01*
X17706586Y-16115714D01*
X17735157Y-16101429D01*
X17749443Y-16072857D01*
X17749443Y-16058571D01*
X17735157Y-16030000D01*
X17706586Y-16015714D01*
X17663729Y-16015714D01*
X17635157Y-16001429D01*
X17620871Y-15972857D01*
X17620871Y-15958571D01*
X17635157Y-15930000D01*
X17663729Y-15915714D01*
X17706586Y-15915714D01*
X17735157Y-15930000D01*
X17849443Y-16230000D02*
X17863729Y-16215714D01*
X17892300Y-16172857D01*
X17906586Y-16144286D01*
X17920871Y-16101429D01*
X17935157Y-16030000D01*
X17935157Y-15972857D01*
X17920871Y-15901429D01*
X17906586Y-15858571D01*
X17892300Y-15830000D01*
X17863729Y-15787143D01*
X17849443Y-15772857D01*
X10787500Y-16223600D02*
X11092300Y-16528400D01*
X11092300Y-16223600D02*
X10787500Y-16528400D01*
X11047664Y-16483764D02*
X11047664Y-16268236D01*
X10832136Y-16268236D01*
X10832136Y-16483764D01*
X11047664Y-16483764D01*
X11335157Y-16211714D02*
X11520871Y-16211714D01*
X11420871Y-16326000D01*
X11463728Y-16326000D01*
X11492300Y-16340286D01*
X11506586Y-16354571D01*
X11520871Y-16383143D01*
X11520871Y-16454571D01*
X11506586Y-16483143D01*
X11492300Y-16497429D01*
X11463728Y-16511714D01*
X11378014Y-16511714D01*
X11349443Y-16497429D01*
X11335157Y-16483143D01*
X11649443Y-16483143D02*
X11663728Y-16497429D01*
X11649443Y-16511714D01*
X11635157Y-16497429D01*
X11649443Y-16483143D01*
X11649443Y-16511714D01*
X11849443Y-16211714D02*
X11878014Y-16211714D01*
X11906586Y-16226000D01*
X11920871Y-16240286D01*
X11935157Y-16268857D01*
X11949443Y-16326000D01*
X11949443Y-16397429D01*
X11935157Y-16454571D01*
X11920871Y-16483143D01*
X11906586Y-16497429D01*
X11878014Y-16511714D01*
X11849443Y-16511714D01*
X11820871Y-16497429D01*
X11806586Y-16483143D01*
X11792300Y-16454571D01*
X11778014Y-16397429D01*
X11778014Y-16326000D01*
X11792300Y-16268857D01*
X11806586Y-16240286D01*
X11820871Y-16226000D01*
X11849443Y-16211714D01*
X12220871Y-16211714D02*
X12078014Y-16211714D01*
X12063728Y-16354571D01*
X12078014Y-16340286D01*
X12106586Y-16326000D01*
X12178014Y-16326000D01*
X12206586Y-16340286D01*
X12220871Y-16354571D01*
X12235157Y-16383143D01*
X12235157Y-16454571D01*
X12220871Y-16483143D01*
X12206586Y-16497429D01*
X12178014Y-16511714D01*
X12106586Y-16511714D01*
X12078014Y-16497429D01*
X12063728Y-16483143D01*
X12363728Y-16511714D02*
X12363728Y-16311714D01*
X12363728Y-16340286D02*
X12378014Y-16326000D01*
X12406586Y-16311714D01*
X12449443Y-16311714D01*
X12478014Y-16326000D01*
X12492300Y-16354571D01*
X12492300Y-16511714D01*
X12492300Y-16354571D02*
X12506586Y-16326000D01*
X12535157Y-16311714D01*
X12578014Y-16311714D01*
X12606586Y-16326000D01*
X12620871Y-16354571D01*
X12620871Y-16511714D01*
X12763728Y-16511714D02*
X12763728Y-16311714D01*
X12763728Y-16340286D02*
X12778014Y-16326000D01*
X12806586Y-16311714D01*
X12849443Y-16311714D01*
X12878014Y-16326000D01*
X12892300Y-16354571D01*
X12892300Y-16511714D01*
X12892300Y-16354571D02*
X12906586Y-16326000D01*
X12935157Y-16311714D01*
X12978014Y-16311714D01*
X13006586Y-16326000D01*
X13020871Y-16354571D01*
X13020871Y-16511714D01*
X13606586Y-16197429D02*
X13349443Y-16583143D01*
X13992300Y-16211714D02*
X14020871Y-16211714D01*
X14049443Y-16226000D01*
X14063728Y-16240286D01*
X14078014Y-16268857D01*
X14092300Y-16326000D01*
X14092300Y-16397429D01*
X14078014Y-16454571D01*
X14063728Y-16483143D01*
X14049443Y-16497429D01*
X14020871Y-16511714D01*
X13992300Y-16511714D01*
X13963728Y-16497429D01*
X13949443Y-16483143D01*
X13935157Y-16454571D01*
X13920871Y-16397429D01*
X13920871Y-16326000D01*
X13935157Y-16268857D01*
X13949443Y-16240286D01*
X13963728Y-16226000D01*
X13992300Y-16211714D01*
X14220871Y-16483143D02*
X14235157Y-16497429D01*
X14220871Y-16511714D01*
X14206586Y-16497429D01*
X14220871Y-16483143D01*
X14220871Y-16511714D01*
X14520871Y-16511714D02*
X14349443Y-16511714D01*
X14435157Y-16511714D02*
X14435157Y-16211714D01*
X14406585Y-16254571D01*
X14378014Y-16283143D01*
X14349443Y-16297429D01*
X14635157Y-16240286D02*
X14649443Y-16226000D01*
X14678014Y-16211714D01*
X14749443Y-16211714D01*
X14778014Y-16226000D01*
X14792300Y-16240286D01*
X14806585Y-16268857D01*
X14806585Y-16297429D01*
X14792300Y-16340286D01*
X14620871Y-16511714D01*
X14806585Y-16511714D01*
X14992300Y-16211714D02*
X15020871Y-16211714D01*
X15049443Y-16226000D01*
X15063728Y-16240286D01*
X15078014Y-16268857D01*
X15092300Y-16326000D01*
X15092300Y-16397429D01*
X15078014Y-16454571D01*
X15063728Y-16483143D01*
X15049443Y-16497429D01*
X15020871Y-16511714D01*
X14992300Y-16511714D01*
X14963728Y-16497429D01*
X14949443Y-16483143D01*
X14935157Y-16454571D01*
X14920871Y-16397429D01*
X14920871Y-16326000D01*
X14935157Y-16268857D01*
X14949443Y-16240286D01*
X14963728Y-16226000D01*
X14992300Y-16211714D01*
X15206586Y-16211714D02*
X15206586Y-16268857D01*
X15320871Y-16211714D02*
X15320871Y-16268857D01*
X15763728Y-16626000D02*
X15749443Y-16611714D01*
X15720871Y-16568857D01*
X15706585Y-16540286D01*
X15692300Y-16497429D01*
X15678014Y-16426000D01*
X15678014Y-16368857D01*
X15692300Y-16297429D01*
X15706585Y-16254571D01*
X15720871Y-16226000D01*
X15749443Y-16183143D01*
X15763728Y-16168857D01*
X16006585Y-16311714D02*
X16006585Y-16511714D01*
X15935157Y-16197429D02*
X15863728Y-16411714D01*
X16049443Y-16411714D01*
X16392300Y-16511714D02*
X16392300Y-16211714D01*
X16520871Y-16511714D02*
X16520871Y-16354571D01*
X16506585Y-16326000D01*
X16478014Y-16311714D01*
X16435157Y-16311714D01*
X16406585Y-16326000D01*
X16392300Y-16340286D01*
X16706585Y-16511714D02*
X16678014Y-16497429D01*
X16663728Y-16483143D01*
X16649443Y-16454571D01*
X16649443Y-16368857D01*
X16663728Y-16340286D01*
X16678014Y-16326000D01*
X16706585Y-16311714D01*
X16749443Y-16311714D01*
X16778014Y-16326000D01*
X16792300Y-16340286D01*
X16806586Y-16368857D01*
X16806586Y-16454571D01*
X16792300Y-16483143D01*
X16778014Y-16497429D01*
X16749443Y-16511714D01*
X16706585Y-16511714D01*
X16978014Y-16511714D02*
X16949443Y-16497429D01*
X16935157Y-16468857D01*
X16935157Y-16211714D01*
X17206586Y-16497429D02*
X17178014Y-16511714D01*
X17120871Y-16511714D01*
X17092300Y-16497429D01*
X17078014Y-16468857D01*
X17078014Y-16354571D01*
X17092300Y-16326000D01*
X17120871Y-16311714D01*
X17178014Y-16311714D01*
X17206586Y-16326000D01*
X17220871Y-16354571D01*
X17220871Y-16383143D01*
X17078014Y-16411714D01*
X17335157Y-16497429D02*
X17363729Y-16511714D01*
X17420871Y-16511714D01*
X17449443Y-16497429D01*
X17463729Y-16468857D01*
X17463729Y-16454571D01*
X17449443Y-16426000D01*
X17420871Y-16411714D01*
X17378014Y-16411714D01*
X17349443Y-16397429D01*
X17335157Y-16368857D01*
X17335157Y-16354571D01*
X17349443Y-16326000D01*
X17378014Y-16311714D01*
X17420871Y-16311714D01*
X17449443Y-16326000D01*
X17563728Y-16626000D02*
X17578014Y-16611714D01*
X17606586Y-16568857D01*
X17620871Y-16540286D01*
X17635157Y-16497429D01*
X17649443Y-16426000D01*
X17649443Y-16368857D01*
X17635157Y-16297429D01*
X17620871Y-16254571D01*
X17606586Y-16226000D01*
X17578014Y-16183143D01*
X17563728Y-16168857D01*
M02*
