G04 #@! TF.FileFunction,Legend,Top*
%FSLAX46Y46*%
G04 Gerber Fmt 4.6, Leading zero omitted, Abs format (unit mm)*
G04 Created by KiCad (PCBNEW (2015-07-11 BZR 5925, Git c291b88)-product) date 2015/12/7 0:21:45*
%MOMM*%
G01*
G04 APERTURE LIST*
%ADD10C,0.100000*%
%ADD11C,0.150000*%
%ADD12C,0.254000*%
%ADD13C,0.203200*%
G04 APERTURE END LIST*
D10*
D11*
X168021000Y-116586000D02*
X168021000Y-119380000D01*
X165608000Y-119380000D02*
X165608000Y-116586000D01*
X170053000Y-119380000D02*
X170180000Y-119380000D01*
X165608000Y-119380000D02*
X170053000Y-119380000D01*
X165608000Y-117983000D02*
X170053000Y-117983000D01*
X170053000Y-119380000D02*
X170688000Y-119380000D01*
X170307000Y-116586000D02*
X170307000Y-119380000D01*
X172847000Y-117983000D02*
X172847000Y-116586000D01*
X175260000Y-116586000D02*
X175260000Y-117348000D01*
X160528000Y-116586000D02*
X175260000Y-116586000D01*
X102404906Y-96895000D02*
X102443001Y-96933095D01*
X102481096Y-97009286D01*
X102481096Y-97199762D01*
X102443001Y-97275952D01*
X102404906Y-97314048D01*
X102328715Y-97352143D01*
X102252525Y-97352143D01*
X102138239Y-97314048D01*
X101681096Y-96856905D01*
X101681096Y-97352143D01*
X101757287Y-97695000D02*
X101719191Y-97733095D01*
X101681096Y-97695000D01*
X101719191Y-97656905D01*
X101757287Y-97695000D01*
X101681096Y-97695000D01*
X101681096Y-98495000D02*
X101681096Y-98037857D01*
X101681096Y-98266428D02*
X102481096Y-98266428D01*
X102366811Y-98190238D01*
X102290620Y-98114047D01*
X102252525Y-98037857D01*
X102481096Y-98990238D02*
X102481096Y-99066429D01*
X102443001Y-99142619D01*
X102404906Y-99180714D01*
X102328715Y-99218810D01*
X102176334Y-99256905D01*
X101985858Y-99256905D01*
X101833477Y-99218810D01*
X101757287Y-99180714D01*
X101719191Y-99142619D01*
X101681096Y-99066429D01*
X101681096Y-98990238D01*
X101719191Y-98914048D01*
X101757287Y-98875952D01*
X101833477Y-98837857D01*
X101985858Y-98799762D01*
X102176334Y-98799762D01*
X102328715Y-98837857D01*
X102404906Y-98875952D01*
X102443001Y-98914048D01*
X102481096Y-98990238D01*
X102481096Y-99752143D02*
X102481096Y-99828334D01*
X102443001Y-99904524D01*
X102404906Y-99942619D01*
X102328715Y-99980715D01*
X102176334Y-100018810D01*
X101985858Y-100018810D01*
X101833477Y-99980715D01*
X101757287Y-99942619D01*
X101719191Y-99904524D01*
X101681096Y-99828334D01*
X101681096Y-99752143D01*
X101719191Y-99675953D01*
X101757287Y-99637857D01*
X101833477Y-99599762D01*
X101985858Y-99561667D01*
X102176334Y-99561667D01*
X102328715Y-99599762D01*
X102404906Y-99637857D01*
X102443001Y-99675953D01*
X102481096Y-99752143D01*
X102481096Y-100514048D02*
X102481096Y-100590239D01*
X102443001Y-100666429D01*
X102404906Y-100704524D01*
X102328715Y-100742620D01*
X102176334Y-100780715D01*
X101985858Y-100780715D01*
X101833477Y-100742620D01*
X101757287Y-100704524D01*
X101719191Y-100666429D01*
X101681096Y-100590239D01*
X101681096Y-100514048D01*
X101719191Y-100437858D01*
X101757287Y-100399762D01*
X101833477Y-100361667D01*
X101985858Y-100323572D01*
X102176334Y-100323572D01*
X102328715Y-100361667D01*
X102404906Y-100399762D01*
X102443001Y-100437858D01*
X102481096Y-100514048D01*
X101681096Y-101733096D02*
X102214430Y-101733096D01*
X102481096Y-101733096D02*
X102443001Y-101695001D01*
X102404906Y-101733096D01*
X102443001Y-101771191D01*
X102481096Y-101733096D01*
X102404906Y-101733096D01*
X102214430Y-102114048D02*
X101681096Y-102114048D01*
X102138239Y-102114048D02*
X102176334Y-102152143D01*
X102214430Y-102228334D01*
X102214430Y-102342620D01*
X102176334Y-102418810D01*
X102100144Y-102456905D01*
X101681096Y-102456905D01*
X102743001Y-73025000D02*
X102743001Y-126365000D01*
X110998000Y-73025000D02*
X101343001Y-73025000D01*
X110998000Y-126365000D02*
X101343001Y-126365000D01*
X102743001Y-126365000D02*
X102156580Y-125238496D01*
X102743001Y-126365000D02*
X103329422Y-125238496D01*
X102743001Y-73025000D02*
X102156580Y-74151504D01*
X102743001Y-73025000D02*
X103329422Y-74151504D01*
X142488000Y-130767094D02*
X142526095Y-130728999D01*
X142602286Y-130690904D01*
X142792762Y-130690904D01*
X142868952Y-130728999D01*
X142907048Y-130767094D01*
X142945143Y-130843285D01*
X142945143Y-130919475D01*
X142907048Y-131033761D01*
X142449905Y-131490904D01*
X142945143Y-131490904D01*
X143288000Y-131414713D02*
X143326095Y-131452809D01*
X143288000Y-131490904D01*
X143249905Y-131452809D01*
X143288000Y-131414713D01*
X143288000Y-131490904D01*
X143592762Y-130690904D02*
X144126095Y-130690904D01*
X143783238Y-131490904D01*
X144583238Y-130690904D02*
X144659429Y-130690904D01*
X144735619Y-130728999D01*
X144773714Y-130767094D01*
X144811810Y-130843285D01*
X144849905Y-130995666D01*
X144849905Y-131186142D01*
X144811810Y-131338523D01*
X144773714Y-131414713D01*
X144735619Y-131452809D01*
X144659429Y-131490904D01*
X144583238Y-131490904D01*
X144507048Y-131452809D01*
X144468952Y-131414713D01*
X144430857Y-131338523D01*
X144392762Y-131186142D01*
X144392762Y-130995666D01*
X144430857Y-130843285D01*
X144468952Y-130767094D01*
X144507048Y-130728999D01*
X144583238Y-130690904D01*
X145345143Y-130690904D02*
X145421334Y-130690904D01*
X145497524Y-130728999D01*
X145535619Y-130767094D01*
X145573715Y-130843285D01*
X145611810Y-130995666D01*
X145611810Y-131186142D01*
X145573715Y-131338523D01*
X145535619Y-131414713D01*
X145497524Y-131452809D01*
X145421334Y-131490904D01*
X145345143Y-131490904D01*
X145268953Y-131452809D01*
X145230857Y-131414713D01*
X145192762Y-131338523D01*
X145154667Y-131186142D01*
X145154667Y-130995666D01*
X145192762Y-130843285D01*
X145230857Y-130767094D01*
X145268953Y-130728999D01*
X145345143Y-130690904D01*
X146107048Y-130690904D02*
X146183239Y-130690904D01*
X146259429Y-130728999D01*
X146297524Y-130767094D01*
X146335620Y-130843285D01*
X146373715Y-130995666D01*
X146373715Y-131186142D01*
X146335620Y-131338523D01*
X146297524Y-131414713D01*
X146259429Y-131452809D01*
X146183239Y-131490904D01*
X146107048Y-131490904D01*
X146030858Y-131452809D01*
X145992762Y-131414713D01*
X145954667Y-131338523D01*
X145916572Y-131186142D01*
X145916572Y-130995666D01*
X145954667Y-130843285D01*
X145992762Y-130767094D01*
X146030858Y-130728999D01*
X146107048Y-130690904D01*
X147326096Y-131490904D02*
X147326096Y-130957570D01*
X147326096Y-130690904D02*
X147288001Y-130728999D01*
X147326096Y-130767094D01*
X147364191Y-130728999D01*
X147326096Y-130690904D01*
X147326096Y-130767094D01*
X147707048Y-130957570D02*
X147707048Y-131490904D01*
X147707048Y-131033761D02*
X147745143Y-130995666D01*
X147821334Y-130957570D01*
X147935620Y-130957570D01*
X148011810Y-130995666D01*
X148049905Y-131071856D01*
X148049905Y-131490904D01*
X110998000Y-130428999D02*
X179578000Y-130428999D01*
X110998000Y-127508000D02*
X110998000Y-131828999D01*
X179578000Y-127508000D02*
X179578000Y-131828999D01*
X179578000Y-130428999D02*
X178451496Y-131015420D01*
X179578000Y-130428999D02*
X178451496Y-129842578D01*
X110998000Y-130428999D02*
X112124504Y-131015420D01*
X110998000Y-130428999D02*
X112124504Y-129842578D01*
X114433714Y-113087143D02*
X115043238Y-113087143D01*
X114738476Y-113391905D02*
X114738476Y-112782381D01*
X115805143Y-112591905D02*
X115424190Y-112591905D01*
X115386095Y-112972857D01*
X115424190Y-112934762D01*
X115500381Y-112896667D01*
X115690857Y-112896667D01*
X115767047Y-112934762D01*
X115805143Y-112972857D01*
X115843238Y-113049048D01*
X115843238Y-113239524D01*
X115805143Y-113315714D01*
X115767047Y-113353810D01*
X115690857Y-113391905D01*
X115500381Y-113391905D01*
X115424190Y-113353810D01*
X115386095Y-113315714D01*
X116071809Y-112591905D02*
X116338476Y-113391905D01*
X116605143Y-112591905D01*
X116757523Y-113087143D02*
X116795619Y-113049048D01*
X116871809Y-113010952D01*
X117024190Y-113087143D01*
X117100381Y-113049048D01*
X117138476Y-113010952D01*
X117443238Y-113087143D02*
X118052762Y-113087143D01*
X117748000Y-113391905D02*
X117748000Y-112782381D01*
X118395619Y-112668095D02*
X118433714Y-112630000D01*
X118509905Y-112591905D01*
X118700381Y-112591905D01*
X118776571Y-112630000D01*
X118814667Y-112668095D01*
X118852762Y-112744286D01*
X118852762Y-112820476D01*
X118814667Y-112934762D01*
X118357524Y-113391905D01*
X118852762Y-113391905D01*
X119538476Y-112858571D02*
X119538476Y-113391905D01*
X119348000Y-112553810D02*
X119157524Y-113125238D01*
X119652762Y-113125238D01*
X119843238Y-112591905D02*
X120109905Y-113391905D01*
X120376572Y-112591905D01*
X114427000Y-121666000D02*
X116586000Y-121666000D01*
X113411000Y-119888000D02*
X113538000Y-119761000D01*
X113411000Y-120523000D02*
X113411000Y-119888000D01*
X114681000Y-122809000D02*
X115697000Y-122809000D01*
X114173000Y-122301000D02*
X114681000Y-122809000D01*
X118364000Y-116586000D02*
X118364000Y-117475000D01*
X120142000Y-115570000D02*
X120777000Y-116205000D01*
X119380000Y-115570000D02*
X120142000Y-115570000D01*
X114214219Y-121539000D02*
G75*
G03X114214219Y-121539000I-803219J0D01*
G01*
X112903000Y-121539000D02*
X113919000Y-121539000D01*
X119167219Y-115570000D02*
G75*
G03X119167219Y-115570000I-803219J0D01*
G01*
X118872000Y-115570000D02*
X117856000Y-115570000D01*
X118364000Y-115062000D02*
X118364000Y-116078000D01*
D12*
X168964429Y-88274071D02*
X169672000Y-88274071D01*
X169291000Y-88709500D01*
X169454286Y-88709500D01*
X169563143Y-88763929D01*
X169617572Y-88818357D01*
X169672000Y-88927214D01*
X169672000Y-89199357D01*
X169617572Y-89308214D01*
X169563143Y-89362643D01*
X169454286Y-89417071D01*
X169127714Y-89417071D01*
X169018857Y-89362643D01*
X168964429Y-89308214D01*
X170161857Y-89308214D02*
X170216285Y-89362643D01*
X170161857Y-89417071D01*
X170107428Y-89362643D01*
X170161857Y-89308214D01*
X170161857Y-89417071D01*
X170597286Y-88274071D02*
X171304857Y-88274071D01*
X170923857Y-88709500D01*
X171087143Y-88709500D01*
X171196000Y-88763929D01*
X171250429Y-88818357D01*
X171304857Y-88927214D01*
X171304857Y-89199357D01*
X171250429Y-89308214D01*
X171196000Y-89362643D01*
X171087143Y-89417071D01*
X170760571Y-89417071D01*
X170651714Y-89362643D01*
X170597286Y-89308214D01*
X171631428Y-88274071D02*
X172012428Y-89417071D01*
X172393428Y-88274071D01*
X173645285Y-89417071D02*
X173645285Y-88274071D01*
X174407285Y-88274071D02*
X174624999Y-88274071D01*
X174733857Y-88328500D01*
X174842714Y-88437357D01*
X174897142Y-88655071D01*
X174897142Y-89036071D01*
X174842714Y-89253786D01*
X174733857Y-89362643D01*
X174624999Y-89417071D01*
X174407285Y-89417071D01*
X174298428Y-89362643D01*
X174189571Y-89253786D01*
X174135142Y-89036071D01*
X174135142Y-88655071D01*
X174189571Y-88437357D01*
X174298428Y-88328500D01*
X174407285Y-88274071D01*
D11*
X163068000Y-116586000D02*
X163068000Y-119380000D01*
X170688000Y-117983000D02*
X170053000Y-117983000D01*
X170053000Y-119380000D02*
X170688000Y-119380000D01*
X172847000Y-117983000D02*
X172847000Y-119380000D01*
X170688000Y-117983000D02*
X174879000Y-117983000D01*
X174879000Y-119380000D02*
X170688000Y-119380000D01*
X160528000Y-119380000D02*
X165608000Y-119380000D01*
X160528000Y-117983000D02*
X160528000Y-119380000D01*
X160528000Y-117983000D02*
X165608000Y-117983000D01*
X160528000Y-116586000D02*
X160528000Y-117983000D01*
X155448000Y-119380000D02*
X155448000Y-116586000D01*
X152908000Y-119380000D02*
X152908000Y-116586000D01*
X150368000Y-119380000D02*
X150368000Y-116586000D01*
X147828000Y-116586000D02*
X147701000Y-116586000D01*
X147828000Y-119380000D02*
X147828000Y-116586000D01*
X145288000Y-119380000D02*
X145288000Y-116586000D01*
X142748000Y-119380000D02*
X142748000Y-116586000D01*
X140208000Y-119380000D02*
X140208000Y-116586000D01*
X137668000Y-117983000D02*
X137795000Y-117983000D01*
X137668000Y-116586000D02*
X137668000Y-117983000D01*
X157988000Y-116586000D02*
X137668000Y-116586000D01*
X157988000Y-117983000D02*
X157988000Y-116586000D01*
X157988000Y-117983000D02*
X157988000Y-119380000D01*
X137668000Y-117983000D02*
X157988000Y-117983000D01*
X137668000Y-119380000D02*
X137668000Y-117983000D01*
X157988000Y-119380000D02*
X137668000Y-119380000D01*
X155448000Y-81280000D02*
X175768000Y-81280000D01*
X173228000Y-79883000D02*
X173228000Y-82677000D01*
X170688000Y-82677000D02*
X171450000Y-82677000D01*
X170688000Y-79883000D02*
X170688000Y-82677000D01*
X170688000Y-79883000D02*
X170688000Y-82677000D01*
X168148000Y-79883000D02*
X168148000Y-82677000D01*
X168021000Y-79883000D02*
X168148000Y-79883000D01*
X165608000Y-82677000D02*
X165735000Y-82677000D01*
X165608000Y-79883000D02*
X165608000Y-82677000D01*
X163068000Y-79883000D02*
X163068000Y-82677000D01*
X160528000Y-79883000D02*
X160528000Y-82677000D01*
X157988000Y-79883000D02*
X157988000Y-82677000D01*
X155448000Y-82677000D02*
X155448000Y-79883000D01*
X175768000Y-82677000D02*
X155448000Y-82677000D01*
X175768000Y-79883000D02*
X175768000Y-82677000D01*
X155448000Y-79883000D02*
X175768000Y-79883000D01*
X131064000Y-82677000D02*
X132334000Y-82677000D01*
X131064000Y-79883000D02*
X131064000Y-82677000D01*
X133604000Y-79883000D02*
X133604000Y-82677000D01*
X136144000Y-79883000D02*
X136144000Y-82677000D01*
X138684000Y-79883000D02*
X138684000Y-82677000D01*
X141224000Y-79883000D02*
X141224000Y-82677000D01*
X143764000Y-79883000D02*
X143764000Y-82677000D01*
X146304000Y-79375000D02*
X146304000Y-82677000D01*
X148844000Y-79883000D02*
X148844000Y-82677000D01*
X151384000Y-79883000D02*
X151384000Y-82677000D01*
X153924000Y-82677000D02*
X153924000Y-79883000D01*
X128524000Y-82677000D02*
X153924000Y-82677000D01*
X128524000Y-79883000D02*
X128524000Y-82677000D01*
X128524000Y-81280000D02*
X153924000Y-81280000D01*
X128524000Y-79883000D02*
X128778000Y-79883000D01*
X128778000Y-79883000D02*
X153924000Y-79883000D01*
X174313905Y-82327714D02*
X174275810Y-82365810D01*
X174161524Y-82403905D01*
X174085334Y-82403905D01*
X173971048Y-82365810D01*
X173894857Y-82289619D01*
X173856762Y-82213429D01*
X173818667Y-82061048D01*
X173818667Y-81946762D01*
X173856762Y-81794381D01*
X173894857Y-81718190D01*
X173971048Y-81642000D01*
X174085334Y-81603905D01*
X174161524Y-81603905D01*
X174275810Y-81642000D01*
X174313905Y-81680095D01*
X174809143Y-81603905D02*
X174885334Y-81603905D01*
X174961524Y-81642000D01*
X174999619Y-81680095D01*
X175037715Y-81756286D01*
X175075810Y-81908667D01*
X175075810Y-82099143D01*
X175037715Y-82251524D01*
X174999619Y-82327714D01*
X174961524Y-82365810D01*
X174885334Y-82403905D01*
X174809143Y-82403905D01*
X174732953Y-82365810D01*
X174694857Y-82327714D01*
X174656762Y-82251524D01*
X174618667Y-82099143D01*
X174618667Y-81908667D01*
X174656762Y-81756286D01*
X174694857Y-81680095D01*
X174732953Y-81642000D01*
X174809143Y-81603905D01*
X171773905Y-82327714D02*
X171735810Y-82365810D01*
X171621524Y-82403905D01*
X171545334Y-82403905D01*
X171431048Y-82365810D01*
X171354857Y-82289619D01*
X171316762Y-82213429D01*
X171278667Y-82061048D01*
X171278667Y-81946762D01*
X171316762Y-81794381D01*
X171354857Y-81718190D01*
X171431048Y-81642000D01*
X171545334Y-81603905D01*
X171621524Y-81603905D01*
X171735810Y-81642000D01*
X171773905Y-81680095D01*
X172535810Y-82403905D02*
X172078667Y-82403905D01*
X172307238Y-82403905D02*
X172307238Y-81603905D01*
X172231048Y-81718190D01*
X172154857Y-81794381D01*
X172078667Y-81832476D01*
X169233905Y-82327714D02*
X169195810Y-82365810D01*
X169081524Y-82403905D01*
X169005334Y-82403905D01*
X168891048Y-82365810D01*
X168814857Y-82289619D01*
X168776762Y-82213429D01*
X168738667Y-82061048D01*
X168738667Y-81946762D01*
X168776762Y-81794381D01*
X168814857Y-81718190D01*
X168891048Y-81642000D01*
X169005334Y-81603905D01*
X169081524Y-81603905D01*
X169195810Y-81642000D01*
X169233905Y-81680095D01*
X169538667Y-81680095D02*
X169576762Y-81642000D01*
X169652953Y-81603905D01*
X169843429Y-81603905D01*
X169919619Y-81642000D01*
X169957715Y-81680095D01*
X169995810Y-81756286D01*
X169995810Y-81832476D01*
X169957715Y-81946762D01*
X169500572Y-82403905D01*
X169995810Y-82403905D01*
X166693905Y-82327714D02*
X166655810Y-82365810D01*
X166541524Y-82403905D01*
X166465334Y-82403905D01*
X166351048Y-82365810D01*
X166274857Y-82289619D01*
X166236762Y-82213429D01*
X166198667Y-82061048D01*
X166198667Y-81946762D01*
X166236762Y-81794381D01*
X166274857Y-81718190D01*
X166351048Y-81642000D01*
X166465334Y-81603905D01*
X166541524Y-81603905D01*
X166655810Y-81642000D01*
X166693905Y-81680095D01*
X166960572Y-81603905D02*
X167455810Y-81603905D01*
X167189143Y-81908667D01*
X167303429Y-81908667D01*
X167379619Y-81946762D01*
X167417715Y-81984857D01*
X167455810Y-82061048D01*
X167455810Y-82251524D01*
X167417715Y-82327714D01*
X167379619Y-82365810D01*
X167303429Y-82403905D01*
X167074857Y-82403905D01*
X166998667Y-82365810D01*
X166960572Y-82327714D01*
X164153905Y-82327714D02*
X164115810Y-82365810D01*
X164001524Y-82403905D01*
X163925334Y-82403905D01*
X163811048Y-82365810D01*
X163734857Y-82289619D01*
X163696762Y-82213429D01*
X163658667Y-82061048D01*
X163658667Y-81946762D01*
X163696762Y-81794381D01*
X163734857Y-81718190D01*
X163811048Y-81642000D01*
X163925334Y-81603905D01*
X164001524Y-81603905D01*
X164115810Y-81642000D01*
X164153905Y-81680095D01*
X164839619Y-81870571D02*
X164839619Y-82403905D01*
X164649143Y-81565810D02*
X164458667Y-82137238D01*
X164953905Y-82137238D01*
X161613905Y-82327714D02*
X161575810Y-82365810D01*
X161461524Y-82403905D01*
X161385334Y-82403905D01*
X161271048Y-82365810D01*
X161194857Y-82289619D01*
X161156762Y-82213429D01*
X161118667Y-82061048D01*
X161118667Y-81946762D01*
X161156762Y-81794381D01*
X161194857Y-81718190D01*
X161271048Y-81642000D01*
X161385334Y-81603905D01*
X161461524Y-81603905D01*
X161575810Y-81642000D01*
X161613905Y-81680095D01*
X162337715Y-81603905D02*
X161956762Y-81603905D01*
X161918667Y-81984857D01*
X161956762Y-81946762D01*
X162032953Y-81908667D01*
X162223429Y-81908667D01*
X162299619Y-81946762D01*
X162337715Y-81984857D01*
X162375810Y-82061048D01*
X162375810Y-82251524D01*
X162337715Y-82327714D01*
X162299619Y-82365810D01*
X162223429Y-82403905D01*
X162032953Y-82403905D01*
X161956762Y-82365810D01*
X161918667Y-82327714D01*
X159073905Y-82327714D02*
X159035810Y-82365810D01*
X158921524Y-82403905D01*
X158845334Y-82403905D01*
X158731048Y-82365810D01*
X158654857Y-82289619D01*
X158616762Y-82213429D01*
X158578667Y-82061048D01*
X158578667Y-81946762D01*
X158616762Y-81794381D01*
X158654857Y-81718190D01*
X158731048Y-81642000D01*
X158845334Y-81603905D01*
X158921524Y-81603905D01*
X159035810Y-81642000D01*
X159073905Y-81680095D01*
X159759619Y-81603905D02*
X159607238Y-81603905D01*
X159531048Y-81642000D01*
X159492953Y-81680095D01*
X159416762Y-81794381D01*
X159378667Y-81946762D01*
X159378667Y-82251524D01*
X159416762Y-82327714D01*
X159454857Y-82365810D01*
X159531048Y-82403905D01*
X159683429Y-82403905D01*
X159759619Y-82365810D01*
X159797715Y-82327714D01*
X159835810Y-82251524D01*
X159835810Y-82061048D01*
X159797715Y-81984857D01*
X159759619Y-81946762D01*
X159683429Y-81908667D01*
X159531048Y-81908667D01*
X159454857Y-81946762D01*
X159416762Y-81984857D01*
X159378667Y-82061048D01*
X156533905Y-82327714D02*
X156495810Y-82365810D01*
X156381524Y-82403905D01*
X156305334Y-82403905D01*
X156191048Y-82365810D01*
X156114857Y-82289619D01*
X156076762Y-82213429D01*
X156038667Y-82061048D01*
X156038667Y-81946762D01*
X156076762Y-81794381D01*
X156114857Y-81718190D01*
X156191048Y-81642000D01*
X156305334Y-81603905D01*
X156381524Y-81603905D01*
X156495810Y-81642000D01*
X156533905Y-81680095D01*
X156800572Y-81603905D02*
X157333905Y-81603905D01*
X156991048Y-82403905D01*
X173856762Y-81006905D02*
X173856762Y-80206905D01*
X174047238Y-80206905D01*
X174161524Y-80245000D01*
X174237715Y-80321190D01*
X174275810Y-80397381D01*
X174313905Y-80549762D01*
X174313905Y-80664048D01*
X174275810Y-80816429D01*
X174237715Y-80892619D01*
X174161524Y-80968810D01*
X174047238Y-81006905D01*
X173856762Y-81006905D01*
X174809143Y-80206905D02*
X174885334Y-80206905D01*
X174961524Y-80245000D01*
X174999619Y-80283095D01*
X175037715Y-80359286D01*
X175075810Y-80511667D01*
X175075810Y-80702143D01*
X175037715Y-80854524D01*
X174999619Y-80930714D01*
X174961524Y-80968810D01*
X174885334Y-81006905D01*
X174809143Y-81006905D01*
X174732953Y-80968810D01*
X174694857Y-80930714D01*
X174656762Y-80854524D01*
X174618667Y-80702143D01*
X174618667Y-80511667D01*
X174656762Y-80359286D01*
X174694857Y-80283095D01*
X174732953Y-80245000D01*
X174809143Y-80206905D01*
X171316762Y-81006905D02*
X171316762Y-80206905D01*
X171507238Y-80206905D01*
X171621524Y-80245000D01*
X171697715Y-80321190D01*
X171735810Y-80397381D01*
X171773905Y-80549762D01*
X171773905Y-80664048D01*
X171735810Y-80816429D01*
X171697715Y-80892619D01*
X171621524Y-80968810D01*
X171507238Y-81006905D01*
X171316762Y-81006905D01*
X172535810Y-81006905D02*
X172078667Y-81006905D01*
X172307238Y-81006905D02*
X172307238Y-80206905D01*
X172231048Y-80321190D01*
X172154857Y-80397381D01*
X172078667Y-80435476D01*
X168776762Y-81006905D02*
X168776762Y-80206905D01*
X168967238Y-80206905D01*
X169081524Y-80245000D01*
X169157715Y-80321190D01*
X169195810Y-80397381D01*
X169233905Y-80549762D01*
X169233905Y-80664048D01*
X169195810Y-80816429D01*
X169157715Y-80892619D01*
X169081524Y-80968810D01*
X168967238Y-81006905D01*
X168776762Y-81006905D01*
X169538667Y-80283095D02*
X169576762Y-80245000D01*
X169652953Y-80206905D01*
X169843429Y-80206905D01*
X169919619Y-80245000D01*
X169957715Y-80283095D01*
X169995810Y-80359286D01*
X169995810Y-80435476D01*
X169957715Y-80549762D01*
X169500572Y-81006905D01*
X169995810Y-81006905D01*
X166236762Y-81006905D02*
X166236762Y-80206905D01*
X166427238Y-80206905D01*
X166541524Y-80245000D01*
X166617715Y-80321190D01*
X166655810Y-80397381D01*
X166693905Y-80549762D01*
X166693905Y-80664048D01*
X166655810Y-80816429D01*
X166617715Y-80892619D01*
X166541524Y-80968810D01*
X166427238Y-81006905D01*
X166236762Y-81006905D01*
X166960572Y-80206905D02*
X167455810Y-80206905D01*
X167189143Y-80511667D01*
X167303429Y-80511667D01*
X167379619Y-80549762D01*
X167417715Y-80587857D01*
X167455810Y-80664048D01*
X167455810Y-80854524D01*
X167417715Y-80930714D01*
X167379619Y-80968810D01*
X167303429Y-81006905D01*
X167074857Y-81006905D01*
X166998667Y-80968810D01*
X166960572Y-80930714D01*
X163696762Y-81006905D02*
X163696762Y-80206905D01*
X163887238Y-80206905D01*
X164001524Y-80245000D01*
X164077715Y-80321190D01*
X164115810Y-80397381D01*
X164153905Y-80549762D01*
X164153905Y-80664048D01*
X164115810Y-80816429D01*
X164077715Y-80892619D01*
X164001524Y-80968810D01*
X163887238Y-81006905D01*
X163696762Y-81006905D01*
X164839619Y-80473571D02*
X164839619Y-81006905D01*
X164649143Y-80168810D02*
X164458667Y-80740238D01*
X164953905Y-80740238D01*
X161156762Y-81006905D02*
X161156762Y-80206905D01*
X161347238Y-80206905D01*
X161461524Y-80245000D01*
X161537715Y-80321190D01*
X161575810Y-80397381D01*
X161613905Y-80549762D01*
X161613905Y-80664048D01*
X161575810Y-80816429D01*
X161537715Y-80892619D01*
X161461524Y-80968810D01*
X161347238Y-81006905D01*
X161156762Y-81006905D01*
X162337715Y-80206905D02*
X161956762Y-80206905D01*
X161918667Y-80587857D01*
X161956762Y-80549762D01*
X162032953Y-80511667D01*
X162223429Y-80511667D01*
X162299619Y-80549762D01*
X162337715Y-80587857D01*
X162375810Y-80664048D01*
X162375810Y-80854524D01*
X162337715Y-80930714D01*
X162299619Y-80968810D01*
X162223429Y-81006905D01*
X162032953Y-81006905D01*
X161956762Y-80968810D01*
X161918667Y-80930714D01*
X158616762Y-81006905D02*
X158616762Y-80206905D01*
X158807238Y-80206905D01*
X158921524Y-80245000D01*
X158997715Y-80321190D01*
X159035810Y-80397381D01*
X159073905Y-80549762D01*
X159073905Y-80664048D01*
X159035810Y-80816429D01*
X158997715Y-80892619D01*
X158921524Y-80968810D01*
X158807238Y-81006905D01*
X158616762Y-81006905D01*
X159759619Y-80206905D02*
X159607238Y-80206905D01*
X159531048Y-80245000D01*
X159492953Y-80283095D01*
X159416762Y-80397381D01*
X159378667Y-80549762D01*
X159378667Y-80854524D01*
X159416762Y-80930714D01*
X159454857Y-80968810D01*
X159531048Y-81006905D01*
X159683429Y-81006905D01*
X159759619Y-80968810D01*
X159797715Y-80930714D01*
X159835810Y-80854524D01*
X159835810Y-80664048D01*
X159797715Y-80587857D01*
X159759619Y-80549762D01*
X159683429Y-80511667D01*
X159531048Y-80511667D01*
X159454857Y-80549762D01*
X159416762Y-80587857D01*
X159378667Y-80664048D01*
X156076762Y-81006905D02*
X156076762Y-80206905D01*
X156267238Y-80206905D01*
X156381524Y-80245000D01*
X156457715Y-80321190D01*
X156495810Y-80397381D01*
X156533905Y-80549762D01*
X156533905Y-80664048D01*
X156495810Y-80816429D01*
X156457715Y-80892619D01*
X156381524Y-80968810D01*
X156267238Y-81006905D01*
X156076762Y-81006905D01*
X156800572Y-80206905D02*
X157333905Y-80206905D01*
X156991048Y-81006905D01*
X152469905Y-82327714D02*
X152431810Y-82365810D01*
X152317524Y-82403905D01*
X152241334Y-82403905D01*
X152127048Y-82365810D01*
X152050857Y-82289619D01*
X152012762Y-82213429D01*
X151974667Y-82061048D01*
X151974667Y-81946762D01*
X152012762Y-81794381D01*
X152050857Y-81718190D01*
X152127048Y-81642000D01*
X152241334Y-81603905D01*
X152317524Y-81603905D01*
X152431810Y-81642000D01*
X152469905Y-81680095D01*
X152927048Y-81946762D02*
X152850857Y-81908667D01*
X152812762Y-81870571D01*
X152774667Y-81794381D01*
X152774667Y-81756286D01*
X152812762Y-81680095D01*
X152850857Y-81642000D01*
X152927048Y-81603905D01*
X153079429Y-81603905D01*
X153155619Y-81642000D01*
X153193715Y-81680095D01*
X153231810Y-81756286D01*
X153231810Y-81794381D01*
X153193715Y-81870571D01*
X153155619Y-81908667D01*
X153079429Y-81946762D01*
X152927048Y-81946762D01*
X152850857Y-81984857D01*
X152812762Y-82022952D01*
X152774667Y-82099143D01*
X152774667Y-82251524D01*
X152812762Y-82327714D01*
X152850857Y-82365810D01*
X152927048Y-82403905D01*
X153079429Y-82403905D01*
X153155619Y-82365810D01*
X153193715Y-82327714D01*
X153231810Y-82251524D01*
X153231810Y-82099143D01*
X153193715Y-82022952D01*
X153155619Y-81984857D01*
X153079429Y-81946762D01*
X149929905Y-82327714D02*
X149891810Y-82365810D01*
X149777524Y-82403905D01*
X149701334Y-82403905D01*
X149587048Y-82365810D01*
X149510857Y-82289619D01*
X149472762Y-82213429D01*
X149434667Y-82061048D01*
X149434667Y-81946762D01*
X149472762Y-81794381D01*
X149510857Y-81718190D01*
X149587048Y-81642000D01*
X149701334Y-81603905D01*
X149777524Y-81603905D01*
X149891810Y-81642000D01*
X149929905Y-81680095D01*
X150310857Y-82403905D02*
X150463238Y-82403905D01*
X150539429Y-82365810D01*
X150577524Y-82327714D01*
X150653715Y-82213429D01*
X150691810Y-82061048D01*
X150691810Y-81756286D01*
X150653715Y-81680095D01*
X150615619Y-81642000D01*
X150539429Y-81603905D01*
X150387048Y-81603905D01*
X150310857Y-81642000D01*
X150272762Y-81680095D01*
X150234667Y-81756286D01*
X150234667Y-81946762D01*
X150272762Y-82022952D01*
X150310857Y-82061048D01*
X150387048Y-82099143D01*
X150539429Y-82099143D01*
X150615619Y-82061048D01*
X150653715Y-82022952D01*
X150691810Y-81946762D01*
X147059714Y-82327714D02*
X147021619Y-82365810D01*
X146907333Y-82403905D01*
X146831143Y-82403905D01*
X146716857Y-82365810D01*
X146640666Y-82289619D01*
X146602571Y-82213429D01*
X146564476Y-82061048D01*
X146564476Y-81946762D01*
X146602571Y-81794381D01*
X146640666Y-81718190D01*
X146716857Y-81642000D01*
X146831143Y-81603905D01*
X146907333Y-81603905D01*
X147021619Y-81642000D01*
X147059714Y-81680095D01*
X147821619Y-82403905D02*
X147364476Y-82403905D01*
X147593047Y-82403905D02*
X147593047Y-81603905D01*
X147516857Y-81718190D01*
X147440666Y-81794381D01*
X147364476Y-81832476D01*
X148316857Y-81603905D02*
X148393048Y-81603905D01*
X148469238Y-81642000D01*
X148507333Y-81680095D01*
X148545429Y-81756286D01*
X148583524Y-81908667D01*
X148583524Y-82099143D01*
X148545429Y-82251524D01*
X148507333Y-82327714D01*
X148469238Y-82365810D01*
X148393048Y-82403905D01*
X148316857Y-82403905D01*
X148240667Y-82365810D01*
X148202571Y-82327714D01*
X148164476Y-82251524D01*
X148126381Y-82099143D01*
X148126381Y-81908667D01*
X148164476Y-81756286D01*
X148202571Y-81680095D01*
X148240667Y-81642000D01*
X148316857Y-81603905D01*
X144519714Y-82327714D02*
X144481619Y-82365810D01*
X144367333Y-82403905D01*
X144291143Y-82403905D01*
X144176857Y-82365810D01*
X144100666Y-82289619D01*
X144062571Y-82213429D01*
X144024476Y-82061048D01*
X144024476Y-81946762D01*
X144062571Y-81794381D01*
X144100666Y-81718190D01*
X144176857Y-81642000D01*
X144291143Y-81603905D01*
X144367333Y-81603905D01*
X144481619Y-81642000D01*
X144519714Y-81680095D01*
X145281619Y-82403905D02*
X144824476Y-82403905D01*
X145053047Y-82403905D02*
X145053047Y-81603905D01*
X144976857Y-81718190D01*
X144900666Y-81794381D01*
X144824476Y-81832476D01*
X146043524Y-82403905D02*
X145586381Y-82403905D01*
X145814952Y-82403905D02*
X145814952Y-81603905D01*
X145738762Y-81718190D01*
X145662571Y-81794381D01*
X145586381Y-81832476D01*
X141979714Y-82327714D02*
X141941619Y-82365810D01*
X141827333Y-82403905D01*
X141751143Y-82403905D01*
X141636857Y-82365810D01*
X141560666Y-82289619D01*
X141522571Y-82213429D01*
X141484476Y-82061048D01*
X141484476Y-81946762D01*
X141522571Y-81794381D01*
X141560666Y-81718190D01*
X141636857Y-81642000D01*
X141751143Y-81603905D01*
X141827333Y-81603905D01*
X141941619Y-81642000D01*
X141979714Y-81680095D01*
X142741619Y-82403905D02*
X142284476Y-82403905D01*
X142513047Y-82403905D02*
X142513047Y-81603905D01*
X142436857Y-81718190D01*
X142360666Y-81794381D01*
X142284476Y-81832476D01*
X143046381Y-81680095D02*
X143084476Y-81642000D01*
X143160667Y-81603905D01*
X143351143Y-81603905D01*
X143427333Y-81642000D01*
X143465429Y-81680095D01*
X143503524Y-81756286D01*
X143503524Y-81832476D01*
X143465429Y-81946762D01*
X143008286Y-82403905D01*
X143503524Y-82403905D01*
X139439714Y-82327714D02*
X139401619Y-82365810D01*
X139287333Y-82403905D01*
X139211143Y-82403905D01*
X139096857Y-82365810D01*
X139020666Y-82289619D01*
X138982571Y-82213429D01*
X138944476Y-82061048D01*
X138944476Y-81946762D01*
X138982571Y-81794381D01*
X139020666Y-81718190D01*
X139096857Y-81642000D01*
X139211143Y-81603905D01*
X139287333Y-81603905D01*
X139401619Y-81642000D01*
X139439714Y-81680095D01*
X140201619Y-82403905D02*
X139744476Y-82403905D01*
X139973047Y-82403905D02*
X139973047Y-81603905D01*
X139896857Y-81718190D01*
X139820666Y-81794381D01*
X139744476Y-81832476D01*
X140468286Y-81603905D02*
X140963524Y-81603905D01*
X140696857Y-81908667D01*
X140811143Y-81908667D01*
X140887333Y-81946762D01*
X140925429Y-81984857D01*
X140963524Y-82061048D01*
X140963524Y-82251524D01*
X140925429Y-82327714D01*
X140887333Y-82365810D01*
X140811143Y-82403905D01*
X140582571Y-82403905D01*
X140506381Y-82365810D01*
X140468286Y-82327714D01*
X136804477Y-81642000D02*
X136728286Y-81603905D01*
X136614001Y-81603905D01*
X136499715Y-81642000D01*
X136423524Y-81718190D01*
X136385429Y-81794381D01*
X136347334Y-81946762D01*
X136347334Y-82061048D01*
X136385429Y-82213429D01*
X136423524Y-82289619D01*
X136499715Y-82365810D01*
X136614001Y-82403905D01*
X136690191Y-82403905D01*
X136804477Y-82365810D01*
X136842572Y-82327714D01*
X136842572Y-82061048D01*
X136690191Y-82061048D01*
X137185429Y-82403905D02*
X137185429Y-81603905D01*
X137642572Y-82403905D01*
X137642572Y-81603905D01*
X138023524Y-82403905D02*
X138023524Y-81603905D01*
X138214000Y-81603905D01*
X138328286Y-81642000D01*
X138404477Y-81718190D01*
X138442572Y-81794381D01*
X138480667Y-81946762D01*
X138480667Y-82061048D01*
X138442572Y-82213429D01*
X138404477Y-82289619D01*
X138328286Y-82365810D01*
X138214000Y-82403905D01*
X138023524Y-82403905D01*
X134359714Y-82327714D02*
X134321619Y-82365810D01*
X134207333Y-82403905D01*
X134131143Y-82403905D01*
X134016857Y-82365810D01*
X133940666Y-82289619D01*
X133902571Y-82213429D01*
X133864476Y-82061048D01*
X133864476Y-81946762D01*
X133902571Y-81794381D01*
X133940666Y-81718190D01*
X134016857Y-81642000D01*
X134131143Y-81603905D01*
X134207333Y-81603905D01*
X134321619Y-81642000D01*
X134359714Y-81680095D01*
X135121619Y-82403905D02*
X134664476Y-82403905D01*
X134893047Y-82403905D02*
X134893047Y-81603905D01*
X134816857Y-81718190D01*
X134740666Y-81794381D01*
X134664476Y-81832476D01*
X135807333Y-81870571D02*
X135807333Y-82403905D01*
X135616857Y-81565810D02*
X135426381Y-82137238D01*
X135921619Y-82137238D01*
X131819714Y-82327714D02*
X131781619Y-82365810D01*
X131667333Y-82403905D01*
X131591143Y-82403905D01*
X131476857Y-82365810D01*
X131400666Y-82289619D01*
X131362571Y-82213429D01*
X131324476Y-82061048D01*
X131324476Y-81946762D01*
X131362571Y-81794381D01*
X131400666Y-81718190D01*
X131476857Y-81642000D01*
X131591143Y-81603905D01*
X131667333Y-81603905D01*
X131781619Y-81642000D01*
X131819714Y-81680095D01*
X132581619Y-82403905D02*
X132124476Y-82403905D01*
X132353047Y-82403905D02*
X132353047Y-81603905D01*
X132276857Y-81718190D01*
X132200666Y-81794381D01*
X132124476Y-81832476D01*
X133305429Y-81603905D02*
X132924476Y-81603905D01*
X132886381Y-81984857D01*
X132924476Y-81946762D01*
X133000667Y-81908667D01*
X133191143Y-81908667D01*
X133267333Y-81946762D01*
X133305429Y-81984857D01*
X133343524Y-82061048D01*
X133343524Y-82251524D01*
X133305429Y-82327714D01*
X133267333Y-82365810D01*
X133191143Y-82403905D01*
X133000667Y-82403905D01*
X132924476Y-82365810D01*
X132886381Y-82327714D01*
X152012762Y-81006905D02*
X152012762Y-80206905D01*
X152203238Y-80206905D01*
X152317524Y-80245000D01*
X152393715Y-80321190D01*
X152431810Y-80397381D01*
X152469905Y-80549762D01*
X152469905Y-80664048D01*
X152431810Y-80816429D01*
X152393715Y-80892619D01*
X152317524Y-80968810D01*
X152203238Y-81006905D01*
X152012762Y-81006905D01*
X152927048Y-80549762D02*
X152850857Y-80511667D01*
X152812762Y-80473571D01*
X152774667Y-80397381D01*
X152774667Y-80359286D01*
X152812762Y-80283095D01*
X152850857Y-80245000D01*
X152927048Y-80206905D01*
X153079429Y-80206905D01*
X153155619Y-80245000D01*
X153193715Y-80283095D01*
X153231810Y-80359286D01*
X153231810Y-80397381D01*
X153193715Y-80473571D01*
X153155619Y-80511667D01*
X153079429Y-80549762D01*
X152927048Y-80549762D01*
X152850857Y-80587857D01*
X152812762Y-80625952D01*
X152774667Y-80702143D01*
X152774667Y-80854524D01*
X152812762Y-80930714D01*
X152850857Y-80968810D01*
X152927048Y-81006905D01*
X153079429Y-81006905D01*
X153155619Y-80968810D01*
X153193715Y-80930714D01*
X153231810Y-80854524D01*
X153231810Y-80702143D01*
X153193715Y-80625952D01*
X153155619Y-80587857D01*
X153079429Y-80549762D01*
X149472762Y-81006905D02*
X149472762Y-80206905D01*
X149663238Y-80206905D01*
X149777524Y-80245000D01*
X149853715Y-80321190D01*
X149891810Y-80397381D01*
X149929905Y-80549762D01*
X149929905Y-80664048D01*
X149891810Y-80816429D01*
X149853715Y-80892619D01*
X149777524Y-80968810D01*
X149663238Y-81006905D01*
X149472762Y-81006905D01*
X150310857Y-81006905D02*
X150463238Y-81006905D01*
X150539429Y-80968810D01*
X150577524Y-80930714D01*
X150653715Y-80816429D01*
X150691810Y-80664048D01*
X150691810Y-80359286D01*
X150653715Y-80283095D01*
X150615619Y-80245000D01*
X150539429Y-80206905D01*
X150387048Y-80206905D01*
X150310857Y-80245000D01*
X150272762Y-80283095D01*
X150234667Y-80359286D01*
X150234667Y-80549762D01*
X150272762Y-80625952D01*
X150310857Y-80664048D01*
X150387048Y-80702143D01*
X150539429Y-80702143D01*
X150615619Y-80664048D01*
X150653715Y-80625952D01*
X150691810Y-80549762D01*
X146602571Y-81006905D02*
X146602571Y-80206905D01*
X146793047Y-80206905D01*
X146907333Y-80245000D01*
X146983524Y-80321190D01*
X147021619Y-80397381D01*
X147059714Y-80549762D01*
X147059714Y-80664048D01*
X147021619Y-80816429D01*
X146983524Y-80892619D01*
X146907333Y-80968810D01*
X146793047Y-81006905D01*
X146602571Y-81006905D01*
X147821619Y-81006905D02*
X147364476Y-81006905D01*
X147593047Y-81006905D02*
X147593047Y-80206905D01*
X147516857Y-80321190D01*
X147440666Y-80397381D01*
X147364476Y-80435476D01*
X148316857Y-80206905D02*
X148393048Y-80206905D01*
X148469238Y-80245000D01*
X148507333Y-80283095D01*
X148545429Y-80359286D01*
X148583524Y-80511667D01*
X148583524Y-80702143D01*
X148545429Y-80854524D01*
X148507333Y-80930714D01*
X148469238Y-80968810D01*
X148393048Y-81006905D01*
X148316857Y-81006905D01*
X148240667Y-80968810D01*
X148202571Y-80930714D01*
X148164476Y-80854524D01*
X148126381Y-80702143D01*
X148126381Y-80511667D01*
X148164476Y-80359286D01*
X148202571Y-80283095D01*
X148240667Y-80245000D01*
X148316857Y-80206905D01*
X144062571Y-81006905D02*
X144062571Y-80206905D01*
X144253047Y-80206905D01*
X144367333Y-80245000D01*
X144443524Y-80321190D01*
X144481619Y-80397381D01*
X144519714Y-80549762D01*
X144519714Y-80664048D01*
X144481619Y-80816429D01*
X144443524Y-80892619D01*
X144367333Y-80968810D01*
X144253047Y-81006905D01*
X144062571Y-81006905D01*
X145281619Y-81006905D02*
X144824476Y-81006905D01*
X145053047Y-81006905D02*
X145053047Y-80206905D01*
X144976857Y-80321190D01*
X144900666Y-80397381D01*
X144824476Y-80435476D01*
X146043524Y-81006905D02*
X145586381Y-81006905D01*
X145814952Y-81006905D02*
X145814952Y-80206905D01*
X145738762Y-80321190D01*
X145662571Y-80397381D01*
X145586381Y-80435476D01*
X141522571Y-81006905D02*
X141522571Y-80206905D01*
X141713047Y-80206905D01*
X141827333Y-80245000D01*
X141903524Y-80321190D01*
X141941619Y-80397381D01*
X141979714Y-80549762D01*
X141979714Y-80664048D01*
X141941619Y-80816429D01*
X141903524Y-80892619D01*
X141827333Y-80968810D01*
X141713047Y-81006905D01*
X141522571Y-81006905D01*
X142741619Y-81006905D02*
X142284476Y-81006905D01*
X142513047Y-81006905D02*
X142513047Y-80206905D01*
X142436857Y-80321190D01*
X142360666Y-80397381D01*
X142284476Y-80435476D01*
X143046381Y-80283095D02*
X143084476Y-80245000D01*
X143160667Y-80206905D01*
X143351143Y-80206905D01*
X143427333Y-80245000D01*
X143465429Y-80283095D01*
X143503524Y-80359286D01*
X143503524Y-80435476D01*
X143465429Y-80549762D01*
X143008286Y-81006905D01*
X143503524Y-81006905D01*
X138982571Y-81006905D02*
X138982571Y-80206905D01*
X139173047Y-80206905D01*
X139287333Y-80245000D01*
X139363524Y-80321190D01*
X139401619Y-80397381D01*
X139439714Y-80549762D01*
X139439714Y-80664048D01*
X139401619Y-80816429D01*
X139363524Y-80892619D01*
X139287333Y-80968810D01*
X139173047Y-81006905D01*
X138982571Y-81006905D01*
X140201619Y-81006905D02*
X139744476Y-81006905D01*
X139973047Y-81006905D02*
X139973047Y-80206905D01*
X139896857Y-80321190D01*
X139820666Y-80397381D01*
X139744476Y-80435476D01*
X140468286Y-80206905D02*
X140963524Y-80206905D01*
X140696857Y-80511667D01*
X140811143Y-80511667D01*
X140887333Y-80549762D01*
X140925429Y-80587857D01*
X140963524Y-80664048D01*
X140963524Y-80854524D01*
X140925429Y-80930714D01*
X140887333Y-80968810D01*
X140811143Y-81006905D01*
X140582571Y-81006905D01*
X140506381Y-80968810D01*
X140468286Y-80930714D01*
X136804477Y-80245000D02*
X136728286Y-80206905D01*
X136614001Y-80206905D01*
X136499715Y-80245000D01*
X136423524Y-80321190D01*
X136385429Y-80397381D01*
X136347334Y-80549762D01*
X136347334Y-80664048D01*
X136385429Y-80816429D01*
X136423524Y-80892619D01*
X136499715Y-80968810D01*
X136614001Y-81006905D01*
X136690191Y-81006905D01*
X136804477Y-80968810D01*
X136842572Y-80930714D01*
X136842572Y-80664048D01*
X136690191Y-80664048D01*
X137185429Y-81006905D02*
X137185429Y-80206905D01*
X137642572Y-81006905D01*
X137642572Y-80206905D01*
X138023524Y-81006905D02*
X138023524Y-80206905D01*
X138214000Y-80206905D01*
X138328286Y-80245000D01*
X138404477Y-80321190D01*
X138442572Y-80397381D01*
X138480667Y-80549762D01*
X138480667Y-80664048D01*
X138442572Y-80816429D01*
X138404477Y-80892619D01*
X138328286Y-80968810D01*
X138214000Y-81006905D01*
X138023524Y-81006905D01*
X133845904Y-80778333D02*
X134148285Y-80778333D01*
X133785428Y-81006905D02*
X133997095Y-80206905D01*
X134208762Y-81006905D01*
X134783286Y-81006905D02*
X134571619Y-80625952D01*
X134420428Y-81006905D02*
X134420428Y-80206905D01*
X134662333Y-80206905D01*
X134722809Y-80245000D01*
X134753048Y-80283095D01*
X134783286Y-80359286D01*
X134783286Y-80473571D01*
X134753048Y-80549762D01*
X134722809Y-80587857D01*
X134662333Y-80625952D01*
X134420428Y-80625952D01*
X135055428Y-80587857D02*
X135267095Y-80587857D01*
X135357809Y-81006905D02*
X135055428Y-81006905D01*
X135055428Y-80206905D01*
X135357809Y-80206905D01*
X135841619Y-80587857D02*
X135629952Y-80587857D01*
X135629952Y-81006905D02*
X135629952Y-80206905D01*
X135932333Y-80206905D01*
X131362571Y-81006905D02*
X131362571Y-80206905D01*
X131553047Y-80206905D01*
X131667333Y-80245000D01*
X131743524Y-80321190D01*
X131781619Y-80397381D01*
X131819714Y-80549762D01*
X131819714Y-80664048D01*
X131781619Y-80816429D01*
X131743524Y-80892619D01*
X131667333Y-80968810D01*
X131553047Y-81006905D01*
X131362571Y-81006905D01*
X132581619Y-81006905D02*
X132124476Y-81006905D01*
X132353047Y-81006905D02*
X132353047Y-80206905D01*
X132276857Y-80321190D01*
X132200666Y-80397381D01*
X132124476Y-80435476D01*
X133267333Y-80473571D02*
X133267333Y-81006905D01*
X133076857Y-80168810D02*
X132886381Y-80740238D01*
X133381619Y-80740238D01*
X129317810Y-82327714D02*
X129279715Y-82365810D01*
X129165429Y-82403905D01*
X129089239Y-82403905D01*
X128974953Y-82365810D01*
X128898762Y-82289619D01*
X128860667Y-82213429D01*
X128822572Y-82061048D01*
X128822572Y-81946762D01*
X128860667Y-81794381D01*
X128898762Y-81718190D01*
X128974953Y-81642000D01*
X129089239Y-81603905D01*
X129165429Y-81603905D01*
X129279715Y-81642000D01*
X129317810Y-81680095D01*
X130041620Y-82403905D02*
X129660667Y-82403905D01*
X129660667Y-81603905D01*
X130308286Y-82403905D02*
X130308286Y-81603905D01*
X130765429Y-82403905D02*
X130422572Y-81946762D01*
X130765429Y-81603905D02*
X130308286Y-82061048D01*
X128822571Y-81006905D02*
X128822571Y-80206905D01*
X129013047Y-80206905D01*
X129127333Y-80245000D01*
X129203524Y-80321190D01*
X129241619Y-80397381D01*
X129279714Y-80549762D01*
X129279714Y-80664048D01*
X129241619Y-80816429D01*
X129203524Y-80892619D01*
X129127333Y-80968810D01*
X129013047Y-81006905D01*
X128822571Y-81006905D01*
X130041619Y-81006905D02*
X129584476Y-81006905D01*
X129813047Y-81006905D02*
X129813047Y-80206905D01*
X129736857Y-80321190D01*
X129660666Y-80397381D01*
X129584476Y-80435476D01*
X130765429Y-80206905D02*
X130384476Y-80206905D01*
X130346381Y-80587857D01*
X130384476Y-80549762D01*
X130460667Y-80511667D01*
X130651143Y-80511667D01*
X130727333Y-80549762D01*
X130765429Y-80587857D01*
X130803524Y-80664048D01*
X130803524Y-80854524D01*
X130765429Y-80930714D01*
X130727333Y-80968810D01*
X130651143Y-81006905D01*
X130460667Y-81006905D01*
X130384476Y-80968810D01*
X130346381Y-80930714D01*
X173088904Y-117481333D02*
X173391285Y-117481333D01*
X173028428Y-117709905D02*
X173240095Y-116909905D01*
X173451762Y-117709905D01*
X174026286Y-117709905D02*
X173814619Y-117328952D01*
X173663428Y-117709905D02*
X173663428Y-116909905D01*
X173905333Y-116909905D01*
X173965809Y-116948000D01*
X173996048Y-116986095D01*
X174026286Y-117062286D01*
X174026286Y-117176571D01*
X173996048Y-117252762D01*
X173965809Y-117290857D01*
X173905333Y-117328952D01*
X173663428Y-117328952D01*
X174298428Y-117290857D02*
X174510095Y-117290857D01*
X174600809Y-117709905D02*
X174298428Y-117709905D01*
X174298428Y-116909905D01*
X174600809Y-116909905D01*
X175084619Y-117290857D02*
X174872952Y-117290857D01*
X174872952Y-117709905D02*
X174872952Y-116909905D01*
X175175333Y-116909905D01*
X170458190Y-117481333D02*
X170760571Y-117481333D01*
X170397714Y-117709905D02*
X170609381Y-116909905D01*
X170821048Y-117709905D01*
X171365334Y-116948000D02*
X171304857Y-116909905D01*
X171214143Y-116909905D01*
X171123429Y-116948000D01*
X171062953Y-117024190D01*
X171032714Y-117100381D01*
X171002476Y-117252762D01*
X171002476Y-117367048D01*
X171032714Y-117519429D01*
X171062953Y-117595619D01*
X171123429Y-117671810D01*
X171214143Y-117709905D01*
X171274619Y-117709905D01*
X171365334Y-117671810D01*
X171395572Y-117633714D01*
X171395572Y-117367048D01*
X171274619Y-117367048D01*
X171667714Y-117709905D02*
X171667714Y-116909905D01*
X172030572Y-117709905D01*
X172030572Y-116909905D01*
X172332952Y-117709905D02*
X172332952Y-116909905D01*
X172484143Y-116909905D01*
X172574857Y-116948000D01*
X172635333Y-117024190D01*
X172665572Y-117100381D01*
X172695810Y-117252762D01*
X172695810Y-117367048D01*
X172665572Y-117519429D01*
X172635333Y-117595619D01*
X172574857Y-117671810D01*
X172484143Y-117709905D01*
X172332952Y-117709905D01*
X168484667Y-117709905D02*
X168484667Y-116909905D01*
X168941810Y-117709905D01*
X168941810Y-116909905D01*
X169779905Y-117633714D02*
X169741810Y-117671810D01*
X169627524Y-117709905D01*
X169551334Y-117709905D01*
X169437048Y-117671810D01*
X169360857Y-117595619D01*
X169322762Y-117519429D01*
X169284667Y-117367048D01*
X169284667Y-117252762D01*
X169322762Y-117100381D01*
X169360857Y-117024190D01*
X169437048Y-116948000D01*
X169551334Y-116909905D01*
X169627524Y-116909905D01*
X169741810Y-116948000D01*
X169779905Y-116986095D01*
X166122429Y-117709905D02*
X166122429Y-116909905D01*
X166579572Y-117709905D01*
X166579572Y-116909905D01*
X167417667Y-117633714D02*
X167379572Y-117671810D01*
X167265286Y-117709905D01*
X167189096Y-117709905D01*
X167074810Y-117671810D01*
X166998619Y-117595619D01*
X166960524Y-117519429D01*
X166922429Y-117367048D01*
X166922429Y-117252762D01*
X166960524Y-117100381D01*
X166998619Y-117024190D01*
X167074810Y-116948000D01*
X167189096Y-116909905D01*
X167265286Y-116909905D01*
X167379572Y-116948000D01*
X167417667Y-116986095D01*
X163715810Y-117481333D02*
X164096762Y-117481333D01*
X163639619Y-117709905D02*
X163906286Y-116909905D01*
X164172953Y-117709905D01*
X164363429Y-116909905D02*
X164896762Y-116909905D01*
X164553905Y-117709905D01*
X173494810Y-118878333D02*
X173875762Y-118878333D01*
X173418619Y-119106905D02*
X173685286Y-118306905D01*
X173951953Y-119106905D01*
X174599572Y-118306905D02*
X174218619Y-118306905D01*
X174180524Y-118687857D01*
X174218619Y-118649762D01*
X174294810Y-118611667D01*
X174485286Y-118611667D01*
X174561476Y-118649762D01*
X174599572Y-118687857D01*
X174637667Y-118764048D01*
X174637667Y-118954524D01*
X174599572Y-119030714D01*
X174561476Y-119068810D01*
X174485286Y-119106905D01*
X174294810Y-119106905D01*
X174218619Y-119068810D01*
X174180524Y-119030714D01*
X170954810Y-118878333D02*
X171335762Y-118878333D01*
X170878619Y-119106905D02*
X171145286Y-118306905D01*
X171411953Y-119106905D01*
X172021476Y-118573571D02*
X172021476Y-119106905D01*
X171831000Y-118268810D02*
X171640524Y-118840238D01*
X172135762Y-118840238D01*
X168541810Y-118878333D02*
X168922762Y-118878333D01*
X168465619Y-119106905D02*
X168732286Y-118306905D01*
X168998953Y-119106905D01*
X169189429Y-118306905D02*
X169684667Y-118306905D01*
X169418000Y-118611667D01*
X169532286Y-118611667D01*
X169608476Y-118649762D01*
X169646572Y-118687857D01*
X169684667Y-118764048D01*
X169684667Y-118954524D01*
X169646572Y-119030714D01*
X169608476Y-119068810D01*
X169532286Y-119106905D01*
X169303714Y-119106905D01*
X169227524Y-119068810D01*
X169189429Y-119030714D01*
X166255810Y-118878333D02*
X166636762Y-118878333D01*
X166179619Y-119106905D02*
X166446286Y-118306905D01*
X166712953Y-119106905D01*
X166941524Y-118383095D02*
X166979619Y-118345000D01*
X167055810Y-118306905D01*
X167246286Y-118306905D01*
X167322476Y-118345000D01*
X167360572Y-118383095D01*
X167398667Y-118459286D01*
X167398667Y-118535476D01*
X167360572Y-118649762D01*
X166903429Y-119106905D01*
X167398667Y-119106905D01*
X163715810Y-118878333D02*
X164096762Y-118878333D01*
X163639619Y-119106905D02*
X163906286Y-118306905D01*
X164172953Y-119106905D01*
X164858667Y-119106905D02*
X164401524Y-119106905D01*
X164630095Y-119106905D02*
X164630095Y-118306905D01*
X164553905Y-118421190D01*
X164477714Y-118497381D01*
X164401524Y-118535476D01*
X161175810Y-117481333D02*
X161556762Y-117481333D01*
X161099619Y-117709905D02*
X161366286Y-116909905D01*
X161632953Y-117709905D01*
X162242476Y-116909905D02*
X162090095Y-116909905D01*
X162013905Y-116948000D01*
X161975810Y-116986095D01*
X161899619Y-117100381D01*
X161861524Y-117252762D01*
X161861524Y-117557524D01*
X161899619Y-117633714D01*
X161937714Y-117671810D01*
X162013905Y-117709905D01*
X162166286Y-117709905D01*
X162242476Y-117671810D01*
X162280572Y-117633714D01*
X162318667Y-117557524D01*
X162318667Y-117367048D01*
X162280572Y-117290857D01*
X162242476Y-117252762D01*
X162166286Y-117214667D01*
X162013905Y-117214667D01*
X161937714Y-117252762D01*
X161899619Y-117290857D01*
X161861524Y-117367048D01*
X161175810Y-118878333D02*
X161556762Y-118878333D01*
X161099619Y-119106905D02*
X161366286Y-118306905D01*
X161632953Y-119106905D01*
X162052000Y-118306905D02*
X162128191Y-118306905D01*
X162204381Y-118345000D01*
X162242476Y-118383095D01*
X162280572Y-118459286D01*
X162318667Y-118611667D01*
X162318667Y-118802143D01*
X162280572Y-118954524D01*
X162242476Y-119030714D01*
X162204381Y-119068810D01*
X162128191Y-119106905D01*
X162052000Y-119106905D01*
X161975810Y-119068810D01*
X161937714Y-119030714D01*
X161899619Y-118954524D01*
X161861524Y-118802143D01*
X161861524Y-118611667D01*
X161899619Y-118459286D01*
X161937714Y-118383095D01*
X161975810Y-118345000D01*
X162052000Y-118306905D01*
X156343429Y-117290857D02*
X156457715Y-117328952D01*
X156495810Y-117367048D01*
X156533905Y-117443238D01*
X156533905Y-117557524D01*
X156495810Y-117633714D01*
X156457715Y-117671810D01*
X156381524Y-117709905D01*
X156076762Y-117709905D01*
X156076762Y-116909905D01*
X156343429Y-116909905D01*
X156419619Y-116948000D01*
X156457715Y-116986095D01*
X156495810Y-117062286D01*
X156495810Y-117138476D01*
X156457715Y-117214667D01*
X156419619Y-117252762D01*
X156343429Y-117290857D01*
X156076762Y-117290857D01*
X157029143Y-116909905D02*
X157105334Y-116909905D01*
X157181524Y-116948000D01*
X157219619Y-116986095D01*
X157257715Y-117062286D01*
X157295810Y-117214667D01*
X157295810Y-117405143D01*
X157257715Y-117557524D01*
X157219619Y-117633714D01*
X157181524Y-117671810D01*
X157105334Y-117709905D01*
X157029143Y-117709905D01*
X156952953Y-117671810D01*
X156914857Y-117633714D01*
X156876762Y-117557524D01*
X156838667Y-117405143D01*
X156838667Y-117214667D01*
X156876762Y-117062286D01*
X156914857Y-116986095D01*
X156952953Y-116948000D01*
X157029143Y-116909905D01*
X153803429Y-117290857D02*
X153917715Y-117328952D01*
X153955810Y-117367048D01*
X153993905Y-117443238D01*
X153993905Y-117557524D01*
X153955810Y-117633714D01*
X153917715Y-117671810D01*
X153841524Y-117709905D01*
X153536762Y-117709905D01*
X153536762Y-116909905D01*
X153803429Y-116909905D01*
X153879619Y-116948000D01*
X153917715Y-116986095D01*
X153955810Y-117062286D01*
X153955810Y-117138476D01*
X153917715Y-117214667D01*
X153879619Y-117252762D01*
X153803429Y-117290857D01*
X153536762Y-117290857D01*
X154755810Y-117709905D02*
X154298667Y-117709905D01*
X154527238Y-117709905D02*
X154527238Y-116909905D01*
X154451048Y-117024190D01*
X154374857Y-117100381D01*
X154298667Y-117138476D01*
X151263429Y-117290857D02*
X151377715Y-117328952D01*
X151415810Y-117367048D01*
X151453905Y-117443238D01*
X151453905Y-117557524D01*
X151415810Y-117633714D01*
X151377715Y-117671810D01*
X151301524Y-117709905D01*
X150996762Y-117709905D01*
X150996762Y-116909905D01*
X151263429Y-116909905D01*
X151339619Y-116948000D01*
X151377715Y-116986095D01*
X151415810Y-117062286D01*
X151415810Y-117138476D01*
X151377715Y-117214667D01*
X151339619Y-117252762D01*
X151263429Y-117290857D01*
X150996762Y-117290857D01*
X151758667Y-116986095D02*
X151796762Y-116948000D01*
X151872953Y-116909905D01*
X152063429Y-116909905D01*
X152139619Y-116948000D01*
X152177715Y-116986095D01*
X152215810Y-117062286D01*
X152215810Y-117138476D01*
X152177715Y-117252762D01*
X151720572Y-117709905D01*
X152215810Y-117709905D01*
X148723429Y-117290857D02*
X148837715Y-117328952D01*
X148875810Y-117367048D01*
X148913905Y-117443238D01*
X148913905Y-117557524D01*
X148875810Y-117633714D01*
X148837715Y-117671810D01*
X148761524Y-117709905D01*
X148456762Y-117709905D01*
X148456762Y-116909905D01*
X148723429Y-116909905D01*
X148799619Y-116948000D01*
X148837715Y-116986095D01*
X148875810Y-117062286D01*
X148875810Y-117138476D01*
X148837715Y-117214667D01*
X148799619Y-117252762D01*
X148723429Y-117290857D01*
X148456762Y-117290857D01*
X149180572Y-116909905D02*
X149675810Y-116909905D01*
X149409143Y-117214667D01*
X149523429Y-117214667D01*
X149599619Y-117252762D01*
X149637715Y-117290857D01*
X149675810Y-117367048D01*
X149675810Y-117557524D01*
X149637715Y-117633714D01*
X149599619Y-117671810D01*
X149523429Y-117709905D01*
X149294857Y-117709905D01*
X149218667Y-117671810D01*
X149180572Y-117633714D01*
X146183429Y-117290857D02*
X146297715Y-117328952D01*
X146335810Y-117367048D01*
X146373905Y-117443238D01*
X146373905Y-117557524D01*
X146335810Y-117633714D01*
X146297715Y-117671810D01*
X146221524Y-117709905D01*
X145916762Y-117709905D01*
X145916762Y-116909905D01*
X146183429Y-116909905D01*
X146259619Y-116948000D01*
X146297715Y-116986095D01*
X146335810Y-117062286D01*
X146335810Y-117138476D01*
X146297715Y-117214667D01*
X146259619Y-117252762D01*
X146183429Y-117290857D01*
X145916762Y-117290857D01*
X147059619Y-117176571D02*
X147059619Y-117709905D01*
X146869143Y-116871810D02*
X146678667Y-117443238D01*
X147173905Y-117443238D01*
X143643429Y-117290857D02*
X143757715Y-117328952D01*
X143795810Y-117367048D01*
X143833905Y-117443238D01*
X143833905Y-117557524D01*
X143795810Y-117633714D01*
X143757715Y-117671810D01*
X143681524Y-117709905D01*
X143376762Y-117709905D01*
X143376762Y-116909905D01*
X143643429Y-116909905D01*
X143719619Y-116948000D01*
X143757715Y-116986095D01*
X143795810Y-117062286D01*
X143795810Y-117138476D01*
X143757715Y-117214667D01*
X143719619Y-117252762D01*
X143643429Y-117290857D01*
X143376762Y-117290857D01*
X144557715Y-116909905D02*
X144176762Y-116909905D01*
X144138667Y-117290857D01*
X144176762Y-117252762D01*
X144252953Y-117214667D01*
X144443429Y-117214667D01*
X144519619Y-117252762D01*
X144557715Y-117290857D01*
X144595810Y-117367048D01*
X144595810Y-117557524D01*
X144557715Y-117633714D01*
X144519619Y-117671810D01*
X144443429Y-117709905D01*
X144252953Y-117709905D01*
X144176762Y-117671810D01*
X144138667Y-117633714D01*
X141103429Y-117290857D02*
X141217715Y-117328952D01*
X141255810Y-117367048D01*
X141293905Y-117443238D01*
X141293905Y-117557524D01*
X141255810Y-117633714D01*
X141217715Y-117671810D01*
X141141524Y-117709905D01*
X140836762Y-117709905D01*
X140836762Y-116909905D01*
X141103429Y-116909905D01*
X141179619Y-116948000D01*
X141217715Y-116986095D01*
X141255810Y-117062286D01*
X141255810Y-117138476D01*
X141217715Y-117214667D01*
X141179619Y-117252762D01*
X141103429Y-117290857D01*
X140836762Y-117290857D01*
X141979619Y-116909905D02*
X141827238Y-116909905D01*
X141751048Y-116948000D01*
X141712953Y-116986095D01*
X141636762Y-117100381D01*
X141598667Y-117252762D01*
X141598667Y-117557524D01*
X141636762Y-117633714D01*
X141674857Y-117671810D01*
X141751048Y-117709905D01*
X141903429Y-117709905D01*
X141979619Y-117671810D01*
X142017715Y-117633714D01*
X142055810Y-117557524D01*
X142055810Y-117367048D01*
X142017715Y-117290857D01*
X141979619Y-117252762D01*
X141903429Y-117214667D01*
X141751048Y-117214667D01*
X141674857Y-117252762D01*
X141636762Y-117290857D01*
X141598667Y-117367048D01*
X138563429Y-117290857D02*
X138677715Y-117328952D01*
X138715810Y-117367048D01*
X138753905Y-117443238D01*
X138753905Y-117557524D01*
X138715810Y-117633714D01*
X138677715Y-117671810D01*
X138601524Y-117709905D01*
X138296762Y-117709905D01*
X138296762Y-116909905D01*
X138563429Y-116909905D01*
X138639619Y-116948000D01*
X138677715Y-116986095D01*
X138715810Y-117062286D01*
X138715810Y-117138476D01*
X138677715Y-117214667D01*
X138639619Y-117252762D01*
X138563429Y-117290857D01*
X138296762Y-117290857D01*
X139020572Y-116909905D02*
X139553905Y-116909905D01*
X139211048Y-117709905D01*
X138258667Y-119106905D02*
X138258667Y-118306905D01*
X138715810Y-119106905D01*
X138715810Y-118306905D01*
X139553905Y-119030714D02*
X139515810Y-119068810D01*
X139401524Y-119106905D01*
X139325334Y-119106905D01*
X139211048Y-119068810D01*
X139134857Y-118992619D01*
X139096762Y-118916429D01*
X139058667Y-118764048D01*
X139058667Y-118649762D01*
X139096762Y-118497381D01*
X139134857Y-118421190D01*
X139211048Y-118345000D01*
X139325334Y-118306905D01*
X139401524Y-118306905D01*
X139515810Y-118345000D01*
X139553905Y-118383095D01*
X155841810Y-118306905D02*
X156108477Y-119106905D01*
X156375144Y-118306905D01*
X156641810Y-119106905D02*
X156641810Y-118306905D01*
X157022762Y-119106905D02*
X157022762Y-118306905D01*
X157479905Y-119106905D01*
X157479905Y-118306905D01*
X153568477Y-118345000D02*
X153492286Y-118306905D01*
X153378001Y-118306905D01*
X153263715Y-118345000D01*
X153187524Y-118421190D01*
X153149429Y-118497381D01*
X153111334Y-118649762D01*
X153111334Y-118764048D01*
X153149429Y-118916429D01*
X153187524Y-118992619D01*
X153263715Y-119068810D01*
X153378001Y-119106905D01*
X153454191Y-119106905D01*
X153568477Y-119068810D01*
X153606572Y-119030714D01*
X153606572Y-118764048D01*
X153454191Y-118764048D01*
X153949429Y-119106905D02*
X153949429Y-118306905D01*
X154406572Y-119106905D01*
X154406572Y-118306905D01*
X154787524Y-119106905D02*
X154787524Y-118306905D01*
X154978000Y-118306905D01*
X155092286Y-118345000D01*
X155168477Y-118421190D01*
X155206572Y-118497381D01*
X155244667Y-118649762D01*
X155244667Y-118764048D01*
X155206572Y-118916429D01*
X155168477Y-118992619D01*
X155092286Y-119068810D01*
X154978000Y-119106905D01*
X154787524Y-119106905D01*
X151028477Y-118345000D02*
X150952286Y-118306905D01*
X150838001Y-118306905D01*
X150723715Y-118345000D01*
X150647524Y-118421190D01*
X150609429Y-118497381D01*
X150571334Y-118649762D01*
X150571334Y-118764048D01*
X150609429Y-118916429D01*
X150647524Y-118992619D01*
X150723715Y-119068810D01*
X150838001Y-119106905D01*
X150914191Y-119106905D01*
X151028477Y-119068810D01*
X151066572Y-119030714D01*
X151066572Y-118764048D01*
X150914191Y-118764048D01*
X151409429Y-119106905D02*
X151409429Y-118306905D01*
X151866572Y-119106905D01*
X151866572Y-118306905D01*
X152247524Y-119106905D02*
X152247524Y-118306905D01*
X152438000Y-118306905D01*
X152552286Y-118345000D01*
X152628477Y-118421190D01*
X152666572Y-118497381D01*
X152704667Y-118649762D01*
X152704667Y-118764048D01*
X152666572Y-118916429D01*
X152628477Y-118992619D01*
X152552286Y-119068810D01*
X152438000Y-119106905D01*
X152247524Y-119106905D01*
X148894858Y-118306905D02*
X148513905Y-118306905D01*
X148475810Y-118687857D01*
X148513905Y-118649762D01*
X148590096Y-118611667D01*
X148780572Y-118611667D01*
X148856762Y-118649762D01*
X148894858Y-118687857D01*
X148932953Y-118764048D01*
X148932953Y-118954524D01*
X148894858Y-119030714D01*
X148856762Y-119068810D01*
X148780572Y-119106905D01*
X148590096Y-119106905D01*
X148513905Y-119068810D01*
X148475810Y-119030714D01*
X149161524Y-118306905D02*
X149428191Y-119106905D01*
X149694858Y-118306905D01*
X145567524Y-118306905D02*
X146062762Y-118306905D01*
X145796095Y-118611667D01*
X145910381Y-118611667D01*
X145986571Y-118649762D01*
X146024667Y-118687857D01*
X146062762Y-118764048D01*
X146062762Y-118954524D01*
X146024667Y-119030714D01*
X145986571Y-119068810D01*
X145910381Y-119106905D01*
X145681809Y-119106905D01*
X145605619Y-119068810D01*
X145567524Y-119030714D01*
X146291333Y-118306905D02*
X146558000Y-119106905D01*
X146824667Y-118306905D01*
X147015143Y-118306905D02*
X147510381Y-118306905D01*
X147243714Y-118611667D01*
X147358000Y-118611667D01*
X147434190Y-118649762D01*
X147472286Y-118687857D01*
X147510381Y-118764048D01*
X147510381Y-118954524D01*
X147472286Y-119030714D01*
X147434190Y-119068810D01*
X147358000Y-119106905D01*
X147129428Y-119106905D01*
X147053238Y-119068810D01*
X147015143Y-119030714D01*
X143579905Y-119106905D02*
X143313238Y-118725952D01*
X143122762Y-119106905D02*
X143122762Y-118306905D01*
X143427524Y-118306905D01*
X143503715Y-118345000D01*
X143541810Y-118383095D01*
X143579905Y-118459286D01*
X143579905Y-118573571D01*
X143541810Y-118649762D01*
X143503715Y-118687857D01*
X143427524Y-118725952D01*
X143122762Y-118725952D01*
X143884667Y-119068810D02*
X143998953Y-119106905D01*
X144189429Y-119106905D01*
X144265619Y-119068810D01*
X144303715Y-119030714D01*
X144341810Y-118954524D01*
X144341810Y-118878333D01*
X144303715Y-118802143D01*
X144265619Y-118764048D01*
X144189429Y-118725952D01*
X144037048Y-118687857D01*
X143960857Y-118649762D01*
X143922762Y-118611667D01*
X143884667Y-118535476D01*
X143884667Y-118459286D01*
X143922762Y-118383095D01*
X143960857Y-118345000D01*
X144037048Y-118306905D01*
X144227524Y-118306905D01*
X144341810Y-118345000D01*
X144570381Y-118306905D02*
X145027524Y-118306905D01*
X144798953Y-119106905D02*
X144798953Y-118306905D01*
X140601810Y-118306905D02*
X140868477Y-119106905D01*
X141135144Y-118306905D01*
X141401810Y-119106905D02*
X141401810Y-118306905D01*
X141935143Y-118306905D02*
X142087524Y-118306905D01*
X142163715Y-118345000D01*
X142239905Y-118421190D01*
X142278000Y-118573571D01*
X142278000Y-118840238D01*
X142239905Y-118992619D01*
X142163715Y-119068810D01*
X142087524Y-119106905D01*
X141935143Y-119106905D01*
X141858953Y-119068810D01*
X141782762Y-118992619D01*
X141744667Y-118840238D01*
X141744667Y-118573571D01*
X141782762Y-118421190D01*
X141858953Y-118345000D01*
X141935143Y-118306905D01*
X177038000Y-74549000D02*
X175514000Y-73025000D01*
X177038000Y-85979000D02*
X177038000Y-74549000D01*
X179578000Y-88519000D02*
X177038000Y-85979000D01*
X179578000Y-121285000D02*
X179578000Y-88519000D01*
X177038000Y-123825000D02*
X179578000Y-121285000D01*
X177038000Y-126365000D02*
X177038000Y-123825000D01*
X110998000Y-126365000D02*
X177038000Y-126365000D01*
X110998000Y-73025000D02*
X110998000Y-126365000D01*
X175514000Y-73025000D02*
X110998000Y-73025000D01*
D13*
X175133000Y-122555000D02*
X161163000Y-122555000D01*
X161163000Y-120015000D02*
X175133000Y-120015000D01*
X160528000Y-120650000D02*
X161163000Y-120015000D01*
X175133000Y-120015000D02*
X175768000Y-120650000D01*
X175768000Y-120650000D02*
X175768000Y-121920000D01*
X175768000Y-121920000D02*
X175133000Y-122555000D01*
X161163000Y-122555000D02*
X160528000Y-121920000D01*
X160528000Y-121920000D02*
X160528000Y-120650000D01*
D11*
X115472160Y-106029760D02*
X115423900Y-106029760D01*
X112673180Y-106730800D02*
X112673180Y-106029760D01*
X112673180Y-106029760D02*
X112922100Y-106029760D01*
X115472160Y-106029760D02*
X115672820Y-106029760D01*
X115672820Y-106029760D02*
X115672820Y-106730800D01*
X119148000Y-101835000D02*
G75*
G03X119148000Y-101835000I-100000J0D01*
G01*
X118798000Y-102485000D02*
X118798000Y-101985000D01*
X115898000Y-102485000D02*
X118798000Y-102485000D01*
X115898000Y-101985000D02*
X115898000Y-102485000D01*
X118798000Y-101985000D02*
X115898000Y-101985000D01*
X130578000Y-114535000D02*
G75*
G03X130578000Y-114535000I-100000J0D01*
G01*
X130228000Y-115185000D02*
X130228000Y-114685000D01*
X127328000Y-115185000D02*
X130228000Y-115185000D01*
X127328000Y-114685000D02*
X127328000Y-115185000D01*
X130228000Y-114685000D02*
X127328000Y-114685000D01*
X171483000Y-95635000D02*
X171483000Y-96135000D01*
X172433000Y-96135000D02*
X172433000Y-95635000D01*
X139188000Y-106205000D02*
X138688000Y-106205000D01*
X138688000Y-107155000D02*
X139188000Y-107155000D01*
X142498000Y-99535000D02*
X142998000Y-99535000D01*
X142998000Y-98585000D02*
X142498000Y-98585000D01*
X171483000Y-105795000D02*
X171483000Y-106295000D01*
X172433000Y-106295000D02*
X172433000Y-105795000D01*
X172433000Y-101215000D02*
X172433000Y-100715000D01*
X171483000Y-100715000D02*
X171483000Y-101215000D01*
X158783000Y-112145000D02*
X158783000Y-112645000D01*
X159733000Y-112645000D02*
X159733000Y-112145000D01*
X139188000Y-104300000D02*
X138688000Y-104300000D01*
X138688000Y-105250000D02*
X139188000Y-105250000D01*
X142998000Y-102395000D02*
X142498000Y-102395000D01*
X142498000Y-103345000D02*
X142998000Y-103345000D01*
X142998000Y-100490000D02*
X142498000Y-100490000D01*
X142498000Y-101440000D02*
X142998000Y-101440000D01*
X125988000Y-95090000D02*
X126488000Y-95090000D01*
X126488000Y-94140000D02*
X125988000Y-94140000D01*
X123448000Y-95090000D02*
X123948000Y-95090000D01*
X123948000Y-94140000D02*
X123448000Y-94140000D01*
X113788000Y-103030000D02*
X113288000Y-103030000D01*
X113288000Y-103980000D02*
X113788000Y-103980000D01*
X117098000Y-98900000D02*
X117598000Y-98900000D01*
X117598000Y-97950000D02*
X117098000Y-97950000D01*
X113288000Y-101440000D02*
X113788000Y-101440000D01*
X113788000Y-100490000D02*
X113288000Y-100490000D01*
X125218000Y-115730000D02*
X124718000Y-115730000D01*
X124718000Y-116680000D02*
X125218000Y-116680000D01*
X173478000Y-115603000D02*
X172978000Y-115603000D01*
X172978000Y-116553000D02*
X173478000Y-116553000D01*
X124718000Y-111600000D02*
X125218000Y-111600000D01*
X125218000Y-110650000D02*
X124718000Y-110650000D01*
X124718000Y-114140000D02*
X125218000Y-114140000D01*
X125218000Y-113190000D02*
X124718000Y-113190000D01*
X148303000Y-115185000D02*
X148303000Y-114685000D01*
X147353000Y-114685000D02*
X147353000Y-115185000D01*
X147033000Y-115185000D02*
X147033000Y-114685000D01*
X146083000Y-114685000D02*
X146083000Y-115185000D01*
X150843000Y-115185000D02*
X150843000Y-114685000D01*
X149893000Y-114685000D02*
X149893000Y-115185000D01*
X154653000Y-115185000D02*
X154653000Y-114685000D01*
X153703000Y-114685000D02*
X153703000Y-115185000D01*
X157193000Y-115185000D02*
X157193000Y-114685000D01*
X156243000Y-114685000D02*
X156243000Y-115185000D01*
X158463000Y-115185000D02*
X158463000Y-114685000D01*
X157513000Y-114685000D02*
X157513000Y-115185000D01*
X159733000Y-115185000D02*
X159733000Y-114685000D01*
X158783000Y-114685000D02*
X158783000Y-115185000D01*
X134243000Y-105250000D02*
X134743000Y-105250000D01*
X134743000Y-104300000D02*
X134243000Y-104300000D01*
X130433000Y-105250000D02*
X130933000Y-105250000D01*
X130933000Y-104300000D02*
X130433000Y-104300000D01*
X125988000Y-93185000D02*
X126488000Y-93185000D01*
X126488000Y-92235000D02*
X125988000Y-92235000D01*
X149573000Y-115185000D02*
X149573000Y-114685000D01*
X148623000Y-114685000D02*
X148623000Y-115185000D01*
X152113000Y-115185000D02*
X152113000Y-114685000D01*
X151163000Y-114685000D02*
X151163000Y-115185000D01*
X155923000Y-115185000D02*
X155923000Y-114685000D01*
X154973000Y-114685000D02*
X154973000Y-115185000D01*
X171163000Y-96135000D02*
X171163000Y-95635000D01*
X170213000Y-95635000D02*
X170213000Y-96135000D01*
X172433000Y-98675000D02*
X172433000Y-98175000D01*
X171483000Y-98175000D02*
X171483000Y-98675000D01*
X171163000Y-101215000D02*
X171163000Y-100715000D01*
X170213000Y-100715000D02*
X170213000Y-101215000D01*
X172433000Y-103755000D02*
X172433000Y-103255000D01*
X171483000Y-103255000D02*
X171483000Y-103755000D01*
X123448000Y-82390000D02*
X123948000Y-82390000D01*
X123948000Y-81440000D02*
X123448000Y-81440000D01*
X126488000Y-81440000D02*
X125988000Y-81440000D01*
X125988000Y-82390000D02*
X126488000Y-82390000D01*
X125988000Y-98900000D02*
X126488000Y-98900000D01*
X126488000Y-97950000D02*
X125988000Y-97950000D01*
X132838000Y-110650000D02*
X132338000Y-110650000D01*
X132338000Y-111600000D02*
X132838000Y-111600000D01*
X136013000Y-110650000D02*
X135513000Y-110650000D01*
X135513000Y-111600000D02*
X136013000Y-111600000D01*
X126488000Y-83345000D02*
X125988000Y-83345000D01*
X125988000Y-84295000D02*
X126488000Y-84295000D01*
X123448000Y-98900000D02*
X123948000Y-98900000D01*
X123948000Y-97950000D02*
X123448000Y-97950000D01*
D12*
X171958000Y-86360000D02*
X171831000Y-85090000D01*
X171831000Y-85090000D02*
X171958000Y-84963000D01*
X171958000Y-84963000D02*
X172085000Y-85090000D01*
X172085000Y-85090000D02*
X171958000Y-86360000D01*
X172085000Y-86995000D02*
G75*
G03X172085000Y-86995000I-127000J0D01*
G01*
X171958000Y-85090000D02*
X171958000Y-86360000D01*
X171958000Y-83820000D02*
X169418000Y-87630000D01*
X169418000Y-87630000D02*
X174498000Y-87630000D01*
X174498000Y-87630000D02*
X171958000Y-83820000D01*
D11*
X104267000Y-82169000D02*
X112458500Y-82169000D01*
X104267000Y-94361000D02*
X112458500Y-94361000D01*
X121285000Y-82169000D02*
X116649500Y-82169000D01*
X121285000Y-94361000D02*
X116649500Y-94361000D01*
X104266000Y-94361000D02*
X104266000Y-82169000D01*
X121284000Y-82169000D02*
X121284000Y-94361000D01*
X120523000Y-98175000D02*
X120523000Y-97925000D01*
X120523000Y-98675000D02*
X120523000Y-98925000D01*
X120523000Y-98675000D02*
X120173000Y-98175000D01*
X120173000Y-98175000D02*
X120873000Y-98175000D01*
X120873000Y-98175000D02*
X120523000Y-98675000D01*
X120173000Y-98675000D02*
X120873000Y-98675000D01*
X121323000Y-99725000D02*
X121323000Y-97325000D01*
X119723000Y-99725000D02*
X119723000Y-97325000D01*
X115125500Y-111125000D02*
X115506500Y-111125000D01*
X114109500Y-111125000D02*
X114490500Y-111125000D01*
X114490500Y-111125000D02*
X115125500Y-110744000D01*
X115125500Y-110744000D02*
X115125500Y-111506000D01*
X115125500Y-111506000D02*
X114490500Y-111125000D01*
X114490500Y-110617000D02*
X114490500Y-111633000D01*
X112808000Y-112025000D02*
X116348000Y-112025000D01*
X112808000Y-110225000D02*
X116348000Y-110225000D01*
D13*
X175133000Y-125095000D02*
X161163000Y-125095000D01*
X161163000Y-122555000D02*
X175133000Y-122555000D01*
X160528000Y-123190000D02*
X161163000Y-122555000D01*
X175133000Y-122555000D02*
X175768000Y-123190000D01*
X175768000Y-123190000D02*
X175768000Y-124460000D01*
X175768000Y-124460000D02*
X175133000Y-125095000D01*
X161163000Y-125095000D02*
X160528000Y-124460000D01*
X160528000Y-124460000D02*
X160528000Y-123190000D01*
X157353000Y-125095000D02*
X138303000Y-125095000D01*
X138303000Y-122555000D02*
X157353000Y-122555000D01*
X137668000Y-123190000D02*
X138303000Y-122555000D01*
X157353000Y-122555000D02*
X157988000Y-123190000D01*
X157988000Y-123190000D02*
X157988000Y-124460000D01*
X157988000Y-124460000D02*
X157353000Y-125095000D01*
X138303000Y-125095000D02*
X137668000Y-124460000D01*
X137668000Y-124460000D02*
X137668000Y-123190000D01*
X175133000Y-76835000D02*
X156083000Y-76835000D01*
X156083000Y-74295000D02*
X175133000Y-74295000D01*
X155448000Y-74930000D02*
X156083000Y-74295000D01*
X175133000Y-74295000D02*
X175768000Y-74930000D01*
X175768000Y-74930000D02*
X175768000Y-76200000D01*
X175768000Y-76200000D02*
X175133000Y-76835000D01*
X156083000Y-76835000D02*
X155448000Y-76200000D01*
X155448000Y-76200000D02*
X155448000Y-74930000D01*
X157353000Y-122555000D02*
X138303000Y-122555000D01*
X138303000Y-120015000D02*
X157353000Y-120015000D01*
X137668000Y-120650000D02*
X138303000Y-120015000D01*
X157353000Y-120015000D02*
X157988000Y-120650000D01*
X157988000Y-120650000D02*
X157988000Y-121920000D01*
X157988000Y-121920000D02*
X157353000Y-122555000D01*
X138303000Y-122555000D02*
X137668000Y-121920000D01*
X137668000Y-121920000D02*
X137668000Y-120650000D01*
X175133000Y-79375000D02*
X156083000Y-79375000D01*
X156083000Y-76835000D02*
X175133000Y-76835000D01*
X155448000Y-77470000D02*
X156083000Y-76835000D01*
X175133000Y-76835000D02*
X175768000Y-77470000D01*
X175768000Y-77470000D02*
X175768000Y-78740000D01*
X175768000Y-78740000D02*
X175133000Y-79375000D01*
X156083000Y-79375000D02*
X155448000Y-78740000D01*
X155448000Y-78740000D02*
X155448000Y-77470000D01*
X153289000Y-76835000D02*
X129159000Y-76835000D01*
X129159000Y-74295000D02*
X153289000Y-74295000D01*
X128524000Y-74930000D02*
X129159000Y-74295000D01*
X153289000Y-74295000D02*
X153924000Y-74930000D01*
X153924000Y-74930000D02*
X153924000Y-76200000D01*
X153924000Y-76200000D02*
X153289000Y-76835000D01*
X129159000Y-76835000D02*
X128524000Y-76200000D01*
X128524000Y-76200000D02*
X128524000Y-74930000D01*
X153289000Y-79375000D02*
X129159000Y-79375000D01*
X129159000Y-76835000D02*
X153289000Y-76835000D01*
X128524000Y-77470000D02*
X129159000Y-76835000D01*
X153289000Y-76835000D02*
X153924000Y-77470000D01*
X153924000Y-77470000D02*
X153924000Y-78740000D01*
X153924000Y-78740000D02*
X153289000Y-79375000D01*
X129159000Y-79375000D02*
X128524000Y-78740000D01*
X128524000Y-78740000D02*
X128524000Y-77470000D01*
D11*
X121808000Y-123245000D02*
X120608000Y-123245000D01*
X107308000Y-123245000D02*
X110808000Y-123245000D01*
X110808000Y-123245000D02*
X115408000Y-123245000D01*
X121808000Y-123245000D02*
X121808000Y-120945000D01*
X121808000Y-114245000D02*
X121808000Y-116545000D01*
X110807500Y-114244120D02*
X110807500Y-123245880D01*
X107307380Y-114244120D02*
X107307380Y-123245880D01*
X121808240Y-114244120D02*
X107307380Y-114244120D01*
X109720540Y-83914100D02*
X109720540Y-92614100D01*
X116125540Y-83914100D02*
X116125540Y-92614100D01*
X116125540Y-92614100D02*
X109720540Y-92614100D01*
X110950540Y-92614100D02*
X110950540Y-83914100D01*
X109720540Y-83914100D02*
X116125540Y-83914100D01*
X170213000Y-98175000D02*
X170213000Y-98675000D01*
X171163000Y-98675000D02*
X171163000Y-98175000D01*
X113788000Y-97950000D02*
X113288000Y-97950000D01*
X113288000Y-98900000D02*
X113788000Y-98900000D01*
X121475500Y-111125000D02*
X121856500Y-111125000D01*
X120459500Y-111125000D02*
X120840500Y-111125000D01*
X120840500Y-111125000D02*
X121475500Y-110744000D01*
X121475500Y-110744000D02*
X121475500Y-111506000D01*
X121475500Y-111506000D02*
X120840500Y-111125000D01*
X120840500Y-110617000D02*
X120840500Y-111633000D01*
X119158000Y-112025000D02*
X122698000Y-112025000D01*
X119158000Y-110225000D02*
X122698000Y-110225000D01*
X176613000Y-115150000D02*
X176613000Y-114850000D01*
X171113000Y-115150000D02*
X171113000Y-114850000D01*
X171113000Y-109640000D02*
X171113000Y-109940000D01*
X176613000Y-109640000D02*
X176613000Y-109940000D01*
X176613000Y-115150000D02*
X171113000Y-115150000D01*
X176613000Y-109640000D02*
X171113000Y-109640000D01*
X176613000Y-114850000D02*
X178363000Y-114850000D01*
X130618000Y-83360000D02*
X130618000Y-83712500D01*
X138368000Y-83360000D02*
X138368000Y-83712500D01*
X138368000Y-102060000D02*
X138368000Y-101707500D01*
X130618000Y-102060000D02*
X130618000Y-101707500D01*
X130618000Y-83360000D02*
X138368000Y-83360000D01*
X130618000Y-102060000D02*
X138368000Y-102060000D01*
X130618000Y-83712500D02*
X129193000Y-83712500D01*
X134913000Y-109575000D02*
X134913000Y-109375000D01*
X130263000Y-109575000D02*
X130263000Y-109375000D01*
X130263000Y-106325000D02*
X130263000Y-106525000D01*
X134913000Y-106325000D02*
X134913000Y-106525000D01*
X134913000Y-109575000D02*
X130263000Y-109575000D01*
X134913000Y-106325000D02*
X130263000Y-106325000D01*
X134913000Y-109375000D02*
X136263000Y-109375000D01*
X119098714Y-76835000D02*
G75*
G03X119098714Y-76835000I-1750714J0D01*
G01*
X120573000Y-73610000D02*
X120573000Y-73735000D01*
X120573000Y-80060000D02*
X120573000Y-79935000D01*
X114123000Y-80060000D02*
X114123000Y-79935000D01*
X114123000Y-73735000D02*
X114123000Y-73610000D01*
X120573000Y-75435000D02*
X120573000Y-78235000D01*
X114123000Y-73610000D02*
X120573000Y-73610000D01*
X114123000Y-75435000D02*
X114123000Y-78235000D01*
X114123000Y-80060000D02*
X120573000Y-80060000D01*
X178435000Y-94615000D02*
X178435000Y-107315000D01*
X178435000Y-107315000D02*
X173355000Y-107315000D01*
X173355000Y-107315000D02*
X173355000Y-97155000D01*
X178435000Y-94615000D02*
X175895000Y-94615000D01*
X174625000Y-94335000D02*
X173075000Y-94335000D01*
X175895000Y-94615000D02*
X175895000Y-97155000D01*
X175895000Y-97155000D02*
X173355000Y-97155000D01*
X173075000Y-94335000D02*
X173075000Y-95885000D01*
X133858000Y-118872000D02*
X135636000Y-118872000D01*
X135636000Y-118872000D02*
X136271000Y-119507000D01*
X136271000Y-119507000D02*
X136271000Y-123063000D01*
X136271000Y-123063000D02*
X135636000Y-123698000D01*
X135636000Y-123698000D02*
X132080000Y-123698000D01*
X132080000Y-123698000D02*
X131445000Y-123063000D01*
X131445000Y-123063000D02*
X131445000Y-119507000D01*
X131445000Y-119507000D02*
X132080000Y-118872000D01*
X132080000Y-118872000D02*
X133858000Y-118872000D01*
X124968000Y-101092000D02*
X126746000Y-101092000D01*
X126746000Y-101092000D02*
X127381000Y-101727000D01*
X127381000Y-101727000D02*
X127381000Y-105283000D01*
X127381000Y-105283000D02*
X126746000Y-105918000D01*
X126746000Y-105918000D02*
X123190000Y-105918000D01*
X123190000Y-105918000D02*
X122555000Y-105283000D01*
X122555000Y-105283000D02*
X122555000Y-101727000D01*
X122555000Y-101727000D02*
X123190000Y-101092000D01*
X123190000Y-101092000D02*
X124968000Y-101092000D01*
X123198000Y-83145000D02*
X124198000Y-83145000D01*
X124198000Y-84495000D02*
X123198000Y-84495000D01*
X136013000Y-113665000D02*
X136263000Y-113665000D01*
X135513000Y-113665000D02*
X135263000Y-113665000D01*
X135513000Y-113665000D02*
X136013000Y-113315000D01*
X136013000Y-113315000D02*
X136013000Y-114015000D01*
X136013000Y-114015000D02*
X135513000Y-113665000D01*
X135513000Y-113315000D02*
X135513000Y-114015000D01*
X134463000Y-114465000D02*
X136863000Y-114465000D01*
X134463000Y-112865000D02*
X136863000Y-112865000D01*
X129413000Y-122237500D02*
X129413000Y-122618500D01*
X129413000Y-121221500D02*
X129413000Y-121602500D01*
X129413000Y-121602500D02*
X129794000Y-122237500D01*
X129794000Y-122237500D02*
X129032000Y-122237500D01*
X129032000Y-122237500D02*
X129413000Y-121602500D01*
X129921000Y-121602500D02*
X128905000Y-121602500D01*
X128513000Y-119920000D02*
X128513000Y-123460000D01*
X130313000Y-119920000D02*
X130313000Y-123460000D01*
X125988000Y-81120000D02*
X126488000Y-81120000D01*
X126488000Y-80170000D02*
X125988000Y-80170000D01*
X154653000Y-112645000D02*
X154653000Y-112145000D01*
X153703000Y-112145000D02*
X153703000Y-112645000D01*
X150843000Y-112645000D02*
X150843000Y-112145000D01*
X149893000Y-112145000D02*
X149893000Y-112645000D01*
X148303000Y-112645000D02*
X148303000Y-112145000D01*
X147353000Y-112145000D02*
X147353000Y-112645000D01*
X125988000Y-96995000D02*
X126488000Y-96995000D01*
X126488000Y-96045000D02*
X125988000Y-96045000D01*
X142998000Y-96680000D02*
X142498000Y-96680000D01*
X142498000Y-97630000D02*
X142998000Y-97630000D01*
X142498000Y-91280000D02*
X142998000Y-91280000D01*
X142998000Y-90330000D02*
X142498000Y-90330000D01*
X123948000Y-92235000D02*
X123448000Y-92235000D01*
X123448000Y-93185000D02*
X123948000Y-93185000D01*
X142498000Y-89375000D02*
X142998000Y-89375000D01*
X142998000Y-88425000D02*
X142498000Y-88425000D01*
X158463000Y-112645000D02*
X158463000Y-112145000D01*
X157513000Y-112145000D02*
X157513000Y-112645000D01*
X157193000Y-112645000D02*
X157193000Y-112145000D01*
X156243000Y-112145000D02*
X156243000Y-112645000D01*
X155923000Y-112645000D02*
X155923000Y-112145000D01*
X154973000Y-112145000D02*
X154973000Y-112645000D01*
X126488000Y-87155000D02*
X125988000Y-87155000D01*
X125988000Y-88105000D02*
X126488000Y-88105000D01*
X123448000Y-88105000D02*
X123948000Y-88105000D01*
X123948000Y-87155000D02*
X123448000Y-87155000D01*
X143543000Y-84205000D02*
X143543000Y-84705000D01*
X144493000Y-84705000D02*
X144493000Y-84205000D01*
X123448000Y-86200000D02*
X123948000Y-86200000D01*
X123948000Y-85250000D02*
X123448000Y-85250000D01*
X126488000Y-85250000D02*
X125988000Y-85250000D01*
X125988000Y-86200000D02*
X126488000Y-86200000D01*
X153383000Y-112645000D02*
X153383000Y-112145000D01*
X152433000Y-112145000D02*
X152433000Y-112645000D01*
X149573000Y-112645000D02*
X149573000Y-112145000D01*
X148623000Y-112145000D02*
X148623000Y-112645000D01*
X145763000Y-112645000D02*
X145763000Y-112145000D01*
X144813000Y-112145000D02*
X144813000Y-112645000D01*
X147033000Y-112645000D02*
X147033000Y-112145000D01*
X146083000Y-112145000D02*
X146083000Y-112645000D01*
X128528000Y-111600000D02*
X129028000Y-111600000D01*
X129028000Y-110650000D02*
X128528000Y-110650000D01*
X133358000Y-117055000D02*
X134358000Y-117055000D01*
X134358000Y-115355000D02*
X133358000Y-115355000D01*
X168623000Y-112645000D02*
X168623000Y-112145000D01*
X167673000Y-112145000D02*
X167673000Y-112645000D01*
X132338000Y-114140000D02*
X132838000Y-114140000D01*
X132838000Y-113190000D02*
X132338000Y-113190000D01*
X124468000Y-120230000D02*
X125468000Y-120230000D01*
X125468000Y-118530000D02*
X124468000Y-118530000D01*
X125468000Y-107735000D02*
X124468000Y-107735000D01*
X124468000Y-109435000D02*
X125468000Y-109435000D01*
X120998000Y-102485000D02*
X120998000Y-101985000D01*
X120048000Y-101985000D02*
X120048000Y-102485000D01*
X118198000Y-107815000D02*
X118198000Y-106815000D01*
X116498000Y-106815000D02*
X116498000Y-107815000D01*
X142498000Y-105250000D02*
X142998000Y-105250000D01*
X142998000Y-104300000D02*
X142498000Y-104300000D01*
X167353000Y-112645000D02*
X167353000Y-112145000D01*
X166403000Y-112145000D02*
X166403000Y-112645000D01*
X161003000Y-84705000D02*
X161003000Y-84205000D01*
X160053000Y-84205000D02*
X160053000Y-84705000D01*
X153383000Y-84705000D02*
X153383000Y-84205000D01*
X152433000Y-84205000D02*
X152433000Y-84705000D01*
X142498000Y-109060000D02*
X142998000Y-109060000D01*
X142998000Y-108110000D02*
X142498000Y-108110000D01*
X166083000Y-112645000D02*
X166083000Y-112145000D01*
X165133000Y-112145000D02*
X165133000Y-112645000D01*
X144493000Y-112645000D02*
X144493000Y-112145000D01*
X143543000Y-112145000D02*
X143543000Y-112645000D01*
X146083000Y-84205000D02*
X146083000Y-84705000D01*
X147033000Y-84705000D02*
X147033000Y-84205000D01*
X170438000Y-116553000D02*
X170938000Y-116553000D01*
X170938000Y-115603000D02*
X170438000Y-115603000D01*
X142498000Y-107155000D02*
X142998000Y-107155000D01*
X142998000Y-106205000D02*
X142498000Y-106205000D01*
X165133000Y-84205000D02*
X165133000Y-84705000D01*
X166083000Y-84705000D02*
X166083000Y-84205000D01*
X164813000Y-112645000D02*
X164813000Y-112145000D01*
X163863000Y-112145000D02*
X163863000Y-112645000D01*
X144813000Y-84205000D02*
X144813000Y-84705000D01*
X145763000Y-84705000D02*
X145763000Y-84205000D01*
X120523000Y-106997500D02*
X120523000Y-107378500D01*
X120523000Y-105981500D02*
X120523000Y-106362500D01*
X120523000Y-106362500D02*
X120904000Y-106997500D01*
X120904000Y-106997500D02*
X120142000Y-106997500D01*
X120142000Y-106997500D02*
X120523000Y-106362500D01*
X121031000Y-106362500D02*
X120015000Y-106362500D01*
X119623000Y-104680000D02*
X119623000Y-108220000D01*
X121423000Y-104680000D02*
X121423000Y-108220000D01*
X167673000Y-84205000D02*
X167673000Y-84705000D01*
X168623000Y-84705000D02*
X168623000Y-84205000D01*
X161758000Y-112895000D02*
X161758000Y-111895000D01*
X163108000Y-111895000D02*
X163108000Y-112895000D01*
X161203000Y-114435000D02*
X161203000Y-115435000D01*
X159853000Y-115435000D02*
X159853000Y-114435000D01*
X153583000Y-114435000D02*
X153583000Y-115435000D01*
X152233000Y-115435000D02*
X152233000Y-114435000D01*
X167553000Y-83955000D02*
X167553000Y-84955000D01*
X166203000Y-84955000D02*
X166203000Y-83955000D01*
X160053000Y-112145000D02*
X160053000Y-112645000D01*
X161003000Y-112645000D02*
X161003000Y-112145000D01*
X152113000Y-112645000D02*
X152113000Y-112145000D01*
X151163000Y-112145000D02*
X151163000Y-112645000D01*
X113288000Y-96995000D02*
X113788000Y-96995000D01*
X113788000Y-96045000D02*
X113288000Y-96045000D01*
X123825000Y-96266000D02*
X123571000Y-96520000D01*
X123571000Y-96520000D02*
X123825000Y-96774000D01*
X123825000Y-96774000D02*
X123825000Y-96266000D01*
X122598000Y-97070000D02*
X124498000Y-97070000D01*
X122598000Y-95970000D02*
X124498000Y-95970000D01*
X123448000Y-96270000D02*
X123448000Y-96770000D01*
X125222000Y-89281000D02*
X124714000Y-89281000D01*
X125222000Y-91059000D02*
X124714000Y-91059000D01*
X138308080Y-109895640D02*
X138308080Y-114894360D01*
X142107920Y-109898180D02*
X142107920Y-114896900D01*
X144813000Y-114685000D02*
X144813000Y-115185000D01*
X145763000Y-115185000D02*
X145763000Y-114685000D01*
X146543000Y-108600000D02*
X147618000Y-108600000D01*
X146543000Y-88250000D02*
X147618000Y-88250000D01*
X166893000Y-88250000D02*
X165818000Y-88250000D01*
X166893000Y-108600000D02*
X165818000Y-108600000D01*
X146543000Y-108600000D02*
X146543000Y-107525000D01*
X166893000Y-108600000D02*
X166893000Y-107525000D01*
X166893000Y-88250000D02*
X166893000Y-89325000D01*
X146543000Y-88250000D02*
X146543000Y-89325000D01*
X147618000Y-108600000D02*
X147618000Y-109700000D01*
X137866429Y-116077952D02*
X137866429Y-115316047D01*
X138247381Y-115696999D02*
X137485476Y-115696999D01*
M02*
