G04 #@! TF.FileFunction,Paste,Top*
%FSLAX46Y46*%
G04 Gerber Fmt 4.6, Leading zero omitted, Abs format (unit mm)*
G04 Created by KiCad (PCBNEW (2015-07-08 BZR 5908, Git 901e961)-product) date 07/12/2015 14:40:41*
%MOMM*%
G01*
G04 APERTURE LIST*
%ADD10C,0.100000*%
%ADD11C,0.150000*%
%ADD12R,0.800100X0.800100*%
%ADD13R,0.650000X1.060000*%
%ADD14R,0.500000X0.600000*%
%ADD15R,0.600000X0.500000*%
%ADD16R,0.450000X0.590000*%
%ADD17R,0.910000X1.220000*%
%ADD18R,1.350000X0.400000*%
%ADD19R,1.700000X0.650000*%
%ADD20R,1.200000X0.400000*%
%ADD21R,1.450000X0.450000*%
%ADD22R,1.550000X1.300000*%
%ADD23R,1.501140X5.300980*%
%ADD24R,0.500000X0.900000*%
%ADD25R,0.590000X0.450000*%
%ADD26R,1.220000X0.910000*%
%ADD27R,1.000000X1.250000*%
%ADD28R,1.250000X1.000000*%
%ADD29R,0.900000X0.500000*%
%ADD30R,0.797560X0.797560*%
%ADD31R,1.400000X1.200000*%
%ADD32R,1.800860X3.149600*%
%ADD33R,0.250000X1.450000*%
%ADD34R,1.450000X0.250000*%
%ADD35R,1.000000X1.000000*%
%ADD36R,1.200000X0.900000*%
G04 APERTURE END LIST*
D10*
D11*
X177038000Y-74549000D02*
X175514000Y-73025000D01*
X177038000Y-85979000D02*
X177038000Y-74549000D01*
X179578000Y-88519000D02*
X177038000Y-85979000D01*
X179578000Y-121285000D02*
X179578000Y-88519000D01*
X177038000Y-123825000D02*
X179578000Y-121285000D01*
X177038000Y-126365000D02*
X177038000Y-123825000D01*
X110998000Y-126365000D02*
X177038000Y-126365000D01*
X110998000Y-73025000D02*
X110998000Y-126365000D01*
X175514000Y-73025000D02*
X110998000Y-73025000D01*
D12*
X113223000Y-107680760D03*
X115123000Y-107680760D03*
X114173000Y-105681780D03*
D13*
X118298000Y-101135000D03*
X117348000Y-101135000D03*
X116398000Y-101135000D03*
X116398000Y-103335000D03*
X118298000Y-103335000D03*
X117348000Y-103335000D03*
X129728000Y-113835000D03*
X128778000Y-113835000D03*
X127828000Y-113835000D03*
X127828000Y-116035000D03*
X129728000Y-116035000D03*
X128778000Y-116035000D03*
D14*
X171958000Y-96435000D03*
X171958000Y-95335000D03*
D15*
X138388000Y-106680000D03*
X139488000Y-106680000D03*
X143298000Y-99060000D03*
X142198000Y-99060000D03*
D14*
X171958000Y-106595000D03*
X171958000Y-105495000D03*
X171958000Y-100415000D03*
X171958000Y-101515000D03*
X159258000Y-112945000D03*
X159258000Y-111845000D03*
D15*
X138388000Y-104775000D03*
X139488000Y-104775000D03*
X142198000Y-102870000D03*
X143298000Y-102870000D03*
X142198000Y-100965000D03*
X143298000Y-100965000D03*
X126788000Y-94615000D03*
X125688000Y-94615000D03*
X124248000Y-94615000D03*
X123148000Y-94615000D03*
X112988000Y-103505000D03*
X114088000Y-103505000D03*
X117898000Y-98425000D03*
X116798000Y-98425000D03*
X114088000Y-100965000D03*
X112988000Y-100965000D03*
X124418000Y-116205000D03*
X125518000Y-116205000D03*
X172678000Y-116078000D03*
X173778000Y-116078000D03*
X125518000Y-111125000D03*
X124418000Y-111125000D03*
X125518000Y-113665000D03*
X124418000Y-113665000D03*
D14*
X147828000Y-114385000D03*
X147828000Y-115485000D03*
X146558000Y-114385000D03*
X146558000Y-115485000D03*
X150368000Y-114385000D03*
X150368000Y-115485000D03*
X154178000Y-114385000D03*
X154178000Y-115485000D03*
X156718000Y-114385000D03*
X156718000Y-115485000D03*
X157988000Y-114385000D03*
X157988000Y-115485000D03*
X159258000Y-114385000D03*
X159258000Y-115485000D03*
D15*
X135043000Y-104775000D03*
X133943000Y-104775000D03*
X131233000Y-104775000D03*
X130133000Y-104775000D03*
X126788000Y-92710000D03*
X125688000Y-92710000D03*
D14*
X149098000Y-114385000D03*
X149098000Y-115485000D03*
X151638000Y-114385000D03*
X151638000Y-115485000D03*
X155448000Y-114385000D03*
X155448000Y-115485000D03*
X170688000Y-95335000D03*
X170688000Y-96435000D03*
X171958000Y-97875000D03*
X171958000Y-98975000D03*
X170688000Y-100415000D03*
X170688000Y-101515000D03*
X171958000Y-102955000D03*
X171958000Y-104055000D03*
D15*
X124248000Y-81915000D03*
X123148000Y-81915000D03*
X125688000Y-81915000D03*
X126788000Y-81915000D03*
X126788000Y-98425000D03*
X125688000Y-98425000D03*
X132038000Y-111125000D03*
X133138000Y-111125000D03*
X135213000Y-111125000D03*
X136313000Y-111125000D03*
X125688000Y-83820000D03*
X126788000Y-83820000D03*
X124248000Y-98425000D03*
X123148000Y-98425000D03*
D16*
X120523000Y-99480000D03*
X120523000Y-97370000D03*
D17*
X113173000Y-111125000D03*
X116443000Y-111125000D03*
D18*
X115100540Y-86964100D03*
X115100540Y-87614100D03*
X115100540Y-88264100D03*
X115100540Y-88914100D03*
X115100540Y-89564100D03*
D14*
X170688000Y-98975000D03*
X170688000Y-97875000D03*
D15*
X112988000Y-98425000D03*
X114088000Y-98425000D03*
D17*
X119523000Y-111125000D03*
X122793000Y-111125000D03*
D19*
X177513000Y-114300000D03*
X177513000Y-113030000D03*
X177513000Y-111760000D03*
X177513000Y-110490000D03*
X170213000Y-110490000D03*
X170213000Y-111760000D03*
X170213000Y-113030000D03*
X170213000Y-114300000D03*
D20*
X129793000Y-84137500D03*
X129793000Y-84772500D03*
X129793000Y-85407500D03*
X129793000Y-86042500D03*
X129793000Y-86677500D03*
X129793000Y-87312500D03*
X129793000Y-87947500D03*
X129793000Y-88582500D03*
X129793000Y-89217500D03*
X129793000Y-89852500D03*
X129793000Y-90487500D03*
X129793000Y-91122500D03*
X129793000Y-91757500D03*
X129793000Y-92392500D03*
X129793000Y-93027500D03*
X129793000Y-93662500D03*
X129793000Y-94297500D03*
X129793000Y-94932500D03*
X129793000Y-95567500D03*
X129793000Y-96202500D03*
X129793000Y-96837500D03*
X129793000Y-97472500D03*
X129793000Y-98107500D03*
X129793000Y-98742500D03*
X129793000Y-99377500D03*
X129793000Y-100012500D03*
X129793000Y-100647500D03*
X129793000Y-101282500D03*
X139193000Y-101282500D03*
X139193000Y-100647500D03*
X139193000Y-100012500D03*
X139193000Y-99377500D03*
X139193000Y-98742500D03*
X139193000Y-98107500D03*
X139193000Y-97472500D03*
X139193000Y-96837500D03*
X139193000Y-96202500D03*
X139193000Y-95567500D03*
X139193000Y-94932500D03*
X139193000Y-94297500D03*
X139193000Y-93662500D03*
X139193000Y-93027500D03*
X139193000Y-92392500D03*
X139193000Y-91757500D03*
X139193000Y-91122500D03*
X139193000Y-90487500D03*
X139193000Y-89852500D03*
X139193000Y-89217500D03*
X139193000Y-88582500D03*
X139193000Y-87947500D03*
X139193000Y-87312500D03*
X139193000Y-86677500D03*
X139193000Y-86042500D03*
X139193000Y-85407500D03*
X139193000Y-84772500D03*
X139193000Y-84137500D03*
D21*
X135538000Y-108925000D03*
X135538000Y-108275000D03*
X135538000Y-107625000D03*
X135538000Y-106975000D03*
X129638000Y-106975000D03*
X129638000Y-107625000D03*
X129638000Y-108275000D03*
X129638000Y-108925000D03*
D22*
X113373000Y-79085000D03*
X113373000Y-74585000D03*
X121323000Y-74585000D03*
X121323000Y-79085000D03*
D23*
X131699000Y-121285000D03*
X136017000Y-121285000D03*
X122809000Y-103505000D03*
X127127000Y-103505000D03*
D24*
X124448000Y-83820000D03*
X122948000Y-83820000D03*
D25*
X134708000Y-113665000D03*
X136818000Y-113665000D03*
D26*
X129413000Y-120285000D03*
X129413000Y-123555000D03*
D15*
X126788000Y-80645000D03*
X125688000Y-80645000D03*
D14*
X154178000Y-111845000D03*
X154178000Y-112945000D03*
X150368000Y-111845000D03*
X150368000Y-112945000D03*
X147828000Y-111845000D03*
X147828000Y-112945000D03*
D15*
X126788000Y-96520000D03*
X125688000Y-96520000D03*
X142198000Y-97155000D03*
X143298000Y-97155000D03*
X143298000Y-90805000D03*
X142198000Y-90805000D03*
X123148000Y-92710000D03*
X124248000Y-92710000D03*
X143298000Y-88900000D03*
X142198000Y-88900000D03*
D14*
X157988000Y-111845000D03*
X157988000Y-112945000D03*
X156718000Y-111845000D03*
X156718000Y-112945000D03*
X155448000Y-111845000D03*
X155448000Y-112945000D03*
D15*
X125688000Y-87630000D03*
X126788000Y-87630000D03*
X124248000Y-87630000D03*
X123148000Y-87630000D03*
D14*
X144018000Y-85005000D03*
X144018000Y-83905000D03*
D15*
X124248000Y-85725000D03*
X123148000Y-85725000D03*
X125688000Y-85725000D03*
X126788000Y-85725000D03*
D14*
X152908000Y-111845000D03*
X152908000Y-112945000D03*
X149098000Y-111845000D03*
X149098000Y-112945000D03*
X145288000Y-111845000D03*
X145288000Y-112945000D03*
X146558000Y-111845000D03*
X146558000Y-112945000D03*
D15*
X129328000Y-111125000D03*
X128228000Y-111125000D03*
D27*
X134858000Y-116205000D03*
X132858000Y-116205000D03*
D14*
X168148000Y-111845000D03*
X168148000Y-112945000D03*
D15*
X133138000Y-113665000D03*
X132038000Y-113665000D03*
D27*
X125968000Y-119380000D03*
X123968000Y-119380000D03*
X123968000Y-108585000D03*
X125968000Y-108585000D03*
D14*
X120523000Y-101685000D03*
X120523000Y-102785000D03*
D28*
X117348000Y-106315000D03*
X117348000Y-108315000D03*
D15*
X143298000Y-104775000D03*
X142198000Y-104775000D03*
D14*
X166878000Y-111845000D03*
X166878000Y-112945000D03*
X160528000Y-83905000D03*
X160528000Y-85005000D03*
X152908000Y-83905000D03*
X152908000Y-85005000D03*
D15*
X143298000Y-108585000D03*
X142198000Y-108585000D03*
D14*
X165608000Y-111845000D03*
X165608000Y-112945000D03*
X144018000Y-111845000D03*
X144018000Y-112945000D03*
X146558000Y-85005000D03*
X146558000Y-83905000D03*
D15*
X171238000Y-116078000D03*
X170138000Y-116078000D03*
X143298000Y-106680000D03*
X142198000Y-106680000D03*
D14*
X165608000Y-85005000D03*
X165608000Y-83905000D03*
X164338000Y-111845000D03*
X164338000Y-112945000D03*
X145288000Y-85005000D03*
X145288000Y-83905000D03*
D26*
X120523000Y-105045000D03*
X120523000Y-108315000D03*
D14*
X168148000Y-85005000D03*
X168148000Y-83905000D03*
D29*
X162433000Y-111645000D03*
X162433000Y-113145000D03*
X160528000Y-115685000D03*
X160528000Y-114185000D03*
X152908000Y-115685000D03*
X152908000Y-114185000D03*
X166878000Y-85205000D03*
X166878000Y-83705000D03*
D14*
X160528000Y-112945000D03*
X160528000Y-111845000D03*
X151638000Y-111845000D03*
X151638000Y-112945000D03*
D15*
X114088000Y-96520000D03*
X112988000Y-96520000D03*
D30*
X124447300Y-96520000D03*
X122948700Y-96520000D03*
D31*
X126068000Y-89370000D03*
X123868000Y-89370000D03*
X126068000Y-90970000D03*
X123868000Y-90970000D03*
D32*
X140208000Y-110269020D03*
X140208000Y-114520980D03*
D14*
X145288000Y-115485000D03*
X145288000Y-114385000D03*
D33*
X147968000Y-108975000D03*
X148468000Y-108975000D03*
X148968000Y-108975000D03*
X149468000Y-108975000D03*
X149968000Y-108975000D03*
X150468000Y-108975000D03*
X150968000Y-108975000D03*
X151468000Y-108975000D03*
X151968000Y-108975000D03*
X152468000Y-108975000D03*
X152968000Y-108975000D03*
X153468000Y-108975000D03*
X153968000Y-108975000D03*
X154468000Y-108975000D03*
X154968000Y-108975000D03*
X155468000Y-108975000D03*
X155968000Y-108975000D03*
X156468000Y-108975000D03*
X156968000Y-108975000D03*
X157468000Y-108975000D03*
X157968000Y-108975000D03*
X158468000Y-108975000D03*
X158968000Y-108975000D03*
X159468000Y-108975000D03*
X159968000Y-108975000D03*
X160468000Y-108975000D03*
X160968000Y-108975000D03*
X161468000Y-108975000D03*
X161968000Y-108975000D03*
X162468000Y-108975000D03*
X162968000Y-108975000D03*
X163468000Y-108975000D03*
X163968000Y-108975000D03*
X164468000Y-108975000D03*
X164968000Y-108975000D03*
X165468000Y-108975000D03*
D34*
X167268000Y-107175000D03*
X167268000Y-106675000D03*
X167268000Y-106175000D03*
X167268000Y-105675000D03*
X167268000Y-105175000D03*
X167268000Y-104675000D03*
X167268000Y-104175000D03*
X167268000Y-103675000D03*
X167268000Y-103175000D03*
X167268000Y-102675000D03*
X167268000Y-102175000D03*
X167268000Y-101675000D03*
X167268000Y-101175000D03*
X167268000Y-100675000D03*
X167268000Y-100175000D03*
X167268000Y-99675000D03*
X167268000Y-99175000D03*
X167268000Y-98675000D03*
X167268000Y-98175000D03*
X167268000Y-97675000D03*
X167268000Y-97175000D03*
X167268000Y-96675000D03*
X167268000Y-96175000D03*
X167268000Y-95675000D03*
X167268000Y-95175000D03*
X167268000Y-94675000D03*
X167268000Y-94175000D03*
X167268000Y-93675000D03*
X167268000Y-93175000D03*
X167268000Y-92675000D03*
X167268000Y-92175000D03*
X167268000Y-91675000D03*
X167268000Y-91175000D03*
X167268000Y-90675000D03*
X167268000Y-90175000D03*
X167268000Y-89675000D03*
D33*
X165468000Y-87875000D03*
X164968000Y-87875000D03*
X164468000Y-87875000D03*
X163968000Y-87875000D03*
X163468000Y-87875000D03*
X162968000Y-87875000D03*
X162468000Y-87875000D03*
X161968000Y-87875000D03*
X161468000Y-87875000D03*
X160968000Y-87875000D03*
X160468000Y-87875000D03*
X159968000Y-87875000D03*
X159468000Y-87875000D03*
X158968000Y-87875000D03*
X158468000Y-87875000D03*
X157968000Y-87875000D03*
X157468000Y-87875000D03*
X156968000Y-87875000D03*
X156468000Y-87875000D03*
X155968000Y-87875000D03*
X155468000Y-87875000D03*
X154968000Y-87875000D03*
X154468000Y-87875000D03*
X153968000Y-87875000D03*
X153468000Y-87875000D03*
X152968000Y-87875000D03*
X152468000Y-87875000D03*
X151968000Y-87875000D03*
X151468000Y-87875000D03*
X150968000Y-87875000D03*
X150468000Y-87875000D03*
X149968000Y-87875000D03*
X149468000Y-87875000D03*
X148968000Y-87875000D03*
X148468000Y-87875000D03*
X147968000Y-87875000D03*
D34*
X146168000Y-89675000D03*
X146168000Y-90175000D03*
X146168000Y-90675000D03*
X146168000Y-91175000D03*
X146168000Y-91675000D03*
X146168000Y-92175000D03*
X146168000Y-92675000D03*
X146168000Y-93175000D03*
X146168000Y-93675000D03*
X146168000Y-94175000D03*
X146168000Y-94675000D03*
X146168000Y-95175000D03*
X146168000Y-95675000D03*
X146168000Y-96175000D03*
X146168000Y-96675000D03*
X146168000Y-97175000D03*
X146168000Y-97675000D03*
X146168000Y-98175000D03*
X146168000Y-98675000D03*
X146168000Y-99175000D03*
X146168000Y-99675000D03*
X146168000Y-100175000D03*
X146168000Y-100675000D03*
X146168000Y-101175000D03*
X146168000Y-101675000D03*
X146168000Y-102175000D03*
X146168000Y-102675000D03*
X146168000Y-103175000D03*
X146168000Y-103675000D03*
X146168000Y-104175000D03*
X146168000Y-104675000D03*
X146168000Y-105175000D03*
X146168000Y-105675000D03*
X146168000Y-106175000D03*
X146168000Y-106675000D03*
X146168000Y-107175000D03*
D35*
X154843000Y-100300000D03*
X154843000Y-99050000D03*
X154843000Y-97800000D03*
X154843000Y-96550000D03*
X156093000Y-100300000D03*
X156093000Y-99050000D03*
X156093000Y-97800000D03*
X156093000Y-96550000D03*
X157343000Y-100300000D03*
X157343000Y-99050000D03*
X157343000Y-97800000D03*
X157343000Y-96550000D03*
X158593000Y-100300000D03*
X158593000Y-99050000D03*
X158593000Y-97800000D03*
X158593000Y-96550000D03*
D36*
X118575000Y-96520000D03*
X116375000Y-96520000D03*
M02*
