G04 #@! TF.FileFunction,Soldermask,Top*
%FSLAX46Y46*%
G04 Gerber Fmt 4.6, Leading zero omitted, Abs format (unit mm)*
G04 Created by KiCad (PCBNEW (2015-07-11 BZR 5925, Git c291b88)-product) date 2015/12/7 0:21:45*
%MOMM*%
G01*
G04 APERTURE LIST*
%ADD10C,0.100000*%
%ADD11C,0.150000*%
G04 APERTURE END LIST*
D10*
D11*
X177038000Y-74549000D02*
X175514000Y-73025000D01*
X177038000Y-85979000D02*
X177038000Y-74549000D01*
X179578000Y-88519000D02*
X177038000Y-85979000D01*
X179578000Y-121285000D02*
X179578000Y-88519000D01*
X177038000Y-123825000D02*
X179578000Y-121285000D01*
X177038000Y-126365000D02*
X177038000Y-123825000D01*
X110998000Y-126365000D02*
X177038000Y-126365000D01*
X110998000Y-73025000D02*
X110998000Y-126365000D01*
X175514000Y-73025000D02*
X110998000Y-73025000D01*
D10*
G36*
X113276364Y-84710091D02*
X113274641Y-84833468D01*
X113274544Y-84833894D01*
X113274544Y-84833906D01*
X113250713Y-84938801D01*
X113206777Y-85037480D01*
X113144513Y-85125746D01*
X113066289Y-85200238D01*
X112975087Y-85258116D01*
X112874376Y-85297180D01*
X112768003Y-85315937D01*
X112660010Y-85313674D01*
X112653742Y-85312296D01*
X112629074Y-85311779D01*
X112605500Y-85315937D01*
X112497510Y-85313674D01*
X112491242Y-85312296D01*
X112466574Y-85311779D01*
X112443000Y-85315937D01*
X112335010Y-85313674D01*
X112328742Y-85312296D01*
X112304074Y-85311779D01*
X112280500Y-85315937D01*
X112172510Y-85313674D01*
X112166242Y-85312296D01*
X112141574Y-85311779D01*
X112118000Y-85315937D01*
X112010009Y-85313674D01*
X111904510Y-85290479D01*
X111805524Y-85247233D01*
X111716828Y-85185587D01*
X111641792Y-85107886D01*
X111583277Y-85017089D01*
X111543513Y-84916656D01*
X111524014Y-84810413D01*
X111525522Y-84702402D01*
X111547979Y-84596749D01*
X111590532Y-84497466D01*
X111651558Y-84408339D01*
X111728735Y-84332761D01*
X111819123Y-84273613D01*
X111919273Y-84233151D01*
X112025379Y-84212909D01*
X112133390Y-84213664D01*
X112145415Y-84216132D01*
X112170082Y-84216304D01*
X112187878Y-84212909D01*
X112295890Y-84213664D01*
X112307915Y-84216132D01*
X112332582Y-84216304D01*
X112350378Y-84212909D01*
X112458390Y-84213664D01*
X112470415Y-84216132D01*
X112495082Y-84216304D01*
X112512878Y-84212909D01*
X112620890Y-84213664D01*
X112632915Y-84216132D01*
X112657582Y-84216304D01*
X112675378Y-84212909D01*
X112783391Y-84213664D01*
X112889206Y-84235384D01*
X112988780Y-84277242D01*
X113078334Y-84337647D01*
X113154446Y-84414292D01*
X113214222Y-84504262D01*
X113255385Y-84604130D01*
X113276279Y-84709653D01*
X113276278Y-84709661D01*
X113276364Y-84710091D01*
X113276364Y-84710091D01*
G37*
G36*
X113281364Y-91710091D02*
X113279641Y-91833468D01*
X113279544Y-91833894D01*
X113279544Y-91833906D01*
X113255713Y-91938801D01*
X113211777Y-92037480D01*
X113149513Y-92125746D01*
X113071289Y-92200238D01*
X112980087Y-92258116D01*
X112879376Y-92297180D01*
X112773003Y-92315937D01*
X112665010Y-92313674D01*
X112657626Y-92312051D01*
X112632962Y-92311535D01*
X112608001Y-92315937D01*
X112500010Y-92313674D01*
X112492626Y-92312051D01*
X112467962Y-92311535D01*
X112443001Y-92315937D01*
X112335010Y-92313674D01*
X112328742Y-92312296D01*
X112304074Y-92311779D01*
X112280500Y-92315937D01*
X112172510Y-92313674D01*
X112166242Y-92312296D01*
X112141574Y-92311779D01*
X112118000Y-92315937D01*
X112010009Y-92313674D01*
X111904510Y-92290479D01*
X111805524Y-92247233D01*
X111716828Y-92185587D01*
X111641792Y-92107886D01*
X111583277Y-92017089D01*
X111543513Y-91916656D01*
X111524014Y-91810413D01*
X111525522Y-91702402D01*
X111547979Y-91596749D01*
X111590532Y-91497466D01*
X111651558Y-91408339D01*
X111728735Y-91332761D01*
X111819123Y-91273613D01*
X111919273Y-91233151D01*
X112025379Y-91212909D01*
X112133390Y-91213664D01*
X112145415Y-91216132D01*
X112170082Y-91216304D01*
X112187878Y-91212909D01*
X112295890Y-91213664D01*
X112307915Y-91216132D01*
X112332582Y-91216304D01*
X112350378Y-91212909D01*
X112458391Y-91213664D01*
X112471621Y-91216379D01*
X112496287Y-91216551D01*
X112515378Y-91212909D01*
X112623391Y-91213664D01*
X112636621Y-91216379D01*
X112661287Y-91216551D01*
X112680378Y-91212909D01*
X112788391Y-91213664D01*
X112894206Y-91235384D01*
X112993780Y-91277242D01*
X113083334Y-91337647D01*
X113159446Y-91414292D01*
X113219222Y-91504262D01*
X113260385Y-91604130D01*
X113281279Y-91709653D01*
X113281278Y-91709661D01*
X113281364Y-91710091D01*
X113281364Y-91710091D01*
G37*
G36*
X113338800Y-96820800D02*
X112637200Y-96820800D01*
X112637200Y-96219200D01*
X113338800Y-96219200D01*
X113338800Y-96820800D01*
X113338800Y-96820800D01*
G37*
G36*
X113338800Y-98725800D02*
X112637200Y-98725800D01*
X112637200Y-98124200D01*
X113338800Y-98124200D01*
X113338800Y-98725800D01*
X113338800Y-98725800D01*
G37*
G36*
X113338800Y-101265800D02*
X112637200Y-101265800D01*
X112637200Y-100664200D01*
X113338800Y-100664200D01*
X113338800Y-101265800D01*
X113338800Y-101265800D01*
G37*
G36*
X113338800Y-103805800D02*
X112637200Y-103805800D01*
X112637200Y-103204200D01*
X113338800Y-103204200D01*
X113338800Y-103805800D01*
X113338800Y-103805800D01*
G37*
G36*
X113673850Y-108131610D02*
X112772150Y-108131610D01*
X112772150Y-107229910D01*
X113673850Y-107229910D01*
X113673850Y-108131610D01*
X113673850Y-108131610D01*
G37*
G36*
X113678800Y-111785800D02*
X112667200Y-111785800D01*
X112667200Y-110464200D01*
X113678800Y-110464200D01*
X113678800Y-111785800D01*
X113678800Y-111785800D01*
G37*
G36*
X114198800Y-75285800D02*
X112547200Y-75285800D01*
X112547200Y-73884200D01*
X114198800Y-73884200D01*
X114198800Y-75285800D01*
X114198800Y-75285800D01*
G37*
G36*
X114198800Y-79785800D02*
X112547200Y-79785800D01*
X112547200Y-78384200D01*
X114198800Y-78384200D01*
X114198800Y-79785800D01*
X114198800Y-79785800D01*
G37*
G36*
X114438800Y-96820800D02*
X113737200Y-96820800D01*
X113737200Y-96219200D01*
X114438800Y-96219200D01*
X114438800Y-96820800D01*
X114438800Y-96820800D01*
G37*
G36*
X114438800Y-98725800D02*
X113737200Y-98725800D01*
X113737200Y-98124200D01*
X114438800Y-98124200D01*
X114438800Y-98725800D01*
X114438800Y-98725800D01*
G37*
G36*
X114438800Y-101265800D02*
X113737200Y-101265800D01*
X113737200Y-100664200D01*
X114438800Y-100664200D01*
X114438800Y-101265800D01*
X114438800Y-101265800D01*
G37*
G36*
X114438800Y-103805800D02*
X113737200Y-103805800D01*
X113737200Y-103204200D01*
X114438800Y-103204200D01*
X114438800Y-103805800D01*
X114438800Y-103805800D01*
G37*
G36*
X114623850Y-106132630D02*
X113722150Y-106132630D01*
X113722150Y-105230930D01*
X114623850Y-105230930D01*
X114623850Y-106132630D01*
X114623850Y-106132630D01*
G37*
G36*
X114808054Y-76710470D02*
X114804082Y-76994943D01*
X114803985Y-76995369D01*
X114803985Y-76995382D01*
X114748906Y-77237815D01*
X114647603Y-77465342D01*
X114504038Y-77668860D01*
X114323675Y-77840618D01*
X114113383Y-77974073D01*
X113881183Y-78064138D01*
X113635906Y-78107387D01*
X113386901Y-78102170D01*
X113143646Y-78048687D01*
X112915418Y-77948978D01*
X112710904Y-77806836D01*
X112537890Y-77627675D01*
X112402975Y-77418326D01*
X112311288Y-77186754D01*
X112266328Y-76941785D01*
X112269806Y-76692746D01*
X112321587Y-76449133D01*
X112419703Y-76220212D01*
X112560415Y-76014706D01*
X112738358Y-75840452D01*
X112946768Y-75704073D01*
X113177692Y-75610773D01*
X113422341Y-75564104D01*
X113671391Y-75565843D01*
X113915370Y-75615925D01*
X114144964Y-75712437D01*
X114351448Y-75851712D01*
X114526942Y-76028436D01*
X114664771Y-76235885D01*
X114759680Y-76466152D01*
X114807970Y-76710032D01*
X114807969Y-76710044D01*
X114808054Y-76710470D01*
X114808054Y-76710470D01*
G37*
G36*
X114808054Y-123700470D02*
X114804082Y-123984943D01*
X114803985Y-123985369D01*
X114803985Y-123985382D01*
X114748906Y-124227815D01*
X114647603Y-124455342D01*
X114504038Y-124658860D01*
X114323675Y-124830618D01*
X114113383Y-124964073D01*
X113881183Y-125054138D01*
X113635906Y-125097387D01*
X113386901Y-125092170D01*
X113143646Y-125038687D01*
X112915418Y-124938978D01*
X112710904Y-124796836D01*
X112537890Y-124617675D01*
X112402975Y-124408326D01*
X112311288Y-124176754D01*
X112266328Y-123931785D01*
X112269806Y-123682746D01*
X112321587Y-123439133D01*
X112419703Y-123210212D01*
X112560415Y-123004706D01*
X112738358Y-122830452D01*
X112946768Y-122694073D01*
X113177692Y-122600773D01*
X113422341Y-122554104D01*
X113671391Y-122555843D01*
X113915370Y-122605925D01*
X114144964Y-122702437D01*
X114351448Y-122841712D01*
X114526942Y-123018436D01*
X114664771Y-123225885D01*
X114759680Y-123456152D01*
X114807970Y-123700032D01*
X114807969Y-123700044D01*
X114808054Y-123700470D01*
X114808054Y-123700470D01*
G37*
G36*
X115573850Y-108131610D02*
X114672150Y-108131610D01*
X114672150Y-107229910D01*
X115573850Y-107229910D01*
X115573850Y-108131610D01*
X115573850Y-108131610D01*
G37*
G36*
X115626362Y-85862543D02*
X115624718Y-85980319D01*
X115624621Y-85980745D01*
X115624621Y-85980757D01*
X115601876Y-86080872D01*
X115559934Y-86175072D01*
X115500496Y-86259332D01*
X115425823Y-86330442D01*
X115338761Y-86385694D01*
X115242620Y-86422985D01*
X115141075Y-86440890D01*
X115037984Y-86438730D01*
X114937269Y-86416586D01*
X114842780Y-86375306D01*
X114758109Y-86316457D01*
X114686479Y-86242282D01*
X114630620Y-86155606D01*
X114592661Y-86059732D01*
X114574047Y-85958311D01*
X114575486Y-85855201D01*
X114576718Y-85849404D01*
X114577062Y-85824745D01*
X114574047Y-85808314D01*
X114575486Y-85705201D01*
X114576718Y-85699404D01*
X114577062Y-85674745D01*
X114574047Y-85658314D01*
X114575486Y-85555203D01*
X114596924Y-85454345D01*
X114637544Y-85359571D01*
X114695804Y-85274485D01*
X114769476Y-85202340D01*
X114855760Y-85145877D01*
X114951367Y-85107249D01*
X115052656Y-85087927D01*
X115155766Y-85088648D01*
X115256778Y-85109382D01*
X115351831Y-85149339D01*
X115437321Y-85207003D01*
X115509978Y-85280169D01*
X115567042Y-85366056D01*
X115606336Y-85461391D01*
X115626278Y-85562104D01*
X115626277Y-85562117D01*
X115626362Y-85562543D01*
X115624718Y-85680319D01*
X115624621Y-85680744D01*
X115624528Y-85687429D01*
X115625054Y-85687436D01*
X115624812Y-85704698D01*
X115626278Y-85712100D01*
X115626277Y-85712117D01*
X115626362Y-85712543D01*
X115624718Y-85830319D01*
X115624621Y-85830744D01*
X115624528Y-85837429D01*
X115625054Y-85837436D01*
X115624812Y-85854698D01*
X115626278Y-85862100D01*
X115626277Y-85862117D01*
X115626362Y-85862543D01*
X115626362Y-85862543D01*
G37*
G36*
X115626362Y-90862543D02*
X115624718Y-90980319D01*
X115624621Y-90980745D01*
X115624621Y-90980757D01*
X115601876Y-91080872D01*
X115559934Y-91175072D01*
X115500496Y-91259332D01*
X115425823Y-91330442D01*
X115338761Y-91385694D01*
X115242620Y-91422985D01*
X115141075Y-91440890D01*
X115037984Y-91438730D01*
X114937269Y-91416586D01*
X114842780Y-91375306D01*
X114758109Y-91316457D01*
X114686479Y-91242282D01*
X114630620Y-91155606D01*
X114592661Y-91059732D01*
X114574047Y-90958311D01*
X114575486Y-90855201D01*
X114576718Y-90849404D01*
X114577062Y-90824745D01*
X114574047Y-90808314D01*
X114575486Y-90705201D01*
X114576718Y-90699404D01*
X114577062Y-90674745D01*
X114574047Y-90658314D01*
X114575486Y-90555203D01*
X114596924Y-90454345D01*
X114637544Y-90359571D01*
X114695804Y-90274485D01*
X114769476Y-90202340D01*
X114855760Y-90145877D01*
X114951367Y-90107249D01*
X115052656Y-90087927D01*
X115155766Y-90088648D01*
X115256778Y-90109382D01*
X115351831Y-90149339D01*
X115437321Y-90207003D01*
X115509978Y-90280169D01*
X115567042Y-90366056D01*
X115606336Y-90461391D01*
X115626278Y-90562104D01*
X115626277Y-90562117D01*
X115626362Y-90562543D01*
X115624718Y-90680319D01*
X115624621Y-90680744D01*
X115624528Y-90687429D01*
X115625054Y-90687436D01*
X115624812Y-90704698D01*
X115626278Y-90712100D01*
X115626277Y-90712117D01*
X115626362Y-90712543D01*
X115624718Y-90830319D01*
X115624621Y-90830744D01*
X115624528Y-90837429D01*
X115625054Y-90837436D01*
X115624812Y-90854698D01*
X115626278Y-90862100D01*
X115626277Y-90862117D01*
X115626362Y-90862543D01*
X115626362Y-90862543D01*
G37*
G36*
X115826340Y-87214900D02*
X114374740Y-87214900D01*
X114374740Y-86713300D01*
X115826340Y-86713300D01*
X115826340Y-87214900D01*
X115826340Y-87214900D01*
G37*
G36*
X115826340Y-87864900D02*
X114374740Y-87864900D01*
X114374740Y-87363300D01*
X115826340Y-87363300D01*
X115826340Y-87864900D01*
X115826340Y-87864900D01*
G37*
G36*
X115826340Y-88514900D02*
X114374740Y-88514900D01*
X114374740Y-88013300D01*
X115826340Y-88013300D01*
X115826340Y-88514900D01*
X115826340Y-88514900D01*
G37*
G36*
X115826340Y-89164900D02*
X114374740Y-89164900D01*
X114374740Y-88663300D01*
X115826340Y-88663300D01*
X115826340Y-89164900D01*
X115826340Y-89164900D01*
G37*
G36*
X115826340Y-89814900D02*
X114374740Y-89814900D01*
X114374740Y-89313300D01*
X115826340Y-89313300D01*
X115826340Y-89814900D01*
X115826340Y-89814900D01*
G37*
G36*
X116059505Y-119641964D02*
X116056218Y-119877337D01*
X116056122Y-119877758D01*
X116056122Y-119877776D01*
X116010566Y-120078290D01*
X115926751Y-120266544D01*
X115807960Y-120434940D01*
X115658729Y-120577050D01*
X115484737Y-120687469D01*
X115292606Y-120761992D01*
X115089668Y-120797776D01*
X114883641Y-120793460D01*
X114682370Y-120749207D01*
X114493534Y-120666708D01*
X114324319Y-120549099D01*
X114181167Y-120400861D01*
X114069538Y-120227646D01*
X113993676Y-120036042D01*
X113956476Y-119833354D01*
X113959353Y-119627295D01*
X113959524Y-119626491D01*
X113959867Y-119601836D01*
X113956476Y-119583357D01*
X113959353Y-119377295D01*
X113959524Y-119376491D01*
X113959867Y-119351836D01*
X113956476Y-119333357D01*
X113959353Y-119127295D01*
X113959524Y-119126491D01*
X113959867Y-119101836D01*
X113956476Y-119083357D01*
X113959353Y-118877295D01*
X113959524Y-118876491D01*
X113959867Y-118851836D01*
X113956476Y-118833357D01*
X113959353Y-118627295D01*
X113959524Y-118626491D01*
X113959867Y-118601836D01*
X113956476Y-118583357D01*
X113959353Y-118377295D01*
X113959524Y-118376491D01*
X113959867Y-118351836D01*
X113956476Y-118333357D01*
X113959353Y-118127295D01*
X113959524Y-118126491D01*
X113959867Y-118101836D01*
X113956476Y-118083357D01*
X113959353Y-117877295D01*
X113959524Y-117876491D01*
X113959867Y-117851836D01*
X113956476Y-117833357D01*
X113959353Y-117627298D01*
X114002197Y-117425733D01*
X114083377Y-117236326D01*
X114199804Y-117066288D01*
X114347040Y-116922104D01*
X114519470Y-116809269D01*
X114710539Y-116732073D01*
X114912963Y-116693457D01*
X115119029Y-116694897D01*
X115320896Y-116736333D01*
X115510863Y-116816189D01*
X115681709Y-116931425D01*
X115826916Y-117077650D01*
X115940951Y-117249286D01*
X116019481Y-117439814D01*
X116059421Y-117641525D01*
X116059420Y-117641538D01*
X116059505Y-117641964D01*
X116056331Y-117869239D01*
X116057457Y-117881604D01*
X116059421Y-117891521D01*
X116059420Y-117891538D01*
X116059505Y-117891964D01*
X116056331Y-118119239D01*
X116057457Y-118131604D01*
X116059421Y-118141521D01*
X116059420Y-118141538D01*
X116059505Y-118141964D01*
X116056331Y-118369239D01*
X116057457Y-118381604D01*
X116059421Y-118391521D01*
X116059420Y-118391538D01*
X116059505Y-118391964D01*
X116056331Y-118619239D01*
X116057457Y-118631604D01*
X116059421Y-118641521D01*
X116059420Y-118641538D01*
X116059505Y-118641964D01*
X116056331Y-118869239D01*
X116057457Y-118881604D01*
X116059421Y-118891521D01*
X116059420Y-118891538D01*
X116059505Y-118891964D01*
X116056331Y-119119239D01*
X116057457Y-119131604D01*
X116059421Y-119141521D01*
X116059420Y-119141538D01*
X116059505Y-119141964D01*
X116056331Y-119369239D01*
X116057457Y-119381604D01*
X116059421Y-119391521D01*
X116059420Y-119391538D01*
X116059505Y-119391964D01*
X116056331Y-119619239D01*
X116057457Y-119631604D01*
X116059421Y-119641521D01*
X116059420Y-119641538D01*
X116059505Y-119641964D01*
X116059505Y-119641964D01*
G37*
G36*
X116263845Y-82162484D02*
X116260558Y-82397857D01*
X116260462Y-82398278D01*
X116260462Y-82398296D01*
X116214906Y-82598810D01*
X116131091Y-82787064D01*
X116012300Y-82955460D01*
X115863069Y-83097570D01*
X115689077Y-83207989D01*
X115496946Y-83282512D01*
X115294008Y-83318296D01*
X115103589Y-83314307D01*
X115091231Y-83315258D01*
X115074006Y-83318296D01*
X114883589Y-83314307D01*
X114871231Y-83315258D01*
X114854006Y-83318296D01*
X114663589Y-83314307D01*
X114651231Y-83315258D01*
X114634006Y-83318296D01*
X114443589Y-83314307D01*
X114431231Y-83315258D01*
X114414006Y-83318296D01*
X114223589Y-83314307D01*
X114211231Y-83315258D01*
X114194006Y-83318296D01*
X114003589Y-83314307D01*
X113991231Y-83315258D01*
X113974006Y-83318296D01*
X113767981Y-83313980D01*
X113566710Y-83269727D01*
X113377874Y-83187228D01*
X113208659Y-83069619D01*
X113065507Y-82921381D01*
X112953878Y-82748166D01*
X112878016Y-82556562D01*
X112840816Y-82353874D01*
X112843693Y-82147818D01*
X112886537Y-81946253D01*
X112967717Y-81756846D01*
X113084144Y-81586808D01*
X113231380Y-81442624D01*
X113403810Y-81329789D01*
X113594879Y-81252593D01*
X113797303Y-81213977D01*
X114003306Y-81215416D01*
X114015646Y-81214294D01*
X114017305Y-81213977D01*
X114223306Y-81215416D01*
X114235646Y-81214294D01*
X114237305Y-81213977D01*
X114443306Y-81215416D01*
X114455646Y-81214294D01*
X114457305Y-81213977D01*
X114663306Y-81215416D01*
X114675646Y-81214294D01*
X114677305Y-81213977D01*
X114883306Y-81215416D01*
X114895646Y-81214294D01*
X114897305Y-81213977D01*
X115103306Y-81215416D01*
X115115646Y-81214294D01*
X115117305Y-81213978D01*
X115323369Y-81215417D01*
X115525236Y-81256853D01*
X115715203Y-81336709D01*
X115886049Y-81451945D01*
X116031256Y-81598170D01*
X116145291Y-81769806D01*
X116223821Y-81960334D01*
X116263761Y-82162045D01*
X116263760Y-82162058D01*
X116263845Y-82162484D01*
X116263845Y-82162484D01*
G37*
G36*
X116263845Y-94161444D02*
X116260558Y-94396817D01*
X116260462Y-94397238D01*
X116260462Y-94397256D01*
X116214906Y-94597770D01*
X116131091Y-94786024D01*
X116012300Y-94954420D01*
X115863069Y-95096530D01*
X115689077Y-95206949D01*
X115496946Y-95281472D01*
X115294008Y-95317256D01*
X115103589Y-95313267D01*
X115091231Y-95314218D01*
X115074006Y-95317256D01*
X114883589Y-95313267D01*
X114871231Y-95314218D01*
X114854006Y-95317256D01*
X114663589Y-95313267D01*
X114651231Y-95314218D01*
X114634006Y-95317256D01*
X114443589Y-95313267D01*
X114431231Y-95314218D01*
X114414006Y-95317256D01*
X114223589Y-95313267D01*
X114211231Y-95314218D01*
X114194006Y-95317256D01*
X114003589Y-95313267D01*
X113991231Y-95314218D01*
X113974006Y-95317256D01*
X113767981Y-95312940D01*
X113566710Y-95268687D01*
X113377874Y-95186188D01*
X113208659Y-95068579D01*
X113065507Y-94920341D01*
X112953878Y-94747126D01*
X112878016Y-94555522D01*
X112840816Y-94352834D01*
X112843693Y-94146778D01*
X112886537Y-93945213D01*
X112967717Y-93755806D01*
X113084144Y-93585768D01*
X113231380Y-93441584D01*
X113403810Y-93328749D01*
X113594879Y-93251553D01*
X113797303Y-93212937D01*
X114003306Y-93214376D01*
X114015646Y-93213254D01*
X114017305Y-93212937D01*
X114223306Y-93214376D01*
X114235646Y-93213254D01*
X114237305Y-93212937D01*
X114443306Y-93214376D01*
X114455646Y-93213254D01*
X114457305Y-93212937D01*
X114663306Y-93214376D01*
X114675646Y-93213254D01*
X114677305Y-93212937D01*
X114883306Y-93214376D01*
X114895646Y-93213254D01*
X114897305Y-93212937D01*
X115103306Y-93214376D01*
X115115646Y-93213254D01*
X115117305Y-93212938D01*
X115323369Y-93214377D01*
X115525236Y-93255813D01*
X115715203Y-93335669D01*
X115886049Y-93450905D01*
X116031256Y-93597130D01*
X116145291Y-93768766D01*
X116223821Y-93959294D01*
X116263761Y-94161005D01*
X116263760Y-94161018D01*
X116263845Y-94161444D01*
X116263845Y-94161444D01*
G37*
G36*
X116773800Y-101715800D02*
X116022200Y-101715800D01*
X116022200Y-100554200D01*
X116773800Y-100554200D01*
X116773800Y-101715800D01*
X116773800Y-101715800D01*
G37*
G36*
X116773800Y-103915800D02*
X116022200Y-103915800D01*
X116022200Y-102754200D01*
X116773800Y-102754200D01*
X116773800Y-103915800D01*
X116773800Y-103915800D01*
G37*
G36*
X116948800Y-111785800D02*
X115937200Y-111785800D01*
X115937200Y-110464200D01*
X116948800Y-110464200D01*
X116948800Y-111785800D01*
X116948800Y-111785800D01*
G37*
G36*
X117148800Y-98725800D02*
X116447200Y-98725800D01*
X116447200Y-98124200D01*
X117148800Y-98124200D01*
X117148800Y-98725800D01*
X117148800Y-98725800D01*
G37*
G36*
X117723800Y-101715800D02*
X116972200Y-101715800D01*
X116972200Y-100554200D01*
X117723800Y-100554200D01*
X117723800Y-101715800D01*
X117723800Y-101715800D01*
G37*
G36*
X117723800Y-103915800D02*
X116972200Y-103915800D01*
X116972200Y-102754200D01*
X117723800Y-102754200D01*
X117723800Y-103915800D01*
X117723800Y-103915800D01*
G37*
G36*
X118023800Y-106865800D02*
X116672200Y-106865800D01*
X116672200Y-105764200D01*
X118023800Y-105764200D01*
X118023800Y-106865800D01*
X118023800Y-106865800D01*
G37*
G36*
X118023800Y-108865800D02*
X116672200Y-108865800D01*
X116672200Y-107764200D01*
X118023800Y-107764200D01*
X118023800Y-108865800D01*
X118023800Y-108865800D01*
G37*
G36*
X118065855Y-86915301D02*
X118063313Y-87097364D01*
X118063216Y-87097790D01*
X118063216Y-87097801D01*
X118028000Y-87252803D01*
X117963169Y-87398417D01*
X117871283Y-87528673D01*
X117755853Y-87638596D01*
X117621269Y-87724006D01*
X117472654Y-87781650D01*
X117315680Y-87809329D01*
X117156318Y-87805990D01*
X117000632Y-87771760D01*
X116854567Y-87707947D01*
X116723679Y-87616976D01*
X116612951Y-87502314D01*
X116526602Y-87368327D01*
X116467924Y-87220123D01*
X116439149Y-87063343D01*
X116441375Y-86903956D01*
X116474514Y-86748047D01*
X116537310Y-86601534D01*
X116627363Y-86470014D01*
X116741253Y-86358484D01*
X116874628Y-86271206D01*
X117022421Y-86211495D01*
X117178998Y-86181625D01*
X117338390Y-86182739D01*
X117494537Y-86214790D01*
X117641476Y-86276558D01*
X117773627Y-86365695D01*
X117885944Y-86478798D01*
X117974154Y-86611566D01*
X118034896Y-86758937D01*
X118065771Y-86914862D01*
X118065770Y-86914875D01*
X118065855Y-86915301D01*
X118065855Y-86915301D01*
G37*
G36*
X118065855Y-89455301D02*
X118063313Y-89637364D01*
X118063216Y-89637790D01*
X118063216Y-89637801D01*
X118028000Y-89792803D01*
X117963169Y-89938417D01*
X117871283Y-90068673D01*
X117755853Y-90178596D01*
X117621269Y-90264006D01*
X117472654Y-90321650D01*
X117315680Y-90349329D01*
X117156318Y-90345990D01*
X117000632Y-90311760D01*
X116854567Y-90247947D01*
X116723679Y-90156976D01*
X116612951Y-90042314D01*
X116526602Y-89908327D01*
X116467924Y-89760123D01*
X116439149Y-89603343D01*
X116441375Y-89443956D01*
X116474514Y-89288047D01*
X116537310Y-89141534D01*
X116627363Y-89010014D01*
X116741253Y-88898484D01*
X116874628Y-88811206D01*
X117022421Y-88751495D01*
X117178998Y-88721625D01*
X117338390Y-88722739D01*
X117494537Y-88754790D01*
X117641476Y-88816558D01*
X117773627Y-88905695D01*
X117885944Y-89018798D01*
X117974154Y-89151566D01*
X118034896Y-89298937D01*
X118065771Y-89454862D01*
X118065770Y-89454875D01*
X118065855Y-89455301D01*
X118065855Y-89455301D01*
G37*
G36*
X118248800Y-98725800D02*
X117547200Y-98725800D01*
X117547200Y-98124200D01*
X118248800Y-98124200D01*
X118248800Y-98725800D01*
X118248800Y-98725800D01*
G37*
G36*
X118673800Y-101715800D02*
X117922200Y-101715800D01*
X117922200Y-100554200D01*
X118673800Y-100554200D01*
X118673800Y-101715800D01*
X118673800Y-101715800D01*
G37*
G36*
X118673800Y-103915800D02*
X117922200Y-103915800D01*
X117922200Y-102754200D01*
X118673800Y-102754200D01*
X118673800Y-103915800D01*
X118673800Y-103915800D01*
G37*
G36*
X119684800Y-119684800D02*
X117043200Y-119684800D01*
X117043200Y-117805200D01*
X119684800Y-117805200D01*
X119684800Y-119684800D01*
X119684800Y-119684800D01*
G37*
G36*
X119691171Y-121291561D02*
X119672005Y-121473911D01*
X119672001Y-121473923D01*
X119671996Y-121473973D01*
X119617758Y-121649187D01*
X119530521Y-121810529D01*
X119413606Y-121951855D01*
X119271468Y-122067779D01*
X119109521Y-122153888D01*
X118933932Y-122206902D01*
X118751391Y-122224800D01*
X118748591Y-122224800D01*
X117976609Y-122224800D01*
X117976460Y-122224800D01*
X117966067Y-122224727D01*
X117966058Y-122224726D01*
X117963487Y-122224708D01*
X117781214Y-122204263D01*
X117606382Y-122148803D01*
X117445653Y-122060442D01*
X117305148Y-121942544D01*
X117190218Y-121799600D01*
X117105242Y-121637055D01*
X117053455Y-121461101D01*
X117053451Y-121461058D01*
X117053448Y-121461048D01*
X117036829Y-121278439D01*
X117055995Y-121096089D01*
X117055998Y-121096076D01*
X117056004Y-121096027D01*
X117110242Y-120920813D01*
X117197479Y-120759471D01*
X117314394Y-120618145D01*
X117456532Y-120502221D01*
X117618479Y-120416112D01*
X117794068Y-120363098D01*
X117976609Y-120345200D01*
X117979409Y-120345200D01*
X118751391Y-120345200D01*
X118751540Y-120345200D01*
X118761933Y-120345273D01*
X118761941Y-120345273D01*
X118764513Y-120345292D01*
X118946786Y-120365737D01*
X119121618Y-120421197D01*
X119282347Y-120509558D01*
X119422852Y-120627456D01*
X119537782Y-120770400D01*
X119622758Y-120932945D01*
X119674545Y-121108899D01*
X119674548Y-121108941D01*
X119674552Y-121108952D01*
X119691171Y-121291561D01*
X119691171Y-121291561D01*
G37*
G36*
X120028800Y-111785800D02*
X119017200Y-111785800D01*
X119017200Y-110464200D01*
X120028800Y-110464200D01*
X120028800Y-111785800D01*
X120028800Y-111785800D01*
G37*
G36*
X120059245Y-123340964D02*
X120055958Y-123576337D01*
X120055862Y-123576758D01*
X120055862Y-123576776D01*
X120010306Y-123777290D01*
X119926491Y-123965544D01*
X119807700Y-124133940D01*
X119658469Y-124276050D01*
X119484477Y-124386469D01*
X119292346Y-124460992D01*
X119089408Y-124496776D01*
X118877154Y-124492330D01*
X118877139Y-124493047D01*
X118862315Y-124492735D01*
X118839405Y-124496776D01*
X118627154Y-124492330D01*
X118627139Y-124493047D01*
X118612315Y-124492735D01*
X118589405Y-124496776D01*
X118377154Y-124492330D01*
X118377139Y-124493047D01*
X118362315Y-124492735D01*
X118339405Y-124496776D01*
X118127154Y-124492330D01*
X118127139Y-124493047D01*
X118112315Y-124492735D01*
X118089405Y-124496776D01*
X117877154Y-124492330D01*
X117877139Y-124493047D01*
X117862315Y-124492735D01*
X117839405Y-124496776D01*
X117627154Y-124492330D01*
X117627139Y-124493047D01*
X117612315Y-124492735D01*
X117589405Y-124496776D01*
X117377154Y-124492330D01*
X117377139Y-124493047D01*
X117362315Y-124492735D01*
X117339405Y-124496776D01*
X117127154Y-124492330D01*
X117127139Y-124493047D01*
X117112315Y-124492735D01*
X117089405Y-124496776D01*
X116883381Y-124492460D01*
X116682110Y-124448207D01*
X116493274Y-124365708D01*
X116324059Y-124248099D01*
X116180907Y-124099861D01*
X116069278Y-123926646D01*
X115993416Y-123735042D01*
X115956216Y-123532354D01*
X115959093Y-123326298D01*
X116001937Y-123124733D01*
X116083117Y-122935326D01*
X116199544Y-122765288D01*
X116346780Y-122621104D01*
X116519210Y-122508269D01*
X116710279Y-122431073D01*
X116912703Y-122392457D01*
X117118772Y-122393897D01*
X117123983Y-122394966D01*
X117148646Y-122395139D01*
X117162705Y-122392458D01*
X117368772Y-122393897D01*
X117373983Y-122394966D01*
X117398646Y-122395139D01*
X117412705Y-122392458D01*
X117618772Y-122393897D01*
X117623983Y-122394966D01*
X117648646Y-122395139D01*
X117662705Y-122392458D01*
X117868772Y-122393897D01*
X117873983Y-122394966D01*
X117898646Y-122395139D01*
X117912705Y-122392458D01*
X118118772Y-122393897D01*
X118123983Y-122394966D01*
X118148646Y-122395139D01*
X118162705Y-122392458D01*
X118368772Y-122393897D01*
X118373983Y-122394966D01*
X118398646Y-122395139D01*
X118412705Y-122392458D01*
X118618772Y-122393897D01*
X118623983Y-122394966D01*
X118648646Y-122395139D01*
X118662705Y-122392458D01*
X118868772Y-122393897D01*
X118873983Y-122394966D01*
X118898646Y-122395139D01*
X118912705Y-122392458D01*
X119118769Y-122393897D01*
X119320636Y-122435333D01*
X119510603Y-122515189D01*
X119681449Y-122630425D01*
X119826656Y-122776650D01*
X119940691Y-122948286D01*
X120019221Y-123138814D01*
X120059161Y-123340525D01*
X120059160Y-123340538D01*
X120059245Y-123340964D01*
X120059245Y-123340964D01*
G37*
G36*
X120064835Y-86915301D02*
X120062293Y-87097364D01*
X120062196Y-87097790D01*
X120062196Y-87097801D01*
X120026980Y-87252803D01*
X119962149Y-87398417D01*
X119870263Y-87528673D01*
X119754833Y-87638596D01*
X119620249Y-87724006D01*
X119471634Y-87781650D01*
X119314660Y-87809329D01*
X119155298Y-87805990D01*
X118999612Y-87771760D01*
X118853547Y-87707947D01*
X118722659Y-87616976D01*
X118611931Y-87502314D01*
X118525582Y-87368327D01*
X118466904Y-87220123D01*
X118438129Y-87063343D01*
X118440355Y-86903956D01*
X118473494Y-86748047D01*
X118536290Y-86601534D01*
X118626343Y-86470014D01*
X118740233Y-86358484D01*
X118873608Y-86271206D01*
X119021401Y-86211495D01*
X119177978Y-86181625D01*
X119337370Y-86182739D01*
X119493517Y-86214790D01*
X119640456Y-86276558D01*
X119772607Y-86365695D01*
X119884924Y-86478798D01*
X119973134Y-86611566D01*
X120033876Y-86758937D01*
X120064751Y-86914862D01*
X120064750Y-86914875D01*
X120064835Y-86915301D01*
X120064835Y-86915301D01*
G37*
G36*
X120064835Y-89455301D02*
X120062293Y-89637364D01*
X120062196Y-89637790D01*
X120062196Y-89637801D01*
X120026980Y-89792803D01*
X119962149Y-89938417D01*
X119870263Y-90068673D01*
X119754833Y-90178596D01*
X119620249Y-90264006D01*
X119471634Y-90321650D01*
X119314660Y-90349329D01*
X119155298Y-90345990D01*
X118999612Y-90311760D01*
X118853547Y-90247947D01*
X118722659Y-90156976D01*
X118611931Y-90042314D01*
X118525582Y-89908327D01*
X118466904Y-89760123D01*
X118438129Y-89603343D01*
X118440355Y-89443956D01*
X118473494Y-89288047D01*
X118536290Y-89141534D01*
X118626343Y-89010014D01*
X118740233Y-88898484D01*
X118873608Y-88811206D01*
X119021401Y-88751495D01*
X119177978Y-88721625D01*
X119337370Y-88722739D01*
X119493517Y-88754790D01*
X119640456Y-88816558D01*
X119772607Y-88905695D01*
X119884924Y-89018798D01*
X119973134Y-89151566D01*
X120033876Y-89298937D01*
X120064751Y-89454862D01*
X120064750Y-89454875D01*
X120064835Y-89455301D01*
X120064835Y-89455301D01*
G37*
G36*
X120798800Y-97715800D02*
X120247200Y-97715800D01*
X120247200Y-97024200D01*
X120798800Y-97024200D01*
X120798800Y-97715800D01*
X120798800Y-97715800D01*
G37*
G36*
X120798800Y-99825800D02*
X120247200Y-99825800D01*
X120247200Y-99134200D01*
X120798800Y-99134200D01*
X120798800Y-99825800D01*
X120798800Y-99825800D01*
G37*
G36*
X120823800Y-102035800D02*
X120222200Y-102035800D01*
X120222200Y-101334200D01*
X120823800Y-101334200D01*
X120823800Y-102035800D01*
X120823800Y-102035800D01*
G37*
G36*
X120823800Y-103135800D02*
X120222200Y-103135800D01*
X120222200Y-102434200D01*
X120823800Y-102434200D01*
X120823800Y-103135800D01*
X120823800Y-103135800D01*
G37*
G36*
X121183800Y-105550800D02*
X119862200Y-105550800D01*
X119862200Y-104539200D01*
X121183800Y-104539200D01*
X121183800Y-105550800D01*
X121183800Y-105550800D01*
G37*
G36*
X121183800Y-108820800D02*
X119862200Y-108820800D01*
X119862200Y-107809200D01*
X121183800Y-107809200D01*
X121183800Y-108820800D01*
X121183800Y-108820800D01*
G37*
G36*
X122058985Y-119641964D02*
X122055698Y-119877337D01*
X122055602Y-119877758D01*
X122055602Y-119877776D01*
X122010046Y-120078290D01*
X121926231Y-120266544D01*
X121807440Y-120434940D01*
X121658209Y-120577050D01*
X121484217Y-120687469D01*
X121292086Y-120761992D01*
X121089148Y-120797776D01*
X120883121Y-120793460D01*
X120681850Y-120749207D01*
X120493014Y-120666708D01*
X120323799Y-120549099D01*
X120180647Y-120400861D01*
X120069018Y-120227646D01*
X119993156Y-120036042D01*
X119955956Y-119833354D01*
X119958833Y-119627295D01*
X119959004Y-119626491D01*
X119959347Y-119601836D01*
X119955956Y-119583357D01*
X119958833Y-119377295D01*
X119959004Y-119376491D01*
X119959347Y-119351836D01*
X119955956Y-119333357D01*
X119958833Y-119127295D01*
X119959004Y-119126491D01*
X119959347Y-119101836D01*
X119955956Y-119083357D01*
X119958833Y-118877295D01*
X119959004Y-118876491D01*
X119959347Y-118851836D01*
X119955956Y-118833357D01*
X119958833Y-118627295D01*
X119959004Y-118626491D01*
X119959347Y-118601836D01*
X119955956Y-118583357D01*
X119958833Y-118377295D01*
X119959004Y-118376491D01*
X119959347Y-118351836D01*
X119955956Y-118333357D01*
X119958833Y-118127295D01*
X119959004Y-118126491D01*
X119959347Y-118101836D01*
X119955956Y-118083357D01*
X119958833Y-117877295D01*
X119959004Y-117876491D01*
X119959347Y-117851836D01*
X119955956Y-117833357D01*
X119958833Y-117627298D01*
X120001677Y-117425733D01*
X120082857Y-117236326D01*
X120199284Y-117066288D01*
X120346520Y-116922104D01*
X120518950Y-116809269D01*
X120710019Y-116732073D01*
X120912443Y-116693457D01*
X121118509Y-116694897D01*
X121320376Y-116736333D01*
X121510343Y-116816189D01*
X121681189Y-116931425D01*
X121826396Y-117077650D01*
X121940431Y-117249286D01*
X122018961Y-117439814D01*
X122058901Y-117641525D01*
X122058900Y-117641538D01*
X122058985Y-117641964D01*
X122055811Y-117869239D01*
X122056937Y-117881604D01*
X122058901Y-117891521D01*
X122058900Y-117891538D01*
X122058985Y-117891964D01*
X122055811Y-118119239D01*
X122056937Y-118131604D01*
X122058901Y-118141521D01*
X122058900Y-118141538D01*
X122058985Y-118141964D01*
X122055811Y-118369239D01*
X122056937Y-118381604D01*
X122058901Y-118391521D01*
X122058900Y-118391538D01*
X122058985Y-118391964D01*
X122055811Y-118619239D01*
X122056937Y-118631604D01*
X122058901Y-118641521D01*
X122058900Y-118641538D01*
X122058985Y-118641964D01*
X122055811Y-118869239D01*
X122056937Y-118881604D01*
X122058901Y-118891521D01*
X122058900Y-118891538D01*
X122058985Y-118891964D01*
X122055811Y-119119239D01*
X122056937Y-119131604D01*
X122058901Y-119141521D01*
X122058900Y-119141538D01*
X122058985Y-119141964D01*
X122055811Y-119369239D01*
X122056937Y-119381604D01*
X122058901Y-119391521D01*
X122058900Y-119391538D01*
X122058985Y-119391964D01*
X122055811Y-119619239D01*
X122056937Y-119631604D01*
X122058901Y-119641521D01*
X122058900Y-119641538D01*
X122058985Y-119641964D01*
X122058985Y-119641964D01*
G37*
G36*
X122148800Y-75285800D02*
X120497200Y-75285800D01*
X120497200Y-73884200D01*
X122148800Y-73884200D01*
X122148800Y-75285800D01*
X122148800Y-75285800D01*
G37*
G36*
X122148800Y-79785800D02*
X120497200Y-79785800D01*
X120497200Y-78384200D01*
X122148800Y-78384200D01*
X122148800Y-79785800D01*
X122148800Y-79785800D01*
G37*
G36*
X123248800Y-84320800D02*
X122647200Y-84320800D01*
X122647200Y-83319200D01*
X123248800Y-83319200D01*
X123248800Y-84320800D01*
X123248800Y-84320800D01*
G37*
G36*
X123298800Y-111785800D02*
X122287200Y-111785800D01*
X122287200Y-110464200D01*
X123298800Y-110464200D01*
X123298800Y-111785800D01*
X123298800Y-111785800D01*
G37*
G36*
X123398280Y-96969580D02*
X122499120Y-96969580D01*
X122499120Y-96070420D01*
X123398280Y-96070420D01*
X123398280Y-96969580D01*
X123398280Y-96969580D01*
G37*
G36*
X123498800Y-82215800D02*
X122797200Y-82215800D01*
X122797200Y-81614200D01*
X123498800Y-81614200D01*
X123498800Y-82215800D01*
X123498800Y-82215800D01*
G37*
G36*
X123498800Y-86025800D02*
X122797200Y-86025800D01*
X122797200Y-85424200D01*
X123498800Y-85424200D01*
X123498800Y-86025800D01*
X123498800Y-86025800D01*
G37*
G36*
X123498800Y-87930800D02*
X122797200Y-87930800D01*
X122797200Y-87329200D01*
X123498800Y-87329200D01*
X123498800Y-87930800D01*
X123498800Y-87930800D01*
G37*
G36*
X123498800Y-93010800D02*
X122797200Y-93010800D01*
X122797200Y-92409200D01*
X123498800Y-92409200D01*
X123498800Y-93010800D01*
X123498800Y-93010800D01*
G37*
G36*
X123498800Y-94915800D02*
X122797200Y-94915800D01*
X122797200Y-94314200D01*
X123498800Y-94314200D01*
X123498800Y-94915800D01*
X123498800Y-94915800D01*
G37*
G36*
X123498800Y-98725800D02*
X122797200Y-98725800D01*
X122797200Y-98124200D01*
X123498800Y-98124200D01*
X123498800Y-98725800D01*
X123498800Y-98725800D01*
G37*
G36*
X123610370Y-106206290D02*
X122007630Y-106206290D01*
X122007630Y-100803710D01*
X123610370Y-100803710D01*
X123610370Y-106206290D01*
X123610370Y-106206290D01*
G37*
G36*
X124518800Y-109260800D02*
X123417200Y-109260800D01*
X123417200Y-107909200D01*
X124518800Y-107909200D01*
X124518800Y-109260800D01*
X124518800Y-109260800D01*
G37*
G36*
X124518800Y-120055800D02*
X123417200Y-120055800D01*
X123417200Y-118704200D01*
X124518800Y-118704200D01*
X124518800Y-120055800D01*
X124518800Y-120055800D01*
G37*
G36*
X124598800Y-82215800D02*
X123897200Y-82215800D01*
X123897200Y-81614200D01*
X124598800Y-81614200D01*
X124598800Y-82215800D01*
X124598800Y-82215800D01*
G37*
G36*
X124598800Y-86025800D02*
X123897200Y-86025800D01*
X123897200Y-85424200D01*
X124598800Y-85424200D01*
X124598800Y-86025800D01*
X124598800Y-86025800D01*
G37*
G36*
X124598800Y-87930800D02*
X123897200Y-87930800D01*
X123897200Y-87329200D01*
X124598800Y-87329200D01*
X124598800Y-87930800D01*
X124598800Y-87930800D01*
G37*
G36*
X124598800Y-93010800D02*
X123897200Y-93010800D01*
X123897200Y-92409200D01*
X124598800Y-92409200D01*
X124598800Y-93010800D01*
X124598800Y-93010800D01*
G37*
G36*
X124598800Y-94915800D02*
X123897200Y-94915800D01*
X123897200Y-94314200D01*
X124598800Y-94314200D01*
X124598800Y-94915800D01*
X124598800Y-94915800D01*
G37*
G36*
X124598800Y-98725800D02*
X123897200Y-98725800D01*
X123897200Y-98124200D01*
X124598800Y-98124200D01*
X124598800Y-98725800D01*
X124598800Y-98725800D01*
G37*
G36*
X124618800Y-90020800D02*
X123117200Y-90020800D01*
X123117200Y-88719200D01*
X124618800Y-88719200D01*
X124618800Y-90020800D01*
X124618800Y-90020800D01*
G37*
G36*
X124618800Y-91620800D02*
X123117200Y-91620800D01*
X123117200Y-90319200D01*
X124618800Y-90319200D01*
X124618800Y-91620800D01*
X124618800Y-91620800D01*
G37*
G36*
X124748800Y-84320800D02*
X124147200Y-84320800D01*
X124147200Y-83319200D01*
X124748800Y-83319200D01*
X124748800Y-84320800D01*
X124748800Y-84320800D01*
G37*
G36*
X124768800Y-111425800D02*
X124067200Y-111425800D01*
X124067200Y-110824200D01*
X124768800Y-110824200D01*
X124768800Y-111425800D01*
X124768800Y-111425800D01*
G37*
G36*
X124768800Y-113965800D02*
X124067200Y-113965800D01*
X124067200Y-113364200D01*
X124768800Y-113364200D01*
X124768800Y-113965800D01*
X124768800Y-113965800D01*
G37*
G36*
X124768800Y-116505800D02*
X124067200Y-116505800D01*
X124067200Y-115904200D01*
X124768800Y-115904200D01*
X124768800Y-116505800D01*
X124768800Y-116505800D01*
G37*
G36*
X124896880Y-96969580D02*
X123997720Y-96969580D01*
X123997720Y-96070420D01*
X124896880Y-96070420D01*
X124896880Y-96969580D01*
X124896880Y-96969580D01*
G37*
G36*
X125868800Y-111425800D02*
X125167200Y-111425800D01*
X125167200Y-110824200D01*
X125868800Y-110824200D01*
X125868800Y-111425800D01*
X125868800Y-111425800D01*
G37*
G36*
X125868800Y-113965800D02*
X125167200Y-113965800D01*
X125167200Y-113364200D01*
X125868800Y-113364200D01*
X125868800Y-113965800D01*
X125868800Y-113965800D01*
G37*
G36*
X125868800Y-116505800D02*
X125167200Y-116505800D01*
X125167200Y-115904200D01*
X125868800Y-115904200D01*
X125868800Y-116505800D01*
X125868800Y-116505800D01*
G37*
G36*
X126038800Y-80945800D02*
X125337200Y-80945800D01*
X125337200Y-80344200D01*
X126038800Y-80344200D01*
X126038800Y-80945800D01*
X126038800Y-80945800D01*
G37*
G36*
X126038800Y-82215800D02*
X125337200Y-82215800D01*
X125337200Y-81614200D01*
X126038800Y-81614200D01*
X126038800Y-82215800D01*
X126038800Y-82215800D01*
G37*
G36*
X126038800Y-84120800D02*
X125337200Y-84120800D01*
X125337200Y-83519200D01*
X126038800Y-83519200D01*
X126038800Y-84120800D01*
X126038800Y-84120800D01*
G37*
G36*
X126038800Y-86025800D02*
X125337200Y-86025800D01*
X125337200Y-85424200D01*
X126038800Y-85424200D01*
X126038800Y-86025800D01*
X126038800Y-86025800D01*
G37*
G36*
X126038800Y-87930800D02*
X125337200Y-87930800D01*
X125337200Y-87329200D01*
X126038800Y-87329200D01*
X126038800Y-87930800D01*
X126038800Y-87930800D01*
G37*
G36*
X126038800Y-93010800D02*
X125337200Y-93010800D01*
X125337200Y-92409200D01*
X126038800Y-92409200D01*
X126038800Y-93010800D01*
X126038800Y-93010800D01*
G37*
G36*
X126038800Y-94915800D02*
X125337200Y-94915800D01*
X125337200Y-94314200D01*
X126038800Y-94314200D01*
X126038800Y-94915800D01*
X126038800Y-94915800D01*
G37*
G36*
X126038800Y-96820800D02*
X125337200Y-96820800D01*
X125337200Y-96219200D01*
X126038800Y-96219200D01*
X126038800Y-96820800D01*
X126038800Y-96820800D01*
G37*
G36*
X126038800Y-98725800D02*
X125337200Y-98725800D01*
X125337200Y-98124200D01*
X126038800Y-98124200D01*
X126038800Y-98725800D01*
X126038800Y-98725800D01*
G37*
G36*
X126518800Y-109260800D02*
X125417200Y-109260800D01*
X125417200Y-107909200D01*
X126518800Y-107909200D01*
X126518800Y-109260800D01*
X126518800Y-109260800D01*
G37*
G36*
X126518800Y-120055800D02*
X125417200Y-120055800D01*
X125417200Y-118704200D01*
X126518800Y-118704200D01*
X126518800Y-120055800D01*
X126518800Y-120055800D01*
G37*
G36*
X126818800Y-90020800D02*
X125317200Y-90020800D01*
X125317200Y-88719200D01*
X126818800Y-88719200D01*
X126818800Y-90020800D01*
X126818800Y-90020800D01*
G37*
G36*
X126818800Y-91620800D02*
X125317200Y-91620800D01*
X125317200Y-90319200D01*
X126818800Y-90319200D01*
X126818800Y-91620800D01*
X126818800Y-91620800D01*
G37*
G36*
X127050890Y-123620771D02*
X127044375Y-124087307D01*
X127044278Y-124087733D01*
X127044278Y-124087745D01*
X126953885Y-124485616D01*
X126787751Y-124858758D01*
X126552299Y-125192532D01*
X126256506Y-125474212D01*
X125911634Y-125693074D01*
X125530814Y-125840785D01*
X125128565Y-125911713D01*
X124720197Y-125903158D01*
X124321262Y-125815446D01*
X123946967Y-125651922D01*
X123611564Y-125418809D01*
X123327822Y-125124987D01*
X123106559Y-124781653D01*
X122956194Y-124401876D01*
X122882460Y-124000128D01*
X122888163Y-123591706D01*
X122973085Y-123192177D01*
X123133995Y-122816748D01*
X123364759Y-122479724D01*
X123656596Y-122193936D01*
X123998374Y-121970283D01*
X124377094Y-121817270D01*
X124778318Y-121740732D01*
X125186764Y-121743585D01*
X125586883Y-121825716D01*
X125963422Y-121983999D01*
X126302053Y-122212409D01*
X126589868Y-122502241D01*
X126815902Y-122842448D01*
X126971555Y-123220090D01*
X127050805Y-123620332D01*
X127050804Y-123620341D01*
X127050890Y-123620771D01*
X127050890Y-123620771D01*
G37*
G36*
X127138800Y-80945800D02*
X126437200Y-80945800D01*
X126437200Y-80344200D01*
X127138800Y-80344200D01*
X127138800Y-80945800D01*
X127138800Y-80945800D01*
G37*
G36*
X127138800Y-82215800D02*
X126437200Y-82215800D01*
X126437200Y-81614200D01*
X127138800Y-81614200D01*
X127138800Y-82215800D01*
X127138800Y-82215800D01*
G37*
G36*
X127138800Y-84120800D02*
X126437200Y-84120800D01*
X126437200Y-83519200D01*
X127138800Y-83519200D01*
X127138800Y-84120800D01*
X127138800Y-84120800D01*
G37*
G36*
X127138800Y-86025800D02*
X126437200Y-86025800D01*
X126437200Y-85424200D01*
X127138800Y-85424200D01*
X127138800Y-86025800D01*
X127138800Y-86025800D01*
G37*
G36*
X127138800Y-87930800D02*
X126437200Y-87930800D01*
X126437200Y-87329200D01*
X127138800Y-87329200D01*
X127138800Y-87930800D01*
X127138800Y-87930800D01*
G37*
G36*
X127138800Y-93010800D02*
X126437200Y-93010800D01*
X126437200Y-92409200D01*
X127138800Y-92409200D01*
X127138800Y-93010800D01*
X127138800Y-93010800D01*
G37*
G36*
X127138800Y-94915800D02*
X126437200Y-94915800D01*
X126437200Y-94314200D01*
X127138800Y-94314200D01*
X127138800Y-94915800D01*
X127138800Y-94915800D01*
G37*
G36*
X127138800Y-96820800D02*
X126437200Y-96820800D01*
X126437200Y-96219200D01*
X127138800Y-96219200D01*
X127138800Y-96820800D01*
X127138800Y-96820800D01*
G37*
G36*
X127138800Y-98725800D02*
X126437200Y-98725800D01*
X126437200Y-98124200D01*
X127138800Y-98124200D01*
X127138800Y-98725800D01*
X127138800Y-98725800D01*
G37*
G36*
X127928370Y-106206290D02*
X126325630Y-106206290D01*
X126325630Y-100803710D01*
X127928370Y-100803710D01*
X127928370Y-106206290D01*
X127928370Y-106206290D01*
G37*
G36*
X128203800Y-114415800D02*
X127452200Y-114415800D01*
X127452200Y-113254200D01*
X128203800Y-113254200D01*
X128203800Y-114415800D01*
X128203800Y-114415800D01*
G37*
G36*
X128203800Y-116615800D02*
X127452200Y-116615800D01*
X127452200Y-115454200D01*
X128203800Y-115454200D01*
X128203800Y-116615800D01*
X128203800Y-116615800D01*
G37*
G36*
X128320890Y-75360771D02*
X128314375Y-75827307D01*
X128314278Y-75827733D01*
X128314278Y-75827745D01*
X128223885Y-76225616D01*
X128057751Y-76598758D01*
X127822299Y-76932532D01*
X127526506Y-77214212D01*
X127181634Y-77433074D01*
X126800814Y-77580785D01*
X126398565Y-77651713D01*
X125990197Y-77643158D01*
X125591262Y-77555446D01*
X125216967Y-77391922D01*
X124881564Y-77158809D01*
X124597822Y-76864987D01*
X124376559Y-76521653D01*
X124226194Y-76141876D01*
X124152460Y-75740128D01*
X124158163Y-75331706D01*
X124243085Y-74932177D01*
X124403995Y-74556748D01*
X124634759Y-74219724D01*
X124926596Y-73933936D01*
X125268374Y-73710283D01*
X125647094Y-73557270D01*
X126048318Y-73480732D01*
X126456764Y-73483585D01*
X126856883Y-73565716D01*
X127233422Y-73723999D01*
X127572053Y-73952409D01*
X127859868Y-74242241D01*
X128085902Y-74582448D01*
X128241555Y-74960090D01*
X128320805Y-75360332D01*
X128320804Y-75360341D01*
X128320890Y-75360771D01*
X128320890Y-75360771D01*
G37*
G36*
X128578800Y-111425800D02*
X127877200Y-111425800D01*
X127877200Y-110824200D01*
X128578800Y-110824200D01*
X128578800Y-111425800D01*
X128578800Y-111425800D01*
G37*
G36*
X129153800Y-114415800D02*
X128402200Y-114415800D01*
X128402200Y-113254200D01*
X129153800Y-113254200D01*
X129153800Y-114415800D01*
X129153800Y-114415800D01*
G37*
G36*
X129153800Y-116615800D02*
X128402200Y-116615800D01*
X128402200Y-115454200D01*
X129153800Y-115454200D01*
X129153800Y-116615800D01*
X129153800Y-116615800D01*
G37*
G36*
X129228819Y-105746797D02*
X129227409Y-105847774D01*
X129227312Y-105848200D01*
X129227312Y-105848212D01*
X129207825Y-105933984D01*
X129171869Y-106014744D01*
X129120905Y-106086990D01*
X129056884Y-106147956D01*
X128982241Y-106195326D01*
X128899814Y-106227298D01*
X128812753Y-106242649D01*
X128724367Y-106240797D01*
X128638018Y-106221812D01*
X128557007Y-106186420D01*
X128484413Y-106135965D01*
X128423001Y-106072371D01*
X128375109Y-105998057D01*
X128342564Y-105915859D01*
X128326605Y-105828905D01*
X128327840Y-105740504D01*
X128346221Y-105654031D01*
X128381047Y-105572774D01*
X128430993Y-105499829D01*
X128494159Y-105437973D01*
X128568135Y-105389564D01*
X128650105Y-105356446D01*
X128736946Y-105339880D01*
X128825347Y-105340498D01*
X128911953Y-105358276D01*
X128993447Y-105392532D01*
X129066743Y-105441971D01*
X129129039Y-105504704D01*
X129177959Y-105578333D01*
X129211649Y-105660073D01*
X129228735Y-105746358D01*
X129228734Y-105746371D01*
X129228819Y-105746797D01*
X129228819Y-105746797D01*
G37*
G36*
X129678800Y-111425800D02*
X128977200Y-111425800D01*
X128977200Y-110824200D01*
X129678800Y-110824200D01*
X129678800Y-111425800D01*
X129678800Y-111425800D01*
G37*
G36*
X130073800Y-120790800D02*
X128752200Y-120790800D01*
X128752200Y-119779200D01*
X130073800Y-119779200D01*
X130073800Y-120790800D01*
X130073800Y-120790800D01*
G37*
G36*
X130073800Y-124060800D02*
X128752200Y-124060800D01*
X128752200Y-123049200D01*
X130073800Y-123049200D01*
X130073800Y-124060800D01*
X130073800Y-124060800D01*
G37*
G36*
X130103800Y-114415800D02*
X129352200Y-114415800D01*
X129352200Y-113254200D01*
X130103800Y-113254200D01*
X130103800Y-114415800D01*
X130103800Y-114415800D01*
G37*
G36*
X130103800Y-116615800D02*
X129352200Y-116615800D01*
X129352200Y-115454200D01*
X130103800Y-115454200D01*
X130103800Y-116615800D01*
X130103800Y-116615800D01*
G37*
G36*
X130413800Y-109200800D02*
X128862200Y-109200800D01*
X128862200Y-108649200D01*
X128862200Y-108550800D01*
X128862200Y-107999200D01*
X128862200Y-107900800D01*
X128862200Y-107349200D01*
X128862200Y-107250800D01*
X128862200Y-106699200D01*
X130413800Y-106699200D01*
X130413800Y-107250800D01*
X130413800Y-107349200D01*
X130413800Y-107900800D01*
X130413800Y-107999200D01*
X130413800Y-108550800D01*
X130413800Y-108649200D01*
X130413800Y-109200800D01*
X130413800Y-109200800D01*
G37*
G36*
X130443800Y-84388300D02*
X129142200Y-84388300D01*
X129142200Y-83886700D01*
X130443800Y-83886700D01*
X130443800Y-84388300D01*
X130443800Y-84388300D01*
G37*
G36*
X130443800Y-85023300D02*
X129142200Y-85023300D01*
X129142200Y-84521700D01*
X130443800Y-84521700D01*
X130443800Y-85023300D01*
X130443800Y-85023300D01*
G37*
G36*
X130443800Y-85658300D02*
X129142200Y-85658300D01*
X129142200Y-85156700D01*
X130443800Y-85156700D01*
X130443800Y-85658300D01*
X130443800Y-85658300D01*
G37*
G36*
X130443800Y-86293300D02*
X129142200Y-86293300D01*
X129142200Y-85791700D01*
X130443800Y-85791700D01*
X130443800Y-86293300D01*
X130443800Y-86293300D01*
G37*
G36*
X130443800Y-86928300D02*
X129142200Y-86928300D01*
X129142200Y-86426700D01*
X130443800Y-86426700D01*
X130443800Y-86928300D01*
X130443800Y-86928300D01*
G37*
G36*
X130443800Y-87563300D02*
X129142200Y-87563300D01*
X129142200Y-87061700D01*
X130443800Y-87061700D01*
X130443800Y-87563300D01*
X130443800Y-87563300D01*
G37*
G36*
X130443800Y-88198300D02*
X129142200Y-88198300D01*
X129142200Y-87696700D01*
X130443800Y-87696700D01*
X130443800Y-88198300D01*
X130443800Y-88198300D01*
G37*
G36*
X130443800Y-88833300D02*
X129142200Y-88833300D01*
X129142200Y-88331700D01*
X130443800Y-88331700D01*
X130443800Y-88833300D01*
X130443800Y-88833300D01*
G37*
G36*
X130443800Y-89468300D02*
X129142200Y-89468300D01*
X129142200Y-88966700D01*
X130443800Y-88966700D01*
X130443800Y-89468300D01*
X130443800Y-89468300D01*
G37*
G36*
X130443800Y-90103300D02*
X129142200Y-90103300D01*
X129142200Y-89601700D01*
X130443800Y-89601700D01*
X130443800Y-90103300D01*
X130443800Y-90103300D01*
G37*
G36*
X130443800Y-90738300D02*
X129142200Y-90738300D01*
X129142200Y-90236700D01*
X130443800Y-90236700D01*
X130443800Y-90738300D01*
X130443800Y-90738300D01*
G37*
G36*
X130443800Y-91373300D02*
X129142200Y-91373300D01*
X129142200Y-90871700D01*
X130443800Y-90871700D01*
X130443800Y-91373300D01*
X130443800Y-91373300D01*
G37*
G36*
X130443800Y-92008300D02*
X129142200Y-92008300D01*
X129142200Y-91506700D01*
X130443800Y-91506700D01*
X130443800Y-92008300D01*
X130443800Y-92008300D01*
G37*
G36*
X130443800Y-92643300D02*
X129142200Y-92643300D01*
X129142200Y-92141700D01*
X130443800Y-92141700D01*
X130443800Y-92643300D01*
X130443800Y-92643300D01*
G37*
G36*
X130443800Y-93278300D02*
X129142200Y-93278300D01*
X129142200Y-92776700D01*
X130443800Y-92776700D01*
X130443800Y-93278300D01*
X130443800Y-93278300D01*
G37*
G36*
X130443800Y-93913300D02*
X129142200Y-93913300D01*
X129142200Y-93411700D01*
X130443800Y-93411700D01*
X130443800Y-93913300D01*
X130443800Y-93913300D01*
G37*
G36*
X130443800Y-94548300D02*
X129142200Y-94548300D01*
X129142200Y-94046700D01*
X130443800Y-94046700D01*
X130443800Y-94548300D01*
X130443800Y-94548300D01*
G37*
G36*
X130443800Y-95183300D02*
X129142200Y-95183300D01*
X129142200Y-94681700D01*
X130443800Y-94681700D01*
X130443800Y-95183300D01*
X130443800Y-95183300D01*
G37*
G36*
X130443800Y-95818300D02*
X129142200Y-95818300D01*
X129142200Y-95316700D01*
X130443800Y-95316700D01*
X130443800Y-95818300D01*
X130443800Y-95818300D01*
G37*
G36*
X130443800Y-96453300D02*
X129142200Y-96453300D01*
X129142200Y-95951700D01*
X130443800Y-95951700D01*
X130443800Y-96453300D01*
X130443800Y-96453300D01*
G37*
G36*
X130443800Y-97088300D02*
X129142200Y-97088300D01*
X129142200Y-96586700D01*
X130443800Y-96586700D01*
X130443800Y-97088300D01*
X130443800Y-97088300D01*
G37*
G36*
X130443800Y-97723300D02*
X129142200Y-97723300D01*
X129142200Y-97221700D01*
X130443800Y-97221700D01*
X130443800Y-97723300D01*
X130443800Y-97723300D01*
G37*
G36*
X130443800Y-98358300D02*
X129142200Y-98358300D01*
X129142200Y-97856700D01*
X130443800Y-97856700D01*
X130443800Y-98358300D01*
X130443800Y-98358300D01*
G37*
G36*
X130443800Y-98993300D02*
X129142200Y-98993300D01*
X129142200Y-98491700D01*
X130443800Y-98491700D01*
X130443800Y-98993300D01*
X130443800Y-98993300D01*
G37*
G36*
X130443800Y-99628300D02*
X129142200Y-99628300D01*
X129142200Y-99126700D01*
X130443800Y-99126700D01*
X130443800Y-99628300D01*
X130443800Y-99628300D01*
G37*
G36*
X130443800Y-100263300D02*
X129142200Y-100263300D01*
X129142200Y-99761700D01*
X130443800Y-99761700D01*
X130443800Y-100263300D01*
X130443800Y-100263300D01*
G37*
G36*
X130443800Y-100898300D02*
X129142200Y-100898300D01*
X129142200Y-100396700D01*
X130443800Y-100396700D01*
X130443800Y-100898300D01*
X130443800Y-100898300D01*
G37*
G36*
X130443800Y-101533300D02*
X129142200Y-101533300D01*
X129142200Y-101031700D01*
X130443800Y-101031700D01*
X130443800Y-101533300D01*
X130443800Y-101533300D01*
G37*
G36*
X130483800Y-105075800D02*
X129782200Y-105075800D01*
X129782200Y-104474200D01*
X130483800Y-104474200D01*
X130483800Y-105075800D01*
X130483800Y-105075800D01*
G37*
G36*
X130498819Y-105746797D02*
X130497409Y-105847774D01*
X130497312Y-105848200D01*
X130497312Y-105848212D01*
X130477825Y-105933984D01*
X130441869Y-106014744D01*
X130390905Y-106086990D01*
X130326884Y-106147956D01*
X130252241Y-106195326D01*
X130169814Y-106227298D01*
X130082753Y-106242649D01*
X129994367Y-106240797D01*
X129908018Y-106221812D01*
X129827007Y-106186420D01*
X129754413Y-106135965D01*
X129693001Y-106072371D01*
X129645109Y-105998057D01*
X129612564Y-105915859D01*
X129596605Y-105828905D01*
X129597840Y-105740504D01*
X129616221Y-105654031D01*
X129651047Y-105572774D01*
X129700993Y-105499829D01*
X129764159Y-105437973D01*
X129838135Y-105389564D01*
X129920105Y-105356446D01*
X130006946Y-105339880D01*
X130095347Y-105340498D01*
X130181953Y-105358276D01*
X130263447Y-105392532D01*
X130336743Y-105441971D01*
X130399039Y-105504704D01*
X130447959Y-105578333D01*
X130481649Y-105660073D01*
X130498735Y-105746358D01*
X130498734Y-105746371D01*
X130498819Y-105746797D01*
X130498819Y-105746797D01*
G37*
G36*
X130708439Y-75475338D02*
X130705579Y-75680159D01*
X130705483Y-75680580D01*
X130705483Y-75680597D01*
X130665854Y-75855027D01*
X130592916Y-76018847D01*
X130489549Y-76165380D01*
X130359687Y-76289046D01*
X130208280Y-76385131D01*
X130041088Y-76449981D01*
X129864493Y-76481120D01*
X129685209Y-76477364D01*
X129510065Y-76438856D01*
X129345740Y-76367065D01*
X129198491Y-76264723D01*
X129073920Y-76135727D01*
X128976781Y-75984996D01*
X128910766Y-75818263D01*
X128878395Y-75641886D01*
X128880899Y-75462576D01*
X128918181Y-75287176D01*
X128988825Y-75122352D01*
X129090138Y-74974387D01*
X129218259Y-74848922D01*
X129368308Y-74750733D01*
X129534578Y-74683555D01*
X129710726Y-74649953D01*
X129890042Y-74651206D01*
X130065706Y-74687264D01*
X130231014Y-74756753D01*
X130379683Y-74857032D01*
X130506040Y-74984275D01*
X130605276Y-75133635D01*
X130673611Y-75299429D01*
X130708355Y-75474900D01*
X130708354Y-75474912D01*
X130708439Y-75475338D01*
X130708439Y-75475338D01*
G37*
G36*
X130708439Y-78015338D02*
X130705579Y-78220159D01*
X130705483Y-78220580D01*
X130705483Y-78220597D01*
X130665854Y-78395027D01*
X130592916Y-78558847D01*
X130489549Y-78705380D01*
X130359687Y-78829046D01*
X130208280Y-78925131D01*
X130041088Y-78989981D01*
X129864493Y-79021120D01*
X129685209Y-79017364D01*
X129510065Y-78978856D01*
X129345740Y-78907065D01*
X129198491Y-78804723D01*
X129073920Y-78675727D01*
X128976781Y-78524996D01*
X128910766Y-78358263D01*
X128878395Y-78181886D01*
X128880899Y-78002576D01*
X128918181Y-77827176D01*
X128988825Y-77662352D01*
X129090138Y-77514387D01*
X129218259Y-77388922D01*
X129368308Y-77290733D01*
X129534578Y-77223555D01*
X129710726Y-77189953D01*
X129890042Y-77191206D01*
X130065706Y-77227264D01*
X130231014Y-77296753D01*
X130379683Y-77397032D01*
X130506040Y-77524275D01*
X130605276Y-77673635D01*
X130673611Y-77839429D01*
X130708355Y-78014900D01*
X130708354Y-78014912D01*
X130708439Y-78015338D01*
X130708439Y-78015338D01*
G37*
G36*
X131583800Y-105075800D02*
X130882200Y-105075800D01*
X130882200Y-104474200D01*
X131583800Y-104474200D01*
X131583800Y-105075800D01*
X131583800Y-105075800D01*
G37*
G36*
X131768819Y-105746797D02*
X131767409Y-105847774D01*
X131767312Y-105848200D01*
X131767312Y-105848212D01*
X131747825Y-105933984D01*
X131711869Y-106014744D01*
X131660905Y-106086990D01*
X131596884Y-106147956D01*
X131522241Y-106195326D01*
X131439814Y-106227298D01*
X131352753Y-106242649D01*
X131264367Y-106240797D01*
X131178018Y-106221812D01*
X131097007Y-106186420D01*
X131024413Y-106135965D01*
X130963001Y-106072371D01*
X130915109Y-105998057D01*
X130882564Y-105915859D01*
X130866605Y-105828905D01*
X130867840Y-105740504D01*
X130886221Y-105654031D01*
X130921047Y-105572774D01*
X130970993Y-105499829D01*
X131034159Y-105437973D01*
X131108135Y-105389564D01*
X131190105Y-105356446D01*
X131276946Y-105339880D01*
X131365347Y-105340498D01*
X131451953Y-105358276D01*
X131533447Y-105392532D01*
X131606743Y-105441971D01*
X131669039Y-105504704D01*
X131717959Y-105578333D01*
X131751649Y-105660073D01*
X131768735Y-105746358D01*
X131768734Y-105746371D01*
X131768819Y-105746797D01*
X131768819Y-105746797D01*
G37*
G36*
X132388800Y-111425800D02*
X131687200Y-111425800D01*
X131687200Y-110824200D01*
X132388800Y-110824200D01*
X132388800Y-111425800D01*
X132388800Y-111425800D01*
G37*
G36*
X132388800Y-113965800D02*
X131687200Y-113965800D01*
X131687200Y-113364200D01*
X132388800Y-113364200D01*
X132388800Y-113965800D01*
X132388800Y-113965800D01*
G37*
G36*
X132500370Y-123986290D02*
X130897630Y-123986290D01*
X130897630Y-118583710D01*
X132500370Y-118583710D01*
X132500370Y-123986290D01*
X132500370Y-123986290D01*
G37*
G36*
X133038819Y-105746797D02*
X133037409Y-105847774D01*
X133037312Y-105848200D01*
X133037312Y-105848212D01*
X133017825Y-105933984D01*
X132981869Y-106014744D01*
X132930905Y-106086990D01*
X132866884Y-106147956D01*
X132792241Y-106195326D01*
X132709814Y-106227298D01*
X132622753Y-106242649D01*
X132534367Y-106240797D01*
X132448018Y-106221812D01*
X132367007Y-106186420D01*
X132294413Y-106135965D01*
X132233001Y-106072371D01*
X132185109Y-105998057D01*
X132152564Y-105915859D01*
X132136605Y-105828905D01*
X132137840Y-105740504D01*
X132156221Y-105654031D01*
X132191047Y-105572774D01*
X132240993Y-105499829D01*
X132304159Y-105437973D01*
X132378135Y-105389564D01*
X132460105Y-105356446D01*
X132546946Y-105339880D01*
X132635347Y-105340498D01*
X132721953Y-105358276D01*
X132803447Y-105392532D01*
X132876743Y-105441971D01*
X132939039Y-105504704D01*
X132987959Y-105578333D01*
X133021649Y-105660073D01*
X133038735Y-105746358D01*
X133038734Y-105746371D01*
X133038819Y-105746797D01*
X133038819Y-105746797D01*
G37*
G36*
X133248439Y-75475338D02*
X133245579Y-75680159D01*
X133245483Y-75680580D01*
X133245483Y-75680597D01*
X133205854Y-75855027D01*
X133132916Y-76018847D01*
X133029549Y-76165380D01*
X132899687Y-76289046D01*
X132748280Y-76385131D01*
X132581088Y-76449981D01*
X132404493Y-76481120D01*
X132225209Y-76477364D01*
X132050065Y-76438856D01*
X131885740Y-76367065D01*
X131738491Y-76264723D01*
X131613920Y-76135727D01*
X131516781Y-75984996D01*
X131450766Y-75818263D01*
X131418395Y-75641886D01*
X131420899Y-75462576D01*
X131458181Y-75287176D01*
X131528825Y-75122352D01*
X131630138Y-74974387D01*
X131758259Y-74848922D01*
X131908308Y-74750733D01*
X132074578Y-74683555D01*
X132250726Y-74649953D01*
X132430042Y-74651206D01*
X132605706Y-74687264D01*
X132771014Y-74756753D01*
X132919683Y-74857032D01*
X133046040Y-74984275D01*
X133145276Y-75133635D01*
X133213611Y-75299429D01*
X133248355Y-75474900D01*
X133248354Y-75474912D01*
X133248439Y-75475338D01*
X133248439Y-75475338D01*
G37*
G36*
X133248439Y-78015338D02*
X133245579Y-78220159D01*
X133245483Y-78220580D01*
X133245483Y-78220597D01*
X133205854Y-78395027D01*
X133132916Y-78558847D01*
X133029549Y-78705380D01*
X132899687Y-78829046D01*
X132748280Y-78925131D01*
X132581088Y-78989981D01*
X132404493Y-79021120D01*
X132225209Y-79017364D01*
X132050065Y-78978856D01*
X131885740Y-78907065D01*
X131738491Y-78804723D01*
X131613920Y-78675727D01*
X131516781Y-78524996D01*
X131450766Y-78358263D01*
X131418395Y-78181886D01*
X131420899Y-78002576D01*
X131458181Y-77827176D01*
X131528825Y-77662352D01*
X131630138Y-77514387D01*
X131758259Y-77388922D01*
X131908308Y-77290733D01*
X132074578Y-77223555D01*
X132250726Y-77189953D01*
X132430042Y-77191206D01*
X132605706Y-77227264D01*
X132771014Y-77296753D01*
X132919683Y-77397032D01*
X133046040Y-77524275D01*
X133145276Y-77673635D01*
X133213611Y-77839429D01*
X133248355Y-78014900D01*
X133248354Y-78014912D01*
X133248439Y-78015338D01*
X133248439Y-78015338D01*
G37*
G36*
X133408800Y-116880800D02*
X132307200Y-116880800D01*
X132307200Y-115529200D01*
X133408800Y-115529200D01*
X133408800Y-116880800D01*
X133408800Y-116880800D01*
G37*
G36*
X133488800Y-111425800D02*
X132787200Y-111425800D01*
X132787200Y-110824200D01*
X133488800Y-110824200D01*
X133488800Y-111425800D01*
X133488800Y-111425800D01*
G37*
G36*
X133488800Y-113965800D02*
X132787200Y-113965800D01*
X132787200Y-113364200D01*
X133488800Y-113364200D01*
X133488800Y-113965800D01*
X133488800Y-113965800D01*
G37*
G36*
X134293800Y-105075800D02*
X133592200Y-105075800D01*
X133592200Y-104474200D01*
X134293800Y-104474200D01*
X134293800Y-105075800D01*
X134293800Y-105075800D01*
G37*
G36*
X135053800Y-113940800D02*
X134362200Y-113940800D01*
X134362200Y-113389200D01*
X135053800Y-113389200D01*
X135053800Y-113940800D01*
X135053800Y-113940800D01*
G37*
G36*
X135393800Y-105075800D02*
X134692200Y-105075800D01*
X134692200Y-104474200D01*
X135393800Y-104474200D01*
X135393800Y-105075800D01*
X135393800Y-105075800D01*
G37*
G36*
X135408800Y-116880800D02*
X134307200Y-116880800D01*
X134307200Y-115529200D01*
X135408800Y-115529200D01*
X135408800Y-116880800D01*
X135408800Y-116880800D01*
G37*
G36*
X135563800Y-111425800D02*
X134862200Y-111425800D01*
X134862200Y-110824200D01*
X135563800Y-110824200D01*
X135563800Y-111425800D01*
X135563800Y-111425800D01*
G37*
G36*
X135788439Y-75475338D02*
X135785579Y-75680159D01*
X135785483Y-75680580D01*
X135785483Y-75680597D01*
X135745854Y-75855027D01*
X135672916Y-76018847D01*
X135569549Y-76165380D01*
X135439687Y-76289046D01*
X135288280Y-76385131D01*
X135121088Y-76449981D01*
X134944493Y-76481120D01*
X134765209Y-76477364D01*
X134590065Y-76438856D01*
X134425740Y-76367065D01*
X134278491Y-76264723D01*
X134153920Y-76135727D01*
X134056781Y-75984996D01*
X133990766Y-75818263D01*
X133958395Y-75641886D01*
X133960899Y-75462576D01*
X133998181Y-75287176D01*
X134068825Y-75122352D01*
X134170138Y-74974387D01*
X134298259Y-74848922D01*
X134448308Y-74750733D01*
X134614578Y-74683555D01*
X134790726Y-74649953D01*
X134970042Y-74651206D01*
X135145706Y-74687264D01*
X135311014Y-74756753D01*
X135459683Y-74857032D01*
X135586040Y-74984275D01*
X135685276Y-75133635D01*
X135753611Y-75299429D01*
X135788355Y-75474900D01*
X135788354Y-75474912D01*
X135788439Y-75475338D01*
X135788439Y-75475338D01*
G37*
G36*
X135788439Y-78015338D02*
X135785579Y-78220159D01*
X135785483Y-78220580D01*
X135785483Y-78220597D01*
X135745854Y-78395027D01*
X135672916Y-78558847D01*
X135569549Y-78705380D01*
X135439687Y-78829046D01*
X135288280Y-78925131D01*
X135121088Y-78989981D01*
X134944493Y-79021120D01*
X134765209Y-79017364D01*
X134590065Y-78978856D01*
X134425740Y-78907065D01*
X134278491Y-78804723D01*
X134153920Y-78675727D01*
X134056781Y-78524996D01*
X133990766Y-78358263D01*
X133958395Y-78181886D01*
X133960899Y-78002576D01*
X133998181Y-77827176D01*
X134068825Y-77662352D01*
X134170138Y-77514387D01*
X134298259Y-77388922D01*
X134448308Y-77290733D01*
X134614578Y-77223555D01*
X134790726Y-77189953D01*
X134970042Y-77191206D01*
X135145706Y-77227264D01*
X135311014Y-77296753D01*
X135459683Y-77397032D01*
X135586040Y-77524275D01*
X135685276Y-77673635D01*
X135753611Y-77839429D01*
X135788355Y-78014900D01*
X135788354Y-78014912D01*
X135788439Y-78015338D01*
X135788439Y-78015338D01*
G37*
G36*
X136313800Y-109200800D02*
X134762200Y-109200800D01*
X134762200Y-108649200D01*
X134762200Y-108550800D01*
X134762200Y-107999200D01*
X134762200Y-107900800D01*
X134762200Y-107349200D01*
X134762200Y-107250800D01*
X134762200Y-106699200D01*
X136313800Y-106699200D01*
X136313800Y-107250800D01*
X136313800Y-107349200D01*
X136313800Y-107900800D01*
X136313800Y-107999200D01*
X136313800Y-108550800D01*
X136313800Y-108649200D01*
X136313800Y-109200800D01*
X136313800Y-109200800D01*
G37*
G36*
X136663800Y-111425800D02*
X135962200Y-111425800D01*
X135962200Y-110824200D01*
X136663800Y-110824200D01*
X136663800Y-111425800D01*
X136663800Y-111425800D01*
G37*
G36*
X136818370Y-123986290D02*
X135215630Y-123986290D01*
X135215630Y-118583710D01*
X136818370Y-118583710D01*
X136818370Y-123986290D01*
X136818370Y-123986290D01*
G37*
G36*
X137163800Y-113940800D02*
X136472200Y-113940800D01*
X136472200Y-113389200D01*
X137163800Y-113389200D01*
X137163800Y-113940800D01*
X137163800Y-113940800D01*
G37*
G36*
X138328439Y-75475338D02*
X138325579Y-75680159D01*
X138325483Y-75680580D01*
X138325483Y-75680597D01*
X138285854Y-75855027D01*
X138212916Y-76018847D01*
X138109549Y-76165380D01*
X137979687Y-76289046D01*
X137828280Y-76385131D01*
X137661088Y-76449981D01*
X137484493Y-76481120D01*
X137305209Y-76477364D01*
X137130065Y-76438856D01*
X136965740Y-76367065D01*
X136818491Y-76264723D01*
X136693920Y-76135727D01*
X136596781Y-75984996D01*
X136530766Y-75818263D01*
X136498395Y-75641886D01*
X136500899Y-75462576D01*
X136538181Y-75287176D01*
X136608825Y-75122352D01*
X136710138Y-74974387D01*
X136838259Y-74848922D01*
X136988308Y-74750733D01*
X137154578Y-74683555D01*
X137330726Y-74649953D01*
X137510042Y-74651206D01*
X137685706Y-74687264D01*
X137851014Y-74756753D01*
X137999683Y-74857032D01*
X138126040Y-74984275D01*
X138225276Y-75133635D01*
X138293611Y-75299429D01*
X138328355Y-75474900D01*
X138328354Y-75474912D01*
X138328439Y-75475338D01*
X138328439Y-75475338D01*
G37*
G36*
X138328439Y-78015338D02*
X138325579Y-78220159D01*
X138325483Y-78220580D01*
X138325483Y-78220597D01*
X138285854Y-78395027D01*
X138212916Y-78558847D01*
X138109549Y-78705380D01*
X137979687Y-78829046D01*
X137828280Y-78925131D01*
X137661088Y-78989981D01*
X137484493Y-79021120D01*
X137305209Y-79017364D01*
X137130065Y-78978856D01*
X136965740Y-78907065D01*
X136818491Y-78804723D01*
X136693920Y-78675727D01*
X136596781Y-78524996D01*
X136530766Y-78358263D01*
X136498395Y-78181886D01*
X136500899Y-78002576D01*
X136538181Y-77827176D01*
X136608825Y-77662352D01*
X136710138Y-77514387D01*
X136838259Y-77388922D01*
X136988308Y-77290733D01*
X137154578Y-77223555D01*
X137330726Y-77189953D01*
X137510042Y-77191206D01*
X137685706Y-77227264D01*
X137851014Y-77296753D01*
X137999683Y-77397032D01*
X138126040Y-77524275D01*
X138225276Y-77673635D01*
X138293611Y-77839429D01*
X138328355Y-78014900D01*
X138328354Y-78014912D01*
X138328439Y-78015338D01*
X138328439Y-78015338D01*
G37*
G36*
X138738800Y-105075800D02*
X138037200Y-105075800D01*
X138037200Y-104474200D01*
X138738800Y-104474200D01*
X138738800Y-105075800D01*
X138738800Y-105075800D01*
G37*
G36*
X138738800Y-106980800D02*
X138037200Y-106980800D01*
X138037200Y-106379200D01*
X138738800Y-106379200D01*
X138738800Y-106980800D01*
X138738800Y-106980800D01*
G37*
G36*
X139838800Y-105075800D02*
X139137200Y-105075800D01*
X139137200Y-104474200D01*
X139838800Y-104474200D01*
X139838800Y-105075800D01*
X139838800Y-105075800D01*
G37*
G36*
X139838800Y-106980800D02*
X139137200Y-106980800D01*
X139137200Y-106379200D01*
X139838800Y-106379200D01*
X139838800Y-106980800D01*
X139838800Y-106980800D01*
G37*
G36*
X139843800Y-84388300D02*
X138542200Y-84388300D01*
X138542200Y-83886700D01*
X139843800Y-83886700D01*
X139843800Y-84388300D01*
X139843800Y-84388300D01*
G37*
G36*
X139843800Y-85023300D02*
X138542200Y-85023300D01*
X138542200Y-84521700D01*
X139843800Y-84521700D01*
X139843800Y-85023300D01*
X139843800Y-85023300D01*
G37*
G36*
X139843800Y-85658300D02*
X138542200Y-85658300D01*
X138542200Y-85156700D01*
X139843800Y-85156700D01*
X139843800Y-85658300D01*
X139843800Y-85658300D01*
G37*
G36*
X139843800Y-86293300D02*
X138542200Y-86293300D01*
X138542200Y-85791700D01*
X139843800Y-85791700D01*
X139843800Y-86293300D01*
X139843800Y-86293300D01*
G37*
G36*
X139843800Y-86928300D02*
X138542200Y-86928300D01*
X138542200Y-86426700D01*
X139843800Y-86426700D01*
X139843800Y-86928300D01*
X139843800Y-86928300D01*
G37*
G36*
X139843800Y-87563300D02*
X138542200Y-87563300D01*
X138542200Y-87061700D01*
X139843800Y-87061700D01*
X139843800Y-87563300D01*
X139843800Y-87563300D01*
G37*
G36*
X139843800Y-88198300D02*
X138542200Y-88198300D01*
X138542200Y-87696700D01*
X139843800Y-87696700D01*
X139843800Y-88198300D01*
X139843800Y-88198300D01*
G37*
G36*
X139843800Y-88833300D02*
X138542200Y-88833300D01*
X138542200Y-88331700D01*
X139843800Y-88331700D01*
X139843800Y-88833300D01*
X139843800Y-88833300D01*
G37*
G36*
X139843800Y-89468300D02*
X138542200Y-89468300D01*
X138542200Y-88966700D01*
X139843800Y-88966700D01*
X139843800Y-89468300D01*
X139843800Y-89468300D01*
G37*
G36*
X139843800Y-90103300D02*
X138542200Y-90103300D01*
X138542200Y-89601700D01*
X139843800Y-89601700D01*
X139843800Y-90103300D01*
X139843800Y-90103300D01*
G37*
G36*
X139843800Y-90738300D02*
X138542200Y-90738300D01*
X138542200Y-90236700D01*
X139843800Y-90236700D01*
X139843800Y-90738300D01*
X139843800Y-90738300D01*
G37*
G36*
X139843800Y-91373300D02*
X138542200Y-91373300D01*
X138542200Y-90871700D01*
X139843800Y-90871700D01*
X139843800Y-91373300D01*
X139843800Y-91373300D01*
G37*
G36*
X139843800Y-92008300D02*
X138542200Y-92008300D01*
X138542200Y-91506700D01*
X139843800Y-91506700D01*
X139843800Y-92008300D01*
X139843800Y-92008300D01*
G37*
G36*
X139843800Y-92643300D02*
X138542200Y-92643300D01*
X138542200Y-92141700D01*
X139843800Y-92141700D01*
X139843800Y-92643300D01*
X139843800Y-92643300D01*
G37*
G36*
X139843800Y-93278300D02*
X138542200Y-93278300D01*
X138542200Y-92776700D01*
X139843800Y-92776700D01*
X139843800Y-93278300D01*
X139843800Y-93278300D01*
G37*
G36*
X139843800Y-93913300D02*
X138542200Y-93913300D01*
X138542200Y-93411700D01*
X139843800Y-93411700D01*
X139843800Y-93913300D01*
X139843800Y-93913300D01*
G37*
G36*
X139843800Y-94548300D02*
X138542200Y-94548300D01*
X138542200Y-94046700D01*
X139843800Y-94046700D01*
X139843800Y-94548300D01*
X139843800Y-94548300D01*
G37*
G36*
X139843800Y-95183300D02*
X138542200Y-95183300D01*
X138542200Y-94681700D01*
X139843800Y-94681700D01*
X139843800Y-95183300D01*
X139843800Y-95183300D01*
G37*
G36*
X139843800Y-95818300D02*
X138542200Y-95818300D01*
X138542200Y-95316700D01*
X139843800Y-95316700D01*
X139843800Y-95818300D01*
X139843800Y-95818300D01*
G37*
G36*
X139843800Y-96453300D02*
X138542200Y-96453300D01*
X138542200Y-95951700D01*
X139843800Y-95951700D01*
X139843800Y-96453300D01*
X139843800Y-96453300D01*
G37*
G36*
X139843800Y-97088300D02*
X138542200Y-97088300D01*
X138542200Y-96586700D01*
X139843800Y-96586700D01*
X139843800Y-97088300D01*
X139843800Y-97088300D01*
G37*
G36*
X139843800Y-97723300D02*
X138542200Y-97723300D01*
X138542200Y-97221700D01*
X139843800Y-97221700D01*
X139843800Y-97723300D01*
X139843800Y-97723300D01*
G37*
G36*
X139843800Y-98358300D02*
X138542200Y-98358300D01*
X138542200Y-97856700D01*
X139843800Y-97856700D01*
X139843800Y-98358300D01*
X139843800Y-98358300D01*
G37*
G36*
X139843800Y-98993300D02*
X138542200Y-98993300D01*
X138542200Y-98491700D01*
X139843800Y-98491700D01*
X139843800Y-98993300D01*
X139843800Y-98993300D01*
G37*
G36*
X139843800Y-99628300D02*
X138542200Y-99628300D01*
X138542200Y-99126700D01*
X139843800Y-99126700D01*
X139843800Y-99628300D01*
X139843800Y-99628300D01*
G37*
G36*
X139843800Y-100263300D02*
X138542200Y-100263300D01*
X138542200Y-99761700D01*
X139843800Y-99761700D01*
X139843800Y-100263300D01*
X139843800Y-100263300D01*
G37*
G36*
X139843800Y-100898300D02*
X138542200Y-100898300D01*
X138542200Y-100396700D01*
X139843800Y-100396700D01*
X139843800Y-100898300D01*
X139843800Y-100898300D01*
G37*
G36*
X139843800Y-101533300D02*
X138542200Y-101533300D01*
X138542200Y-101031700D01*
X139843800Y-101031700D01*
X139843800Y-101533300D01*
X139843800Y-101533300D01*
G37*
G36*
X139852439Y-121195338D02*
X139849579Y-121400159D01*
X139849483Y-121400580D01*
X139849483Y-121400597D01*
X139809854Y-121575027D01*
X139736916Y-121738847D01*
X139633549Y-121885380D01*
X139503687Y-122009046D01*
X139352280Y-122105131D01*
X139185088Y-122169981D01*
X139008493Y-122201120D01*
X138829209Y-122197364D01*
X138654065Y-122158856D01*
X138489740Y-122087065D01*
X138342491Y-121984723D01*
X138217920Y-121855727D01*
X138120781Y-121704996D01*
X138054766Y-121538263D01*
X138022395Y-121361886D01*
X138024899Y-121182576D01*
X138062181Y-121007176D01*
X138132825Y-120842352D01*
X138234138Y-120694387D01*
X138362259Y-120568922D01*
X138512308Y-120470733D01*
X138678578Y-120403555D01*
X138854726Y-120369953D01*
X139034042Y-120371206D01*
X139209706Y-120407264D01*
X139375014Y-120476753D01*
X139523683Y-120577032D01*
X139650040Y-120704275D01*
X139749276Y-120853635D01*
X139817611Y-121019429D01*
X139852355Y-121194900D01*
X139852354Y-121194912D01*
X139852439Y-121195338D01*
X139852439Y-121195338D01*
G37*
G36*
X139852439Y-123735338D02*
X139849579Y-123940159D01*
X139849483Y-123940580D01*
X139849483Y-123940597D01*
X139809854Y-124115027D01*
X139736916Y-124278847D01*
X139633549Y-124425380D01*
X139503687Y-124549046D01*
X139352280Y-124645131D01*
X139185088Y-124709981D01*
X139008493Y-124741120D01*
X138829209Y-124737364D01*
X138654065Y-124698856D01*
X138489740Y-124627065D01*
X138342491Y-124524723D01*
X138217920Y-124395727D01*
X138120781Y-124244996D01*
X138054766Y-124078263D01*
X138022395Y-123901886D01*
X138024899Y-123722576D01*
X138062181Y-123547176D01*
X138132825Y-123382352D01*
X138234138Y-123234387D01*
X138362259Y-123108922D01*
X138512308Y-123010733D01*
X138678578Y-122943555D01*
X138854726Y-122909953D01*
X139034042Y-122911206D01*
X139209706Y-122947264D01*
X139375014Y-123016753D01*
X139523683Y-123117032D01*
X139650040Y-123244275D01*
X139749276Y-123393635D01*
X139817611Y-123559429D01*
X139852355Y-123734900D01*
X139852354Y-123734912D01*
X139852439Y-123735338D01*
X139852439Y-123735338D01*
G37*
G36*
X140868439Y-75475338D02*
X140865579Y-75680159D01*
X140865483Y-75680580D01*
X140865483Y-75680597D01*
X140825854Y-75855027D01*
X140752916Y-76018847D01*
X140649549Y-76165380D01*
X140519687Y-76289046D01*
X140368280Y-76385131D01*
X140201088Y-76449981D01*
X140024493Y-76481120D01*
X139845209Y-76477364D01*
X139670065Y-76438856D01*
X139505740Y-76367065D01*
X139358491Y-76264723D01*
X139233920Y-76135727D01*
X139136781Y-75984996D01*
X139070766Y-75818263D01*
X139038395Y-75641886D01*
X139040899Y-75462576D01*
X139078181Y-75287176D01*
X139148825Y-75122352D01*
X139250138Y-74974387D01*
X139378259Y-74848922D01*
X139528308Y-74750733D01*
X139694578Y-74683555D01*
X139870726Y-74649953D01*
X140050042Y-74651206D01*
X140225706Y-74687264D01*
X140391014Y-74756753D01*
X140539683Y-74857032D01*
X140666040Y-74984275D01*
X140765276Y-75133635D01*
X140833611Y-75299429D01*
X140868355Y-75474900D01*
X140868354Y-75474912D01*
X140868439Y-75475338D01*
X140868439Y-75475338D01*
G37*
G36*
X140868439Y-78015338D02*
X140865579Y-78220159D01*
X140865483Y-78220580D01*
X140865483Y-78220597D01*
X140825854Y-78395027D01*
X140752916Y-78558847D01*
X140649549Y-78705380D01*
X140519687Y-78829046D01*
X140368280Y-78925131D01*
X140201088Y-78989981D01*
X140024493Y-79021120D01*
X139845209Y-79017364D01*
X139670065Y-78978856D01*
X139505740Y-78907065D01*
X139358491Y-78804723D01*
X139233920Y-78675727D01*
X139136781Y-78524996D01*
X139070766Y-78358263D01*
X139038395Y-78181886D01*
X139040899Y-78002576D01*
X139078181Y-77827176D01*
X139148825Y-77662352D01*
X139250138Y-77514387D01*
X139378259Y-77388922D01*
X139528308Y-77290733D01*
X139694578Y-77223555D01*
X139870726Y-77189953D01*
X140050042Y-77191206D01*
X140225706Y-77227264D01*
X140391014Y-77296753D01*
X140539683Y-77397032D01*
X140666040Y-77524275D01*
X140765276Y-77673635D01*
X140833611Y-77839429D01*
X140868355Y-78014900D01*
X140868354Y-78014912D01*
X140868439Y-78015338D01*
X140868439Y-78015338D01*
G37*
G36*
X141159230Y-111894620D02*
X139256770Y-111894620D01*
X139256770Y-108643420D01*
X141159230Y-108643420D01*
X141159230Y-111894620D01*
X141159230Y-111894620D01*
G37*
G36*
X141159230Y-116146580D02*
X139256770Y-116146580D01*
X139256770Y-112895380D01*
X141159230Y-112895380D01*
X141159230Y-116146580D01*
X141159230Y-116146580D01*
G37*
G36*
X142392439Y-121195338D02*
X142389579Y-121400159D01*
X142389483Y-121400580D01*
X142389483Y-121400597D01*
X142349854Y-121575027D01*
X142276916Y-121738847D01*
X142173549Y-121885380D01*
X142043687Y-122009046D01*
X141892280Y-122105131D01*
X141725088Y-122169981D01*
X141548493Y-122201120D01*
X141369209Y-122197364D01*
X141194065Y-122158856D01*
X141029740Y-122087065D01*
X140882491Y-121984723D01*
X140757920Y-121855727D01*
X140660781Y-121704996D01*
X140594766Y-121538263D01*
X140562395Y-121361886D01*
X140564899Y-121182576D01*
X140602181Y-121007176D01*
X140672825Y-120842352D01*
X140774138Y-120694387D01*
X140902259Y-120568922D01*
X141052308Y-120470733D01*
X141218578Y-120403555D01*
X141394726Y-120369953D01*
X141574042Y-120371206D01*
X141749706Y-120407264D01*
X141915014Y-120476753D01*
X142063683Y-120577032D01*
X142190040Y-120704275D01*
X142289276Y-120853635D01*
X142357611Y-121019429D01*
X142392355Y-121194900D01*
X142392354Y-121194912D01*
X142392439Y-121195338D01*
X142392439Y-121195338D01*
G37*
G36*
X142392439Y-123735338D02*
X142389579Y-123940159D01*
X142389483Y-123940580D01*
X142389483Y-123940597D01*
X142349854Y-124115027D01*
X142276916Y-124278847D01*
X142173549Y-124425380D01*
X142043687Y-124549046D01*
X141892280Y-124645131D01*
X141725088Y-124709981D01*
X141548493Y-124741120D01*
X141369209Y-124737364D01*
X141194065Y-124698856D01*
X141029740Y-124627065D01*
X140882491Y-124524723D01*
X140757920Y-124395727D01*
X140660781Y-124244996D01*
X140594766Y-124078263D01*
X140562395Y-123901886D01*
X140564899Y-123722576D01*
X140602181Y-123547176D01*
X140672825Y-123382352D01*
X140774138Y-123234387D01*
X140902259Y-123108922D01*
X141052308Y-123010733D01*
X141218578Y-122943555D01*
X141394726Y-122909953D01*
X141574042Y-122911206D01*
X141749706Y-122947264D01*
X141915014Y-123016753D01*
X142063683Y-123117032D01*
X142190040Y-123244275D01*
X142289276Y-123393635D01*
X142357611Y-123559429D01*
X142392355Y-123734900D01*
X142392354Y-123734912D01*
X142392439Y-123735338D01*
X142392439Y-123735338D01*
G37*
G36*
X142548800Y-89200800D02*
X141847200Y-89200800D01*
X141847200Y-88599200D01*
X142548800Y-88599200D01*
X142548800Y-89200800D01*
X142548800Y-89200800D01*
G37*
G36*
X142548800Y-91105800D02*
X141847200Y-91105800D01*
X141847200Y-90504200D01*
X142548800Y-90504200D01*
X142548800Y-91105800D01*
X142548800Y-91105800D01*
G37*
G36*
X142548800Y-97455800D02*
X141847200Y-97455800D01*
X141847200Y-96854200D01*
X142548800Y-96854200D01*
X142548800Y-97455800D01*
X142548800Y-97455800D01*
G37*
G36*
X142548800Y-99360800D02*
X141847200Y-99360800D01*
X141847200Y-98759200D01*
X142548800Y-98759200D01*
X142548800Y-99360800D01*
X142548800Y-99360800D01*
G37*
G36*
X142548800Y-101265800D02*
X141847200Y-101265800D01*
X141847200Y-100664200D01*
X142548800Y-100664200D01*
X142548800Y-101265800D01*
X142548800Y-101265800D01*
G37*
G36*
X142548800Y-103170800D02*
X141847200Y-103170800D01*
X141847200Y-102569200D01*
X142548800Y-102569200D01*
X142548800Y-103170800D01*
X142548800Y-103170800D01*
G37*
G36*
X142548800Y-105075800D02*
X141847200Y-105075800D01*
X141847200Y-104474200D01*
X142548800Y-104474200D01*
X142548800Y-105075800D01*
X142548800Y-105075800D01*
G37*
G36*
X142548800Y-106980800D02*
X141847200Y-106980800D01*
X141847200Y-106379200D01*
X142548800Y-106379200D01*
X142548800Y-106980800D01*
X142548800Y-106980800D01*
G37*
G36*
X142548800Y-108885800D02*
X141847200Y-108885800D01*
X141847200Y-108284200D01*
X142548800Y-108284200D01*
X142548800Y-108885800D01*
X142548800Y-108885800D01*
G37*
G36*
X143408439Y-75475338D02*
X143405579Y-75680159D01*
X143405483Y-75680580D01*
X143405483Y-75680597D01*
X143365854Y-75855027D01*
X143292916Y-76018847D01*
X143189549Y-76165380D01*
X143059687Y-76289046D01*
X142908280Y-76385131D01*
X142741088Y-76449981D01*
X142564493Y-76481120D01*
X142385209Y-76477364D01*
X142210065Y-76438856D01*
X142045740Y-76367065D01*
X141898491Y-76264723D01*
X141773920Y-76135727D01*
X141676781Y-75984996D01*
X141610766Y-75818263D01*
X141578395Y-75641886D01*
X141580899Y-75462576D01*
X141618181Y-75287176D01*
X141688825Y-75122352D01*
X141790138Y-74974387D01*
X141918259Y-74848922D01*
X142068308Y-74750733D01*
X142234578Y-74683555D01*
X142410726Y-74649953D01*
X142590042Y-74651206D01*
X142765706Y-74687264D01*
X142931014Y-74756753D01*
X143079683Y-74857032D01*
X143206040Y-74984275D01*
X143305276Y-75133635D01*
X143373611Y-75299429D01*
X143408355Y-75474900D01*
X143408354Y-75474912D01*
X143408439Y-75475338D01*
X143408439Y-75475338D01*
G37*
G36*
X143408439Y-78015338D02*
X143405579Y-78220159D01*
X143405483Y-78220580D01*
X143405483Y-78220597D01*
X143365854Y-78395027D01*
X143292916Y-78558847D01*
X143189549Y-78705380D01*
X143059687Y-78829046D01*
X142908280Y-78925131D01*
X142741088Y-78989981D01*
X142564493Y-79021120D01*
X142385209Y-79017364D01*
X142210065Y-78978856D01*
X142045740Y-78907065D01*
X141898491Y-78804723D01*
X141773920Y-78675727D01*
X141676781Y-78524996D01*
X141610766Y-78358263D01*
X141578395Y-78181886D01*
X141580899Y-78002576D01*
X141618181Y-77827176D01*
X141688825Y-77662352D01*
X141790138Y-77514387D01*
X141918259Y-77388922D01*
X142068308Y-77290733D01*
X142234578Y-77223555D01*
X142410726Y-77189953D01*
X142590042Y-77191206D01*
X142765706Y-77227264D01*
X142931014Y-77296753D01*
X143079683Y-77397032D01*
X143206040Y-77524275D01*
X143305276Y-77673635D01*
X143373611Y-77839429D01*
X143408355Y-78014900D01*
X143408354Y-78014912D01*
X143408439Y-78015338D01*
X143408439Y-78015338D01*
G37*
G36*
X143648800Y-89200800D02*
X142947200Y-89200800D01*
X142947200Y-88599200D01*
X143648800Y-88599200D01*
X143648800Y-89200800D01*
X143648800Y-89200800D01*
G37*
G36*
X143648800Y-91105800D02*
X142947200Y-91105800D01*
X142947200Y-90504200D01*
X143648800Y-90504200D01*
X143648800Y-91105800D01*
X143648800Y-91105800D01*
G37*
G36*
X143648800Y-97455800D02*
X142947200Y-97455800D01*
X142947200Y-96854200D01*
X143648800Y-96854200D01*
X143648800Y-97455800D01*
X143648800Y-97455800D01*
G37*
G36*
X143648800Y-99360800D02*
X142947200Y-99360800D01*
X142947200Y-98759200D01*
X143648800Y-98759200D01*
X143648800Y-99360800D01*
X143648800Y-99360800D01*
G37*
G36*
X143648800Y-101265800D02*
X142947200Y-101265800D01*
X142947200Y-100664200D01*
X143648800Y-100664200D01*
X143648800Y-101265800D01*
X143648800Y-101265800D01*
G37*
G36*
X143648800Y-103170800D02*
X142947200Y-103170800D01*
X142947200Y-102569200D01*
X143648800Y-102569200D01*
X143648800Y-103170800D01*
X143648800Y-103170800D01*
G37*
G36*
X143648800Y-105075800D02*
X142947200Y-105075800D01*
X142947200Y-104474200D01*
X143648800Y-104474200D01*
X143648800Y-105075800D01*
X143648800Y-105075800D01*
G37*
G36*
X143648800Y-106980800D02*
X142947200Y-106980800D01*
X142947200Y-106379200D01*
X143648800Y-106379200D01*
X143648800Y-106980800D01*
X143648800Y-106980800D01*
G37*
G36*
X143648800Y-108885800D02*
X142947200Y-108885800D01*
X142947200Y-108284200D01*
X143648800Y-108284200D01*
X143648800Y-108885800D01*
X143648800Y-108885800D01*
G37*
G36*
X144318800Y-84255800D02*
X143717200Y-84255800D01*
X143717200Y-83554200D01*
X144318800Y-83554200D01*
X144318800Y-84255800D01*
X144318800Y-84255800D01*
G37*
G36*
X144318800Y-85355800D02*
X143717200Y-85355800D01*
X143717200Y-84654200D01*
X144318800Y-84654200D01*
X144318800Y-85355800D01*
X144318800Y-85355800D01*
G37*
G36*
X144318800Y-112195800D02*
X143717200Y-112195800D01*
X143717200Y-111494200D01*
X144318800Y-111494200D01*
X144318800Y-112195800D01*
X144318800Y-112195800D01*
G37*
G36*
X144318800Y-113295800D02*
X143717200Y-113295800D01*
X143717200Y-112594200D01*
X144318800Y-112594200D01*
X144318800Y-113295800D01*
X144318800Y-113295800D01*
G37*
G36*
X144932439Y-121195338D02*
X144929579Y-121400159D01*
X144929483Y-121400580D01*
X144929483Y-121400597D01*
X144889854Y-121575027D01*
X144816916Y-121738847D01*
X144713549Y-121885380D01*
X144583687Y-122009046D01*
X144432280Y-122105131D01*
X144265088Y-122169981D01*
X144088493Y-122201120D01*
X143909209Y-122197364D01*
X143734065Y-122158856D01*
X143569740Y-122087065D01*
X143422491Y-121984723D01*
X143297920Y-121855727D01*
X143200781Y-121704996D01*
X143134766Y-121538263D01*
X143102395Y-121361886D01*
X143104899Y-121182576D01*
X143142181Y-121007176D01*
X143212825Y-120842352D01*
X143314138Y-120694387D01*
X143442259Y-120568922D01*
X143592308Y-120470733D01*
X143758578Y-120403555D01*
X143934726Y-120369953D01*
X144114042Y-120371206D01*
X144289706Y-120407264D01*
X144455014Y-120476753D01*
X144603683Y-120577032D01*
X144730040Y-120704275D01*
X144829276Y-120853635D01*
X144897611Y-121019429D01*
X144932355Y-121194900D01*
X144932354Y-121194912D01*
X144932439Y-121195338D01*
X144932439Y-121195338D01*
G37*
G36*
X144932439Y-123735338D02*
X144929579Y-123940159D01*
X144929483Y-123940580D01*
X144929483Y-123940597D01*
X144889854Y-124115027D01*
X144816916Y-124278847D01*
X144713549Y-124425380D01*
X144583687Y-124549046D01*
X144432280Y-124645131D01*
X144265088Y-124709981D01*
X144088493Y-124741120D01*
X143909209Y-124737364D01*
X143734065Y-124698856D01*
X143569740Y-124627065D01*
X143422491Y-124524723D01*
X143297920Y-124395727D01*
X143200781Y-124244996D01*
X143134766Y-124078263D01*
X143102395Y-123901886D01*
X143104899Y-123722576D01*
X143142181Y-123547176D01*
X143212825Y-123382352D01*
X143314138Y-123234387D01*
X143442259Y-123108922D01*
X143592308Y-123010733D01*
X143758578Y-122943555D01*
X143934726Y-122909953D01*
X144114042Y-122911206D01*
X144289706Y-122947264D01*
X144455014Y-123016753D01*
X144603683Y-123117032D01*
X144730040Y-123244275D01*
X144829276Y-123393635D01*
X144897611Y-123559429D01*
X144932355Y-123734900D01*
X144932354Y-123734912D01*
X144932439Y-123735338D01*
X144932439Y-123735338D01*
G37*
G36*
X145588800Y-84255800D02*
X144987200Y-84255800D01*
X144987200Y-83554200D01*
X145588800Y-83554200D01*
X145588800Y-84255800D01*
X145588800Y-84255800D01*
G37*
G36*
X145588800Y-85355800D02*
X144987200Y-85355800D01*
X144987200Y-84654200D01*
X145588800Y-84654200D01*
X145588800Y-85355800D01*
X145588800Y-85355800D01*
G37*
G36*
X145588800Y-112195800D02*
X144987200Y-112195800D01*
X144987200Y-111494200D01*
X145588800Y-111494200D01*
X145588800Y-112195800D01*
X145588800Y-112195800D01*
G37*
G36*
X145588800Y-113295800D02*
X144987200Y-113295800D01*
X144987200Y-112594200D01*
X145588800Y-112594200D01*
X145588800Y-113295800D01*
X145588800Y-113295800D01*
G37*
G36*
X145588800Y-114735800D02*
X144987200Y-114735800D01*
X144987200Y-114034200D01*
X145588800Y-114034200D01*
X145588800Y-114735800D01*
X145588800Y-114735800D01*
G37*
G36*
X145588800Y-115835800D02*
X144987200Y-115835800D01*
X144987200Y-115134200D01*
X145588800Y-115134200D01*
X145588800Y-115835800D01*
X145588800Y-115835800D01*
G37*
G36*
X145948439Y-75475338D02*
X145945579Y-75680159D01*
X145945483Y-75680580D01*
X145945483Y-75680597D01*
X145905854Y-75855027D01*
X145832916Y-76018847D01*
X145729549Y-76165380D01*
X145599687Y-76289046D01*
X145448280Y-76385131D01*
X145281088Y-76449981D01*
X145104493Y-76481120D01*
X144925209Y-76477364D01*
X144750065Y-76438856D01*
X144585740Y-76367065D01*
X144438491Y-76264723D01*
X144313920Y-76135727D01*
X144216781Y-75984996D01*
X144150766Y-75818263D01*
X144118395Y-75641886D01*
X144120899Y-75462576D01*
X144158181Y-75287176D01*
X144228825Y-75122352D01*
X144330138Y-74974387D01*
X144458259Y-74848922D01*
X144608308Y-74750733D01*
X144774578Y-74683555D01*
X144950726Y-74649953D01*
X145130042Y-74651206D01*
X145305706Y-74687264D01*
X145471014Y-74756753D01*
X145619683Y-74857032D01*
X145746040Y-74984275D01*
X145845276Y-75133635D01*
X145913611Y-75299429D01*
X145948355Y-75474900D01*
X145948354Y-75474912D01*
X145948439Y-75475338D01*
X145948439Y-75475338D01*
G37*
G36*
X145948439Y-78015338D02*
X145945579Y-78220159D01*
X145945483Y-78220580D01*
X145945483Y-78220597D01*
X145905854Y-78395027D01*
X145832916Y-78558847D01*
X145729549Y-78705380D01*
X145599687Y-78829046D01*
X145448280Y-78925131D01*
X145281088Y-78989981D01*
X145104493Y-79021120D01*
X144925209Y-79017364D01*
X144750065Y-78978856D01*
X144585740Y-78907065D01*
X144438491Y-78804723D01*
X144313920Y-78675727D01*
X144216781Y-78524996D01*
X144150766Y-78358263D01*
X144118395Y-78181886D01*
X144120899Y-78002576D01*
X144158181Y-77827176D01*
X144228825Y-77662352D01*
X144330138Y-77514387D01*
X144458259Y-77388922D01*
X144608308Y-77290733D01*
X144774578Y-77223555D01*
X144950726Y-77189953D01*
X145130042Y-77191206D01*
X145305706Y-77227264D01*
X145471014Y-77296753D01*
X145619683Y-77397032D01*
X145746040Y-77524275D01*
X145845276Y-77673635D01*
X145913611Y-77839429D01*
X145948355Y-78014900D01*
X145948354Y-78014912D01*
X145948439Y-78015338D01*
X145948439Y-78015338D01*
G37*
G36*
X146858800Y-84255800D02*
X146257200Y-84255800D01*
X146257200Y-83554200D01*
X146858800Y-83554200D01*
X146858800Y-84255800D01*
X146858800Y-84255800D01*
G37*
G36*
X146858800Y-85355800D02*
X146257200Y-85355800D01*
X146257200Y-84654200D01*
X146858800Y-84654200D01*
X146858800Y-85355800D01*
X146858800Y-85355800D01*
G37*
G36*
X146858800Y-112195800D02*
X146257200Y-112195800D01*
X146257200Y-111494200D01*
X146858800Y-111494200D01*
X146858800Y-112195800D01*
X146858800Y-112195800D01*
G37*
G36*
X146858800Y-113295800D02*
X146257200Y-113295800D01*
X146257200Y-112594200D01*
X146858800Y-112594200D01*
X146858800Y-113295800D01*
X146858800Y-113295800D01*
G37*
G36*
X146858800Y-114735800D02*
X146257200Y-114735800D01*
X146257200Y-114034200D01*
X146858800Y-114034200D01*
X146858800Y-114735800D01*
X146858800Y-114735800D01*
G37*
G36*
X146858800Y-115835800D02*
X146257200Y-115835800D01*
X146257200Y-115134200D01*
X146858800Y-115134200D01*
X146858800Y-115835800D01*
X146858800Y-115835800D01*
G37*
G36*
X146943800Y-89850800D02*
X145392200Y-89850800D01*
X145392200Y-89499200D01*
X146943800Y-89499200D01*
X146943800Y-89850800D01*
X146943800Y-89850800D01*
G37*
G36*
X146943800Y-90350800D02*
X145392200Y-90350800D01*
X145392200Y-89999200D01*
X146943800Y-89999200D01*
X146943800Y-90350800D01*
X146943800Y-90350800D01*
G37*
G36*
X146943800Y-90850800D02*
X145392200Y-90850800D01*
X145392200Y-90499200D01*
X146943800Y-90499200D01*
X146943800Y-90850800D01*
X146943800Y-90850800D01*
G37*
G36*
X146943800Y-91350800D02*
X145392200Y-91350800D01*
X145392200Y-90999200D01*
X146943800Y-90999200D01*
X146943800Y-91350800D01*
X146943800Y-91350800D01*
G37*
G36*
X146943800Y-91850800D02*
X145392200Y-91850800D01*
X145392200Y-91499200D01*
X146943800Y-91499200D01*
X146943800Y-91850800D01*
X146943800Y-91850800D01*
G37*
G36*
X146943800Y-92350800D02*
X145392200Y-92350800D01*
X145392200Y-91999200D01*
X146943800Y-91999200D01*
X146943800Y-92350800D01*
X146943800Y-92350800D01*
G37*
G36*
X146943800Y-92850800D02*
X145392200Y-92850800D01*
X145392200Y-92499200D01*
X146943800Y-92499200D01*
X146943800Y-92850800D01*
X146943800Y-92850800D01*
G37*
G36*
X146943800Y-93350800D02*
X145392200Y-93350800D01*
X145392200Y-92999200D01*
X146943800Y-92999200D01*
X146943800Y-93350800D01*
X146943800Y-93350800D01*
G37*
G36*
X146943800Y-93850800D02*
X145392200Y-93850800D01*
X145392200Y-93499200D01*
X146943800Y-93499200D01*
X146943800Y-93850800D01*
X146943800Y-93850800D01*
G37*
G36*
X146943800Y-94350800D02*
X145392200Y-94350800D01*
X145392200Y-93999200D01*
X146943800Y-93999200D01*
X146943800Y-94350800D01*
X146943800Y-94350800D01*
G37*
G36*
X146943800Y-94850800D02*
X145392200Y-94850800D01*
X145392200Y-94499200D01*
X146943800Y-94499200D01*
X146943800Y-94850800D01*
X146943800Y-94850800D01*
G37*
G36*
X146943800Y-95350800D02*
X145392200Y-95350800D01*
X145392200Y-94999200D01*
X146943800Y-94999200D01*
X146943800Y-95350800D01*
X146943800Y-95350800D01*
G37*
G36*
X146943800Y-95850800D02*
X145392200Y-95850800D01*
X145392200Y-95499200D01*
X146943800Y-95499200D01*
X146943800Y-95850800D01*
X146943800Y-95850800D01*
G37*
G36*
X146943800Y-96350800D02*
X145392200Y-96350800D01*
X145392200Y-95999200D01*
X146943800Y-95999200D01*
X146943800Y-96350800D01*
X146943800Y-96350800D01*
G37*
G36*
X146943800Y-96850800D02*
X145392200Y-96850800D01*
X145392200Y-96499200D01*
X146943800Y-96499200D01*
X146943800Y-96850800D01*
X146943800Y-96850800D01*
G37*
G36*
X146943800Y-97350800D02*
X145392200Y-97350800D01*
X145392200Y-96999200D01*
X146943800Y-96999200D01*
X146943800Y-97350800D01*
X146943800Y-97350800D01*
G37*
G36*
X146943800Y-97850800D02*
X145392200Y-97850800D01*
X145392200Y-97499200D01*
X146943800Y-97499200D01*
X146943800Y-97850800D01*
X146943800Y-97850800D01*
G37*
G36*
X146943800Y-98350800D02*
X145392200Y-98350800D01*
X145392200Y-97999200D01*
X146943800Y-97999200D01*
X146943800Y-98350800D01*
X146943800Y-98350800D01*
G37*
G36*
X146943800Y-98850800D02*
X145392200Y-98850800D01*
X145392200Y-98499200D01*
X146943800Y-98499200D01*
X146943800Y-98850800D01*
X146943800Y-98850800D01*
G37*
G36*
X146943800Y-99350800D02*
X145392200Y-99350800D01*
X145392200Y-98999200D01*
X146943800Y-98999200D01*
X146943800Y-99350800D01*
X146943800Y-99350800D01*
G37*
G36*
X146943800Y-99850800D02*
X145392200Y-99850800D01*
X145392200Y-99499200D01*
X146943800Y-99499200D01*
X146943800Y-99850800D01*
X146943800Y-99850800D01*
G37*
G36*
X146943800Y-100350800D02*
X145392200Y-100350800D01*
X145392200Y-99999200D01*
X146943800Y-99999200D01*
X146943800Y-100350800D01*
X146943800Y-100350800D01*
G37*
G36*
X146943800Y-100850800D02*
X145392200Y-100850800D01*
X145392200Y-100499200D01*
X146943800Y-100499200D01*
X146943800Y-100850800D01*
X146943800Y-100850800D01*
G37*
G36*
X146943800Y-101350800D02*
X145392200Y-101350800D01*
X145392200Y-100999200D01*
X146943800Y-100999200D01*
X146943800Y-101350800D01*
X146943800Y-101350800D01*
G37*
G36*
X146943800Y-101850800D02*
X145392200Y-101850800D01*
X145392200Y-101499200D01*
X146943800Y-101499200D01*
X146943800Y-101850800D01*
X146943800Y-101850800D01*
G37*
G36*
X146943800Y-102350800D02*
X145392200Y-102350800D01*
X145392200Y-101999200D01*
X146943800Y-101999200D01*
X146943800Y-102350800D01*
X146943800Y-102350800D01*
G37*
G36*
X146943800Y-102850800D02*
X145392200Y-102850800D01*
X145392200Y-102499200D01*
X146943800Y-102499200D01*
X146943800Y-102850800D01*
X146943800Y-102850800D01*
G37*
G36*
X146943800Y-103350800D02*
X145392200Y-103350800D01*
X145392200Y-102999200D01*
X146943800Y-102999200D01*
X146943800Y-103350800D01*
X146943800Y-103350800D01*
G37*
G36*
X146943800Y-103850800D02*
X145392200Y-103850800D01*
X145392200Y-103499200D01*
X146943800Y-103499200D01*
X146943800Y-103850800D01*
X146943800Y-103850800D01*
G37*
G36*
X146943800Y-104350800D02*
X145392200Y-104350800D01*
X145392200Y-103999200D01*
X146943800Y-103999200D01*
X146943800Y-104350800D01*
X146943800Y-104350800D01*
G37*
G36*
X146943800Y-104850800D02*
X145392200Y-104850800D01*
X145392200Y-104499200D01*
X146943800Y-104499200D01*
X146943800Y-104850800D01*
X146943800Y-104850800D01*
G37*
G36*
X146943800Y-105350800D02*
X145392200Y-105350800D01*
X145392200Y-104999200D01*
X146943800Y-104999200D01*
X146943800Y-105350800D01*
X146943800Y-105350800D01*
G37*
G36*
X146943800Y-105850800D02*
X145392200Y-105850800D01*
X145392200Y-105499200D01*
X146943800Y-105499200D01*
X146943800Y-105850800D01*
X146943800Y-105850800D01*
G37*
G36*
X146943800Y-106350800D02*
X145392200Y-106350800D01*
X145392200Y-105999200D01*
X146943800Y-105999200D01*
X146943800Y-106350800D01*
X146943800Y-106350800D01*
G37*
G36*
X146943800Y-106850800D02*
X145392200Y-106850800D01*
X145392200Y-106499200D01*
X146943800Y-106499200D01*
X146943800Y-106850800D01*
X146943800Y-106850800D01*
G37*
G36*
X146943800Y-107350800D02*
X145392200Y-107350800D01*
X145392200Y-106999200D01*
X146943800Y-106999200D01*
X146943800Y-107350800D01*
X146943800Y-107350800D01*
G37*
G36*
X147472439Y-121195338D02*
X147469579Y-121400159D01*
X147469483Y-121400580D01*
X147469483Y-121400597D01*
X147429854Y-121575027D01*
X147356916Y-121738847D01*
X147253549Y-121885380D01*
X147123687Y-122009046D01*
X146972280Y-122105131D01*
X146805088Y-122169981D01*
X146628493Y-122201120D01*
X146449209Y-122197364D01*
X146274065Y-122158856D01*
X146109740Y-122087065D01*
X145962491Y-121984723D01*
X145837920Y-121855727D01*
X145740781Y-121704996D01*
X145674766Y-121538263D01*
X145642395Y-121361886D01*
X145644899Y-121182576D01*
X145682181Y-121007176D01*
X145752825Y-120842352D01*
X145854138Y-120694387D01*
X145982259Y-120568922D01*
X146132308Y-120470733D01*
X146298578Y-120403555D01*
X146474726Y-120369953D01*
X146654042Y-120371206D01*
X146829706Y-120407264D01*
X146995014Y-120476753D01*
X147143683Y-120577032D01*
X147270040Y-120704275D01*
X147369276Y-120853635D01*
X147437611Y-121019429D01*
X147472355Y-121194900D01*
X147472354Y-121194912D01*
X147472439Y-121195338D01*
X147472439Y-121195338D01*
G37*
G36*
X147472439Y-123735338D02*
X147469579Y-123940159D01*
X147469483Y-123940580D01*
X147469483Y-123940597D01*
X147429854Y-124115027D01*
X147356916Y-124278847D01*
X147253549Y-124425380D01*
X147123687Y-124549046D01*
X146972280Y-124645131D01*
X146805088Y-124709981D01*
X146628493Y-124741120D01*
X146449209Y-124737364D01*
X146274065Y-124698856D01*
X146109740Y-124627065D01*
X145962491Y-124524723D01*
X145837920Y-124395727D01*
X145740781Y-124244996D01*
X145674766Y-124078263D01*
X145642395Y-123901886D01*
X145644899Y-123722576D01*
X145682181Y-123547176D01*
X145752825Y-123382352D01*
X145854138Y-123234387D01*
X145982259Y-123108922D01*
X146132308Y-123010733D01*
X146298578Y-122943555D01*
X146474726Y-122909953D01*
X146654042Y-122911206D01*
X146829706Y-122947264D01*
X146995014Y-123016753D01*
X147143683Y-123117032D01*
X147270040Y-123244275D01*
X147369276Y-123393635D01*
X147437611Y-123559429D01*
X147472355Y-123734900D01*
X147472354Y-123734912D01*
X147472439Y-123735338D01*
X147472439Y-123735338D01*
G37*
G36*
X148128800Y-112195800D02*
X147527200Y-112195800D01*
X147527200Y-111494200D01*
X148128800Y-111494200D01*
X148128800Y-112195800D01*
X148128800Y-112195800D01*
G37*
G36*
X148128800Y-113295800D02*
X147527200Y-113295800D01*
X147527200Y-112594200D01*
X148128800Y-112594200D01*
X148128800Y-113295800D01*
X148128800Y-113295800D01*
G37*
G36*
X148128800Y-114735800D02*
X147527200Y-114735800D01*
X147527200Y-114034200D01*
X148128800Y-114034200D01*
X148128800Y-114735800D01*
X148128800Y-114735800D01*
G37*
G36*
X148128800Y-115835800D02*
X147527200Y-115835800D01*
X147527200Y-115134200D01*
X148128800Y-115134200D01*
X148128800Y-115835800D01*
X148128800Y-115835800D01*
G37*
G36*
X148143800Y-88650800D02*
X147792200Y-88650800D01*
X147792200Y-87099200D01*
X148143800Y-87099200D01*
X148143800Y-88650800D01*
X148143800Y-88650800D01*
G37*
G36*
X148143800Y-109750800D02*
X147792200Y-109750800D01*
X147792200Y-108199200D01*
X148143800Y-108199200D01*
X148143800Y-109750800D01*
X148143800Y-109750800D01*
G37*
G36*
X148488439Y-75475338D02*
X148485579Y-75680159D01*
X148485483Y-75680580D01*
X148485483Y-75680597D01*
X148445854Y-75855027D01*
X148372916Y-76018847D01*
X148269549Y-76165380D01*
X148139687Y-76289046D01*
X147988280Y-76385131D01*
X147821088Y-76449981D01*
X147644493Y-76481120D01*
X147465209Y-76477364D01*
X147290065Y-76438856D01*
X147125740Y-76367065D01*
X146978491Y-76264723D01*
X146853920Y-76135727D01*
X146756781Y-75984996D01*
X146690766Y-75818263D01*
X146658395Y-75641886D01*
X146660899Y-75462576D01*
X146698181Y-75287176D01*
X146768825Y-75122352D01*
X146870138Y-74974387D01*
X146998259Y-74848922D01*
X147148308Y-74750733D01*
X147314578Y-74683555D01*
X147490726Y-74649953D01*
X147670042Y-74651206D01*
X147845706Y-74687264D01*
X148011014Y-74756753D01*
X148159683Y-74857032D01*
X148286040Y-74984275D01*
X148385276Y-75133635D01*
X148453611Y-75299429D01*
X148488355Y-75474900D01*
X148488354Y-75474912D01*
X148488439Y-75475338D01*
X148488439Y-75475338D01*
G37*
G36*
X148488439Y-78015338D02*
X148485579Y-78220159D01*
X148485483Y-78220580D01*
X148485483Y-78220597D01*
X148445854Y-78395027D01*
X148372916Y-78558847D01*
X148269549Y-78705380D01*
X148139687Y-78829046D01*
X147988280Y-78925131D01*
X147821088Y-78989981D01*
X147644493Y-79021120D01*
X147465209Y-79017364D01*
X147290065Y-78978856D01*
X147125740Y-78907065D01*
X146978491Y-78804723D01*
X146853920Y-78675727D01*
X146756781Y-78524996D01*
X146690766Y-78358263D01*
X146658395Y-78181886D01*
X146660899Y-78002576D01*
X146698181Y-77827176D01*
X146768825Y-77662352D01*
X146870138Y-77514387D01*
X146998259Y-77388922D01*
X147148308Y-77290733D01*
X147314578Y-77223555D01*
X147490726Y-77189953D01*
X147670042Y-77191206D01*
X147845706Y-77227264D01*
X148011014Y-77296753D01*
X148159683Y-77397032D01*
X148286040Y-77524275D01*
X148385276Y-77673635D01*
X148453611Y-77839429D01*
X148488355Y-78014900D01*
X148488354Y-78014912D01*
X148488439Y-78015338D01*
X148488439Y-78015338D01*
G37*
G36*
X148643800Y-88650800D02*
X148292200Y-88650800D01*
X148292200Y-87099200D01*
X148643800Y-87099200D01*
X148643800Y-88650800D01*
X148643800Y-88650800D01*
G37*
G36*
X148643800Y-109750800D02*
X148292200Y-109750800D01*
X148292200Y-108199200D01*
X148643800Y-108199200D01*
X148643800Y-109750800D01*
X148643800Y-109750800D01*
G37*
G36*
X149143800Y-88650800D02*
X148792200Y-88650800D01*
X148792200Y-87099200D01*
X149143800Y-87099200D01*
X149143800Y-88650800D01*
X149143800Y-88650800D01*
G37*
G36*
X149143800Y-109750800D02*
X148792200Y-109750800D01*
X148792200Y-108199200D01*
X149143800Y-108199200D01*
X149143800Y-109750800D01*
X149143800Y-109750800D01*
G37*
G36*
X149398800Y-112195800D02*
X148797200Y-112195800D01*
X148797200Y-111494200D01*
X149398800Y-111494200D01*
X149398800Y-112195800D01*
X149398800Y-112195800D01*
G37*
G36*
X149398800Y-113295800D02*
X148797200Y-113295800D01*
X148797200Y-112594200D01*
X149398800Y-112594200D01*
X149398800Y-113295800D01*
X149398800Y-113295800D01*
G37*
G36*
X149398800Y-114735800D02*
X148797200Y-114735800D01*
X148797200Y-114034200D01*
X149398800Y-114034200D01*
X149398800Y-114735800D01*
X149398800Y-114735800D01*
G37*
G36*
X149398800Y-115835800D02*
X148797200Y-115835800D01*
X148797200Y-115134200D01*
X149398800Y-115134200D01*
X149398800Y-115835800D01*
X149398800Y-115835800D01*
G37*
G36*
X149643800Y-88650800D02*
X149292200Y-88650800D01*
X149292200Y-87099200D01*
X149643800Y-87099200D01*
X149643800Y-88650800D01*
X149643800Y-88650800D01*
G37*
G36*
X149643800Y-109750800D02*
X149292200Y-109750800D01*
X149292200Y-108199200D01*
X149643800Y-108199200D01*
X149643800Y-109750800D01*
X149643800Y-109750800D01*
G37*
G36*
X150012439Y-121195338D02*
X150009579Y-121400159D01*
X150009483Y-121400580D01*
X150009483Y-121400597D01*
X149969854Y-121575027D01*
X149896916Y-121738847D01*
X149793549Y-121885380D01*
X149663687Y-122009046D01*
X149512280Y-122105131D01*
X149345088Y-122169981D01*
X149168493Y-122201120D01*
X148989209Y-122197364D01*
X148814065Y-122158856D01*
X148649740Y-122087065D01*
X148502491Y-121984723D01*
X148377920Y-121855727D01*
X148280781Y-121704996D01*
X148214766Y-121538263D01*
X148182395Y-121361886D01*
X148184899Y-121182576D01*
X148222181Y-121007176D01*
X148292825Y-120842352D01*
X148394138Y-120694387D01*
X148522259Y-120568922D01*
X148672308Y-120470733D01*
X148838578Y-120403555D01*
X149014726Y-120369953D01*
X149194042Y-120371206D01*
X149369706Y-120407264D01*
X149535014Y-120476753D01*
X149683683Y-120577032D01*
X149810040Y-120704275D01*
X149909276Y-120853635D01*
X149977611Y-121019429D01*
X150012355Y-121194900D01*
X150012354Y-121194912D01*
X150012439Y-121195338D01*
X150012439Y-121195338D01*
G37*
G36*
X150012439Y-123735338D02*
X150009579Y-123940159D01*
X150009483Y-123940580D01*
X150009483Y-123940597D01*
X149969854Y-124115027D01*
X149896916Y-124278847D01*
X149793549Y-124425380D01*
X149663687Y-124549046D01*
X149512280Y-124645131D01*
X149345088Y-124709981D01*
X149168493Y-124741120D01*
X148989209Y-124737364D01*
X148814065Y-124698856D01*
X148649740Y-124627065D01*
X148502491Y-124524723D01*
X148377920Y-124395727D01*
X148280781Y-124244996D01*
X148214766Y-124078263D01*
X148182395Y-123901886D01*
X148184899Y-123722576D01*
X148222181Y-123547176D01*
X148292825Y-123382352D01*
X148394138Y-123234387D01*
X148522259Y-123108922D01*
X148672308Y-123010733D01*
X148838578Y-122943555D01*
X149014726Y-122909953D01*
X149194042Y-122911206D01*
X149369706Y-122947264D01*
X149535014Y-123016753D01*
X149683683Y-123117032D01*
X149810040Y-123244275D01*
X149909276Y-123393635D01*
X149977611Y-123559429D01*
X150012355Y-123734900D01*
X150012354Y-123734912D01*
X150012439Y-123735338D01*
X150012439Y-123735338D01*
G37*
G36*
X150143800Y-88650800D02*
X149792200Y-88650800D01*
X149792200Y-87099200D01*
X150143800Y-87099200D01*
X150143800Y-88650800D01*
X150143800Y-88650800D01*
G37*
G36*
X150143800Y-109750800D02*
X149792200Y-109750800D01*
X149792200Y-108199200D01*
X150143800Y-108199200D01*
X150143800Y-109750800D01*
X150143800Y-109750800D01*
G37*
G36*
X150643800Y-88650800D02*
X150292200Y-88650800D01*
X150292200Y-87099200D01*
X150643800Y-87099200D01*
X150643800Y-88650800D01*
X150643800Y-88650800D01*
G37*
G36*
X150643800Y-109750800D02*
X150292200Y-109750800D01*
X150292200Y-108199200D01*
X150643800Y-108199200D01*
X150643800Y-109750800D01*
X150643800Y-109750800D01*
G37*
G36*
X150668800Y-112195800D02*
X150067200Y-112195800D01*
X150067200Y-111494200D01*
X150668800Y-111494200D01*
X150668800Y-112195800D01*
X150668800Y-112195800D01*
G37*
G36*
X150668800Y-113295800D02*
X150067200Y-113295800D01*
X150067200Y-112594200D01*
X150668800Y-112594200D01*
X150668800Y-113295800D01*
X150668800Y-113295800D01*
G37*
G36*
X150668800Y-114735800D02*
X150067200Y-114735800D01*
X150067200Y-114034200D01*
X150668800Y-114034200D01*
X150668800Y-114735800D01*
X150668800Y-114735800D01*
G37*
G36*
X150668800Y-115835800D02*
X150067200Y-115835800D01*
X150067200Y-115134200D01*
X150668800Y-115134200D01*
X150668800Y-115835800D01*
X150668800Y-115835800D01*
G37*
G36*
X151028439Y-75475338D02*
X151025579Y-75680159D01*
X151025483Y-75680580D01*
X151025483Y-75680597D01*
X150985854Y-75855027D01*
X150912916Y-76018847D01*
X150809549Y-76165380D01*
X150679687Y-76289046D01*
X150528280Y-76385131D01*
X150361088Y-76449981D01*
X150184493Y-76481120D01*
X150005209Y-76477364D01*
X149830065Y-76438856D01*
X149665740Y-76367065D01*
X149518491Y-76264723D01*
X149393920Y-76135727D01*
X149296781Y-75984996D01*
X149230766Y-75818263D01*
X149198395Y-75641886D01*
X149200899Y-75462576D01*
X149238181Y-75287176D01*
X149308825Y-75122352D01*
X149410138Y-74974387D01*
X149538259Y-74848922D01*
X149688308Y-74750733D01*
X149854578Y-74683555D01*
X150030726Y-74649953D01*
X150210042Y-74651206D01*
X150385706Y-74687264D01*
X150551014Y-74756753D01*
X150699683Y-74857032D01*
X150826040Y-74984275D01*
X150925276Y-75133635D01*
X150993611Y-75299429D01*
X151028355Y-75474900D01*
X151028354Y-75474912D01*
X151028439Y-75475338D01*
X151028439Y-75475338D01*
G37*
G36*
X151028439Y-78015338D02*
X151025579Y-78220159D01*
X151025483Y-78220580D01*
X151025483Y-78220597D01*
X150985854Y-78395027D01*
X150912916Y-78558847D01*
X150809549Y-78705380D01*
X150679687Y-78829046D01*
X150528280Y-78925131D01*
X150361088Y-78989981D01*
X150184493Y-79021120D01*
X150005209Y-79017364D01*
X149830065Y-78978856D01*
X149665740Y-78907065D01*
X149518491Y-78804723D01*
X149393920Y-78675727D01*
X149296781Y-78524996D01*
X149230766Y-78358263D01*
X149198395Y-78181886D01*
X149200899Y-78002576D01*
X149238181Y-77827176D01*
X149308825Y-77662352D01*
X149410138Y-77514387D01*
X149538259Y-77388922D01*
X149688308Y-77290733D01*
X149854578Y-77223555D01*
X150030726Y-77189953D01*
X150210042Y-77191206D01*
X150385706Y-77227264D01*
X150551014Y-77296753D01*
X150699683Y-77397032D01*
X150826040Y-77524275D01*
X150925276Y-77673635D01*
X150993611Y-77839429D01*
X151028355Y-78014900D01*
X151028354Y-78014912D01*
X151028439Y-78015338D01*
X151028439Y-78015338D01*
G37*
G36*
X151143800Y-88650800D02*
X150792200Y-88650800D01*
X150792200Y-87099200D01*
X151143800Y-87099200D01*
X151143800Y-88650800D01*
X151143800Y-88650800D01*
G37*
G36*
X151143800Y-109750800D02*
X150792200Y-109750800D01*
X150792200Y-108199200D01*
X151143800Y-108199200D01*
X151143800Y-109750800D01*
X151143800Y-109750800D01*
G37*
G36*
X151643800Y-88650800D02*
X151292200Y-88650800D01*
X151292200Y-87099200D01*
X151643800Y-87099200D01*
X151643800Y-88650800D01*
X151643800Y-88650800D01*
G37*
G36*
X151643800Y-109750800D02*
X151292200Y-109750800D01*
X151292200Y-108199200D01*
X151643800Y-108199200D01*
X151643800Y-109750800D01*
X151643800Y-109750800D01*
G37*
G36*
X151938800Y-112195800D02*
X151337200Y-112195800D01*
X151337200Y-111494200D01*
X151938800Y-111494200D01*
X151938800Y-112195800D01*
X151938800Y-112195800D01*
G37*
G36*
X151938800Y-113295800D02*
X151337200Y-113295800D01*
X151337200Y-112594200D01*
X151938800Y-112594200D01*
X151938800Y-113295800D01*
X151938800Y-113295800D01*
G37*
G36*
X151938800Y-114735800D02*
X151337200Y-114735800D01*
X151337200Y-114034200D01*
X151938800Y-114034200D01*
X151938800Y-114735800D01*
X151938800Y-114735800D01*
G37*
G36*
X151938800Y-115835800D02*
X151337200Y-115835800D01*
X151337200Y-115134200D01*
X151938800Y-115134200D01*
X151938800Y-115835800D01*
X151938800Y-115835800D01*
G37*
G36*
X152143800Y-88650800D02*
X151792200Y-88650800D01*
X151792200Y-87099200D01*
X152143800Y-87099200D01*
X152143800Y-88650800D01*
X152143800Y-88650800D01*
G37*
G36*
X152143800Y-109750800D02*
X151792200Y-109750800D01*
X151792200Y-108199200D01*
X152143800Y-108199200D01*
X152143800Y-109750800D01*
X152143800Y-109750800D01*
G37*
G36*
X152552439Y-121195338D02*
X152549579Y-121400159D01*
X152549483Y-121400580D01*
X152549483Y-121400597D01*
X152509854Y-121575027D01*
X152436916Y-121738847D01*
X152333549Y-121885380D01*
X152203687Y-122009046D01*
X152052280Y-122105131D01*
X151885088Y-122169981D01*
X151708493Y-122201120D01*
X151529209Y-122197364D01*
X151354065Y-122158856D01*
X151189740Y-122087065D01*
X151042491Y-121984723D01*
X150917920Y-121855727D01*
X150820781Y-121704996D01*
X150754766Y-121538263D01*
X150722395Y-121361886D01*
X150724899Y-121182576D01*
X150762181Y-121007176D01*
X150832825Y-120842352D01*
X150934138Y-120694387D01*
X151062259Y-120568922D01*
X151212308Y-120470733D01*
X151378578Y-120403555D01*
X151554726Y-120369953D01*
X151734042Y-120371206D01*
X151909706Y-120407264D01*
X152075014Y-120476753D01*
X152223683Y-120577032D01*
X152350040Y-120704275D01*
X152449276Y-120853635D01*
X152517611Y-121019429D01*
X152552355Y-121194900D01*
X152552354Y-121194912D01*
X152552439Y-121195338D01*
X152552439Y-121195338D01*
G37*
G36*
X152552439Y-123735338D02*
X152549579Y-123940159D01*
X152549483Y-123940580D01*
X152549483Y-123940597D01*
X152509854Y-124115027D01*
X152436916Y-124278847D01*
X152333549Y-124425380D01*
X152203687Y-124549046D01*
X152052280Y-124645131D01*
X151885088Y-124709981D01*
X151708493Y-124741120D01*
X151529209Y-124737364D01*
X151354065Y-124698856D01*
X151189740Y-124627065D01*
X151042491Y-124524723D01*
X150917920Y-124395727D01*
X150820781Y-124244996D01*
X150754766Y-124078263D01*
X150722395Y-123901886D01*
X150724899Y-123722576D01*
X150762181Y-123547176D01*
X150832825Y-123382352D01*
X150934138Y-123234387D01*
X151062259Y-123108922D01*
X151212308Y-123010733D01*
X151378578Y-122943555D01*
X151554726Y-122909953D01*
X151734042Y-122911206D01*
X151909706Y-122947264D01*
X152075014Y-123016753D01*
X152223683Y-123117032D01*
X152350040Y-123244275D01*
X152449276Y-123393635D01*
X152517611Y-123559429D01*
X152552355Y-123734900D01*
X152552354Y-123734912D01*
X152552439Y-123735338D01*
X152552439Y-123735338D01*
G37*
G36*
X152643800Y-88650800D02*
X152292200Y-88650800D01*
X152292200Y-87099200D01*
X152643800Y-87099200D01*
X152643800Y-88650800D01*
X152643800Y-88650800D01*
G37*
G36*
X152643800Y-109750800D02*
X152292200Y-109750800D01*
X152292200Y-108199200D01*
X152643800Y-108199200D01*
X152643800Y-109750800D01*
X152643800Y-109750800D01*
G37*
G36*
X153143800Y-88650800D02*
X152792200Y-88650800D01*
X152792200Y-87099200D01*
X153143800Y-87099200D01*
X153143800Y-88650800D01*
X153143800Y-88650800D01*
G37*
G36*
X153143800Y-109750800D02*
X152792200Y-109750800D01*
X152792200Y-108199200D01*
X153143800Y-108199200D01*
X153143800Y-109750800D01*
X153143800Y-109750800D01*
G37*
G36*
X153208800Y-84255800D02*
X152607200Y-84255800D01*
X152607200Y-83554200D01*
X153208800Y-83554200D01*
X153208800Y-84255800D01*
X153208800Y-84255800D01*
G37*
G36*
X153208800Y-85355800D02*
X152607200Y-85355800D01*
X152607200Y-84654200D01*
X153208800Y-84654200D01*
X153208800Y-85355800D01*
X153208800Y-85355800D01*
G37*
G36*
X153208800Y-112195800D02*
X152607200Y-112195800D01*
X152607200Y-111494200D01*
X153208800Y-111494200D01*
X153208800Y-112195800D01*
X153208800Y-112195800D01*
G37*
G36*
X153208800Y-113295800D02*
X152607200Y-113295800D01*
X152607200Y-112594200D01*
X153208800Y-112594200D01*
X153208800Y-113295800D01*
X153208800Y-113295800D01*
G37*
G36*
X153408800Y-114485800D02*
X152407200Y-114485800D01*
X152407200Y-113884200D01*
X153408800Y-113884200D01*
X153408800Y-114485800D01*
X153408800Y-114485800D01*
G37*
G36*
X153408800Y-115985800D02*
X152407200Y-115985800D01*
X152407200Y-115384200D01*
X153408800Y-115384200D01*
X153408800Y-115985800D01*
X153408800Y-115985800D01*
G37*
G36*
X153568439Y-75475338D02*
X153565579Y-75680159D01*
X153565483Y-75680580D01*
X153565483Y-75680597D01*
X153525854Y-75855027D01*
X153452916Y-76018847D01*
X153349549Y-76165380D01*
X153219687Y-76289046D01*
X153068280Y-76385131D01*
X152901088Y-76449981D01*
X152724493Y-76481120D01*
X152545209Y-76477364D01*
X152370065Y-76438856D01*
X152205740Y-76367065D01*
X152058491Y-76264723D01*
X151933920Y-76135727D01*
X151836781Y-75984996D01*
X151770766Y-75818263D01*
X151738395Y-75641886D01*
X151740899Y-75462576D01*
X151778181Y-75287176D01*
X151848825Y-75122352D01*
X151950138Y-74974387D01*
X152078259Y-74848922D01*
X152228308Y-74750733D01*
X152394578Y-74683555D01*
X152570726Y-74649953D01*
X152750042Y-74651206D01*
X152925706Y-74687264D01*
X153091014Y-74756753D01*
X153239683Y-74857032D01*
X153366040Y-74984275D01*
X153465276Y-75133635D01*
X153533611Y-75299429D01*
X153568355Y-75474900D01*
X153568354Y-75474912D01*
X153568439Y-75475338D01*
X153568439Y-75475338D01*
G37*
G36*
X153568439Y-78015338D02*
X153565579Y-78220159D01*
X153565483Y-78220580D01*
X153565483Y-78220597D01*
X153525854Y-78395027D01*
X153452916Y-78558847D01*
X153349549Y-78705380D01*
X153219687Y-78829046D01*
X153068280Y-78925131D01*
X152901088Y-78989981D01*
X152724493Y-79021120D01*
X152545209Y-79017364D01*
X152370065Y-78978856D01*
X152205740Y-78907065D01*
X152058491Y-78804723D01*
X151933920Y-78675727D01*
X151836781Y-78524996D01*
X151770766Y-78358263D01*
X151738395Y-78181886D01*
X151740899Y-78002576D01*
X151778181Y-77827176D01*
X151848825Y-77662352D01*
X151950138Y-77514387D01*
X152078259Y-77388922D01*
X152228308Y-77290733D01*
X152394578Y-77223555D01*
X152570726Y-77189953D01*
X152750042Y-77191206D01*
X152925706Y-77227264D01*
X153091014Y-77296753D01*
X153239683Y-77397032D01*
X153366040Y-77524275D01*
X153465276Y-77673635D01*
X153533611Y-77839429D01*
X153568355Y-78014900D01*
X153568354Y-78014912D01*
X153568439Y-78015338D01*
X153568439Y-78015338D01*
G37*
G36*
X153643800Y-88650800D02*
X153292200Y-88650800D01*
X153292200Y-87099200D01*
X153643800Y-87099200D01*
X153643800Y-88650800D01*
X153643800Y-88650800D01*
G37*
G36*
X153643800Y-109750800D02*
X153292200Y-109750800D01*
X153292200Y-108199200D01*
X153643800Y-108199200D01*
X153643800Y-109750800D01*
X153643800Y-109750800D01*
G37*
G36*
X154143800Y-88650800D02*
X153792200Y-88650800D01*
X153792200Y-87099200D01*
X154143800Y-87099200D01*
X154143800Y-88650800D01*
X154143800Y-88650800D01*
G37*
G36*
X154143800Y-109750800D02*
X153792200Y-109750800D01*
X153792200Y-108199200D01*
X154143800Y-108199200D01*
X154143800Y-109750800D01*
X154143800Y-109750800D01*
G37*
G36*
X154478800Y-112195800D02*
X153877200Y-112195800D01*
X153877200Y-111494200D01*
X154478800Y-111494200D01*
X154478800Y-112195800D01*
X154478800Y-112195800D01*
G37*
G36*
X154478800Y-113295800D02*
X153877200Y-113295800D01*
X153877200Y-112594200D01*
X154478800Y-112594200D01*
X154478800Y-113295800D01*
X154478800Y-113295800D01*
G37*
G36*
X154478800Y-114735800D02*
X153877200Y-114735800D01*
X153877200Y-114034200D01*
X154478800Y-114034200D01*
X154478800Y-114735800D01*
X154478800Y-114735800D01*
G37*
G36*
X154478800Y-115835800D02*
X153877200Y-115835800D01*
X153877200Y-115134200D01*
X154478800Y-115134200D01*
X154478800Y-115835800D01*
X154478800Y-115835800D01*
G37*
G36*
X154643800Y-88650800D02*
X154292200Y-88650800D01*
X154292200Y-87099200D01*
X154643800Y-87099200D01*
X154643800Y-88650800D01*
X154643800Y-88650800D01*
G37*
G36*
X154643800Y-109750800D02*
X154292200Y-109750800D01*
X154292200Y-108199200D01*
X154643800Y-108199200D01*
X154643800Y-109750800D01*
X154643800Y-109750800D01*
G37*
G36*
X155092439Y-121195338D02*
X155089579Y-121400159D01*
X155089483Y-121400580D01*
X155089483Y-121400597D01*
X155049854Y-121575027D01*
X154976916Y-121738847D01*
X154873549Y-121885380D01*
X154743687Y-122009046D01*
X154592280Y-122105131D01*
X154425088Y-122169981D01*
X154248493Y-122201120D01*
X154069209Y-122197364D01*
X153894065Y-122158856D01*
X153729740Y-122087065D01*
X153582491Y-121984723D01*
X153457920Y-121855727D01*
X153360781Y-121704996D01*
X153294766Y-121538263D01*
X153262395Y-121361886D01*
X153264899Y-121182576D01*
X153302181Y-121007176D01*
X153372825Y-120842352D01*
X153474138Y-120694387D01*
X153602259Y-120568922D01*
X153752308Y-120470733D01*
X153918578Y-120403555D01*
X154094726Y-120369953D01*
X154274042Y-120371206D01*
X154449706Y-120407264D01*
X154615014Y-120476753D01*
X154763683Y-120577032D01*
X154890040Y-120704275D01*
X154989276Y-120853635D01*
X155057611Y-121019429D01*
X155092355Y-121194900D01*
X155092354Y-121194912D01*
X155092439Y-121195338D01*
X155092439Y-121195338D01*
G37*
G36*
X155092439Y-123735338D02*
X155089579Y-123940159D01*
X155089483Y-123940580D01*
X155089483Y-123940597D01*
X155049854Y-124115027D01*
X154976916Y-124278847D01*
X154873549Y-124425380D01*
X154743687Y-124549046D01*
X154592280Y-124645131D01*
X154425088Y-124709981D01*
X154248493Y-124741120D01*
X154069209Y-124737364D01*
X153894065Y-124698856D01*
X153729740Y-124627065D01*
X153582491Y-124524723D01*
X153457920Y-124395727D01*
X153360781Y-124244996D01*
X153294766Y-124078263D01*
X153262395Y-123901886D01*
X153264899Y-123722576D01*
X153302181Y-123547176D01*
X153372825Y-123382352D01*
X153474138Y-123234387D01*
X153602259Y-123108922D01*
X153752308Y-123010733D01*
X153918578Y-122943555D01*
X154094726Y-122909953D01*
X154274042Y-122911206D01*
X154449706Y-122947264D01*
X154615014Y-123016753D01*
X154763683Y-123117032D01*
X154890040Y-123244275D01*
X154989276Y-123393635D01*
X155057611Y-123559429D01*
X155092355Y-123734900D01*
X155092354Y-123734912D01*
X155092439Y-123735338D01*
X155092439Y-123735338D01*
G37*
G36*
X155143800Y-88650800D02*
X154792200Y-88650800D01*
X154792200Y-87099200D01*
X155143800Y-87099200D01*
X155143800Y-88650800D01*
X155143800Y-88650800D01*
G37*
G36*
X155143800Y-109750800D02*
X154792200Y-109750800D01*
X154792200Y-108199200D01*
X155143800Y-108199200D01*
X155143800Y-109750800D01*
X155143800Y-109750800D01*
G37*
G36*
X155643800Y-88650800D02*
X155292200Y-88650800D01*
X155292200Y-87099200D01*
X155643800Y-87099200D01*
X155643800Y-88650800D01*
X155643800Y-88650800D01*
G37*
G36*
X155643800Y-109750800D02*
X155292200Y-109750800D01*
X155292200Y-108199200D01*
X155643800Y-108199200D01*
X155643800Y-109750800D01*
X155643800Y-109750800D01*
G37*
G36*
X155748800Y-112195800D02*
X155147200Y-112195800D01*
X155147200Y-111494200D01*
X155748800Y-111494200D01*
X155748800Y-112195800D01*
X155748800Y-112195800D01*
G37*
G36*
X155748800Y-113295800D02*
X155147200Y-113295800D01*
X155147200Y-112594200D01*
X155748800Y-112594200D01*
X155748800Y-113295800D01*
X155748800Y-113295800D01*
G37*
G36*
X155748800Y-114735800D02*
X155147200Y-114735800D01*
X155147200Y-114034200D01*
X155748800Y-114034200D01*
X155748800Y-114735800D01*
X155748800Y-114735800D01*
G37*
G36*
X155748800Y-115835800D02*
X155147200Y-115835800D01*
X155147200Y-115134200D01*
X155748800Y-115134200D01*
X155748800Y-115835800D01*
X155748800Y-115835800D01*
G37*
G36*
X156143800Y-88650800D02*
X155792200Y-88650800D01*
X155792200Y-87099200D01*
X156143800Y-87099200D01*
X156143800Y-88650800D01*
X156143800Y-88650800D01*
G37*
G36*
X156143800Y-109750800D02*
X155792200Y-109750800D01*
X155792200Y-108199200D01*
X156143800Y-108199200D01*
X156143800Y-109750800D01*
X156143800Y-109750800D01*
G37*
G36*
X156643800Y-88650800D02*
X156292200Y-88650800D01*
X156292200Y-87099200D01*
X156643800Y-87099200D01*
X156643800Y-88650800D01*
X156643800Y-88650800D01*
G37*
G36*
X156643800Y-109750800D02*
X156292200Y-109750800D01*
X156292200Y-108199200D01*
X156643800Y-108199200D01*
X156643800Y-109750800D01*
X156643800Y-109750800D01*
G37*
G36*
X157018800Y-112195800D02*
X156417200Y-112195800D01*
X156417200Y-111494200D01*
X157018800Y-111494200D01*
X157018800Y-112195800D01*
X157018800Y-112195800D01*
G37*
G36*
X157018800Y-113295800D02*
X156417200Y-113295800D01*
X156417200Y-112594200D01*
X157018800Y-112594200D01*
X157018800Y-113295800D01*
X157018800Y-113295800D01*
G37*
G36*
X157018800Y-114735800D02*
X156417200Y-114735800D01*
X156417200Y-114034200D01*
X157018800Y-114034200D01*
X157018800Y-114735800D01*
X157018800Y-114735800D01*
G37*
G36*
X157018800Y-115835800D02*
X156417200Y-115835800D01*
X156417200Y-115134200D01*
X157018800Y-115134200D01*
X157018800Y-115835800D01*
X157018800Y-115835800D01*
G37*
G36*
X157143800Y-88650800D02*
X156792200Y-88650800D01*
X156792200Y-87099200D01*
X157143800Y-87099200D01*
X157143800Y-88650800D01*
X157143800Y-88650800D01*
G37*
G36*
X157143800Y-109750800D02*
X156792200Y-109750800D01*
X156792200Y-108199200D01*
X157143800Y-108199200D01*
X157143800Y-109750800D01*
X157143800Y-109750800D01*
G37*
G36*
X157632439Y-75475338D02*
X157629579Y-75680159D01*
X157629483Y-75680580D01*
X157629483Y-75680597D01*
X157589854Y-75855027D01*
X157516916Y-76018847D01*
X157413549Y-76165380D01*
X157283687Y-76289046D01*
X157132280Y-76385131D01*
X156965088Y-76449981D01*
X156788493Y-76481120D01*
X156609209Y-76477364D01*
X156434065Y-76438856D01*
X156269740Y-76367065D01*
X156122491Y-76264723D01*
X155997920Y-76135727D01*
X155900781Y-75984996D01*
X155834766Y-75818263D01*
X155802395Y-75641886D01*
X155804899Y-75462576D01*
X155842181Y-75287176D01*
X155912825Y-75122352D01*
X156014138Y-74974387D01*
X156142259Y-74848922D01*
X156292308Y-74750733D01*
X156458578Y-74683555D01*
X156634726Y-74649953D01*
X156814042Y-74651206D01*
X156989706Y-74687264D01*
X157155014Y-74756753D01*
X157303683Y-74857032D01*
X157430040Y-74984275D01*
X157529276Y-75133635D01*
X157597611Y-75299429D01*
X157632355Y-75474900D01*
X157632354Y-75474912D01*
X157632439Y-75475338D01*
X157632439Y-75475338D01*
G37*
G36*
X157632439Y-78015338D02*
X157629579Y-78220159D01*
X157629483Y-78220580D01*
X157629483Y-78220597D01*
X157589854Y-78395027D01*
X157516916Y-78558847D01*
X157413549Y-78705380D01*
X157283687Y-78829046D01*
X157132280Y-78925131D01*
X156965088Y-78989981D01*
X156788493Y-79021120D01*
X156609209Y-79017364D01*
X156434065Y-78978856D01*
X156269740Y-78907065D01*
X156122491Y-78804723D01*
X155997920Y-78675727D01*
X155900781Y-78524996D01*
X155834766Y-78358263D01*
X155802395Y-78181886D01*
X155804899Y-78002576D01*
X155842181Y-77827176D01*
X155912825Y-77662352D01*
X156014138Y-77514387D01*
X156142259Y-77388922D01*
X156292308Y-77290733D01*
X156458578Y-77223555D01*
X156634726Y-77189953D01*
X156814042Y-77191206D01*
X156989706Y-77227264D01*
X157155014Y-77296753D01*
X157303683Y-77397032D01*
X157430040Y-77524275D01*
X157529276Y-77673635D01*
X157597611Y-77839429D01*
X157632355Y-78014900D01*
X157632354Y-78014912D01*
X157632439Y-78015338D01*
X157632439Y-78015338D01*
G37*
G36*
X157632439Y-121195338D02*
X157629579Y-121400159D01*
X157629483Y-121400580D01*
X157629483Y-121400597D01*
X157589854Y-121575027D01*
X157516916Y-121738847D01*
X157413549Y-121885380D01*
X157283687Y-122009046D01*
X157132280Y-122105131D01*
X156965088Y-122169981D01*
X156788493Y-122201120D01*
X156609209Y-122197364D01*
X156434065Y-122158856D01*
X156269740Y-122087065D01*
X156122491Y-121984723D01*
X155997920Y-121855727D01*
X155900781Y-121704996D01*
X155834766Y-121538263D01*
X155802395Y-121361886D01*
X155804899Y-121182576D01*
X155842181Y-121007176D01*
X155912825Y-120842352D01*
X156014138Y-120694387D01*
X156142259Y-120568922D01*
X156292308Y-120470733D01*
X156458578Y-120403555D01*
X156634726Y-120369953D01*
X156814042Y-120371206D01*
X156989706Y-120407264D01*
X157155014Y-120476753D01*
X157303683Y-120577032D01*
X157430040Y-120704275D01*
X157529276Y-120853635D01*
X157597611Y-121019429D01*
X157632355Y-121194900D01*
X157632354Y-121194912D01*
X157632439Y-121195338D01*
X157632439Y-121195338D01*
G37*
G36*
X157632439Y-123735338D02*
X157629579Y-123940159D01*
X157629483Y-123940580D01*
X157629483Y-123940597D01*
X157589854Y-124115027D01*
X157516916Y-124278847D01*
X157413549Y-124425380D01*
X157283687Y-124549046D01*
X157132280Y-124645131D01*
X156965088Y-124709981D01*
X156788493Y-124741120D01*
X156609209Y-124737364D01*
X156434065Y-124698856D01*
X156269740Y-124627065D01*
X156122491Y-124524723D01*
X155997920Y-124395727D01*
X155900781Y-124244996D01*
X155834766Y-124078263D01*
X155802395Y-123901886D01*
X155804899Y-123722576D01*
X155842181Y-123547176D01*
X155912825Y-123382352D01*
X156014138Y-123234387D01*
X156142259Y-123108922D01*
X156292308Y-123010733D01*
X156458578Y-122943555D01*
X156634726Y-122909953D01*
X156814042Y-122911206D01*
X156989706Y-122947264D01*
X157155014Y-123016753D01*
X157303683Y-123117032D01*
X157430040Y-123244275D01*
X157529276Y-123393635D01*
X157597611Y-123559429D01*
X157632355Y-123734900D01*
X157632354Y-123734912D01*
X157632439Y-123735338D01*
X157632439Y-123735338D01*
G37*
G36*
X157643800Y-88650800D02*
X157292200Y-88650800D01*
X157292200Y-87099200D01*
X157643800Y-87099200D01*
X157643800Y-88650800D01*
X157643800Y-88650800D01*
G37*
G36*
X157643800Y-109750800D02*
X157292200Y-109750800D01*
X157292200Y-108199200D01*
X157643800Y-108199200D01*
X157643800Y-109750800D01*
X157643800Y-109750800D01*
G37*
G36*
X158143800Y-88650800D02*
X157792200Y-88650800D01*
X157792200Y-87099200D01*
X158143800Y-87099200D01*
X158143800Y-88650800D01*
X158143800Y-88650800D01*
G37*
G36*
X158143800Y-109750800D02*
X157792200Y-109750800D01*
X157792200Y-108199200D01*
X158143800Y-108199200D01*
X158143800Y-109750800D01*
X158143800Y-109750800D01*
G37*
G36*
X158288800Y-112195800D02*
X157687200Y-112195800D01*
X157687200Y-111494200D01*
X158288800Y-111494200D01*
X158288800Y-112195800D01*
X158288800Y-112195800D01*
G37*
G36*
X158288800Y-113295800D02*
X157687200Y-113295800D01*
X157687200Y-112594200D01*
X158288800Y-112594200D01*
X158288800Y-113295800D01*
X158288800Y-113295800D01*
G37*
G36*
X158288800Y-114735800D02*
X157687200Y-114735800D01*
X157687200Y-114034200D01*
X158288800Y-114034200D01*
X158288800Y-114735800D01*
X158288800Y-114735800D01*
G37*
G36*
X158288800Y-115835800D02*
X157687200Y-115835800D01*
X157687200Y-115134200D01*
X158288800Y-115134200D01*
X158288800Y-115835800D01*
X158288800Y-115835800D01*
G37*
G36*
X158643800Y-88650800D02*
X158292200Y-88650800D01*
X158292200Y-87099200D01*
X158643800Y-87099200D01*
X158643800Y-88650800D01*
X158643800Y-88650800D01*
G37*
G36*
X158643800Y-109750800D02*
X158292200Y-109750800D01*
X158292200Y-108199200D01*
X158643800Y-108199200D01*
X158643800Y-109750800D01*
X158643800Y-109750800D01*
G37*
G36*
X159143800Y-88650800D02*
X158792200Y-88650800D01*
X158792200Y-87099200D01*
X159143800Y-87099200D01*
X159143800Y-88650800D01*
X159143800Y-88650800D01*
G37*
G36*
X159143800Y-109750800D02*
X158792200Y-109750800D01*
X158792200Y-108199200D01*
X159143800Y-108199200D01*
X159143800Y-109750800D01*
X159143800Y-109750800D01*
G37*
G36*
X159268800Y-100975800D02*
X158018800Y-100975800D01*
X157917200Y-100975800D01*
X156768800Y-100975800D01*
X156667200Y-100975800D01*
X155518800Y-100975800D01*
X155417200Y-100975800D01*
X154167200Y-100975800D01*
X154167200Y-99725800D01*
X154167200Y-99624200D01*
X154167200Y-98475800D01*
X154167200Y-98374200D01*
X154167200Y-97225800D01*
X154167200Y-97124200D01*
X154167200Y-95874200D01*
X155417200Y-95874200D01*
X155518800Y-95874200D01*
X156667200Y-95874200D01*
X156768800Y-95874200D01*
X157917200Y-95874200D01*
X158018800Y-95874200D01*
X159268800Y-95874200D01*
X159268800Y-97124200D01*
X159268800Y-97225800D01*
X159268800Y-98374200D01*
X159268800Y-98475800D01*
X159268800Y-99624200D01*
X159268800Y-99725800D01*
X159268800Y-100975800D01*
X159268800Y-100975800D01*
G37*
G36*
X159558800Y-112195800D02*
X158957200Y-112195800D01*
X158957200Y-111494200D01*
X159558800Y-111494200D01*
X159558800Y-112195800D01*
X159558800Y-112195800D01*
G37*
G36*
X159558800Y-113295800D02*
X158957200Y-113295800D01*
X158957200Y-112594200D01*
X159558800Y-112594200D01*
X159558800Y-113295800D01*
X159558800Y-113295800D01*
G37*
G36*
X159558800Y-114735800D02*
X158957200Y-114735800D01*
X158957200Y-114034200D01*
X159558800Y-114034200D01*
X159558800Y-114735800D01*
X159558800Y-114735800D01*
G37*
G36*
X159558800Y-115835800D02*
X158957200Y-115835800D01*
X158957200Y-115134200D01*
X159558800Y-115134200D01*
X159558800Y-115835800D01*
X159558800Y-115835800D01*
G37*
G36*
X159643800Y-88650800D02*
X159292200Y-88650800D01*
X159292200Y-87099200D01*
X159643800Y-87099200D01*
X159643800Y-88650800D01*
X159643800Y-88650800D01*
G37*
G36*
X159643800Y-109750800D02*
X159292200Y-109750800D01*
X159292200Y-108199200D01*
X159643800Y-108199200D01*
X159643800Y-109750800D01*
X159643800Y-109750800D01*
G37*
G36*
X160143800Y-88650800D02*
X159792200Y-88650800D01*
X159792200Y-87099200D01*
X160143800Y-87099200D01*
X160143800Y-88650800D01*
X160143800Y-88650800D01*
G37*
G36*
X160143800Y-109750800D02*
X159792200Y-109750800D01*
X159792200Y-108199200D01*
X160143800Y-108199200D01*
X160143800Y-109750800D01*
X160143800Y-109750800D01*
G37*
G36*
X160172439Y-75475338D02*
X160169579Y-75680159D01*
X160169483Y-75680580D01*
X160169483Y-75680597D01*
X160129854Y-75855027D01*
X160056916Y-76018847D01*
X159953549Y-76165380D01*
X159823687Y-76289046D01*
X159672280Y-76385131D01*
X159505088Y-76449981D01*
X159328493Y-76481120D01*
X159149209Y-76477364D01*
X158974065Y-76438856D01*
X158809740Y-76367065D01*
X158662491Y-76264723D01*
X158537920Y-76135727D01*
X158440781Y-75984996D01*
X158374766Y-75818263D01*
X158342395Y-75641886D01*
X158344899Y-75462576D01*
X158382181Y-75287176D01*
X158452825Y-75122352D01*
X158554138Y-74974387D01*
X158682259Y-74848922D01*
X158832308Y-74750733D01*
X158998578Y-74683555D01*
X159174726Y-74649953D01*
X159354042Y-74651206D01*
X159529706Y-74687264D01*
X159695014Y-74756753D01*
X159843683Y-74857032D01*
X159970040Y-74984275D01*
X160069276Y-75133635D01*
X160137611Y-75299429D01*
X160172355Y-75474900D01*
X160172354Y-75474912D01*
X160172439Y-75475338D01*
X160172439Y-75475338D01*
G37*
G36*
X160172439Y-78015338D02*
X160169579Y-78220159D01*
X160169483Y-78220580D01*
X160169483Y-78220597D01*
X160129854Y-78395027D01*
X160056916Y-78558847D01*
X159953549Y-78705380D01*
X159823687Y-78829046D01*
X159672280Y-78925131D01*
X159505088Y-78989981D01*
X159328493Y-79021120D01*
X159149209Y-79017364D01*
X158974065Y-78978856D01*
X158809740Y-78907065D01*
X158662491Y-78804723D01*
X158537920Y-78675727D01*
X158440781Y-78524996D01*
X158374766Y-78358263D01*
X158342395Y-78181886D01*
X158344899Y-78002576D01*
X158382181Y-77827176D01*
X158452825Y-77662352D01*
X158554138Y-77514387D01*
X158682259Y-77388922D01*
X158832308Y-77290733D01*
X158998578Y-77223555D01*
X159174726Y-77189953D01*
X159354042Y-77191206D01*
X159529706Y-77227264D01*
X159695014Y-77296753D01*
X159843683Y-77397032D01*
X159970040Y-77524275D01*
X160069276Y-77673635D01*
X160137611Y-77839429D01*
X160172355Y-78014900D01*
X160172354Y-78014912D01*
X160172439Y-78015338D01*
X160172439Y-78015338D01*
G37*
G36*
X160643800Y-88650800D02*
X160292200Y-88650800D01*
X160292200Y-87099200D01*
X160643800Y-87099200D01*
X160643800Y-88650800D01*
X160643800Y-88650800D01*
G37*
G36*
X160643800Y-109750800D02*
X160292200Y-109750800D01*
X160292200Y-108199200D01*
X160643800Y-108199200D01*
X160643800Y-109750800D01*
X160643800Y-109750800D01*
G37*
G36*
X160828800Y-84255800D02*
X160227200Y-84255800D01*
X160227200Y-83554200D01*
X160828800Y-83554200D01*
X160828800Y-84255800D01*
X160828800Y-84255800D01*
G37*
G36*
X160828800Y-85355800D02*
X160227200Y-85355800D01*
X160227200Y-84654200D01*
X160828800Y-84654200D01*
X160828800Y-85355800D01*
X160828800Y-85355800D01*
G37*
G36*
X160828800Y-112195800D02*
X160227200Y-112195800D01*
X160227200Y-111494200D01*
X160828800Y-111494200D01*
X160828800Y-112195800D01*
X160828800Y-112195800D01*
G37*
G36*
X160828800Y-113295800D02*
X160227200Y-113295800D01*
X160227200Y-112594200D01*
X160828800Y-112594200D01*
X160828800Y-113295800D01*
X160828800Y-113295800D01*
G37*
G36*
X161028800Y-114485800D02*
X160027200Y-114485800D01*
X160027200Y-113884200D01*
X161028800Y-113884200D01*
X161028800Y-114485800D01*
X161028800Y-114485800D01*
G37*
G36*
X161028800Y-115985800D02*
X160027200Y-115985800D01*
X160027200Y-115384200D01*
X161028800Y-115384200D01*
X161028800Y-115985800D01*
X161028800Y-115985800D01*
G37*
G36*
X161143800Y-88650800D02*
X160792200Y-88650800D01*
X160792200Y-87099200D01*
X161143800Y-87099200D01*
X161143800Y-88650800D01*
X161143800Y-88650800D01*
G37*
G36*
X161143800Y-109750800D02*
X160792200Y-109750800D01*
X160792200Y-108199200D01*
X161143800Y-108199200D01*
X161143800Y-109750800D01*
X161143800Y-109750800D01*
G37*
G36*
X161643800Y-88650800D02*
X161292200Y-88650800D01*
X161292200Y-87099200D01*
X161643800Y-87099200D01*
X161643800Y-88650800D01*
X161643800Y-88650800D01*
G37*
G36*
X161643800Y-109750800D02*
X161292200Y-109750800D01*
X161292200Y-108199200D01*
X161643800Y-108199200D01*
X161643800Y-109750800D01*
X161643800Y-109750800D01*
G37*
G36*
X162143800Y-88650800D02*
X161792200Y-88650800D01*
X161792200Y-87099200D01*
X162143800Y-87099200D01*
X162143800Y-88650800D01*
X162143800Y-88650800D01*
G37*
G36*
X162143800Y-109750800D02*
X161792200Y-109750800D01*
X161792200Y-108199200D01*
X162143800Y-108199200D01*
X162143800Y-109750800D01*
X162143800Y-109750800D01*
G37*
G36*
X162643800Y-88650800D02*
X162292200Y-88650800D01*
X162292200Y-87099200D01*
X162643800Y-87099200D01*
X162643800Y-88650800D01*
X162643800Y-88650800D01*
G37*
G36*
X162643800Y-109750800D02*
X162292200Y-109750800D01*
X162292200Y-108199200D01*
X162643800Y-108199200D01*
X162643800Y-109750800D01*
X162643800Y-109750800D01*
G37*
G36*
X162712439Y-75475338D02*
X162709579Y-75680159D01*
X162709483Y-75680580D01*
X162709483Y-75680597D01*
X162669854Y-75855027D01*
X162596916Y-76018847D01*
X162493549Y-76165380D01*
X162363687Y-76289046D01*
X162212280Y-76385131D01*
X162045088Y-76449981D01*
X161868493Y-76481120D01*
X161689209Y-76477364D01*
X161514065Y-76438856D01*
X161349740Y-76367065D01*
X161202491Y-76264723D01*
X161077920Y-76135727D01*
X160980781Y-75984996D01*
X160914766Y-75818263D01*
X160882395Y-75641886D01*
X160884899Y-75462576D01*
X160922181Y-75287176D01*
X160992825Y-75122352D01*
X161094138Y-74974387D01*
X161222259Y-74848922D01*
X161372308Y-74750733D01*
X161538578Y-74683555D01*
X161714726Y-74649953D01*
X161894042Y-74651206D01*
X162069706Y-74687264D01*
X162235014Y-74756753D01*
X162383683Y-74857032D01*
X162510040Y-74984275D01*
X162609276Y-75133635D01*
X162677611Y-75299429D01*
X162712355Y-75474900D01*
X162712354Y-75474912D01*
X162712439Y-75475338D01*
X162712439Y-75475338D01*
G37*
G36*
X162712439Y-78015338D02*
X162709579Y-78220159D01*
X162709483Y-78220580D01*
X162709483Y-78220597D01*
X162669854Y-78395027D01*
X162596916Y-78558847D01*
X162493549Y-78705380D01*
X162363687Y-78829046D01*
X162212280Y-78925131D01*
X162045088Y-78989981D01*
X161868493Y-79021120D01*
X161689209Y-79017364D01*
X161514065Y-78978856D01*
X161349740Y-78907065D01*
X161202491Y-78804723D01*
X161077920Y-78675727D01*
X160980781Y-78524996D01*
X160914766Y-78358263D01*
X160882395Y-78181886D01*
X160884899Y-78002576D01*
X160922181Y-77827176D01*
X160992825Y-77662352D01*
X161094138Y-77514387D01*
X161222259Y-77388922D01*
X161372308Y-77290733D01*
X161538578Y-77223555D01*
X161714726Y-77189953D01*
X161894042Y-77191206D01*
X162069706Y-77227264D01*
X162235014Y-77296753D01*
X162383683Y-77397032D01*
X162510040Y-77524275D01*
X162609276Y-77673635D01*
X162677611Y-77839429D01*
X162712355Y-78014900D01*
X162712354Y-78014912D01*
X162712439Y-78015338D01*
X162712439Y-78015338D01*
G37*
G36*
X162712439Y-121195338D02*
X162709579Y-121400159D01*
X162709483Y-121400580D01*
X162709483Y-121400597D01*
X162669854Y-121575027D01*
X162596916Y-121738847D01*
X162493549Y-121885380D01*
X162363687Y-122009046D01*
X162212280Y-122105131D01*
X162045088Y-122169981D01*
X161868493Y-122201120D01*
X161689209Y-122197364D01*
X161514065Y-122158856D01*
X161349740Y-122087065D01*
X161202491Y-121984723D01*
X161077920Y-121855727D01*
X160980781Y-121704996D01*
X160914766Y-121538263D01*
X160882395Y-121361886D01*
X160884899Y-121182576D01*
X160922181Y-121007176D01*
X160992825Y-120842352D01*
X161094138Y-120694387D01*
X161222259Y-120568922D01*
X161372308Y-120470733D01*
X161538578Y-120403555D01*
X161714726Y-120369953D01*
X161894042Y-120371206D01*
X162069706Y-120407264D01*
X162235014Y-120476753D01*
X162383683Y-120577032D01*
X162510040Y-120704275D01*
X162609276Y-120853635D01*
X162677611Y-121019429D01*
X162712355Y-121194900D01*
X162712354Y-121194912D01*
X162712439Y-121195338D01*
X162712439Y-121195338D01*
G37*
G36*
X162712439Y-123735338D02*
X162709579Y-123940159D01*
X162709483Y-123940580D01*
X162709483Y-123940597D01*
X162669854Y-124115027D01*
X162596916Y-124278847D01*
X162493549Y-124425380D01*
X162363687Y-124549046D01*
X162212280Y-124645131D01*
X162045088Y-124709981D01*
X161868493Y-124741120D01*
X161689209Y-124737364D01*
X161514065Y-124698856D01*
X161349740Y-124627065D01*
X161202491Y-124524723D01*
X161077920Y-124395727D01*
X160980781Y-124244996D01*
X160914766Y-124078263D01*
X160882395Y-123901886D01*
X160884899Y-123722576D01*
X160922181Y-123547176D01*
X160992825Y-123382352D01*
X161094138Y-123234387D01*
X161222259Y-123108922D01*
X161372308Y-123010733D01*
X161538578Y-122943555D01*
X161714726Y-122909953D01*
X161894042Y-122911206D01*
X162069706Y-122947264D01*
X162235014Y-123016753D01*
X162383683Y-123117032D01*
X162510040Y-123244275D01*
X162609276Y-123393635D01*
X162677611Y-123559429D01*
X162712355Y-123734900D01*
X162712354Y-123734912D01*
X162712439Y-123735338D01*
X162712439Y-123735338D01*
G37*
G36*
X162933800Y-111945800D02*
X161932200Y-111945800D01*
X161932200Y-111344200D01*
X162933800Y-111344200D01*
X162933800Y-111945800D01*
X162933800Y-111945800D01*
G37*
G36*
X162933800Y-113445800D02*
X161932200Y-113445800D01*
X161932200Y-112844200D01*
X162933800Y-112844200D01*
X162933800Y-113445800D01*
X162933800Y-113445800D01*
G37*
G36*
X163143800Y-88650800D02*
X162792200Y-88650800D01*
X162792200Y-87099200D01*
X163143800Y-87099200D01*
X163143800Y-88650800D01*
X163143800Y-88650800D01*
G37*
G36*
X163143800Y-109750800D02*
X162792200Y-109750800D01*
X162792200Y-108199200D01*
X163143800Y-108199200D01*
X163143800Y-109750800D01*
X163143800Y-109750800D01*
G37*
G36*
X163643800Y-88650800D02*
X163292200Y-88650800D01*
X163292200Y-87099200D01*
X163643800Y-87099200D01*
X163643800Y-88650800D01*
X163643800Y-88650800D01*
G37*
G36*
X163643800Y-109750800D02*
X163292200Y-109750800D01*
X163292200Y-108199200D01*
X163643800Y-108199200D01*
X163643800Y-109750800D01*
X163643800Y-109750800D01*
G37*
G36*
X164143800Y-88650800D02*
X163792200Y-88650800D01*
X163792200Y-87099200D01*
X164143800Y-87099200D01*
X164143800Y-88650800D01*
X164143800Y-88650800D01*
G37*
G36*
X164143800Y-109750800D02*
X163792200Y-109750800D01*
X163792200Y-108199200D01*
X164143800Y-108199200D01*
X164143800Y-109750800D01*
X164143800Y-109750800D01*
G37*
G36*
X164638800Y-112195800D02*
X164037200Y-112195800D01*
X164037200Y-111494200D01*
X164638800Y-111494200D01*
X164638800Y-112195800D01*
X164638800Y-112195800D01*
G37*
G36*
X164638800Y-113295800D02*
X164037200Y-113295800D01*
X164037200Y-112594200D01*
X164638800Y-112594200D01*
X164638800Y-113295800D01*
X164638800Y-113295800D01*
G37*
G36*
X164643800Y-88650800D02*
X164292200Y-88650800D01*
X164292200Y-87099200D01*
X164643800Y-87099200D01*
X164643800Y-88650800D01*
X164643800Y-88650800D01*
G37*
G36*
X164643800Y-109750800D02*
X164292200Y-109750800D01*
X164292200Y-108199200D01*
X164643800Y-108199200D01*
X164643800Y-109750800D01*
X164643800Y-109750800D01*
G37*
G36*
X165143800Y-88650800D02*
X164792200Y-88650800D01*
X164792200Y-87099200D01*
X165143800Y-87099200D01*
X165143800Y-88650800D01*
X165143800Y-88650800D01*
G37*
G36*
X165143800Y-109750800D02*
X164792200Y-109750800D01*
X164792200Y-108199200D01*
X165143800Y-108199200D01*
X165143800Y-109750800D01*
X165143800Y-109750800D01*
G37*
G36*
X165252439Y-75475338D02*
X165249579Y-75680159D01*
X165249483Y-75680580D01*
X165249483Y-75680597D01*
X165209854Y-75855027D01*
X165136916Y-76018847D01*
X165033549Y-76165380D01*
X164903687Y-76289046D01*
X164752280Y-76385131D01*
X164585088Y-76449981D01*
X164408493Y-76481120D01*
X164229209Y-76477364D01*
X164054065Y-76438856D01*
X163889740Y-76367065D01*
X163742491Y-76264723D01*
X163617920Y-76135727D01*
X163520781Y-75984996D01*
X163454766Y-75818263D01*
X163422395Y-75641886D01*
X163424899Y-75462576D01*
X163462181Y-75287176D01*
X163532825Y-75122352D01*
X163634138Y-74974387D01*
X163762259Y-74848922D01*
X163912308Y-74750733D01*
X164078578Y-74683555D01*
X164254726Y-74649953D01*
X164434042Y-74651206D01*
X164609706Y-74687264D01*
X164775014Y-74756753D01*
X164923683Y-74857032D01*
X165050040Y-74984275D01*
X165149276Y-75133635D01*
X165217611Y-75299429D01*
X165252355Y-75474900D01*
X165252354Y-75474912D01*
X165252439Y-75475338D01*
X165252439Y-75475338D01*
G37*
G36*
X165252439Y-78015338D02*
X165249579Y-78220159D01*
X165249483Y-78220580D01*
X165249483Y-78220597D01*
X165209854Y-78395027D01*
X165136916Y-78558847D01*
X165033549Y-78705380D01*
X164903687Y-78829046D01*
X164752280Y-78925131D01*
X164585088Y-78989981D01*
X164408493Y-79021120D01*
X164229209Y-79017364D01*
X164054065Y-78978856D01*
X163889740Y-78907065D01*
X163742491Y-78804723D01*
X163617920Y-78675727D01*
X163520781Y-78524996D01*
X163454766Y-78358263D01*
X163422395Y-78181886D01*
X163424899Y-78002576D01*
X163462181Y-77827176D01*
X163532825Y-77662352D01*
X163634138Y-77514387D01*
X163762259Y-77388922D01*
X163912308Y-77290733D01*
X164078578Y-77223555D01*
X164254726Y-77189953D01*
X164434042Y-77191206D01*
X164609706Y-77227264D01*
X164775014Y-77296753D01*
X164923683Y-77397032D01*
X165050040Y-77524275D01*
X165149276Y-77673635D01*
X165217611Y-77839429D01*
X165252355Y-78014900D01*
X165252354Y-78014912D01*
X165252439Y-78015338D01*
X165252439Y-78015338D01*
G37*
G36*
X165252439Y-121195338D02*
X165249579Y-121400159D01*
X165249483Y-121400580D01*
X165249483Y-121400597D01*
X165209854Y-121575027D01*
X165136916Y-121738847D01*
X165033549Y-121885380D01*
X164903687Y-122009046D01*
X164752280Y-122105131D01*
X164585088Y-122169981D01*
X164408493Y-122201120D01*
X164229209Y-122197364D01*
X164054065Y-122158856D01*
X163889740Y-122087065D01*
X163742491Y-121984723D01*
X163617920Y-121855727D01*
X163520781Y-121704996D01*
X163454766Y-121538263D01*
X163422395Y-121361886D01*
X163424899Y-121182576D01*
X163462181Y-121007176D01*
X163532825Y-120842352D01*
X163634138Y-120694387D01*
X163762259Y-120568922D01*
X163912308Y-120470733D01*
X164078578Y-120403555D01*
X164254726Y-120369953D01*
X164434042Y-120371206D01*
X164609706Y-120407264D01*
X164775014Y-120476753D01*
X164923683Y-120577032D01*
X165050040Y-120704275D01*
X165149276Y-120853635D01*
X165217611Y-121019429D01*
X165252355Y-121194900D01*
X165252354Y-121194912D01*
X165252439Y-121195338D01*
X165252439Y-121195338D01*
G37*
G36*
X165252439Y-123735338D02*
X165249579Y-123940159D01*
X165249483Y-123940580D01*
X165249483Y-123940597D01*
X165209854Y-124115027D01*
X165136916Y-124278847D01*
X165033549Y-124425380D01*
X164903687Y-124549046D01*
X164752280Y-124645131D01*
X164585088Y-124709981D01*
X164408493Y-124741120D01*
X164229209Y-124737364D01*
X164054065Y-124698856D01*
X163889740Y-124627065D01*
X163742491Y-124524723D01*
X163617920Y-124395727D01*
X163520781Y-124244996D01*
X163454766Y-124078263D01*
X163422395Y-123901886D01*
X163424899Y-123722576D01*
X163462181Y-123547176D01*
X163532825Y-123382352D01*
X163634138Y-123234387D01*
X163762259Y-123108922D01*
X163912308Y-123010733D01*
X164078578Y-122943555D01*
X164254726Y-122909953D01*
X164434042Y-122911206D01*
X164609706Y-122947264D01*
X164775014Y-123016753D01*
X164923683Y-123117032D01*
X165050040Y-123244275D01*
X165149276Y-123393635D01*
X165217611Y-123559429D01*
X165252355Y-123734900D01*
X165252354Y-123734912D01*
X165252439Y-123735338D01*
X165252439Y-123735338D01*
G37*
G36*
X165643800Y-88650800D02*
X165292200Y-88650800D01*
X165292200Y-87099200D01*
X165643800Y-87099200D01*
X165643800Y-88650800D01*
X165643800Y-88650800D01*
G37*
G36*
X165643800Y-109750800D02*
X165292200Y-109750800D01*
X165292200Y-108199200D01*
X165643800Y-108199200D01*
X165643800Y-109750800D01*
X165643800Y-109750800D01*
G37*
G36*
X165908800Y-84255800D02*
X165307200Y-84255800D01*
X165307200Y-83554200D01*
X165908800Y-83554200D01*
X165908800Y-84255800D01*
X165908800Y-84255800D01*
G37*
G36*
X165908800Y-85355800D02*
X165307200Y-85355800D01*
X165307200Y-84654200D01*
X165908800Y-84654200D01*
X165908800Y-85355800D01*
X165908800Y-85355800D01*
G37*
G36*
X165908800Y-112195800D02*
X165307200Y-112195800D01*
X165307200Y-111494200D01*
X165908800Y-111494200D01*
X165908800Y-112195800D01*
X165908800Y-112195800D01*
G37*
G36*
X165908800Y-113295800D02*
X165307200Y-113295800D01*
X165307200Y-112594200D01*
X165908800Y-112594200D01*
X165908800Y-113295800D01*
X165908800Y-113295800D01*
G37*
G36*
X167178800Y-112195800D02*
X166577200Y-112195800D01*
X166577200Y-111494200D01*
X167178800Y-111494200D01*
X167178800Y-112195800D01*
X167178800Y-112195800D01*
G37*
G36*
X167178800Y-113295800D02*
X166577200Y-113295800D01*
X166577200Y-112594200D01*
X167178800Y-112594200D01*
X167178800Y-113295800D01*
X167178800Y-113295800D01*
G37*
G36*
X167378800Y-84005800D02*
X166377200Y-84005800D01*
X166377200Y-83404200D01*
X167378800Y-83404200D01*
X167378800Y-84005800D01*
X167378800Y-84005800D01*
G37*
G36*
X167378800Y-85505800D02*
X166377200Y-85505800D01*
X166377200Y-84904200D01*
X167378800Y-84904200D01*
X167378800Y-85505800D01*
X167378800Y-85505800D01*
G37*
G36*
X167792439Y-75475338D02*
X167789579Y-75680159D01*
X167789483Y-75680580D01*
X167789483Y-75680597D01*
X167749854Y-75855027D01*
X167676916Y-76018847D01*
X167573549Y-76165380D01*
X167443687Y-76289046D01*
X167292280Y-76385131D01*
X167125088Y-76449981D01*
X166948493Y-76481120D01*
X166769209Y-76477364D01*
X166594065Y-76438856D01*
X166429740Y-76367065D01*
X166282491Y-76264723D01*
X166157920Y-76135727D01*
X166060781Y-75984996D01*
X165994766Y-75818263D01*
X165962395Y-75641886D01*
X165964899Y-75462576D01*
X166002181Y-75287176D01*
X166072825Y-75122352D01*
X166174138Y-74974387D01*
X166302259Y-74848922D01*
X166452308Y-74750733D01*
X166618578Y-74683555D01*
X166794726Y-74649953D01*
X166974042Y-74651206D01*
X167149706Y-74687264D01*
X167315014Y-74756753D01*
X167463683Y-74857032D01*
X167590040Y-74984275D01*
X167689276Y-75133635D01*
X167757611Y-75299429D01*
X167792355Y-75474900D01*
X167792354Y-75474912D01*
X167792439Y-75475338D01*
X167792439Y-75475338D01*
G37*
G36*
X167792439Y-78015338D02*
X167789579Y-78220159D01*
X167789483Y-78220580D01*
X167789483Y-78220597D01*
X167749854Y-78395027D01*
X167676916Y-78558847D01*
X167573549Y-78705380D01*
X167443687Y-78829046D01*
X167292280Y-78925131D01*
X167125088Y-78989981D01*
X166948493Y-79021120D01*
X166769209Y-79017364D01*
X166594065Y-78978856D01*
X166429740Y-78907065D01*
X166282491Y-78804723D01*
X166157920Y-78675727D01*
X166060781Y-78524996D01*
X165994766Y-78358263D01*
X165962395Y-78181886D01*
X165964899Y-78002576D01*
X166002181Y-77827176D01*
X166072825Y-77662352D01*
X166174138Y-77514387D01*
X166302259Y-77388922D01*
X166452308Y-77290733D01*
X166618578Y-77223555D01*
X166794726Y-77189953D01*
X166974042Y-77191206D01*
X167149706Y-77227264D01*
X167315014Y-77296753D01*
X167463683Y-77397032D01*
X167590040Y-77524275D01*
X167689276Y-77673635D01*
X167757611Y-77839429D01*
X167792355Y-78014900D01*
X167792354Y-78014912D01*
X167792439Y-78015338D01*
X167792439Y-78015338D01*
G37*
G36*
X167792439Y-121195338D02*
X167789579Y-121400159D01*
X167789483Y-121400580D01*
X167789483Y-121400597D01*
X167749854Y-121575027D01*
X167676916Y-121738847D01*
X167573549Y-121885380D01*
X167443687Y-122009046D01*
X167292280Y-122105131D01*
X167125088Y-122169981D01*
X166948493Y-122201120D01*
X166769209Y-122197364D01*
X166594065Y-122158856D01*
X166429740Y-122087065D01*
X166282491Y-121984723D01*
X166157920Y-121855727D01*
X166060781Y-121704996D01*
X165994766Y-121538263D01*
X165962395Y-121361886D01*
X165964899Y-121182576D01*
X166002181Y-121007176D01*
X166072825Y-120842352D01*
X166174138Y-120694387D01*
X166302259Y-120568922D01*
X166452308Y-120470733D01*
X166618578Y-120403555D01*
X166794726Y-120369953D01*
X166974042Y-120371206D01*
X167149706Y-120407264D01*
X167315014Y-120476753D01*
X167463683Y-120577032D01*
X167590040Y-120704275D01*
X167689276Y-120853635D01*
X167757611Y-121019429D01*
X167792355Y-121194900D01*
X167792354Y-121194912D01*
X167792439Y-121195338D01*
X167792439Y-121195338D01*
G37*
G36*
X167792439Y-123735338D02*
X167789579Y-123940159D01*
X167789483Y-123940580D01*
X167789483Y-123940597D01*
X167749854Y-124115027D01*
X167676916Y-124278847D01*
X167573549Y-124425380D01*
X167443687Y-124549046D01*
X167292280Y-124645131D01*
X167125088Y-124709981D01*
X166948493Y-124741120D01*
X166769209Y-124737364D01*
X166594065Y-124698856D01*
X166429740Y-124627065D01*
X166282491Y-124524723D01*
X166157920Y-124395727D01*
X166060781Y-124244996D01*
X165994766Y-124078263D01*
X165962395Y-123901886D01*
X165964899Y-123722576D01*
X166002181Y-123547176D01*
X166072825Y-123382352D01*
X166174138Y-123234387D01*
X166302259Y-123108922D01*
X166452308Y-123010733D01*
X166618578Y-122943555D01*
X166794726Y-122909953D01*
X166974042Y-122911206D01*
X167149706Y-122947264D01*
X167315014Y-123016753D01*
X167463683Y-123117032D01*
X167590040Y-123244275D01*
X167689276Y-123393635D01*
X167757611Y-123559429D01*
X167792355Y-123734900D01*
X167792354Y-123734912D01*
X167792439Y-123735338D01*
X167792439Y-123735338D01*
G37*
G36*
X168043800Y-89850800D02*
X166492200Y-89850800D01*
X166492200Y-89499200D01*
X168043800Y-89499200D01*
X168043800Y-89850800D01*
X168043800Y-89850800D01*
G37*
G36*
X168043800Y-90350800D02*
X166492200Y-90350800D01*
X166492200Y-89999200D01*
X168043800Y-89999200D01*
X168043800Y-90350800D01*
X168043800Y-90350800D01*
G37*
G36*
X168043800Y-90850800D02*
X166492200Y-90850800D01*
X166492200Y-90499200D01*
X168043800Y-90499200D01*
X168043800Y-90850800D01*
X168043800Y-90850800D01*
G37*
G36*
X168043800Y-91350800D02*
X166492200Y-91350800D01*
X166492200Y-90999200D01*
X168043800Y-90999200D01*
X168043800Y-91350800D01*
X168043800Y-91350800D01*
G37*
G36*
X168043800Y-91850800D02*
X166492200Y-91850800D01*
X166492200Y-91499200D01*
X168043800Y-91499200D01*
X168043800Y-91850800D01*
X168043800Y-91850800D01*
G37*
G36*
X168043800Y-92350800D02*
X166492200Y-92350800D01*
X166492200Y-91999200D01*
X168043800Y-91999200D01*
X168043800Y-92350800D01*
X168043800Y-92350800D01*
G37*
G36*
X168043800Y-92850800D02*
X166492200Y-92850800D01*
X166492200Y-92499200D01*
X168043800Y-92499200D01*
X168043800Y-92850800D01*
X168043800Y-92850800D01*
G37*
G36*
X168043800Y-93350800D02*
X166492200Y-93350800D01*
X166492200Y-92999200D01*
X168043800Y-92999200D01*
X168043800Y-93350800D01*
X168043800Y-93350800D01*
G37*
G36*
X168043800Y-93850800D02*
X166492200Y-93850800D01*
X166492200Y-93499200D01*
X168043800Y-93499200D01*
X168043800Y-93850800D01*
X168043800Y-93850800D01*
G37*
G36*
X168043800Y-94350800D02*
X166492200Y-94350800D01*
X166492200Y-93999200D01*
X168043800Y-93999200D01*
X168043800Y-94350800D01*
X168043800Y-94350800D01*
G37*
G36*
X168043800Y-94850800D02*
X166492200Y-94850800D01*
X166492200Y-94499200D01*
X168043800Y-94499200D01*
X168043800Y-94850800D01*
X168043800Y-94850800D01*
G37*
G36*
X168043800Y-95350800D02*
X166492200Y-95350800D01*
X166492200Y-94999200D01*
X168043800Y-94999200D01*
X168043800Y-95350800D01*
X168043800Y-95350800D01*
G37*
G36*
X168043800Y-95850800D02*
X166492200Y-95850800D01*
X166492200Y-95499200D01*
X168043800Y-95499200D01*
X168043800Y-95850800D01*
X168043800Y-95850800D01*
G37*
G36*
X168043800Y-96350800D02*
X166492200Y-96350800D01*
X166492200Y-95999200D01*
X168043800Y-95999200D01*
X168043800Y-96350800D01*
X168043800Y-96350800D01*
G37*
G36*
X168043800Y-96850800D02*
X166492200Y-96850800D01*
X166492200Y-96499200D01*
X168043800Y-96499200D01*
X168043800Y-96850800D01*
X168043800Y-96850800D01*
G37*
G36*
X168043800Y-97350800D02*
X166492200Y-97350800D01*
X166492200Y-96999200D01*
X168043800Y-96999200D01*
X168043800Y-97350800D01*
X168043800Y-97350800D01*
G37*
G36*
X168043800Y-97850800D02*
X166492200Y-97850800D01*
X166492200Y-97499200D01*
X168043800Y-97499200D01*
X168043800Y-97850800D01*
X168043800Y-97850800D01*
G37*
G36*
X168043800Y-98350800D02*
X166492200Y-98350800D01*
X166492200Y-97999200D01*
X168043800Y-97999200D01*
X168043800Y-98350800D01*
X168043800Y-98350800D01*
G37*
G36*
X168043800Y-98850800D02*
X166492200Y-98850800D01*
X166492200Y-98499200D01*
X168043800Y-98499200D01*
X168043800Y-98850800D01*
X168043800Y-98850800D01*
G37*
G36*
X168043800Y-99350800D02*
X166492200Y-99350800D01*
X166492200Y-98999200D01*
X168043800Y-98999200D01*
X168043800Y-99350800D01*
X168043800Y-99350800D01*
G37*
G36*
X168043800Y-99850800D02*
X166492200Y-99850800D01*
X166492200Y-99499200D01*
X168043800Y-99499200D01*
X168043800Y-99850800D01*
X168043800Y-99850800D01*
G37*
G36*
X168043800Y-100350800D02*
X166492200Y-100350800D01*
X166492200Y-99999200D01*
X168043800Y-99999200D01*
X168043800Y-100350800D01*
X168043800Y-100350800D01*
G37*
G36*
X168043800Y-100850800D02*
X166492200Y-100850800D01*
X166492200Y-100499200D01*
X168043800Y-100499200D01*
X168043800Y-100850800D01*
X168043800Y-100850800D01*
G37*
G36*
X168043800Y-101350800D02*
X166492200Y-101350800D01*
X166492200Y-100999200D01*
X168043800Y-100999200D01*
X168043800Y-101350800D01*
X168043800Y-101350800D01*
G37*
G36*
X168043800Y-101850800D02*
X166492200Y-101850800D01*
X166492200Y-101499200D01*
X168043800Y-101499200D01*
X168043800Y-101850800D01*
X168043800Y-101850800D01*
G37*
G36*
X168043800Y-102350800D02*
X166492200Y-102350800D01*
X166492200Y-101999200D01*
X168043800Y-101999200D01*
X168043800Y-102350800D01*
X168043800Y-102350800D01*
G37*
G36*
X168043800Y-102850800D02*
X166492200Y-102850800D01*
X166492200Y-102499200D01*
X168043800Y-102499200D01*
X168043800Y-102850800D01*
X168043800Y-102850800D01*
G37*
G36*
X168043800Y-103350800D02*
X166492200Y-103350800D01*
X166492200Y-102999200D01*
X168043800Y-102999200D01*
X168043800Y-103350800D01*
X168043800Y-103350800D01*
G37*
G36*
X168043800Y-103850800D02*
X166492200Y-103850800D01*
X166492200Y-103499200D01*
X168043800Y-103499200D01*
X168043800Y-103850800D01*
X168043800Y-103850800D01*
G37*
G36*
X168043800Y-104350800D02*
X166492200Y-104350800D01*
X166492200Y-103999200D01*
X168043800Y-103999200D01*
X168043800Y-104350800D01*
X168043800Y-104350800D01*
G37*
G36*
X168043800Y-104850800D02*
X166492200Y-104850800D01*
X166492200Y-104499200D01*
X168043800Y-104499200D01*
X168043800Y-104850800D01*
X168043800Y-104850800D01*
G37*
G36*
X168043800Y-105350800D02*
X166492200Y-105350800D01*
X166492200Y-104999200D01*
X168043800Y-104999200D01*
X168043800Y-105350800D01*
X168043800Y-105350800D01*
G37*
G36*
X168043800Y-105850800D02*
X166492200Y-105850800D01*
X166492200Y-105499200D01*
X168043800Y-105499200D01*
X168043800Y-105850800D01*
X168043800Y-105850800D01*
G37*
G36*
X168043800Y-106350800D02*
X166492200Y-106350800D01*
X166492200Y-105999200D01*
X168043800Y-105999200D01*
X168043800Y-106350800D01*
X168043800Y-106350800D01*
G37*
G36*
X168043800Y-106850800D02*
X166492200Y-106850800D01*
X166492200Y-106499200D01*
X168043800Y-106499200D01*
X168043800Y-106850800D01*
X168043800Y-106850800D01*
G37*
G36*
X168043800Y-107350800D02*
X166492200Y-107350800D01*
X166492200Y-106999200D01*
X168043800Y-106999200D01*
X168043800Y-107350800D01*
X168043800Y-107350800D01*
G37*
G36*
X168448800Y-84255800D02*
X167847200Y-84255800D01*
X167847200Y-83554200D01*
X168448800Y-83554200D01*
X168448800Y-84255800D01*
X168448800Y-84255800D01*
G37*
G36*
X168448800Y-85355800D02*
X167847200Y-85355800D01*
X167847200Y-84654200D01*
X168448800Y-84654200D01*
X168448800Y-85355800D01*
X168448800Y-85355800D01*
G37*
G36*
X168448800Y-112195800D02*
X167847200Y-112195800D01*
X167847200Y-111494200D01*
X168448800Y-111494200D01*
X168448800Y-112195800D01*
X168448800Y-112195800D01*
G37*
G36*
X168448800Y-113295800D02*
X167847200Y-113295800D01*
X167847200Y-112594200D01*
X168448800Y-112594200D01*
X168448800Y-113295800D01*
X168448800Y-113295800D01*
G37*
G36*
X170332439Y-75475338D02*
X170329579Y-75680159D01*
X170329483Y-75680580D01*
X170329483Y-75680597D01*
X170289854Y-75855027D01*
X170216916Y-76018847D01*
X170113549Y-76165380D01*
X169983687Y-76289046D01*
X169832280Y-76385131D01*
X169665088Y-76449981D01*
X169488493Y-76481120D01*
X169309209Y-76477364D01*
X169134065Y-76438856D01*
X168969740Y-76367065D01*
X168822491Y-76264723D01*
X168697920Y-76135727D01*
X168600781Y-75984996D01*
X168534766Y-75818263D01*
X168502395Y-75641886D01*
X168504899Y-75462576D01*
X168542181Y-75287176D01*
X168612825Y-75122352D01*
X168714138Y-74974387D01*
X168842259Y-74848922D01*
X168992308Y-74750733D01*
X169158578Y-74683555D01*
X169334726Y-74649953D01*
X169514042Y-74651206D01*
X169689706Y-74687264D01*
X169855014Y-74756753D01*
X170003683Y-74857032D01*
X170130040Y-74984275D01*
X170229276Y-75133635D01*
X170297611Y-75299429D01*
X170332355Y-75474900D01*
X170332354Y-75474912D01*
X170332439Y-75475338D01*
X170332439Y-75475338D01*
G37*
G36*
X170332439Y-78015338D02*
X170329579Y-78220159D01*
X170329483Y-78220580D01*
X170329483Y-78220597D01*
X170289854Y-78395027D01*
X170216916Y-78558847D01*
X170113549Y-78705380D01*
X169983687Y-78829046D01*
X169832280Y-78925131D01*
X169665088Y-78989981D01*
X169488493Y-79021120D01*
X169309209Y-79017364D01*
X169134065Y-78978856D01*
X168969740Y-78907065D01*
X168822491Y-78804723D01*
X168697920Y-78675727D01*
X168600781Y-78524996D01*
X168534766Y-78358263D01*
X168502395Y-78181886D01*
X168504899Y-78002576D01*
X168542181Y-77827176D01*
X168612825Y-77662352D01*
X168714138Y-77514387D01*
X168842259Y-77388922D01*
X168992308Y-77290733D01*
X169158578Y-77223555D01*
X169334726Y-77189953D01*
X169514042Y-77191206D01*
X169689706Y-77227264D01*
X169855014Y-77296753D01*
X170003683Y-77397032D01*
X170130040Y-77524275D01*
X170229276Y-77673635D01*
X170297611Y-77839429D01*
X170332355Y-78014900D01*
X170332354Y-78014912D01*
X170332439Y-78015338D01*
X170332439Y-78015338D01*
G37*
G36*
X170332439Y-121195338D02*
X170329579Y-121400159D01*
X170329483Y-121400580D01*
X170329483Y-121400597D01*
X170289854Y-121575027D01*
X170216916Y-121738847D01*
X170113549Y-121885380D01*
X169983687Y-122009046D01*
X169832280Y-122105131D01*
X169665088Y-122169981D01*
X169488493Y-122201120D01*
X169309209Y-122197364D01*
X169134065Y-122158856D01*
X168969740Y-122087065D01*
X168822491Y-121984723D01*
X168697920Y-121855727D01*
X168600781Y-121704996D01*
X168534766Y-121538263D01*
X168502395Y-121361886D01*
X168504899Y-121182576D01*
X168542181Y-121007176D01*
X168612825Y-120842352D01*
X168714138Y-120694387D01*
X168842259Y-120568922D01*
X168992308Y-120470733D01*
X169158578Y-120403555D01*
X169334726Y-120369953D01*
X169514042Y-120371206D01*
X169689706Y-120407264D01*
X169855014Y-120476753D01*
X170003683Y-120577032D01*
X170130040Y-120704275D01*
X170229276Y-120853635D01*
X170297611Y-121019429D01*
X170332355Y-121194900D01*
X170332354Y-121194912D01*
X170332439Y-121195338D01*
X170332439Y-121195338D01*
G37*
G36*
X170332439Y-123735338D02*
X170329579Y-123940159D01*
X170329483Y-123940580D01*
X170329483Y-123940597D01*
X170289854Y-124115027D01*
X170216916Y-124278847D01*
X170113549Y-124425380D01*
X169983687Y-124549046D01*
X169832280Y-124645131D01*
X169665088Y-124709981D01*
X169488493Y-124741120D01*
X169309209Y-124737364D01*
X169134065Y-124698856D01*
X168969740Y-124627065D01*
X168822491Y-124524723D01*
X168697920Y-124395727D01*
X168600781Y-124244996D01*
X168534766Y-124078263D01*
X168502395Y-123901886D01*
X168504899Y-123722576D01*
X168542181Y-123547176D01*
X168612825Y-123382352D01*
X168714138Y-123234387D01*
X168842259Y-123108922D01*
X168992308Y-123010733D01*
X169158578Y-122943555D01*
X169334726Y-122909953D01*
X169514042Y-122911206D01*
X169689706Y-122947264D01*
X169855014Y-123016753D01*
X170003683Y-123117032D01*
X170130040Y-123244275D01*
X170229276Y-123393635D01*
X170297611Y-123559429D01*
X170332355Y-123734900D01*
X170332354Y-123734912D01*
X170332439Y-123735338D01*
X170332439Y-123735338D01*
G37*
G36*
X170488800Y-116378800D02*
X169787200Y-116378800D01*
X169787200Y-115777200D01*
X170488800Y-115777200D01*
X170488800Y-116378800D01*
X170488800Y-116378800D01*
G37*
G36*
X170988800Y-95685800D02*
X170387200Y-95685800D01*
X170387200Y-94984200D01*
X170988800Y-94984200D01*
X170988800Y-95685800D01*
X170988800Y-95685800D01*
G37*
G36*
X170988800Y-96785800D02*
X170387200Y-96785800D01*
X170387200Y-96084200D01*
X170988800Y-96084200D01*
X170988800Y-96785800D01*
X170988800Y-96785800D01*
G37*
G36*
X170988800Y-98225800D02*
X170387200Y-98225800D01*
X170387200Y-97524200D01*
X170988800Y-97524200D01*
X170988800Y-98225800D01*
X170988800Y-98225800D01*
G37*
G36*
X170988800Y-99325800D02*
X170387200Y-99325800D01*
X170387200Y-98624200D01*
X170988800Y-98624200D01*
X170988800Y-99325800D01*
X170988800Y-99325800D01*
G37*
G36*
X170988800Y-100765800D02*
X170387200Y-100765800D01*
X170387200Y-100064200D01*
X170988800Y-100064200D01*
X170988800Y-100765800D01*
X170988800Y-100765800D01*
G37*
G36*
X170988800Y-101865800D02*
X170387200Y-101865800D01*
X170387200Y-101164200D01*
X170988800Y-101164200D01*
X170988800Y-101865800D01*
X170988800Y-101865800D01*
G37*
G36*
X171113800Y-110865800D02*
X169312200Y-110865800D01*
X169312200Y-110114200D01*
X171113800Y-110114200D01*
X171113800Y-110865800D01*
X171113800Y-110865800D01*
G37*
G36*
X171113800Y-112135800D02*
X169312200Y-112135800D01*
X169312200Y-111384200D01*
X171113800Y-111384200D01*
X171113800Y-112135800D01*
X171113800Y-112135800D01*
G37*
G36*
X171113800Y-113405800D02*
X169312200Y-113405800D01*
X169312200Y-112654200D01*
X171113800Y-112654200D01*
X171113800Y-113405800D01*
X171113800Y-113405800D01*
G37*
G36*
X171113800Y-114675800D02*
X169312200Y-114675800D01*
X169312200Y-113924200D01*
X171113800Y-113924200D01*
X171113800Y-114675800D01*
X171113800Y-114675800D01*
G37*
G36*
X171588800Y-116378800D02*
X170887200Y-116378800D01*
X170887200Y-115777200D01*
X171588800Y-115777200D01*
X171588800Y-116378800D01*
X171588800Y-116378800D01*
G37*
G36*
X172258800Y-95685800D02*
X171657200Y-95685800D01*
X171657200Y-94984200D01*
X172258800Y-94984200D01*
X172258800Y-95685800D01*
X172258800Y-95685800D01*
G37*
G36*
X172258800Y-96785800D02*
X171657200Y-96785800D01*
X171657200Y-96084200D01*
X172258800Y-96084200D01*
X172258800Y-96785800D01*
X172258800Y-96785800D01*
G37*
G36*
X172258800Y-98225800D02*
X171657200Y-98225800D01*
X171657200Y-97524200D01*
X172258800Y-97524200D01*
X172258800Y-98225800D01*
X172258800Y-98225800D01*
G37*
G36*
X172258800Y-99325800D02*
X171657200Y-99325800D01*
X171657200Y-98624200D01*
X172258800Y-98624200D01*
X172258800Y-99325800D01*
X172258800Y-99325800D01*
G37*
G36*
X172258800Y-100765800D02*
X171657200Y-100765800D01*
X171657200Y-100064200D01*
X172258800Y-100064200D01*
X172258800Y-100765800D01*
X172258800Y-100765800D01*
G37*
G36*
X172258800Y-101865800D02*
X171657200Y-101865800D01*
X171657200Y-101164200D01*
X172258800Y-101164200D01*
X172258800Y-101865800D01*
X172258800Y-101865800D01*
G37*
G36*
X172258800Y-103305800D02*
X171657200Y-103305800D01*
X171657200Y-102604200D01*
X172258800Y-102604200D01*
X172258800Y-103305800D01*
X172258800Y-103305800D01*
G37*
G36*
X172258800Y-104405800D02*
X171657200Y-104405800D01*
X171657200Y-103704200D01*
X172258800Y-103704200D01*
X172258800Y-104405800D01*
X172258800Y-104405800D01*
G37*
G36*
X172258800Y-105845800D02*
X171657200Y-105845800D01*
X171657200Y-105144200D01*
X172258800Y-105144200D01*
X172258800Y-105845800D01*
X172258800Y-105845800D01*
G37*
G36*
X172258800Y-106945800D02*
X171657200Y-106945800D01*
X171657200Y-106244200D01*
X172258800Y-106244200D01*
X172258800Y-106945800D01*
X172258800Y-106945800D01*
G37*
G36*
X172872439Y-75475338D02*
X172869579Y-75680159D01*
X172869483Y-75680580D01*
X172869483Y-75680597D01*
X172829854Y-75855027D01*
X172756916Y-76018847D01*
X172653549Y-76165380D01*
X172523687Y-76289046D01*
X172372280Y-76385131D01*
X172205088Y-76449981D01*
X172028493Y-76481120D01*
X171849209Y-76477364D01*
X171674065Y-76438856D01*
X171509740Y-76367065D01*
X171362491Y-76264723D01*
X171237920Y-76135727D01*
X171140781Y-75984996D01*
X171074766Y-75818263D01*
X171042395Y-75641886D01*
X171044899Y-75462576D01*
X171082181Y-75287176D01*
X171152825Y-75122352D01*
X171254138Y-74974387D01*
X171382259Y-74848922D01*
X171532308Y-74750733D01*
X171698578Y-74683555D01*
X171874726Y-74649953D01*
X172054042Y-74651206D01*
X172229706Y-74687264D01*
X172395014Y-74756753D01*
X172543683Y-74857032D01*
X172670040Y-74984275D01*
X172769276Y-75133635D01*
X172837611Y-75299429D01*
X172872355Y-75474900D01*
X172872354Y-75474912D01*
X172872439Y-75475338D01*
X172872439Y-75475338D01*
G37*
G36*
X172872439Y-78015338D02*
X172869579Y-78220159D01*
X172869483Y-78220580D01*
X172869483Y-78220597D01*
X172829854Y-78395027D01*
X172756916Y-78558847D01*
X172653549Y-78705380D01*
X172523687Y-78829046D01*
X172372280Y-78925131D01*
X172205088Y-78989981D01*
X172028493Y-79021120D01*
X171849209Y-79017364D01*
X171674065Y-78978856D01*
X171509740Y-78907065D01*
X171362491Y-78804723D01*
X171237920Y-78675727D01*
X171140781Y-78524996D01*
X171074766Y-78358263D01*
X171042395Y-78181886D01*
X171044899Y-78002576D01*
X171082181Y-77827176D01*
X171152825Y-77662352D01*
X171254138Y-77514387D01*
X171382259Y-77388922D01*
X171532308Y-77290733D01*
X171698578Y-77223555D01*
X171874726Y-77189953D01*
X172054042Y-77191206D01*
X172229706Y-77227264D01*
X172395014Y-77296753D01*
X172543683Y-77397032D01*
X172670040Y-77524275D01*
X172769276Y-77673635D01*
X172837611Y-77839429D01*
X172872355Y-78014900D01*
X172872354Y-78014912D01*
X172872439Y-78015338D01*
X172872439Y-78015338D01*
G37*
G36*
X172872439Y-121195338D02*
X172869579Y-121400159D01*
X172869483Y-121400580D01*
X172869483Y-121400597D01*
X172829854Y-121575027D01*
X172756916Y-121738847D01*
X172653549Y-121885380D01*
X172523687Y-122009046D01*
X172372280Y-122105131D01*
X172205088Y-122169981D01*
X172028493Y-122201120D01*
X171849209Y-122197364D01*
X171674065Y-122158856D01*
X171509740Y-122087065D01*
X171362491Y-121984723D01*
X171237920Y-121855727D01*
X171140781Y-121704996D01*
X171074766Y-121538263D01*
X171042395Y-121361886D01*
X171044899Y-121182576D01*
X171082181Y-121007176D01*
X171152825Y-120842352D01*
X171254138Y-120694387D01*
X171382259Y-120568922D01*
X171532308Y-120470733D01*
X171698578Y-120403555D01*
X171874726Y-120369953D01*
X172054042Y-120371206D01*
X172229706Y-120407264D01*
X172395014Y-120476753D01*
X172543683Y-120577032D01*
X172670040Y-120704275D01*
X172769276Y-120853635D01*
X172837611Y-121019429D01*
X172872355Y-121194900D01*
X172872354Y-121194912D01*
X172872439Y-121195338D01*
X172872439Y-121195338D01*
G37*
G36*
X172872439Y-123735338D02*
X172869579Y-123940159D01*
X172869483Y-123940580D01*
X172869483Y-123940597D01*
X172829854Y-124115027D01*
X172756916Y-124278847D01*
X172653549Y-124425380D01*
X172523687Y-124549046D01*
X172372280Y-124645131D01*
X172205088Y-124709981D01*
X172028493Y-124741120D01*
X171849209Y-124737364D01*
X171674065Y-124698856D01*
X171509740Y-124627065D01*
X171362491Y-124524723D01*
X171237920Y-124395727D01*
X171140781Y-124244996D01*
X171074766Y-124078263D01*
X171042395Y-123901886D01*
X171044899Y-123722576D01*
X171082181Y-123547176D01*
X171152825Y-123382352D01*
X171254138Y-123234387D01*
X171382259Y-123108922D01*
X171532308Y-123010733D01*
X171698578Y-122943555D01*
X171874726Y-122909953D01*
X172054042Y-122911206D01*
X172229706Y-122947264D01*
X172395014Y-123016753D01*
X172543683Y-123117032D01*
X172670040Y-123244275D01*
X172769276Y-123393635D01*
X172837611Y-123559429D01*
X172872355Y-123734900D01*
X172872354Y-123734912D01*
X172872439Y-123735338D01*
X172872439Y-123735338D01*
G37*
G36*
X173028800Y-116378800D02*
X172327200Y-116378800D01*
X172327200Y-115777200D01*
X173028800Y-115777200D01*
X173028800Y-116378800D01*
X173028800Y-116378800D01*
G37*
G36*
X174128800Y-116378800D02*
X173427200Y-116378800D01*
X173427200Y-115777200D01*
X174128800Y-115777200D01*
X174128800Y-116378800D01*
X174128800Y-116378800D01*
G37*
G36*
X175412439Y-75475338D02*
X175409579Y-75680159D01*
X175409483Y-75680580D01*
X175409483Y-75680597D01*
X175369854Y-75855027D01*
X175296916Y-76018847D01*
X175193549Y-76165380D01*
X175063687Y-76289046D01*
X174912280Y-76385131D01*
X174745088Y-76449981D01*
X174568493Y-76481120D01*
X174389209Y-76477364D01*
X174214065Y-76438856D01*
X174049740Y-76367065D01*
X173902491Y-76264723D01*
X173777920Y-76135727D01*
X173680781Y-75984996D01*
X173614766Y-75818263D01*
X173582395Y-75641886D01*
X173584899Y-75462576D01*
X173622181Y-75287176D01*
X173692825Y-75122352D01*
X173794138Y-74974387D01*
X173922259Y-74848922D01*
X174072308Y-74750733D01*
X174238578Y-74683555D01*
X174414726Y-74649953D01*
X174594042Y-74651206D01*
X174769706Y-74687264D01*
X174935014Y-74756753D01*
X175083683Y-74857032D01*
X175210040Y-74984275D01*
X175309276Y-75133635D01*
X175377611Y-75299429D01*
X175412355Y-75474900D01*
X175412354Y-75474912D01*
X175412439Y-75475338D01*
X175412439Y-75475338D01*
G37*
G36*
X175412439Y-78015338D02*
X175409579Y-78220159D01*
X175409483Y-78220580D01*
X175409483Y-78220597D01*
X175369854Y-78395027D01*
X175296916Y-78558847D01*
X175193549Y-78705380D01*
X175063687Y-78829046D01*
X174912280Y-78925131D01*
X174745088Y-78989981D01*
X174568493Y-79021120D01*
X174389209Y-79017364D01*
X174214065Y-78978856D01*
X174049740Y-78907065D01*
X173902491Y-78804723D01*
X173777920Y-78675727D01*
X173680781Y-78524996D01*
X173614766Y-78358263D01*
X173582395Y-78181886D01*
X173584899Y-78002576D01*
X173622181Y-77827176D01*
X173692825Y-77662352D01*
X173794138Y-77514387D01*
X173922259Y-77388922D01*
X174072308Y-77290733D01*
X174238578Y-77223555D01*
X174414726Y-77189953D01*
X174594042Y-77191206D01*
X174769706Y-77227264D01*
X174935014Y-77296753D01*
X175083683Y-77397032D01*
X175210040Y-77524275D01*
X175309276Y-77673635D01*
X175377611Y-77839429D01*
X175412355Y-78014900D01*
X175412354Y-78014912D01*
X175412439Y-78015338D01*
X175412439Y-78015338D01*
G37*
G36*
X175412439Y-121195338D02*
X175409579Y-121400159D01*
X175409483Y-121400580D01*
X175409483Y-121400597D01*
X175369854Y-121575027D01*
X175296916Y-121738847D01*
X175193549Y-121885380D01*
X175063687Y-122009046D01*
X174912280Y-122105131D01*
X174745088Y-122169981D01*
X174568493Y-122201120D01*
X174389209Y-122197364D01*
X174214065Y-122158856D01*
X174049740Y-122087065D01*
X173902491Y-121984723D01*
X173777920Y-121855727D01*
X173680781Y-121704996D01*
X173614766Y-121538263D01*
X173582395Y-121361886D01*
X173584899Y-121182576D01*
X173622181Y-121007176D01*
X173692825Y-120842352D01*
X173794138Y-120694387D01*
X173922259Y-120568922D01*
X174072308Y-120470733D01*
X174238578Y-120403555D01*
X174414726Y-120369953D01*
X174594042Y-120371206D01*
X174769706Y-120407264D01*
X174935014Y-120476753D01*
X175083683Y-120577032D01*
X175210040Y-120704275D01*
X175309276Y-120853635D01*
X175377611Y-121019429D01*
X175412355Y-121194900D01*
X175412354Y-121194912D01*
X175412439Y-121195338D01*
X175412439Y-121195338D01*
G37*
G36*
X175412439Y-123735338D02*
X175409579Y-123940159D01*
X175409483Y-123940580D01*
X175409483Y-123940597D01*
X175369854Y-124115027D01*
X175296916Y-124278847D01*
X175193549Y-124425380D01*
X175063687Y-124549046D01*
X174912280Y-124645131D01*
X174745088Y-124709981D01*
X174568493Y-124741120D01*
X174389209Y-124737364D01*
X174214065Y-124698856D01*
X174049740Y-124627065D01*
X173902491Y-124524723D01*
X173777920Y-124395727D01*
X173680781Y-124244996D01*
X173614766Y-124078263D01*
X173582395Y-123901886D01*
X173584899Y-123722576D01*
X173622181Y-123547176D01*
X173692825Y-123382352D01*
X173794138Y-123234387D01*
X173922259Y-123108922D01*
X174072308Y-123010733D01*
X174238578Y-122943555D01*
X174414726Y-122909953D01*
X174594042Y-122911206D01*
X174769706Y-122947264D01*
X174935014Y-123016753D01*
X175083683Y-123117032D01*
X175210040Y-123244275D01*
X175309276Y-123393635D01*
X175377611Y-123559429D01*
X175412355Y-123734900D01*
X175412354Y-123734912D01*
X175412439Y-123735338D01*
X175412439Y-123735338D01*
G37*
G36*
X175539400Y-96799400D02*
X173710600Y-96799400D01*
X173710600Y-94970600D01*
X175539400Y-94970600D01*
X175539400Y-96799400D01*
X175539400Y-96799400D01*
G37*
G36*
X175543805Y-98431384D02*
X175525158Y-98608803D01*
X175525152Y-98608819D01*
X175525148Y-98608866D01*
X175472376Y-98779344D01*
X175387496Y-98936326D01*
X175273742Y-99073831D01*
X175135445Y-99186623D01*
X174977875Y-99270405D01*
X174807032Y-99321985D01*
X174629424Y-99339400D01*
X174626625Y-99339400D01*
X174620576Y-99339400D01*
X174620423Y-99339400D01*
X174610386Y-99339330D01*
X174610376Y-99339328D01*
X174607809Y-99339311D01*
X174430462Y-99319418D01*
X174260356Y-99265457D01*
X174103970Y-99179484D01*
X173967262Y-99064772D01*
X173855439Y-98925692D01*
X173772759Y-98767540D01*
X173722373Y-98596341D01*
X173722370Y-98596308D01*
X173722364Y-98596288D01*
X173706195Y-98418616D01*
X173724842Y-98241197D01*
X173724847Y-98241180D01*
X173724852Y-98241134D01*
X173777624Y-98070656D01*
X173862504Y-97913674D01*
X173976258Y-97776169D01*
X174114555Y-97663377D01*
X174272125Y-97579595D01*
X174442968Y-97528015D01*
X174620576Y-97510600D01*
X174623375Y-97510600D01*
X174629424Y-97510600D01*
X174629577Y-97510600D01*
X174639614Y-97510670D01*
X174639623Y-97510671D01*
X174642191Y-97510689D01*
X174819538Y-97530582D01*
X174989644Y-97584543D01*
X175146030Y-97670516D01*
X175282738Y-97785228D01*
X175394561Y-97924308D01*
X175477241Y-98082460D01*
X175527627Y-98253659D01*
X175527629Y-98253691D01*
X175527636Y-98253712D01*
X175543805Y-98431384D01*
X175543805Y-98431384D01*
G37*
G36*
X175543805Y-100971384D02*
X175525158Y-101148803D01*
X175525152Y-101148819D01*
X175525148Y-101148866D01*
X175472376Y-101319344D01*
X175387496Y-101476326D01*
X175273742Y-101613831D01*
X175135445Y-101726623D01*
X174977875Y-101810405D01*
X174807032Y-101861985D01*
X174629424Y-101879400D01*
X174626625Y-101879400D01*
X174620576Y-101879400D01*
X174620423Y-101879400D01*
X174610386Y-101879330D01*
X174610376Y-101879328D01*
X174607809Y-101879311D01*
X174430462Y-101859418D01*
X174260356Y-101805457D01*
X174103970Y-101719484D01*
X173967262Y-101604772D01*
X173855439Y-101465692D01*
X173772759Y-101307540D01*
X173722373Y-101136341D01*
X173722370Y-101136308D01*
X173722364Y-101136288D01*
X173706195Y-100958616D01*
X173724842Y-100781197D01*
X173724847Y-100781180D01*
X173724852Y-100781134D01*
X173777624Y-100610656D01*
X173862504Y-100453674D01*
X173976258Y-100316169D01*
X174114555Y-100203377D01*
X174272125Y-100119595D01*
X174442968Y-100068015D01*
X174620576Y-100050600D01*
X174623375Y-100050600D01*
X174629424Y-100050600D01*
X174629577Y-100050600D01*
X174639614Y-100050670D01*
X174639623Y-100050671D01*
X174642191Y-100050689D01*
X174819538Y-100070582D01*
X174989644Y-100124543D01*
X175146030Y-100210516D01*
X175282738Y-100325228D01*
X175394561Y-100464308D01*
X175477241Y-100622460D01*
X175527627Y-100793659D01*
X175527629Y-100793691D01*
X175527636Y-100793712D01*
X175543805Y-100971384D01*
X175543805Y-100971384D01*
G37*
G36*
X175543805Y-103511384D02*
X175525158Y-103688803D01*
X175525152Y-103688819D01*
X175525148Y-103688866D01*
X175472376Y-103859344D01*
X175387496Y-104016326D01*
X175273742Y-104153831D01*
X175135445Y-104266623D01*
X174977875Y-104350405D01*
X174807032Y-104401985D01*
X174629424Y-104419400D01*
X174626625Y-104419400D01*
X174620576Y-104419400D01*
X174620423Y-104419400D01*
X174610386Y-104419330D01*
X174610376Y-104419328D01*
X174607809Y-104419311D01*
X174430462Y-104399418D01*
X174260356Y-104345457D01*
X174103970Y-104259484D01*
X173967262Y-104144772D01*
X173855439Y-104005692D01*
X173772759Y-103847540D01*
X173722373Y-103676341D01*
X173722370Y-103676308D01*
X173722364Y-103676288D01*
X173706195Y-103498616D01*
X173724842Y-103321197D01*
X173724847Y-103321180D01*
X173724852Y-103321134D01*
X173777624Y-103150656D01*
X173862504Y-102993674D01*
X173976258Y-102856169D01*
X174114555Y-102743377D01*
X174272125Y-102659595D01*
X174442968Y-102608015D01*
X174620576Y-102590600D01*
X174623375Y-102590600D01*
X174629424Y-102590600D01*
X174629577Y-102590600D01*
X174639614Y-102590670D01*
X174639623Y-102590671D01*
X174642191Y-102590689D01*
X174819538Y-102610582D01*
X174989644Y-102664543D01*
X175146030Y-102750516D01*
X175282738Y-102865228D01*
X175394561Y-103004308D01*
X175477241Y-103162460D01*
X175527627Y-103333659D01*
X175527629Y-103333691D01*
X175527636Y-103333712D01*
X175543805Y-103511384D01*
X175543805Y-103511384D01*
G37*
G36*
X175543805Y-106051384D02*
X175525158Y-106228803D01*
X175525152Y-106228819D01*
X175525148Y-106228866D01*
X175472376Y-106399344D01*
X175387496Y-106556326D01*
X175273742Y-106693831D01*
X175135445Y-106806623D01*
X174977875Y-106890405D01*
X174807032Y-106941985D01*
X174629424Y-106959400D01*
X174626625Y-106959400D01*
X174620576Y-106959400D01*
X174620423Y-106959400D01*
X174610386Y-106959330D01*
X174610376Y-106959328D01*
X174607809Y-106959311D01*
X174430462Y-106939418D01*
X174260356Y-106885457D01*
X174103970Y-106799484D01*
X173967262Y-106684772D01*
X173855439Y-106545692D01*
X173772759Y-106387540D01*
X173722373Y-106216341D01*
X173722370Y-106216308D01*
X173722364Y-106216288D01*
X173706195Y-106038616D01*
X173724842Y-105861197D01*
X173724847Y-105861180D01*
X173724852Y-105861134D01*
X173777624Y-105690656D01*
X173862504Y-105533674D01*
X173976258Y-105396169D01*
X174114555Y-105283377D01*
X174272125Y-105199595D01*
X174442968Y-105148015D01*
X174620576Y-105130600D01*
X174623375Y-105130600D01*
X174629424Y-105130600D01*
X174629577Y-105130600D01*
X174639614Y-105130670D01*
X174639623Y-105130671D01*
X174642191Y-105130689D01*
X174819538Y-105150582D01*
X174989644Y-105204543D01*
X175146030Y-105290516D01*
X175282738Y-105405228D01*
X175394561Y-105544308D01*
X175477241Y-105702460D01*
X175527627Y-105873659D01*
X175527629Y-105873691D01*
X175527636Y-105873712D01*
X175543805Y-106051384D01*
X175543805Y-106051384D01*
G37*
G36*
X175768054Y-84330470D02*
X175764082Y-84614943D01*
X175763985Y-84615369D01*
X175763985Y-84615382D01*
X175708906Y-84857815D01*
X175607603Y-85085342D01*
X175464038Y-85288860D01*
X175283675Y-85460618D01*
X175073383Y-85594073D01*
X174841183Y-85684138D01*
X174595906Y-85727387D01*
X174346901Y-85722170D01*
X174103646Y-85668687D01*
X173875418Y-85568978D01*
X173670904Y-85426836D01*
X173497890Y-85247675D01*
X173362975Y-85038326D01*
X173271288Y-84806754D01*
X173226328Y-84561785D01*
X173229806Y-84312746D01*
X173281587Y-84069133D01*
X173379703Y-83840212D01*
X173520415Y-83634706D01*
X173698358Y-83460452D01*
X173906768Y-83324073D01*
X174137692Y-83230773D01*
X174382341Y-83184104D01*
X174631391Y-83185843D01*
X174875370Y-83235925D01*
X175104964Y-83332437D01*
X175311448Y-83471712D01*
X175486942Y-83648436D01*
X175624771Y-83855885D01*
X175719680Y-84086152D01*
X175767970Y-84330032D01*
X175767969Y-84330044D01*
X175768054Y-84330470D01*
X175768054Y-84330470D01*
G37*
G36*
X178083805Y-95891384D02*
X178065158Y-96068803D01*
X178065152Y-96068819D01*
X178065148Y-96068866D01*
X178012376Y-96239344D01*
X177927496Y-96396326D01*
X177813742Y-96533831D01*
X177675445Y-96646623D01*
X177517875Y-96730405D01*
X177347032Y-96781985D01*
X177169424Y-96799400D01*
X177166625Y-96799400D01*
X177160576Y-96799400D01*
X177160423Y-96799400D01*
X177150386Y-96799330D01*
X177150376Y-96799328D01*
X177147809Y-96799311D01*
X176970462Y-96779418D01*
X176800356Y-96725457D01*
X176643970Y-96639484D01*
X176507262Y-96524772D01*
X176395439Y-96385692D01*
X176312759Y-96227540D01*
X176262373Y-96056341D01*
X176262370Y-96056308D01*
X176262364Y-96056288D01*
X176246195Y-95878616D01*
X176264842Y-95701197D01*
X176264847Y-95701180D01*
X176264852Y-95701134D01*
X176317624Y-95530656D01*
X176402504Y-95373674D01*
X176516258Y-95236169D01*
X176654555Y-95123377D01*
X176812125Y-95039595D01*
X176982968Y-94988015D01*
X177160576Y-94970600D01*
X177163375Y-94970600D01*
X177169424Y-94970600D01*
X177169577Y-94970600D01*
X177179614Y-94970670D01*
X177179623Y-94970671D01*
X177182191Y-94970689D01*
X177359538Y-94990582D01*
X177529644Y-95044543D01*
X177686030Y-95130516D01*
X177822738Y-95245228D01*
X177934561Y-95384308D01*
X178017241Y-95542460D01*
X178067627Y-95713659D01*
X178067629Y-95713691D01*
X178067636Y-95713712D01*
X178083805Y-95891384D01*
X178083805Y-95891384D01*
G37*
G36*
X178083805Y-98431384D02*
X178065158Y-98608803D01*
X178065152Y-98608819D01*
X178065148Y-98608866D01*
X178012376Y-98779344D01*
X177927496Y-98936326D01*
X177813742Y-99073831D01*
X177675445Y-99186623D01*
X177517875Y-99270405D01*
X177347032Y-99321985D01*
X177169424Y-99339400D01*
X177166625Y-99339400D01*
X177160576Y-99339400D01*
X177160423Y-99339400D01*
X177150386Y-99339330D01*
X177150376Y-99339328D01*
X177147809Y-99339311D01*
X176970462Y-99319418D01*
X176800356Y-99265457D01*
X176643970Y-99179484D01*
X176507262Y-99064772D01*
X176395439Y-98925692D01*
X176312759Y-98767540D01*
X176262373Y-98596341D01*
X176262370Y-98596308D01*
X176262364Y-98596288D01*
X176246195Y-98418616D01*
X176264842Y-98241197D01*
X176264847Y-98241180D01*
X176264852Y-98241134D01*
X176317624Y-98070656D01*
X176402504Y-97913674D01*
X176516258Y-97776169D01*
X176654555Y-97663377D01*
X176812125Y-97579595D01*
X176982968Y-97528015D01*
X177160576Y-97510600D01*
X177163375Y-97510600D01*
X177169424Y-97510600D01*
X177169577Y-97510600D01*
X177179614Y-97510670D01*
X177179623Y-97510671D01*
X177182191Y-97510689D01*
X177359538Y-97530582D01*
X177529644Y-97584543D01*
X177686030Y-97670516D01*
X177822738Y-97785228D01*
X177934561Y-97924308D01*
X178017241Y-98082460D01*
X178067627Y-98253659D01*
X178067629Y-98253691D01*
X178067636Y-98253712D01*
X178083805Y-98431384D01*
X178083805Y-98431384D01*
G37*
G36*
X178083805Y-100971384D02*
X178065158Y-101148803D01*
X178065152Y-101148819D01*
X178065148Y-101148866D01*
X178012376Y-101319344D01*
X177927496Y-101476326D01*
X177813742Y-101613831D01*
X177675445Y-101726623D01*
X177517875Y-101810405D01*
X177347032Y-101861985D01*
X177169424Y-101879400D01*
X177166625Y-101879400D01*
X177160576Y-101879400D01*
X177160423Y-101879400D01*
X177150386Y-101879330D01*
X177150376Y-101879328D01*
X177147809Y-101879311D01*
X176970462Y-101859418D01*
X176800356Y-101805457D01*
X176643970Y-101719484D01*
X176507262Y-101604772D01*
X176395439Y-101465692D01*
X176312759Y-101307540D01*
X176262373Y-101136341D01*
X176262370Y-101136308D01*
X176262364Y-101136288D01*
X176246195Y-100958616D01*
X176264842Y-100781197D01*
X176264847Y-100781180D01*
X176264852Y-100781134D01*
X176317624Y-100610656D01*
X176402504Y-100453674D01*
X176516258Y-100316169D01*
X176654555Y-100203377D01*
X176812125Y-100119595D01*
X176982968Y-100068015D01*
X177160576Y-100050600D01*
X177163375Y-100050600D01*
X177169424Y-100050600D01*
X177169577Y-100050600D01*
X177179614Y-100050670D01*
X177179623Y-100050671D01*
X177182191Y-100050689D01*
X177359538Y-100070582D01*
X177529644Y-100124543D01*
X177686030Y-100210516D01*
X177822738Y-100325228D01*
X177934561Y-100464308D01*
X178017241Y-100622460D01*
X178067627Y-100793659D01*
X178067629Y-100793691D01*
X178067636Y-100793712D01*
X178083805Y-100971384D01*
X178083805Y-100971384D01*
G37*
G36*
X178083805Y-103511384D02*
X178065158Y-103688803D01*
X178065152Y-103688819D01*
X178065148Y-103688866D01*
X178012376Y-103859344D01*
X177927496Y-104016326D01*
X177813742Y-104153831D01*
X177675445Y-104266623D01*
X177517875Y-104350405D01*
X177347032Y-104401985D01*
X177169424Y-104419400D01*
X177166625Y-104419400D01*
X177160576Y-104419400D01*
X177160423Y-104419400D01*
X177150386Y-104419330D01*
X177150376Y-104419328D01*
X177147809Y-104419311D01*
X176970462Y-104399418D01*
X176800356Y-104345457D01*
X176643970Y-104259484D01*
X176507262Y-104144772D01*
X176395439Y-104005692D01*
X176312759Y-103847540D01*
X176262373Y-103676341D01*
X176262370Y-103676308D01*
X176262364Y-103676288D01*
X176246195Y-103498616D01*
X176264842Y-103321197D01*
X176264847Y-103321180D01*
X176264852Y-103321134D01*
X176317624Y-103150656D01*
X176402504Y-102993674D01*
X176516258Y-102856169D01*
X176654555Y-102743377D01*
X176812125Y-102659595D01*
X176982968Y-102608015D01*
X177160576Y-102590600D01*
X177163375Y-102590600D01*
X177169424Y-102590600D01*
X177169577Y-102590600D01*
X177179614Y-102590670D01*
X177179623Y-102590671D01*
X177182191Y-102590689D01*
X177359538Y-102610582D01*
X177529644Y-102664543D01*
X177686030Y-102750516D01*
X177822738Y-102865228D01*
X177934561Y-103004308D01*
X178017241Y-103162460D01*
X178067627Y-103333659D01*
X178067629Y-103333691D01*
X178067636Y-103333712D01*
X178083805Y-103511384D01*
X178083805Y-103511384D01*
G37*
G36*
X178083805Y-106051384D02*
X178065158Y-106228803D01*
X178065152Y-106228819D01*
X178065148Y-106228866D01*
X178012376Y-106399344D01*
X177927496Y-106556326D01*
X177813742Y-106693831D01*
X177675445Y-106806623D01*
X177517875Y-106890405D01*
X177347032Y-106941985D01*
X177169424Y-106959400D01*
X177166625Y-106959400D01*
X177160576Y-106959400D01*
X177160423Y-106959400D01*
X177150386Y-106959330D01*
X177150376Y-106959328D01*
X177147809Y-106959311D01*
X176970462Y-106939418D01*
X176800356Y-106885457D01*
X176643970Y-106799484D01*
X176507262Y-106684772D01*
X176395439Y-106545692D01*
X176312759Y-106387540D01*
X176262373Y-106216341D01*
X176262370Y-106216308D01*
X176262364Y-106216288D01*
X176246195Y-106038616D01*
X176264842Y-105861197D01*
X176264847Y-105861180D01*
X176264852Y-105861134D01*
X176317624Y-105690656D01*
X176402504Y-105533674D01*
X176516258Y-105396169D01*
X176654555Y-105283377D01*
X176812125Y-105199595D01*
X176982968Y-105148015D01*
X177160576Y-105130600D01*
X177163375Y-105130600D01*
X177169424Y-105130600D01*
X177169577Y-105130600D01*
X177179614Y-105130670D01*
X177179623Y-105130671D01*
X177182191Y-105130689D01*
X177359538Y-105150582D01*
X177529644Y-105204543D01*
X177686030Y-105290516D01*
X177822738Y-105405228D01*
X177934561Y-105544308D01*
X178017241Y-105702460D01*
X178067627Y-105873659D01*
X178067629Y-105873691D01*
X178067636Y-105873712D01*
X178083805Y-106051384D01*
X178083805Y-106051384D01*
G37*
G36*
X178413800Y-110865800D02*
X176612200Y-110865800D01*
X176612200Y-110114200D01*
X178413800Y-110114200D01*
X178413800Y-110865800D01*
X178413800Y-110865800D01*
G37*
G36*
X178413800Y-112135800D02*
X176612200Y-112135800D01*
X176612200Y-111384200D01*
X178413800Y-111384200D01*
X178413800Y-112135800D01*
X178413800Y-112135800D01*
G37*
G36*
X178413800Y-113405800D02*
X176612200Y-113405800D01*
X176612200Y-112654200D01*
X178413800Y-112654200D01*
X178413800Y-113405800D01*
X178413800Y-113405800D01*
G37*
G36*
X178413800Y-114675800D02*
X176612200Y-114675800D01*
X176612200Y-113924200D01*
X178413800Y-113924200D01*
X178413800Y-114675800D01*
X178413800Y-114675800D01*
G37*
G36*
X179120890Y-90600771D02*
X179114375Y-91067307D01*
X179114278Y-91067733D01*
X179114278Y-91067745D01*
X179023885Y-91465616D01*
X178857751Y-91838758D01*
X178622299Y-92172532D01*
X178326506Y-92454212D01*
X177981634Y-92673074D01*
X177600814Y-92820785D01*
X177198565Y-92891713D01*
X176790197Y-92883158D01*
X176391262Y-92795446D01*
X176016967Y-92631922D01*
X175681564Y-92398809D01*
X175397822Y-92104987D01*
X175176559Y-91761653D01*
X175026194Y-91381876D01*
X174952460Y-90980128D01*
X174958163Y-90571706D01*
X175043085Y-90172177D01*
X175203995Y-89796748D01*
X175434759Y-89459724D01*
X175726596Y-89173936D01*
X176068374Y-88950283D01*
X176447094Y-88797270D01*
X176848318Y-88720732D01*
X177256764Y-88723585D01*
X177656883Y-88805716D01*
X178033422Y-88963999D01*
X178372053Y-89192409D01*
X178659868Y-89482241D01*
X178885902Y-89822448D01*
X179041555Y-90200090D01*
X179120805Y-90600332D01*
X179120804Y-90600341D01*
X179120890Y-90600771D01*
X179120890Y-90600771D01*
G37*
G36*
X179120890Y-118540771D02*
X179114375Y-119007307D01*
X179114278Y-119007733D01*
X179114278Y-119007745D01*
X179023885Y-119405616D01*
X178857751Y-119778758D01*
X178622299Y-120112532D01*
X178326506Y-120394212D01*
X177981634Y-120613074D01*
X177600814Y-120760785D01*
X177198565Y-120831713D01*
X176790197Y-120823158D01*
X176391262Y-120735446D01*
X176016967Y-120571922D01*
X175681564Y-120338809D01*
X175397822Y-120044987D01*
X175176559Y-119701653D01*
X175026194Y-119321876D01*
X174952460Y-118920128D01*
X174958163Y-118511706D01*
X175043085Y-118112177D01*
X175203995Y-117736748D01*
X175434759Y-117399724D01*
X175726596Y-117113936D01*
X176068374Y-116890283D01*
X176447094Y-116737270D01*
X176848318Y-116660732D01*
X177256764Y-116663585D01*
X177656883Y-116745716D01*
X178033422Y-116903999D01*
X178372053Y-117132409D01*
X178659868Y-117422241D01*
X178885902Y-117762448D01*
X179041555Y-118140090D01*
X179120805Y-118540332D01*
X179120804Y-118540341D01*
X179120890Y-118540771D01*
X179120890Y-118540771D01*
G37*
M02*
