G04 #@! TF.FileFunction,Copper,L2,Bot,Signal*
%FSLAX46Y46*%
G04 Gerber Fmt 4.6, Leading zero omitted, Abs format (unit mm)*
G04 Created by KiCad (PCBNEW (2015-07-11 BZR 5925, Git c291b88)-product) date 22/08/2015 23:31:56*
%MOMM*%
G01*
G04 APERTURE LIST*
%ADD10C,0.100000*%
%ADD11R,1.727200X1.727200*%
%ADD12O,1.727200X1.727200*%
%ADD13C,4.064000*%
%ADD14C,1.000000*%
%ADD15C,0.950000*%
%ADD16C,2.000000*%
%ADD17R,2.540000X1.778000*%
%ADD18O,2.540000X1.778000*%
%ADD19O,1.727200X2.032000*%
%ADD20C,1.524000*%
%ADD21C,0.609600*%
%ADD22C,0.508000*%
%ADD23C,0.152400*%
%ADD24C,0.254000*%
G04 APERTURE END LIST*
D10*
D11*
X174625000Y-95885000D03*
D12*
X177165000Y-95885000D03*
X174625000Y-98425000D03*
X177165000Y-98425000D03*
X174625000Y-100965000D03*
X177165000Y-100965000D03*
X174625000Y-103505000D03*
X177165000Y-103505000D03*
X174625000Y-106045000D03*
X177165000Y-106045000D03*
D13*
X124968000Y-123825000D03*
X177038000Y-118745000D03*
X126238000Y-75565000D03*
X177038000Y-90805000D03*
D14*
X112075540Y-91764100D03*
X112238040Y-91764100D03*
X112730540Y-91764100D03*
X112565540Y-91764100D03*
X112725540Y-84764100D03*
X112563040Y-84764100D03*
X112075540Y-84764100D03*
X112238040Y-84764100D03*
D15*
X115100540Y-90914100D03*
X115100540Y-90614100D03*
X115100540Y-85914100D03*
X115100540Y-85614100D03*
X115100540Y-85764100D03*
X115100540Y-90764100D03*
D14*
X112400540Y-84764100D03*
X112400540Y-91764100D03*
D16*
X119008400Y-123444000D03*
X118758400Y-123444000D03*
X118508400Y-123444000D03*
X118258400Y-123444000D03*
X117008400Y-123444000D03*
X117258400Y-123444000D03*
X117508400Y-123444000D03*
X117758400Y-123444000D03*
X115008660Y-119745000D03*
X115008660Y-119495000D03*
X115008660Y-119245000D03*
X115008660Y-118995000D03*
X115008660Y-117745000D03*
X115008660Y-117995000D03*
X115008660Y-118245000D03*
X115008660Y-118495000D03*
X121008140Y-119745000D03*
X121008140Y-119495000D03*
X121008140Y-119245000D03*
X121008140Y-118995000D03*
X121008140Y-117745000D03*
X121008140Y-117995000D03*
X121008140Y-118245000D03*
X121008140Y-118495000D03*
X121008140Y-118745000D03*
X115008660Y-118745000D03*
X118008400Y-123444000D03*
D17*
X118364000Y-118745000D03*
D18*
X118364000Y-121285000D03*
D19*
X129794000Y-78105000D03*
X132334000Y-78105000D03*
X134874000Y-78105000D03*
X137414000Y-78105000D03*
X139954000Y-78105000D03*
X142494000Y-78105000D03*
X145034000Y-78105000D03*
X147574000Y-78105000D03*
X150114000Y-78105000D03*
X152654000Y-78105000D03*
X129794000Y-75565000D03*
X132334000Y-75565000D03*
X134874000Y-75565000D03*
X137414000Y-75565000D03*
X139954000Y-75565000D03*
X142494000Y-75565000D03*
X145034000Y-75565000D03*
X147574000Y-75565000D03*
X150114000Y-75565000D03*
X152654000Y-75565000D03*
X156718000Y-78105000D03*
X159258000Y-78105000D03*
X161798000Y-78105000D03*
X164338000Y-78105000D03*
X166878000Y-78105000D03*
X169418000Y-78105000D03*
X171958000Y-78105000D03*
X174498000Y-78105000D03*
X138938000Y-121285000D03*
X141478000Y-121285000D03*
X144018000Y-121285000D03*
X146558000Y-121285000D03*
X149098000Y-121285000D03*
X151638000Y-121285000D03*
X154178000Y-121285000D03*
X156718000Y-121285000D03*
X156718000Y-75565000D03*
X159258000Y-75565000D03*
X161798000Y-75565000D03*
X164338000Y-75565000D03*
X166878000Y-75565000D03*
X169418000Y-75565000D03*
X171958000Y-75565000D03*
X174498000Y-75565000D03*
X138938000Y-123825000D03*
X141478000Y-123825000D03*
X144018000Y-123825000D03*
X146558000Y-123825000D03*
X149098000Y-123825000D03*
X151638000Y-123825000D03*
X154178000Y-123825000D03*
X156718000Y-123825000D03*
X161798000Y-123825000D03*
X164338000Y-123825000D03*
X166878000Y-123825000D03*
X169418000Y-123825000D03*
X171958000Y-123825000D03*
X174498000Y-123825000D03*
X161798000Y-121285000D03*
X164338000Y-121285000D03*
X166878000Y-121285000D03*
X169418000Y-121285000D03*
X171958000Y-121285000D03*
X174498000Y-121285000D03*
D16*
X113893000Y-82265520D03*
X114113000Y-82265520D03*
X114333000Y-82265520D03*
X115213000Y-82265520D03*
X114993000Y-82265520D03*
X114773000Y-82265520D03*
X115213000Y-94264480D03*
X114993000Y-94264480D03*
X114773000Y-94264480D03*
X113893000Y-94264480D03*
X114113000Y-94264480D03*
X114333000Y-94264480D03*
D20*
X119252000Y-86995000D03*
X119252000Y-89535000D03*
X117253020Y-89535000D03*
X117253020Y-86995000D03*
D16*
X114553000Y-82265520D03*
X114553000Y-94264480D03*
D21*
X127000000Y-119380000D03*
X172847000Y-106553000D03*
X169926000Y-98933000D03*
X128524000Y-95885000D03*
X128524000Y-94488000D03*
X123063000Y-95631000D03*
X125730000Y-97282000D03*
X153670000Y-85344000D03*
X112522000Y-97536000D03*
X141478000Y-115189000D03*
X141478000Y-114427000D03*
X124333000Y-112903000D03*
X136525000Y-98425000D03*
X137414000Y-98425000D03*
X147701000Y-101981000D03*
X147447000Y-103632000D03*
X143383000Y-83693000D03*
X144653000Y-83693000D03*
X145923000Y-83693000D03*
X141351000Y-108585000D03*
X166751000Y-115316000D03*
X124841000Y-80645000D03*
X128524000Y-91821000D03*
X122301000Y-92710000D03*
X122682000Y-89281000D03*
X122301000Y-87630000D03*
X142113000Y-100076000D03*
X128524000Y-88011000D03*
X144018000Y-113538000D03*
X162433000Y-113919000D03*
X166243000Y-112903000D03*
X167513000Y-112903000D03*
X164973000Y-112903000D03*
X165862000Y-104521000D03*
X169926000Y-97917000D03*
X165989000Y-94107000D03*
X150114000Y-86614000D03*
X168148000Y-83058000D03*
X165608000Y-83058000D03*
X160528000Y-85852000D03*
X142240000Y-89916000D03*
X123952000Y-118237000D03*
X129413000Y-122555000D03*
X132842000Y-117348000D03*
X114681000Y-78994000D03*
X120015000Y-78994000D03*
X136271000Y-110363000D03*
X130937000Y-108204000D03*
X128270000Y-110363000D03*
X134239000Y-107061000D03*
X170180000Y-115443000D03*
X176149000Y-110490000D03*
X165989000Y-91567000D03*
X141351000Y-106680000D03*
X141351000Y-104775000D03*
X127635000Y-85725000D03*
X128524000Y-96901000D03*
X127254000Y-90678000D03*
X122301000Y-85725000D03*
X171958000Y-94488000D03*
X113030000Y-101727000D03*
X127000000Y-108585000D03*
X121666000Y-108331000D03*
X128778000Y-113030000D03*
X118491000Y-108331000D03*
X117348000Y-100076000D03*
X147320000Y-110617000D03*
X145288000Y-113538000D03*
X146558000Y-113538000D03*
X147828000Y-113538000D03*
X149098000Y-113538000D03*
X150368000Y-113538000D03*
X151638000Y-113538000D03*
X152908000Y-113461800D03*
X154178000Y-113538000D03*
X155448000Y-113538000D03*
X156718000Y-113538000D03*
X157988000Y-113538000D03*
X161417000Y-111633000D03*
X137668000Y-105664000D03*
X126746000Y-83058000D03*
X119888000Y-83058000D03*
X147447000Y-106680000D03*
X154178000Y-90170000D03*
X149860000Y-107061000D03*
X164465000Y-107696000D03*
X168656000Y-89916000D03*
X148590000Y-89154000D03*
X156337000Y-103251000D03*
X149860000Y-94361000D03*
X140462000Y-94234000D03*
X157099000Y-104521000D03*
X155575000Y-103886000D03*
X144145000Y-100076000D03*
X135128000Y-103251000D03*
X157861000Y-103251000D03*
X133731000Y-88011000D03*
X160274000Y-92075000D03*
X165227000Y-101219000D03*
X164338000Y-101219000D03*
X163449000Y-101219000D03*
X162560000Y-101600000D03*
X160528000Y-107315000D03*
X159766000Y-107315000D03*
X159004000Y-107315000D03*
X158115000Y-107315000D03*
X137287000Y-86106000D03*
X170688000Y-93599000D03*
X137287000Y-84963000D03*
X171704000Y-97282000D03*
X137922000Y-86741000D03*
X169926000Y-100330000D03*
X137922000Y-85471000D03*
X171323000Y-102235000D03*
X164465000Y-115570000D03*
X161544000Y-110363000D03*
X124968000Y-98425000D03*
X135890000Y-103886000D03*
X137795000Y-94869000D03*
X149098000Y-94742000D03*
X160909000Y-95631000D03*
X131064000Y-96266000D03*
X132588000Y-101092000D03*
X163322000Y-96901000D03*
X163957000Y-96266000D03*
X132080000Y-100457000D03*
X164592000Y-95631000D03*
X131572000Y-99822000D03*
X131064000Y-99187000D03*
X165227000Y-94996000D03*
X137922000Y-101473000D03*
X165862000Y-99441000D03*
X165227000Y-98806000D03*
X137414000Y-100838000D03*
X164592000Y-98171000D03*
X136906000Y-100203000D03*
X163957000Y-97536000D03*
X136398000Y-99568000D03*
X131064000Y-84709000D03*
X153670000Y-86360000D03*
X149479000Y-91313000D03*
X131064000Y-89281000D03*
X137160000Y-94361000D03*
X150622000Y-93980000D03*
X151384000Y-93599000D03*
X136525000Y-93853000D03*
X131699000Y-88646000D03*
X148590000Y-91313000D03*
X122809000Y-109347000D03*
X113284000Y-108839000D03*
D22*
X129413000Y-105918000D02*
X129413000Y-105791000D01*
X128524000Y-119380000D02*
X128524000Y-125730000D01*
X149098000Y-125730000D02*
X128524000Y-125730000D01*
X149098000Y-123825000D02*
X149098000Y-125730000D01*
X127000000Y-119380000D02*
X128524000Y-119380000D01*
X127000000Y-119380000D02*
X127000000Y-119380000D01*
X128524000Y-125730000D02*
X128524000Y-125730000D01*
D23*
X151638000Y-122555000D02*
X151638000Y-123825000D01*
X154178000Y-122555000D02*
X154178000Y-123825000D01*
X157861000Y-122555000D02*
X154178000Y-122555000D01*
X154178000Y-122555000D02*
X151638000Y-122555000D01*
X151638000Y-122555000D02*
X147828000Y-122555000D01*
X142748000Y-122555000D02*
X144018000Y-123825000D01*
X138176000Y-122555000D02*
X137668000Y-122047000D01*
X142748000Y-122555000D02*
X138176000Y-122555000D01*
X137668000Y-120396000D02*
X137668000Y-122047000D01*
X138303000Y-106299000D02*
X138303000Y-119761000D01*
X138303000Y-119761000D02*
X137668000Y-120396000D01*
X137668000Y-105664000D02*
X138303000Y-106299000D01*
X123444000Y-83058000D02*
X126746000Y-83058000D01*
X119888000Y-83058000D02*
X123444000Y-83058000D01*
D22*
X154178000Y-90170000D02*
X151638000Y-90170000D01*
X151638000Y-90170000D02*
X150622000Y-89154000D01*
X154178000Y-90170000D02*
X168402000Y-90170000D01*
X168402000Y-90170000D02*
X168656000Y-89916000D01*
X147447000Y-106680000D02*
X149479000Y-106680000D01*
X149479000Y-106680000D02*
X149860000Y-107061000D01*
X149860000Y-107061000D02*
X151511000Y-108712000D01*
X151511000Y-108712000D02*
X163449000Y-108712000D01*
X163449000Y-108712000D02*
X164465000Y-107696000D01*
D23*
X164211000Y-107950000D02*
X164465000Y-107696000D01*
D22*
X148590000Y-89154000D02*
X150622000Y-89154000D01*
D23*
X168656000Y-89916000D02*
X168656000Y-89916000D01*
X148590000Y-89154000D02*
X148590000Y-89154000D01*
X172466000Y-104140000D02*
X168783000Y-104140000D01*
X172974000Y-99441000D02*
X172974000Y-103632000D01*
X164465000Y-102997000D02*
X164719000Y-102743000D01*
X158496000Y-102997000D02*
X164465000Y-102997000D01*
X156972000Y-102616000D02*
X156337000Y-103251000D01*
X156972000Y-102616000D02*
X158115000Y-102616000D01*
X164719000Y-102743000D02*
X167386000Y-102743000D01*
X167386000Y-102743000D02*
X168783000Y-104140000D01*
X158115000Y-102616000D02*
X158496000Y-102997000D01*
X172974000Y-103632000D02*
X172466000Y-104140000D01*
X173355000Y-97155000D02*
X173355000Y-99060000D01*
X173355000Y-97155000D02*
X174625000Y-95885000D01*
X173355000Y-99060000D02*
X172974000Y-99441000D01*
X148780500Y-94170500D02*
X149669500Y-94170500D01*
X149669500Y-94170500D02*
X149860000Y-94361000D01*
X140462000Y-94234000D02*
X140716000Y-94488000D01*
X148463000Y-94488000D02*
X148780500Y-94170500D01*
X140716000Y-94488000D02*
X148463000Y-94488000D01*
X165227000Y-104140000D02*
X158623000Y-104140000D01*
X168021000Y-105283000D02*
X173863000Y-105283000D01*
X166624000Y-103886000D02*
X168021000Y-105283000D01*
X165227000Y-104140000D02*
X165481000Y-103886000D01*
X158242000Y-104521000D02*
X157099000Y-104521000D01*
X174625000Y-106045000D02*
X173863000Y-105283000D01*
X165481000Y-103886000D02*
X166624000Y-103886000D01*
X158623000Y-104140000D02*
X158242000Y-104521000D01*
X157099000Y-104521000D02*
X157099000Y-104521000D01*
X173482000Y-104902000D02*
X168275000Y-104902000D01*
X175895000Y-102235000D02*
X174625000Y-100965000D01*
X175895000Y-104140000D02*
X175895000Y-102235000D01*
X175260000Y-104775000D02*
X175895000Y-104140000D01*
X173609000Y-104775000D02*
X175260000Y-104775000D01*
X173482000Y-104902000D02*
X173609000Y-104775000D01*
X164973000Y-103759000D02*
X158369000Y-103759000D01*
X158369000Y-103759000D02*
X158242000Y-103886000D01*
X157988000Y-103886000D02*
X158242000Y-103886000D01*
X155575000Y-103886000D02*
X157988000Y-103886000D01*
X164973000Y-103759000D02*
X165227000Y-103505000D01*
X165227000Y-103505000D02*
X166878000Y-103505000D01*
X166878000Y-103505000D02*
X168275000Y-104902000D01*
X135128000Y-103251000D02*
X135128000Y-103251000D01*
X135128000Y-103251000D02*
X138684000Y-103251000D01*
X138684000Y-103251000D02*
X140589000Y-101346000D01*
X144145000Y-100076000D02*
X142875000Y-101346000D01*
X142875000Y-101346000D02*
X140589000Y-101346000D01*
X172720000Y-104521000D02*
X168529000Y-104521000D01*
X173355000Y-99695000D02*
X173355000Y-103886000D01*
X157861000Y-103251000D02*
X158115000Y-103251000D01*
X164719000Y-103378000D02*
X164973000Y-103124000D01*
X158242000Y-103378000D02*
X164719000Y-103378000D01*
X158115000Y-103251000D02*
X158242000Y-103378000D01*
X164973000Y-103124000D02*
X167132000Y-103124000D01*
X167132000Y-103124000D02*
X168529000Y-104521000D01*
X173355000Y-103886000D02*
X172720000Y-104521000D01*
X173355000Y-99695000D02*
X174625000Y-98425000D01*
X149733000Y-90678000D02*
X148336000Y-90678000D01*
X143891000Y-88265000D02*
X133985000Y-88265000D01*
X146558000Y-90932000D02*
X146304000Y-90678000D01*
X148082000Y-90932000D02*
X146558000Y-90932000D01*
X148336000Y-90678000D02*
X148082000Y-90932000D01*
X160274000Y-92075000D02*
X151130000Y-92075000D01*
X151130000Y-92075000D02*
X149733000Y-90678000D01*
X160274000Y-92075000D02*
X160274000Y-92075000D01*
X146304000Y-90678000D02*
X143891000Y-88265000D01*
X133985000Y-88265000D02*
X133731000Y-88011000D01*
X133731000Y-88011000D02*
X133731000Y-88011000D01*
X138811000Y-104521000D02*
X138811000Y-121158000D01*
X138811000Y-121158000D02*
X138938000Y-121285000D01*
X163703000Y-100203000D02*
X146304000Y-100203000D01*
X163703000Y-100203000D02*
X164084000Y-100584000D01*
X164084000Y-100584000D02*
X164338000Y-100584000D01*
X164338000Y-100584000D02*
X164592000Y-100584000D01*
X144462500Y-102044500D02*
X144145000Y-102362000D01*
X144145000Y-102362000D02*
X140970000Y-102362000D01*
X138811000Y-113030000D02*
X138811000Y-121158000D01*
X138811000Y-121158000D02*
X138938000Y-121285000D01*
X140970000Y-102362000D02*
X138811000Y-104521000D01*
X138811000Y-113030000D02*
X138811000Y-113030000D01*
X163703000Y-100203000D02*
X163703000Y-100203000D01*
X164592000Y-100584000D02*
X165227000Y-101219000D01*
X146304000Y-100203000D02*
X144462500Y-102044500D01*
X139319000Y-104648000D02*
X139319000Y-119126000D01*
X163576000Y-100584000D02*
X146558000Y-100584000D01*
X163576000Y-100584000D02*
X164211000Y-101219000D01*
X164211000Y-101219000D02*
X164338000Y-101219000D01*
X144653000Y-102489000D02*
X144399000Y-102743000D01*
X144399000Y-102743000D02*
X141224000Y-102743000D01*
X141224000Y-102743000D02*
X139319000Y-104648000D01*
X141478000Y-121285000D02*
X141478000Y-121285000D01*
X139319000Y-119126000D02*
X141478000Y-121285000D01*
X164338000Y-101219000D02*
X164338000Y-101219000D01*
X146558000Y-100584000D02*
X144653000Y-102489000D01*
X139827000Y-104775000D02*
X139827000Y-118872000D01*
X142494000Y-119761000D02*
X140716000Y-119761000D01*
X142494000Y-119761000D02*
X144018000Y-121285000D01*
X139827000Y-118872000D02*
X140716000Y-119761000D01*
X163195000Y-100965000D02*
X146939000Y-100965000D01*
X144780000Y-103124000D02*
X141478000Y-103124000D01*
X141478000Y-103124000D02*
X139827000Y-104775000D01*
X163195000Y-100965000D02*
X163449000Y-101219000D01*
X146939000Y-100965000D02*
X144780000Y-103124000D01*
X140335000Y-104902000D02*
X140335000Y-118618000D01*
X162306000Y-101346000D02*
X147193000Y-101346000D01*
X140335000Y-118618000D02*
X141097000Y-119380000D01*
X144653000Y-119380000D02*
X146558000Y-121285000D01*
X141097000Y-119380000D02*
X144653000Y-119380000D01*
X145034000Y-103505000D02*
X141732000Y-103505000D01*
X141732000Y-103505000D02*
X140335000Y-104902000D01*
X162306000Y-101346000D02*
X162560000Y-101600000D01*
X146558000Y-121285000D02*
X146558000Y-121285000D01*
X147193000Y-101346000D02*
X145034000Y-103505000D01*
X150876000Y-104394000D02*
X146050000Y-104394000D01*
X143637000Y-117983000D02*
X144526000Y-117983000D01*
X142113000Y-116459000D02*
X143637000Y-117983000D01*
X142113000Y-108331000D02*
X142113000Y-116459000D01*
X146050000Y-104394000D02*
X142113000Y-108331000D01*
X152400000Y-105918000D02*
X150876000Y-104394000D01*
X152400000Y-105918000D02*
X159512000Y-105918000D01*
X160528000Y-107315000D02*
X160528000Y-106934000D01*
X160528000Y-106934000D02*
X159512000Y-105918000D01*
X144526000Y-117983000D02*
X144653000Y-117983000D01*
X144653000Y-117983000D02*
X145796000Y-117983000D01*
X144653000Y-117983000D02*
X144653000Y-117983000D01*
X145796000Y-117983000D02*
X149098000Y-121285000D01*
X146304000Y-104775000D02*
X142494000Y-108585000D01*
X143764000Y-117475000D02*
X145923000Y-117475000D01*
X150114000Y-119761000D02*
X151638000Y-121285000D01*
X150114000Y-119761000D02*
X148209000Y-119761000D01*
X145923000Y-117475000D02*
X148209000Y-119761000D01*
X142494000Y-108585000D02*
X142494000Y-116205000D01*
X142494000Y-116205000D02*
X143764000Y-117475000D01*
X159131000Y-106299000D02*
X152146000Y-106299000D01*
X159766000Y-106934000D02*
X159131000Y-106299000D01*
X159766000Y-107315000D02*
X159766000Y-106934000D01*
X152146000Y-106299000D02*
X150622000Y-104775000D01*
X150622000Y-104775000D02*
X146304000Y-104775000D01*
X148463000Y-119380000D02*
X151765000Y-119380000D01*
X158750000Y-106680000D02*
X151892000Y-106680000D01*
X150368000Y-105156000D02*
X146558000Y-105156000D01*
X143891000Y-116967000D02*
X146050000Y-116967000D01*
X142875000Y-115951000D02*
X143891000Y-116967000D01*
X142875000Y-108839000D02*
X142875000Y-115951000D01*
X146050000Y-116967000D02*
X148463000Y-119380000D01*
X146558000Y-105156000D02*
X142875000Y-108839000D01*
X150368000Y-105156000D02*
X151892000Y-106680000D01*
X151765000Y-119380000D02*
X152908000Y-120523000D01*
X153670000Y-121285000D02*
X154178000Y-121285000D01*
X152908000Y-120523000D02*
X153670000Y-121285000D01*
X152908000Y-120523000D02*
X152908000Y-120523000D01*
X158750000Y-106680000D02*
X159004000Y-106934000D01*
X159004000Y-106934000D02*
X159004000Y-107315000D01*
X143256000Y-109093000D02*
X143256000Y-115824000D01*
X150114000Y-105537000D02*
X146812000Y-105537000D01*
X152146000Y-118999000D02*
X153035000Y-119888000D01*
X143256000Y-115824000D02*
X144018000Y-116586000D01*
X144018000Y-116586000D02*
X146177000Y-116586000D01*
X146177000Y-116586000D02*
X148590000Y-118999000D01*
X148590000Y-118999000D02*
X152146000Y-118999000D01*
X153035000Y-119888000D02*
X155321000Y-119888000D01*
X155321000Y-119888000D02*
X156718000Y-121285000D01*
X146812000Y-105537000D02*
X143256000Y-109093000D01*
X157861000Y-107061000D02*
X158115000Y-107315000D01*
X151638000Y-107061000D02*
X157861000Y-107061000D01*
X150114000Y-105537000D02*
X151638000Y-107061000D01*
X158115000Y-107315000D02*
X158115000Y-107315000D01*
X169545000Y-88138000D02*
X153289000Y-88138000D01*
X170688000Y-89281000D02*
X170688000Y-93599000D01*
X137287000Y-86106000D02*
X138176000Y-86106000D01*
X138811000Y-85471000D02*
X150622000Y-85471000D01*
X150622000Y-85471000D02*
X153289000Y-88138000D01*
X138176000Y-86106000D02*
X138811000Y-85471000D01*
X170688000Y-89281000D02*
X169545000Y-88138000D01*
X170053000Y-87376000D02*
X153797000Y-87376000D01*
X171704000Y-93980000D02*
X171704000Y-93091000D01*
X171450000Y-92837000D02*
X171450000Y-88773000D01*
X171704000Y-93091000D02*
X171450000Y-92837000D01*
X137287000Y-84963000D02*
X137541000Y-84709000D01*
X137541000Y-84709000D02*
X151130000Y-84709000D01*
X151130000Y-84709000D02*
X153797000Y-87376000D01*
X171196000Y-96393000D02*
X171196000Y-96774000D01*
X171450000Y-88773000D02*
X170053000Y-87376000D01*
X171704000Y-93980000D02*
X171196000Y-94488000D01*
X171196000Y-94488000D02*
X171196000Y-96393000D01*
X171196000Y-96774000D02*
X171704000Y-97282000D01*
X169291000Y-88519000D02*
X153035000Y-88519000D01*
X170307000Y-89535000D02*
X169291000Y-88519000D01*
X170434000Y-97536000D02*
X170434000Y-94234000D01*
X170053000Y-93853000D02*
X170053000Y-93853000D01*
X170434000Y-94234000D02*
X170053000Y-93853000D01*
X170053000Y-93345000D02*
X170053000Y-93345000D01*
X170053000Y-93345000D02*
X170053000Y-93853000D01*
X170053000Y-93345000D02*
X170307000Y-93091000D01*
X170307000Y-93091000D02*
X170307000Y-89535000D01*
X137922000Y-86741000D02*
X138430000Y-86741000D01*
X139319000Y-85852000D02*
X150368000Y-85852000D01*
X150368000Y-85852000D02*
X153035000Y-88519000D01*
X138430000Y-86741000D02*
X139319000Y-85852000D01*
X170434000Y-97536000D02*
X170688000Y-97790000D01*
X170688000Y-97790000D02*
X170688000Y-99568000D01*
X170688000Y-99568000D02*
X169926000Y-100330000D01*
X169799000Y-87757000D02*
X153543000Y-87757000D01*
X171069000Y-97536000D02*
X171069000Y-101981000D01*
X171069000Y-101981000D02*
X171323000Y-102235000D01*
X171323000Y-93345000D02*
X171069000Y-93091000D01*
X171069000Y-93091000D02*
X171069000Y-89027000D01*
X137922000Y-85471000D02*
X138303000Y-85090000D01*
X138303000Y-85090000D02*
X150876000Y-85090000D01*
X150876000Y-85090000D02*
X153543000Y-87757000D01*
X171323000Y-93345000D02*
X171323000Y-93853000D01*
X171069000Y-89027000D02*
X169799000Y-87757000D01*
X171323000Y-93853000D02*
X170815000Y-94361000D01*
X170815000Y-94361000D02*
X170815000Y-97282000D01*
X170815000Y-97282000D02*
X171069000Y-97536000D01*
X164465000Y-114427000D02*
X164465000Y-115570000D01*
X163576000Y-113538000D02*
X164465000Y-114427000D01*
X163576000Y-111506000D02*
X163576000Y-113538000D01*
X163068000Y-110998000D02*
X163576000Y-111506000D01*
X162179000Y-110998000D02*
X163068000Y-110998000D01*
X161544000Y-110363000D02*
X162179000Y-110998000D01*
X125857000Y-99314000D02*
X124968000Y-98425000D01*
X124968000Y-98425000D02*
X124968000Y-98425000D01*
X135890000Y-103886000D02*
X134874000Y-103886000D01*
X127254000Y-99314000D02*
X125857000Y-99314000D01*
X128270000Y-100330000D02*
X127254000Y-99314000D01*
X128270000Y-102235000D02*
X128270000Y-100330000D01*
X129032000Y-102997000D02*
X128270000Y-102235000D01*
X133985000Y-102997000D02*
X129032000Y-102997000D01*
X134874000Y-103886000D02*
X133985000Y-102997000D01*
X149098000Y-94742000D02*
X148844000Y-94742000D01*
X148717000Y-94869000D02*
X140208000Y-94869000D01*
X148844000Y-94742000D02*
X148717000Y-94869000D01*
X137795000Y-94869000D02*
X137795000Y-94488000D01*
X137795000Y-94488000D02*
X138303000Y-93980000D01*
X138303000Y-93980000D02*
X139319000Y-93980000D01*
X139319000Y-93980000D02*
X140208000Y-94869000D01*
X139065000Y-95885000D02*
X160655000Y-95885000D01*
X160655000Y-95885000D02*
X160909000Y-95631000D01*
X138684000Y-96266000D02*
X139065000Y-95885000D01*
X138684000Y-96266000D02*
X131064000Y-96266000D01*
X162814000Y-97409000D02*
X140081000Y-97409000D01*
X139700000Y-97790000D02*
X135255000Y-97790000D01*
X139700000Y-97790000D02*
X140081000Y-97409000D01*
X135255000Y-97790000D02*
X132715000Y-100330000D01*
X132715000Y-100330000D02*
X132715000Y-100965000D01*
X132715000Y-100965000D02*
X132588000Y-101092000D01*
X163322000Y-96901000D02*
X162814000Y-97409000D01*
X162306000Y-97028000D02*
X139827000Y-97028000D01*
X139446000Y-97409000D02*
X135001000Y-97409000D01*
X163957000Y-96266000D02*
X163068000Y-96266000D01*
X163068000Y-96266000D02*
X162306000Y-97028000D01*
X139446000Y-97409000D02*
X139446000Y-97409000D01*
X139446000Y-97409000D02*
X139827000Y-97028000D01*
X132207000Y-100330000D02*
X132080000Y-100457000D01*
X132207000Y-100203000D02*
X132207000Y-100330000D01*
X135001000Y-97409000D02*
X132207000Y-100203000D01*
X162052000Y-96647000D02*
X139573000Y-96647000D01*
X163830000Y-95631000D02*
X163703000Y-95631000D01*
X163449000Y-95885000D02*
X162814000Y-95885000D01*
X163703000Y-95631000D02*
X163449000Y-95885000D01*
X164592000Y-95631000D02*
X163830000Y-95631000D01*
X162814000Y-95885000D02*
X162052000Y-96647000D01*
X139192000Y-97028000D02*
X139573000Y-96647000D01*
X139192000Y-97028000D02*
X134747000Y-97028000D01*
X131953000Y-99822000D02*
X134747000Y-97028000D01*
X131572000Y-99822000D02*
X131953000Y-99822000D01*
X161798000Y-96266000D02*
X139319000Y-96266000D01*
X138938000Y-96647000D02*
X134493000Y-96647000D01*
X131953000Y-99187000D02*
X134493000Y-96647000D01*
X131064000Y-99187000D02*
X131953000Y-99187000D01*
X138938000Y-96647000D02*
X139319000Y-96266000D01*
X162560000Y-95504000D02*
X161798000Y-96266000D01*
X164592000Y-94996000D02*
X165227000Y-94996000D01*
X164338000Y-94996000D02*
X164084000Y-95250000D01*
X164084000Y-95250000D02*
X163576000Y-95250000D01*
X163576000Y-95250000D02*
X163322000Y-95504000D01*
X163322000Y-95504000D02*
X162560000Y-95504000D01*
X164592000Y-94996000D02*
X164338000Y-94996000D01*
X163830000Y-98933000D02*
X141097000Y-98933000D01*
X140716000Y-99314000D02*
X139319000Y-99314000D01*
X140716000Y-99314000D02*
X141097000Y-98933000D01*
X138049000Y-101346000D02*
X137922000Y-101473000D01*
X138049000Y-100584000D02*
X138049000Y-101346000D01*
X139319000Y-99314000D02*
X138049000Y-100584000D01*
X163830000Y-98933000D02*
X164084000Y-99187000D01*
X165862000Y-99441000D02*
X164973000Y-99441000D01*
X164973000Y-99441000D02*
X164719000Y-99187000D01*
X164719000Y-99187000D02*
X164084000Y-99187000D01*
X164084000Y-98552000D02*
X140970000Y-98552000D01*
X140589000Y-98933000D02*
X139065000Y-98933000D01*
X164084000Y-98552000D02*
X164338000Y-98806000D01*
X140589000Y-98933000D02*
X140970000Y-98552000D01*
X137414000Y-100838000D02*
X137414000Y-100584000D01*
X137414000Y-100584000D02*
X139065000Y-98933000D01*
X165227000Y-98806000D02*
X165227000Y-98806000D01*
X165227000Y-98806000D02*
X164338000Y-98806000D01*
X164592000Y-98171000D02*
X140716000Y-98171000D01*
X140335000Y-98552000D02*
X140716000Y-98171000D01*
X136906000Y-100203000D02*
X137160000Y-100203000D01*
X137160000Y-100203000D02*
X138811000Y-98552000D01*
X140335000Y-98552000D02*
X138811000Y-98552000D01*
X164592000Y-98171000D02*
X164592000Y-98171000D01*
X163703000Y-97790000D02*
X140462000Y-97790000D01*
X163957000Y-97536000D02*
X163703000Y-97790000D01*
X140081000Y-98171000D02*
X140462000Y-97790000D01*
X138557000Y-98171000D02*
X137160000Y-99568000D01*
X137160000Y-99568000D02*
X136398000Y-99568000D01*
X140081000Y-98171000D02*
X138557000Y-98171000D01*
X151384000Y-84328000D02*
X131445000Y-84328000D01*
X153670000Y-86360000D02*
X153416000Y-86360000D01*
X153416000Y-86360000D02*
X151384000Y-84328000D01*
X131445000Y-84328000D02*
X131064000Y-84709000D01*
X148907500Y-91884500D02*
X149479000Y-91313000D01*
X148272500Y-91884500D02*
X148907500Y-91884500D01*
X146050000Y-91694000D02*
X143383000Y-89027000D01*
X132080000Y-89281000D02*
X131064000Y-89281000D01*
X132334000Y-89027000D02*
X143383000Y-89027000D01*
X132080000Y-89281000D02*
X132334000Y-89027000D01*
X148272500Y-91884500D02*
X148082000Y-91694000D01*
X148082000Y-91694000D02*
X146050000Y-91694000D01*
X137922000Y-93599000D02*
X140716000Y-93599000D01*
X140716000Y-93599000D02*
X141224000Y-94107000D01*
X141224000Y-94107000D02*
X148336000Y-94107000D01*
X148336000Y-94107000D02*
X148717000Y-93726000D01*
X150368000Y-93726000D02*
X150622000Y-93980000D01*
X148717000Y-93726000D02*
X150368000Y-93726000D01*
X137160000Y-94361000D02*
X137922000Y-93599000D01*
X136525000Y-93853000D02*
X136906000Y-93853000D01*
X137541000Y-93218000D02*
X137668000Y-93218000D01*
X136906000Y-93853000D02*
X137541000Y-93218000D01*
X148653500Y-93281500D02*
X151066500Y-93281500D01*
X151066500Y-93281500D02*
X151384000Y-93599000D01*
X148209000Y-93726000D02*
X148653500Y-93281500D01*
X141401802Y-93726000D02*
X148209000Y-93726000D01*
X140893802Y-93218000D02*
X141401802Y-93726000D01*
X137668000Y-93218000D02*
X140893802Y-93218000D01*
X148590000Y-91313000D02*
X146304000Y-91313000D01*
X146304000Y-91313000D02*
X143637000Y-88646000D01*
X131699000Y-88646000D02*
X131699000Y-88646000D01*
X131699000Y-88646000D02*
X143637000Y-88646000D01*
X113792000Y-109347000D02*
X122809000Y-109347000D01*
X113284000Y-108839000D02*
X113792000Y-109347000D01*
D22*
X115100540Y-90914100D02*
X112725540Y-90914100D01*
X112238040Y-91764100D02*
X113796900Y-91764100D01*
X113893000Y-91860200D02*
X113893000Y-94264480D01*
X113796900Y-91764100D02*
X113893000Y-91860200D01*
X113893000Y-94264480D02*
X114773000Y-94264480D01*
X112725540Y-84764100D02*
X113863900Y-84764100D01*
X113893000Y-84735000D02*
X113893000Y-82265520D01*
X113863900Y-84764100D02*
X113893000Y-84735000D01*
X115100540Y-85914100D02*
X112725540Y-85914100D01*
X115100540Y-94152020D02*
X115213000Y-94264480D01*
X112725540Y-84764100D02*
X112725540Y-85914100D01*
X112725540Y-85914100D02*
X112725540Y-90914100D01*
X112725540Y-90914100D02*
X112725540Y-91759100D01*
X112725540Y-91759100D02*
X112730540Y-91764100D01*
X112730540Y-91764100D02*
X112238040Y-91764100D01*
X112725540Y-84764100D02*
X112725540Y-85547540D01*
D23*
G36*
X124901669Y-73561257D02*
X124236592Y-74225174D01*
X123876211Y-75093068D01*
X123875391Y-76032809D01*
X124234257Y-76901331D01*
X124898174Y-77566408D01*
X125766068Y-77926789D01*
X126705809Y-77927609D01*
X127574331Y-77568743D01*
X128239408Y-76904826D01*
X128599789Y-76036932D01*
X128600200Y-75565915D01*
X128600200Y-75743774D01*
X128691073Y-76200621D01*
X128949856Y-76587918D01*
X129319641Y-76835000D01*
X128949856Y-77082082D01*
X128691073Y-77469379D01*
X128600200Y-77926226D01*
X128600200Y-78283774D01*
X128691073Y-78740621D01*
X128949856Y-79127918D01*
X129337153Y-79386701D01*
X129794000Y-79477574D01*
X130250847Y-79386701D01*
X130638144Y-79127918D01*
X130896927Y-78740621D01*
X130987800Y-78283774D01*
X130987800Y-77926226D01*
X130896927Y-77469379D01*
X130638144Y-77082082D01*
X130268359Y-76835000D01*
X130638144Y-76587918D01*
X130896927Y-76200621D01*
X130987800Y-75743774D01*
X130987800Y-75386226D01*
X131140200Y-75386226D01*
X131140200Y-75743774D01*
X131231073Y-76200621D01*
X131489856Y-76587918D01*
X131859641Y-76835000D01*
X131489856Y-77082082D01*
X131231073Y-77469379D01*
X131140200Y-77926226D01*
X131140200Y-78283774D01*
X131231073Y-78740621D01*
X131489856Y-79127918D01*
X131877153Y-79386701D01*
X132334000Y-79477574D01*
X132790847Y-79386701D01*
X133178144Y-79127918D01*
X133436927Y-78740621D01*
X133527800Y-78283774D01*
X133527800Y-77926226D01*
X133436927Y-77469379D01*
X133178144Y-77082082D01*
X132808359Y-76835000D01*
X133178144Y-76587918D01*
X133436927Y-76200621D01*
X133527800Y-75743774D01*
X133527800Y-75386226D01*
X133680200Y-75386226D01*
X133680200Y-75743774D01*
X133771073Y-76200621D01*
X134029856Y-76587918D01*
X134399641Y-76835000D01*
X134029856Y-77082082D01*
X133771073Y-77469379D01*
X133680200Y-77926226D01*
X133680200Y-78283774D01*
X133771073Y-78740621D01*
X134029856Y-79127918D01*
X134417153Y-79386701D01*
X134874000Y-79477574D01*
X135330847Y-79386701D01*
X135718144Y-79127918D01*
X135976927Y-78740621D01*
X136030967Y-78468943D01*
X136240739Y-78468943D01*
X136411002Y-78901828D01*
X136733963Y-79236605D01*
X137053720Y-79395537D01*
X137236200Y-79354334D01*
X137236200Y-78282800D01*
X137591800Y-78282800D01*
X137591800Y-79354334D01*
X137774280Y-79395537D01*
X138094037Y-79236605D01*
X138416998Y-78901828D01*
X138587261Y-78468943D01*
X138523359Y-78282800D01*
X137591800Y-78282800D01*
X137236200Y-78282800D01*
X137236200Y-78282800D01*
X136304641Y-78282800D01*
X136240739Y-78468943D01*
X136030967Y-78468943D01*
X136067800Y-78283774D01*
X136067800Y-77926226D01*
X135976927Y-77469379D01*
X135718144Y-77082082D01*
X135348359Y-76835000D01*
X135718144Y-76587918D01*
X135976927Y-76200621D01*
X136030967Y-75928943D01*
X136240739Y-75928943D01*
X136411002Y-76361828D01*
X136733963Y-76696605D01*
X137012401Y-76835000D01*
X136733963Y-76973395D01*
X136411002Y-77308172D01*
X136240739Y-77741057D01*
X136304641Y-77927200D01*
X137236200Y-77927200D01*
X137236200Y-76855666D01*
X137144674Y-76835000D01*
X137236200Y-76814334D01*
X137236200Y-75742800D01*
X137591800Y-75742800D01*
X137591800Y-76814334D01*
X137683326Y-76835000D01*
X137591800Y-76855666D01*
X137591800Y-77927200D01*
X138523359Y-77927200D01*
X138587261Y-77741057D01*
X138416998Y-77308172D01*
X138094037Y-76973395D01*
X137815599Y-76835000D01*
X138094037Y-76696605D01*
X138416998Y-76361828D01*
X138587261Y-75928943D01*
X138523359Y-75742800D01*
X137591800Y-75742800D01*
X137236200Y-75742800D01*
X137236200Y-75742800D01*
X136304641Y-75742800D01*
X136240739Y-75928943D01*
X136030967Y-75928943D01*
X136067800Y-75743774D01*
X136067800Y-75386226D01*
X136030968Y-75201057D01*
X136240739Y-75201057D01*
X136304641Y-75387200D01*
X137236200Y-75387200D01*
X137236200Y-74315666D01*
X137591800Y-74315666D01*
X137591800Y-75387200D01*
X138523359Y-75387200D01*
X138523693Y-75386226D01*
X138760200Y-75386226D01*
X138760200Y-75743774D01*
X138851073Y-76200621D01*
X139109856Y-76587918D01*
X139479641Y-76835000D01*
X139109856Y-77082082D01*
X138851073Y-77469379D01*
X138760200Y-77926226D01*
X138760200Y-78283774D01*
X138851073Y-78740621D01*
X139109856Y-79127918D01*
X139497153Y-79386701D01*
X139954000Y-79477574D01*
X140410847Y-79386701D01*
X140798144Y-79127918D01*
X141056927Y-78740621D01*
X141147800Y-78283774D01*
X141147800Y-77926226D01*
X141056927Y-77469379D01*
X140798144Y-77082082D01*
X140428359Y-76835000D01*
X140798144Y-76587918D01*
X141056927Y-76200621D01*
X141147800Y-75743774D01*
X141147800Y-75386226D01*
X141300200Y-75386226D01*
X141300200Y-75743774D01*
X141391073Y-76200621D01*
X141649856Y-76587918D01*
X142019641Y-76835000D01*
X141649856Y-77082082D01*
X141391073Y-77469379D01*
X141300200Y-77926226D01*
X141300200Y-78283774D01*
X141391073Y-78740621D01*
X141649856Y-79127918D01*
X142037153Y-79386701D01*
X142494000Y-79477574D01*
X142950847Y-79386701D01*
X143338144Y-79127918D01*
X143596927Y-78740621D01*
X143687800Y-78283774D01*
X143687800Y-77926226D01*
X143596927Y-77469379D01*
X143338144Y-77082082D01*
X142968359Y-76835000D01*
X143338144Y-76587918D01*
X143596927Y-76200621D01*
X143687800Y-75743774D01*
X143687800Y-75386226D01*
X143840200Y-75386226D01*
X143840200Y-75743774D01*
X143931073Y-76200621D01*
X144189856Y-76587918D01*
X144559641Y-76835000D01*
X144189856Y-77082082D01*
X143931073Y-77469379D01*
X143840200Y-77926226D01*
X143840200Y-78283774D01*
X143931073Y-78740621D01*
X144189856Y-79127918D01*
X144577153Y-79386701D01*
X145034000Y-79477574D01*
X145490847Y-79386701D01*
X145878144Y-79127918D01*
X146136927Y-78740621D01*
X146227800Y-78283774D01*
X146227800Y-77926226D01*
X146136927Y-77469379D01*
X145878144Y-77082082D01*
X145508359Y-76835000D01*
X145878144Y-76587918D01*
X146136927Y-76200621D01*
X146227800Y-75743774D01*
X146227800Y-75386226D01*
X146380200Y-75386226D01*
X146380200Y-75743774D01*
X146471073Y-76200621D01*
X146729856Y-76587918D01*
X147099641Y-76835000D01*
X146729856Y-77082082D01*
X146471073Y-77469379D01*
X146380200Y-77926226D01*
X146380200Y-78283774D01*
X146471073Y-78740621D01*
X146729856Y-79127918D01*
X147117153Y-79386701D01*
X147574000Y-79477574D01*
X148030847Y-79386701D01*
X148418144Y-79127918D01*
X148676927Y-78740621D01*
X148767800Y-78283774D01*
X148767800Y-77926226D01*
X148676927Y-77469379D01*
X148418144Y-77082082D01*
X148048359Y-76835000D01*
X148418144Y-76587918D01*
X148676927Y-76200621D01*
X148767800Y-75743774D01*
X148767800Y-75386226D01*
X148920200Y-75386226D01*
X148920200Y-75743774D01*
X149011073Y-76200621D01*
X149269856Y-76587918D01*
X149639641Y-76835000D01*
X149269856Y-77082082D01*
X149011073Y-77469379D01*
X148920200Y-77926226D01*
X148920200Y-78283774D01*
X149011073Y-78740621D01*
X149269856Y-79127918D01*
X149657153Y-79386701D01*
X150114000Y-79477574D01*
X150570847Y-79386701D01*
X150958144Y-79127918D01*
X151216927Y-78740621D01*
X151307800Y-78283774D01*
X151307800Y-77926226D01*
X151216927Y-77469379D01*
X150958144Y-77082082D01*
X150588359Y-76835000D01*
X150958144Y-76587918D01*
X151216927Y-76200621D01*
X151307800Y-75743774D01*
X151307800Y-75386226D01*
X151460200Y-75386226D01*
X151460200Y-75743774D01*
X151551073Y-76200621D01*
X151809856Y-76587918D01*
X152179641Y-76835000D01*
X151809856Y-77082082D01*
X151551073Y-77469379D01*
X151460200Y-77926226D01*
X151460200Y-78283774D01*
X151551073Y-78740621D01*
X151809856Y-79127918D01*
X152197153Y-79386701D01*
X152654000Y-79477574D01*
X153110847Y-79386701D01*
X153498144Y-79127918D01*
X153756927Y-78740621D01*
X153847800Y-78283774D01*
X153847800Y-77926226D01*
X153756927Y-77469379D01*
X153498144Y-77082082D01*
X153128359Y-76835000D01*
X153498144Y-76587918D01*
X153756927Y-76200621D01*
X153847800Y-75743774D01*
X153847800Y-75386226D01*
X155524200Y-75386226D01*
X155524200Y-75743774D01*
X155615073Y-76200621D01*
X155873856Y-76587918D01*
X156243641Y-76835000D01*
X155873856Y-77082082D01*
X155615073Y-77469379D01*
X155524200Y-77926226D01*
X155524200Y-78283774D01*
X155615073Y-78740621D01*
X155873856Y-79127918D01*
X156261153Y-79386701D01*
X156718000Y-79477574D01*
X157174847Y-79386701D01*
X157562144Y-79127918D01*
X157820927Y-78740621D01*
X157911800Y-78283774D01*
X157911800Y-77926226D01*
X157820927Y-77469379D01*
X157562144Y-77082082D01*
X157192359Y-76835000D01*
X157562144Y-76587918D01*
X157820927Y-76200621D01*
X157911800Y-75743774D01*
X157911800Y-75386226D01*
X158064200Y-75386226D01*
X158064200Y-75743774D01*
X158155073Y-76200621D01*
X158413856Y-76587918D01*
X158783641Y-76835000D01*
X158413856Y-77082082D01*
X158155073Y-77469379D01*
X158064200Y-77926226D01*
X158064200Y-78283774D01*
X158155073Y-78740621D01*
X158413856Y-79127918D01*
X158801153Y-79386701D01*
X159258000Y-79477574D01*
X159714847Y-79386701D01*
X160102144Y-79127918D01*
X160360927Y-78740621D01*
X160451800Y-78283774D01*
X160451800Y-77926226D01*
X160360927Y-77469379D01*
X160102144Y-77082082D01*
X159732359Y-76835000D01*
X160102144Y-76587918D01*
X160360927Y-76200621D01*
X160451800Y-75743774D01*
X160451800Y-75386226D01*
X160604200Y-75386226D01*
X160604200Y-75743774D01*
X160695073Y-76200621D01*
X160953856Y-76587918D01*
X161323641Y-76835000D01*
X160953856Y-77082082D01*
X160695073Y-77469379D01*
X160604200Y-77926226D01*
X160604200Y-78283774D01*
X160695073Y-78740621D01*
X160953856Y-79127918D01*
X161341153Y-79386701D01*
X161798000Y-79477574D01*
X162254847Y-79386701D01*
X162642144Y-79127918D01*
X162900927Y-78740621D01*
X162991800Y-78283774D01*
X162991800Y-77926226D01*
X162900927Y-77469379D01*
X162642144Y-77082082D01*
X162272359Y-76835000D01*
X162642144Y-76587918D01*
X162900927Y-76200621D01*
X162991800Y-75743774D01*
X162991800Y-75386226D01*
X163144200Y-75386226D01*
X163144200Y-75743774D01*
X163235073Y-76200621D01*
X163493856Y-76587918D01*
X163863641Y-76835000D01*
X163493856Y-77082082D01*
X163235073Y-77469379D01*
X163144200Y-77926226D01*
X163144200Y-78283774D01*
X163235073Y-78740621D01*
X163493856Y-79127918D01*
X163881153Y-79386701D01*
X164338000Y-79477574D01*
X164794847Y-79386701D01*
X165182144Y-79127918D01*
X165440927Y-78740621D01*
X165531800Y-78283774D01*
X165531800Y-77926226D01*
X165440927Y-77469379D01*
X165182144Y-77082082D01*
X164812359Y-76835000D01*
X165182144Y-76587918D01*
X165440927Y-76200621D01*
X165531800Y-75743774D01*
X165531800Y-75386226D01*
X165684200Y-75386226D01*
X165684200Y-75743774D01*
X165775073Y-76200621D01*
X166033856Y-76587918D01*
X166403641Y-76835000D01*
X166033856Y-77082082D01*
X165775073Y-77469379D01*
X165684200Y-77926226D01*
X165684200Y-78283774D01*
X165775073Y-78740621D01*
X166033856Y-79127918D01*
X166421153Y-79386701D01*
X166878000Y-79477574D01*
X167334847Y-79386701D01*
X167722144Y-79127918D01*
X167980927Y-78740621D01*
X168071800Y-78283774D01*
X168071800Y-77926226D01*
X167980927Y-77469379D01*
X167722144Y-77082082D01*
X167352359Y-76835000D01*
X167722144Y-76587918D01*
X167980927Y-76200621D01*
X168071800Y-75743774D01*
X168071800Y-75386226D01*
X168224200Y-75386226D01*
X168224200Y-75743774D01*
X168315073Y-76200621D01*
X168573856Y-76587918D01*
X168943641Y-76835000D01*
X168573856Y-77082082D01*
X168315073Y-77469379D01*
X168224200Y-77926226D01*
X168224200Y-78283774D01*
X168315073Y-78740621D01*
X168573856Y-79127918D01*
X168961153Y-79386701D01*
X169418000Y-79477574D01*
X169874847Y-79386701D01*
X170262144Y-79127918D01*
X170520927Y-78740621D01*
X170611800Y-78283774D01*
X170611800Y-77926226D01*
X170520927Y-77469379D01*
X170262144Y-77082082D01*
X169892359Y-76835000D01*
X170262144Y-76587918D01*
X170520927Y-76200621D01*
X170611800Y-75743774D01*
X170611800Y-75386226D01*
X170764200Y-75386226D01*
X170764200Y-75743774D01*
X170855073Y-76200621D01*
X171113856Y-76587918D01*
X171483641Y-76835000D01*
X171113856Y-77082082D01*
X170855073Y-77469379D01*
X170764200Y-77926226D01*
X170764200Y-78283774D01*
X170855073Y-78740621D01*
X171113856Y-79127918D01*
X171501153Y-79386701D01*
X171958000Y-79477574D01*
X172414847Y-79386701D01*
X172802144Y-79127918D01*
X173060927Y-78740621D01*
X173151800Y-78283774D01*
X173151800Y-77926226D01*
X173060927Y-77469379D01*
X172802144Y-77082082D01*
X172432359Y-76835000D01*
X172802144Y-76587918D01*
X173060927Y-76200621D01*
X173151800Y-75743774D01*
X173151800Y-75386226D01*
X173304200Y-75386226D01*
X173304200Y-75743774D01*
X173395073Y-76200621D01*
X173653856Y-76587918D01*
X174023641Y-76835000D01*
X173653856Y-77082082D01*
X173395073Y-77469379D01*
X173304200Y-77926226D01*
X173304200Y-78283774D01*
X173395073Y-78740621D01*
X173653856Y-79127918D01*
X174041153Y-79386701D01*
X174498000Y-79477574D01*
X174954847Y-79386701D01*
X175342144Y-79127918D01*
X175600927Y-78740621D01*
X175691800Y-78283774D01*
X175691800Y-77926226D01*
X175600927Y-77469379D01*
X175342144Y-77082082D01*
X174972359Y-76835000D01*
X175342144Y-76587918D01*
X175600927Y-76200621D01*
X175691800Y-75743774D01*
X175691800Y-75386226D01*
X175600927Y-74929379D01*
X175342144Y-74542082D01*
X174954847Y-74283299D01*
X174498000Y-74192426D01*
X174041153Y-74283299D01*
X173653856Y-74542082D01*
X173395073Y-74929379D01*
X173304200Y-75386226D01*
X173151800Y-75386226D01*
X173151800Y-75386226D01*
X173060927Y-74929379D01*
X172802144Y-74542082D01*
X172414847Y-74283299D01*
X171958000Y-74192426D01*
X171501153Y-74283299D01*
X171113856Y-74542082D01*
X170855073Y-74929379D01*
X170764200Y-75386226D01*
X170611800Y-75386226D01*
X170611800Y-75386226D01*
X170520927Y-74929379D01*
X170262144Y-74542082D01*
X169874847Y-74283299D01*
X169418000Y-74192426D01*
X168961153Y-74283299D01*
X168573856Y-74542082D01*
X168315073Y-74929379D01*
X168224200Y-75386226D01*
X168071800Y-75386226D01*
X168071800Y-75386226D01*
X167980927Y-74929379D01*
X167722144Y-74542082D01*
X167334847Y-74283299D01*
X166878000Y-74192426D01*
X166421153Y-74283299D01*
X166033856Y-74542082D01*
X165775073Y-74929379D01*
X165684200Y-75386226D01*
X165531800Y-75386226D01*
X165531800Y-75386226D01*
X165440927Y-74929379D01*
X165182144Y-74542082D01*
X164794847Y-74283299D01*
X164338000Y-74192426D01*
X163881153Y-74283299D01*
X163493856Y-74542082D01*
X163235073Y-74929379D01*
X163144200Y-75386226D01*
X162991800Y-75386226D01*
X162991800Y-75386226D01*
X162900927Y-74929379D01*
X162642144Y-74542082D01*
X162254847Y-74283299D01*
X161798000Y-74192426D01*
X161341153Y-74283299D01*
X160953856Y-74542082D01*
X160695073Y-74929379D01*
X160604200Y-75386226D01*
X160451800Y-75386226D01*
X160451800Y-75386226D01*
X160360927Y-74929379D01*
X160102144Y-74542082D01*
X159714847Y-74283299D01*
X159258000Y-74192426D01*
X158801153Y-74283299D01*
X158413856Y-74542082D01*
X158155073Y-74929379D01*
X158064200Y-75386226D01*
X157911800Y-75386226D01*
X157911800Y-75386226D01*
X157820927Y-74929379D01*
X157562144Y-74542082D01*
X157174847Y-74283299D01*
X156718000Y-74192426D01*
X156261153Y-74283299D01*
X155873856Y-74542082D01*
X155615073Y-74929379D01*
X155524200Y-75386226D01*
X153847800Y-75386226D01*
X153847800Y-75386226D01*
X153756927Y-74929379D01*
X153498144Y-74542082D01*
X153110847Y-74283299D01*
X152654000Y-74192426D01*
X152197153Y-74283299D01*
X151809856Y-74542082D01*
X151551073Y-74929379D01*
X151460200Y-75386226D01*
X151307800Y-75386226D01*
X151307800Y-75386226D01*
X151216927Y-74929379D01*
X150958144Y-74542082D01*
X150570847Y-74283299D01*
X150114000Y-74192426D01*
X149657153Y-74283299D01*
X149269856Y-74542082D01*
X149011073Y-74929379D01*
X148920200Y-75386226D01*
X148767800Y-75386226D01*
X148767800Y-75386226D01*
X148676927Y-74929379D01*
X148418144Y-74542082D01*
X148030847Y-74283299D01*
X147574000Y-74192426D01*
X147117153Y-74283299D01*
X146729856Y-74542082D01*
X146471073Y-74929379D01*
X146380200Y-75386226D01*
X146227800Y-75386226D01*
X146227800Y-75386226D01*
X146136927Y-74929379D01*
X145878144Y-74542082D01*
X145490847Y-74283299D01*
X145034000Y-74192426D01*
X144577153Y-74283299D01*
X144189856Y-74542082D01*
X143931073Y-74929379D01*
X143840200Y-75386226D01*
X143687800Y-75386226D01*
X143687800Y-75386226D01*
X143596927Y-74929379D01*
X143338144Y-74542082D01*
X142950847Y-74283299D01*
X142494000Y-74192426D01*
X142037153Y-74283299D01*
X141649856Y-74542082D01*
X141391073Y-74929379D01*
X141300200Y-75386226D01*
X141147800Y-75386226D01*
X141147800Y-75386226D01*
X141056927Y-74929379D01*
X140798144Y-74542082D01*
X140410847Y-74283299D01*
X139954000Y-74192426D01*
X139497153Y-74283299D01*
X139109856Y-74542082D01*
X138851073Y-74929379D01*
X138760200Y-75386226D01*
X138523693Y-75386226D01*
X138587261Y-75201057D01*
X138416998Y-74768172D01*
X138094037Y-74433395D01*
X137774280Y-74274463D01*
X137591800Y-74315666D01*
X137236200Y-74315666D01*
X137236200Y-74315666D01*
X137053720Y-74274463D01*
X136733963Y-74433395D01*
X136411002Y-74768172D01*
X136240739Y-75201057D01*
X136030968Y-75201057D01*
X135976927Y-74929379D01*
X135718144Y-74542082D01*
X135330847Y-74283299D01*
X134874000Y-74192426D01*
X134417153Y-74283299D01*
X134029856Y-74542082D01*
X133771073Y-74929379D01*
X133680200Y-75386226D01*
X133527800Y-75386226D01*
X133527800Y-75386226D01*
X133436927Y-74929379D01*
X133178144Y-74542082D01*
X132790847Y-74283299D01*
X132334000Y-74192426D01*
X131877153Y-74283299D01*
X131489856Y-74542082D01*
X131231073Y-74929379D01*
X131140200Y-75386226D01*
X130987800Y-75386226D01*
X130987800Y-75386226D01*
X130896927Y-74929379D01*
X130638144Y-74542082D01*
X130250847Y-74283299D01*
X129794000Y-74192426D01*
X129337153Y-74283299D01*
X128949856Y-74542082D01*
X128691073Y-74929379D01*
X128600357Y-75385434D01*
X128600609Y-75097191D01*
X128241743Y-74228669D01*
X127577826Y-73563592D01*
X127256582Y-73430200D01*
X175303436Y-73430200D01*
X176632800Y-74759563D01*
X176632800Y-85979000D01*
X176663644Y-86134064D01*
X176707800Y-86200148D01*
X176707800Y-86232994D01*
X176707799Y-86233000D01*
X176713600Y-86262161D01*
X176730118Y-86286882D01*
X179172800Y-88729563D01*
X179172800Y-89785851D01*
X179041743Y-89468669D01*
X178377826Y-88803592D01*
X177509932Y-88443211D01*
X176570191Y-88442391D01*
X175701669Y-88801257D01*
X175036592Y-89465174D01*
X174676211Y-90333068D01*
X174675391Y-91272809D01*
X175034257Y-92141331D01*
X175698174Y-92806408D01*
X176566068Y-93166789D01*
X177505809Y-93167609D01*
X178374331Y-92808743D01*
X179039408Y-92144826D01*
X179172800Y-91823582D01*
X179172800Y-117725851D01*
X179041743Y-117408669D01*
X178377826Y-116743592D01*
X177509932Y-116383211D01*
X176570191Y-116382391D01*
X175701669Y-116741257D01*
X175036592Y-117405174D01*
X174676211Y-118273068D01*
X174675391Y-119212809D01*
X175020004Y-120046835D01*
X174954847Y-120003299D01*
X174498000Y-119912426D01*
X174041153Y-120003299D01*
X173978881Y-120044908D01*
X171429487Y-117495513D01*
X171322362Y-117423935D01*
X171196000Y-117398800D01*
X165236774Y-117398800D01*
X162255200Y-114417226D01*
X162255200Y-111506000D01*
X162234990Y-111404400D01*
X162899664Y-111404400D01*
X163169600Y-111674337D01*
X163169600Y-113538000D01*
X163200535Y-113693523D01*
X163266336Y-113792000D01*
X163288632Y-113825368D01*
X164058600Y-114595336D01*
X164058600Y-115078449D01*
X163926987Y-115209832D01*
X163830111Y-115443137D01*
X163829890Y-115695755D01*
X163926360Y-115929228D01*
X164104832Y-116108013D01*
X164338137Y-116204889D01*
X164590755Y-116205110D01*
X164824228Y-116108640D01*
X165003013Y-115930168D01*
X165099889Y-115696863D01*
X165100110Y-115444245D01*
X165003640Y-115210772D01*
X164871400Y-115078300D01*
X164871400Y-114427000D01*
X164840465Y-114271477D01*
X164752368Y-114139632D01*
X163982400Y-113369664D01*
X163982400Y-111506000D01*
X163951465Y-111350477D01*
X163899369Y-111272510D01*
X163863368Y-111218631D01*
X163355368Y-110710632D01*
X163223523Y-110622535D01*
X163068000Y-110591600D01*
X162347336Y-110591600D01*
X162178947Y-110423211D01*
X162179110Y-110237245D01*
X162082640Y-110003772D01*
X161904168Y-109824987D01*
X161670863Y-109728111D01*
X161418245Y-109727890D01*
X161184772Y-109824360D01*
X161005987Y-110002832D01*
X160971606Y-110085632D01*
X160761487Y-109875513D01*
X160654362Y-109803935D01*
X160528000Y-109778800D01*
X146050000Y-109778800D01*
X145923638Y-109803935D01*
X145816513Y-109875513D01*
X144546513Y-111145513D01*
X144474935Y-111252638D01*
X144449800Y-111379000D01*
X144449800Y-113792000D01*
X144474935Y-113918362D01*
X144546513Y-114025487D01*
X148864513Y-118343487D01*
X148971638Y-118415065D01*
X149098000Y-118440200D01*
X153279226Y-118440200D01*
X154198513Y-119359487D01*
X154305638Y-119431065D01*
X154432000Y-119456200D01*
X157851226Y-119456200D01*
X159562800Y-121167774D01*
X159562800Y-125959800D01*
X149633563Y-125959800D01*
X149637730Y-125953564D01*
X149682200Y-125730000D01*
X149682200Y-125021607D01*
X149942144Y-124847918D01*
X150200927Y-124460621D01*
X150254967Y-124188943D01*
X150464739Y-124188943D01*
X150635002Y-124621828D01*
X150957963Y-124956605D01*
X151277720Y-125115537D01*
X151460200Y-125074334D01*
X151460200Y-124002800D01*
X151815800Y-124002800D01*
X151815800Y-125074334D01*
X151998280Y-125115537D01*
X152318037Y-124956605D01*
X152640998Y-124621828D01*
X152811261Y-124188943D01*
X153004739Y-124188943D01*
X153175002Y-124621828D01*
X153497963Y-124956605D01*
X153817720Y-125115537D01*
X154000200Y-125074334D01*
X154000200Y-124002800D01*
X154355800Y-124002800D01*
X154355800Y-125074334D01*
X154538280Y-125115537D01*
X154858037Y-124956605D01*
X155180998Y-124621828D01*
X155351261Y-124188943D01*
X155287359Y-124002800D01*
X154355800Y-124002800D01*
X154000200Y-124002800D01*
X154000200Y-124002800D01*
X153068641Y-124002800D01*
X153004739Y-124188943D01*
X152811261Y-124188943D01*
X152811261Y-124188943D01*
X152747359Y-124002800D01*
X151815800Y-124002800D01*
X151460200Y-124002800D01*
X151460200Y-124002800D01*
X150528641Y-124002800D01*
X150464739Y-124188943D01*
X150254967Y-124188943D01*
X150291800Y-124003774D01*
X150291800Y-123646226D01*
X150200927Y-123189379D01*
X149942144Y-122802082D01*
X149572359Y-122555000D01*
X149942144Y-122307918D01*
X150200927Y-121920621D01*
X150291800Y-121463774D01*
X150291800Y-121106226D01*
X150200927Y-120649379D01*
X149942144Y-120262082D01*
X149800442Y-120167400D01*
X149945664Y-120167400D01*
X150517249Y-120738986D01*
X150444200Y-121106226D01*
X150444200Y-121463774D01*
X150535073Y-121920621D01*
X150793856Y-122307918D01*
X151181153Y-122566701D01*
X151203798Y-122571205D01*
X150957963Y-122693395D01*
X150635002Y-123028172D01*
X150464739Y-123461057D01*
X150528641Y-123647200D01*
X151460200Y-123647200D01*
X151460200Y-123627200D01*
X151815800Y-123627200D01*
X151815800Y-123647200D01*
X152747359Y-123647200D01*
X152811261Y-123461057D01*
X152640998Y-123028172D01*
X152318037Y-122693395D01*
X152072202Y-122571205D01*
X152094847Y-122566701D01*
X152482144Y-122307918D01*
X152740927Y-121920621D01*
X152831800Y-121463774D01*
X152831800Y-121106226D01*
X152810771Y-121000507D01*
X152984200Y-121173936D01*
X152984200Y-121463774D01*
X153075073Y-121920621D01*
X153333856Y-122307918D01*
X153721153Y-122566701D01*
X153743798Y-122571205D01*
X153497963Y-122693395D01*
X153175002Y-123028172D01*
X153004739Y-123461057D01*
X153068641Y-123647200D01*
X154000200Y-123647200D01*
X154000200Y-123627200D01*
X154355800Y-123627200D01*
X154355800Y-123647200D01*
X155287359Y-123647200D01*
X155351261Y-123461057D01*
X155180998Y-123028172D01*
X154858037Y-122693395D01*
X154612202Y-122571205D01*
X154634847Y-122566701D01*
X155022144Y-122307918D01*
X155280927Y-121920621D01*
X155371800Y-121463774D01*
X155371800Y-121106226D01*
X155280927Y-120649379D01*
X155043738Y-120294400D01*
X155152664Y-120294400D01*
X155597249Y-120738985D01*
X155524200Y-121106226D01*
X155524200Y-121463774D01*
X155615073Y-121920621D01*
X155873856Y-122307918D01*
X156243641Y-122555000D01*
X155873856Y-122802082D01*
X155615073Y-123189379D01*
X155524200Y-123646226D01*
X155524200Y-124003774D01*
X155615073Y-124460621D01*
X155873856Y-124847918D01*
X156261153Y-125106701D01*
X156718000Y-125197574D01*
X157174847Y-125106701D01*
X157562144Y-124847918D01*
X157820927Y-124460621D01*
X157911800Y-124003774D01*
X157911800Y-123646226D01*
X157820927Y-123189379D01*
X157562144Y-122802082D01*
X157192359Y-122555000D01*
X157562144Y-122307918D01*
X157820927Y-121920621D01*
X157911800Y-121463774D01*
X157911800Y-121106226D01*
X157820927Y-120649379D01*
X157562144Y-120262082D01*
X157174847Y-120003299D01*
X156718000Y-119912426D01*
X156261153Y-120003299D01*
X156111218Y-120103482D01*
X155608368Y-119600632D01*
X155570651Y-119575430D01*
X155476523Y-119512535D01*
X155321000Y-119481600D01*
X153203336Y-119481600D01*
X152433368Y-118711632D01*
X152328358Y-118641466D01*
X152301523Y-118623535D01*
X152146000Y-118592600D01*
X148758336Y-118592600D01*
X146464368Y-116298632D01*
X146332523Y-116210535D01*
X146177000Y-116179600D01*
X144186336Y-116179600D01*
X143662400Y-115655664D01*
X143662400Y-109261336D01*
X146117981Y-106805755D01*
X146811890Y-106805755D01*
X146908360Y-107039228D01*
X147086832Y-107218013D01*
X147320137Y-107314889D01*
X147572755Y-107315110D01*
X147695965Y-107264200D01*
X149237016Y-107264200D01*
X149270884Y-107298068D01*
X149321360Y-107420228D01*
X149499832Y-107599013D01*
X149622953Y-107650137D01*
X151097906Y-109125089D01*
X151097908Y-109125092D01*
X151197261Y-109191477D01*
X151287437Y-109251731D01*
X151511000Y-109296201D01*
X151511005Y-109296200D01*
X163449000Y-109296200D01*
X163672564Y-109251730D01*
X163862092Y-109125092D01*
X164702068Y-108285116D01*
X164824228Y-108234640D01*
X165003013Y-108056168D01*
X165099889Y-107822863D01*
X165100110Y-107570245D01*
X165003640Y-107336772D01*
X164825168Y-107157987D01*
X164591863Y-107061111D01*
X164339245Y-107060890D01*
X164105772Y-107157360D01*
X163926987Y-107335832D01*
X163875863Y-107458953D01*
X163207016Y-108127800D01*
X151752983Y-108127800D01*
X150449116Y-106823932D01*
X150398640Y-106701772D01*
X150220168Y-106522987D01*
X150097047Y-106471863D01*
X149892092Y-106266908D01*
X149799990Y-106205368D01*
X149702564Y-106140270D01*
X149479000Y-106095800D01*
X147695937Y-106095800D01*
X147573863Y-106045111D01*
X147321245Y-106044890D01*
X147087772Y-106141360D01*
X146908987Y-106319832D01*
X146812111Y-106553137D01*
X146811890Y-106805755D01*
X146117981Y-106805755D01*
X146980336Y-105943400D01*
X149945664Y-105943400D01*
X151350631Y-107348368D01*
X151440822Y-107408632D01*
X151482477Y-107436465D01*
X151638000Y-107467400D01*
X157490900Y-107467400D01*
X157576360Y-107674228D01*
X157754832Y-107853013D01*
X157988137Y-107949889D01*
X158240755Y-107950110D01*
X158474228Y-107853640D01*
X158559492Y-107768525D01*
X158643832Y-107853013D01*
X158877137Y-107949889D01*
X159129755Y-107950110D01*
X159363228Y-107853640D01*
X159384881Y-107832025D01*
X159405832Y-107853013D01*
X159639137Y-107949889D01*
X159891755Y-107950110D01*
X160125228Y-107853640D01*
X160146881Y-107832025D01*
X160167832Y-107853013D01*
X160401137Y-107949889D01*
X160653755Y-107950110D01*
X160887228Y-107853640D01*
X161066013Y-107675168D01*
X161162889Y-107441863D01*
X161163110Y-107189245D01*
X161066640Y-106955772D01*
X160906901Y-106795753D01*
X160903465Y-106778477D01*
X160836833Y-106678755D01*
X172211890Y-106678755D01*
X172308360Y-106912228D01*
X172486832Y-107091013D01*
X172720137Y-107187889D01*
X172972755Y-107188110D01*
X173206228Y-107091640D01*
X173385013Y-106913168D01*
X173481889Y-106679863D01*
X173482110Y-106427245D01*
X173385640Y-106193772D01*
X173207168Y-106014987D01*
X172973863Y-105918111D01*
X172721245Y-105917890D01*
X172487772Y-106014360D01*
X172308987Y-106192832D01*
X172212111Y-106426137D01*
X172211890Y-106678755D01*
X160836833Y-106678755D01*
X160815368Y-106646632D01*
X159799368Y-105630632D01*
X159735794Y-105588153D01*
X159667523Y-105542535D01*
X159512000Y-105511600D01*
X152568337Y-105511600D01*
X151163368Y-104106632D01*
X151031523Y-104018535D01*
X150997438Y-104011755D01*
X154939890Y-104011755D01*
X155036360Y-104245228D01*
X155214832Y-104424013D01*
X155448137Y-104520889D01*
X155700755Y-104521110D01*
X155934228Y-104424640D01*
X156066700Y-104292400D01*
X156506356Y-104292400D01*
X156464111Y-104394137D01*
X156463890Y-104646755D01*
X156560360Y-104880228D01*
X156738832Y-105059013D01*
X156972137Y-105155889D01*
X157224755Y-105156110D01*
X157458228Y-105059640D01*
X157590700Y-104927400D01*
X158242000Y-104927400D01*
X158397523Y-104896465D01*
X158529368Y-104808368D01*
X158791336Y-104546400D01*
X165227000Y-104546400D01*
X165382523Y-104515465D01*
X165514368Y-104427368D01*
X165649336Y-104292400D01*
X166455664Y-104292400D01*
X167733632Y-105570368D01*
X167865477Y-105658465D01*
X168021000Y-105689400D01*
X173478546Y-105689400D01*
X173407812Y-106045000D01*
X173498685Y-106501847D01*
X173757468Y-106889144D01*
X174144765Y-107147927D01*
X174601612Y-107238800D01*
X174648388Y-107238800D01*
X175105235Y-107147927D01*
X175492532Y-106889144D01*
X175751315Y-106501847D01*
X175770523Y-106405280D01*
X176026863Y-106405280D01*
X176105446Y-106595038D01*
X176396590Y-106958643D01*
X176804718Y-107183154D01*
X176987200Y-107142952D01*
X176987200Y-106222800D01*
X177342800Y-106222800D01*
X177342800Y-107142952D01*
X177525282Y-107183154D01*
X177933410Y-106958643D01*
X178224554Y-106595038D01*
X178303137Y-106405280D01*
X178261934Y-106222800D01*
X177342800Y-106222800D01*
X176987200Y-106222800D01*
X176987200Y-106222800D01*
X176068066Y-106222800D01*
X176026863Y-106405280D01*
X175770523Y-106405280D01*
X175842188Y-106045000D01*
X175770524Y-105684720D01*
X176026863Y-105684720D01*
X176068066Y-105867200D01*
X176987200Y-105867200D01*
X176987200Y-104947048D01*
X177342800Y-104947048D01*
X177342800Y-105867200D01*
X178261934Y-105867200D01*
X178303137Y-105684720D01*
X178224554Y-105494962D01*
X177933410Y-105131357D01*
X177525282Y-104906846D01*
X177342800Y-104947048D01*
X176987200Y-104947048D01*
X176987200Y-104947048D01*
X176804718Y-104906846D01*
X176396590Y-105131357D01*
X176105446Y-105494962D01*
X176026863Y-105684720D01*
X175770524Y-105684720D01*
X175751315Y-105588153D01*
X175492532Y-105200856D01*
X175416320Y-105149933D01*
X175547368Y-105062368D01*
X176182368Y-104427368D01*
X176184610Y-104424013D01*
X176266052Y-104302127D01*
X176297468Y-104349144D01*
X176684765Y-104607927D01*
X177141612Y-104698800D01*
X177188388Y-104698800D01*
X177645235Y-104607927D01*
X178032532Y-104349144D01*
X178291315Y-103961847D01*
X178382188Y-103505000D01*
X178291315Y-103048153D01*
X178032532Y-102660856D01*
X177645235Y-102402073D01*
X177188388Y-102311200D01*
X177141612Y-102311200D01*
X176684765Y-102402073D01*
X176301400Y-102658229D01*
X176301400Y-102235000D01*
X176270465Y-102079477D01*
X176182368Y-101947632D01*
X175713371Y-101478635D01*
X175751315Y-101421847D01*
X175842188Y-100965000D01*
X175947812Y-100965000D01*
X176038685Y-101421847D01*
X176297468Y-101809144D01*
X176684765Y-102067927D01*
X177141612Y-102158800D01*
X177188388Y-102158800D01*
X177645235Y-102067927D01*
X178032532Y-101809144D01*
X178291315Y-101421847D01*
X178382188Y-100965000D01*
X178291315Y-100508153D01*
X178032532Y-100120856D01*
X177645235Y-99862073D01*
X177188388Y-99771200D01*
X177141612Y-99771200D01*
X176684765Y-99862073D01*
X176297468Y-100120856D01*
X176038685Y-100508153D01*
X175947812Y-100965000D01*
X175842188Y-100965000D01*
X175842188Y-100965000D01*
X175751315Y-100508153D01*
X175492532Y-100120856D01*
X175105235Y-99862073D01*
X174648388Y-99771200D01*
X174601612Y-99771200D01*
X174144765Y-99862073D01*
X173761400Y-100118229D01*
X173761400Y-99863336D01*
X174116017Y-99508719D01*
X174144765Y-99527927D01*
X174601612Y-99618800D01*
X174648388Y-99618800D01*
X175105235Y-99527927D01*
X175492532Y-99269144D01*
X175751315Y-98881847D01*
X175842188Y-98425000D01*
X175947812Y-98425000D01*
X176038685Y-98881847D01*
X176297468Y-99269144D01*
X176684765Y-99527927D01*
X177141612Y-99618800D01*
X177188388Y-99618800D01*
X177645235Y-99527927D01*
X178032532Y-99269144D01*
X178291315Y-98881847D01*
X178382188Y-98425000D01*
X178291315Y-97968153D01*
X178032532Y-97580856D01*
X177645235Y-97322073D01*
X177188388Y-97231200D01*
X177141612Y-97231200D01*
X176684765Y-97322073D01*
X176297468Y-97580856D01*
X176038685Y-97968153D01*
X175947812Y-98425000D01*
X175842188Y-98425000D01*
X175842188Y-98425000D01*
X175751315Y-97968153D01*
X175492532Y-97580856D01*
X175105235Y-97322073D01*
X174648388Y-97231200D01*
X174601612Y-97231200D01*
X174144765Y-97322073D01*
X173761400Y-97578229D01*
X173761400Y-97323336D01*
X173999467Y-97085269D01*
X175488600Y-97085269D01*
X175614504Y-97060841D01*
X175725162Y-96988150D01*
X175799236Y-96878413D01*
X175825269Y-96748600D01*
X175825269Y-96245280D01*
X176026863Y-96245280D01*
X176105446Y-96435038D01*
X176396590Y-96798643D01*
X176804718Y-97023154D01*
X176987200Y-96982952D01*
X176987200Y-96062800D01*
X177342800Y-96062800D01*
X177342800Y-96982952D01*
X177525282Y-97023154D01*
X177933410Y-96798643D01*
X178224554Y-96435038D01*
X178303137Y-96245280D01*
X178261934Y-96062800D01*
X177342800Y-96062800D01*
X176987200Y-96062800D01*
X176987200Y-96062800D01*
X176068066Y-96062800D01*
X176026863Y-96245280D01*
X175825269Y-96245280D01*
X175825269Y-95524720D01*
X176026863Y-95524720D01*
X176068066Y-95707200D01*
X176987200Y-95707200D01*
X176987200Y-94787048D01*
X177342800Y-94787048D01*
X177342800Y-95707200D01*
X178261934Y-95707200D01*
X178303137Y-95524720D01*
X178224554Y-95334962D01*
X177933410Y-94971357D01*
X177525282Y-94746846D01*
X177342800Y-94787048D01*
X176987200Y-94787048D01*
X176987200Y-94787048D01*
X176804718Y-94746846D01*
X176396590Y-94971357D01*
X176105446Y-95334962D01*
X176026863Y-95524720D01*
X175825269Y-95524720D01*
X175825269Y-95021400D01*
X175800841Y-94895496D01*
X175728150Y-94784838D01*
X175618413Y-94710764D01*
X175488600Y-94684731D01*
X173761400Y-94684731D01*
X173635496Y-94709159D01*
X173524838Y-94781850D01*
X173450764Y-94891587D01*
X173424731Y-95021400D01*
X173424731Y-96510533D01*
X173067632Y-96867632D01*
X172979535Y-96999477D01*
X172948600Y-97155000D01*
X172948600Y-98891664D01*
X172686632Y-99153632D01*
X172598535Y-99285477D01*
X172567600Y-99441000D01*
X172567600Y-103463663D01*
X172297664Y-103733600D01*
X168951336Y-103733600D01*
X167673368Y-102455632D01*
X167593212Y-102402073D01*
X167541523Y-102367535D01*
X167386000Y-102336600D01*
X164719000Y-102336600D01*
X164563477Y-102367535D01*
X164431632Y-102455632D01*
X164296664Y-102590600D01*
X158664336Y-102590600D01*
X158402368Y-102328632D01*
X158376279Y-102311200D01*
X158270523Y-102240535D01*
X158115000Y-102209600D01*
X156972000Y-102209600D01*
X156816477Y-102240535D01*
X156710721Y-102311200D01*
X156684632Y-102328632D01*
X156397211Y-102616053D01*
X156211245Y-102615890D01*
X155977772Y-102712360D01*
X155798987Y-102890832D01*
X155702111Y-103124137D01*
X155702000Y-103251168D01*
X155701863Y-103251111D01*
X155449245Y-103250890D01*
X155215772Y-103347360D01*
X155036987Y-103525832D01*
X154940111Y-103759137D01*
X154939890Y-104011755D01*
X150997438Y-104011755D01*
X150876000Y-103987600D01*
X146050000Y-103987600D01*
X145894477Y-104018535D01*
X145762632Y-104106632D01*
X141825632Y-108043632D01*
X141737535Y-108175477D01*
X141706600Y-108331000D01*
X141706600Y-116459000D01*
X141737535Y-116614523D01*
X141781040Y-116679632D01*
X141825632Y-116746368D01*
X143349631Y-118270368D01*
X143439822Y-118330632D01*
X143481477Y-118358465D01*
X143637000Y-118389400D01*
X145627664Y-118389400D01*
X147977249Y-120738985D01*
X147904200Y-121106226D01*
X147904200Y-121463774D01*
X147995073Y-121920621D01*
X148253856Y-122307918D01*
X148623641Y-122555000D01*
X148253856Y-122802082D01*
X147995073Y-123189379D01*
X147904200Y-123646226D01*
X147904200Y-124003774D01*
X147995073Y-124460621D01*
X148253856Y-124847918D01*
X148513800Y-125021607D01*
X148513800Y-125145800D01*
X146818284Y-125145800D01*
X147014847Y-125106701D01*
X147402144Y-124847918D01*
X147660927Y-124460621D01*
X147751800Y-124003774D01*
X147751800Y-123646226D01*
X147660927Y-123189379D01*
X147402144Y-122802082D01*
X147032359Y-122555000D01*
X147402144Y-122307918D01*
X147660927Y-121920621D01*
X147751800Y-121463774D01*
X147751800Y-121106226D01*
X147660927Y-120649379D01*
X147402144Y-120262082D01*
X147014847Y-120003299D01*
X146558000Y-119912426D01*
X146101153Y-120003299D01*
X145951218Y-120103482D01*
X144940368Y-119092632D01*
X144808523Y-119004535D01*
X144653000Y-118973600D01*
X141265336Y-118973600D01*
X140741400Y-118449664D01*
X140741400Y-105070336D01*
X141900336Y-103911400D01*
X145034000Y-103911400D01*
X145189523Y-103880465D01*
X145321368Y-103792368D01*
X147361336Y-101752400D01*
X161935900Y-101752400D01*
X162021360Y-101959228D01*
X162199832Y-102138013D01*
X162433137Y-102234889D01*
X162685755Y-102235110D01*
X162919228Y-102138640D01*
X163098013Y-101960168D01*
X163168614Y-101790141D01*
X163322137Y-101853889D01*
X163574755Y-101854110D01*
X163808228Y-101757640D01*
X163893492Y-101672525D01*
X163977832Y-101757013D01*
X164211137Y-101853889D01*
X164463755Y-101854110D01*
X164697228Y-101757640D01*
X164782492Y-101672525D01*
X164866832Y-101757013D01*
X165100137Y-101853889D01*
X165352755Y-101854110D01*
X165586228Y-101757640D01*
X165765013Y-101579168D01*
X165861889Y-101345863D01*
X165862110Y-101093245D01*
X165765640Y-100859772D01*
X165587168Y-100680987D01*
X165353863Y-100584111D01*
X165166683Y-100583947D01*
X164879368Y-100296632D01*
X164747523Y-100208535D01*
X164592000Y-100177600D01*
X164252336Y-100177600D01*
X163990368Y-99915632D01*
X163910212Y-99862073D01*
X163858523Y-99827535D01*
X163703000Y-99796600D01*
X146304000Y-99796600D01*
X146148477Y-99827535D01*
X146016632Y-99915632D01*
X143976664Y-101955600D01*
X140970000Y-101955600D01*
X140814477Y-101986535D01*
X140682632Y-102074632D01*
X138523632Y-104233632D01*
X138435535Y-104365477D01*
X138404600Y-104521000D01*
X138404600Y-105825864D01*
X138302947Y-105724211D01*
X138303110Y-105538245D01*
X138206640Y-105304772D01*
X138028168Y-105125987D01*
X137794863Y-105029111D01*
X137542245Y-105028890D01*
X137308772Y-105125360D01*
X137129987Y-105303832D01*
X137033111Y-105537137D01*
X137032890Y-105789755D01*
X137129360Y-106023228D01*
X137307832Y-106202013D01*
X137541137Y-106298889D01*
X137728317Y-106299053D01*
X137896600Y-106467336D01*
X137896600Y-119592664D01*
X137380632Y-120108632D01*
X137292535Y-120240477D01*
X137261600Y-120396000D01*
X137261600Y-122047000D01*
X137292535Y-122202523D01*
X137380632Y-122334368D01*
X137888631Y-122842368D01*
X138011902Y-122924735D01*
X137835073Y-123189379D01*
X137744200Y-123646226D01*
X137744200Y-124003774D01*
X137835073Y-124460621D01*
X138093856Y-124847918D01*
X138481153Y-125106701D01*
X138677716Y-125145800D01*
X129108200Y-125145800D01*
X129108200Y-119380000D01*
X129063730Y-119156436D01*
X128937092Y-118966908D01*
X128747564Y-118840270D01*
X128524000Y-118795800D01*
X127248937Y-118795800D01*
X127126863Y-118745111D01*
X126874245Y-118744890D01*
X126640772Y-118841360D01*
X126461987Y-119019832D01*
X126365111Y-119253137D01*
X126364890Y-119505755D01*
X126461360Y-119739228D01*
X126639832Y-119918013D01*
X126873137Y-120014889D01*
X127125755Y-120015110D01*
X127248965Y-119964200D01*
X127939800Y-119964200D01*
X127939800Y-125730000D01*
X127984270Y-125953564D01*
X127988437Y-125959800D01*
X125987149Y-125959800D01*
X126304331Y-125828743D01*
X126969408Y-125164826D01*
X127329789Y-124296932D01*
X127330609Y-123357191D01*
X126971743Y-122488669D01*
X126307826Y-121823592D01*
X125439932Y-121463211D01*
X124500191Y-121462391D01*
X123631669Y-121821257D01*
X122966592Y-122485174D01*
X122606211Y-123353068D01*
X122605391Y-124292809D01*
X122964257Y-125161331D01*
X123628174Y-125826408D01*
X123949418Y-125959800D01*
X111403200Y-125959800D01*
X111403200Y-123303008D01*
X115659488Y-123303008D01*
X115708213Y-123829946D01*
X115816124Y-124090466D01*
X115990846Y-124210107D01*
X116092456Y-124108497D01*
X116240846Y-124210107D01*
X116342456Y-124108497D01*
X116490844Y-124210106D01*
X116424710Y-124276240D01*
X116426159Y-124277689D01*
X116242293Y-124461554D01*
X116361934Y-124636276D01*
X116867408Y-124792912D01*
X117059953Y-124775108D01*
X117117408Y-124792912D01*
X117309953Y-124775108D01*
X117367408Y-124792912D01*
X117559953Y-124775108D01*
X117617408Y-124792912D01*
X117809953Y-124775108D01*
X117867408Y-124792912D01*
X118059953Y-124775108D01*
X118117408Y-124792912D01*
X118309953Y-124775108D01*
X118367408Y-124792912D01*
X118559953Y-124775108D01*
X118617408Y-124792912D01*
X118809953Y-124775108D01*
X118867408Y-124792912D01*
X119394346Y-124744187D01*
X119654866Y-124636276D01*
X119774507Y-124461554D01*
X119590642Y-124277689D01*
X119592090Y-124276240D01*
X119525956Y-124210106D01*
X119674344Y-124108497D01*
X119775954Y-124210107D01*
X119924344Y-124108497D01*
X120025954Y-124210107D01*
X120200676Y-124090466D01*
X120357312Y-123584992D01*
X120308587Y-123058054D01*
X120200676Y-122797534D01*
X120025954Y-122677893D01*
X119924344Y-122779503D01*
X119775954Y-122677893D01*
X119674344Y-122779503D01*
X119525956Y-122677894D01*
X119592090Y-122611760D01*
X119590642Y-122610312D01*
X119774507Y-122426446D01*
X119654866Y-122251724D01*
X119522804Y-122210801D01*
X119732828Y-122021381D01*
X119908502Y-121649297D01*
X119867658Y-121462800D01*
X118541800Y-121462800D01*
X118541800Y-121482800D01*
X118186200Y-121482800D01*
X118186200Y-121462800D01*
X116860342Y-121462800D01*
X116819498Y-121649297D01*
X116995172Y-122021381D01*
X117083638Y-122101168D01*
X116622454Y-122143813D01*
X116361934Y-122251724D01*
X116242293Y-122426446D01*
X116426159Y-122610312D01*
X116424710Y-122611760D01*
X116490844Y-122677894D01*
X116342456Y-122779503D01*
X116240846Y-122677893D01*
X116092456Y-122779503D01*
X115990846Y-122677893D01*
X115816124Y-122797534D01*
X115659488Y-123303008D01*
X111403200Y-123303008D01*
X111403200Y-117604008D01*
X113659748Y-117604008D01*
X113677552Y-117796553D01*
X113659748Y-117854008D01*
X113677552Y-118046553D01*
X113659748Y-118104008D01*
X113677552Y-118296553D01*
X113659748Y-118354008D01*
X113677552Y-118546553D01*
X113659748Y-118604008D01*
X113677552Y-118796553D01*
X113659748Y-118854008D01*
X113677552Y-119046553D01*
X113659748Y-119104008D01*
X113677552Y-119296553D01*
X113659748Y-119354008D01*
X113677552Y-119546553D01*
X113659748Y-119604008D01*
X113708473Y-120130946D01*
X113816384Y-120391466D01*
X113991106Y-120511107D01*
X114174972Y-120327242D01*
X114176420Y-120328690D01*
X114242554Y-120262556D01*
X114344163Y-120410944D01*
X114242553Y-120512554D01*
X114344163Y-120660944D01*
X114242553Y-120762554D01*
X114362194Y-120937276D01*
X114867668Y-121093912D01*
X115394606Y-121045187D01*
X115655126Y-120937276D01*
X115666474Y-120920703D01*
X116819498Y-120920703D01*
X116860342Y-121107200D01*
X118186200Y-121107200D01*
X118186200Y-120065800D01*
X118541800Y-120065800D01*
X118541800Y-121107200D01*
X119867658Y-121107200D01*
X119908502Y-120920703D01*
X119732828Y-120548619D01*
X119375833Y-120226647D01*
X118922800Y-120065800D01*
X118541800Y-120065800D01*
X118186200Y-120065800D01*
X118186200Y-120065800D01*
X117805200Y-120065800D01*
X117352167Y-120226647D01*
X116995172Y-120548619D01*
X116819498Y-120920703D01*
X115666474Y-120920703D01*
X115774767Y-120762554D01*
X115673157Y-120660944D01*
X115774767Y-120512554D01*
X115673157Y-120410944D01*
X115774766Y-120262556D01*
X115840900Y-120328690D01*
X115842349Y-120327242D01*
X116026214Y-120511107D01*
X116200936Y-120391466D01*
X116357572Y-119885992D01*
X116339768Y-119693447D01*
X116357572Y-119635992D01*
X116339768Y-119443447D01*
X116357572Y-119385992D01*
X116339768Y-119193447D01*
X116357572Y-119135992D01*
X116339768Y-118943447D01*
X116357572Y-118885992D01*
X116339768Y-118693447D01*
X116357572Y-118635992D01*
X116339768Y-118443447D01*
X116357572Y-118385992D01*
X116339768Y-118193447D01*
X116357572Y-118135992D01*
X116339768Y-117943447D01*
X116357572Y-117885992D01*
X116354799Y-117856000D01*
X116757331Y-117856000D01*
X116757331Y-119634000D01*
X116781759Y-119759904D01*
X116854450Y-119870562D01*
X116964187Y-119944636D01*
X117094000Y-119970669D01*
X119634000Y-119970669D01*
X119677750Y-119962181D01*
X119677710Y-120008432D01*
X119879794Y-120497513D01*
X120253659Y-120872031D01*
X120742386Y-121074968D01*
X121271572Y-121075430D01*
X121760653Y-120873346D01*
X122135171Y-120499481D01*
X122338108Y-120010754D01*
X122338570Y-119481568D01*
X122338352Y-119481041D01*
X122338570Y-119231568D01*
X122338352Y-119231041D01*
X122338570Y-118981568D01*
X122338352Y-118981041D01*
X122338570Y-118731568D01*
X122338352Y-118731041D01*
X122338570Y-118481568D01*
X122338352Y-118481041D01*
X122338570Y-118231568D01*
X122338352Y-118231041D01*
X122338570Y-117981568D01*
X122338352Y-117981041D01*
X122338570Y-117731568D01*
X122338352Y-117731041D01*
X122338570Y-117481568D01*
X122136486Y-116992487D01*
X121762621Y-116617969D01*
X121273894Y-116415032D01*
X120744708Y-116414570D01*
X120255627Y-116616654D01*
X119881109Y-116990519D01*
X119678172Y-117479246D01*
X119678129Y-117528181D01*
X119634000Y-117519331D01*
X117094000Y-117519331D01*
X116968096Y-117543759D01*
X116857438Y-117616450D01*
X116783364Y-117726187D01*
X116757331Y-117856000D01*
X116354799Y-117856000D01*
X116308847Y-117359054D01*
X116200936Y-117098534D01*
X116026214Y-116978893D01*
X115842349Y-117162759D01*
X115840900Y-117161310D01*
X115774766Y-117227444D01*
X115673157Y-117079056D01*
X115774767Y-116977446D01*
X115673157Y-116829056D01*
X115774767Y-116727446D01*
X115655126Y-116552724D01*
X115149652Y-116396088D01*
X114622714Y-116444813D01*
X114362194Y-116552724D01*
X114242553Y-116727446D01*
X114344163Y-116829056D01*
X114242553Y-116977446D01*
X114344163Y-117079056D01*
X114242554Y-117227444D01*
X114176420Y-117161310D01*
X114174972Y-117162759D01*
X113991106Y-116978893D01*
X113816384Y-117098534D01*
X113659748Y-117604008D01*
X111403200Y-117604008D01*
X111403200Y-108964755D01*
X112648890Y-108964755D01*
X112745360Y-109198228D01*
X112923832Y-109377013D01*
X113157137Y-109473889D01*
X113344316Y-109474053D01*
X113504631Y-109634368D01*
X113612177Y-109706228D01*
X113636477Y-109722465D01*
X113792000Y-109753400D01*
X122317449Y-109753400D01*
X122448832Y-109885013D01*
X122682137Y-109981889D01*
X122934755Y-109982110D01*
X123168228Y-109885640D01*
X123347013Y-109707168D01*
X123443889Y-109473863D01*
X123444110Y-109221245D01*
X123347640Y-108987772D01*
X123169168Y-108808987D01*
X122935863Y-108712111D01*
X122683245Y-108711890D01*
X122449772Y-108808360D01*
X122317300Y-108940600D01*
X113960337Y-108940600D01*
X113918947Y-108899211D01*
X113919110Y-108713245D01*
X113822640Y-108479772D01*
X113644168Y-108300987D01*
X113410863Y-108204111D01*
X113158245Y-108203890D01*
X112924772Y-108300360D01*
X112745987Y-108478832D01*
X112649111Y-108712137D01*
X112648890Y-108964755D01*
X111403200Y-108964755D01*
X111403200Y-105791000D01*
X128828800Y-105791000D01*
X128828800Y-105918000D01*
X128873270Y-106141564D01*
X128999908Y-106331092D01*
X129189436Y-106457730D01*
X129413000Y-106502200D01*
X129636564Y-106457730D01*
X129826092Y-106331092D01*
X129952730Y-106141564D01*
X129997200Y-105918000D01*
X129997200Y-105791000D01*
X129952730Y-105567436D01*
X129826092Y-105377908D01*
X129636564Y-105251270D01*
X129413000Y-105206800D01*
X129189436Y-105251270D01*
X128999908Y-105377908D01*
X128873270Y-105567436D01*
X128828800Y-105791000D01*
X111403200Y-105791000D01*
X111403200Y-98550755D01*
X124332890Y-98550755D01*
X124429360Y-98784228D01*
X124607832Y-98963013D01*
X124841137Y-99059889D01*
X125028317Y-99060053D01*
X125569632Y-99601368D01*
X125701477Y-99689465D01*
X125857000Y-99720400D01*
X127085664Y-99720400D01*
X127863600Y-100498336D01*
X127863600Y-102235000D01*
X127894535Y-102390523D01*
X127941278Y-102460478D01*
X127982632Y-102522368D01*
X128744632Y-103284368D01*
X128876477Y-103372465D01*
X129032000Y-103403400D01*
X133816664Y-103403400D01*
X134586632Y-104173368D01*
X134718477Y-104261465D01*
X134874000Y-104292400D01*
X135398449Y-104292400D01*
X135529832Y-104424013D01*
X135763137Y-104520889D01*
X136015755Y-104521110D01*
X136249228Y-104424640D01*
X136428013Y-104246168D01*
X136524889Y-104012863D01*
X136525110Y-103760245D01*
X136482615Y-103657400D01*
X138684000Y-103657400D01*
X138839523Y-103626465D01*
X138971368Y-103538368D01*
X140757336Y-101752400D01*
X142875000Y-101752400D01*
X143030523Y-101721465D01*
X143162368Y-101633368D01*
X144084789Y-100710947D01*
X144270755Y-100711110D01*
X144504228Y-100614640D01*
X144683013Y-100436168D01*
X144779889Y-100202863D01*
X144780110Y-99950245D01*
X144683640Y-99716772D01*
X144505168Y-99537987D01*
X144271863Y-99441111D01*
X144019245Y-99440890D01*
X143785772Y-99537360D01*
X143606987Y-99715832D01*
X143510111Y-99949137D01*
X143509947Y-100136317D01*
X142706664Y-100939600D01*
X140589000Y-100939600D01*
X140433477Y-100970535D01*
X140301632Y-101058632D01*
X138515664Y-102844600D01*
X135619551Y-102844600D01*
X135488168Y-102712987D01*
X135254863Y-102616111D01*
X135002245Y-102615890D01*
X134768772Y-102712360D01*
X134589987Y-102890832D01*
X134549961Y-102987225D01*
X134272368Y-102709632D01*
X134199370Y-102660856D01*
X134140523Y-102621535D01*
X133985000Y-102590600D01*
X129200336Y-102590600D01*
X128676400Y-102066664D01*
X128676400Y-100330000D01*
X128645465Y-100174477D01*
X128557368Y-100042632D01*
X127541368Y-99026632D01*
X127409523Y-98938535D01*
X127254000Y-98907600D01*
X126025336Y-98907600D01*
X125602947Y-98485211D01*
X125603110Y-98299245D01*
X125506640Y-98065772D01*
X125328168Y-97886987D01*
X125094863Y-97790111D01*
X124842245Y-97789890D01*
X124608772Y-97886360D01*
X124429987Y-98064832D01*
X124333111Y-98298137D01*
X124332890Y-98550755D01*
X111403200Y-98550755D01*
X111403200Y-96391755D01*
X130428890Y-96391755D01*
X130525360Y-96625228D01*
X130703832Y-96804013D01*
X130937137Y-96900889D01*
X131189755Y-96901110D01*
X131423228Y-96804640D01*
X131555700Y-96672400D01*
X133892863Y-96672400D01*
X131784664Y-98780600D01*
X131555551Y-98780600D01*
X131424168Y-98648987D01*
X131190863Y-98552111D01*
X130938245Y-98551890D01*
X130704772Y-98648360D01*
X130525987Y-98826832D01*
X130429111Y-99060137D01*
X130428890Y-99312755D01*
X130525360Y-99546228D01*
X130703832Y-99725013D01*
X130937000Y-99821832D01*
X130936890Y-99947755D01*
X131033360Y-100181228D01*
X131211832Y-100360013D01*
X131445000Y-100456832D01*
X131444890Y-100582755D01*
X131541360Y-100816228D01*
X131719832Y-100995013D01*
X131953000Y-101091832D01*
X131952890Y-101217755D01*
X132049360Y-101451228D01*
X132227832Y-101630013D01*
X132461137Y-101726889D01*
X132713755Y-101727110D01*
X132947228Y-101630640D01*
X133126013Y-101452168D01*
X133222889Y-101218863D01*
X133223110Y-100966245D01*
X133126640Y-100732772D01*
X133121400Y-100727523D01*
X133121400Y-100498336D01*
X135423337Y-98196400D01*
X137956864Y-98196400D01*
X136991664Y-99161600D01*
X136889551Y-99161600D01*
X136758168Y-99029987D01*
X136524863Y-98933111D01*
X136272245Y-98932890D01*
X136038772Y-99029360D01*
X135859987Y-99207832D01*
X135763111Y-99441137D01*
X135762890Y-99693755D01*
X135859360Y-99927228D01*
X136037832Y-100106013D01*
X136271000Y-100202832D01*
X136270890Y-100328755D01*
X136367360Y-100562228D01*
X136545832Y-100741013D01*
X136779000Y-100837832D01*
X136778890Y-100963755D01*
X136875360Y-101197228D01*
X137053832Y-101376013D01*
X137287000Y-101472832D01*
X137286890Y-101598755D01*
X137383360Y-101832228D01*
X137561832Y-102011013D01*
X137795137Y-102107889D01*
X138047755Y-102108110D01*
X138281228Y-102011640D01*
X138460013Y-101833168D01*
X138556889Y-101599863D01*
X138557110Y-101347245D01*
X138460640Y-101113772D01*
X138455400Y-101108523D01*
X138455400Y-100752336D01*
X139487336Y-99720400D01*
X140716000Y-99720400D01*
X140871523Y-99689465D01*
X141003368Y-99601368D01*
X141265336Y-99339400D01*
X163661664Y-99339400D01*
X163796632Y-99474368D01*
X163928477Y-99562465D01*
X164084000Y-99593400D01*
X164550664Y-99593400D01*
X164685632Y-99728368D01*
X164817477Y-99816465D01*
X164973000Y-99847400D01*
X165370449Y-99847400D01*
X165501832Y-99979013D01*
X165735137Y-100075889D01*
X165987755Y-100076110D01*
X166221228Y-99979640D01*
X166400013Y-99801168D01*
X166496889Y-99567863D01*
X166497110Y-99315245D01*
X166400640Y-99081772D01*
X166222168Y-98902987D01*
X165988863Y-98806111D01*
X165862000Y-98806000D01*
X165862110Y-98680245D01*
X165765640Y-98446772D01*
X165587168Y-98267987D01*
X165353863Y-98171111D01*
X165227000Y-98171000D01*
X165227110Y-98045245D01*
X165130640Y-97811772D01*
X164952168Y-97632987D01*
X164718863Y-97536111D01*
X164592000Y-97536000D01*
X164592110Y-97410245D01*
X164495640Y-97176772D01*
X164317168Y-96997987D01*
X164083863Y-96901111D01*
X163957000Y-96901000D01*
X164082755Y-96901110D01*
X164316228Y-96804640D01*
X164495013Y-96626168D01*
X164591889Y-96392863D01*
X164592000Y-96266000D01*
X164717755Y-96266110D01*
X164951228Y-96169640D01*
X165130013Y-95991168D01*
X165226889Y-95757863D01*
X165227000Y-95631000D01*
X165352755Y-95631110D01*
X165586228Y-95534640D01*
X165765013Y-95356168D01*
X165861889Y-95122863D01*
X165862110Y-94870245D01*
X165765640Y-94636772D01*
X165587168Y-94457987D01*
X165353863Y-94361111D01*
X165101245Y-94360890D01*
X164867772Y-94457360D01*
X164735300Y-94589600D01*
X164338000Y-94589600D01*
X164182477Y-94620535D01*
X164050632Y-94708632D01*
X163915664Y-94843600D01*
X163576000Y-94843600D01*
X163420477Y-94874535D01*
X163288632Y-94962632D01*
X163153664Y-95097600D01*
X162560000Y-95097600D01*
X162404477Y-95128535D01*
X162272632Y-95216632D01*
X161629664Y-95859600D01*
X161501644Y-95859600D01*
X161543889Y-95757863D01*
X161544110Y-95505245D01*
X161447640Y-95271772D01*
X161269168Y-95092987D01*
X161035863Y-94996111D01*
X160783245Y-94995890D01*
X160549772Y-95092360D01*
X160370987Y-95270832D01*
X160284715Y-95478600D01*
X139065000Y-95478600D01*
X138931045Y-95505245D01*
X138909477Y-95509535D01*
X138777632Y-95597632D01*
X138515664Y-95859600D01*
X131555551Y-95859600D01*
X131424168Y-95727987D01*
X131190863Y-95631111D01*
X130938245Y-95630890D01*
X130704772Y-95727360D01*
X130525987Y-95905832D01*
X130429111Y-96139137D01*
X130428890Y-96391755D01*
X111403200Y-96391755D01*
X111403200Y-95580200D01*
X113592933Y-95580200D01*
X113627246Y-95594448D01*
X114156432Y-95594910D01*
X114156896Y-95594718D01*
X114376432Y-95594910D01*
X114376896Y-95594718D01*
X114596432Y-95594910D01*
X114596896Y-95594718D01*
X114816432Y-95594910D01*
X114816896Y-95594718D01*
X115036432Y-95594910D01*
X115036896Y-95594718D01*
X115256432Y-95594910D01*
X115256896Y-95594718D01*
X115476432Y-95594910D01*
X115965513Y-95392826D01*
X116340031Y-95018961D01*
X116542968Y-94530234D01*
X116543430Y-94001048D01*
X116534219Y-93978755D01*
X135889890Y-93978755D01*
X135986360Y-94212228D01*
X136164832Y-94391013D01*
X136398137Y-94487889D01*
X136525405Y-94488000D01*
X136621360Y-94720228D01*
X136799832Y-94899013D01*
X137033137Y-94995889D01*
X137160405Y-94996000D01*
X137256360Y-95228228D01*
X137434832Y-95407013D01*
X137668137Y-95503889D01*
X137920755Y-95504110D01*
X138154228Y-95407640D01*
X138333013Y-95229168D01*
X138429889Y-94995863D01*
X138430110Y-94743245D01*
X138337828Y-94519908D01*
X138471337Y-94386400D01*
X139150664Y-94386400D01*
X139920632Y-95156368D01*
X140052477Y-95244465D01*
X140208000Y-95275400D01*
X148717000Y-95275400D01*
X148730539Y-95272707D01*
X148737832Y-95280013D01*
X148971137Y-95376889D01*
X149223755Y-95377110D01*
X149457228Y-95280640D01*
X149636013Y-95102168D01*
X149687937Y-94977120D01*
X149733137Y-94995889D01*
X149985755Y-94996110D01*
X150219228Y-94899640D01*
X150398013Y-94721168D01*
X150449937Y-94596120D01*
X150495137Y-94614889D01*
X150747755Y-94615110D01*
X150981228Y-94518640D01*
X151160013Y-94340168D01*
X151211937Y-94215120D01*
X151257137Y-94233889D01*
X151509755Y-94234110D01*
X151743228Y-94137640D01*
X151922013Y-93959168D01*
X152018889Y-93725863D01*
X152019110Y-93473245D01*
X151922640Y-93239772D01*
X151744168Y-93060987D01*
X151510863Y-92964111D01*
X151308674Y-92963934D01*
X151270759Y-92938600D01*
X151222023Y-92906035D01*
X151066500Y-92875100D01*
X148653500Y-92875100D01*
X148497977Y-92906035D01*
X148449241Y-92938600D01*
X148366132Y-92994132D01*
X148040664Y-93319600D01*
X141570139Y-93319600D01*
X141181170Y-92930632D01*
X141098061Y-92875100D01*
X141049325Y-92842535D01*
X140893802Y-92811600D01*
X137541000Y-92811600D01*
X137385477Y-92842535D01*
X137336741Y-92875100D01*
X137253632Y-92930632D01*
X136873939Y-93310325D01*
X136651863Y-93218111D01*
X136399245Y-93217890D01*
X136165772Y-93314360D01*
X135986987Y-93492832D01*
X135890111Y-93726137D01*
X135889890Y-93978755D01*
X116534219Y-93978755D01*
X116341346Y-93511967D01*
X115967481Y-93137449D01*
X115773200Y-93056777D01*
X115773200Y-91380345D01*
X115782757Y-91370805D01*
X115905600Y-91074967D01*
X115905880Y-90754638D01*
X115905749Y-90754321D01*
X115905880Y-90604638D01*
X115905749Y-90604321D01*
X115905880Y-90454638D01*
X115874570Y-90378862D01*
X116660605Y-90378862D01*
X116750704Y-90528870D01*
X117169278Y-90645444D01*
X117600601Y-90592963D01*
X117755336Y-90528870D01*
X117845435Y-90378862D01*
X117253020Y-89786447D01*
X116660605Y-90378862D01*
X115874570Y-90378862D01*
X115783554Y-90158587D01*
X115557245Y-89931883D01*
X115261407Y-89809040D01*
X114941078Y-89808760D01*
X114645027Y-89931086D01*
X114609251Y-89966800D01*
X114249200Y-89966800D01*
X114249200Y-89451258D01*
X116142576Y-89451258D01*
X116195057Y-89882581D01*
X116259150Y-90037316D01*
X116409158Y-90127415D01*
X117001573Y-89535000D01*
X117504467Y-89535000D01*
X118096882Y-90127415D01*
X118246890Y-90037316D01*
X118259332Y-89992642D01*
X118325538Y-90152873D01*
X118632511Y-90460382D01*
X119033795Y-90627010D01*
X119468299Y-90627389D01*
X119869873Y-90461462D01*
X120177382Y-90154489D01*
X120344010Y-89753205D01*
X120344312Y-89406755D01*
X130428890Y-89406755D01*
X130525360Y-89640228D01*
X130703832Y-89819013D01*
X130937137Y-89915889D01*
X131189755Y-89916110D01*
X131423228Y-89819640D01*
X131555700Y-89687400D01*
X132080000Y-89687400D01*
X132235523Y-89656465D01*
X132367368Y-89568368D01*
X132502336Y-89433400D01*
X143214664Y-89433400D01*
X145762632Y-91981368D01*
X145894478Y-92069466D01*
X146050000Y-92100400D01*
X147913664Y-92100400D01*
X147985132Y-92171868D01*
X148116977Y-92259965D01*
X148272500Y-92290900D01*
X148907500Y-92290900D01*
X149063023Y-92259965D01*
X149194868Y-92171868D01*
X149418789Y-91947947D01*
X149604755Y-91948110D01*
X149838228Y-91851640D01*
X150017013Y-91673168D01*
X150057039Y-91576775D01*
X150842632Y-92362368D01*
X150974477Y-92450465D01*
X151130000Y-92481400D01*
X159782449Y-92481400D01*
X159913832Y-92613013D01*
X160147137Y-92709889D01*
X160399755Y-92710110D01*
X160633228Y-92613640D01*
X160812013Y-92435168D01*
X160908889Y-92201863D01*
X160909110Y-91949245D01*
X160812640Y-91715772D01*
X160634168Y-91536987D01*
X160400863Y-91440111D01*
X160148245Y-91439890D01*
X159914772Y-91536360D01*
X159782300Y-91668600D01*
X151298336Y-91668600D01*
X150020368Y-90390632D01*
X149996030Y-90374370D01*
X149888523Y-90302535D01*
X149733000Y-90271600D01*
X148336000Y-90271600D01*
X148180477Y-90302535D01*
X148048632Y-90390632D01*
X147913664Y-90525600D01*
X146726336Y-90525600D01*
X145480491Y-89279755D01*
X147954890Y-89279755D01*
X148051360Y-89513228D01*
X148229832Y-89692013D01*
X148463137Y-89788889D01*
X148715755Y-89789110D01*
X148838965Y-89738200D01*
X150380016Y-89738200D01*
X151224908Y-90583092D01*
X151414436Y-90709730D01*
X151638000Y-90754200D01*
X153929063Y-90754200D01*
X154051137Y-90804889D01*
X154303755Y-90805110D01*
X154426965Y-90754200D01*
X168402000Y-90754200D01*
X168625564Y-90709730D01*
X168815092Y-90583092D01*
X168893068Y-90505116D01*
X169015228Y-90454640D01*
X169194013Y-90276168D01*
X169290889Y-90042863D01*
X169291110Y-89790245D01*
X169194640Y-89556772D01*
X169016168Y-89377987D01*
X168782863Y-89281111D01*
X168530245Y-89280890D01*
X168296772Y-89377360D01*
X168117987Y-89555832D01*
X168105543Y-89585800D01*
X154426937Y-89585800D01*
X154304863Y-89535111D01*
X154052245Y-89534890D01*
X153929035Y-89585800D01*
X151879984Y-89585800D01*
X151035092Y-88740908D01*
X151033182Y-88739632D01*
X150845564Y-88614270D01*
X150622000Y-88569800D01*
X148838937Y-88569800D01*
X148716863Y-88519111D01*
X148464245Y-88518890D01*
X148230772Y-88615360D01*
X148051987Y-88793832D01*
X147955111Y-89027137D01*
X147954890Y-89279755D01*
X145480491Y-89279755D01*
X144178368Y-87977632D01*
X144046523Y-87889535D01*
X143891000Y-87858600D01*
X134355100Y-87858600D01*
X134269640Y-87651772D01*
X134091168Y-87472987D01*
X133857863Y-87376111D01*
X133605245Y-87375890D01*
X133371772Y-87472360D01*
X133192987Y-87650832D01*
X133096111Y-87884137D01*
X133095890Y-88136755D01*
X133138385Y-88239600D01*
X132190551Y-88239600D01*
X132059168Y-88107987D01*
X131825863Y-88011111D01*
X131573245Y-88010890D01*
X131339772Y-88107360D01*
X131160987Y-88285832D01*
X131064111Y-88519137D01*
X131064000Y-88646000D01*
X130938245Y-88645890D01*
X130704772Y-88742360D01*
X130525987Y-88920832D01*
X130429111Y-89154137D01*
X130428890Y-89406755D01*
X120344312Y-89406755D01*
X120344389Y-89318701D01*
X120178462Y-88917127D01*
X119871489Y-88609618D01*
X119470205Y-88442990D01*
X119035701Y-88442611D01*
X118634127Y-88608538D01*
X118326618Y-88915511D01*
X118262407Y-89070147D01*
X118246890Y-89032684D01*
X118096882Y-88942585D01*
X117504467Y-89535000D01*
X117001573Y-89535000D01*
X117001573Y-89535000D01*
X116409158Y-88942585D01*
X116259150Y-89032684D01*
X116142576Y-89451258D01*
X114249200Y-89451258D01*
X114249200Y-88691138D01*
X116660605Y-88691138D01*
X117253020Y-89283553D01*
X117845435Y-88691138D01*
X117755336Y-88541130D01*
X117336762Y-88424556D01*
X116905439Y-88477037D01*
X116750704Y-88541130D01*
X116660605Y-88691138D01*
X114249200Y-88691138D01*
X114249200Y-87211299D01*
X116160631Y-87211299D01*
X116326558Y-87612873D01*
X116633531Y-87920382D01*
X117034815Y-88087010D01*
X117469319Y-88087389D01*
X117870893Y-87921462D01*
X118178402Y-87614489D01*
X118252486Y-87436074D01*
X118325538Y-87612873D01*
X118632511Y-87920382D01*
X119033795Y-88087010D01*
X119468299Y-88087389D01*
X119869873Y-87921462D01*
X120177382Y-87614489D01*
X120344010Y-87213205D01*
X120344389Y-86778701D01*
X120178462Y-86377127D01*
X119871489Y-86069618D01*
X119470205Y-85902990D01*
X119035701Y-85902611D01*
X118634127Y-86068538D01*
X118326618Y-86375511D01*
X118252534Y-86553926D01*
X118179482Y-86377127D01*
X117872509Y-86069618D01*
X117471225Y-85902990D01*
X117036721Y-85902611D01*
X116635147Y-86068538D01*
X116327638Y-86375511D01*
X116161010Y-86776795D01*
X116160631Y-87211299D01*
X114249200Y-87211299D01*
X114249200Y-86563200D01*
X114610776Y-86563200D01*
X114643835Y-86596317D01*
X114939673Y-86719160D01*
X115260002Y-86719440D01*
X115556053Y-86597114D01*
X115782757Y-86370805D01*
X115905600Y-86074967D01*
X115905880Y-85754638D01*
X115905749Y-85754321D01*
X115905880Y-85604638D01*
X115905749Y-85604321D01*
X115905880Y-85454638D01*
X115783554Y-85158587D01*
X115773200Y-85148215D01*
X115773200Y-84834755D01*
X130428890Y-84834755D01*
X130525360Y-85068228D01*
X130703832Y-85247013D01*
X130937137Y-85343889D01*
X131189755Y-85344110D01*
X131423228Y-85247640D01*
X131602013Y-85069168D01*
X131698889Y-84835863D01*
X131698978Y-84734400D01*
X136694356Y-84734400D01*
X136652111Y-84836137D01*
X136651890Y-85088755D01*
X136748360Y-85322228D01*
X136926832Y-85501013D01*
X137007389Y-85534463D01*
X136927772Y-85567360D01*
X136748987Y-85745832D01*
X136652111Y-85979137D01*
X136651890Y-86231755D01*
X136748360Y-86465228D01*
X136926832Y-86644013D01*
X137160137Y-86740889D01*
X137287000Y-86741000D01*
X137286890Y-86866755D01*
X137383360Y-87100228D01*
X137561832Y-87279013D01*
X137795137Y-87375889D01*
X138047755Y-87376110D01*
X138281228Y-87279640D01*
X138413700Y-87147400D01*
X138430000Y-87147400D01*
X138585523Y-87116465D01*
X138717368Y-87028368D01*
X139487336Y-86258400D01*
X150199664Y-86258400D01*
X152747632Y-88806368D01*
X152879478Y-88894466D01*
X153035000Y-88925400D01*
X169122664Y-88925400D01*
X169900600Y-89703336D01*
X169900600Y-92922664D01*
X169765632Y-93057632D01*
X169677535Y-93189477D01*
X169646600Y-93345000D01*
X169646600Y-93853000D01*
X169677535Y-94008523D01*
X169760307Y-94132399D01*
X169765632Y-94140368D01*
X170027600Y-94402336D01*
X170027600Y-97536000D01*
X170058535Y-97691523D01*
X170138256Y-97810832D01*
X170146632Y-97823368D01*
X170281600Y-97958336D01*
X170281600Y-98393090D01*
X170052863Y-98298111D01*
X169800245Y-98297890D01*
X169566772Y-98394360D01*
X169387987Y-98572832D01*
X169291111Y-98806137D01*
X169290890Y-99058755D01*
X169387360Y-99292228D01*
X169565832Y-99471013D01*
X169799137Y-99567889D01*
X170051755Y-99568110D01*
X170156388Y-99524876D01*
X169986211Y-99695053D01*
X169800245Y-99694890D01*
X169566772Y-99791360D01*
X169387987Y-99969832D01*
X169291111Y-100203137D01*
X169290890Y-100455755D01*
X169387360Y-100689228D01*
X169565832Y-100868013D01*
X169799137Y-100964889D01*
X170051755Y-100965110D01*
X170285228Y-100868640D01*
X170464013Y-100690168D01*
X170560889Y-100456863D01*
X170561053Y-100269683D01*
X170662600Y-100168136D01*
X170662600Y-101981000D01*
X170688110Y-102109249D01*
X170687890Y-102360755D01*
X170784360Y-102594228D01*
X170962832Y-102773013D01*
X171196137Y-102869889D01*
X171448755Y-102870110D01*
X171682228Y-102773640D01*
X171861013Y-102595168D01*
X171957889Y-102361863D01*
X171958110Y-102109245D01*
X171861640Y-101875772D01*
X171683168Y-101696987D01*
X171475400Y-101610715D01*
X171475400Y-97874644D01*
X171577137Y-97916889D01*
X171829755Y-97917110D01*
X172063228Y-97820640D01*
X172242013Y-97642168D01*
X172338889Y-97408863D01*
X172339110Y-97156245D01*
X172242640Y-96922772D01*
X172064168Y-96743987D01*
X171830863Y-96647111D01*
X171643684Y-96646947D01*
X171602400Y-96605664D01*
X171602400Y-94656336D01*
X171991368Y-94267369D01*
X172079465Y-94135523D01*
X172080086Y-94132399D01*
X172110400Y-93980000D01*
X172110400Y-93091000D01*
X172079465Y-92935477D01*
X171991368Y-92803632D01*
X171856400Y-92668664D01*
X171856400Y-88773000D01*
X171825465Y-88617477D01*
X171737368Y-88485632D01*
X170340368Y-87088632D01*
X170208523Y-87000535D01*
X170053000Y-86969600D01*
X153965336Y-86969600D01*
X153933805Y-86938069D01*
X154029228Y-86898640D01*
X154208013Y-86720168D01*
X154304889Y-86486863D01*
X154305110Y-86234245D01*
X154208640Y-86000772D01*
X154030168Y-85821987D01*
X153796863Y-85725111D01*
X153544245Y-85724890D01*
X153410775Y-85780039D01*
X151671368Y-84040632D01*
X151539523Y-83952535D01*
X151384000Y-83921600D01*
X131445000Y-83921600D01*
X131289477Y-83952535D01*
X131157632Y-84040632D01*
X131124211Y-84074053D01*
X130938245Y-84073890D01*
X130704772Y-84170360D01*
X130525987Y-84348832D01*
X130429111Y-84582137D01*
X130428890Y-84834755D01*
X115773200Y-84834755D01*
X115773200Y-83473328D01*
X115965513Y-83393866D01*
X116175990Y-83183755D01*
X119252890Y-83183755D01*
X119349360Y-83417228D01*
X119527832Y-83596013D01*
X119761137Y-83692889D01*
X120013755Y-83693110D01*
X120247228Y-83596640D01*
X120379700Y-83464400D01*
X126254449Y-83464400D01*
X126385832Y-83596013D01*
X126619137Y-83692889D01*
X126871755Y-83693110D01*
X127105228Y-83596640D01*
X127284013Y-83418168D01*
X127380889Y-83184863D01*
X127381110Y-82932245D01*
X127284640Y-82698772D01*
X127106168Y-82519987D01*
X126872863Y-82423111D01*
X126620245Y-82422890D01*
X126386772Y-82519360D01*
X126254300Y-82651600D01*
X120379551Y-82651600D01*
X120248168Y-82519987D01*
X120014863Y-82423111D01*
X119762245Y-82422890D01*
X119528772Y-82519360D01*
X119349987Y-82697832D01*
X119253111Y-82931137D01*
X119252890Y-83183755D01*
X116175990Y-83183755D01*
X116340031Y-83020001D01*
X116542968Y-82531274D01*
X116543430Y-82002088D01*
X116341346Y-81513007D01*
X115967481Y-81138489D01*
X115478754Y-80935552D01*
X114949568Y-80935090D01*
X114949104Y-80935282D01*
X114729568Y-80935090D01*
X114729104Y-80935282D01*
X114509568Y-80935090D01*
X114509104Y-80935282D01*
X114289568Y-80935090D01*
X114289104Y-80935282D01*
X114069568Y-80935090D01*
X114069104Y-80935282D01*
X113849568Y-80935090D01*
X113849104Y-80935282D01*
X113629568Y-80935090D01*
X113593967Y-80949800D01*
X111403200Y-80949800D01*
X111403200Y-73430200D01*
X125218851Y-73430200D01*
X124901669Y-73561257D01*
X124901669Y-73561257D01*
G37*
X124901669Y-73561257D02*
X124236592Y-74225174D01*
X123876211Y-75093068D01*
X123875391Y-76032809D01*
X124234257Y-76901331D01*
X124898174Y-77566408D01*
X125766068Y-77926789D01*
X126705809Y-77927609D01*
X127574331Y-77568743D01*
X128239408Y-76904826D01*
X128599789Y-76036932D01*
X128600200Y-75565915D01*
X128600200Y-75743774D01*
X128691073Y-76200621D01*
X128949856Y-76587918D01*
X129319641Y-76835000D01*
X128949856Y-77082082D01*
X128691073Y-77469379D01*
X128600200Y-77926226D01*
X128600200Y-78283774D01*
X128691073Y-78740621D01*
X128949856Y-79127918D01*
X129337153Y-79386701D01*
X129794000Y-79477574D01*
X130250847Y-79386701D01*
X130638144Y-79127918D01*
X130896927Y-78740621D01*
X130987800Y-78283774D01*
X130987800Y-77926226D01*
X130896927Y-77469379D01*
X130638144Y-77082082D01*
X130268359Y-76835000D01*
X130638144Y-76587918D01*
X130896927Y-76200621D01*
X130987800Y-75743774D01*
X130987800Y-75386226D01*
X131140200Y-75386226D01*
X131140200Y-75743774D01*
X131231073Y-76200621D01*
X131489856Y-76587918D01*
X131859641Y-76835000D01*
X131489856Y-77082082D01*
X131231073Y-77469379D01*
X131140200Y-77926226D01*
X131140200Y-78283774D01*
X131231073Y-78740621D01*
X131489856Y-79127918D01*
X131877153Y-79386701D01*
X132334000Y-79477574D01*
X132790847Y-79386701D01*
X133178144Y-79127918D01*
X133436927Y-78740621D01*
X133527800Y-78283774D01*
X133527800Y-77926226D01*
X133436927Y-77469379D01*
X133178144Y-77082082D01*
X132808359Y-76835000D01*
X133178144Y-76587918D01*
X133436927Y-76200621D01*
X133527800Y-75743774D01*
X133527800Y-75386226D01*
X133680200Y-75386226D01*
X133680200Y-75743774D01*
X133771073Y-76200621D01*
X134029856Y-76587918D01*
X134399641Y-76835000D01*
X134029856Y-77082082D01*
X133771073Y-77469379D01*
X133680200Y-77926226D01*
X133680200Y-78283774D01*
X133771073Y-78740621D01*
X134029856Y-79127918D01*
X134417153Y-79386701D01*
X134874000Y-79477574D01*
X135330847Y-79386701D01*
X135718144Y-79127918D01*
X135976927Y-78740621D01*
X136030967Y-78468943D01*
X136240739Y-78468943D01*
X136411002Y-78901828D01*
X136733963Y-79236605D01*
X137053720Y-79395537D01*
X137236200Y-79354334D01*
X137236200Y-78282800D01*
X137591800Y-78282800D01*
X137591800Y-79354334D01*
X137774280Y-79395537D01*
X138094037Y-79236605D01*
X138416998Y-78901828D01*
X138587261Y-78468943D01*
X138523359Y-78282800D01*
X137591800Y-78282800D01*
X137236200Y-78282800D01*
X137236200Y-78282800D01*
X136304641Y-78282800D01*
X136240739Y-78468943D01*
X136030967Y-78468943D01*
X136067800Y-78283774D01*
X136067800Y-77926226D01*
X135976927Y-77469379D01*
X135718144Y-77082082D01*
X135348359Y-76835000D01*
X135718144Y-76587918D01*
X135976927Y-76200621D01*
X136030967Y-75928943D01*
X136240739Y-75928943D01*
X136411002Y-76361828D01*
X136733963Y-76696605D01*
X137012401Y-76835000D01*
X136733963Y-76973395D01*
X136411002Y-77308172D01*
X136240739Y-77741057D01*
X136304641Y-77927200D01*
X137236200Y-77927200D01*
X137236200Y-76855666D01*
X137144674Y-76835000D01*
X137236200Y-76814334D01*
X137236200Y-75742800D01*
X137591800Y-75742800D01*
X137591800Y-76814334D01*
X137683326Y-76835000D01*
X137591800Y-76855666D01*
X137591800Y-77927200D01*
X138523359Y-77927200D01*
X138587261Y-77741057D01*
X138416998Y-77308172D01*
X138094037Y-76973395D01*
X137815599Y-76835000D01*
X138094037Y-76696605D01*
X138416998Y-76361828D01*
X138587261Y-75928943D01*
X138523359Y-75742800D01*
X137591800Y-75742800D01*
X137236200Y-75742800D01*
X137236200Y-75742800D01*
X136304641Y-75742800D01*
X136240739Y-75928943D01*
X136030967Y-75928943D01*
X136067800Y-75743774D01*
X136067800Y-75386226D01*
X136030968Y-75201057D01*
X136240739Y-75201057D01*
X136304641Y-75387200D01*
X137236200Y-75387200D01*
X137236200Y-74315666D01*
X137591800Y-74315666D01*
X137591800Y-75387200D01*
X138523359Y-75387200D01*
X138523693Y-75386226D01*
X138760200Y-75386226D01*
X138760200Y-75743774D01*
X138851073Y-76200621D01*
X139109856Y-76587918D01*
X139479641Y-76835000D01*
X139109856Y-77082082D01*
X138851073Y-77469379D01*
X138760200Y-77926226D01*
X138760200Y-78283774D01*
X138851073Y-78740621D01*
X139109856Y-79127918D01*
X139497153Y-79386701D01*
X139954000Y-79477574D01*
X140410847Y-79386701D01*
X140798144Y-79127918D01*
X141056927Y-78740621D01*
X141147800Y-78283774D01*
X141147800Y-77926226D01*
X141056927Y-77469379D01*
X140798144Y-77082082D01*
X140428359Y-76835000D01*
X140798144Y-76587918D01*
X141056927Y-76200621D01*
X141147800Y-75743774D01*
X141147800Y-75386226D01*
X141300200Y-75386226D01*
X141300200Y-75743774D01*
X141391073Y-76200621D01*
X141649856Y-76587918D01*
X142019641Y-76835000D01*
X141649856Y-77082082D01*
X141391073Y-77469379D01*
X141300200Y-77926226D01*
X141300200Y-78283774D01*
X141391073Y-78740621D01*
X141649856Y-79127918D01*
X142037153Y-79386701D01*
X142494000Y-79477574D01*
X142950847Y-79386701D01*
X143338144Y-79127918D01*
X143596927Y-78740621D01*
X143687800Y-78283774D01*
X143687800Y-77926226D01*
X143596927Y-77469379D01*
X143338144Y-77082082D01*
X142968359Y-76835000D01*
X143338144Y-76587918D01*
X143596927Y-76200621D01*
X143687800Y-75743774D01*
X143687800Y-75386226D01*
X143840200Y-75386226D01*
X143840200Y-75743774D01*
X143931073Y-76200621D01*
X144189856Y-76587918D01*
X144559641Y-76835000D01*
X144189856Y-77082082D01*
X143931073Y-77469379D01*
X143840200Y-77926226D01*
X143840200Y-78283774D01*
X143931073Y-78740621D01*
X144189856Y-79127918D01*
X144577153Y-79386701D01*
X145034000Y-79477574D01*
X145490847Y-79386701D01*
X145878144Y-79127918D01*
X146136927Y-78740621D01*
X146227800Y-78283774D01*
X146227800Y-77926226D01*
X146136927Y-77469379D01*
X145878144Y-77082082D01*
X145508359Y-76835000D01*
X145878144Y-76587918D01*
X146136927Y-76200621D01*
X146227800Y-75743774D01*
X146227800Y-75386226D01*
X146380200Y-75386226D01*
X146380200Y-75743774D01*
X146471073Y-76200621D01*
X146729856Y-76587918D01*
X147099641Y-76835000D01*
X146729856Y-77082082D01*
X146471073Y-77469379D01*
X146380200Y-77926226D01*
X146380200Y-78283774D01*
X146471073Y-78740621D01*
X146729856Y-79127918D01*
X147117153Y-79386701D01*
X147574000Y-79477574D01*
X148030847Y-79386701D01*
X148418144Y-79127918D01*
X148676927Y-78740621D01*
X148767800Y-78283774D01*
X148767800Y-77926226D01*
X148676927Y-77469379D01*
X148418144Y-77082082D01*
X148048359Y-76835000D01*
X148418144Y-76587918D01*
X148676927Y-76200621D01*
X148767800Y-75743774D01*
X148767800Y-75386226D01*
X148920200Y-75386226D01*
X148920200Y-75743774D01*
X149011073Y-76200621D01*
X149269856Y-76587918D01*
X149639641Y-76835000D01*
X149269856Y-77082082D01*
X149011073Y-77469379D01*
X148920200Y-77926226D01*
X148920200Y-78283774D01*
X149011073Y-78740621D01*
X149269856Y-79127918D01*
X149657153Y-79386701D01*
X150114000Y-79477574D01*
X150570847Y-79386701D01*
X150958144Y-79127918D01*
X151216927Y-78740621D01*
X151307800Y-78283774D01*
X151307800Y-77926226D01*
X151216927Y-77469379D01*
X150958144Y-77082082D01*
X150588359Y-76835000D01*
X150958144Y-76587918D01*
X151216927Y-76200621D01*
X151307800Y-75743774D01*
X151307800Y-75386226D01*
X151460200Y-75386226D01*
X151460200Y-75743774D01*
X151551073Y-76200621D01*
X151809856Y-76587918D01*
X152179641Y-76835000D01*
X151809856Y-77082082D01*
X151551073Y-77469379D01*
X151460200Y-77926226D01*
X151460200Y-78283774D01*
X151551073Y-78740621D01*
X151809856Y-79127918D01*
X152197153Y-79386701D01*
X152654000Y-79477574D01*
X153110847Y-79386701D01*
X153498144Y-79127918D01*
X153756927Y-78740621D01*
X153847800Y-78283774D01*
X153847800Y-77926226D01*
X153756927Y-77469379D01*
X153498144Y-77082082D01*
X153128359Y-76835000D01*
X153498144Y-76587918D01*
X153756927Y-76200621D01*
X153847800Y-75743774D01*
X153847800Y-75386226D01*
X155524200Y-75386226D01*
X155524200Y-75743774D01*
X155615073Y-76200621D01*
X155873856Y-76587918D01*
X156243641Y-76835000D01*
X155873856Y-77082082D01*
X155615073Y-77469379D01*
X155524200Y-77926226D01*
X155524200Y-78283774D01*
X155615073Y-78740621D01*
X155873856Y-79127918D01*
X156261153Y-79386701D01*
X156718000Y-79477574D01*
X157174847Y-79386701D01*
X157562144Y-79127918D01*
X157820927Y-78740621D01*
X157911800Y-78283774D01*
X157911800Y-77926226D01*
X157820927Y-77469379D01*
X157562144Y-77082082D01*
X157192359Y-76835000D01*
X157562144Y-76587918D01*
X157820927Y-76200621D01*
X157911800Y-75743774D01*
X157911800Y-75386226D01*
X158064200Y-75386226D01*
X158064200Y-75743774D01*
X158155073Y-76200621D01*
X158413856Y-76587918D01*
X158783641Y-76835000D01*
X158413856Y-77082082D01*
X158155073Y-77469379D01*
X158064200Y-77926226D01*
X158064200Y-78283774D01*
X158155073Y-78740621D01*
X158413856Y-79127918D01*
X158801153Y-79386701D01*
X159258000Y-79477574D01*
X159714847Y-79386701D01*
X160102144Y-79127918D01*
X160360927Y-78740621D01*
X160451800Y-78283774D01*
X160451800Y-77926226D01*
X160360927Y-77469379D01*
X160102144Y-77082082D01*
X159732359Y-76835000D01*
X160102144Y-76587918D01*
X160360927Y-76200621D01*
X160451800Y-75743774D01*
X160451800Y-75386226D01*
X160604200Y-75386226D01*
X160604200Y-75743774D01*
X160695073Y-76200621D01*
X160953856Y-76587918D01*
X161323641Y-76835000D01*
X160953856Y-77082082D01*
X160695073Y-77469379D01*
X160604200Y-77926226D01*
X160604200Y-78283774D01*
X160695073Y-78740621D01*
X160953856Y-79127918D01*
X161341153Y-79386701D01*
X161798000Y-79477574D01*
X162254847Y-79386701D01*
X162642144Y-79127918D01*
X162900927Y-78740621D01*
X162991800Y-78283774D01*
X162991800Y-77926226D01*
X162900927Y-77469379D01*
X162642144Y-77082082D01*
X162272359Y-76835000D01*
X162642144Y-76587918D01*
X162900927Y-76200621D01*
X162991800Y-75743774D01*
X162991800Y-75386226D01*
X163144200Y-75386226D01*
X163144200Y-75743774D01*
X163235073Y-76200621D01*
X163493856Y-76587918D01*
X163863641Y-76835000D01*
X163493856Y-77082082D01*
X163235073Y-77469379D01*
X163144200Y-77926226D01*
X163144200Y-78283774D01*
X163235073Y-78740621D01*
X163493856Y-79127918D01*
X163881153Y-79386701D01*
X164338000Y-79477574D01*
X164794847Y-79386701D01*
X165182144Y-79127918D01*
X165440927Y-78740621D01*
X165531800Y-78283774D01*
X165531800Y-77926226D01*
X165440927Y-77469379D01*
X165182144Y-77082082D01*
X164812359Y-76835000D01*
X165182144Y-76587918D01*
X165440927Y-76200621D01*
X165531800Y-75743774D01*
X165531800Y-75386226D01*
X165684200Y-75386226D01*
X165684200Y-75743774D01*
X165775073Y-76200621D01*
X166033856Y-76587918D01*
X166403641Y-76835000D01*
X166033856Y-77082082D01*
X165775073Y-77469379D01*
X165684200Y-77926226D01*
X165684200Y-78283774D01*
X165775073Y-78740621D01*
X166033856Y-79127918D01*
X166421153Y-79386701D01*
X166878000Y-79477574D01*
X167334847Y-79386701D01*
X167722144Y-79127918D01*
X167980927Y-78740621D01*
X168071800Y-78283774D01*
X168071800Y-77926226D01*
X167980927Y-77469379D01*
X167722144Y-77082082D01*
X167352359Y-76835000D01*
X167722144Y-76587918D01*
X167980927Y-76200621D01*
X168071800Y-75743774D01*
X168071800Y-75386226D01*
X168224200Y-75386226D01*
X168224200Y-75743774D01*
X168315073Y-76200621D01*
X168573856Y-76587918D01*
X168943641Y-76835000D01*
X168573856Y-77082082D01*
X168315073Y-77469379D01*
X168224200Y-77926226D01*
X168224200Y-78283774D01*
X168315073Y-78740621D01*
X168573856Y-79127918D01*
X168961153Y-79386701D01*
X169418000Y-79477574D01*
X169874847Y-79386701D01*
X170262144Y-79127918D01*
X170520927Y-78740621D01*
X170611800Y-78283774D01*
X170611800Y-77926226D01*
X170520927Y-77469379D01*
X170262144Y-77082082D01*
X169892359Y-76835000D01*
X170262144Y-76587918D01*
X170520927Y-76200621D01*
X170611800Y-75743774D01*
X170611800Y-75386226D01*
X170764200Y-75386226D01*
X170764200Y-75743774D01*
X170855073Y-76200621D01*
X171113856Y-76587918D01*
X171483641Y-76835000D01*
X171113856Y-77082082D01*
X170855073Y-77469379D01*
X170764200Y-77926226D01*
X170764200Y-78283774D01*
X170855073Y-78740621D01*
X171113856Y-79127918D01*
X171501153Y-79386701D01*
X171958000Y-79477574D01*
X172414847Y-79386701D01*
X172802144Y-79127918D01*
X173060927Y-78740621D01*
X173151800Y-78283774D01*
X173151800Y-77926226D01*
X173060927Y-77469379D01*
X172802144Y-77082082D01*
X172432359Y-76835000D01*
X172802144Y-76587918D01*
X173060927Y-76200621D01*
X173151800Y-75743774D01*
X173151800Y-75386226D01*
X173304200Y-75386226D01*
X173304200Y-75743774D01*
X173395073Y-76200621D01*
X173653856Y-76587918D01*
X174023641Y-76835000D01*
X173653856Y-77082082D01*
X173395073Y-77469379D01*
X173304200Y-77926226D01*
X173304200Y-78283774D01*
X173395073Y-78740621D01*
X173653856Y-79127918D01*
X174041153Y-79386701D01*
X174498000Y-79477574D01*
X174954847Y-79386701D01*
X175342144Y-79127918D01*
X175600927Y-78740621D01*
X175691800Y-78283774D01*
X175691800Y-77926226D01*
X175600927Y-77469379D01*
X175342144Y-77082082D01*
X174972359Y-76835000D01*
X175342144Y-76587918D01*
X175600927Y-76200621D01*
X175691800Y-75743774D01*
X175691800Y-75386226D01*
X175600927Y-74929379D01*
X175342144Y-74542082D01*
X174954847Y-74283299D01*
X174498000Y-74192426D01*
X174041153Y-74283299D01*
X173653856Y-74542082D01*
X173395073Y-74929379D01*
X173304200Y-75386226D01*
X173151800Y-75386226D01*
X173151800Y-75386226D01*
X173060927Y-74929379D01*
X172802144Y-74542082D01*
X172414847Y-74283299D01*
X171958000Y-74192426D01*
X171501153Y-74283299D01*
X171113856Y-74542082D01*
X170855073Y-74929379D01*
X170764200Y-75386226D01*
X170611800Y-75386226D01*
X170611800Y-75386226D01*
X170520927Y-74929379D01*
X170262144Y-74542082D01*
X169874847Y-74283299D01*
X169418000Y-74192426D01*
X168961153Y-74283299D01*
X168573856Y-74542082D01*
X168315073Y-74929379D01*
X168224200Y-75386226D01*
X168071800Y-75386226D01*
X168071800Y-75386226D01*
X167980927Y-74929379D01*
X167722144Y-74542082D01*
X167334847Y-74283299D01*
X166878000Y-74192426D01*
X166421153Y-74283299D01*
X166033856Y-74542082D01*
X165775073Y-74929379D01*
X165684200Y-75386226D01*
X165531800Y-75386226D01*
X165531800Y-75386226D01*
X165440927Y-74929379D01*
X165182144Y-74542082D01*
X164794847Y-74283299D01*
X164338000Y-74192426D01*
X163881153Y-74283299D01*
X163493856Y-74542082D01*
X163235073Y-74929379D01*
X163144200Y-75386226D01*
X162991800Y-75386226D01*
X162991800Y-75386226D01*
X162900927Y-74929379D01*
X162642144Y-74542082D01*
X162254847Y-74283299D01*
X161798000Y-74192426D01*
X161341153Y-74283299D01*
X160953856Y-74542082D01*
X160695073Y-74929379D01*
X160604200Y-75386226D01*
X160451800Y-75386226D01*
X160451800Y-75386226D01*
X160360927Y-74929379D01*
X160102144Y-74542082D01*
X159714847Y-74283299D01*
X159258000Y-74192426D01*
X158801153Y-74283299D01*
X158413856Y-74542082D01*
X158155073Y-74929379D01*
X158064200Y-75386226D01*
X157911800Y-75386226D01*
X157911800Y-75386226D01*
X157820927Y-74929379D01*
X157562144Y-74542082D01*
X157174847Y-74283299D01*
X156718000Y-74192426D01*
X156261153Y-74283299D01*
X155873856Y-74542082D01*
X155615073Y-74929379D01*
X155524200Y-75386226D01*
X153847800Y-75386226D01*
X153847800Y-75386226D01*
X153756927Y-74929379D01*
X153498144Y-74542082D01*
X153110847Y-74283299D01*
X152654000Y-74192426D01*
X152197153Y-74283299D01*
X151809856Y-74542082D01*
X151551073Y-74929379D01*
X151460200Y-75386226D01*
X151307800Y-75386226D01*
X151307800Y-75386226D01*
X151216927Y-74929379D01*
X150958144Y-74542082D01*
X150570847Y-74283299D01*
X150114000Y-74192426D01*
X149657153Y-74283299D01*
X149269856Y-74542082D01*
X149011073Y-74929379D01*
X148920200Y-75386226D01*
X148767800Y-75386226D01*
X148767800Y-75386226D01*
X148676927Y-74929379D01*
X148418144Y-74542082D01*
X148030847Y-74283299D01*
X147574000Y-74192426D01*
X147117153Y-74283299D01*
X146729856Y-74542082D01*
X146471073Y-74929379D01*
X146380200Y-75386226D01*
X146227800Y-75386226D01*
X146227800Y-75386226D01*
X146136927Y-74929379D01*
X145878144Y-74542082D01*
X145490847Y-74283299D01*
X145034000Y-74192426D01*
X144577153Y-74283299D01*
X144189856Y-74542082D01*
X143931073Y-74929379D01*
X143840200Y-75386226D01*
X143687800Y-75386226D01*
X143687800Y-75386226D01*
X143596927Y-74929379D01*
X143338144Y-74542082D01*
X142950847Y-74283299D01*
X142494000Y-74192426D01*
X142037153Y-74283299D01*
X141649856Y-74542082D01*
X141391073Y-74929379D01*
X141300200Y-75386226D01*
X141147800Y-75386226D01*
X141147800Y-75386226D01*
X141056927Y-74929379D01*
X140798144Y-74542082D01*
X140410847Y-74283299D01*
X139954000Y-74192426D01*
X139497153Y-74283299D01*
X139109856Y-74542082D01*
X138851073Y-74929379D01*
X138760200Y-75386226D01*
X138523693Y-75386226D01*
X138587261Y-75201057D01*
X138416998Y-74768172D01*
X138094037Y-74433395D01*
X137774280Y-74274463D01*
X137591800Y-74315666D01*
X137236200Y-74315666D01*
X137236200Y-74315666D01*
X137053720Y-74274463D01*
X136733963Y-74433395D01*
X136411002Y-74768172D01*
X136240739Y-75201057D01*
X136030968Y-75201057D01*
X135976927Y-74929379D01*
X135718144Y-74542082D01*
X135330847Y-74283299D01*
X134874000Y-74192426D01*
X134417153Y-74283299D01*
X134029856Y-74542082D01*
X133771073Y-74929379D01*
X133680200Y-75386226D01*
X133527800Y-75386226D01*
X133527800Y-75386226D01*
X133436927Y-74929379D01*
X133178144Y-74542082D01*
X132790847Y-74283299D01*
X132334000Y-74192426D01*
X131877153Y-74283299D01*
X131489856Y-74542082D01*
X131231073Y-74929379D01*
X131140200Y-75386226D01*
X130987800Y-75386226D01*
X130987800Y-75386226D01*
X130896927Y-74929379D01*
X130638144Y-74542082D01*
X130250847Y-74283299D01*
X129794000Y-74192426D01*
X129337153Y-74283299D01*
X128949856Y-74542082D01*
X128691073Y-74929379D01*
X128600357Y-75385434D01*
X128600609Y-75097191D01*
X128241743Y-74228669D01*
X127577826Y-73563592D01*
X127256582Y-73430200D01*
X175303436Y-73430200D01*
X176632800Y-74759563D01*
X176632800Y-85979000D01*
X176663644Y-86134064D01*
X176707800Y-86200148D01*
X176707800Y-86232994D01*
X176707799Y-86233000D01*
X176713600Y-86262161D01*
X176730118Y-86286882D01*
X179172800Y-88729563D01*
X179172800Y-89785851D01*
X179041743Y-89468669D01*
X178377826Y-88803592D01*
X177509932Y-88443211D01*
X176570191Y-88442391D01*
X175701669Y-88801257D01*
X175036592Y-89465174D01*
X174676211Y-90333068D01*
X174675391Y-91272809D01*
X175034257Y-92141331D01*
X175698174Y-92806408D01*
X176566068Y-93166789D01*
X177505809Y-93167609D01*
X178374331Y-92808743D01*
X179039408Y-92144826D01*
X179172800Y-91823582D01*
X179172800Y-117725851D01*
X179041743Y-117408669D01*
X178377826Y-116743592D01*
X177509932Y-116383211D01*
X176570191Y-116382391D01*
X175701669Y-116741257D01*
X175036592Y-117405174D01*
X174676211Y-118273068D01*
X174675391Y-119212809D01*
X175020004Y-120046835D01*
X174954847Y-120003299D01*
X174498000Y-119912426D01*
X174041153Y-120003299D01*
X173978881Y-120044908D01*
X171429487Y-117495513D01*
X171322362Y-117423935D01*
X171196000Y-117398800D01*
X165236774Y-117398800D01*
X162255200Y-114417226D01*
X162255200Y-111506000D01*
X162234990Y-111404400D01*
X162899664Y-111404400D01*
X163169600Y-111674337D01*
X163169600Y-113538000D01*
X163200535Y-113693523D01*
X163266336Y-113792000D01*
X163288632Y-113825368D01*
X164058600Y-114595336D01*
X164058600Y-115078449D01*
X163926987Y-115209832D01*
X163830111Y-115443137D01*
X163829890Y-115695755D01*
X163926360Y-115929228D01*
X164104832Y-116108013D01*
X164338137Y-116204889D01*
X164590755Y-116205110D01*
X164824228Y-116108640D01*
X165003013Y-115930168D01*
X165099889Y-115696863D01*
X165100110Y-115444245D01*
X165003640Y-115210772D01*
X164871400Y-115078300D01*
X164871400Y-114427000D01*
X164840465Y-114271477D01*
X164752368Y-114139632D01*
X163982400Y-113369664D01*
X163982400Y-111506000D01*
X163951465Y-111350477D01*
X163899369Y-111272510D01*
X163863368Y-111218631D01*
X163355368Y-110710632D01*
X163223523Y-110622535D01*
X163068000Y-110591600D01*
X162347336Y-110591600D01*
X162178947Y-110423211D01*
X162179110Y-110237245D01*
X162082640Y-110003772D01*
X161904168Y-109824987D01*
X161670863Y-109728111D01*
X161418245Y-109727890D01*
X161184772Y-109824360D01*
X161005987Y-110002832D01*
X160971606Y-110085632D01*
X160761487Y-109875513D01*
X160654362Y-109803935D01*
X160528000Y-109778800D01*
X146050000Y-109778800D01*
X145923638Y-109803935D01*
X145816513Y-109875513D01*
X144546513Y-111145513D01*
X144474935Y-111252638D01*
X144449800Y-111379000D01*
X144449800Y-113792000D01*
X144474935Y-113918362D01*
X144546513Y-114025487D01*
X148864513Y-118343487D01*
X148971638Y-118415065D01*
X149098000Y-118440200D01*
X153279226Y-118440200D01*
X154198513Y-119359487D01*
X154305638Y-119431065D01*
X154432000Y-119456200D01*
X157851226Y-119456200D01*
X159562800Y-121167774D01*
X159562800Y-125959800D01*
X149633563Y-125959800D01*
X149637730Y-125953564D01*
X149682200Y-125730000D01*
X149682200Y-125021607D01*
X149942144Y-124847918D01*
X150200927Y-124460621D01*
X150254967Y-124188943D01*
X150464739Y-124188943D01*
X150635002Y-124621828D01*
X150957963Y-124956605D01*
X151277720Y-125115537D01*
X151460200Y-125074334D01*
X151460200Y-124002800D01*
X151815800Y-124002800D01*
X151815800Y-125074334D01*
X151998280Y-125115537D01*
X152318037Y-124956605D01*
X152640998Y-124621828D01*
X152811261Y-124188943D01*
X153004739Y-124188943D01*
X153175002Y-124621828D01*
X153497963Y-124956605D01*
X153817720Y-125115537D01*
X154000200Y-125074334D01*
X154000200Y-124002800D01*
X154355800Y-124002800D01*
X154355800Y-125074334D01*
X154538280Y-125115537D01*
X154858037Y-124956605D01*
X155180998Y-124621828D01*
X155351261Y-124188943D01*
X155287359Y-124002800D01*
X154355800Y-124002800D01*
X154000200Y-124002800D01*
X154000200Y-124002800D01*
X153068641Y-124002800D01*
X153004739Y-124188943D01*
X152811261Y-124188943D01*
X152811261Y-124188943D01*
X152747359Y-124002800D01*
X151815800Y-124002800D01*
X151460200Y-124002800D01*
X151460200Y-124002800D01*
X150528641Y-124002800D01*
X150464739Y-124188943D01*
X150254967Y-124188943D01*
X150291800Y-124003774D01*
X150291800Y-123646226D01*
X150200927Y-123189379D01*
X149942144Y-122802082D01*
X149572359Y-122555000D01*
X149942144Y-122307918D01*
X150200927Y-121920621D01*
X150291800Y-121463774D01*
X150291800Y-121106226D01*
X150200927Y-120649379D01*
X149942144Y-120262082D01*
X149800442Y-120167400D01*
X149945664Y-120167400D01*
X150517249Y-120738986D01*
X150444200Y-121106226D01*
X150444200Y-121463774D01*
X150535073Y-121920621D01*
X150793856Y-122307918D01*
X151181153Y-122566701D01*
X151203798Y-122571205D01*
X150957963Y-122693395D01*
X150635002Y-123028172D01*
X150464739Y-123461057D01*
X150528641Y-123647200D01*
X151460200Y-123647200D01*
X151460200Y-123627200D01*
X151815800Y-123627200D01*
X151815800Y-123647200D01*
X152747359Y-123647200D01*
X152811261Y-123461057D01*
X152640998Y-123028172D01*
X152318037Y-122693395D01*
X152072202Y-122571205D01*
X152094847Y-122566701D01*
X152482144Y-122307918D01*
X152740927Y-121920621D01*
X152831800Y-121463774D01*
X152831800Y-121106226D01*
X152810771Y-121000507D01*
X152984200Y-121173936D01*
X152984200Y-121463774D01*
X153075073Y-121920621D01*
X153333856Y-122307918D01*
X153721153Y-122566701D01*
X153743798Y-122571205D01*
X153497963Y-122693395D01*
X153175002Y-123028172D01*
X153004739Y-123461057D01*
X153068641Y-123647200D01*
X154000200Y-123647200D01*
X154000200Y-123627200D01*
X154355800Y-123627200D01*
X154355800Y-123647200D01*
X155287359Y-123647200D01*
X155351261Y-123461057D01*
X155180998Y-123028172D01*
X154858037Y-122693395D01*
X154612202Y-122571205D01*
X154634847Y-122566701D01*
X155022144Y-122307918D01*
X155280927Y-121920621D01*
X155371800Y-121463774D01*
X155371800Y-121106226D01*
X155280927Y-120649379D01*
X155043738Y-120294400D01*
X155152664Y-120294400D01*
X155597249Y-120738985D01*
X155524200Y-121106226D01*
X155524200Y-121463774D01*
X155615073Y-121920621D01*
X155873856Y-122307918D01*
X156243641Y-122555000D01*
X155873856Y-122802082D01*
X155615073Y-123189379D01*
X155524200Y-123646226D01*
X155524200Y-124003774D01*
X155615073Y-124460621D01*
X155873856Y-124847918D01*
X156261153Y-125106701D01*
X156718000Y-125197574D01*
X157174847Y-125106701D01*
X157562144Y-124847918D01*
X157820927Y-124460621D01*
X157911800Y-124003774D01*
X157911800Y-123646226D01*
X157820927Y-123189379D01*
X157562144Y-122802082D01*
X157192359Y-122555000D01*
X157562144Y-122307918D01*
X157820927Y-121920621D01*
X157911800Y-121463774D01*
X157911800Y-121106226D01*
X157820927Y-120649379D01*
X157562144Y-120262082D01*
X157174847Y-120003299D01*
X156718000Y-119912426D01*
X156261153Y-120003299D01*
X156111218Y-120103482D01*
X155608368Y-119600632D01*
X155570651Y-119575430D01*
X155476523Y-119512535D01*
X155321000Y-119481600D01*
X153203336Y-119481600D01*
X152433368Y-118711632D01*
X152328358Y-118641466D01*
X152301523Y-118623535D01*
X152146000Y-118592600D01*
X148758336Y-118592600D01*
X146464368Y-116298632D01*
X146332523Y-116210535D01*
X146177000Y-116179600D01*
X144186336Y-116179600D01*
X143662400Y-115655664D01*
X143662400Y-109261336D01*
X146117981Y-106805755D01*
X146811890Y-106805755D01*
X146908360Y-107039228D01*
X147086832Y-107218013D01*
X147320137Y-107314889D01*
X147572755Y-107315110D01*
X147695965Y-107264200D01*
X149237016Y-107264200D01*
X149270884Y-107298068D01*
X149321360Y-107420228D01*
X149499832Y-107599013D01*
X149622953Y-107650137D01*
X151097906Y-109125089D01*
X151097908Y-109125092D01*
X151197261Y-109191477D01*
X151287437Y-109251731D01*
X151511000Y-109296201D01*
X151511005Y-109296200D01*
X163449000Y-109296200D01*
X163672564Y-109251730D01*
X163862092Y-109125092D01*
X164702068Y-108285116D01*
X164824228Y-108234640D01*
X165003013Y-108056168D01*
X165099889Y-107822863D01*
X165100110Y-107570245D01*
X165003640Y-107336772D01*
X164825168Y-107157987D01*
X164591863Y-107061111D01*
X164339245Y-107060890D01*
X164105772Y-107157360D01*
X163926987Y-107335832D01*
X163875863Y-107458953D01*
X163207016Y-108127800D01*
X151752983Y-108127800D01*
X150449116Y-106823932D01*
X150398640Y-106701772D01*
X150220168Y-106522987D01*
X150097047Y-106471863D01*
X149892092Y-106266908D01*
X149799990Y-106205368D01*
X149702564Y-106140270D01*
X149479000Y-106095800D01*
X147695937Y-106095800D01*
X147573863Y-106045111D01*
X147321245Y-106044890D01*
X147087772Y-106141360D01*
X146908987Y-106319832D01*
X146812111Y-106553137D01*
X146811890Y-106805755D01*
X146117981Y-106805755D01*
X146980336Y-105943400D01*
X149945664Y-105943400D01*
X151350631Y-107348368D01*
X151440822Y-107408632D01*
X151482477Y-107436465D01*
X151638000Y-107467400D01*
X157490900Y-107467400D01*
X157576360Y-107674228D01*
X157754832Y-107853013D01*
X157988137Y-107949889D01*
X158240755Y-107950110D01*
X158474228Y-107853640D01*
X158559492Y-107768525D01*
X158643832Y-107853013D01*
X158877137Y-107949889D01*
X159129755Y-107950110D01*
X159363228Y-107853640D01*
X159384881Y-107832025D01*
X159405832Y-107853013D01*
X159639137Y-107949889D01*
X159891755Y-107950110D01*
X160125228Y-107853640D01*
X160146881Y-107832025D01*
X160167832Y-107853013D01*
X160401137Y-107949889D01*
X160653755Y-107950110D01*
X160887228Y-107853640D01*
X161066013Y-107675168D01*
X161162889Y-107441863D01*
X161163110Y-107189245D01*
X161066640Y-106955772D01*
X160906901Y-106795753D01*
X160903465Y-106778477D01*
X160836833Y-106678755D01*
X172211890Y-106678755D01*
X172308360Y-106912228D01*
X172486832Y-107091013D01*
X172720137Y-107187889D01*
X172972755Y-107188110D01*
X173206228Y-107091640D01*
X173385013Y-106913168D01*
X173481889Y-106679863D01*
X173482110Y-106427245D01*
X173385640Y-106193772D01*
X173207168Y-106014987D01*
X172973863Y-105918111D01*
X172721245Y-105917890D01*
X172487772Y-106014360D01*
X172308987Y-106192832D01*
X172212111Y-106426137D01*
X172211890Y-106678755D01*
X160836833Y-106678755D01*
X160815368Y-106646632D01*
X159799368Y-105630632D01*
X159735794Y-105588153D01*
X159667523Y-105542535D01*
X159512000Y-105511600D01*
X152568337Y-105511600D01*
X151163368Y-104106632D01*
X151031523Y-104018535D01*
X150997438Y-104011755D01*
X154939890Y-104011755D01*
X155036360Y-104245228D01*
X155214832Y-104424013D01*
X155448137Y-104520889D01*
X155700755Y-104521110D01*
X155934228Y-104424640D01*
X156066700Y-104292400D01*
X156506356Y-104292400D01*
X156464111Y-104394137D01*
X156463890Y-104646755D01*
X156560360Y-104880228D01*
X156738832Y-105059013D01*
X156972137Y-105155889D01*
X157224755Y-105156110D01*
X157458228Y-105059640D01*
X157590700Y-104927400D01*
X158242000Y-104927400D01*
X158397523Y-104896465D01*
X158529368Y-104808368D01*
X158791336Y-104546400D01*
X165227000Y-104546400D01*
X165382523Y-104515465D01*
X165514368Y-104427368D01*
X165649336Y-104292400D01*
X166455664Y-104292400D01*
X167733632Y-105570368D01*
X167865477Y-105658465D01*
X168021000Y-105689400D01*
X173478546Y-105689400D01*
X173407812Y-106045000D01*
X173498685Y-106501847D01*
X173757468Y-106889144D01*
X174144765Y-107147927D01*
X174601612Y-107238800D01*
X174648388Y-107238800D01*
X175105235Y-107147927D01*
X175492532Y-106889144D01*
X175751315Y-106501847D01*
X175770523Y-106405280D01*
X176026863Y-106405280D01*
X176105446Y-106595038D01*
X176396590Y-106958643D01*
X176804718Y-107183154D01*
X176987200Y-107142952D01*
X176987200Y-106222800D01*
X177342800Y-106222800D01*
X177342800Y-107142952D01*
X177525282Y-107183154D01*
X177933410Y-106958643D01*
X178224554Y-106595038D01*
X178303137Y-106405280D01*
X178261934Y-106222800D01*
X177342800Y-106222800D01*
X176987200Y-106222800D01*
X176987200Y-106222800D01*
X176068066Y-106222800D01*
X176026863Y-106405280D01*
X175770523Y-106405280D01*
X175842188Y-106045000D01*
X175770524Y-105684720D01*
X176026863Y-105684720D01*
X176068066Y-105867200D01*
X176987200Y-105867200D01*
X176987200Y-104947048D01*
X177342800Y-104947048D01*
X177342800Y-105867200D01*
X178261934Y-105867200D01*
X178303137Y-105684720D01*
X178224554Y-105494962D01*
X177933410Y-105131357D01*
X177525282Y-104906846D01*
X177342800Y-104947048D01*
X176987200Y-104947048D01*
X176987200Y-104947048D01*
X176804718Y-104906846D01*
X176396590Y-105131357D01*
X176105446Y-105494962D01*
X176026863Y-105684720D01*
X175770524Y-105684720D01*
X175751315Y-105588153D01*
X175492532Y-105200856D01*
X175416320Y-105149933D01*
X175547368Y-105062368D01*
X176182368Y-104427368D01*
X176184610Y-104424013D01*
X176266052Y-104302127D01*
X176297468Y-104349144D01*
X176684765Y-104607927D01*
X177141612Y-104698800D01*
X177188388Y-104698800D01*
X177645235Y-104607927D01*
X178032532Y-104349144D01*
X178291315Y-103961847D01*
X178382188Y-103505000D01*
X178291315Y-103048153D01*
X178032532Y-102660856D01*
X177645235Y-102402073D01*
X177188388Y-102311200D01*
X177141612Y-102311200D01*
X176684765Y-102402073D01*
X176301400Y-102658229D01*
X176301400Y-102235000D01*
X176270465Y-102079477D01*
X176182368Y-101947632D01*
X175713371Y-101478635D01*
X175751315Y-101421847D01*
X175842188Y-100965000D01*
X175947812Y-100965000D01*
X176038685Y-101421847D01*
X176297468Y-101809144D01*
X176684765Y-102067927D01*
X177141612Y-102158800D01*
X177188388Y-102158800D01*
X177645235Y-102067927D01*
X178032532Y-101809144D01*
X178291315Y-101421847D01*
X178382188Y-100965000D01*
X178291315Y-100508153D01*
X178032532Y-100120856D01*
X177645235Y-99862073D01*
X177188388Y-99771200D01*
X177141612Y-99771200D01*
X176684765Y-99862073D01*
X176297468Y-100120856D01*
X176038685Y-100508153D01*
X175947812Y-100965000D01*
X175842188Y-100965000D01*
X175842188Y-100965000D01*
X175751315Y-100508153D01*
X175492532Y-100120856D01*
X175105235Y-99862073D01*
X174648388Y-99771200D01*
X174601612Y-99771200D01*
X174144765Y-99862073D01*
X173761400Y-100118229D01*
X173761400Y-99863336D01*
X174116017Y-99508719D01*
X174144765Y-99527927D01*
X174601612Y-99618800D01*
X174648388Y-99618800D01*
X175105235Y-99527927D01*
X175492532Y-99269144D01*
X175751315Y-98881847D01*
X175842188Y-98425000D01*
X175947812Y-98425000D01*
X176038685Y-98881847D01*
X176297468Y-99269144D01*
X176684765Y-99527927D01*
X177141612Y-99618800D01*
X177188388Y-99618800D01*
X177645235Y-99527927D01*
X178032532Y-99269144D01*
X178291315Y-98881847D01*
X178382188Y-98425000D01*
X178291315Y-97968153D01*
X178032532Y-97580856D01*
X177645235Y-97322073D01*
X177188388Y-97231200D01*
X177141612Y-97231200D01*
X176684765Y-97322073D01*
X176297468Y-97580856D01*
X176038685Y-97968153D01*
X175947812Y-98425000D01*
X175842188Y-98425000D01*
X175842188Y-98425000D01*
X175751315Y-97968153D01*
X175492532Y-97580856D01*
X175105235Y-97322073D01*
X174648388Y-97231200D01*
X174601612Y-97231200D01*
X174144765Y-97322073D01*
X173761400Y-97578229D01*
X173761400Y-97323336D01*
X173999467Y-97085269D01*
X175488600Y-97085269D01*
X175614504Y-97060841D01*
X175725162Y-96988150D01*
X175799236Y-96878413D01*
X175825269Y-96748600D01*
X175825269Y-96245280D01*
X176026863Y-96245280D01*
X176105446Y-96435038D01*
X176396590Y-96798643D01*
X176804718Y-97023154D01*
X176987200Y-96982952D01*
X176987200Y-96062800D01*
X177342800Y-96062800D01*
X177342800Y-96982952D01*
X177525282Y-97023154D01*
X177933410Y-96798643D01*
X178224554Y-96435038D01*
X178303137Y-96245280D01*
X178261934Y-96062800D01*
X177342800Y-96062800D01*
X176987200Y-96062800D01*
X176987200Y-96062800D01*
X176068066Y-96062800D01*
X176026863Y-96245280D01*
X175825269Y-96245280D01*
X175825269Y-95524720D01*
X176026863Y-95524720D01*
X176068066Y-95707200D01*
X176987200Y-95707200D01*
X176987200Y-94787048D01*
X177342800Y-94787048D01*
X177342800Y-95707200D01*
X178261934Y-95707200D01*
X178303137Y-95524720D01*
X178224554Y-95334962D01*
X177933410Y-94971357D01*
X177525282Y-94746846D01*
X177342800Y-94787048D01*
X176987200Y-94787048D01*
X176987200Y-94787048D01*
X176804718Y-94746846D01*
X176396590Y-94971357D01*
X176105446Y-95334962D01*
X176026863Y-95524720D01*
X175825269Y-95524720D01*
X175825269Y-95021400D01*
X175800841Y-94895496D01*
X175728150Y-94784838D01*
X175618413Y-94710764D01*
X175488600Y-94684731D01*
X173761400Y-94684731D01*
X173635496Y-94709159D01*
X173524838Y-94781850D01*
X173450764Y-94891587D01*
X173424731Y-95021400D01*
X173424731Y-96510533D01*
X173067632Y-96867632D01*
X172979535Y-96999477D01*
X172948600Y-97155000D01*
X172948600Y-98891664D01*
X172686632Y-99153632D01*
X172598535Y-99285477D01*
X172567600Y-99441000D01*
X172567600Y-103463663D01*
X172297664Y-103733600D01*
X168951336Y-103733600D01*
X167673368Y-102455632D01*
X167593212Y-102402073D01*
X167541523Y-102367535D01*
X167386000Y-102336600D01*
X164719000Y-102336600D01*
X164563477Y-102367535D01*
X164431632Y-102455632D01*
X164296664Y-102590600D01*
X158664336Y-102590600D01*
X158402368Y-102328632D01*
X158376279Y-102311200D01*
X158270523Y-102240535D01*
X158115000Y-102209600D01*
X156972000Y-102209600D01*
X156816477Y-102240535D01*
X156710721Y-102311200D01*
X156684632Y-102328632D01*
X156397211Y-102616053D01*
X156211245Y-102615890D01*
X155977772Y-102712360D01*
X155798987Y-102890832D01*
X155702111Y-103124137D01*
X155702000Y-103251168D01*
X155701863Y-103251111D01*
X155449245Y-103250890D01*
X155215772Y-103347360D01*
X155036987Y-103525832D01*
X154940111Y-103759137D01*
X154939890Y-104011755D01*
X150997438Y-104011755D01*
X150876000Y-103987600D01*
X146050000Y-103987600D01*
X145894477Y-104018535D01*
X145762632Y-104106632D01*
X141825632Y-108043632D01*
X141737535Y-108175477D01*
X141706600Y-108331000D01*
X141706600Y-116459000D01*
X141737535Y-116614523D01*
X141781040Y-116679632D01*
X141825632Y-116746368D01*
X143349631Y-118270368D01*
X143439822Y-118330632D01*
X143481477Y-118358465D01*
X143637000Y-118389400D01*
X145627664Y-118389400D01*
X147977249Y-120738985D01*
X147904200Y-121106226D01*
X147904200Y-121463774D01*
X147995073Y-121920621D01*
X148253856Y-122307918D01*
X148623641Y-122555000D01*
X148253856Y-122802082D01*
X147995073Y-123189379D01*
X147904200Y-123646226D01*
X147904200Y-124003774D01*
X147995073Y-124460621D01*
X148253856Y-124847918D01*
X148513800Y-125021607D01*
X148513800Y-125145800D01*
X146818284Y-125145800D01*
X147014847Y-125106701D01*
X147402144Y-124847918D01*
X147660927Y-124460621D01*
X147751800Y-124003774D01*
X147751800Y-123646226D01*
X147660927Y-123189379D01*
X147402144Y-122802082D01*
X147032359Y-122555000D01*
X147402144Y-122307918D01*
X147660927Y-121920621D01*
X147751800Y-121463774D01*
X147751800Y-121106226D01*
X147660927Y-120649379D01*
X147402144Y-120262082D01*
X147014847Y-120003299D01*
X146558000Y-119912426D01*
X146101153Y-120003299D01*
X145951218Y-120103482D01*
X144940368Y-119092632D01*
X144808523Y-119004535D01*
X144653000Y-118973600D01*
X141265336Y-118973600D01*
X140741400Y-118449664D01*
X140741400Y-105070336D01*
X141900336Y-103911400D01*
X145034000Y-103911400D01*
X145189523Y-103880465D01*
X145321368Y-103792368D01*
X147361336Y-101752400D01*
X161935900Y-101752400D01*
X162021360Y-101959228D01*
X162199832Y-102138013D01*
X162433137Y-102234889D01*
X162685755Y-102235110D01*
X162919228Y-102138640D01*
X163098013Y-101960168D01*
X163168614Y-101790141D01*
X163322137Y-101853889D01*
X163574755Y-101854110D01*
X163808228Y-101757640D01*
X163893492Y-101672525D01*
X163977832Y-101757013D01*
X164211137Y-101853889D01*
X164463755Y-101854110D01*
X164697228Y-101757640D01*
X164782492Y-101672525D01*
X164866832Y-101757013D01*
X165100137Y-101853889D01*
X165352755Y-101854110D01*
X165586228Y-101757640D01*
X165765013Y-101579168D01*
X165861889Y-101345863D01*
X165862110Y-101093245D01*
X165765640Y-100859772D01*
X165587168Y-100680987D01*
X165353863Y-100584111D01*
X165166683Y-100583947D01*
X164879368Y-100296632D01*
X164747523Y-100208535D01*
X164592000Y-100177600D01*
X164252336Y-100177600D01*
X163990368Y-99915632D01*
X163910212Y-99862073D01*
X163858523Y-99827535D01*
X163703000Y-99796600D01*
X146304000Y-99796600D01*
X146148477Y-99827535D01*
X146016632Y-99915632D01*
X143976664Y-101955600D01*
X140970000Y-101955600D01*
X140814477Y-101986535D01*
X140682632Y-102074632D01*
X138523632Y-104233632D01*
X138435535Y-104365477D01*
X138404600Y-104521000D01*
X138404600Y-105825864D01*
X138302947Y-105724211D01*
X138303110Y-105538245D01*
X138206640Y-105304772D01*
X138028168Y-105125987D01*
X137794863Y-105029111D01*
X137542245Y-105028890D01*
X137308772Y-105125360D01*
X137129987Y-105303832D01*
X137033111Y-105537137D01*
X137032890Y-105789755D01*
X137129360Y-106023228D01*
X137307832Y-106202013D01*
X137541137Y-106298889D01*
X137728317Y-106299053D01*
X137896600Y-106467336D01*
X137896600Y-119592664D01*
X137380632Y-120108632D01*
X137292535Y-120240477D01*
X137261600Y-120396000D01*
X137261600Y-122047000D01*
X137292535Y-122202523D01*
X137380632Y-122334368D01*
X137888631Y-122842368D01*
X138011902Y-122924735D01*
X137835073Y-123189379D01*
X137744200Y-123646226D01*
X137744200Y-124003774D01*
X137835073Y-124460621D01*
X138093856Y-124847918D01*
X138481153Y-125106701D01*
X138677716Y-125145800D01*
X129108200Y-125145800D01*
X129108200Y-119380000D01*
X129063730Y-119156436D01*
X128937092Y-118966908D01*
X128747564Y-118840270D01*
X128524000Y-118795800D01*
X127248937Y-118795800D01*
X127126863Y-118745111D01*
X126874245Y-118744890D01*
X126640772Y-118841360D01*
X126461987Y-119019832D01*
X126365111Y-119253137D01*
X126364890Y-119505755D01*
X126461360Y-119739228D01*
X126639832Y-119918013D01*
X126873137Y-120014889D01*
X127125755Y-120015110D01*
X127248965Y-119964200D01*
X127939800Y-119964200D01*
X127939800Y-125730000D01*
X127984270Y-125953564D01*
X127988437Y-125959800D01*
X125987149Y-125959800D01*
X126304331Y-125828743D01*
X126969408Y-125164826D01*
X127329789Y-124296932D01*
X127330609Y-123357191D01*
X126971743Y-122488669D01*
X126307826Y-121823592D01*
X125439932Y-121463211D01*
X124500191Y-121462391D01*
X123631669Y-121821257D01*
X122966592Y-122485174D01*
X122606211Y-123353068D01*
X122605391Y-124292809D01*
X122964257Y-125161331D01*
X123628174Y-125826408D01*
X123949418Y-125959800D01*
X111403200Y-125959800D01*
X111403200Y-123303008D01*
X115659488Y-123303008D01*
X115708213Y-123829946D01*
X115816124Y-124090466D01*
X115990846Y-124210107D01*
X116092456Y-124108497D01*
X116240846Y-124210107D01*
X116342456Y-124108497D01*
X116490844Y-124210106D01*
X116424710Y-124276240D01*
X116426159Y-124277689D01*
X116242293Y-124461554D01*
X116361934Y-124636276D01*
X116867408Y-124792912D01*
X117059953Y-124775108D01*
X117117408Y-124792912D01*
X117309953Y-124775108D01*
X117367408Y-124792912D01*
X117559953Y-124775108D01*
X117617408Y-124792912D01*
X117809953Y-124775108D01*
X117867408Y-124792912D01*
X118059953Y-124775108D01*
X118117408Y-124792912D01*
X118309953Y-124775108D01*
X118367408Y-124792912D01*
X118559953Y-124775108D01*
X118617408Y-124792912D01*
X118809953Y-124775108D01*
X118867408Y-124792912D01*
X119394346Y-124744187D01*
X119654866Y-124636276D01*
X119774507Y-124461554D01*
X119590642Y-124277689D01*
X119592090Y-124276240D01*
X119525956Y-124210106D01*
X119674344Y-124108497D01*
X119775954Y-124210107D01*
X119924344Y-124108497D01*
X120025954Y-124210107D01*
X120200676Y-124090466D01*
X120357312Y-123584992D01*
X120308587Y-123058054D01*
X120200676Y-122797534D01*
X120025954Y-122677893D01*
X119924344Y-122779503D01*
X119775954Y-122677893D01*
X119674344Y-122779503D01*
X119525956Y-122677894D01*
X119592090Y-122611760D01*
X119590642Y-122610312D01*
X119774507Y-122426446D01*
X119654866Y-122251724D01*
X119522804Y-122210801D01*
X119732828Y-122021381D01*
X119908502Y-121649297D01*
X119867658Y-121462800D01*
X118541800Y-121462800D01*
X118541800Y-121482800D01*
X118186200Y-121482800D01*
X118186200Y-121462800D01*
X116860342Y-121462800D01*
X116819498Y-121649297D01*
X116995172Y-122021381D01*
X117083638Y-122101168D01*
X116622454Y-122143813D01*
X116361934Y-122251724D01*
X116242293Y-122426446D01*
X116426159Y-122610312D01*
X116424710Y-122611760D01*
X116490844Y-122677894D01*
X116342456Y-122779503D01*
X116240846Y-122677893D01*
X116092456Y-122779503D01*
X115990846Y-122677893D01*
X115816124Y-122797534D01*
X115659488Y-123303008D01*
X111403200Y-123303008D01*
X111403200Y-117604008D01*
X113659748Y-117604008D01*
X113677552Y-117796553D01*
X113659748Y-117854008D01*
X113677552Y-118046553D01*
X113659748Y-118104008D01*
X113677552Y-118296553D01*
X113659748Y-118354008D01*
X113677552Y-118546553D01*
X113659748Y-118604008D01*
X113677552Y-118796553D01*
X113659748Y-118854008D01*
X113677552Y-119046553D01*
X113659748Y-119104008D01*
X113677552Y-119296553D01*
X113659748Y-119354008D01*
X113677552Y-119546553D01*
X113659748Y-119604008D01*
X113708473Y-120130946D01*
X113816384Y-120391466D01*
X113991106Y-120511107D01*
X114174972Y-120327242D01*
X114176420Y-120328690D01*
X114242554Y-120262556D01*
X114344163Y-120410944D01*
X114242553Y-120512554D01*
X114344163Y-120660944D01*
X114242553Y-120762554D01*
X114362194Y-120937276D01*
X114867668Y-121093912D01*
X115394606Y-121045187D01*
X115655126Y-120937276D01*
X115666474Y-120920703D01*
X116819498Y-120920703D01*
X116860342Y-121107200D01*
X118186200Y-121107200D01*
X118186200Y-120065800D01*
X118541800Y-120065800D01*
X118541800Y-121107200D01*
X119867658Y-121107200D01*
X119908502Y-120920703D01*
X119732828Y-120548619D01*
X119375833Y-120226647D01*
X118922800Y-120065800D01*
X118541800Y-120065800D01*
X118186200Y-120065800D01*
X118186200Y-120065800D01*
X117805200Y-120065800D01*
X117352167Y-120226647D01*
X116995172Y-120548619D01*
X116819498Y-120920703D01*
X115666474Y-120920703D01*
X115774767Y-120762554D01*
X115673157Y-120660944D01*
X115774767Y-120512554D01*
X115673157Y-120410944D01*
X115774766Y-120262556D01*
X115840900Y-120328690D01*
X115842349Y-120327242D01*
X116026214Y-120511107D01*
X116200936Y-120391466D01*
X116357572Y-119885992D01*
X116339768Y-119693447D01*
X116357572Y-119635992D01*
X116339768Y-119443447D01*
X116357572Y-119385992D01*
X116339768Y-119193447D01*
X116357572Y-119135992D01*
X116339768Y-118943447D01*
X116357572Y-118885992D01*
X116339768Y-118693447D01*
X116357572Y-118635992D01*
X116339768Y-118443447D01*
X116357572Y-118385992D01*
X116339768Y-118193447D01*
X116357572Y-118135992D01*
X116339768Y-117943447D01*
X116357572Y-117885992D01*
X116354799Y-117856000D01*
X116757331Y-117856000D01*
X116757331Y-119634000D01*
X116781759Y-119759904D01*
X116854450Y-119870562D01*
X116964187Y-119944636D01*
X117094000Y-119970669D01*
X119634000Y-119970669D01*
X119677750Y-119962181D01*
X119677710Y-120008432D01*
X119879794Y-120497513D01*
X120253659Y-120872031D01*
X120742386Y-121074968D01*
X121271572Y-121075430D01*
X121760653Y-120873346D01*
X122135171Y-120499481D01*
X122338108Y-120010754D01*
X122338570Y-119481568D01*
X122338352Y-119481041D01*
X122338570Y-119231568D01*
X122338352Y-119231041D01*
X122338570Y-118981568D01*
X122338352Y-118981041D01*
X122338570Y-118731568D01*
X122338352Y-118731041D01*
X122338570Y-118481568D01*
X122338352Y-118481041D01*
X122338570Y-118231568D01*
X122338352Y-118231041D01*
X122338570Y-117981568D01*
X122338352Y-117981041D01*
X122338570Y-117731568D01*
X122338352Y-117731041D01*
X122338570Y-117481568D01*
X122136486Y-116992487D01*
X121762621Y-116617969D01*
X121273894Y-116415032D01*
X120744708Y-116414570D01*
X120255627Y-116616654D01*
X119881109Y-116990519D01*
X119678172Y-117479246D01*
X119678129Y-117528181D01*
X119634000Y-117519331D01*
X117094000Y-117519331D01*
X116968096Y-117543759D01*
X116857438Y-117616450D01*
X116783364Y-117726187D01*
X116757331Y-117856000D01*
X116354799Y-117856000D01*
X116308847Y-117359054D01*
X116200936Y-117098534D01*
X116026214Y-116978893D01*
X115842349Y-117162759D01*
X115840900Y-117161310D01*
X115774766Y-117227444D01*
X115673157Y-117079056D01*
X115774767Y-116977446D01*
X115673157Y-116829056D01*
X115774767Y-116727446D01*
X115655126Y-116552724D01*
X115149652Y-116396088D01*
X114622714Y-116444813D01*
X114362194Y-116552724D01*
X114242553Y-116727446D01*
X114344163Y-116829056D01*
X114242553Y-116977446D01*
X114344163Y-117079056D01*
X114242554Y-117227444D01*
X114176420Y-117161310D01*
X114174972Y-117162759D01*
X113991106Y-116978893D01*
X113816384Y-117098534D01*
X113659748Y-117604008D01*
X111403200Y-117604008D01*
X111403200Y-108964755D01*
X112648890Y-108964755D01*
X112745360Y-109198228D01*
X112923832Y-109377013D01*
X113157137Y-109473889D01*
X113344316Y-109474053D01*
X113504631Y-109634368D01*
X113612177Y-109706228D01*
X113636477Y-109722465D01*
X113792000Y-109753400D01*
X122317449Y-109753400D01*
X122448832Y-109885013D01*
X122682137Y-109981889D01*
X122934755Y-109982110D01*
X123168228Y-109885640D01*
X123347013Y-109707168D01*
X123443889Y-109473863D01*
X123444110Y-109221245D01*
X123347640Y-108987772D01*
X123169168Y-108808987D01*
X122935863Y-108712111D01*
X122683245Y-108711890D01*
X122449772Y-108808360D01*
X122317300Y-108940600D01*
X113960337Y-108940600D01*
X113918947Y-108899211D01*
X113919110Y-108713245D01*
X113822640Y-108479772D01*
X113644168Y-108300987D01*
X113410863Y-108204111D01*
X113158245Y-108203890D01*
X112924772Y-108300360D01*
X112745987Y-108478832D01*
X112649111Y-108712137D01*
X112648890Y-108964755D01*
X111403200Y-108964755D01*
X111403200Y-105791000D01*
X128828800Y-105791000D01*
X128828800Y-105918000D01*
X128873270Y-106141564D01*
X128999908Y-106331092D01*
X129189436Y-106457730D01*
X129413000Y-106502200D01*
X129636564Y-106457730D01*
X129826092Y-106331092D01*
X129952730Y-106141564D01*
X129997200Y-105918000D01*
X129997200Y-105791000D01*
X129952730Y-105567436D01*
X129826092Y-105377908D01*
X129636564Y-105251270D01*
X129413000Y-105206800D01*
X129189436Y-105251270D01*
X128999908Y-105377908D01*
X128873270Y-105567436D01*
X128828800Y-105791000D01*
X111403200Y-105791000D01*
X111403200Y-98550755D01*
X124332890Y-98550755D01*
X124429360Y-98784228D01*
X124607832Y-98963013D01*
X124841137Y-99059889D01*
X125028317Y-99060053D01*
X125569632Y-99601368D01*
X125701477Y-99689465D01*
X125857000Y-99720400D01*
X127085664Y-99720400D01*
X127863600Y-100498336D01*
X127863600Y-102235000D01*
X127894535Y-102390523D01*
X127941278Y-102460478D01*
X127982632Y-102522368D01*
X128744632Y-103284368D01*
X128876477Y-103372465D01*
X129032000Y-103403400D01*
X133816664Y-103403400D01*
X134586632Y-104173368D01*
X134718477Y-104261465D01*
X134874000Y-104292400D01*
X135398449Y-104292400D01*
X135529832Y-104424013D01*
X135763137Y-104520889D01*
X136015755Y-104521110D01*
X136249228Y-104424640D01*
X136428013Y-104246168D01*
X136524889Y-104012863D01*
X136525110Y-103760245D01*
X136482615Y-103657400D01*
X138684000Y-103657400D01*
X138839523Y-103626465D01*
X138971368Y-103538368D01*
X140757336Y-101752400D01*
X142875000Y-101752400D01*
X143030523Y-101721465D01*
X143162368Y-101633368D01*
X144084789Y-100710947D01*
X144270755Y-100711110D01*
X144504228Y-100614640D01*
X144683013Y-100436168D01*
X144779889Y-100202863D01*
X144780110Y-99950245D01*
X144683640Y-99716772D01*
X144505168Y-99537987D01*
X144271863Y-99441111D01*
X144019245Y-99440890D01*
X143785772Y-99537360D01*
X143606987Y-99715832D01*
X143510111Y-99949137D01*
X143509947Y-100136317D01*
X142706664Y-100939600D01*
X140589000Y-100939600D01*
X140433477Y-100970535D01*
X140301632Y-101058632D01*
X138515664Y-102844600D01*
X135619551Y-102844600D01*
X135488168Y-102712987D01*
X135254863Y-102616111D01*
X135002245Y-102615890D01*
X134768772Y-102712360D01*
X134589987Y-102890832D01*
X134549961Y-102987225D01*
X134272368Y-102709632D01*
X134199370Y-102660856D01*
X134140523Y-102621535D01*
X133985000Y-102590600D01*
X129200336Y-102590600D01*
X128676400Y-102066664D01*
X128676400Y-100330000D01*
X128645465Y-100174477D01*
X128557368Y-100042632D01*
X127541368Y-99026632D01*
X127409523Y-98938535D01*
X127254000Y-98907600D01*
X126025336Y-98907600D01*
X125602947Y-98485211D01*
X125603110Y-98299245D01*
X125506640Y-98065772D01*
X125328168Y-97886987D01*
X125094863Y-97790111D01*
X124842245Y-97789890D01*
X124608772Y-97886360D01*
X124429987Y-98064832D01*
X124333111Y-98298137D01*
X124332890Y-98550755D01*
X111403200Y-98550755D01*
X111403200Y-96391755D01*
X130428890Y-96391755D01*
X130525360Y-96625228D01*
X130703832Y-96804013D01*
X130937137Y-96900889D01*
X131189755Y-96901110D01*
X131423228Y-96804640D01*
X131555700Y-96672400D01*
X133892863Y-96672400D01*
X131784664Y-98780600D01*
X131555551Y-98780600D01*
X131424168Y-98648987D01*
X131190863Y-98552111D01*
X130938245Y-98551890D01*
X130704772Y-98648360D01*
X130525987Y-98826832D01*
X130429111Y-99060137D01*
X130428890Y-99312755D01*
X130525360Y-99546228D01*
X130703832Y-99725013D01*
X130937000Y-99821832D01*
X130936890Y-99947755D01*
X131033360Y-100181228D01*
X131211832Y-100360013D01*
X131445000Y-100456832D01*
X131444890Y-100582755D01*
X131541360Y-100816228D01*
X131719832Y-100995013D01*
X131953000Y-101091832D01*
X131952890Y-101217755D01*
X132049360Y-101451228D01*
X132227832Y-101630013D01*
X132461137Y-101726889D01*
X132713755Y-101727110D01*
X132947228Y-101630640D01*
X133126013Y-101452168D01*
X133222889Y-101218863D01*
X133223110Y-100966245D01*
X133126640Y-100732772D01*
X133121400Y-100727523D01*
X133121400Y-100498336D01*
X135423337Y-98196400D01*
X137956864Y-98196400D01*
X136991664Y-99161600D01*
X136889551Y-99161600D01*
X136758168Y-99029987D01*
X136524863Y-98933111D01*
X136272245Y-98932890D01*
X136038772Y-99029360D01*
X135859987Y-99207832D01*
X135763111Y-99441137D01*
X135762890Y-99693755D01*
X135859360Y-99927228D01*
X136037832Y-100106013D01*
X136271000Y-100202832D01*
X136270890Y-100328755D01*
X136367360Y-100562228D01*
X136545832Y-100741013D01*
X136779000Y-100837832D01*
X136778890Y-100963755D01*
X136875360Y-101197228D01*
X137053832Y-101376013D01*
X137287000Y-101472832D01*
X137286890Y-101598755D01*
X137383360Y-101832228D01*
X137561832Y-102011013D01*
X137795137Y-102107889D01*
X138047755Y-102108110D01*
X138281228Y-102011640D01*
X138460013Y-101833168D01*
X138556889Y-101599863D01*
X138557110Y-101347245D01*
X138460640Y-101113772D01*
X138455400Y-101108523D01*
X138455400Y-100752336D01*
X139487336Y-99720400D01*
X140716000Y-99720400D01*
X140871523Y-99689465D01*
X141003368Y-99601368D01*
X141265336Y-99339400D01*
X163661664Y-99339400D01*
X163796632Y-99474368D01*
X163928477Y-99562465D01*
X164084000Y-99593400D01*
X164550664Y-99593400D01*
X164685632Y-99728368D01*
X164817477Y-99816465D01*
X164973000Y-99847400D01*
X165370449Y-99847400D01*
X165501832Y-99979013D01*
X165735137Y-100075889D01*
X165987755Y-100076110D01*
X166221228Y-99979640D01*
X166400013Y-99801168D01*
X166496889Y-99567863D01*
X166497110Y-99315245D01*
X166400640Y-99081772D01*
X166222168Y-98902987D01*
X165988863Y-98806111D01*
X165862000Y-98806000D01*
X165862110Y-98680245D01*
X165765640Y-98446772D01*
X165587168Y-98267987D01*
X165353863Y-98171111D01*
X165227000Y-98171000D01*
X165227110Y-98045245D01*
X165130640Y-97811772D01*
X164952168Y-97632987D01*
X164718863Y-97536111D01*
X164592000Y-97536000D01*
X164592110Y-97410245D01*
X164495640Y-97176772D01*
X164317168Y-96997987D01*
X164083863Y-96901111D01*
X163957000Y-96901000D01*
X164082755Y-96901110D01*
X164316228Y-96804640D01*
X164495013Y-96626168D01*
X164591889Y-96392863D01*
X164592000Y-96266000D01*
X164717755Y-96266110D01*
X164951228Y-96169640D01*
X165130013Y-95991168D01*
X165226889Y-95757863D01*
X165227000Y-95631000D01*
X165352755Y-95631110D01*
X165586228Y-95534640D01*
X165765013Y-95356168D01*
X165861889Y-95122863D01*
X165862110Y-94870245D01*
X165765640Y-94636772D01*
X165587168Y-94457987D01*
X165353863Y-94361111D01*
X165101245Y-94360890D01*
X164867772Y-94457360D01*
X164735300Y-94589600D01*
X164338000Y-94589600D01*
X164182477Y-94620535D01*
X164050632Y-94708632D01*
X163915664Y-94843600D01*
X163576000Y-94843600D01*
X163420477Y-94874535D01*
X163288632Y-94962632D01*
X163153664Y-95097600D01*
X162560000Y-95097600D01*
X162404477Y-95128535D01*
X162272632Y-95216632D01*
X161629664Y-95859600D01*
X161501644Y-95859600D01*
X161543889Y-95757863D01*
X161544110Y-95505245D01*
X161447640Y-95271772D01*
X161269168Y-95092987D01*
X161035863Y-94996111D01*
X160783245Y-94995890D01*
X160549772Y-95092360D01*
X160370987Y-95270832D01*
X160284715Y-95478600D01*
X139065000Y-95478600D01*
X138931045Y-95505245D01*
X138909477Y-95509535D01*
X138777632Y-95597632D01*
X138515664Y-95859600D01*
X131555551Y-95859600D01*
X131424168Y-95727987D01*
X131190863Y-95631111D01*
X130938245Y-95630890D01*
X130704772Y-95727360D01*
X130525987Y-95905832D01*
X130429111Y-96139137D01*
X130428890Y-96391755D01*
X111403200Y-96391755D01*
X111403200Y-95580200D01*
X113592933Y-95580200D01*
X113627246Y-95594448D01*
X114156432Y-95594910D01*
X114156896Y-95594718D01*
X114376432Y-95594910D01*
X114376896Y-95594718D01*
X114596432Y-95594910D01*
X114596896Y-95594718D01*
X114816432Y-95594910D01*
X114816896Y-95594718D01*
X115036432Y-95594910D01*
X115036896Y-95594718D01*
X115256432Y-95594910D01*
X115256896Y-95594718D01*
X115476432Y-95594910D01*
X115965513Y-95392826D01*
X116340031Y-95018961D01*
X116542968Y-94530234D01*
X116543430Y-94001048D01*
X116534219Y-93978755D01*
X135889890Y-93978755D01*
X135986360Y-94212228D01*
X136164832Y-94391013D01*
X136398137Y-94487889D01*
X136525405Y-94488000D01*
X136621360Y-94720228D01*
X136799832Y-94899013D01*
X137033137Y-94995889D01*
X137160405Y-94996000D01*
X137256360Y-95228228D01*
X137434832Y-95407013D01*
X137668137Y-95503889D01*
X137920755Y-95504110D01*
X138154228Y-95407640D01*
X138333013Y-95229168D01*
X138429889Y-94995863D01*
X138430110Y-94743245D01*
X138337828Y-94519908D01*
X138471337Y-94386400D01*
X139150664Y-94386400D01*
X139920632Y-95156368D01*
X140052477Y-95244465D01*
X140208000Y-95275400D01*
X148717000Y-95275400D01*
X148730539Y-95272707D01*
X148737832Y-95280013D01*
X148971137Y-95376889D01*
X149223755Y-95377110D01*
X149457228Y-95280640D01*
X149636013Y-95102168D01*
X149687937Y-94977120D01*
X149733137Y-94995889D01*
X149985755Y-94996110D01*
X150219228Y-94899640D01*
X150398013Y-94721168D01*
X150449937Y-94596120D01*
X150495137Y-94614889D01*
X150747755Y-94615110D01*
X150981228Y-94518640D01*
X151160013Y-94340168D01*
X151211937Y-94215120D01*
X151257137Y-94233889D01*
X151509755Y-94234110D01*
X151743228Y-94137640D01*
X151922013Y-93959168D01*
X152018889Y-93725863D01*
X152019110Y-93473245D01*
X151922640Y-93239772D01*
X151744168Y-93060987D01*
X151510863Y-92964111D01*
X151308674Y-92963934D01*
X151270759Y-92938600D01*
X151222023Y-92906035D01*
X151066500Y-92875100D01*
X148653500Y-92875100D01*
X148497977Y-92906035D01*
X148449241Y-92938600D01*
X148366132Y-92994132D01*
X148040664Y-93319600D01*
X141570139Y-93319600D01*
X141181170Y-92930632D01*
X141098061Y-92875100D01*
X141049325Y-92842535D01*
X140893802Y-92811600D01*
X137541000Y-92811600D01*
X137385477Y-92842535D01*
X137336741Y-92875100D01*
X137253632Y-92930632D01*
X136873939Y-93310325D01*
X136651863Y-93218111D01*
X136399245Y-93217890D01*
X136165772Y-93314360D01*
X135986987Y-93492832D01*
X135890111Y-93726137D01*
X135889890Y-93978755D01*
X116534219Y-93978755D01*
X116341346Y-93511967D01*
X115967481Y-93137449D01*
X115773200Y-93056777D01*
X115773200Y-91380345D01*
X115782757Y-91370805D01*
X115905600Y-91074967D01*
X115905880Y-90754638D01*
X115905749Y-90754321D01*
X115905880Y-90604638D01*
X115905749Y-90604321D01*
X115905880Y-90454638D01*
X115874570Y-90378862D01*
X116660605Y-90378862D01*
X116750704Y-90528870D01*
X117169278Y-90645444D01*
X117600601Y-90592963D01*
X117755336Y-90528870D01*
X117845435Y-90378862D01*
X117253020Y-89786447D01*
X116660605Y-90378862D01*
X115874570Y-90378862D01*
X115783554Y-90158587D01*
X115557245Y-89931883D01*
X115261407Y-89809040D01*
X114941078Y-89808760D01*
X114645027Y-89931086D01*
X114609251Y-89966800D01*
X114249200Y-89966800D01*
X114249200Y-89451258D01*
X116142576Y-89451258D01*
X116195057Y-89882581D01*
X116259150Y-90037316D01*
X116409158Y-90127415D01*
X117001573Y-89535000D01*
X117504467Y-89535000D01*
X118096882Y-90127415D01*
X118246890Y-90037316D01*
X118259332Y-89992642D01*
X118325538Y-90152873D01*
X118632511Y-90460382D01*
X119033795Y-90627010D01*
X119468299Y-90627389D01*
X119869873Y-90461462D01*
X120177382Y-90154489D01*
X120344010Y-89753205D01*
X120344312Y-89406755D01*
X130428890Y-89406755D01*
X130525360Y-89640228D01*
X130703832Y-89819013D01*
X130937137Y-89915889D01*
X131189755Y-89916110D01*
X131423228Y-89819640D01*
X131555700Y-89687400D01*
X132080000Y-89687400D01*
X132235523Y-89656465D01*
X132367368Y-89568368D01*
X132502336Y-89433400D01*
X143214664Y-89433400D01*
X145762632Y-91981368D01*
X145894478Y-92069466D01*
X146050000Y-92100400D01*
X147913664Y-92100400D01*
X147985132Y-92171868D01*
X148116977Y-92259965D01*
X148272500Y-92290900D01*
X148907500Y-92290900D01*
X149063023Y-92259965D01*
X149194868Y-92171868D01*
X149418789Y-91947947D01*
X149604755Y-91948110D01*
X149838228Y-91851640D01*
X150017013Y-91673168D01*
X150057039Y-91576775D01*
X150842632Y-92362368D01*
X150974477Y-92450465D01*
X151130000Y-92481400D01*
X159782449Y-92481400D01*
X159913832Y-92613013D01*
X160147137Y-92709889D01*
X160399755Y-92710110D01*
X160633228Y-92613640D01*
X160812013Y-92435168D01*
X160908889Y-92201863D01*
X160909110Y-91949245D01*
X160812640Y-91715772D01*
X160634168Y-91536987D01*
X160400863Y-91440111D01*
X160148245Y-91439890D01*
X159914772Y-91536360D01*
X159782300Y-91668600D01*
X151298336Y-91668600D01*
X150020368Y-90390632D01*
X149996030Y-90374370D01*
X149888523Y-90302535D01*
X149733000Y-90271600D01*
X148336000Y-90271600D01*
X148180477Y-90302535D01*
X148048632Y-90390632D01*
X147913664Y-90525600D01*
X146726336Y-90525600D01*
X145480491Y-89279755D01*
X147954890Y-89279755D01*
X148051360Y-89513228D01*
X148229832Y-89692013D01*
X148463137Y-89788889D01*
X148715755Y-89789110D01*
X148838965Y-89738200D01*
X150380016Y-89738200D01*
X151224908Y-90583092D01*
X151414436Y-90709730D01*
X151638000Y-90754200D01*
X153929063Y-90754200D01*
X154051137Y-90804889D01*
X154303755Y-90805110D01*
X154426965Y-90754200D01*
X168402000Y-90754200D01*
X168625564Y-90709730D01*
X168815092Y-90583092D01*
X168893068Y-90505116D01*
X169015228Y-90454640D01*
X169194013Y-90276168D01*
X169290889Y-90042863D01*
X169291110Y-89790245D01*
X169194640Y-89556772D01*
X169016168Y-89377987D01*
X168782863Y-89281111D01*
X168530245Y-89280890D01*
X168296772Y-89377360D01*
X168117987Y-89555832D01*
X168105543Y-89585800D01*
X154426937Y-89585800D01*
X154304863Y-89535111D01*
X154052245Y-89534890D01*
X153929035Y-89585800D01*
X151879984Y-89585800D01*
X151035092Y-88740908D01*
X151033182Y-88739632D01*
X150845564Y-88614270D01*
X150622000Y-88569800D01*
X148838937Y-88569800D01*
X148716863Y-88519111D01*
X148464245Y-88518890D01*
X148230772Y-88615360D01*
X148051987Y-88793832D01*
X147955111Y-89027137D01*
X147954890Y-89279755D01*
X145480491Y-89279755D01*
X144178368Y-87977632D01*
X144046523Y-87889535D01*
X143891000Y-87858600D01*
X134355100Y-87858600D01*
X134269640Y-87651772D01*
X134091168Y-87472987D01*
X133857863Y-87376111D01*
X133605245Y-87375890D01*
X133371772Y-87472360D01*
X133192987Y-87650832D01*
X133096111Y-87884137D01*
X133095890Y-88136755D01*
X133138385Y-88239600D01*
X132190551Y-88239600D01*
X132059168Y-88107987D01*
X131825863Y-88011111D01*
X131573245Y-88010890D01*
X131339772Y-88107360D01*
X131160987Y-88285832D01*
X131064111Y-88519137D01*
X131064000Y-88646000D01*
X130938245Y-88645890D01*
X130704772Y-88742360D01*
X130525987Y-88920832D01*
X130429111Y-89154137D01*
X130428890Y-89406755D01*
X120344312Y-89406755D01*
X120344389Y-89318701D01*
X120178462Y-88917127D01*
X119871489Y-88609618D01*
X119470205Y-88442990D01*
X119035701Y-88442611D01*
X118634127Y-88608538D01*
X118326618Y-88915511D01*
X118262407Y-89070147D01*
X118246890Y-89032684D01*
X118096882Y-88942585D01*
X117504467Y-89535000D01*
X117001573Y-89535000D01*
X117001573Y-89535000D01*
X116409158Y-88942585D01*
X116259150Y-89032684D01*
X116142576Y-89451258D01*
X114249200Y-89451258D01*
X114249200Y-88691138D01*
X116660605Y-88691138D01*
X117253020Y-89283553D01*
X117845435Y-88691138D01*
X117755336Y-88541130D01*
X117336762Y-88424556D01*
X116905439Y-88477037D01*
X116750704Y-88541130D01*
X116660605Y-88691138D01*
X114249200Y-88691138D01*
X114249200Y-87211299D01*
X116160631Y-87211299D01*
X116326558Y-87612873D01*
X116633531Y-87920382D01*
X117034815Y-88087010D01*
X117469319Y-88087389D01*
X117870893Y-87921462D01*
X118178402Y-87614489D01*
X118252486Y-87436074D01*
X118325538Y-87612873D01*
X118632511Y-87920382D01*
X119033795Y-88087010D01*
X119468299Y-88087389D01*
X119869873Y-87921462D01*
X120177382Y-87614489D01*
X120344010Y-87213205D01*
X120344389Y-86778701D01*
X120178462Y-86377127D01*
X119871489Y-86069618D01*
X119470205Y-85902990D01*
X119035701Y-85902611D01*
X118634127Y-86068538D01*
X118326618Y-86375511D01*
X118252534Y-86553926D01*
X118179482Y-86377127D01*
X117872509Y-86069618D01*
X117471225Y-85902990D01*
X117036721Y-85902611D01*
X116635147Y-86068538D01*
X116327638Y-86375511D01*
X116161010Y-86776795D01*
X116160631Y-87211299D01*
X114249200Y-87211299D01*
X114249200Y-86563200D01*
X114610776Y-86563200D01*
X114643835Y-86596317D01*
X114939673Y-86719160D01*
X115260002Y-86719440D01*
X115556053Y-86597114D01*
X115782757Y-86370805D01*
X115905600Y-86074967D01*
X115905880Y-85754638D01*
X115905749Y-85754321D01*
X115905880Y-85604638D01*
X115905749Y-85604321D01*
X115905880Y-85454638D01*
X115783554Y-85158587D01*
X115773200Y-85148215D01*
X115773200Y-84834755D01*
X130428890Y-84834755D01*
X130525360Y-85068228D01*
X130703832Y-85247013D01*
X130937137Y-85343889D01*
X131189755Y-85344110D01*
X131423228Y-85247640D01*
X131602013Y-85069168D01*
X131698889Y-84835863D01*
X131698978Y-84734400D01*
X136694356Y-84734400D01*
X136652111Y-84836137D01*
X136651890Y-85088755D01*
X136748360Y-85322228D01*
X136926832Y-85501013D01*
X137007389Y-85534463D01*
X136927772Y-85567360D01*
X136748987Y-85745832D01*
X136652111Y-85979137D01*
X136651890Y-86231755D01*
X136748360Y-86465228D01*
X136926832Y-86644013D01*
X137160137Y-86740889D01*
X137287000Y-86741000D01*
X137286890Y-86866755D01*
X137383360Y-87100228D01*
X137561832Y-87279013D01*
X137795137Y-87375889D01*
X138047755Y-87376110D01*
X138281228Y-87279640D01*
X138413700Y-87147400D01*
X138430000Y-87147400D01*
X138585523Y-87116465D01*
X138717368Y-87028368D01*
X139487336Y-86258400D01*
X150199664Y-86258400D01*
X152747632Y-88806368D01*
X152879478Y-88894466D01*
X153035000Y-88925400D01*
X169122664Y-88925400D01*
X169900600Y-89703336D01*
X169900600Y-92922664D01*
X169765632Y-93057632D01*
X169677535Y-93189477D01*
X169646600Y-93345000D01*
X169646600Y-93853000D01*
X169677535Y-94008523D01*
X169760307Y-94132399D01*
X169765632Y-94140368D01*
X170027600Y-94402336D01*
X170027600Y-97536000D01*
X170058535Y-97691523D01*
X170138256Y-97810832D01*
X170146632Y-97823368D01*
X170281600Y-97958336D01*
X170281600Y-98393090D01*
X170052863Y-98298111D01*
X169800245Y-98297890D01*
X169566772Y-98394360D01*
X169387987Y-98572832D01*
X169291111Y-98806137D01*
X169290890Y-99058755D01*
X169387360Y-99292228D01*
X169565832Y-99471013D01*
X169799137Y-99567889D01*
X170051755Y-99568110D01*
X170156388Y-99524876D01*
X169986211Y-99695053D01*
X169800245Y-99694890D01*
X169566772Y-99791360D01*
X169387987Y-99969832D01*
X169291111Y-100203137D01*
X169290890Y-100455755D01*
X169387360Y-100689228D01*
X169565832Y-100868013D01*
X169799137Y-100964889D01*
X170051755Y-100965110D01*
X170285228Y-100868640D01*
X170464013Y-100690168D01*
X170560889Y-100456863D01*
X170561053Y-100269683D01*
X170662600Y-100168136D01*
X170662600Y-101981000D01*
X170688110Y-102109249D01*
X170687890Y-102360755D01*
X170784360Y-102594228D01*
X170962832Y-102773013D01*
X171196137Y-102869889D01*
X171448755Y-102870110D01*
X171682228Y-102773640D01*
X171861013Y-102595168D01*
X171957889Y-102361863D01*
X171958110Y-102109245D01*
X171861640Y-101875772D01*
X171683168Y-101696987D01*
X171475400Y-101610715D01*
X171475400Y-97874644D01*
X171577137Y-97916889D01*
X171829755Y-97917110D01*
X172063228Y-97820640D01*
X172242013Y-97642168D01*
X172338889Y-97408863D01*
X172339110Y-97156245D01*
X172242640Y-96922772D01*
X172064168Y-96743987D01*
X171830863Y-96647111D01*
X171643684Y-96646947D01*
X171602400Y-96605664D01*
X171602400Y-94656336D01*
X171991368Y-94267369D01*
X172079465Y-94135523D01*
X172080086Y-94132399D01*
X172110400Y-93980000D01*
X172110400Y-93091000D01*
X172079465Y-92935477D01*
X171991368Y-92803632D01*
X171856400Y-92668664D01*
X171856400Y-88773000D01*
X171825465Y-88617477D01*
X171737368Y-88485632D01*
X170340368Y-87088632D01*
X170208523Y-87000535D01*
X170053000Y-86969600D01*
X153965336Y-86969600D01*
X153933805Y-86938069D01*
X154029228Y-86898640D01*
X154208013Y-86720168D01*
X154304889Y-86486863D01*
X154305110Y-86234245D01*
X154208640Y-86000772D01*
X154030168Y-85821987D01*
X153796863Y-85725111D01*
X153544245Y-85724890D01*
X153410775Y-85780039D01*
X151671368Y-84040632D01*
X151539523Y-83952535D01*
X151384000Y-83921600D01*
X131445000Y-83921600D01*
X131289477Y-83952535D01*
X131157632Y-84040632D01*
X131124211Y-84074053D01*
X130938245Y-84073890D01*
X130704772Y-84170360D01*
X130525987Y-84348832D01*
X130429111Y-84582137D01*
X130428890Y-84834755D01*
X115773200Y-84834755D01*
X115773200Y-83473328D01*
X115965513Y-83393866D01*
X116175990Y-83183755D01*
X119252890Y-83183755D01*
X119349360Y-83417228D01*
X119527832Y-83596013D01*
X119761137Y-83692889D01*
X120013755Y-83693110D01*
X120247228Y-83596640D01*
X120379700Y-83464400D01*
X126254449Y-83464400D01*
X126385832Y-83596013D01*
X126619137Y-83692889D01*
X126871755Y-83693110D01*
X127105228Y-83596640D01*
X127284013Y-83418168D01*
X127380889Y-83184863D01*
X127381110Y-82932245D01*
X127284640Y-82698772D01*
X127106168Y-82519987D01*
X126872863Y-82423111D01*
X126620245Y-82422890D01*
X126386772Y-82519360D01*
X126254300Y-82651600D01*
X120379551Y-82651600D01*
X120248168Y-82519987D01*
X120014863Y-82423111D01*
X119762245Y-82422890D01*
X119528772Y-82519360D01*
X119349987Y-82697832D01*
X119253111Y-82931137D01*
X119252890Y-83183755D01*
X116175990Y-83183755D01*
X116340031Y-83020001D01*
X116542968Y-82531274D01*
X116543430Y-82002088D01*
X116341346Y-81513007D01*
X115967481Y-81138489D01*
X115478754Y-80935552D01*
X114949568Y-80935090D01*
X114949104Y-80935282D01*
X114729568Y-80935090D01*
X114729104Y-80935282D01*
X114509568Y-80935090D01*
X114509104Y-80935282D01*
X114289568Y-80935090D01*
X114289104Y-80935282D01*
X114069568Y-80935090D01*
X114069104Y-80935282D01*
X113849568Y-80935090D01*
X113849104Y-80935282D01*
X113629568Y-80935090D01*
X113593967Y-80949800D01*
X111403200Y-80949800D01*
X111403200Y-73430200D01*
X125218851Y-73430200D01*
X124901669Y-73561257D01*
G36*
X112765969Y-81511039D02*
X112563032Y-81999766D01*
X112562570Y-82528952D01*
X112764654Y-83018033D01*
X113138519Y-83392551D01*
X113627246Y-83595488D01*
X114156432Y-83595950D01*
X114156896Y-83595758D01*
X114376432Y-83595950D01*
X114376896Y-83595758D01*
X114596432Y-83595950D01*
X114596896Y-83595758D01*
X114816432Y-83595950D01*
X114816896Y-83595758D01*
X115036432Y-83595950D01*
X115036896Y-83595758D01*
X115256432Y-83595950D01*
X115256896Y-83595758D01*
X115366800Y-83595854D01*
X115366800Y-84852803D01*
X115261407Y-84809040D01*
X114941078Y-84808760D01*
X114645027Y-84931086D01*
X114418323Y-85157395D01*
X114295480Y-85453233D01*
X114295200Y-85773562D01*
X114295331Y-85773879D01*
X114295200Y-85923562D01*
X114295331Y-85923879D01*
X114295200Y-86073562D01*
X114329593Y-86156800D01*
X113919000Y-86156800D01*
X113889840Y-86162600D01*
X113865118Y-86179118D01*
X113848600Y-86203840D01*
X113842800Y-86233000D01*
X113842800Y-90297000D01*
X113848600Y-90326160D01*
X113865118Y-90350882D01*
X113889840Y-90367400D01*
X113919000Y-90373200D01*
X114328713Y-90373200D01*
X114295480Y-90453233D01*
X114295200Y-90773562D01*
X114295331Y-90773879D01*
X114295200Y-90923562D01*
X114295331Y-90923879D01*
X114295200Y-91073562D01*
X114417526Y-91369613D01*
X114643835Y-91596317D01*
X114939673Y-91719160D01*
X115260002Y-91719440D01*
X115366800Y-91675312D01*
X115366800Y-92934414D01*
X114949568Y-92934050D01*
X114949104Y-92934242D01*
X114729568Y-92934050D01*
X114729104Y-92934242D01*
X114509568Y-92934050D01*
X114509104Y-92934242D01*
X114289568Y-92934050D01*
X114289104Y-92934242D01*
X114069568Y-92934050D01*
X114069104Y-92934242D01*
X113849568Y-92934050D01*
X113849104Y-92934242D01*
X113629568Y-92934050D01*
X113140487Y-93136134D01*
X112765969Y-93509999D01*
X112563032Y-93998726D01*
X112562570Y-94527912D01*
X112764654Y-95016993D01*
X112921188Y-95173800D01*
X111403200Y-95173800D01*
X111403200Y-92265692D01*
X111604655Y-92467499D01*
X111909678Y-92594156D01*
X112239953Y-92594444D01*
X112240295Y-92594303D01*
X112402453Y-92594444D01*
X112402795Y-92594303D01*
X112564953Y-92594444D01*
X112565300Y-92594300D01*
X112729953Y-92594444D01*
X112730300Y-92594300D01*
X112894953Y-92594444D01*
X113200196Y-92468320D01*
X113433939Y-92234985D01*
X113560596Y-91929962D01*
X113560884Y-91599687D01*
X113434760Y-91294444D01*
X113201425Y-91060701D01*
X112896402Y-90934044D01*
X112566127Y-90933756D01*
X112565780Y-90933900D01*
X112401127Y-90933756D01*
X112400780Y-90933900D01*
X112236127Y-90933756D01*
X112235785Y-90933897D01*
X112073627Y-90933756D01*
X112073285Y-90933897D01*
X111911127Y-90933756D01*
X111605884Y-91059880D01*
X111403200Y-91262210D01*
X111403200Y-85265692D01*
X111604655Y-85467499D01*
X111909678Y-85594156D01*
X112239953Y-85594444D01*
X112240295Y-85594303D01*
X112402453Y-85594444D01*
X112402795Y-85594303D01*
X112564953Y-85594444D01*
X112565295Y-85594303D01*
X112727453Y-85594444D01*
X112727795Y-85594303D01*
X112889953Y-85594444D01*
X113195196Y-85468320D01*
X113428939Y-85234985D01*
X113555596Y-84929962D01*
X113555884Y-84599687D01*
X113429760Y-84294444D01*
X113196425Y-84060701D01*
X112891402Y-83934044D01*
X112561127Y-83933756D01*
X112560785Y-83933897D01*
X112398627Y-83933756D01*
X112398285Y-83933897D01*
X112236127Y-83933756D01*
X112235785Y-83933897D01*
X112073627Y-83933756D01*
X112073285Y-83933897D01*
X111911127Y-83933756D01*
X111605884Y-84059880D01*
X111403200Y-84262210D01*
X111403200Y-81356200D01*
X112921078Y-81356200D01*
X112765969Y-81511039D01*
X112765969Y-81511039D01*
G37*
X112765969Y-81511039D02*
X112563032Y-81999766D01*
X112562570Y-82528952D01*
X112764654Y-83018033D01*
X113138519Y-83392551D01*
X113627246Y-83595488D01*
X114156432Y-83595950D01*
X114156896Y-83595758D01*
X114376432Y-83595950D01*
X114376896Y-83595758D01*
X114596432Y-83595950D01*
X114596896Y-83595758D01*
X114816432Y-83595950D01*
X114816896Y-83595758D01*
X115036432Y-83595950D01*
X115036896Y-83595758D01*
X115256432Y-83595950D01*
X115256896Y-83595758D01*
X115366800Y-83595854D01*
X115366800Y-84852803D01*
X115261407Y-84809040D01*
X114941078Y-84808760D01*
X114645027Y-84931086D01*
X114418323Y-85157395D01*
X114295480Y-85453233D01*
X114295200Y-85773562D01*
X114295331Y-85773879D01*
X114295200Y-85923562D01*
X114295331Y-85923879D01*
X114295200Y-86073562D01*
X114329593Y-86156800D01*
X113919000Y-86156800D01*
X113889840Y-86162600D01*
X113865118Y-86179118D01*
X113848600Y-86203840D01*
X113842800Y-86233000D01*
X113842800Y-90297000D01*
X113848600Y-90326160D01*
X113865118Y-90350882D01*
X113889840Y-90367400D01*
X113919000Y-90373200D01*
X114328713Y-90373200D01*
X114295480Y-90453233D01*
X114295200Y-90773562D01*
X114295331Y-90773879D01*
X114295200Y-90923562D01*
X114295331Y-90923879D01*
X114295200Y-91073562D01*
X114417526Y-91369613D01*
X114643835Y-91596317D01*
X114939673Y-91719160D01*
X115260002Y-91719440D01*
X115366800Y-91675312D01*
X115366800Y-92934414D01*
X114949568Y-92934050D01*
X114949104Y-92934242D01*
X114729568Y-92934050D01*
X114729104Y-92934242D01*
X114509568Y-92934050D01*
X114509104Y-92934242D01*
X114289568Y-92934050D01*
X114289104Y-92934242D01*
X114069568Y-92934050D01*
X114069104Y-92934242D01*
X113849568Y-92934050D01*
X113849104Y-92934242D01*
X113629568Y-92934050D01*
X113140487Y-93136134D01*
X112765969Y-93509999D01*
X112563032Y-93998726D01*
X112562570Y-94527912D01*
X112764654Y-95016993D01*
X112921188Y-95173800D01*
X111403200Y-95173800D01*
X111403200Y-92265692D01*
X111604655Y-92467499D01*
X111909678Y-92594156D01*
X112239953Y-92594444D01*
X112240295Y-92594303D01*
X112402453Y-92594444D01*
X112402795Y-92594303D01*
X112564953Y-92594444D01*
X112565300Y-92594300D01*
X112729953Y-92594444D01*
X112730300Y-92594300D01*
X112894953Y-92594444D01*
X113200196Y-92468320D01*
X113433939Y-92234985D01*
X113560596Y-91929962D01*
X113560884Y-91599687D01*
X113434760Y-91294444D01*
X113201425Y-91060701D01*
X112896402Y-90934044D01*
X112566127Y-90933756D01*
X112565780Y-90933900D01*
X112401127Y-90933756D01*
X112400780Y-90933900D01*
X112236127Y-90933756D01*
X112235785Y-90933897D01*
X112073627Y-90933756D01*
X112073285Y-90933897D01*
X111911127Y-90933756D01*
X111605884Y-91059880D01*
X111403200Y-91262210D01*
X111403200Y-85265692D01*
X111604655Y-85467499D01*
X111909678Y-85594156D01*
X112239953Y-85594444D01*
X112240295Y-85594303D01*
X112402453Y-85594444D01*
X112402795Y-85594303D01*
X112564953Y-85594444D01*
X112565295Y-85594303D01*
X112727453Y-85594444D01*
X112727795Y-85594303D01*
X112889953Y-85594444D01*
X113195196Y-85468320D01*
X113428939Y-85234985D01*
X113555596Y-84929962D01*
X113555884Y-84599687D01*
X113429760Y-84294444D01*
X113196425Y-84060701D01*
X112891402Y-83934044D01*
X112561127Y-83933756D01*
X112560785Y-83933897D01*
X112398627Y-83933756D01*
X112398285Y-83933897D01*
X112236127Y-83933756D01*
X112235785Y-83933897D01*
X112073627Y-83933756D01*
X112073285Y-83933897D01*
X111911127Y-83933756D01*
X111605884Y-84059880D01*
X111403200Y-84262210D01*
X111403200Y-81356200D01*
X112921078Y-81356200D01*
X112765969Y-81511039D01*
D24*
G36*
X160942486Y-110703092D02*
X160962268Y-110750967D01*
X161155018Y-110944054D01*
X161203637Y-110964242D01*
X161798000Y-111558605D01*
X161798000Y-113659934D01*
X161747319Y-113781987D01*
X161747081Y-114054816D01*
X161798000Y-114178049D01*
X161798000Y-114553994D01*
X161797999Y-114554000D01*
X161807667Y-114602601D01*
X161835197Y-114643803D01*
X165010197Y-117818803D01*
X165051399Y-117846333D01*
X165100000Y-117856001D01*
X165100000Y-117856000D01*
X171143394Y-117856000D01*
X173575728Y-120288333D01*
X173348140Y-120628943D01*
X173345296Y-120643243D01*
X173249954Y-120370680D01*
X172860036Y-119934268D01*
X172332791Y-119680291D01*
X172317026Y-119677642D01*
X172085000Y-119798783D01*
X172085000Y-121158000D01*
X172105000Y-121158000D01*
X172105000Y-121412000D01*
X172085000Y-121412000D01*
X172085000Y-121432000D01*
X171831000Y-121432000D01*
X171831000Y-121412000D01*
X171811000Y-121412000D01*
X171811000Y-121158000D01*
X171831000Y-121158000D01*
X171831000Y-119798783D01*
X171598974Y-119677642D01*
X171583209Y-119680291D01*
X171055964Y-119934268D01*
X170666046Y-120370680D01*
X170570704Y-120643243D01*
X170567860Y-120628943D01*
X170298065Y-120225166D01*
X169894288Y-119955371D01*
X169418000Y-119860631D01*
X168941712Y-119955371D01*
X168537935Y-120225166D01*
X168268140Y-120628943D01*
X168173400Y-121105231D01*
X168173400Y-121464769D01*
X168268140Y-121941057D01*
X168537935Y-122344834D01*
X168852471Y-122555000D01*
X168537935Y-122765166D01*
X168268140Y-123168943D01*
X168173400Y-123645231D01*
X168173400Y-124004769D01*
X168268140Y-124481057D01*
X168537935Y-124884834D01*
X168941712Y-125154629D01*
X169418000Y-125249369D01*
X169894288Y-125154629D01*
X170298065Y-124884834D01*
X170567860Y-124481057D01*
X170662600Y-124004769D01*
X170662600Y-123645231D01*
X170567860Y-123168943D01*
X170298065Y-122765166D01*
X169983529Y-122555000D01*
X170298065Y-122344834D01*
X170567860Y-121941057D01*
X170570704Y-121926757D01*
X170666046Y-122199320D01*
X171055964Y-122635732D01*
X171181294Y-122696104D01*
X171077935Y-122765166D01*
X170808140Y-123168943D01*
X170713400Y-123645231D01*
X170713400Y-124004769D01*
X170808140Y-124481057D01*
X171077935Y-124884834D01*
X171481712Y-125154629D01*
X171958000Y-125249369D01*
X172434288Y-125154629D01*
X172838065Y-124884834D01*
X173107860Y-124481057D01*
X173202600Y-124004769D01*
X173202600Y-123645231D01*
X173107860Y-123168943D01*
X172838065Y-122765166D01*
X172734706Y-122696104D01*
X172860036Y-122635732D01*
X173249954Y-122199320D01*
X173345296Y-121926757D01*
X173348140Y-121941057D01*
X173617935Y-122344834D01*
X173932471Y-122555000D01*
X173617935Y-122765166D01*
X173348140Y-123168943D01*
X173253400Y-123645231D01*
X173253400Y-124004769D01*
X173348140Y-124481057D01*
X173617935Y-124884834D01*
X174021712Y-125154629D01*
X174498000Y-125249369D01*
X174974288Y-125154629D01*
X175378065Y-124884834D01*
X175647860Y-124481057D01*
X175742600Y-124004769D01*
X175742600Y-123645231D01*
X175647860Y-123168943D01*
X175378065Y-122765166D01*
X175063529Y-122555000D01*
X175378065Y-122344834D01*
X175479869Y-122192474D01*
X176657000Y-123369605D01*
X176657000Y-123590199D01*
X176616711Y-123650496D01*
X176582000Y-123825000D01*
X176582000Y-125909000D01*
X160020000Y-125909000D01*
X160020000Y-121105231D01*
X160553400Y-121105231D01*
X160553400Y-121464769D01*
X160648140Y-121941057D01*
X160917935Y-122344834D01*
X161232471Y-122555000D01*
X160917935Y-122765166D01*
X160648140Y-123168943D01*
X160553400Y-123645231D01*
X160553400Y-124004769D01*
X160648140Y-124481057D01*
X160917935Y-124884834D01*
X161321712Y-125154629D01*
X161798000Y-125249369D01*
X162274288Y-125154629D01*
X162678065Y-124884834D01*
X162947860Y-124481057D01*
X163042600Y-124004769D01*
X163042600Y-123645231D01*
X162947860Y-123168943D01*
X162678065Y-122765166D01*
X162363529Y-122555000D01*
X162678065Y-122344834D01*
X162947860Y-121941057D01*
X163042600Y-121464769D01*
X163042600Y-121105231D01*
X163093400Y-121105231D01*
X163093400Y-121464769D01*
X163188140Y-121941057D01*
X163457935Y-122344834D01*
X163772471Y-122555000D01*
X163457935Y-122765166D01*
X163188140Y-123168943D01*
X163093400Y-123645231D01*
X163093400Y-124004769D01*
X163188140Y-124481057D01*
X163457935Y-124884834D01*
X163861712Y-125154629D01*
X164338000Y-125249369D01*
X164814288Y-125154629D01*
X165218065Y-124884834D01*
X165487860Y-124481057D01*
X165582600Y-124004769D01*
X165582600Y-123645231D01*
X165487860Y-123168943D01*
X165218065Y-122765166D01*
X164903529Y-122555000D01*
X165218065Y-122344834D01*
X165487860Y-121941057D01*
X165582600Y-121464769D01*
X165582600Y-121105231D01*
X165633400Y-121105231D01*
X165633400Y-121464769D01*
X165728140Y-121941057D01*
X165997935Y-122344834D01*
X166312471Y-122555000D01*
X165997935Y-122765166D01*
X165728140Y-123168943D01*
X165633400Y-123645231D01*
X165633400Y-124004769D01*
X165728140Y-124481057D01*
X165997935Y-124884834D01*
X166401712Y-125154629D01*
X166878000Y-125249369D01*
X167354288Y-125154629D01*
X167758065Y-124884834D01*
X168027860Y-124481057D01*
X168122600Y-124004769D01*
X168122600Y-123645231D01*
X168027860Y-123168943D01*
X167758065Y-122765166D01*
X167443529Y-122555000D01*
X167758065Y-122344834D01*
X168027860Y-121941057D01*
X168122600Y-121464769D01*
X168122600Y-121105231D01*
X168027860Y-120628943D01*
X167758065Y-120225166D01*
X167354288Y-119955371D01*
X166878000Y-119860631D01*
X166401712Y-119955371D01*
X165997935Y-120225166D01*
X165728140Y-120628943D01*
X165633400Y-121105231D01*
X165582600Y-121105231D01*
X165582600Y-121105231D01*
X165487860Y-120628943D01*
X165218065Y-120225166D01*
X164814288Y-119955371D01*
X164338000Y-119860631D01*
X163861712Y-119955371D01*
X163457935Y-120225166D01*
X163188140Y-120628943D01*
X163093400Y-121105231D01*
X163042600Y-121105231D01*
X163042600Y-121105231D01*
X162947860Y-120628943D01*
X162678065Y-120225166D01*
X162274288Y-119955371D01*
X161798000Y-119860631D01*
X161321712Y-119955371D01*
X160917935Y-120225166D01*
X160648140Y-120628943D01*
X160553400Y-121105231D01*
X160020000Y-121105231D01*
X160020000Y-121031000D01*
X160020001Y-121031000D01*
X160010333Y-120982399D01*
X159982803Y-120941198D01*
X159982803Y-120941197D01*
X159982799Y-120941194D01*
X158077803Y-119036197D01*
X158036601Y-119008667D01*
X157988000Y-118998999D01*
X157987994Y-118999000D01*
X154484606Y-118999000D01*
X153505803Y-118020197D01*
X153464601Y-117992667D01*
X153416000Y-117982999D01*
X153415994Y-117983000D01*
X149150605Y-117983000D01*
X144907000Y-113739394D01*
X144907000Y-111431605D01*
X146102605Y-110236000D01*
X160475394Y-110236000D01*
X160942486Y-110703092D01*
X160942486Y-110703092D01*
G37*
X160942486Y-110703092D02*
X160962268Y-110750967D01*
X161155018Y-110944054D01*
X161203637Y-110964242D01*
X161798000Y-111558605D01*
X161798000Y-113659934D01*
X161747319Y-113781987D01*
X161747081Y-114054816D01*
X161798000Y-114178049D01*
X161798000Y-114553994D01*
X161797999Y-114554000D01*
X161807667Y-114602601D01*
X161835197Y-114643803D01*
X165010197Y-117818803D01*
X165051399Y-117846333D01*
X165100000Y-117856001D01*
X165100000Y-117856000D01*
X171143394Y-117856000D01*
X173575728Y-120288333D01*
X173348140Y-120628943D01*
X173345296Y-120643243D01*
X173249954Y-120370680D01*
X172860036Y-119934268D01*
X172332791Y-119680291D01*
X172317026Y-119677642D01*
X172085000Y-119798783D01*
X172085000Y-121158000D01*
X172105000Y-121158000D01*
X172105000Y-121412000D01*
X172085000Y-121412000D01*
X172085000Y-121432000D01*
X171831000Y-121432000D01*
X171831000Y-121412000D01*
X171811000Y-121412000D01*
X171811000Y-121158000D01*
X171831000Y-121158000D01*
X171831000Y-119798783D01*
X171598974Y-119677642D01*
X171583209Y-119680291D01*
X171055964Y-119934268D01*
X170666046Y-120370680D01*
X170570704Y-120643243D01*
X170567860Y-120628943D01*
X170298065Y-120225166D01*
X169894288Y-119955371D01*
X169418000Y-119860631D01*
X168941712Y-119955371D01*
X168537935Y-120225166D01*
X168268140Y-120628943D01*
X168173400Y-121105231D01*
X168173400Y-121464769D01*
X168268140Y-121941057D01*
X168537935Y-122344834D01*
X168852471Y-122555000D01*
X168537935Y-122765166D01*
X168268140Y-123168943D01*
X168173400Y-123645231D01*
X168173400Y-124004769D01*
X168268140Y-124481057D01*
X168537935Y-124884834D01*
X168941712Y-125154629D01*
X169418000Y-125249369D01*
X169894288Y-125154629D01*
X170298065Y-124884834D01*
X170567860Y-124481057D01*
X170662600Y-124004769D01*
X170662600Y-123645231D01*
X170567860Y-123168943D01*
X170298065Y-122765166D01*
X169983529Y-122555000D01*
X170298065Y-122344834D01*
X170567860Y-121941057D01*
X170570704Y-121926757D01*
X170666046Y-122199320D01*
X171055964Y-122635732D01*
X171181294Y-122696104D01*
X171077935Y-122765166D01*
X170808140Y-123168943D01*
X170713400Y-123645231D01*
X170713400Y-124004769D01*
X170808140Y-124481057D01*
X171077935Y-124884834D01*
X171481712Y-125154629D01*
X171958000Y-125249369D01*
X172434288Y-125154629D01*
X172838065Y-124884834D01*
X173107860Y-124481057D01*
X173202600Y-124004769D01*
X173202600Y-123645231D01*
X173107860Y-123168943D01*
X172838065Y-122765166D01*
X172734706Y-122696104D01*
X172860036Y-122635732D01*
X173249954Y-122199320D01*
X173345296Y-121926757D01*
X173348140Y-121941057D01*
X173617935Y-122344834D01*
X173932471Y-122555000D01*
X173617935Y-122765166D01*
X173348140Y-123168943D01*
X173253400Y-123645231D01*
X173253400Y-124004769D01*
X173348140Y-124481057D01*
X173617935Y-124884834D01*
X174021712Y-125154629D01*
X174498000Y-125249369D01*
X174974288Y-125154629D01*
X175378065Y-124884834D01*
X175647860Y-124481057D01*
X175742600Y-124004769D01*
X175742600Y-123645231D01*
X175647860Y-123168943D01*
X175378065Y-122765166D01*
X175063529Y-122555000D01*
X175378065Y-122344834D01*
X175479869Y-122192474D01*
X176657000Y-123369605D01*
X176657000Y-123590199D01*
X176616711Y-123650496D01*
X176582000Y-123825000D01*
X176582000Y-125909000D01*
X160020000Y-125909000D01*
X160020000Y-121105231D01*
X160553400Y-121105231D01*
X160553400Y-121464769D01*
X160648140Y-121941057D01*
X160917935Y-122344834D01*
X161232471Y-122555000D01*
X160917935Y-122765166D01*
X160648140Y-123168943D01*
X160553400Y-123645231D01*
X160553400Y-124004769D01*
X160648140Y-124481057D01*
X160917935Y-124884834D01*
X161321712Y-125154629D01*
X161798000Y-125249369D01*
X162274288Y-125154629D01*
X162678065Y-124884834D01*
X162947860Y-124481057D01*
X163042600Y-124004769D01*
X163042600Y-123645231D01*
X162947860Y-123168943D01*
X162678065Y-122765166D01*
X162363529Y-122555000D01*
X162678065Y-122344834D01*
X162947860Y-121941057D01*
X163042600Y-121464769D01*
X163042600Y-121105231D01*
X163093400Y-121105231D01*
X163093400Y-121464769D01*
X163188140Y-121941057D01*
X163457935Y-122344834D01*
X163772471Y-122555000D01*
X163457935Y-122765166D01*
X163188140Y-123168943D01*
X163093400Y-123645231D01*
X163093400Y-124004769D01*
X163188140Y-124481057D01*
X163457935Y-124884834D01*
X163861712Y-125154629D01*
X164338000Y-125249369D01*
X164814288Y-125154629D01*
X165218065Y-124884834D01*
X165487860Y-124481057D01*
X165582600Y-124004769D01*
X165582600Y-123645231D01*
X165487860Y-123168943D01*
X165218065Y-122765166D01*
X164903529Y-122555000D01*
X165218065Y-122344834D01*
X165487860Y-121941057D01*
X165582600Y-121464769D01*
X165582600Y-121105231D01*
X165633400Y-121105231D01*
X165633400Y-121464769D01*
X165728140Y-121941057D01*
X165997935Y-122344834D01*
X166312471Y-122555000D01*
X165997935Y-122765166D01*
X165728140Y-123168943D01*
X165633400Y-123645231D01*
X165633400Y-124004769D01*
X165728140Y-124481057D01*
X165997935Y-124884834D01*
X166401712Y-125154629D01*
X166878000Y-125249369D01*
X167354288Y-125154629D01*
X167758065Y-124884834D01*
X168027860Y-124481057D01*
X168122600Y-124004769D01*
X168122600Y-123645231D01*
X168027860Y-123168943D01*
X167758065Y-122765166D01*
X167443529Y-122555000D01*
X167758065Y-122344834D01*
X168027860Y-121941057D01*
X168122600Y-121464769D01*
X168122600Y-121105231D01*
X168027860Y-120628943D01*
X167758065Y-120225166D01*
X167354288Y-119955371D01*
X166878000Y-119860631D01*
X166401712Y-119955371D01*
X165997935Y-120225166D01*
X165728140Y-120628943D01*
X165633400Y-121105231D01*
X165582600Y-121105231D01*
X165582600Y-121105231D01*
X165487860Y-120628943D01*
X165218065Y-120225166D01*
X164814288Y-119955371D01*
X164338000Y-119860631D01*
X163861712Y-119955371D01*
X163457935Y-120225166D01*
X163188140Y-120628943D01*
X163093400Y-121105231D01*
X163042600Y-121105231D01*
X163042600Y-121105231D01*
X162947860Y-120628943D01*
X162678065Y-120225166D01*
X162274288Y-119955371D01*
X161798000Y-119860631D01*
X161321712Y-119955371D01*
X160917935Y-120225166D01*
X160648140Y-120628943D01*
X160553400Y-121105231D01*
X160020000Y-121105231D01*
X160020000Y-121031000D01*
X160020001Y-121031000D01*
X160010333Y-120982399D01*
X159982803Y-120941198D01*
X159982803Y-120941197D01*
X159982799Y-120941194D01*
X158077803Y-119036197D01*
X158036601Y-119008667D01*
X157988000Y-118998999D01*
X157987994Y-118999000D01*
X154484606Y-118999000D01*
X153505803Y-118020197D01*
X153464601Y-117992667D01*
X153416000Y-117982999D01*
X153415994Y-117983000D01*
X149150605Y-117983000D01*
X144907000Y-113739394D01*
X144907000Y-111431605D01*
X146102605Y-110236000D01*
X160475394Y-110236000D01*
X160942486Y-110703092D01*
M02*
