G04 #@! TF.FileFunction,Copper,L2,Bot,Signal*
%FSLAX46Y46*%
G04 Gerber Fmt 4.6, Leading zero omitted, Abs format (unit mm)*
G04 Created by KiCad (PCBNEW (2015-07-11 BZR 5925, Git c291b88)-product) date 2015/12/21 0:47:31*
%MOMM*%
G01*
G04 APERTURE LIST*
%ADD10C,0.100000*%
%ADD11C,0.150000*%
%ADD12C,1.727200*%
%ADD13C,2.000000*%
%ADD14C,1.000000*%
%ADD15C,0.950000*%
%ADD16C,4.064000*%
%ADD17R,1.727200X1.727200*%
%ADD18O,1.727200X1.727200*%
%ADD19C,1.524000*%
%ADD20C,0.609600*%
%ADD21C,0.508000*%
%ADD22C,0.152400*%
%ADD23C,0.254000*%
G04 APERTURE END LIST*
D10*
D11*
X177038000Y-74549000D02*
X175514000Y-73025000D01*
X177038000Y-85979000D02*
X177038000Y-74549000D01*
X179578000Y-88519000D02*
X177038000Y-85979000D01*
X179578000Y-121285000D02*
X179578000Y-88519000D01*
X177038000Y-123825000D02*
X179578000Y-121285000D01*
X177038000Y-126365000D02*
X177038000Y-123825000D01*
X110998000Y-126365000D02*
X177038000Y-126365000D01*
X110998000Y-73025000D02*
X110998000Y-126365000D01*
X175514000Y-73025000D02*
X110998000Y-73025000D01*
D12*
X161798000Y-121285000D03*
X164338000Y-121285000D03*
X166878000Y-121285000D03*
X169418000Y-121285000D03*
X171958000Y-121285000D03*
X174498000Y-121285000D03*
X161798000Y-123825000D03*
X164338000Y-123825000D03*
X166878000Y-123825000D03*
X169418000Y-123825000D03*
X171958000Y-123825000D03*
X174498000Y-123825000D03*
X138938000Y-123825000D03*
X141478000Y-123825000D03*
X144018000Y-123825000D03*
X146558000Y-123825000D03*
X149098000Y-123825000D03*
X151638000Y-123825000D03*
X154178000Y-123825000D03*
X156718000Y-123825000D03*
X156718000Y-75565000D03*
X159258000Y-75565000D03*
X161798000Y-75565000D03*
X164338000Y-75565000D03*
X166878000Y-75565000D03*
X169418000Y-75565000D03*
X171958000Y-75565000D03*
X174498000Y-75565000D03*
X138938000Y-121285000D03*
X141478000Y-121285000D03*
X144018000Y-121285000D03*
X146558000Y-121285000D03*
X149098000Y-121285000D03*
X151638000Y-121285000D03*
X154178000Y-121285000D03*
X156718000Y-121285000D03*
X156718000Y-78105000D03*
X159258000Y-78105000D03*
X161798000Y-78105000D03*
X164338000Y-78105000D03*
X166878000Y-78105000D03*
X169418000Y-78105000D03*
X171958000Y-78105000D03*
X174498000Y-78105000D03*
X129794000Y-75565000D03*
X132334000Y-75565000D03*
X134874000Y-75565000D03*
X137414000Y-75565000D03*
X139954000Y-75565000D03*
X142494000Y-75565000D03*
X145034000Y-75565000D03*
X147574000Y-75565000D03*
X150114000Y-75565000D03*
X152654000Y-75565000D03*
X129794000Y-78105000D03*
X132334000Y-78105000D03*
X134874000Y-78105000D03*
X137414000Y-78105000D03*
X139954000Y-78105000D03*
X142494000Y-78105000D03*
X145034000Y-78105000D03*
X147574000Y-78105000D03*
X150114000Y-78105000D03*
X152654000Y-78105000D03*
D13*
X119008400Y-123444000D03*
X118758400Y-123444000D03*
X118508400Y-123444000D03*
X118258400Y-123444000D03*
X117008400Y-123444000D03*
X117258400Y-123444000D03*
X117508400Y-123444000D03*
X117758400Y-123444000D03*
X115008660Y-119745000D03*
X115008660Y-119495000D03*
X115008660Y-119245000D03*
X115008660Y-118995000D03*
X115008660Y-117745000D03*
X115008660Y-117995000D03*
X115008660Y-118245000D03*
X115008660Y-118495000D03*
X121008140Y-119745000D03*
X121008140Y-119495000D03*
X121008140Y-119245000D03*
X121008140Y-118995000D03*
X121008140Y-117745000D03*
X121008140Y-117995000D03*
X121008140Y-118245000D03*
X121008140Y-118495000D03*
X121008140Y-118745000D03*
X115008660Y-118745000D03*
X118008400Y-123444000D03*
D14*
X112075540Y-91764100D03*
X112238040Y-91764100D03*
X112730540Y-91764100D03*
X112565540Y-91764100D03*
X112725540Y-84764100D03*
X112563040Y-84764100D03*
X112075540Y-84764100D03*
X112238040Y-84764100D03*
D15*
X115100540Y-90914100D03*
X115100540Y-90614100D03*
X115100540Y-85914100D03*
X115100540Y-85614100D03*
X115100540Y-85764100D03*
X115100540Y-90764100D03*
D14*
X112400540Y-84764100D03*
X112400540Y-91764100D03*
D16*
X177038000Y-90805000D03*
X126238000Y-75565000D03*
X177038000Y-118745000D03*
X124968000Y-123825000D03*
D17*
X174625000Y-95885000D03*
D18*
X177165000Y-95885000D03*
X174625000Y-98425000D03*
X177165000Y-98425000D03*
X174625000Y-100965000D03*
X177165000Y-100965000D03*
X174625000Y-103505000D03*
X177165000Y-103505000D03*
X174625000Y-106045000D03*
X177165000Y-106045000D03*
D12*
X117475000Y-116205000D03*
X117475000Y-121285000D03*
D13*
X113877000Y-82245000D03*
X114097000Y-82245000D03*
X114317000Y-82245000D03*
X115197000Y-82245000D03*
X114977000Y-82245000D03*
X114757000Y-82245000D03*
X115197000Y-94285000D03*
X114977000Y-94285000D03*
X114757000Y-94285000D03*
X113877000Y-94285000D03*
X114097000Y-94285000D03*
X114317000Y-94285000D03*
D19*
X119237000Y-87015000D03*
X119237000Y-89515000D03*
X117237000Y-89515000D03*
X117237000Y-87015000D03*
D13*
X114537000Y-82245000D03*
X114537000Y-94285000D03*
D20*
X127000000Y-118364000D03*
X172847000Y-106553000D03*
X169926000Y-98933000D03*
X128397000Y-121539000D03*
X114808000Y-112014000D03*
X122301000Y-81915000D03*
X120396000Y-95631000D03*
X137160000Y-114427000D03*
X137160000Y-113538000D03*
X141478000Y-108712000D03*
X165608000Y-83058000D03*
X140335000Y-87249000D03*
X145288000Y-116078000D03*
X131191000Y-113665000D03*
X137033000Y-123190000D03*
X121920000Y-111887000D03*
X125095000Y-108966000D03*
X113030000Y-99568000D03*
X114173000Y-101346000D03*
X124968000Y-112776000D03*
X119507000Y-110617000D03*
X130937000Y-108204000D03*
X124841000Y-92710000D03*
X112522000Y-97536000D03*
X156718000Y-101981000D03*
X156718000Y-95250000D03*
X127254000Y-90678000D03*
X162433000Y-113919000D03*
X128524000Y-95885000D03*
X128524000Y-94488000D03*
X125730000Y-97282000D03*
X153670000Y-85344000D03*
X136525000Y-98425000D03*
X137414000Y-98425000D03*
X147701000Y-101981000D03*
X147447000Y-103632000D03*
X143383000Y-83693000D03*
X144653000Y-83693000D03*
X145923000Y-83693000D03*
X128524000Y-91821000D03*
X122301000Y-87630000D03*
X142113000Y-100076000D03*
X128524000Y-88011000D03*
X144018000Y-113538000D03*
X166243000Y-112903000D03*
X167513000Y-112903000D03*
X164973000Y-112903000D03*
X165735000Y-104521000D03*
X169926000Y-97917000D03*
X165989000Y-94107000D03*
X150114000Y-86614000D03*
X168148000Y-83058000D03*
X160528000Y-85852000D03*
X142240000Y-89916000D03*
X114681000Y-78994000D03*
X120015000Y-78994000D03*
X136271000Y-110363000D03*
X128270000Y-110363000D03*
X134239000Y-107061000D03*
X169291000Y-116078000D03*
X176149000Y-110490000D03*
X165989000Y-91567000D03*
X141351000Y-106680000D03*
X141351000Y-104775000D03*
X127635000Y-85725000D03*
X128524000Y-96901000D03*
X122301000Y-85725000D03*
X171958000Y-94488000D03*
X122682000Y-89281000D03*
X147320000Y-110617000D03*
X145288000Y-113538000D03*
X146558000Y-113538000D03*
X147828000Y-113538000D03*
X149098000Y-113538000D03*
X150368000Y-113538000D03*
X151638000Y-113538000D03*
X152908000Y-113461800D03*
X154178000Y-113538000D03*
X155448000Y-113538000D03*
X156718000Y-113538000D03*
X157988000Y-113538000D03*
X161417000Y-111633000D03*
X137668000Y-105664000D03*
X147447000Y-106680000D03*
X153543000Y-90551000D03*
X149860000Y-107061000D03*
X164465000Y-107696000D03*
X168656000Y-89916000D03*
X148590000Y-89154000D03*
X156337000Y-103251000D03*
X149860000Y-94361000D03*
X140462000Y-94234000D03*
X157099000Y-104521000D03*
X155575000Y-103886000D03*
X144145000Y-100076000D03*
X135128000Y-103251000D03*
X157861000Y-103251000D03*
X160020000Y-92075000D03*
X133731000Y-88011000D03*
X165227000Y-101219000D03*
X164338000Y-101219000D03*
X163449000Y-101219000D03*
X162560000Y-101600000D03*
X160528000Y-107315000D03*
X159766000Y-107315000D03*
X159004000Y-107315000D03*
X158115000Y-107315000D03*
X160909000Y-118237000D03*
X162560000Y-118237000D03*
X137287000Y-86106000D03*
X170688000Y-93599000D03*
X137287000Y-84963000D03*
X171704000Y-97282000D03*
X137922000Y-86741000D03*
X169926000Y-100330000D03*
X137922000Y-85471000D03*
X171323000Y-102235000D03*
X136398000Y-104648000D03*
X124968000Y-98425000D03*
X137795000Y-94869000D03*
X149098000Y-94742000D03*
X160655000Y-95631000D03*
X131064000Y-96266000D03*
X132588000Y-101092000D03*
X163322000Y-96901000D03*
X163957000Y-96266000D03*
X132080000Y-100457000D03*
X164592000Y-95631000D03*
X131572000Y-99822000D03*
X131064000Y-99187000D03*
X165227000Y-94996000D03*
X137922000Y-101473000D03*
X165862000Y-99441000D03*
X165227000Y-98806000D03*
X137414000Y-100838000D03*
X164592000Y-98171000D03*
X136906000Y-100203000D03*
X163957000Y-97536000D03*
X136398000Y-99568000D03*
X131064000Y-84709000D03*
X153670000Y-86360000D03*
X131064000Y-89281000D03*
X149479000Y-91313000D03*
X137160000Y-94361000D03*
X150622000Y-93980000D03*
X151384000Y-93599000D03*
X136525000Y-93853000D03*
X131699000Y-88646000D03*
X148590000Y-91313000D03*
X161544000Y-92710000D03*
X144526000Y-90932000D03*
D21*
X149098000Y-125730000D02*
X129286000Y-125730000D01*
X129286000Y-125730000D02*
X129286000Y-118364000D01*
X129286000Y-118364000D02*
X127000000Y-118364000D01*
X149098000Y-125730000D02*
X149098000Y-123825000D01*
D22*
X151638000Y-122555000D02*
X151638000Y-123825000D01*
X154178000Y-122555000D02*
X154178000Y-123825000D01*
X157861000Y-122555000D02*
X154178000Y-122555000D01*
X154178000Y-122555000D02*
X151638000Y-122555000D01*
X151638000Y-122555000D02*
X147828000Y-122555000D01*
X142748000Y-122555000D02*
X144018000Y-123825000D01*
X138176000Y-122555000D02*
X137668000Y-122047000D01*
X142748000Y-122555000D02*
X138176000Y-122555000D01*
X137668000Y-120396000D02*
X137668000Y-122047000D01*
X138303000Y-106299000D02*
X138303000Y-119761000D01*
X138303000Y-119761000D02*
X137668000Y-120396000D01*
X137668000Y-105664000D02*
X138303000Y-106299000D01*
D21*
X153543000Y-90551000D02*
X152019000Y-90551000D01*
X152019000Y-90551000D02*
X150622000Y-89154000D01*
X153543000Y-90551000D02*
X168021000Y-90551000D01*
X168021000Y-90551000D02*
X168656000Y-89916000D01*
X147447000Y-106680000D02*
X149479000Y-106680000D01*
X149479000Y-106680000D02*
X149860000Y-107061000D01*
X149860000Y-107061000D02*
X151511000Y-108712000D01*
X151511000Y-108712000D02*
X163449000Y-108712000D01*
X163449000Y-108712000D02*
X164465000Y-107696000D01*
D22*
X164211000Y-107950000D02*
X164465000Y-107696000D01*
D21*
X148590000Y-89154000D02*
X150622000Y-89154000D01*
D22*
X168656000Y-89916000D02*
X168656000Y-89916000D01*
X148590000Y-89154000D02*
X148590000Y-89154000D01*
X172466000Y-104140000D02*
X168783000Y-104140000D01*
X172974000Y-99441000D02*
X172974000Y-103632000D01*
X164465000Y-102997000D02*
X164719000Y-102743000D01*
X158496000Y-102997000D02*
X164465000Y-102997000D01*
X156972000Y-102616000D02*
X156337000Y-103251000D01*
X156972000Y-102616000D02*
X158115000Y-102616000D01*
X164719000Y-102743000D02*
X167386000Y-102743000D01*
X167386000Y-102743000D02*
X168783000Y-104140000D01*
X158115000Y-102616000D02*
X158496000Y-102997000D01*
X172974000Y-103632000D02*
X172466000Y-104140000D01*
X173355000Y-97155000D02*
X173355000Y-99060000D01*
X173355000Y-97155000D02*
X174625000Y-95885000D01*
X173355000Y-99060000D02*
X172974000Y-99441000D01*
X148780500Y-94170500D02*
X149669500Y-94170500D01*
X149669500Y-94170500D02*
X149860000Y-94361000D01*
X140462000Y-94234000D02*
X140716000Y-94488000D01*
X148463000Y-94488000D02*
X148780500Y-94170500D01*
X140716000Y-94488000D02*
X148463000Y-94488000D01*
X165227000Y-104140000D02*
X158623000Y-104140000D01*
X168021000Y-105283000D02*
X173863000Y-105283000D01*
X166624000Y-103886000D02*
X168021000Y-105283000D01*
X165227000Y-104140000D02*
X165481000Y-103886000D01*
X158242000Y-104521000D02*
X157099000Y-104521000D01*
X174625000Y-106045000D02*
X173863000Y-105283000D01*
X165481000Y-103886000D02*
X166624000Y-103886000D01*
X158623000Y-104140000D02*
X158242000Y-104521000D01*
X157099000Y-104521000D02*
X157099000Y-104521000D01*
X173482000Y-104902000D02*
X168275000Y-104902000D01*
X175895000Y-102235000D02*
X174625000Y-100965000D01*
X175895000Y-104140000D02*
X175895000Y-102235000D01*
X175260000Y-104775000D02*
X175895000Y-104140000D01*
X173609000Y-104775000D02*
X175260000Y-104775000D01*
X173482000Y-104902000D02*
X173609000Y-104775000D01*
X164973000Y-103759000D02*
X158369000Y-103759000D01*
X158369000Y-103759000D02*
X158242000Y-103886000D01*
X157988000Y-103886000D02*
X158242000Y-103886000D01*
X155575000Y-103886000D02*
X157988000Y-103886000D01*
X164973000Y-103759000D02*
X165227000Y-103505000D01*
X165227000Y-103505000D02*
X166878000Y-103505000D01*
X166878000Y-103505000D02*
X168275000Y-104902000D01*
X135128000Y-103251000D02*
X135128000Y-103251000D01*
X135128000Y-103251000D02*
X138684000Y-103251000D01*
X138684000Y-103251000D02*
X140589000Y-101346000D01*
X144145000Y-100076000D02*
X142875000Y-101346000D01*
X142875000Y-101346000D02*
X140589000Y-101346000D01*
X172720000Y-104521000D02*
X168529000Y-104521000D01*
X173355000Y-99695000D02*
X173355000Y-103886000D01*
X157861000Y-103251000D02*
X158115000Y-103251000D01*
X164719000Y-103378000D02*
X164973000Y-103124000D01*
X158242000Y-103378000D02*
X164719000Y-103378000D01*
X158115000Y-103251000D02*
X158242000Y-103378000D01*
X164973000Y-103124000D02*
X167132000Y-103124000D01*
X167132000Y-103124000D02*
X168529000Y-104521000D01*
X173355000Y-103886000D02*
X172720000Y-104521000D01*
X173355000Y-99695000D02*
X174625000Y-98425000D01*
X151003000Y-91948000D02*
X159893000Y-91948000D01*
X159893000Y-91948000D02*
X160020000Y-92075000D01*
X149733000Y-90678000D02*
X146685000Y-90678000D01*
X146685000Y-90678000D02*
X144272000Y-88265000D01*
X143891000Y-88265000D02*
X144272000Y-88265000D01*
X133985000Y-88265000D02*
X133731000Y-88011000D01*
X143891000Y-88265000D02*
X133985000Y-88265000D01*
X151003000Y-91948000D02*
X149733000Y-90678000D01*
X160020000Y-92075000D02*
X160020000Y-92075000D01*
X133731000Y-88011000D02*
X133731000Y-88011000D01*
X138811000Y-104521000D02*
X138811000Y-121158000D01*
X138811000Y-121158000D02*
X138938000Y-121285000D01*
X163703000Y-100203000D02*
X146304000Y-100203000D01*
X163703000Y-100203000D02*
X164084000Y-100584000D01*
X164084000Y-100584000D02*
X164338000Y-100584000D01*
X164338000Y-100584000D02*
X164592000Y-100584000D01*
X144462500Y-102044500D02*
X144145000Y-102362000D01*
X144145000Y-102362000D02*
X140970000Y-102362000D01*
X138811000Y-113030000D02*
X138811000Y-121158000D01*
X138811000Y-121158000D02*
X138938000Y-121285000D01*
X140970000Y-102362000D02*
X138811000Y-104521000D01*
X138811000Y-113030000D02*
X138811000Y-113030000D01*
X163703000Y-100203000D02*
X163703000Y-100203000D01*
X164592000Y-100584000D02*
X165227000Y-101219000D01*
X146304000Y-100203000D02*
X144462500Y-102044500D01*
X139319000Y-104648000D02*
X139319000Y-119126000D01*
X163576000Y-100584000D02*
X146558000Y-100584000D01*
X163576000Y-100584000D02*
X164211000Y-101219000D01*
X164211000Y-101219000D02*
X164338000Y-101219000D01*
X144653000Y-102489000D02*
X144399000Y-102743000D01*
X144399000Y-102743000D02*
X141224000Y-102743000D01*
X141224000Y-102743000D02*
X139319000Y-104648000D01*
X141478000Y-121285000D02*
X141478000Y-121285000D01*
X139319000Y-119126000D02*
X141478000Y-121285000D01*
X164338000Y-101219000D02*
X164338000Y-101219000D01*
X146558000Y-100584000D02*
X144653000Y-102489000D01*
X139827000Y-104775000D02*
X139827000Y-118872000D01*
X142494000Y-119761000D02*
X140716000Y-119761000D01*
X142494000Y-119761000D02*
X144018000Y-121285000D01*
X139827000Y-118872000D02*
X140716000Y-119761000D01*
X163195000Y-100965000D02*
X146939000Y-100965000D01*
X144780000Y-103124000D02*
X141478000Y-103124000D01*
X141478000Y-103124000D02*
X139827000Y-104775000D01*
X163195000Y-100965000D02*
X163449000Y-101219000D01*
X146939000Y-100965000D02*
X144780000Y-103124000D01*
X140335000Y-104902000D02*
X140335000Y-118618000D01*
X162306000Y-101346000D02*
X147193000Y-101346000D01*
X140335000Y-118618000D02*
X141097000Y-119380000D01*
X144653000Y-119380000D02*
X146558000Y-121285000D01*
X141097000Y-119380000D02*
X144653000Y-119380000D01*
X145034000Y-103505000D02*
X141732000Y-103505000D01*
X141732000Y-103505000D02*
X140335000Y-104902000D01*
X162306000Y-101346000D02*
X162560000Y-101600000D01*
X146558000Y-121285000D02*
X146558000Y-121285000D01*
X147193000Y-101346000D02*
X145034000Y-103505000D01*
X150876000Y-104394000D02*
X146050000Y-104394000D01*
X143637000Y-117983000D02*
X144526000Y-117983000D01*
X142113000Y-116459000D02*
X143637000Y-117983000D01*
X142113000Y-108331000D02*
X142113000Y-116459000D01*
X146050000Y-104394000D02*
X142113000Y-108331000D01*
X152400000Y-105918000D02*
X150876000Y-104394000D01*
X152400000Y-105918000D02*
X159512000Y-105918000D01*
X160528000Y-107315000D02*
X160528000Y-106934000D01*
X160528000Y-106934000D02*
X159512000Y-105918000D01*
X144526000Y-117983000D02*
X144653000Y-117983000D01*
X144653000Y-117983000D02*
X145669000Y-117983000D01*
X144653000Y-117983000D02*
X144653000Y-117983000D01*
X145669000Y-117983000D02*
X148971000Y-121285000D01*
X146304000Y-104775000D02*
X142494000Y-108585000D01*
X143891000Y-117602000D02*
X145923000Y-117602000D01*
X150114000Y-119761000D02*
X151638000Y-121285000D01*
X150114000Y-119761000D02*
X148082000Y-119761000D01*
X145923000Y-117602000D02*
X148082000Y-119761000D01*
X142494000Y-108585000D02*
X142494000Y-116205000D01*
X142494000Y-116205000D02*
X143891000Y-117602000D01*
X159131000Y-106299000D02*
X152146000Y-106299000D01*
X159766000Y-106934000D02*
X159131000Y-106299000D01*
X159766000Y-107315000D02*
X159766000Y-106934000D01*
X152146000Y-106299000D02*
X150622000Y-104775000D01*
X150622000Y-104775000D02*
X146304000Y-104775000D01*
X148336000Y-119380000D02*
X151765000Y-119380000D01*
X158750000Y-106680000D02*
X151892000Y-106680000D01*
X150368000Y-105156000D02*
X146558000Y-105156000D01*
X144145000Y-117221000D02*
X146177000Y-117221000D01*
X142875000Y-115951000D02*
X144145000Y-117221000D01*
X142875000Y-108839000D02*
X142875000Y-115951000D01*
X146177000Y-117221000D02*
X148336000Y-119380000D01*
X146558000Y-105156000D02*
X142875000Y-108839000D01*
X150368000Y-105156000D02*
X151892000Y-106680000D01*
X151765000Y-119380000D02*
X152908000Y-120523000D01*
X153670000Y-121285000D02*
X154178000Y-121285000D01*
X152908000Y-120523000D02*
X153670000Y-121285000D01*
X152908000Y-120523000D02*
X152908000Y-120523000D01*
X158750000Y-106680000D02*
X159004000Y-106934000D01*
X159004000Y-106934000D02*
X159004000Y-107315000D01*
X143256000Y-109093000D02*
X143256000Y-115697000D01*
X150114000Y-105537000D02*
X146812000Y-105537000D01*
X152146000Y-118999000D02*
X153035000Y-119888000D01*
X143256000Y-115697000D02*
X144399000Y-116840000D01*
X144399000Y-116840000D02*
X146431000Y-116840000D01*
X146431000Y-116840000D02*
X148590000Y-118999000D01*
X148590000Y-118999000D02*
X152146000Y-118999000D01*
X153035000Y-119888000D02*
X155321000Y-119888000D01*
X155321000Y-119888000D02*
X156718000Y-121285000D01*
X146812000Y-105537000D02*
X143256000Y-109093000D01*
X157861000Y-107061000D02*
X158115000Y-107315000D01*
X151638000Y-107061000D02*
X157861000Y-107061000D01*
X150114000Y-105537000D02*
X151638000Y-107061000D01*
X158115000Y-107315000D02*
X158115000Y-107315000D01*
X160909000Y-118237000D02*
X161798000Y-119126000D01*
X161798000Y-121285000D02*
X161798000Y-119126000D01*
X162560000Y-118237000D02*
X162941000Y-118618000D01*
X163068000Y-120015000D02*
X164338000Y-121285000D01*
X163068000Y-118745000D02*
X163068000Y-120015000D01*
X162941000Y-118618000D02*
X163068000Y-118745000D01*
X162560000Y-118237000D02*
X162560000Y-118237000D01*
X164338000Y-121158000D02*
X164338000Y-121285000D01*
X169545000Y-88138000D02*
X153289000Y-88138000D01*
X170688000Y-89281000D02*
X170688000Y-93599000D01*
X137287000Y-86106000D02*
X138176000Y-86106000D01*
X138811000Y-85471000D02*
X150622000Y-85471000D01*
X150622000Y-85471000D02*
X153289000Y-88138000D01*
X138176000Y-86106000D02*
X138811000Y-85471000D01*
X170688000Y-89281000D02*
X169545000Y-88138000D01*
X170053000Y-87376000D02*
X153797000Y-87376000D01*
X171704000Y-93980000D02*
X171704000Y-93091000D01*
X171450000Y-92837000D02*
X171450000Y-88773000D01*
X171704000Y-93091000D02*
X171450000Y-92837000D01*
X137287000Y-84963000D02*
X137541000Y-84709000D01*
X137541000Y-84709000D02*
X151130000Y-84709000D01*
X151130000Y-84709000D02*
X153797000Y-87376000D01*
X171196000Y-96393000D02*
X171196000Y-96774000D01*
X171450000Y-88773000D02*
X170053000Y-87376000D01*
X171704000Y-93980000D02*
X171196000Y-94488000D01*
X171196000Y-94488000D02*
X171196000Y-96393000D01*
X171196000Y-96774000D02*
X171704000Y-97282000D01*
X169291000Y-88519000D02*
X153035000Y-88519000D01*
X170307000Y-89535000D02*
X169291000Y-88519000D01*
X170434000Y-97536000D02*
X170434000Y-94234000D01*
X170053000Y-93853000D02*
X170053000Y-93853000D01*
X170434000Y-94234000D02*
X170053000Y-93853000D01*
X170053000Y-93345000D02*
X170053000Y-93345000D01*
X170053000Y-93345000D02*
X170053000Y-93853000D01*
X170053000Y-93345000D02*
X170307000Y-93091000D01*
X170307000Y-93091000D02*
X170307000Y-89535000D01*
X137922000Y-86741000D02*
X138430000Y-86741000D01*
X139319000Y-85852000D02*
X150368000Y-85852000D01*
X150368000Y-85852000D02*
X153035000Y-88519000D01*
X138430000Y-86741000D02*
X139319000Y-85852000D01*
X170434000Y-97536000D02*
X170688000Y-97790000D01*
X170688000Y-97790000D02*
X170688000Y-99568000D01*
X170688000Y-99568000D02*
X169926000Y-100330000D01*
X169799000Y-87757000D02*
X153543000Y-87757000D01*
X171069000Y-97536000D02*
X171069000Y-101981000D01*
X171069000Y-101981000D02*
X171323000Y-102235000D01*
X171323000Y-93345000D02*
X171069000Y-93091000D01*
X171069000Y-93091000D02*
X171069000Y-89027000D01*
X137922000Y-85471000D02*
X138303000Y-85090000D01*
X138303000Y-85090000D02*
X150876000Y-85090000D01*
X150876000Y-85090000D02*
X153543000Y-87757000D01*
X171323000Y-93345000D02*
X171323000Y-93853000D01*
X171069000Y-89027000D02*
X169799000Y-87757000D01*
X171323000Y-93853000D02*
X170815000Y-94361000D01*
X170815000Y-94361000D02*
X170815000Y-97282000D01*
X170815000Y-97282000D02*
X171069000Y-97536000D01*
X136398000Y-104648000D02*
X132461000Y-104648000D01*
X125603000Y-98425000D02*
X126238000Y-98425000D01*
X126238000Y-98425000D02*
X130810000Y-102997000D01*
X125603000Y-98425000D02*
X124968000Y-98425000D01*
X132461000Y-104648000D02*
X130810000Y-102997000D01*
X124968000Y-98425000D02*
X124968000Y-98425000D01*
X124968000Y-98425000D02*
X124968000Y-98425000D01*
X149098000Y-94742000D02*
X148844000Y-94742000D01*
X148717000Y-94869000D02*
X140208000Y-94869000D01*
X148844000Y-94742000D02*
X148717000Y-94869000D01*
X137795000Y-94869000D02*
X137795000Y-94488000D01*
X137795000Y-94488000D02*
X138303000Y-93980000D01*
X138303000Y-93980000D02*
X139319000Y-93980000D01*
X139319000Y-93980000D02*
X140208000Y-94869000D01*
X160655000Y-95631000D02*
X160401000Y-95885000D01*
X139065000Y-95885000D02*
X160274000Y-95885000D01*
X138684000Y-96266000D02*
X139065000Y-95885000D01*
X138684000Y-96266000D02*
X131064000Y-96266000D01*
X160401000Y-95885000D02*
X160274000Y-95885000D01*
X162814000Y-97409000D02*
X140081000Y-97409000D01*
X139700000Y-97790000D02*
X135255000Y-97790000D01*
X139700000Y-97790000D02*
X140081000Y-97409000D01*
X135255000Y-97790000D02*
X132715000Y-100330000D01*
X132715000Y-100330000D02*
X132715000Y-100965000D01*
X132715000Y-100965000D02*
X132588000Y-101092000D01*
X163322000Y-96901000D02*
X162814000Y-97409000D01*
X162306000Y-97028000D02*
X139827000Y-97028000D01*
X139446000Y-97409000D02*
X135001000Y-97409000D01*
X163957000Y-96266000D02*
X163068000Y-96266000D01*
X163068000Y-96266000D02*
X162306000Y-97028000D01*
X139446000Y-97409000D02*
X139446000Y-97409000D01*
X139446000Y-97409000D02*
X139827000Y-97028000D01*
X132207000Y-100330000D02*
X132080000Y-100457000D01*
X132207000Y-100203000D02*
X132207000Y-100330000D01*
X135001000Y-97409000D02*
X132207000Y-100203000D01*
X162052000Y-96647000D02*
X139573000Y-96647000D01*
X163830000Y-95631000D02*
X163703000Y-95631000D01*
X163449000Y-95885000D02*
X162814000Y-95885000D01*
X163703000Y-95631000D02*
X163449000Y-95885000D01*
X164592000Y-95631000D02*
X163830000Y-95631000D01*
X162814000Y-95885000D02*
X162052000Y-96647000D01*
X139192000Y-97028000D02*
X139573000Y-96647000D01*
X139192000Y-97028000D02*
X134747000Y-97028000D01*
X131953000Y-99822000D02*
X134747000Y-97028000D01*
X131572000Y-99822000D02*
X131953000Y-99822000D01*
X161798000Y-96266000D02*
X139319000Y-96266000D01*
X138938000Y-96647000D02*
X134493000Y-96647000D01*
X131953000Y-99187000D02*
X134493000Y-96647000D01*
X131064000Y-99187000D02*
X131953000Y-99187000D01*
X138938000Y-96647000D02*
X139319000Y-96266000D01*
X162560000Y-95504000D02*
X161798000Y-96266000D01*
X164592000Y-94996000D02*
X165227000Y-94996000D01*
X164338000Y-94996000D02*
X164084000Y-95250000D01*
X164084000Y-95250000D02*
X163576000Y-95250000D01*
X163576000Y-95250000D02*
X163322000Y-95504000D01*
X163322000Y-95504000D02*
X162560000Y-95504000D01*
X164592000Y-94996000D02*
X164338000Y-94996000D01*
X163830000Y-98933000D02*
X141097000Y-98933000D01*
X140716000Y-99314000D02*
X139319000Y-99314000D01*
X140716000Y-99314000D02*
X141097000Y-98933000D01*
X138049000Y-101346000D02*
X137922000Y-101473000D01*
X138049000Y-100584000D02*
X138049000Y-101346000D01*
X139319000Y-99314000D02*
X138049000Y-100584000D01*
X163830000Y-98933000D02*
X164084000Y-99187000D01*
X165862000Y-99441000D02*
X164973000Y-99441000D01*
X164973000Y-99441000D02*
X164719000Y-99187000D01*
X164719000Y-99187000D02*
X164084000Y-99187000D01*
X164084000Y-98552000D02*
X140970000Y-98552000D01*
X140589000Y-98933000D02*
X139065000Y-98933000D01*
X164084000Y-98552000D02*
X164338000Y-98806000D01*
X140589000Y-98933000D02*
X140970000Y-98552000D01*
X137414000Y-100838000D02*
X137414000Y-100584000D01*
X137414000Y-100584000D02*
X139065000Y-98933000D01*
X165227000Y-98806000D02*
X165227000Y-98806000D01*
X165227000Y-98806000D02*
X164338000Y-98806000D01*
X164592000Y-98171000D02*
X140716000Y-98171000D01*
X140335000Y-98552000D02*
X140716000Y-98171000D01*
X136906000Y-100203000D02*
X137160000Y-100203000D01*
X137160000Y-100203000D02*
X138811000Y-98552000D01*
X140335000Y-98552000D02*
X138811000Y-98552000D01*
X164592000Y-98171000D02*
X164592000Y-98171000D01*
X163703000Y-97790000D02*
X140462000Y-97790000D01*
X163957000Y-97536000D02*
X163703000Y-97790000D01*
X140081000Y-98171000D02*
X140462000Y-97790000D01*
X138557000Y-98171000D02*
X137160000Y-99568000D01*
X137160000Y-99568000D02*
X136398000Y-99568000D01*
X140081000Y-98171000D02*
X138557000Y-98171000D01*
X151384000Y-84328000D02*
X131445000Y-84328000D01*
X153670000Y-86360000D02*
X153416000Y-86360000D01*
X153416000Y-86360000D02*
X151384000Y-84328000D01*
X131445000Y-84328000D02*
X131064000Y-84709000D01*
X148907500Y-91884500D02*
X146621500Y-91884500D01*
X146621500Y-91884500D02*
X143764000Y-89027000D01*
X143383000Y-89027000D02*
X143764000Y-89027000D01*
X132080000Y-89281000D02*
X132334000Y-89027000D01*
X132334000Y-89027000D02*
X143383000Y-89027000D01*
X132080000Y-89281000D02*
X131064000Y-89281000D01*
X148907500Y-91884500D02*
X149479000Y-91313000D01*
X137922000Y-93599000D02*
X140716000Y-93599000D01*
X140716000Y-93599000D02*
X141224000Y-94107000D01*
X141224000Y-94107000D02*
X148336000Y-94107000D01*
X148336000Y-94107000D02*
X148717000Y-93726000D01*
X150368000Y-93726000D02*
X150622000Y-93980000D01*
X148717000Y-93726000D02*
X150368000Y-93726000D01*
X137160000Y-94361000D02*
X137922000Y-93599000D01*
X136525000Y-93853000D02*
X136906000Y-93853000D01*
X137541000Y-93218000D02*
X137668000Y-93218000D01*
X136906000Y-93853000D02*
X137541000Y-93218000D01*
X148653500Y-93281500D02*
X151066500Y-93281500D01*
X151066500Y-93281500D02*
X151384000Y-93599000D01*
X148209000Y-93726000D02*
X148653500Y-93281500D01*
X141401802Y-93726000D02*
X148209000Y-93726000D01*
X140893802Y-93218000D02*
X141401802Y-93726000D01*
X137668000Y-93218000D02*
X140893802Y-93218000D01*
X148590000Y-91313000D02*
X146685000Y-91313000D01*
X146685000Y-91313000D02*
X144018000Y-88646000D01*
X143637000Y-88646000D02*
X144018000Y-88646000D01*
X131699000Y-88646000D02*
X143637000Y-88646000D01*
X131699000Y-88646000D02*
X131699000Y-88646000D01*
D21*
X115100540Y-94152020D02*
X115213000Y-94264480D01*
X115100540Y-90914100D02*
X112725540Y-90914100D01*
X112238040Y-91764100D02*
X113796900Y-91764100D01*
X113893000Y-91860200D02*
X113893000Y-94264480D01*
X113796900Y-91764100D02*
X113893000Y-91860200D01*
X113893000Y-94264480D02*
X114773000Y-94264480D01*
X112725540Y-84764100D02*
X113863900Y-84764100D01*
X113893000Y-84735000D02*
X113893000Y-82265520D01*
X113863900Y-84764100D02*
X113893000Y-84735000D01*
X115100540Y-85914100D02*
X112725540Y-85914100D01*
X112725540Y-84764100D02*
X112725540Y-85914100D01*
X112725540Y-85914100D02*
X112725540Y-90914100D01*
X112725540Y-90914100D02*
X112725540Y-91759100D01*
X112725540Y-91759100D02*
X112730540Y-91764100D01*
X112730540Y-91764100D02*
X112238040Y-91764100D01*
X112725540Y-84764100D02*
X112725540Y-85547540D01*
D22*
X144526000Y-90932000D02*
X145034000Y-90932000D01*
X145034000Y-90932000D02*
X146431000Y-92329000D01*
X159766000Y-92710000D02*
X161544000Y-92710000D01*
X146431000Y-92329000D02*
X159385000Y-92329000D01*
X159385000Y-92329000D02*
X159766000Y-92710000D01*
G36*
X124901669Y-73561257D02*
X124236592Y-74225174D01*
X123876211Y-75093068D01*
X123875391Y-76032809D01*
X124234257Y-76901331D01*
X124898174Y-77566408D01*
X125766068Y-77926789D01*
X126705809Y-77927609D01*
X127574331Y-77568743D01*
X127956863Y-77186878D01*
X129127325Y-77186878D01*
X129794000Y-77853553D01*
X130460675Y-77186878D01*
X130357928Y-77026328D01*
X129902211Y-76892631D01*
X129430021Y-76943506D01*
X129230072Y-77026328D01*
X129127325Y-77186878D01*
X127956863Y-77186878D01*
X128239408Y-76904826D01*
X128599789Y-76036932D01*
X128599995Y-75801424D01*
X128781355Y-76240350D01*
X129116884Y-76576464D01*
X129555497Y-76758592D01*
X130030420Y-76759007D01*
X130469350Y-76577645D01*
X130805464Y-76242116D01*
X130987592Y-75803503D01*
X130987593Y-75801420D01*
X131139993Y-75801420D01*
X131321355Y-76240350D01*
X131656884Y-76576464D01*
X132095497Y-76758592D01*
X132570420Y-76759007D01*
X133009350Y-76577645D01*
X133345464Y-76242116D01*
X133527592Y-75803503D01*
X133527593Y-75801420D01*
X133679993Y-75801420D01*
X133861355Y-76240350D01*
X134196884Y-76576464D01*
X134635497Y-76758592D01*
X135110420Y-76759007D01*
X135549350Y-76577645D01*
X135644037Y-76483122D01*
X136747325Y-76483122D01*
X136850072Y-76643672D01*
X137305789Y-76777369D01*
X137777979Y-76726494D01*
X137977928Y-76643672D01*
X138080675Y-76483122D01*
X137414000Y-75816447D01*
X136747325Y-76483122D01*
X135644037Y-76483122D01*
X135885464Y-76242116D01*
X136067592Y-75803503D01*
X136067894Y-75456789D01*
X136201631Y-75456789D01*
X136252506Y-75928979D01*
X136335328Y-76128928D01*
X136495878Y-76231675D01*
X137162553Y-75565000D01*
X137665447Y-75565000D01*
X138332122Y-76231675D01*
X138492672Y-76128928D01*
X138588755Y-75801420D01*
X138759993Y-75801420D01*
X138941355Y-76240350D01*
X139276884Y-76576464D01*
X139715497Y-76758592D01*
X140190420Y-76759007D01*
X140629350Y-76577645D01*
X140965464Y-76242116D01*
X141147592Y-75803503D01*
X141147593Y-75801420D01*
X141299993Y-75801420D01*
X141481355Y-76240350D01*
X141816884Y-76576464D01*
X142255497Y-76758592D01*
X142730420Y-76759007D01*
X143169350Y-76577645D01*
X143505464Y-76242116D01*
X143687592Y-75803503D01*
X143687593Y-75801420D01*
X143839993Y-75801420D01*
X144021355Y-76240350D01*
X144356884Y-76576464D01*
X144795497Y-76758592D01*
X145270420Y-76759007D01*
X145709350Y-76577645D01*
X146045464Y-76242116D01*
X146227592Y-75803503D01*
X146227593Y-75801420D01*
X146379993Y-75801420D01*
X146561355Y-76240350D01*
X146896884Y-76576464D01*
X147335497Y-76758592D01*
X147810420Y-76759007D01*
X148249350Y-76577645D01*
X148585464Y-76242116D01*
X148767592Y-75803503D01*
X148767593Y-75801420D01*
X148919993Y-75801420D01*
X149101355Y-76240350D01*
X149436884Y-76576464D01*
X149875497Y-76758592D01*
X150350420Y-76759007D01*
X150789350Y-76577645D01*
X151125464Y-76242116D01*
X151307592Y-75803503D01*
X151307593Y-75801420D01*
X151459993Y-75801420D01*
X151641355Y-76240350D01*
X151976884Y-76576464D01*
X152415497Y-76758592D01*
X152890420Y-76759007D01*
X153329350Y-76577645D01*
X153665464Y-76242116D01*
X153847592Y-75803503D01*
X153847593Y-75801420D01*
X155523993Y-75801420D01*
X155705355Y-76240350D01*
X156040884Y-76576464D01*
X156479497Y-76758592D01*
X156954420Y-76759007D01*
X157393350Y-76577645D01*
X157729464Y-76242116D01*
X157911592Y-75803503D01*
X157911593Y-75801420D01*
X158063993Y-75801420D01*
X158245355Y-76240350D01*
X158580884Y-76576464D01*
X159019497Y-76758592D01*
X159494420Y-76759007D01*
X159933350Y-76577645D01*
X160269464Y-76242116D01*
X160451592Y-75803503D01*
X160451593Y-75801420D01*
X160603993Y-75801420D01*
X160785355Y-76240350D01*
X161120884Y-76576464D01*
X161559497Y-76758592D01*
X162034420Y-76759007D01*
X162473350Y-76577645D01*
X162809464Y-76242116D01*
X162991592Y-75803503D01*
X162991593Y-75801420D01*
X163143993Y-75801420D01*
X163325355Y-76240350D01*
X163660884Y-76576464D01*
X164099497Y-76758592D01*
X164574420Y-76759007D01*
X165013350Y-76577645D01*
X165349464Y-76242116D01*
X165531592Y-75803503D01*
X165531593Y-75801420D01*
X165683993Y-75801420D01*
X165865355Y-76240350D01*
X166200884Y-76576464D01*
X166639497Y-76758592D01*
X167114420Y-76759007D01*
X167553350Y-76577645D01*
X167889464Y-76242116D01*
X168071592Y-75803503D01*
X168071593Y-75801420D01*
X168223993Y-75801420D01*
X168405355Y-76240350D01*
X168740884Y-76576464D01*
X169179497Y-76758592D01*
X169654420Y-76759007D01*
X170093350Y-76577645D01*
X170429464Y-76242116D01*
X170611592Y-75803503D01*
X170611593Y-75801420D01*
X170763993Y-75801420D01*
X170945355Y-76240350D01*
X171280884Y-76576464D01*
X171719497Y-76758592D01*
X172194420Y-76759007D01*
X172633350Y-76577645D01*
X172969464Y-76242116D01*
X173151592Y-75803503D01*
X173151593Y-75801420D01*
X173303993Y-75801420D01*
X173485355Y-76240350D01*
X173820884Y-76576464D01*
X174259497Y-76758592D01*
X174734420Y-76759007D01*
X175173350Y-76577645D01*
X175509464Y-76242116D01*
X175691592Y-75803503D01*
X175692007Y-75328580D01*
X175510645Y-74889650D01*
X175175116Y-74553536D01*
X174736503Y-74371408D01*
X174261580Y-74370993D01*
X173822650Y-74552355D01*
X173486536Y-74887884D01*
X173304408Y-75326497D01*
X173303993Y-75801420D01*
X173151593Y-75801420D01*
X173152007Y-75328580D01*
X172970645Y-74889650D01*
X172635116Y-74553536D01*
X172196503Y-74371408D01*
X171721580Y-74370993D01*
X171282650Y-74552355D01*
X170946536Y-74887884D01*
X170764408Y-75326497D01*
X170763993Y-75801420D01*
X170611593Y-75801420D01*
X170612007Y-75328580D01*
X170430645Y-74889650D01*
X170095116Y-74553536D01*
X169656503Y-74371408D01*
X169181580Y-74370993D01*
X168742650Y-74552355D01*
X168406536Y-74887884D01*
X168224408Y-75326497D01*
X168223993Y-75801420D01*
X168071593Y-75801420D01*
X168072007Y-75328580D01*
X167890645Y-74889650D01*
X167555116Y-74553536D01*
X167116503Y-74371408D01*
X166641580Y-74370993D01*
X166202650Y-74552355D01*
X165866536Y-74887884D01*
X165684408Y-75326497D01*
X165683993Y-75801420D01*
X165531593Y-75801420D01*
X165532007Y-75328580D01*
X165350645Y-74889650D01*
X165015116Y-74553536D01*
X164576503Y-74371408D01*
X164101580Y-74370993D01*
X163662650Y-74552355D01*
X163326536Y-74887884D01*
X163144408Y-75326497D01*
X163143993Y-75801420D01*
X162991593Y-75801420D01*
X162992007Y-75328580D01*
X162810645Y-74889650D01*
X162475116Y-74553536D01*
X162036503Y-74371408D01*
X161561580Y-74370993D01*
X161122650Y-74552355D01*
X160786536Y-74887884D01*
X160604408Y-75326497D01*
X160603993Y-75801420D01*
X160451593Y-75801420D01*
X160452007Y-75328580D01*
X160270645Y-74889650D01*
X159935116Y-74553536D01*
X159496503Y-74371408D01*
X159021580Y-74370993D01*
X158582650Y-74552355D01*
X158246536Y-74887884D01*
X158064408Y-75326497D01*
X158063993Y-75801420D01*
X157911593Y-75801420D01*
X157912007Y-75328580D01*
X157730645Y-74889650D01*
X157395116Y-74553536D01*
X156956503Y-74371408D01*
X156481580Y-74370993D01*
X156042650Y-74552355D01*
X155706536Y-74887884D01*
X155524408Y-75326497D01*
X155523993Y-75801420D01*
X153847593Y-75801420D01*
X153848007Y-75328580D01*
X153666645Y-74889650D01*
X153331116Y-74553536D01*
X152892503Y-74371408D01*
X152417580Y-74370993D01*
X151978650Y-74552355D01*
X151642536Y-74887884D01*
X151460408Y-75326497D01*
X151459993Y-75801420D01*
X151307593Y-75801420D01*
X151308007Y-75328580D01*
X151126645Y-74889650D01*
X150791116Y-74553536D01*
X150352503Y-74371408D01*
X149877580Y-74370993D01*
X149438650Y-74552355D01*
X149102536Y-74887884D01*
X148920408Y-75326497D01*
X148919993Y-75801420D01*
X148767593Y-75801420D01*
X148768007Y-75328580D01*
X148586645Y-74889650D01*
X148251116Y-74553536D01*
X147812503Y-74371408D01*
X147337580Y-74370993D01*
X146898650Y-74552355D01*
X146562536Y-74887884D01*
X146380408Y-75326497D01*
X146379993Y-75801420D01*
X146227593Y-75801420D01*
X146228007Y-75328580D01*
X146046645Y-74889650D01*
X145711116Y-74553536D01*
X145272503Y-74371408D01*
X144797580Y-74370993D01*
X144358650Y-74552355D01*
X144022536Y-74887884D01*
X143840408Y-75326497D01*
X143839993Y-75801420D01*
X143687593Y-75801420D01*
X143688007Y-75328580D01*
X143506645Y-74889650D01*
X143171116Y-74553536D01*
X142732503Y-74371408D01*
X142257580Y-74370993D01*
X141818650Y-74552355D01*
X141482536Y-74887884D01*
X141300408Y-75326497D01*
X141299993Y-75801420D01*
X141147593Y-75801420D01*
X141148007Y-75328580D01*
X140966645Y-74889650D01*
X140631116Y-74553536D01*
X140192503Y-74371408D01*
X139717580Y-74370993D01*
X139278650Y-74552355D01*
X138942536Y-74887884D01*
X138760408Y-75326497D01*
X138759993Y-75801420D01*
X138588755Y-75801420D01*
X138626369Y-75673211D01*
X138575494Y-75201021D01*
X138492672Y-75001072D01*
X138332122Y-74898325D01*
X137665447Y-75565000D01*
X137162553Y-75565000D01*
X137162553Y-75565000D01*
X136495878Y-74898325D01*
X136335328Y-75001072D01*
X136201631Y-75456789D01*
X136067894Y-75456789D01*
X136068007Y-75328580D01*
X135886645Y-74889650D01*
X135644296Y-74646878D01*
X136747325Y-74646878D01*
X137414000Y-75313553D01*
X138080675Y-74646878D01*
X137977928Y-74486328D01*
X137522211Y-74352631D01*
X137050021Y-74403506D01*
X136850072Y-74486328D01*
X136747325Y-74646878D01*
X135644296Y-74646878D01*
X135551116Y-74553536D01*
X135112503Y-74371408D01*
X134637580Y-74370993D01*
X134198650Y-74552355D01*
X133862536Y-74887884D01*
X133680408Y-75326497D01*
X133679993Y-75801420D01*
X133527593Y-75801420D01*
X133528007Y-75328580D01*
X133346645Y-74889650D01*
X133011116Y-74553536D01*
X132572503Y-74371408D01*
X132097580Y-74370993D01*
X131658650Y-74552355D01*
X131322536Y-74887884D01*
X131140408Y-75326497D01*
X131139993Y-75801420D01*
X130987593Y-75801420D01*
X130988007Y-75328580D01*
X130806645Y-74889650D01*
X130471116Y-74553536D01*
X130032503Y-74371408D01*
X129557580Y-74370993D01*
X129118650Y-74552355D01*
X128782536Y-74887884D01*
X128600409Y-75326495D01*
X128600609Y-75097191D01*
X128241743Y-74228669D01*
X127577826Y-73563592D01*
X127256582Y-73430200D01*
X175303436Y-73430200D01*
X176632800Y-74759563D01*
X176632800Y-85979000D01*
X176663644Y-86134064D01*
X176707800Y-86200148D01*
X176707800Y-86232994D01*
X176707799Y-86233000D01*
X176713600Y-86262161D01*
X176730118Y-86286882D01*
X179172800Y-88729563D01*
X179172800Y-89785851D01*
X179041743Y-89468669D01*
X178377826Y-88803592D01*
X177509932Y-88443211D01*
X176570191Y-88442391D01*
X175701669Y-88801257D01*
X175036592Y-89465174D01*
X174676211Y-90333068D01*
X174675391Y-91272809D01*
X175034257Y-92141331D01*
X175698174Y-92806408D01*
X176566068Y-93166789D01*
X177505809Y-93167609D01*
X178374331Y-92808743D01*
X179039408Y-92144826D01*
X179172800Y-91823582D01*
X179172800Y-117725851D01*
X179041743Y-117408669D01*
X178377826Y-116743592D01*
X177509932Y-116383211D01*
X176570191Y-116382391D01*
X175701669Y-116741257D01*
X175036592Y-117405174D01*
X174676211Y-118273068D01*
X174675391Y-119212809D01*
X175034257Y-120081331D01*
X175698174Y-120746408D01*
X176566068Y-121106789D01*
X177505809Y-121107609D01*
X178374331Y-120748743D01*
X179039408Y-120084826D01*
X179172800Y-119763582D01*
X179172800Y-121074436D01*
X177076061Y-123171175D01*
X177017487Y-123083513D01*
X177017483Y-123083510D01*
X175622901Y-121688928D01*
X175691592Y-121523503D01*
X175692007Y-121048580D01*
X175510645Y-120609650D01*
X175175116Y-120273536D01*
X174736503Y-120091408D01*
X174261580Y-120090993D01*
X174094148Y-120160174D01*
X171429487Y-117495513D01*
X171322362Y-117423935D01*
X171196000Y-117398800D01*
X165236774Y-117398800D01*
X162255200Y-114417226D01*
X162255200Y-111506000D01*
X162230065Y-111379638D01*
X162158487Y-111272513D01*
X162158483Y-111272510D01*
X160761487Y-109875513D01*
X160654362Y-109803935D01*
X160528000Y-109778800D01*
X146050000Y-109778800D01*
X145923638Y-109803935D01*
X145816513Y-109875513D01*
X144546513Y-111145513D01*
X144474935Y-111252638D01*
X144449800Y-111379000D01*
X144449800Y-113792000D01*
X144474935Y-113918362D01*
X144546513Y-114025487D01*
X148864513Y-118343487D01*
X148971638Y-118415065D01*
X149098000Y-118440200D01*
X153279226Y-118440200D01*
X154198513Y-119359487D01*
X154305638Y-119431065D01*
X154432000Y-119456200D01*
X156962226Y-119456200D01*
X158546800Y-121040773D01*
X158546800Y-125959800D01*
X149633563Y-125959800D01*
X149637730Y-125953564D01*
X149682200Y-125730000D01*
X149682200Y-124875307D01*
X149773350Y-124837645D01*
X149868037Y-124743122D01*
X150971325Y-124743122D01*
X151074072Y-124903672D01*
X151529789Y-125037369D01*
X152001979Y-124986494D01*
X152201928Y-124903672D01*
X152304675Y-124743122D01*
X153511325Y-124743122D01*
X153614072Y-124903672D01*
X154069789Y-125037369D01*
X154541979Y-124986494D01*
X154741928Y-124903672D01*
X154844675Y-124743122D01*
X154178000Y-124076447D01*
X153511325Y-124743122D01*
X152304675Y-124743122D01*
X152304675Y-124743122D01*
X151638000Y-124076447D01*
X150971325Y-124743122D01*
X149868037Y-124743122D01*
X150109464Y-124502116D01*
X150291592Y-124063503D01*
X150291894Y-123716789D01*
X150425631Y-123716789D01*
X150476506Y-124188979D01*
X150559328Y-124388928D01*
X150719878Y-124491675D01*
X151386553Y-123825000D01*
X151889447Y-123825000D01*
X152556122Y-124491675D01*
X152716672Y-124388928D01*
X152850369Y-123933211D01*
X152827052Y-123716789D01*
X152965631Y-123716789D01*
X153016506Y-124188979D01*
X153099328Y-124388928D01*
X153259878Y-124491675D01*
X153926553Y-123825000D01*
X154429447Y-123825000D01*
X155096122Y-124491675D01*
X155256672Y-124388928D01*
X155352755Y-124061420D01*
X155523993Y-124061420D01*
X155705355Y-124500350D01*
X156040884Y-124836464D01*
X156479497Y-125018592D01*
X156954420Y-125019007D01*
X157393350Y-124837645D01*
X157729464Y-124502116D01*
X157911592Y-124063503D01*
X157912007Y-123588580D01*
X157730645Y-123149650D01*
X157395116Y-122813536D01*
X156956503Y-122631408D01*
X156481580Y-122630993D01*
X156042650Y-122812355D01*
X155706536Y-123147884D01*
X155524408Y-123586497D01*
X155523993Y-124061420D01*
X155352755Y-124061420D01*
X155390369Y-123933211D01*
X155339494Y-123461021D01*
X155256672Y-123261072D01*
X155096122Y-123158325D01*
X154429447Y-123825000D01*
X153926553Y-123825000D01*
X153926553Y-123825000D01*
X153259878Y-123158325D01*
X153099328Y-123261072D01*
X152965631Y-123716789D01*
X152827052Y-123716789D01*
X152799494Y-123461021D01*
X152716672Y-123261072D01*
X152556122Y-123158325D01*
X151889447Y-123825000D01*
X151386553Y-123825000D01*
X151386553Y-123825000D01*
X150719878Y-123158325D01*
X150559328Y-123261072D01*
X150425631Y-123716789D01*
X150291894Y-123716789D01*
X150292007Y-123588580D01*
X150110645Y-123149650D01*
X149868296Y-122906878D01*
X150971325Y-122906878D01*
X151638000Y-123573553D01*
X152304675Y-122906878D01*
X153511325Y-122906878D01*
X154178000Y-123573553D01*
X154844675Y-122906878D01*
X154741928Y-122746328D01*
X154286211Y-122612631D01*
X153814021Y-122663506D01*
X153614072Y-122746328D01*
X153511325Y-122906878D01*
X152304675Y-122906878D01*
X152304675Y-122906878D01*
X152201928Y-122746328D01*
X151746211Y-122612631D01*
X151274021Y-122663506D01*
X151074072Y-122746328D01*
X150971325Y-122906878D01*
X149868296Y-122906878D01*
X149775116Y-122813536D01*
X149336503Y-122631408D01*
X148861580Y-122630993D01*
X148422650Y-122812355D01*
X148086536Y-123147884D01*
X147904408Y-123586497D01*
X147903993Y-124061420D01*
X148085355Y-124500350D01*
X148420884Y-124836464D01*
X148513800Y-124875046D01*
X148513800Y-125145800D01*
X129870200Y-125145800D01*
X129870200Y-118364000D01*
X129825730Y-118140436D01*
X129699092Y-117950908D01*
X129509564Y-117824270D01*
X129286000Y-117779800D01*
X127248937Y-117779800D01*
X127126863Y-117729111D01*
X126874245Y-117728890D01*
X126640772Y-117825360D01*
X126461987Y-118003832D01*
X126365111Y-118237137D01*
X126364890Y-118489755D01*
X126461360Y-118723228D01*
X126639832Y-118902013D01*
X126873137Y-118998889D01*
X127125755Y-118999110D01*
X127248965Y-118948200D01*
X128701800Y-118948200D01*
X128701800Y-125730000D01*
X128746270Y-125953564D01*
X128750437Y-125959800D01*
X125987149Y-125959800D01*
X126304331Y-125828743D01*
X126969408Y-125164826D01*
X127329789Y-124296932D01*
X127330609Y-123357191D01*
X126971743Y-122488669D01*
X126307826Y-121823592D01*
X125439932Y-121463211D01*
X124500191Y-121462391D01*
X123631669Y-121821257D01*
X122966592Y-122485174D01*
X122606211Y-123353068D01*
X122605391Y-124292809D01*
X122964257Y-125161331D01*
X123628174Y-125826408D01*
X123949418Y-125959800D01*
X111403200Y-125959800D01*
X111403200Y-123303008D01*
X115659488Y-123303008D01*
X115708213Y-123829946D01*
X115816124Y-124090466D01*
X115990846Y-124210107D01*
X116092456Y-124108497D01*
X116240846Y-124210107D01*
X116342456Y-124108497D01*
X116490844Y-124210106D01*
X116424710Y-124276240D01*
X116426159Y-124277689D01*
X116242293Y-124461554D01*
X116361934Y-124636276D01*
X116867408Y-124792912D01*
X117059953Y-124775108D01*
X117117408Y-124792912D01*
X117309953Y-124775108D01*
X117367408Y-124792912D01*
X117559953Y-124775108D01*
X117617408Y-124792912D01*
X117809953Y-124775108D01*
X117867408Y-124792912D01*
X118059953Y-124775108D01*
X118117408Y-124792912D01*
X118309953Y-124775108D01*
X118367408Y-124792912D01*
X118559953Y-124775108D01*
X118617408Y-124792912D01*
X118809953Y-124775108D01*
X118867408Y-124792912D01*
X119394346Y-124744187D01*
X119654866Y-124636276D01*
X119774507Y-124461554D01*
X119590642Y-124277689D01*
X119592090Y-124276240D01*
X119525956Y-124210106D01*
X119674344Y-124108497D01*
X119775954Y-124210107D01*
X119924344Y-124108497D01*
X120025954Y-124210107D01*
X120200676Y-124090466D01*
X120357312Y-123584992D01*
X120308587Y-123058054D01*
X120200676Y-122797534D01*
X120025954Y-122677893D01*
X119924344Y-122779503D01*
X119775954Y-122677893D01*
X119674344Y-122779503D01*
X119525956Y-122677894D01*
X119592090Y-122611760D01*
X119590642Y-122610312D01*
X119774507Y-122426446D01*
X119654866Y-122251724D01*
X119149392Y-122095088D01*
X118956847Y-122112892D01*
X118899392Y-122095088D01*
X118706847Y-122112892D01*
X118649392Y-122095088D01*
X118456847Y-122112892D01*
X118399392Y-122095088D01*
X118382612Y-122096640D01*
X118460351Y-122018901D01*
X118393124Y-121951674D01*
X118553672Y-121848928D01*
X118687369Y-121393211D01*
X118636494Y-120921021D01*
X118553672Y-120721072D01*
X118393122Y-120618325D01*
X117726447Y-121285000D01*
X117740590Y-121299143D01*
X117489143Y-121550590D01*
X117475000Y-121536447D01*
X116892615Y-122118832D01*
X116622454Y-122143813D01*
X116361934Y-122251724D01*
X116242293Y-122426446D01*
X116426159Y-122610312D01*
X116424710Y-122611760D01*
X116490844Y-122677894D01*
X116342456Y-122779503D01*
X116240846Y-122677893D01*
X116092456Y-122779503D01*
X115990846Y-122677893D01*
X115816124Y-122797534D01*
X115659488Y-123303008D01*
X111403200Y-123303008D01*
X111403200Y-121176789D01*
X116262631Y-121176789D01*
X116313506Y-121648979D01*
X116396328Y-121848928D01*
X116556878Y-121951675D01*
X117223553Y-121285000D01*
X116556878Y-120618325D01*
X116396328Y-120721072D01*
X116262631Y-121176789D01*
X111403200Y-121176789D01*
X111403200Y-117604008D01*
X113659748Y-117604008D01*
X113677552Y-117796553D01*
X113659748Y-117854008D01*
X113677552Y-118046553D01*
X113659748Y-118104008D01*
X113677552Y-118296553D01*
X113659748Y-118354008D01*
X113677552Y-118546553D01*
X113659748Y-118604008D01*
X113677552Y-118796553D01*
X113659748Y-118854008D01*
X113677552Y-119046553D01*
X113659748Y-119104008D01*
X113677552Y-119296553D01*
X113659748Y-119354008D01*
X113677552Y-119546553D01*
X113659748Y-119604008D01*
X113708473Y-120130946D01*
X113816384Y-120391466D01*
X113991106Y-120511107D01*
X114174972Y-120327242D01*
X114176420Y-120328690D01*
X114242554Y-120262556D01*
X114344163Y-120410944D01*
X114242553Y-120512554D01*
X114344163Y-120660944D01*
X114242553Y-120762554D01*
X114362194Y-120937276D01*
X114867668Y-121093912D01*
X115394606Y-121045187D01*
X115655126Y-120937276D01*
X115774767Y-120762554D01*
X115673157Y-120660944D01*
X115774767Y-120512554D01*
X115673157Y-120410944D01*
X115774766Y-120262556D01*
X115840900Y-120328690D01*
X115842349Y-120327242D01*
X116026214Y-120511107D01*
X116200936Y-120391466D01*
X116208555Y-120366878D01*
X116808325Y-120366878D01*
X117475000Y-121033553D01*
X118141675Y-120366878D01*
X118038928Y-120206328D01*
X117583211Y-120072631D01*
X117111021Y-120123506D01*
X116911072Y-120206328D01*
X116808325Y-120366878D01*
X116208555Y-120366878D01*
X116357572Y-119885992D01*
X116339768Y-119693447D01*
X116357572Y-119635992D01*
X116339768Y-119443447D01*
X116357572Y-119385992D01*
X116339768Y-119193447D01*
X116357572Y-119135992D01*
X116339768Y-118943447D01*
X116357572Y-118885992D01*
X116339768Y-118693447D01*
X116357572Y-118635992D01*
X116339768Y-118443447D01*
X116357572Y-118385992D01*
X116339768Y-118193447D01*
X116357572Y-118135992D01*
X116345777Y-118008432D01*
X119677710Y-118008432D01*
X119677928Y-118008959D01*
X119677710Y-118258432D01*
X119677928Y-118258959D01*
X119677710Y-118508432D01*
X119677928Y-118508959D01*
X119677710Y-118758432D01*
X119677928Y-118758959D01*
X119677710Y-119008432D01*
X119677928Y-119008959D01*
X119677710Y-119258432D01*
X119677928Y-119258959D01*
X119677710Y-119508432D01*
X119677928Y-119508959D01*
X119677710Y-119758432D01*
X119677928Y-119758959D01*
X119677710Y-120008432D01*
X119879794Y-120497513D01*
X120253659Y-120872031D01*
X120742386Y-121074968D01*
X121271572Y-121075430D01*
X121760653Y-120873346D01*
X122135171Y-120499481D01*
X122338108Y-120010754D01*
X122338570Y-119481568D01*
X122338352Y-119481041D01*
X122338570Y-119231568D01*
X122338352Y-119231041D01*
X122338570Y-118981568D01*
X122338352Y-118981041D01*
X122338570Y-118731568D01*
X122338352Y-118731041D01*
X122338570Y-118481568D01*
X122338352Y-118481041D01*
X122338570Y-118231568D01*
X122338352Y-118231041D01*
X122338570Y-117981568D01*
X122338352Y-117981041D01*
X122338570Y-117731568D01*
X122338352Y-117731041D01*
X122338570Y-117481568D01*
X122136486Y-116992487D01*
X121762621Y-116617969D01*
X121273894Y-116415032D01*
X120744708Y-116414570D01*
X120255627Y-116616654D01*
X119881109Y-116990519D01*
X119678172Y-117479246D01*
X119677710Y-118008432D01*
X116345777Y-118008432D01*
X116339768Y-117943447D01*
X116357572Y-117885992D01*
X116308847Y-117359054D01*
X116200936Y-117098534D01*
X116026214Y-116978893D01*
X115842349Y-117162759D01*
X115840900Y-117161310D01*
X115774766Y-117227444D01*
X115673157Y-117079056D01*
X115774767Y-116977446D01*
X115673157Y-116829056D01*
X115774767Y-116727446D01*
X115655126Y-116552724D01*
X115295942Y-116441420D01*
X116280993Y-116441420D01*
X116462355Y-116880350D01*
X116797884Y-117216464D01*
X117236497Y-117398592D01*
X117711420Y-117399007D01*
X118150350Y-117217645D01*
X118486464Y-116882116D01*
X118668592Y-116443503D01*
X118669007Y-115968580D01*
X118487645Y-115529650D01*
X118152116Y-115193536D01*
X117713503Y-115011408D01*
X117238580Y-115010993D01*
X116799650Y-115192355D01*
X116463536Y-115527884D01*
X116281408Y-115966497D01*
X116280993Y-116441420D01*
X115295942Y-116441420D01*
X115149652Y-116396088D01*
X114622714Y-116444813D01*
X114362194Y-116552724D01*
X114242553Y-116727446D01*
X114344163Y-116829056D01*
X114242553Y-116977446D01*
X114344163Y-117079056D01*
X114242554Y-117227444D01*
X114176420Y-117161310D01*
X114174972Y-117162759D01*
X113991106Y-116978893D01*
X113816384Y-117098534D01*
X113659748Y-117604008D01*
X111403200Y-117604008D01*
X111403200Y-105789755D01*
X137032890Y-105789755D01*
X137129360Y-106023228D01*
X137307832Y-106202013D01*
X137541137Y-106298889D01*
X137728317Y-106299053D01*
X137896600Y-106467336D01*
X137896600Y-119592664D01*
X137380632Y-120108632D01*
X137292535Y-120240477D01*
X137261600Y-120396000D01*
X137261600Y-122047000D01*
X137292535Y-122202523D01*
X137336040Y-122267632D01*
X137380632Y-122334368D01*
X137888631Y-122842368D01*
X137985177Y-122906878D01*
X138020477Y-122930465D01*
X138123755Y-122951008D01*
X137926536Y-123147884D01*
X137744408Y-123586497D01*
X137743993Y-124061420D01*
X137925355Y-124500350D01*
X138260884Y-124836464D01*
X138699497Y-125018592D01*
X139174420Y-125019007D01*
X139613350Y-124837645D01*
X139949464Y-124502116D01*
X140131592Y-124063503D01*
X140132007Y-123588580D01*
X139950645Y-123149650D01*
X139762723Y-122961400D01*
X140653345Y-122961400D01*
X140466536Y-123147884D01*
X140284408Y-123586497D01*
X140283993Y-124061420D01*
X140465355Y-124500350D01*
X140800884Y-124836464D01*
X141239497Y-125018592D01*
X141714420Y-125019007D01*
X142153350Y-124837645D01*
X142489464Y-124502116D01*
X142671592Y-124063503D01*
X142672007Y-123588580D01*
X142490645Y-123149650D01*
X142302723Y-122961400D01*
X142579664Y-122961400D01*
X142936005Y-123317741D01*
X142824408Y-123586497D01*
X142823993Y-124061420D01*
X143005355Y-124500350D01*
X143340884Y-124836464D01*
X143779497Y-125018592D01*
X144254420Y-125019007D01*
X144693350Y-124837645D01*
X145029464Y-124502116D01*
X145211592Y-124063503D01*
X145211593Y-124061420D01*
X145363993Y-124061420D01*
X145545355Y-124500350D01*
X145880884Y-124836464D01*
X146319497Y-125018592D01*
X146794420Y-125019007D01*
X147233350Y-124837645D01*
X147569464Y-124502116D01*
X147751592Y-124063503D01*
X147752007Y-123588580D01*
X147570645Y-123149650D01*
X147235116Y-122813536D01*
X146796503Y-122631408D01*
X146321580Y-122630993D01*
X145882650Y-122812355D01*
X145546536Y-123147884D01*
X145364408Y-123586497D01*
X145363993Y-124061420D01*
X145211593Y-124061420D01*
X145212007Y-123588580D01*
X145030645Y-123149650D01*
X144695116Y-122813536D01*
X144256503Y-122631408D01*
X143781580Y-122630993D01*
X143510668Y-122742932D01*
X143035368Y-122267632D01*
X143011560Y-122251724D01*
X142903523Y-122179535D01*
X142748000Y-122148600D01*
X142302655Y-122148600D01*
X142489464Y-121962116D01*
X142671592Y-121523503D01*
X142672007Y-121048580D01*
X142490645Y-120609650D01*
X142155116Y-120273536D01*
X141899512Y-120167400D01*
X142325664Y-120167400D01*
X142936005Y-120777741D01*
X142824408Y-121046497D01*
X142823993Y-121521420D01*
X143005355Y-121960350D01*
X143340884Y-122296464D01*
X143779497Y-122478592D01*
X144254420Y-122479007D01*
X144693350Y-122297645D01*
X145029464Y-121962116D01*
X145211592Y-121523503D01*
X145212007Y-121048580D01*
X145030645Y-120609650D01*
X144695116Y-120273536D01*
X144256503Y-120091408D01*
X143781580Y-120090993D01*
X143510668Y-120202931D01*
X143094136Y-119786400D01*
X144484664Y-119786400D01*
X145476005Y-120777741D01*
X145364408Y-121046497D01*
X145363993Y-121521420D01*
X145545355Y-121960350D01*
X145880884Y-122296464D01*
X146319497Y-122478592D01*
X146794420Y-122479007D01*
X147233350Y-122297645D01*
X147569464Y-121962116D01*
X147751592Y-121523503D01*
X147752007Y-121048580D01*
X147570645Y-120609650D01*
X147235116Y-120273536D01*
X146796503Y-120091408D01*
X146321580Y-120090993D01*
X146050668Y-120202932D01*
X144940368Y-119092632D01*
X144808523Y-119004535D01*
X144653000Y-118973600D01*
X141265336Y-118973600D01*
X140741400Y-118449664D01*
X140741400Y-108331000D01*
X141706600Y-108331000D01*
X141706600Y-116459000D01*
X141737535Y-116614523D01*
X141784278Y-116684478D01*
X141825632Y-116746368D01*
X143349631Y-118270368D01*
X143439822Y-118330632D01*
X143481477Y-118358465D01*
X143637000Y-118389400D01*
X145500664Y-118389400D01*
X147978743Y-120867479D01*
X147904408Y-121046497D01*
X147903993Y-121521420D01*
X148085355Y-121960350D01*
X148420884Y-122296464D01*
X148859497Y-122478592D01*
X149334420Y-122479007D01*
X149773350Y-122297645D01*
X150109464Y-121962116D01*
X150291592Y-121523503D01*
X150292007Y-121048580D01*
X150110645Y-120609650D01*
X149775116Y-120273536D01*
X149519512Y-120167400D01*
X149945664Y-120167400D01*
X150556005Y-120777741D01*
X150444408Y-121046497D01*
X150443993Y-121521420D01*
X150625355Y-121960350D01*
X150960884Y-122296464D01*
X151399497Y-122478592D01*
X151874420Y-122479007D01*
X152313350Y-122297645D01*
X152649464Y-121962116D01*
X152831592Y-121523503D01*
X152832007Y-121048580D01*
X152813110Y-121002846D01*
X152984297Y-121174033D01*
X152983993Y-121521420D01*
X153165355Y-121960350D01*
X153500884Y-122296464D01*
X153939497Y-122478592D01*
X154414420Y-122479007D01*
X154853350Y-122297645D01*
X155189464Y-121962116D01*
X155371592Y-121523503D01*
X155372007Y-121048580D01*
X155190645Y-120609650D01*
X154875944Y-120294400D01*
X155152664Y-120294400D01*
X155636005Y-120777741D01*
X155524408Y-121046497D01*
X155523993Y-121521420D01*
X155705355Y-121960350D01*
X156040884Y-122296464D01*
X156479497Y-122478592D01*
X156954420Y-122479007D01*
X157393350Y-122297645D01*
X157729464Y-121962116D01*
X157911592Y-121523503D01*
X157912007Y-121048580D01*
X157730645Y-120609650D01*
X157395116Y-120273536D01*
X156956503Y-120091408D01*
X156481580Y-120090993D01*
X156210668Y-120202932D01*
X155608368Y-119600632D01*
X155570651Y-119575430D01*
X155476523Y-119512535D01*
X155321000Y-119481600D01*
X153203336Y-119481600D01*
X152433368Y-118711632D01*
X152301523Y-118623535D01*
X152146000Y-118592600D01*
X148758336Y-118592600D01*
X146718368Y-116552632D01*
X146586523Y-116464535D01*
X146431000Y-116433600D01*
X144567336Y-116433600D01*
X143662400Y-115528664D01*
X143662400Y-109261336D01*
X146117981Y-106805755D01*
X146811890Y-106805755D01*
X146908360Y-107039228D01*
X147086832Y-107218013D01*
X147320137Y-107314889D01*
X147572755Y-107315110D01*
X147695965Y-107264200D01*
X149237016Y-107264200D01*
X149270884Y-107298068D01*
X149321360Y-107420228D01*
X149499832Y-107599013D01*
X149622953Y-107650137D01*
X151097906Y-109125089D01*
X151097908Y-109125092D01*
X151224547Y-109209709D01*
X151287437Y-109251731D01*
X151511000Y-109296201D01*
X151511005Y-109296200D01*
X163449000Y-109296200D01*
X163672564Y-109251730D01*
X163862092Y-109125092D01*
X164702068Y-108285116D01*
X164824228Y-108234640D01*
X165003013Y-108056168D01*
X165099889Y-107822863D01*
X165100110Y-107570245D01*
X165003640Y-107336772D01*
X164825168Y-107157987D01*
X164591863Y-107061111D01*
X164339245Y-107060890D01*
X164105772Y-107157360D01*
X163926987Y-107335832D01*
X163875863Y-107458953D01*
X163207016Y-108127800D01*
X151752983Y-108127800D01*
X150449116Y-106823932D01*
X150398640Y-106701772D01*
X150220168Y-106522987D01*
X150097047Y-106471863D01*
X149892092Y-106266908D01*
X149799990Y-106205368D01*
X149702564Y-106140270D01*
X149479000Y-106095800D01*
X147695937Y-106095800D01*
X147573863Y-106045111D01*
X147321245Y-106044890D01*
X147087772Y-106141360D01*
X146908987Y-106319832D01*
X146812111Y-106553137D01*
X146811890Y-106805755D01*
X146117981Y-106805755D01*
X146980336Y-105943400D01*
X149945664Y-105943400D01*
X151350631Y-107348368D01*
X151440822Y-107408632D01*
X151482477Y-107436465D01*
X151638000Y-107467400D01*
X157490900Y-107467400D01*
X157576360Y-107674228D01*
X157754832Y-107853013D01*
X157988137Y-107949889D01*
X158240755Y-107950110D01*
X158474228Y-107853640D01*
X158559492Y-107768525D01*
X158643832Y-107853013D01*
X158877137Y-107949889D01*
X159129755Y-107950110D01*
X159363228Y-107853640D01*
X159384881Y-107832025D01*
X159405832Y-107853013D01*
X159639137Y-107949889D01*
X159891755Y-107950110D01*
X160125228Y-107853640D01*
X160146881Y-107832025D01*
X160167832Y-107853013D01*
X160401137Y-107949889D01*
X160653755Y-107950110D01*
X160887228Y-107853640D01*
X161066013Y-107675168D01*
X161162889Y-107441863D01*
X161163110Y-107189245D01*
X161066640Y-106955772D01*
X160906901Y-106795753D01*
X160903465Y-106778477D01*
X160836833Y-106678755D01*
X172211890Y-106678755D01*
X172308360Y-106912228D01*
X172486832Y-107091013D01*
X172720137Y-107187889D01*
X172972755Y-107188110D01*
X173206228Y-107091640D01*
X173385013Y-106913168D01*
X173481889Y-106679863D01*
X173482110Y-106427245D01*
X173385640Y-106193772D01*
X173207168Y-106014987D01*
X172973863Y-105918111D01*
X172721245Y-105917890D01*
X172487772Y-106014360D01*
X172308987Y-106192832D01*
X172212111Y-106426137D01*
X172211890Y-106678755D01*
X160836833Y-106678755D01*
X160815368Y-106646632D01*
X159799368Y-105630632D01*
X159735794Y-105588153D01*
X159667523Y-105542535D01*
X159512000Y-105511600D01*
X152568337Y-105511600D01*
X151163368Y-104106632D01*
X151031523Y-104018535D01*
X150997438Y-104011755D01*
X154939890Y-104011755D01*
X155036360Y-104245228D01*
X155214832Y-104424013D01*
X155448137Y-104520889D01*
X155700755Y-104521110D01*
X155934228Y-104424640D01*
X156066700Y-104292400D01*
X156506356Y-104292400D01*
X156464111Y-104394137D01*
X156463890Y-104646755D01*
X156560360Y-104880228D01*
X156738832Y-105059013D01*
X156972137Y-105155889D01*
X157224755Y-105156110D01*
X157458228Y-105059640D01*
X157590700Y-104927400D01*
X158242000Y-104927400D01*
X158397523Y-104896465D01*
X158529368Y-104808368D01*
X158791336Y-104546400D01*
X165227000Y-104546400D01*
X165382523Y-104515465D01*
X165514368Y-104427368D01*
X165649336Y-104292400D01*
X166455664Y-104292400D01*
X167733632Y-105570368D01*
X167865477Y-105658465D01*
X168021000Y-105689400D01*
X173478546Y-105689400D01*
X173407812Y-106045000D01*
X173498685Y-106501847D01*
X173757468Y-106889144D01*
X174144765Y-107147927D01*
X174601612Y-107238800D01*
X174648388Y-107238800D01*
X175105235Y-107147927D01*
X175492532Y-106889144D01*
X175751315Y-106501847D01*
X175770523Y-106405280D01*
X176026863Y-106405280D01*
X176105446Y-106595038D01*
X176396590Y-106958643D01*
X176804718Y-107183154D01*
X176987200Y-107142952D01*
X176987200Y-106222800D01*
X177342800Y-106222800D01*
X177342800Y-107142952D01*
X177525282Y-107183154D01*
X177933410Y-106958643D01*
X178224554Y-106595038D01*
X178303137Y-106405280D01*
X178261934Y-106222800D01*
X177342800Y-106222800D01*
X176987200Y-106222800D01*
X176987200Y-106222800D01*
X176068066Y-106222800D01*
X176026863Y-106405280D01*
X175770523Y-106405280D01*
X175842188Y-106045000D01*
X175770524Y-105684720D01*
X176026863Y-105684720D01*
X176068066Y-105867200D01*
X176987200Y-105867200D01*
X176987200Y-104947048D01*
X177342800Y-104947048D01*
X177342800Y-105867200D01*
X178261934Y-105867200D01*
X178303137Y-105684720D01*
X178224554Y-105494962D01*
X177933410Y-105131357D01*
X177525282Y-104906846D01*
X177342800Y-104947048D01*
X176987200Y-104947048D01*
X176987200Y-104947048D01*
X176804718Y-104906846D01*
X176396590Y-105131357D01*
X176105446Y-105494962D01*
X176026863Y-105684720D01*
X175770524Y-105684720D01*
X175751315Y-105588153D01*
X175492532Y-105200856D01*
X175416320Y-105149933D01*
X175547368Y-105062368D01*
X176182368Y-104427368D01*
X176184610Y-104424013D01*
X176266052Y-104302127D01*
X176297468Y-104349144D01*
X176684765Y-104607927D01*
X177141612Y-104698800D01*
X177188388Y-104698800D01*
X177645235Y-104607927D01*
X178032532Y-104349144D01*
X178291315Y-103961847D01*
X178382188Y-103505000D01*
X178291315Y-103048153D01*
X178032532Y-102660856D01*
X177645235Y-102402073D01*
X177188388Y-102311200D01*
X177141612Y-102311200D01*
X176684765Y-102402073D01*
X176301400Y-102658229D01*
X176301400Y-102235000D01*
X176270465Y-102079477D01*
X176182368Y-101947632D01*
X175713371Y-101478635D01*
X175751315Y-101421847D01*
X175842188Y-100965000D01*
X175947812Y-100965000D01*
X176038685Y-101421847D01*
X176297468Y-101809144D01*
X176684765Y-102067927D01*
X177141612Y-102158800D01*
X177188388Y-102158800D01*
X177645235Y-102067927D01*
X178032532Y-101809144D01*
X178291315Y-101421847D01*
X178382188Y-100965000D01*
X178291315Y-100508153D01*
X178032532Y-100120856D01*
X177645235Y-99862073D01*
X177188388Y-99771200D01*
X177141612Y-99771200D01*
X176684765Y-99862073D01*
X176297468Y-100120856D01*
X176038685Y-100508153D01*
X175947812Y-100965000D01*
X175842188Y-100965000D01*
X175842188Y-100965000D01*
X175751315Y-100508153D01*
X175492532Y-100120856D01*
X175105235Y-99862073D01*
X174648388Y-99771200D01*
X174601612Y-99771200D01*
X174144765Y-99862073D01*
X173761400Y-100118229D01*
X173761400Y-99863336D01*
X174116017Y-99508719D01*
X174144765Y-99527927D01*
X174601612Y-99618800D01*
X174648388Y-99618800D01*
X175105235Y-99527927D01*
X175492532Y-99269144D01*
X175751315Y-98881847D01*
X175842188Y-98425000D01*
X175947812Y-98425000D01*
X176038685Y-98881847D01*
X176297468Y-99269144D01*
X176684765Y-99527927D01*
X177141612Y-99618800D01*
X177188388Y-99618800D01*
X177645235Y-99527927D01*
X178032532Y-99269144D01*
X178291315Y-98881847D01*
X178382188Y-98425000D01*
X178291315Y-97968153D01*
X178032532Y-97580856D01*
X177645235Y-97322073D01*
X177188388Y-97231200D01*
X177141612Y-97231200D01*
X176684765Y-97322073D01*
X176297468Y-97580856D01*
X176038685Y-97968153D01*
X175947812Y-98425000D01*
X175842188Y-98425000D01*
X175842188Y-98425000D01*
X175751315Y-97968153D01*
X175492532Y-97580856D01*
X175105235Y-97322073D01*
X174648388Y-97231200D01*
X174601612Y-97231200D01*
X174144765Y-97322073D01*
X173761400Y-97578229D01*
X173761400Y-97323336D01*
X173999467Y-97085269D01*
X175488600Y-97085269D01*
X175614504Y-97060841D01*
X175725162Y-96988150D01*
X175799236Y-96878413D01*
X175825269Y-96748600D01*
X175825269Y-96245280D01*
X176026863Y-96245280D01*
X176105446Y-96435038D01*
X176396590Y-96798643D01*
X176804718Y-97023154D01*
X176987200Y-96982952D01*
X176987200Y-96062800D01*
X177342800Y-96062800D01*
X177342800Y-96982952D01*
X177525282Y-97023154D01*
X177933410Y-96798643D01*
X178224554Y-96435038D01*
X178303137Y-96245280D01*
X178261934Y-96062800D01*
X177342800Y-96062800D01*
X176987200Y-96062800D01*
X176987200Y-96062800D01*
X176068066Y-96062800D01*
X176026863Y-96245280D01*
X175825269Y-96245280D01*
X175825269Y-95524720D01*
X176026863Y-95524720D01*
X176068066Y-95707200D01*
X176987200Y-95707200D01*
X176987200Y-94787048D01*
X177342800Y-94787048D01*
X177342800Y-95707200D01*
X178261934Y-95707200D01*
X178303137Y-95524720D01*
X178224554Y-95334962D01*
X177933410Y-94971357D01*
X177525282Y-94746846D01*
X177342800Y-94787048D01*
X176987200Y-94787048D01*
X176987200Y-94787048D01*
X176804718Y-94746846D01*
X176396590Y-94971357D01*
X176105446Y-95334962D01*
X176026863Y-95524720D01*
X175825269Y-95524720D01*
X175825269Y-95021400D01*
X175800841Y-94895496D01*
X175728150Y-94784838D01*
X175618413Y-94710764D01*
X175488600Y-94684731D01*
X173761400Y-94684731D01*
X173635496Y-94709159D01*
X173524838Y-94781850D01*
X173450764Y-94891587D01*
X173424731Y-95021400D01*
X173424731Y-96510533D01*
X173067632Y-96867632D01*
X172979535Y-96999477D01*
X172948600Y-97155000D01*
X172948600Y-98891664D01*
X172686632Y-99153632D01*
X172598535Y-99285477D01*
X172567600Y-99441000D01*
X172567600Y-103463663D01*
X172297664Y-103733600D01*
X168951336Y-103733600D01*
X167673368Y-102455632D01*
X167593212Y-102402073D01*
X167541523Y-102367535D01*
X167386000Y-102336600D01*
X164719000Y-102336600D01*
X164563477Y-102367535D01*
X164431632Y-102455632D01*
X164296664Y-102590600D01*
X158664336Y-102590600D01*
X158402368Y-102328632D01*
X158376279Y-102311200D01*
X158270523Y-102240535D01*
X158115000Y-102209600D01*
X156972000Y-102209600D01*
X156816477Y-102240535D01*
X156710721Y-102311200D01*
X156684632Y-102328632D01*
X156397211Y-102616053D01*
X156211245Y-102615890D01*
X155977772Y-102712360D01*
X155798987Y-102890832D01*
X155702111Y-103124137D01*
X155702000Y-103251168D01*
X155701863Y-103251111D01*
X155449245Y-103250890D01*
X155215772Y-103347360D01*
X155036987Y-103525832D01*
X154940111Y-103759137D01*
X154939890Y-104011755D01*
X150997438Y-104011755D01*
X150876000Y-103987600D01*
X146050000Y-103987600D01*
X145894477Y-104018535D01*
X145762632Y-104106632D01*
X141825632Y-108043632D01*
X141737535Y-108175477D01*
X141706600Y-108331000D01*
X140741400Y-108331000D01*
X140741400Y-105070336D01*
X141900336Y-103911400D01*
X145034000Y-103911400D01*
X145189523Y-103880465D01*
X145321368Y-103792368D01*
X147361336Y-101752400D01*
X161935900Y-101752400D01*
X162021360Y-101959228D01*
X162199832Y-102138013D01*
X162433137Y-102234889D01*
X162685755Y-102235110D01*
X162919228Y-102138640D01*
X163098013Y-101960168D01*
X163168614Y-101790141D01*
X163322137Y-101853889D01*
X163574755Y-101854110D01*
X163808228Y-101757640D01*
X163893492Y-101672525D01*
X163977832Y-101757013D01*
X164211137Y-101853889D01*
X164463755Y-101854110D01*
X164697228Y-101757640D01*
X164782492Y-101672525D01*
X164866832Y-101757013D01*
X165100137Y-101853889D01*
X165352755Y-101854110D01*
X165586228Y-101757640D01*
X165765013Y-101579168D01*
X165861889Y-101345863D01*
X165862110Y-101093245D01*
X165765640Y-100859772D01*
X165587168Y-100680987D01*
X165353863Y-100584111D01*
X165166683Y-100583947D01*
X164879368Y-100296632D01*
X164747523Y-100208535D01*
X164592000Y-100177600D01*
X164252336Y-100177600D01*
X163990368Y-99915632D01*
X163910212Y-99862073D01*
X163858523Y-99827535D01*
X163703000Y-99796600D01*
X146304000Y-99796600D01*
X146148477Y-99827535D01*
X146016632Y-99915632D01*
X143976664Y-101955600D01*
X140970000Y-101955600D01*
X140814477Y-101986535D01*
X140682632Y-102074632D01*
X138523632Y-104233632D01*
X138435535Y-104365477D01*
X138404600Y-104521000D01*
X138404600Y-105825864D01*
X138302947Y-105724211D01*
X138303110Y-105538245D01*
X138206640Y-105304772D01*
X138028168Y-105125987D01*
X137794863Y-105029111D01*
X137542245Y-105028890D01*
X137308772Y-105125360D01*
X137129987Y-105303832D01*
X137033111Y-105537137D01*
X137032890Y-105789755D01*
X111403200Y-105789755D01*
X111403200Y-98550755D01*
X124332890Y-98550755D01*
X124429360Y-98784228D01*
X124607832Y-98963013D01*
X124841137Y-99059889D01*
X125093755Y-99060110D01*
X125327228Y-98963640D01*
X125459700Y-98831400D01*
X126069664Y-98831400D01*
X132173632Y-104935368D01*
X132305478Y-105023466D01*
X132461000Y-105054400D01*
X135906449Y-105054400D01*
X136037832Y-105186013D01*
X136271137Y-105282889D01*
X136523755Y-105283110D01*
X136757228Y-105186640D01*
X136936013Y-105008168D01*
X137032889Y-104774863D01*
X137033110Y-104522245D01*
X136936640Y-104288772D01*
X136758168Y-104109987D01*
X136524863Y-104013111D01*
X136272245Y-104012890D01*
X136038772Y-104109360D01*
X135906300Y-104241600D01*
X132629336Y-104241600D01*
X131764491Y-103376755D01*
X134492890Y-103376755D01*
X134589360Y-103610228D01*
X134767832Y-103789013D01*
X135001137Y-103885889D01*
X135253755Y-103886110D01*
X135487228Y-103789640D01*
X135619700Y-103657400D01*
X138684000Y-103657400D01*
X138839523Y-103626465D01*
X138971368Y-103538368D01*
X140757336Y-101752400D01*
X142875000Y-101752400D01*
X143030523Y-101721465D01*
X143162368Y-101633368D01*
X144084789Y-100710947D01*
X144270755Y-100711110D01*
X144504228Y-100614640D01*
X144683013Y-100436168D01*
X144779889Y-100202863D01*
X144780110Y-99950245D01*
X144683640Y-99716772D01*
X144505168Y-99537987D01*
X144271863Y-99441111D01*
X144019245Y-99440890D01*
X143785772Y-99537360D01*
X143606987Y-99715832D01*
X143510111Y-99949137D01*
X143509947Y-100136317D01*
X142706664Y-100939600D01*
X140589000Y-100939600D01*
X140433477Y-100970535D01*
X140301632Y-101058632D01*
X138515664Y-102844600D01*
X135619551Y-102844600D01*
X135488168Y-102712987D01*
X135254863Y-102616111D01*
X135002245Y-102615890D01*
X134768772Y-102712360D01*
X134589987Y-102890832D01*
X134493111Y-103124137D01*
X134492890Y-103376755D01*
X131764491Y-103376755D01*
X126525368Y-98137632D01*
X126393523Y-98049535D01*
X126238000Y-98018600D01*
X125459551Y-98018600D01*
X125328168Y-97886987D01*
X125094863Y-97790111D01*
X124842245Y-97789890D01*
X124608772Y-97886360D01*
X124429987Y-98064832D01*
X124333111Y-98298137D01*
X124332890Y-98550755D01*
X111403200Y-98550755D01*
X111403200Y-96391755D01*
X130428890Y-96391755D01*
X130525360Y-96625228D01*
X130703832Y-96804013D01*
X130937137Y-96900889D01*
X131189755Y-96901110D01*
X131423228Y-96804640D01*
X131555700Y-96672400D01*
X133892863Y-96672400D01*
X131784664Y-98780600D01*
X131555551Y-98780600D01*
X131424168Y-98648987D01*
X131190863Y-98552111D01*
X130938245Y-98551890D01*
X130704772Y-98648360D01*
X130525987Y-98826832D01*
X130429111Y-99060137D01*
X130428890Y-99312755D01*
X130525360Y-99546228D01*
X130703832Y-99725013D01*
X130937000Y-99821832D01*
X130936890Y-99947755D01*
X131033360Y-100181228D01*
X131211832Y-100360013D01*
X131445000Y-100456832D01*
X131444890Y-100582755D01*
X131541360Y-100816228D01*
X131719832Y-100995013D01*
X131953000Y-101091832D01*
X131952890Y-101217755D01*
X132049360Y-101451228D01*
X132227832Y-101630013D01*
X132461137Y-101726889D01*
X132713755Y-101727110D01*
X132947228Y-101630640D01*
X133126013Y-101452168D01*
X133222889Y-101218863D01*
X133223110Y-100966245D01*
X133126640Y-100732772D01*
X133121400Y-100727523D01*
X133121400Y-100498336D01*
X135423337Y-98196400D01*
X137956864Y-98196400D01*
X136991664Y-99161600D01*
X136889551Y-99161600D01*
X136758168Y-99029987D01*
X136524863Y-98933111D01*
X136272245Y-98932890D01*
X136038772Y-99029360D01*
X135859987Y-99207832D01*
X135763111Y-99441137D01*
X135762890Y-99693755D01*
X135859360Y-99927228D01*
X136037832Y-100106013D01*
X136271000Y-100202832D01*
X136270890Y-100328755D01*
X136367360Y-100562228D01*
X136545832Y-100741013D01*
X136779000Y-100837832D01*
X136778890Y-100963755D01*
X136875360Y-101197228D01*
X137053832Y-101376013D01*
X137287000Y-101472832D01*
X137286890Y-101598755D01*
X137383360Y-101832228D01*
X137561832Y-102011013D01*
X137795137Y-102107889D01*
X138047755Y-102108110D01*
X138281228Y-102011640D01*
X138460013Y-101833168D01*
X138556889Y-101599863D01*
X138557110Y-101347245D01*
X138460640Y-101113772D01*
X138455400Y-101108523D01*
X138455400Y-100752336D01*
X139487336Y-99720400D01*
X140716000Y-99720400D01*
X140871523Y-99689465D01*
X141003368Y-99601368D01*
X141265336Y-99339400D01*
X163661664Y-99339400D01*
X163796632Y-99474368D01*
X163928477Y-99562465D01*
X164084000Y-99593400D01*
X164550664Y-99593400D01*
X164685632Y-99728368D01*
X164817477Y-99816465D01*
X164973000Y-99847400D01*
X165370449Y-99847400D01*
X165501832Y-99979013D01*
X165735137Y-100075889D01*
X165987755Y-100076110D01*
X166221228Y-99979640D01*
X166400013Y-99801168D01*
X166496889Y-99567863D01*
X166497110Y-99315245D01*
X166400640Y-99081772D01*
X166222168Y-98902987D01*
X165988863Y-98806111D01*
X165862000Y-98806000D01*
X165862110Y-98680245D01*
X165765640Y-98446772D01*
X165587168Y-98267987D01*
X165353863Y-98171111D01*
X165227000Y-98171000D01*
X165227110Y-98045245D01*
X165130640Y-97811772D01*
X164952168Y-97632987D01*
X164718863Y-97536111D01*
X164592000Y-97536000D01*
X164592110Y-97410245D01*
X164495640Y-97176772D01*
X164317168Y-96997987D01*
X164083863Y-96901111D01*
X163957000Y-96901000D01*
X164082755Y-96901110D01*
X164316228Y-96804640D01*
X164495013Y-96626168D01*
X164591889Y-96392863D01*
X164592000Y-96266000D01*
X164717755Y-96266110D01*
X164951228Y-96169640D01*
X165130013Y-95991168D01*
X165226889Y-95757863D01*
X165227000Y-95631000D01*
X165352755Y-95631110D01*
X165586228Y-95534640D01*
X165765013Y-95356168D01*
X165861889Y-95122863D01*
X165862110Y-94870245D01*
X165765640Y-94636772D01*
X165587168Y-94457987D01*
X165353863Y-94361111D01*
X165101245Y-94360890D01*
X164867772Y-94457360D01*
X164735300Y-94589600D01*
X164338000Y-94589600D01*
X164182477Y-94620535D01*
X164050632Y-94708632D01*
X163915664Y-94843600D01*
X163576000Y-94843600D01*
X163420477Y-94874535D01*
X163288632Y-94962632D01*
X163153664Y-95097600D01*
X162560000Y-95097600D01*
X162404477Y-95128535D01*
X162272632Y-95216632D01*
X161629664Y-95859600D01*
X161247644Y-95859600D01*
X161289889Y-95757863D01*
X161290110Y-95505245D01*
X161193640Y-95271772D01*
X161015168Y-95092987D01*
X160781863Y-94996111D01*
X160529245Y-94995890D01*
X160295772Y-95092360D01*
X160116987Y-95270832D01*
X160030715Y-95478600D01*
X139065000Y-95478600D01*
X138931045Y-95505245D01*
X138909477Y-95509535D01*
X138777632Y-95597632D01*
X138515664Y-95859600D01*
X131555551Y-95859600D01*
X131424168Y-95727987D01*
X131190863Y-95631111D01*
X130938245Y-95630890D01*
X130704772Y-95727360D01*
X130525987Y-95905832D01*
X130429111Y-96139137D01*
X130428890Y-96391755D01*
X111403200Y-96391755D01*
X111403200Y-95580200D01*
X113527515Y-95580200D01*
X113611246Y-95614968D01*
X114140432Y-95615430D01*
X114140896Y-95615238D01*
X114360432Y-95615430D01*
X114360896Y-95615238D01*
X114580432Y-95615430D01*
X114580896Y-95615238D01*
X114800432Y-95615430D01*
X114800896Y-95615238D01*
X115020432Y-95615430D01*
X115020896Y-95615238D01*
X115240432Y-95615430D01*
X115240896Y-95615238D01*
X115460432Y-95615430D01*
X115949513Y-95413346D01*
X116324031Y-95039481D01*
X116526968Y-94550754D01*
X116527430Y-94021568D01*
X116509741Y-93978755D01*
X135889890Y-93978755D01*
X135986360Y-94212228D01*
X136164832Y-94391013D01*
X136398137Y-94487889D01*
X136525405Y-94488000D01*
X136621360Y-94720228D01*
X136799832Y-94899013D01*
X137033137Y-94995889D01*
X137160405Y-94996000D01*
X137256360Y-95228228D01*
X137434832Y-95407013D01*
X137668137Y-95503889D01*
X137920755Y-95504110D01*
X138154228Y-95407640D01*
X138333013Y-95229168D01*
X138429889Y-94995863D01*
X138430110Y-94743245D01*
X138337828Y-94519908D01*
X138471337Y-94386400D01*
X139150664Y-94386400D01*
X139920632Y-95156368D01*
X140052477Y-95244465D01*
X140208000Y-95275400D01*
X148717000Y-95275400D01*
X148730539Y-95272707D01*
X148737832Y-95280013D01*
X148971137Y-95376889D01*
X149223755Y-95377110D01*
X149457228Y-95280640D01*
X149636013Y-95102168D01*
X149687937Y-94977120D01*
X149733137Y-94995889D01*
X149985755Y-94996110D01*
X150219228Y-94899640D01*
X150398013Y-94721168D01*
X150449937Y-94596120D01*
X150495137Y-94614889D01*
X150747755Y-94615110D01*
X150981228Y-94518640D01*
X151160013Y-94340168D01*
X151211937Y-94215120D01*
X151257137Y-94233889D01*
X151509755Y-94234110D01*
X151743228Y-94137640D01*
X151922013Y-93959168D01*
X152018889Y-93725863D01*
X152019110Y-93473245D01*
X151922640Y-93239772D01*
X151744168Y-93060987D01*
X151510863Y-92964111D01*
X151308674Y-92963934D01*
X151295351Y-92955032D01*
X151222023Y-92906035D01*
X151066500Y-92875100D01*
X148653500Y-92875100D01*
X148497977Y-92906035D01*
X148424649Y-92955032D01*
X148366132Y-92994132D01*
X148040664Y-93319600D01*
X141570139Y-93319600D01*
X141181170Y-92930632D01*
X141098061Y-92875100D01*
X141049325Y-92842535D01*
X140893802Y-92811600D01*
X137541000Y-92811600D01*
X137385477Y-92842535D01*
X137336741Y-92875100D01*
X137253632Y-92930632D01*
X136873939Y-93310325D01*
X136651863Y-93218111D01*
X136399245Y-93217890D01*
X136165772Y-93314360D01*
X135986987Y-93492832D01*
X135890111Y-93726137D01*
X135889890Y-93978755D01*
X116509741Y-93978755D01*
X116325346Y-93532487D01*
X115951481Y-93157969D01*
X115773200Y-93083940D01*
X115773200Y-91380345D01*
X115782757Y-91370805D01*
X115905600Y-91074967D01*
X115905880Y-90754638D01*
X115905749Y-90754321D01*
X115905880Y-90604638D01*
X115905749Y-90604321D01*
X115905880Y-90454638D01*
X115866307Y-90358862D01*
X116644585Y-90358862D01*
X116734684Y-90508870D01*
X117153258Y-90625444D01*
X117584581Y-90572963D01*
X117739316Y-90508870D01*
X117829415Y-90358862D01*
X117237000Y-89766447D01*
X116644585Y-90358862D01*
X115866307Y-90358862D01*
X115783554Y-90158587D01*
X115557245Y-89931883D01*
X115261407Y-89809040D01*
X114941078Y-89808760D01*
X114645027Y-89931086D01*
X114609251Y-89966800D01*
X114249200Y-89966800D01*
X114249200Y-89431258D01*
X116126556Y-89431258D01*
X116179037Y-89862581D01*
X116243130Y-90017316D01*
X116393138Y-90107415D01*
X116985553Y-89515000D01*
X117488447Y-89515000D01*
X118080862Y-90107415D01*
X118230870Y-90017316D01*
X118243723Y-89971167D01*
X118310538Y-90132873D01*
X118617511Y-90440382D01*
X119018795Y-90607010D01*
X119453299Y-90607389D01*
X119854873Y-90441462D01*
X120162382Y-90134489D01*
X120329010Y-89733205D01*
X120329294Y-89406755D01*
X130428890Y-89406755D01*
X130525360Y-89640228D01*
X130703832Y-89819013D01*
X130937137Y-89915889D01*
X131189755Y-89916110D01*
X131423228Y-89819640D01*
X131555700Y-89687400D01*
X132080000Y-89687400D01*
X132235523Y-89656465D01*
X132367368Y-89568368D01*
X132502336Y-89433400D01*
X143595664Y-89433400D01*
X144459206Y-90296942D01*
X144400245Y-90296890D01*
X144166772Y-90393360D01*
X143987987Y-90571832D01*
X143891111Y-90805137D01*
X143890890Y-91057755D01*
X143987360Y-91291228D01*
X144165832Y-91470013D01*
X144399137Y-91566889D01*
X144651755Y-91567110D01*
X144885228Y-91470640D01*
X144941615Y-91414351D01*
X146143632Y-92616368D01*
X146275477Y-92704465D01*
X146431000Y-92735400D01*
X159216664Y-92735400D01*
X159478632Y-92997368D01*
X159610477Y-93085465D01*
X159766000Y-93116400D01*
X161052449Y-93116400D01*
X161183832Y-93248013D01*
X161417137Y-93344889D01*
X161669755Y-93345110D01*
X161903228Y-93248640D01*
X162082013Y-93070168D01*
X162178889Y-92836863D01*
X162179110Y-92584245D01*
X162082640Y-92350772D01*
X161904168Y-92171987D01*
X161670863Y-92075111D01*
X161418245Y-92074890D01*
X161184772Y-92171360D01*
X161052300Y-92303600D01*
X160612644Y-92303600D01*
X160654889Y-92201863D01*
X160655110Y-91949245D01*
X160558640Y-91715772D01*
X160380168Y-91536987D01*
X160146863Y-91440111D01*
X159894245Y-91439890D01*
X159660772Y-91536360D01*
X159655523Y-91541600D01*
X151171336Y-91541600D01*
X150020368Y-90390632D01*
X149972821Y-90358862D01*
X149888523Y-90302535D01*
X149733000Y-90271600D01*
X146853336Y-90271600D01*
X145861491Y-89279755D01*
X147954890Y-89279755D01*
X148051360Y-89513228D01*
X148229832Y-89692013D01*
X148463137Y-89788889D01*
X148715755Y-89789110D01*
X148838965Y-89738200D01*
X150380016Y-89738200D01*
X151605908Y-90964092D01*
X151795436Y-91090730D01*
X152019000Y-91135200D01*
X153294063Y-91135200D01*
X153416137Y-91185889D01*
X153668755Y-91186110D01*
X153791965Y-91135200D01*
X168021000Y-91135200D01*
X168244564Y-91090730D01*
X168434092Y-90964092D01*
X168893068Y-90505116D01*
X169015228Y-90454640D01*
X169194013Y-90276168D01*
X169290889Y-90042863D01*
X169291110Y-89790245D01*
X169194640Y-89556772D01*
X169016168Y-89377987D01*
X168782863Y-89281111D01*
X168530245Y-89280890D01*
X168296772Y-89377360D01*
X168117987Y-89555832D01*
X168066863Y-89678953D01*
X167779016Y-89966800D01*
X153791937Y-89966800D01*
X153669863Y-89916111D01*
X153417245Y-89915890D01*
X153294035Y-89966800D01*
X152260984Y-89966800D01*
X151035092Y-88740908D01*
X150935739Y-88674523D01*
X150845564Y-88614270D01*
X150622000Y-88569800D01*
X148838937Y-88569800D01*
X148716863Y-88519111D01*
X148464245Y-88518890D01*
X148230772Y-88615360D01*
X148051987Y-88793832D01*
X147955111Y-89027137D01*
X147954890Y-89279755D01*
X145861491Y-89279755D01*
X144559368Y-87977632D01*
X144503620Y-87940382D01*
X144427523Y-87889535D01*
X144272000Y-87858600D01*
X134355100Y-87858600D01*
X134269640Y-87651772D01*
X134091168Y-87472987D01*
X133857863Y-87376111D01*
X133605245Y-87375890D01*
X133371772Y-87472360D01*
X133192987Y-87650832D01*
X133096111Y-87884137D01*
X133095890Y-88136755D01*
X133138385Y-88239600D01*
X132190551Y-88239600D01*
X132059168Y-88107987D01*
X131825863Y-88011111D01*
X131573245Y-88010890D01*
X131339772Y-88107360D01*
X131160987Y-88285832D01*
X131064111Y-88519137D01*
X131064000Y-88646000D01*
X130938245Y-88645890D01*
X130704772Y-88742360D01*
X130525987Y-88920832D01*
X130429111Y-89154137D01*
X130428890Y-89406755D01*
X120329294Y-89406755D01*
X120329389Y-89298701D01*
X120163462Y-88897127D01*
X119856489Y-88589618D01*
X119455205Y-88422990D01*
X119020701Y-88422611D01*
X118619127Y-88588538D01*
X118311618Y-88895511D01*
X118246897Y-89051376D01*
X118230870Y-89012684D01*
X118080862Y-88922585D01*
X117488447Y-89515000D01*
X116985553Y-89515000D01*
X116985553Y-89515000D01*
X116393138Y-88922585D01*
X116243130Y-89012684D01*
X116126556Y-89431258D01*
X114249200Y-89431258D01*
X114249200Y-88671138D01*
X116644585Y-88671138D01*
X117237000Y-89263553D01*
X117829415Y-88671138D01*
X117739316Y-88521130D01*
X117320742Y-88404556D01*
X116889419Y-88457037D01*
X116734684Y-88521130D01*
X116644585Y-88671138D01*
X114249200Y-88671138D01*
X114249200Y-87231299D01*
X116144611Y-87231299D01*
X116310538Y-87632873D01*
X116617511Y-87940382D01*
X117018795Y-88107010D01*
X117453299Y-88107389D01*
X117854873Y-87941462D01*
X118162382Y-87634489D01*
X118236978Y-87454843D01*
X118310538Y-87632873D01*
X118617511Y-87940382D01*
X119018795Y-88107010D01*
X119453299Y-88107389D01*
X119854873Y-87941462D01*
X120162382Y-87634489D01*
X120329010Y-87233205D01*
X120329389Y-86798701D01*
X120163462Y-86397127D01*
X119856489Y-86089618D01*
X119455205Y-85922990D01*
X119020701Y-85922611D01*
X118619127Y-86088538D01*
X118311618Y-86395511D01*
X118237022Y-86575157D01*
X118163462Y-86397127D01*
X117856489Y-86089618D01*
X117455205Y-85922990D01*
X117020701Y-85922611D01*
X116619127Y-86088538D01*
X116311618Y-86395511D01*
X116144990Y-86796795D01*
X116144611Y-87231299D01*
X114249200Y-87231299D01*
X114249200Y-86563200D01*
X114610776Y-86563200D01*
X114643835Y-86596317D01*
X114939673Y-86719160D01*
X115260002Y-86719440D01*
X115556053Y-86597114D01*
X115782757Y-86370805D01*
X115905600Y-86074967D01*
X115905880Y-85754638D01*
X115905749Y-85754321D01*
X115905880Y-85604638D01*
X115905749Y-85604321D01*
X115905880Y-85454638D01*
X115783554Y-85158587D01*
X115773200Y-85148215D01*
X115773200Y-84834755D01*
X130428890Y-84834755D01*
X130525360Y-85068228D01*
X130703832Y-85247013D01*
X130937137Y-85343889D01*
X131189755Y-85344110D01*
X131423228Y-85247640D01*
X131602013Y-85069168D01*
X131698889Y-84835863D01*
X131698978Y-84734400D01*
X136694356Y-84734400D01*
X136652111Y-84836137D01*
X136651890Y-85088755D01*
X136748360Y-85322228D01*
X136926832Y-85501013D01*
X137007389Y-85534463D01*
X136927772Y-85567360D01*
X136748987Y-85745832D01*
X136652111Y-85979137D01*
X136651890Y-86231755D01*
X136748360Y-86465228D01*
X136926832Y-86644013D01*
X137160137Y-86740889D01*
X137287000Y-86741000D01*
X137286890Y-86866755D01*
X137383360Y-87100228D01*
X137561832Y-87279013D01*
X137795137Y-87375889D01*
X138047755Y-87376110D01*
X138281228Y-87279640D01*
X138413700Y-87147400D01*
X138430000Y-87147400D01*
X138585523Y-87116465D01*
X138717368Y-87028368D01*
X139487336Y-86258400D01*
X150199664Y-86258400D01*
X152747632Y-88806368D01*
X152879478Y-88894466D01*
X153035000Y-88925400D01*
X169122664Y-88925400D01*
X169900600Y-89703336D01*
X169900600Y-92922664D01*
X169765632Y-93057632D01*
X169677535Y-93189477D01*
X169646600Y-93345000D01*
X169646600Y-93853000D01*
X169677535Y-94008523D01*
X169760307Y-94132399D01*
X169765632Y-94140368D01*
X170027600Y-94402336D01*
X170027600Y-97536000D01*
X170058535Y-97691523D01*
X170138256Y-97810832D01*
X170146632Y-97823368D01*
X170281600Y-97958336D01*
X170281600Y-98393090D01*
X170052863Y-98298111D01*
X169800245Y-98297890D01*
X169566772Y-98394360D01*
X169387987Y-98572832D01*
X169291111Y-98806137D01*
X169290890Y-99058755D01*
X169387360Y-99292228D01*
X169565832Y-99471013D01*
X169799137Y-99567889D01*
X170051755Y-99568110D01*
X170156388Y-99524876D01*
X169986211Y-99695053D01*
X169800245Y-99694890D01*
X169566772Y-99791360D01*
X169387987Y-99969832D01*
X169291111Y-100203137D01*
X169290890Y-100455755D01*
X169387360Y-100689228D01*
X169565832Y-100868013D01*
X169799137Y-100964889D01*
X170051755Y-100965110D01*
X170285228Y-100868640D01*
X170464013Y-100690168D01*
X170560889Y-100456863D01*
X170561053Y-100269683D01*
X170662600Y-100168136D01*
X170662600Y-101981000D01*
X170688110Y-102109249D01*
X170687890Y-102360755D01*
X170784360Y-102594228D01*
X170962832Y-102773013D01*
X171196137Y-102869889D01*
X171448755Y-102870110D01*
X171682228Y-102773640D01*
X171861013Y-102595168D01*
X171957889Y-102361863D01*
X171958110Y-102109245D01*
X171861640Y-101875772D01*
X171683168Y-101696987D01*
X171475400Y-101610715D01*
X171475400Y-97874644D01*
X171577137Y-97916889D01*
X171829755Y-97917110D01*
X172063228Y-97820640D01*
X172242013Y-97642168D01*
X172338889Y-97408863D01*
X172339110Y-97156245D01*
X172242640Y-96922772D01*
X172064168Y-96743987D01*
X171830863Y-96647111D01*
X171643684Y-96646947D01*
X171602400Y-96605664D01*
X171602400Y-94656336D01*
X171991368Y-94267369D01*
X172079465Y-94135523D01*
X172080086Y-94132399D01*
X172110400Y-93980000D01*
X172110400Y-93091000D01*
X172079465Y-92935477D01*
X171991368Y-92803632D01*
X171856400Y-92668664D01*
X171856400Y-88773000D01*
X171825465Y-88617477D01*
X171737368Y-88485632D01*
X170340368Y-87088632D01*
X170208523Y-87000535D01*
X170053000Y-86969600D01*
X153965336Y-86969600D01*
X153933805Y-86938069D01*
X154029228Y-86898640D01*
X154208013Y-86720168D01*
X154304889Y-86486863D01*
X154305110Y-86234245D01*
X154208640Y-86000772D01*
X154030168Y-85821987D01*
X153796863Y-85725111D01*
X153544245Y-85724890D01*
X153410775Y-85780039D01*
X151671368Y-84040632D01*
X151539523Y-83952535D01*
X151384000Y-83921600D01*
X131445000Y-83921600D01*
X131289477Y-83952535D01*
X131157632Y-84040632D01*
X131124211Y-84074053D01*
X130938245Y-84073890D01*
X130704772Y-84170360D01*
X130525987Y-84348832D01*
X130429111Y-84582137D01*
X130428890Y-84834755D01*
X115773200Y-84834755D01*
X115773200Y-83446197D01*
X115949513Y-83373346D01*
X116324031Y-82999481D01*
X116526968Y-82510754D01*
X116527430Y-81981568D01*
X116325346Y-81492487D01*
X115951481Y-81117969D01*
X115462754Y-80915032D01*
X114933568Y-80914570D01*
X114933104Y-80914762D01*
X114713568Y-80914570D01*
X114713104Y-80914762D01*
X114493568Y-80914570D01*
X114493104Y-80914762D01*
X114273568Y-80914570D01*
X114273104Y-80914762D01*
X114053568Y-80914570D01*
X114053104Y-80914762D01*
X113833568Y-80914570D01*
X113833104Y-80914762D01*
X113613568Y-80914570D01*
X113528305Y-80949800D01*
X111403200Y-80949800D01*
X111403200Y-79023122D01*
X129127325Y-79023122D01*
X129230072Y-79183672D01*
X129685789Y-79317369D01*
X130157979Y-79266494D01*
X130357928Y-79183672D01*
X130460675Y-79023122D01*
X129794000Y-78356447D01*
X129127325Y-79023122D01*
X111403200Y-79023122D01*
X111403200Y-77996789D01*
X128581631Y-77996789D01*
X128632506Y-78468979D01*
X128715328Y-78668928D01*
X128875878Y-78771675D01*
X129542553Y-78105000D01*
X130045447Y-78105000D01*
X130712122Y-78771675D01*
X130872672Y-78668928D01*
X130968755Y-78341420D01*
X131139993Y-78341420D01*
X131321355Y-78780350D01*
X131656884Y-79116464D01*
X132095497Y-79298592D01*
X132570420Y-79299007D01*
X133009350Y-79117645D01*
X133345464Y-78782116D01*
X133527592Y-78343503D01*
X133527593Y-78341420D01*
X133679993Y-78341420D01*
X133861355Y-78780350D01*
X134196884Y-79116464D01*
X134635497Y-79298592D01*
X135110420Y-79299007D01*
X135549350Y-79117645D01*
X135885464Y-78782116D01*
X136067592Y-78343503D01*
X136067593Y-78341420D01*
X136219993Y-78341420D01*
X136401355Y-78780350D01*
X136736884Y-79116464D01*
X137175497Y-79298592D01*
X137650420Y-79299007D01*
X138089350Y-79117645D01*
X138425464Y-78782116D01*
X138607592Y-78343503D01*
X138607593Y-78341420D01*
X138759993Y-78341420D01*
X138941355Y-78780350D01*
X139276884Y-79116464D01*
X139715497Y-79298592D01*
X140190420Y-79299007D01*
X140629350Y-79117645D01*
X140965464Y-78782116D01*
X141147592Y-78343503D01*
X141147593Y-78341420D01*
X141299993Y-78341420D01*
X141481355Y-78780350D01*
X141816884Y-79116464D01*
X142255497Y-79298592D01*
X142730420Y-79299007D01*
X143169350Y-79117645D01*
X143505464Y-78782116D01*
X143687592Y-78343503D01*
X143687593Y-78341420D01*
X143839993Y-78341420D01*
X144021355Y-78780350D01*
X144356884Y-79116464D01*
X144795497Y-79298592D01*
X145270420Y-79299007D01*
X145709350Y-79117645D01*
X146045464Y-78782116D01*
X146227592Y-78343503D01*
X146227593Y-78341420D01*
X146379993Y-78341420D01*
X146561355Y-78780350D01*
X146896884Y-79116464D01*
X147335497Y-79298592D01*
X147810420Y-79299007D01*
X148249350Y-79117645D01*
X148585464Y-78782116D01*
X148767592Y-78343503D01*
X148767593Y-78341420D01*
X148919993Y-78341420D01*
X149101355Y-78780350D01*
X149436884Y-79116464D01*
X149875497Y-79298592D01*
X150350420Y-79299007D01*
X150789350Y-79117645D01*
X151125464Y-78782116D01*
X151307592Y-78343503D01*
X151307593Y-78341420D01*
X151459993Y-78341420D01*
X151641355Y-78780350D01*
X151976884Y-79116464D01*
X152415497Y-79298592D01*
X152890420Y-79299007D01*
X153329350Y-79117645D01*
X153665464Y-78782116D01*
X153847592Y-78343503D01*
X153847593Y-78341420D01*
X155523993Y-78341420D01*
X155705355Y-78780350D01*
X156040884Y-79116464D01*
X156479497Y-79298592D01*
X156954420Y-79299007D01*
X157393350Y-79117645D01*
X157729464Y-78782116D01*
X157911592Y-78343503D01*
X157911593Y-78341420D01*
X158063993Y-78341420D01*
X158245355Y-78780350D01*
X158580884Y-79116464D01*
X159019497Y-79298592D01*
X159494420Y-79299007D01*
X159933350Y-79117645D01*
X160269464Y-78782116D01*
X160451592Y-78343503D01*
X160451593Y-78341420D01*
X160603993Y-78341420D01*
X160785355Y-78780350D01*
X161120884Y-79116464D01*
X161559497Y-79298592D01*
X162034420Y-79299007D01*
X162473350Y-79117645D01*
X162809464Y-78782116D01*
X162991592Y-78343503D01*
X162991593Y-78341420D01*
X163143993Y-78341420D01*
X163325355Y-78780350D01*
X163660884Y-79116464D01*
X164099497Y-79298592D01*
X164574420Y-79299007D01*
X165013350Y-79117645D01*
X165349464Y-78782116D01*
X165531592Y-78343503D01*
X165531593Y-78341420D01*
X165683993Y-78341420D01*
X165865355Y-78780350D01*
X166200884Y-79116464D01*
X166639497Y-79298592D01*
X167114420Y-79299007D01*
X167553350Y-79117645D01*
X167889464Y-78782116D01*
X168071592Y-78343503D01*
X168071593Y-78341420D01*
X168223993Y-78341420D01*
X168405355Y-78780350D01*
X168740884Y-79116464D01*
X169179497Y-79298592D01*
X169654420Y-79299007D01*
X170093350Y-79117645D01*
X170429464Y-78782116D01*
X170611592Y-78343503D01*
X170611593Y-78341420D01*
X170763993Y-78341420D01*
X170945355Y-78780350D01*
X171280884Y-79116464D01*
X171719497Y-79298592D01*
X172194420Y-79299007D01*
X172633350Y-79117645D01*
X172969464Y-78782116D01*
X173151592Y-78343503D01*
X173151593Y-78341420D01*
X173303993Y-78341420D01*
X173485355Y-78780350D01*
X173820884Y-79116464D01*
X174259497Y-79298592D01*
X174734420Y-79299007D01*
X175173350Y-79117645D01*
X175509464Y-78782116D01*
X175691592Y-78343503D01*
X175692007Y-77868580D01*
X175510645Y-77429650D01*
X175175116Y-77093536D01*
X174736503Y-76911408D01*
X174261580Y-76910993D01*
X173822650Y-77092355D01*
X173486536Y-77427884D01*
X173304408Y-77866497D01*
X173303993Y-78341420D01*
X173151593Y-78341420D01*
X173152007Y-77868580D01*
X172970645Y-77429650D01*
X172635116Y-77093536D01*
X172196503Y-76911408D01*
X171721580Y-76910993D01*
X171282650Y-77092355D01*
X170946536Y-77427884D01*
X170764408Y-77866497D01*
X170763993Y-78341420D01*
X170611593Y-78341420D01*
X170612007Y-77868580D01*
X170430645Y-77429650D01*
X170095116Y-77093536D01*
X169656503Y-76911408D01*
X169181580Y-76910993D01*
X168742650Y-77092355D01*
X168406536Y-77427884D01*
X168224408Y-77866497D01*
X168223993Y-78341420D01*
X168071593Y-78341420D01*
X168072007Y-77868580D01*
X167890645Y-77429650D01*
X167555116Y-77093536D01*
X167116503Y-76911408D01*
X166641580Y-76910993D01*
X166202650Y-77092355D01*
X165866536Y-77427884D01*
X165684408Y-77866497D01*
X165683993Y-78341420D01*
X165531593Y-78341420D01*
X165532007Y-77868580D01*
X165350645Y-77429650D01*
X165015116Y-77093536D01*
X164576503Y-76911408D01*
X164101580Y-76910993D01*
X163662650Y-77092355D01*
X163326536Y-77427884D01*
X163144408Y-77866497D01*
X163143993Y-78341420D01*
X162991593Y-78341420D01*
X162992007Y-77868580D01*
X162810645Y-77429650D01*
X162475116Y-77093536D01*
X162036503Y-76911408D01*
X161561580Y-76910993D01*
X161122650Y-77092355D01*
X160786536Y-77427884D01*
X160604408Y-77866497D01*
X160603993Y-78341420D01*
X160451593Y-78341420D01*
X160452007Y-77868580D01*
X160270645Y-77429650D01*
X159935116Y-77093536D01*
X159496503Y-76911408D01*
X159021580Y-76910993D01*
X158582650Y-77092355D01*
X158246536Y-77427884D01*
X158064408Y-77866497D01*
X158063993Y-78341420D01*
X157911593Y-78341420D01*
X157912007Y-77868580D01*
X157730645Y-77429650D01*
X157395116Y-77093536D01*
X156956503Y-76911408D01*
X156481580Y-76910993D01*
X156042650Y-77092355D01*
X155706536Y-77427884D01*
X155524408Y-77866497D01*
X155523993Y-78341420D01*
X153847593Y-78341420D01*
X153848007Y-77868580D01*
X153666645Y-77429650D01*
X153331116Y-77093536D01*
X152892503Y-76911408D01*
X152417580Y-76910993D01*
X151978650Y-77092355D01*
X151642536Y-77427884D01*
X151460408Y-77866497D01*
X151459993Y-78341420D01*
X151307593Y-78341420D01*
X151308007Y-77868580D01*
X151126645Y-77429650D01*
X150791116Y-77093536D01*
X150352503Y-76911408D01*
X149877580Y-76910993D01*
X149438650Y-77092355D01*
X149102536Y-77427884D01*
X148920408Y-77866497D01*
X148919993Y-78341420D01*
X148767593Y-78341420D01*
X148768007Y-77868580D01*
X148586645Y-77429650D01*
X148251116Y-77093536D01*
X147812503Y-76911408D01*
X147337580Y-76910993D01*
X146898650Y-77092355D01*
X146562536Y-77427884D01*
X146380408Y-77866497D01*
X146379993Y-78341420D01*
X146227593Y-78341420D01*
X146228007Y-77868580D01*
X146046645Y-77429650D01*
X145711116Y-77093536D01*
X145272503Y-76911408D01*
X144797580Y-76910993D01*
X144358650Y-77092355D01*
X144022536Y-77427884D01*
X143840408Y-77866497D01*
X143839993Y-78341420D01*
X143687593Y-78341420D01*
X143688007Y-77868580D01*
X143506645Y-77429650D01*
X143171116Y-77093536D01*
X142732503Y-76911408D01*
X142257580Y-76910993D01*
X141818650Y-77092355D01*
X141482536Y-77427884D01*
X141300408Y-77866497D01*
X141299993Y-78341420D01*
X141147593Y-78341420D01*
X141148007Y-77868580D01*
X140966645Y-77429650D01*
X140631116Y-77093536D01*
X140192503Y-76911408D01*
X139717580Y-76910993D01*
X139278650Y-77092355D01*
X138942536Y-77427884D01*
X138760408Y-77866497D01*
X138759993Y-78341420D01*
X138607593Y-78341420D01*
X138608007Y-77868580D01*
X138426645Y-77429650D01*
X138091116Y-77093536D01*
X137652503Y-76911408D01*
X137177580Y-76910993D01*
X136738650Y-77092355D01*
X136402536Y-77427884D01*
X136220408Y-77866497D01*
X136219993Y-78341420D01*
X136067593Y-78341420D01*
X136068007Y-77868580D01*
X135886645Y-77429650D01*
X135551116Y-77093536D01*
X135112503Y-76911408D01*
X134637580Y-76910993D01*
X134198650Y-77092355D01*
X133862536Y-77427884D01*
X133680408Y-77866497D01*
X133679993Y-78341420D01*
X133527593Y-78341420D01*
X133528007Y-77868580D01*
X133346645Y-77429650D01*
X133011116Y-77093536D01*
X132572503Y-76911408D01*
X132097580Y-76910993D01*
X131658650Y-77092355D01*
X131322536Y-77427884D01*
X131140408Y-77866497D01*
X131139993Y-78341420D01*
X130968755Y-78341420D01*
X131006369Y-78213211D01*
X130955494Y-77741021D01*
X130872672Y-77541072D01*
X130712122Y-77438325D01*
X130045447Y-78105000D01*
X129542553Y-78105000D01*
X129542553Y-78105000D01*
X128875878Y-77438325D01*
X128715328Y-77541072D01*
X128581631Y-77996789D01*
X111403200Y-77996789D01*
X111403200Y-73430200D01*
X125218851Y-73430200D01*
X124901669Y-73561257D01*
X124901669Y-73561257D01*
G37*
X124901669Y-73561257D02*
X124236592Y-74225174D01*
X123876211Y-75093068D01*
X123875391Y-76032809D01*
X124234257Y-76901331D01*
X124898174Y-77566408D01*
X125766068Y-77926789D01*
X126705809Y-77927609D01*
X127574331Y-77568743D01*
X127956863Y-77186878D01*
X129127325Y-77186878D01*
X129794000Y-77853553D01*
X130460675Y-77186878D01*
X130357928Y-77026328D01*
X129902211Y-76892631D01*
X129430021Y-76943506D01*
X129230072Y-77026328D01*
X129127325Y-77186878D01*
X127956863Y-77186878D01*
X128239408Y-76904826D01*
X128599789Y-76036932D01*
X128599995Y-75801424D01*
X128781355Y-76240350D01*
X129116884Y-76576464D01*
X129555497Y-76758592D01*
X130030420Y-76759007D01*
X130469350Y-76577645D01*
X130805464Y-76242116D01*
X130987592Y-75803503D01*
X130987593Y-75801420D01*
X131139993Y-75801420D01*
X131321355Y-76240350D01*
X131656884Y-76576464D01*
X132095497Y-76758592D01*
X132570420Y-76759007D01*
X133009350Y-76577645D01*
X133345464Y-76242116D01*
X133527592Y-75803503D01*
X133527593Y-75801420D01*
X133679993Y-75801420D01*
X133861355Y-76240350D01*
X134196884Y-76576464D01*
X134635497Y-76758592D01*
X135110420Y-76759007D01*
X135549350Y-76577645D01*
X135644037Y-76483122D01*
X136747325Y-76483122D01*
X136850072Y-76643672D01*
X137305789Y-76777369D01*
X137777979Y-76726494D01*
X137977928Y-76643672D01*
X138080675Y-76483122D01*
X137414000Y-75816447D01*
X136747325Y-76483122D01*
X135644037Y-76483122D01*
X135885464Y-76242116D01*
X136067592Y-75803503D01*
X136067894Y-75456789D01*
X136201631Y-75456789D01*
X136252506Y-75928979D01*
X136335328Y-76128928D01*
X136495878Y-76231675D01*
X137162553Y-75565000D01*
X137665447Y-75565000D01*
X138332122Y-76231675D01*
X138492672Y-76128928D01*
X138588755Y-75801420D01*
X138759993Y-75801420D01*
X138941355Y-76240350D01*
X139276884Y-76576464D01*
X139715497Y-76758592D01*
X140190420Y-76759007D01*
X140629350Y-76577645D01*
X140965464Y-76242116D01*
X141147592Y-75803503D01*
X141147593Y-75801420D01*
X141299993Y-75801420D01*
X141481355Y-76240350D01*
X141816884Y-76576464D01*
X142255497Y-76758592D01*
X142730420Y-76759007D01*
X143169350Y-76577645D01*
X143505464Y-76242116D01*
X143687592Y-75803503D01*
X143687593Y-75801420D01*
X143839993Y-75801420D01*
X144021355Y-76240350D01*
X144356884Y-76576464D01*
X144795497Y-76758592D01*
X145270420Y-76759007D01*
X145709350Y-76577645D01*
X146045464Y-76242116D01*
X146227592Y-75803503D01*
X146227593Y-75801420D01*
X146379993Y-75801420D01*
X146561355Y-76240350D01*
X146896884Y-76576464D01*
X147335497Y-76758592D01*
X147810420Y-76759007D01*
X148249350Y-76577645D01*
X148585464Y-76242116D01*
X148767592Y-75803503D01*
X148767593Y-75801420D01*
X148919993Y-75801420D01*
X149101355Y-76240350D01*
X149436884Y-76576464D01*
X149875497Y-76758592D01*
X150350420Y-76759007D01*
X150789350Y-76577645D01*
X151125464Y-76242116D01*
X151307592Y-75803503D01*
X151307593Y-75801420D01*
X151459993Y-75801420D01*
X151641355Y-76240350D01*
X151976884Y-76576464D01*
X152415497Y-76758592D01*
X152890420Y-76759007D01*
X153329350Y-76577645D01*
X153665464Y-76242116D01*
X153847592Y-75803503D01*
X153847593Y-75801420D01*
X155523993Y-75801420D01*
X155705355Y-76240350D01*
X156040884Y-76576464D01*
X156479497Y-76758592D01*
X156954420Y-76759007D01*
X157393350Y-76577645D01*
X157729464Y-76242116D01*
X157911592Y-75803503D01*
X157911593Y-75801420D01*
X158063993Y-75801420D01*
X158245355Y-76240350D01*
X158580884Y-76576464D01*
X159019497Y-76758592D01*
X159494420Y-76759007D01*
X159933350Y-76577645D01*
X160269464Y-76242116D01*
X160451592Y-75803503D01*
X160451593Y-75801420D01*
X160603993Y-75801420D01*
X160785355Y-76240350D01*
X161120884Y-76576464D01*
X161559497Y-76758592D01*
X162034420Y-76759007D01*
X162473350Y-76577645D01*
X162809464Y-76242116D01*
X162991592Y-75803503D01*
X162991593Y-75801420D01*
X163143993Y-75801420D01*
X163325355Y-76240350D01*
X163660884Y-76576464D01*
X164099497Y-76758592D01*
X164574420Y-76759007D01*
X165013350Y-76577645D01*
X165349464Y-76242116D01*
X165531592Y-75803503D01*
X165531593Y-75801420D01*
X165683993Y-75801420D01*
X165865355Y-76240350D01*
X166200884Y-76576464D01*
X166639497Y-76758592D01*
X167114420Y-76759007D01*
X167553350Y-76577645D01*
X167889464Y-76242116D01*
X168071592Y-75803503D01*
X168071593Y-75801420D01*
X168223993Y-75801420D01*
X168405355Y-76240350D01*
X168740884Y-76576464D01*
X169179497Y-76758592D01*
X169654420Y-76759007D01*
X170093350Y-76577645D01*
X170429464Y-76242116D01*
X170611592Y-75803503D01*
X170611593Y-75801420D01*
X170763993Y-75801420D01*
X170945355Y-76240350D01*
X171280884Y-76576464D01*
X171719497Y-76758592D01*
X172194420Y-76759007D01*
X172633350Y-76577645D01*
X172969464Y-76242116D01*
X173151592Y-75803503D01*
X173151593Y-75801420D01*
X173303993Y-75801420D01*
X173485355Y-76240350D01*
X173820884Y-76576464D01*
X174259497Y-76758592D01*
X174734420Y-76759007D01*
X175173350Y-76577645D01*
X175509464Y-76242116D01*
X175691592Y-75803503D01*
X175692007Y-75328580D01*
X175510645Y-74889650D01*
X175175116Y-74553536D01*
X174736503Y-74371408D01*
X174261580Y-74370993D01*
X173822650Y-74552355D01*
X173486536Y-74887884D01*
X173304408Y-75326497D01*
X173303993Y-75801420D01*
X173151593Y-75801420D01*
X173152007Y-75328580D01*
X172970645Y-74889650D01*
X172635116Y-74553536D01*
X172196503Y-74371408D01*
X171721580Y-74370993D01*
X171282650Y-74552355D01*
X170946536Y-74887884D01*
X170764408Y-75326497D01*
X170763993Y-75801420D01*
X170611593Y-75801420D01*
X170612007Y-75328580D01*
X170430645Y-74889650D01*
X170095116Y-74553536D01*
X169656503Y-74371408D01*
X169181580Y-74370993D01*
X168742650Y-74552355D01*
X168406536Y-74887884D01*
X168224408Y-75326497D01*
X168223993Y-75801420D01*
X168071593Y-75801420D01*
X168072007Y-75328580D01*
X167890645Y-74889650D01*
X167555116Y-74553536D01*
X167116503Y-74371408D01*
X166641580Y-74370993D01*
X166202650Y-74552355D01*
X165866536Y-74887884D01*
X165684408Y-75326497D01*
X165683993Y-75801420D01*
X165531593Y-75801420D01*
X165532007Y-75328580D01*
X165350645Y-74889650D01*
X165015116Y-74553536D01*
X164576503Y-74371408D01*
X164101580Y-74370993D01*
X163662650Y-74552355D01*
X163326536Y-74887884D01*
X163144408Y-75326497D01*
X163143993Y-75801420D01*
X162991593Y-75801420D01*
X162992007Y-75328580D01*
X162810645Y-74889650D01*
X162475116Y-74553536D01*
X162036503Y-74371408D01*
X161561580Y-74370993D01*
X161122650Y-74552355D01*
X160786536Y-74887884D01*
X160604408Y-75326497D01*
X160603993Y-75801420D01*
X160451593Y-75801420D01*
X160452007Y-75328580D01*
X160270645Y-74889650D01*
X159935116Y-74553536D01*
X159496503Y-74371408D01*
X159021580Y-74370993D01*
X158582650Y-74552355D01*
X158246536Y-74887884D01*
X158064408Y-75326497D01*
X158063993Y-75801420D01*
X157911593Y-75801420D01*
X157912007Y-75328580D01*
X157730645Y-74889650D01*
X157395116Y-74553536D01*
X156956503Y-74371408D01*
X156481580Y-74370993D01*
X156042650Y-74552355D01*
X155706536Y-74887884D01*
X155524408Y-75326497D01*
X155523993Y-75801420D01*
X153847593Y-75801420D01*
X153848007Y-75328580D01*
X153666645Y-74889650D01*
X153331116Y-74553536D01*
X152892503Y-74371408D01*
X152417580Y-74370993D01*
X151978650Y-74552355D01*
X151642536Y-74887884D01*
X151460408Y-75326497D01*
X151459993Y-75801420D01*
X151307593Y-75801420D01*
X151308007Y-75328580D01*
X151126645Y-74889650D01*
X150791116Y-74553536D01*
X150352503Y-74371408D01*
X149877580Y-74370993D01*
X149438650Y-74552355D01*
X149102536Y-74887884D01*
X148920408Y-75326497D01*
X148919993Y-75801420D01*
X148767593Y-75801420D01*
X148768007Y-75328580D01*
X148586645Y-74889650D01*
X148251116Y-74553536D01*
X147812503Y-74371408D01*
X147337580Y-74370993D01*
X146898650Y-74552355D01*
X146562536Y-74887884D01*
X146380408Y-75326497D01*
X146379993Y-75801420D01*
X146227593Y-75801420D01*
X146228007Y-75328580D01*
X146046645Y-74889650D01*
X145711116Y-74553536D01*
X145272503Y-74371408D01*
X144797580Y-74370993D01*
X144358650Y-74552355D01*
X144022536Y-74887884D01*
X143840408Y-75326497D01*
X143839993Y-75801420D01*
X143687593Y-75801420D01*
X143688007Y-75328580D01*
X143506645Y-74889650D01*
X143171116Y-74553536D01*
X142732503Y-74371408D01*
X142257580Y-74370993D01*
X141818650Y-74552355D01*
X141482536Y-74887884D01*
X141300408Y-75326497D01*
X141299993Y-75801420D01*
X141147593Y-75801420D01*
X141148007Y-75328580D01*
X140966645Y-74889650D01*
X140631116Y-74553536D01*
X140192503Y-74371408D01*
X139717580Y-74370993D01*
X139278650Y-74552355D01*
X138942536Y-74887884D01*
X138760408Y-75326497D01*
X138759993Y-75801420D01*
X138588755Y-75801420D01*
X138626369Y-75673211D01*
X138575494Y-75201021D01*
X138492672Y-75001072D01*
X138332122Y-74898325D01*
X137665447Y-75565000D01*
X137162553Y-75565000D01*
X137162553Y-75565000D01*
X136495878Y-74898325D01*
X136335328Y-75001072D01*
X136201631Y-75456789D01*
X136067894Y-75456789D01*
X136068007Y-75328580D01*
X135886645Y-74889650D01*
X135644296Y-74646878D01*
X136747325Y-74646878D01*
X137414000Y-75313553D01*
X138080675Y-74646878D01*
X137977928Y-74486328D01*
X137522211Y-74352631D01*
X137050021Y-74403506D01*
X136850072Y-74486328D01*
X136747325Y-74646878D01*
X135644296Y-74646878D01*
X135551116Y-74553536D01*
X135112503Y-74371408D01*
X134637580Y-74370993D01*
X134198650Y-74552355D01*
X133862536Y-74887884D01*
X133680408Y-75326497D01*
X133679993Y-75801420D01*
X133527593Y-75801420D01*
X133528007Y-75328580D01*
X133346645Y-74889650D01*
X133011116Y-74553536D01*
X132572503Y-74371408D01*
X132097580Y-74370993D01*
X131658650Y-74552355D01*
X131322536Y-74887884D01*
X131140408Y-75326497D01*
X131139993Y-75801420D01*
X130987593Y-75801420D01*
X130988007Y-75328580D01*
X130806645Y-74889650D01*
X130471116Y-74553536D01*
X130032503Y-74371408D01*
X129557580Y-74370993D01*
X129118650Y-74552355D01*
X128782536Y-74887884D01*
X128600409Y-75326495D01*
X128600609Y-75097191D01*
X128241743Y-74228669D01*
X127577826Y-73563592D01*
X127256582Y-73430200D01*
X175303436Y-73430200D01*
X176632800Y-74759563D01*
X176632800Y-85979000D01*
X176663644Y-86134064D01*
X176707800Y-86200148D01*
X176707800Y-86232994D01*
X176707799Y-86233000D01*
X176713600Y-86262161D01*
X176730118Y-86286882D01*
X179172800Y-88729563D01*
X179172800Y-89785851D01*
X179041743Y-89468669D01*
X178377826Y-88803592D01*
X177509932Y-88443211D01*
X176570191Y-88442391D01*
X175701669Y-88801257D01*
X175036592Y-89465174D01*
X174676211Y-90333068D01*
X174675391Y-91272809D01*
X175034257Y-92141331D01*
X175698174Y-92806408D01*
X176566068Y-93166789D01*
X177505809Y-93167609D01*
X178374331Y-92808743D01*
X179039408Y-92144826D01*
X179172800Y-91823582D01*
X179172800Y-117725851D01*
X179041743Y-117408669D01*
X178377826Y-116743592D01*
X177509932Y-116383211D01*
X176570191Y-116382391D01*
X175701669Y-116741257D01*
X175036592Y-117405174D01*
X174676211Y-118273068D01*
X174675391Y-119212809D01*
X175034257Y-120081331D01*
X175698174Y-120746408D01*
X176566068Y-121106789D01*
X177505809Y-121107609D01*
X178374331Y-120748743D01*
X179039408Y-120084826D01*
X179172800Y-119763582D01*
X179172800Y-121074436D01*
X177076061Y-123171175D01*
X177017487Y-123083513D01*
X177017483Y-123083510D01*
X175622901Y-121688928D01*
X175691592Y-121523503D01*
X175692007Y-121048580D01*
X175510645Y-120609650D01*
X175175116Y-120273536D01*
X174736503Y-120091408D01*
X174261580Y-120090993D01*
X174094148Y-120160174D01*
X171429487Y-117495513D01*
X171322362Y-117423935D01*
X171196000Y-117398800D01*
X165236774Y-117398800D01*
X162255200Y-114417226D01*
X162255200Y-111506000D01*
X162230065Y-111379638D01*
X162158487Y-111272513D01*
X162158483Y-111272510D01*
X160761487Y-109875513D01*
X160654362Y-109803935D01*
X160528000Y-109778800D01*
X146050000Y-109778800D01*
X145923638Y-109803935D01*
X145816513Y-109875513D01*
X144546513Y-111145513D01*
X144474935Y-111252638D01*
X144449800Y-111379000D01*
X144449800Y-113792000D01*
X144474935Y-113918362D01*
X144546513Y-114025487D01*
X148864513Y-118343487D01*
X148971638Y-118415065D01*
X149098000Y-118440200D01*
X153279226Y-118440200D01*
X154198513Y-119359487D01*
X154305638Y-119431065D01*
X154432000Y-119456200D01*
X156962226Y-119456200D01*
X158546800Y-121040773D01*
X158546800Y-125959800D01*
X149633563Y-125959800D01*
X149637730Y-125953564D01*
X149682200Y-125730000D01*
X149682200Y-124875307D01*
X149773350Y-124837645D01*
X149868037Y-124743122D01*
X150971325Y-124743122D01*
X151074072Y-124903672D01*
X151529789Y-125037369D01*
X152001979Y-124986494D01*
X152201928Y-124903672D01*
X152304675Y-124743122D01*
X153511325Y-124743122D01*
X153614072Y-124903672D01*
X154069789Y-125037369D01*
X154541979Y-124986494D01*
X154741928Y-124903672D01*
X154844675Y-124743122D01*
X154178000Y-124076447D01*
X153511325Y-124743122D01*
X152304675Y-124743122D01*
X152304675Y-124743122D01*
X151638000Y-124076447D01*
X150971325Y-124743122D01*
X149868037Y-124743122D01*
X150109464Y-124502116D01*
X150291592Y-124063503D01*
X150291894Y-123716789D01*
X150425631Y-123716789D01*
X150476506Y-124188979D01*
X150559328Y-124388928D01*
X150719878Y-124491675D01*
X151386553Y-123825000D01*
X151889447Y-123825000D01*
X152556122Y-124491675D01*
X152716672Y-124388928D01*
X152850369Y-123933211D01*
X152827052Y-123716789D01*
X152965631Y-123716789D01*
X153016506Y-124188979D01*
X153099328Y-124388928D01*
X153259878Y-124491675D01*
X153926553Y-123825000D01*
X154429447Y-123825000D01*
X155096122Y-124491675D01*
X155256672Y-124388928D01*
X155352755Y-124061420D01*
X155523993Y-124061420D01*
X155705355Y-124500350D01*
X156040884Y-124836464D01*
X156479497Y-125018592D01*
X156954420Y-125019007D01*
X157393350Y-124837645D01*
X157729464Y-124502116D01*
X157911592Y-124063503D01*
X157912007Y-123588580D01*
X157730645Y-123149650D01*
X157395116Y-122813536D01*
X156956503Y-122631408D01*
X156481580Y-122630993D01*
X156042650Y-122812355D01*
X155706536Y-123147884D01*
X155524408Y-123586497D01*
X155523993Y-124061420D01*
X155352755Y-124061420D01*
X155390369Y-123933211D01*
X155339494Y-123461021D01*
X155256672Y-123261072D01*
X155096122Y-123158325D01*
X154429447Y-123825000D01*
X153926553Y-123825000D01*
X153926553Y-123825000D01*
X153259878Y-123158325D01*
X153099328Y-123261072D01*
X152965631Y-123716789D01*
X152827052Y-123716789D01*
X152799494Y-123461021D01*
X152716672Y-123261072D01*
X152556122Y-123158325D01*
X151889447Y-123825000D01*
X151386553Y-123825000D01*
X151386553Y-123825000D01*
X150719878Y-123158325D01*
X150559328Y-123261072D01*
X150425631Y-123716789D01*
X150291894Y-123716789D01*
X150292007Y-123588580D01*
X150110645Y-123149650D01*
X149868296Y-122906878D01*
X150971325Y-122906878D01*
X151638000Y-123573553D01*
X152304675Y-122906878D01*
X153511325Y-122906878D01*
X154178000Y-123573553D01*
X154844675Y-122906878D01*
X154741928Y-122746328D01*
X154286211Y-122612631D01*
X153814021Y-122663506D01*
X153614072Y-122746328D01*
X153511325Y-122906878D01*
X152304675Y-122906878D01*
X152304675Y-122906878D01*
X152201928Y-122746328D01*
X151746211Y-122612631D01*
X151274021Y-122663506D01*
X151074072Y-122746328D01*
X150971325Y-122906878D01*
X149868296Y-122906878D01*
X149775116Y-122813536D01*
X149336503Y-122631408D01*
X148861580Y-122630993D01*
X148422650Y-122812355D01*
X148086536Y-123147884D01*
X147904408Y-123586497D01*
X147903993Y-124061420D01*
X148085355Y-124500350D01*
X148420884Y-124836464D01*
X148513800Y-124875046D01*
X148513800Y-125145800D01*
X129870200Y-125145800D01*
X129870200Y-118364000D01*
X129825730Y-118140436D01*
X129699092Y-117950908D01*
X129509564Y-117824270D01*
X129286000Y-117779800D01*
X127248937Y-117779800D01*
X127126863Y-117729111D01*
X126874245Y-117728890D01*
X126640772Y-117825360D01*
X126461987Y-118003832D01*
X126365111Y-118237137D01*
X126364890Y-118489755D01*
X126461360Y-118723228D01*
X126639832Y-118902013D01*
X126873137Y-118998889D01*
X127125755Y-118999110D01*
X127248965Y-118948200D01*
X128701800Y-118948200D01*
X128701800Y-125730000D01*
X128746270Y-125953564D01*
X128750437Y-125959800D01*
X125987149Y-125959800D01*
X126304331Y-125828743D01*
X126969408Y-125164826D01*
X127329789Y-124296932D01*
X127330609Y-123357191D01*
X126971743Y-122488669D01*
X126307826Y-121823592D01*
X125439932Y-121463211D01*
X124500191Y-121462391D01*
X123631669Y-121821257D01*
X122966592Y-122485174D01*
X122606211Y-123353068D01*
X122605391Y-124292809D01*
X122964257Y-125161331D01*
X123628174Y-125826408D01*
X123949418Y-125959800D01*
X111403200Y-125959800D01*
X111403200Y-123303008D01*
X115659488Y-123303008D01*
X115708213Y-123829946D01*
X115816124Y-124090466D01*
X115990846Y-124210107D01*
X116092456Y-124108497D01*
X116240846Y-124210107D01*
X116342456Y-124108497D01*
X116490844Y-124210106D01*
X116424710Y-124276240D01*
X116426159Y-124277689D01*
X116242293Y-124461554D01*
X116361934Y-124636276D01*
X116867408Y-124792912D01*
X117059953Y-124775108D01*
X117117408Y-124792912D01*
X117309953Y-124775108D01*
X117367408Y-124792912D01*
X117559953Y-124775108D01*
X117617408Y-124792912D01*
X117809953Y-124775108D01*
X117867408Y-124792912D01*
X118059953Y-124775108D01*
X118117408Y-124792912D01*
X118309953Y-124775108D01*
X118367408Y-124792912D01*
X118559953Y-124775108D01*
X118617408Y-124792912D01*
X118809953Y-124775108D01*
X118867408Y-124792912D01*
X119394346Y-124744187D01*
X119654866Y-124636276D01*
X119774507Y-124461554D01*
X119590642Y-124277689D01*
X119592090Y-124276240D01*
X119525956Y-124210106D01*
X119674344Y-124108497D01*
X119775954Y-124210107D01*
X119924344Y-124108497D01*
X120025954Y-124210107D01*
X120200676Y-124090466D01*
X120357312Y-123584992D01*
X120308587Y-123058054D01*
X120200676Y-122797534D01*
X120025954Y-122677893D01*
X119924344Y-122779503D01*
X119775954Y-122677893D01*
X119674344Y-122779503D01*
X119525956Y-122677894D01*
X119592090Y-122611760D01*
X119590642Y-122610312D01*
X119774507Y-122426446D01*
X119654866Y-122251724D01*
X119149392Y-122095088D01*
X118956847Y-122112892D01*
X118899392Y-122095088D01*
X118706847Y-122112892D01*
X118649392Y-122095088D01*
X118456847Y-122112892D01*
X118399392Y-122095088D01*
X118382612Y-122096640D01*
X118460351Y-122018901D01*
X118393124Y-121951674D01*
X118553672Y-121848928D01*
X118687369Y-121393211D01*
X118636494Y-120921021D01*
X118553672Y-120721072D01*
X118393122Y-120618325D01*
X117726447Y-121285000D01*
X117740590Y-121299143D01*
X117489143Y-121550590D01*
X117475000Y-121536447D01*
X116892615Y-122118832D01*
X116622454Y-122143813D01*
X116361934Y-122251724D01*
X116242293Y-122426446D01*
X116426159Y-122610312D01*
X116424710Y-122611760D01*
X116490844Y-122677894D01*
X116342456Y-122779503D01*
X116240846Y-122677893D01*
X116092456Y-122779503D01*
X115990846Y-122677893D01*
X115816124Y-122797534D01*
X115659488Y-123303008D01*
X111403200Y-123303008D01*
X111403200Y-121176789D01*
X116262631Y-121176789D01*
X116313506Y-121648979D01*
X116396328Y-121848928D01*
X116556878Y-121951675D01*
X117223553Y-121285000D01*
X116556878Y-120618325D01*
X116396328Y-120721072D01*
X116262631Y-121176789D01*
X111403200Y-121176789D01*
X111403200Y-117604008D01*
X113659748Y-117604008D01*
X113677552Y-117796553D01*
X113659748Y-117854008D01*
X113677552Y-118046553D01*
X113659748Y-118104008D01*
X113677552Y-118296553D01*
X113659748Y-118354008D01*
X113677552Y-118546553D01*
X113659748Y-118604008D01*
X113677552Y-118796553D01*
X113659748Y-118854008D01*
X113677552Y-119046553D01*
X113659748Y-119104008D01*
X113677552Y-119296553D01*
X113659748Y-119354008D01*
X113677552Y-119546553D01*
X113659748Y-119604008D01*
X113708473Y-120130946D01*
X113816384Y-120391466D01*
X113991106Y-120511107D01*
X114174972Y-120327242D01*
X114176420Y-120328690D01*
X114242554Y-120262556D01*
X114344163Y-120410944D01*
X114242553Y-120512554D01*
X114344163Y-120660944D01*
X114242553Y-120762554D01*
X114362194Y-120937276D01*
X114867668Y-121093912D01*
X115394606Y-121045187D01*
X115655126Y-120937276D01*
X115774767Y-120762554D01*
X115673157Y-120660944D01*
X115774767Y-120512554D01*
X115673157Y-120410944D01*
X115774766Y-120262556D01*
X115840900Y-120328690D01*
X115842349Y-120327242D01*
X116026214Y-120511107D01*
X116200936Y-120391466D01*
X116208555Y-120366878D01*
X116808325Y-120366878D01*
X117475000Y-121033553D01*
X118141675Y-120366878D01*
X118038928Y-120206328D01*
X117583211Y-120072631D01*
X117111021Y-120123506D01*
X116911072Y-120206328D01*
X116808325Y-120366878D01*
X116208555Y-120366878D01*
X116357572Y-119885992D01*
X116339768Y-119693447D01*
X116357572Y-119635992D01*
X116339768Y-119443447D01*
X116357572Y-119385992D01*
X116339768Y-119193447D01*
X116357572Y-119135992D01*
X116339768Y-118943447D01*
X116357572Y-118885992D01*
X116339768Y-118693447D01*
X116357572Y-118635992D01*
X116339768Y-118443447D01*
X116357572Y-118385992D01*
X116339768Y-118193447D01*
X116357572Y-118135992D01*
X116345777Y-118008432D01*
X119677710Y-118008432D01*
X119677928Y-118008959D01*
X119677710Y-118258432D01*
X119677928Y-118258959D01*
X119677710Y-118508432D01*
X119677928Y-118508959D01*
X119677710Y-118758432D01*
X119677928Y-118758959D01*
X119677710Y-119008432D01*
X119677928Y-119008959D01*
X119677710Y-119258432D01*
X119677928Y-119258959D01*
X119677710Y-119508432D01*
X119677928Y-119508959D01*
X119677710Y-119758432D01*
X119677928Y-119758959D01*
X119677710Y-120008432D01*
X119879794Y-120497513D01*
X120253659Y-120872031D01*
X120742386Y-121074968D01*
X121271572Y-121075430D01*
X121760653Y-120873346D01*
X122135171Y-120499481D01*
X122338108Y-120010754D01*
X122338570Y-119481568D01*
X122338352Y-119481041D01*
X122338570Y-119231568D01*
X122338352Y-119231041D01*
X122338570Y-118981568D01*
X122338352Y-118981041D01*
X122338570Y-118731568D01*
X122338352Y-118731041D01*
X122338570Y-118481568D01*
X122338352Y-118481041D01*
X122338570Y-118231568D01*
X122338352Y-118231041D01*
X122338570Y-117981568D01*
X122338352Y-117981041D01*
X122338570Y-117731568D01*
X122338352Y-117731041D01*
X122338570Y-117481568D01*
X122136486Y-116992487D01*
X121762621Y-116617969D01*
X121273894Y-116415032D01*
X120744708Y-116414570D01*
X120255627Y-116616654D01*
X119881109Y-116990519D01*
X119678172Y-117479246D01*
X119677710Y-118008432D01*
X116345777Y-118008432D01*
X116339768Y-117943447D01*
X116357572Y-117885992D01*
X116308847Y-117359054D01*
X116200936Y-117098534D01*
X116026214Y-116978893D01*
X115842349Y-117162759D01*
X115840900Y-117161310D01*
X115774766Y-117227444D01*
X115673157Y-117079056D01*
X115774767Y-116977446D01*
X115673157Y-116829056D01*
X115774767Y-116727446D01*
X115655126Y-116552724D01*
X115295942Y-116441420D01*
X116280993Y-116441420D01*
X116462355Y-116880350D01*
X116797884Y-117216464D01*
X117236497Y-117398592D01*
X117711420Y-117399007D01*
X118150350Y-117217645D01*
X118486464Y-116882116D01*
X118668592Y-116443503D01*
X118669007Y-115968580D01*
X118487645Y-115529650D01*
X118152116Y-115193536D01*
X117713503Y-115011408D01*
X117238580Y-115010993D01*
X116799650Y-115192355D01*
X116463536Y-115527884D01*
X116281408Y-115966497D01*
X116280993Y-116441420D01*
X115295942Y-116441420D01*
X115149652Y-116396088D01*
X114622714Y-116444813D01*
X114362194Y-116552724D01*
X114242553Y-116727446D01*
X114344163Y-116829056D01*
X114242553Y-116977446D01*
X114344163Y-117079056D01*
X114242554Y-117227444D01*
X114176420Y-117161310D01*
X114174972Y-117162759D01*
X113991106Y-116978893D01*
X113816384Y-117098534D01*
X113659748Y-117604008D01*
X111403200Y-117604008D01*
X111403200Y-105789755D01*
X137032890Y-105789755D01*
X137129360Y-106023228D01*
X137307832Y-106202013D01*
X137541137Y-106298889D01*
X137728317Y-106299053D01*
X137896600Y-106467336D01*
X137896600Y-119592664D01*
X137380632Y-120108632D01*
X137292535Y-120240477D01*
X137261600Y-120396000D01*
X137261600Y-122047000D01*
X137292535Y-122202523D01*
X137336040Y-122267632D01*
X137380632Y-122334368D01*
X137888631Y-122842368D01*
X137985177Y-122906878D01*
X138020477Y-122930465D01*
X138123755Y-122951008D01*
X137926536Y-123147884D01*
X137744408Y-123586497D01*
X137743993Y-124061420D01*
X137925355Y-124500350D01*
X138260884Y-124836464D01*
X138699497Y-125018592D01*
X139174420Y-125019007D01*
X139613350Y-124837645D01*
X139949464Y-124502116D01*
X140131592Y-124063503D01*
X140132007Y-123588580D01*
X139950645Y-123149650D01*
X139762723Y-122961400D01*
X140653345Y-122961400D01*
X140466536Y-123147884D01*
X140284408Y-123586497D01*
X140283993Y-124061420D01*
X140465355Y-124500350D01*
X140800884Y-124836464D01*
X141239497Y-125018592D01*
X141714420Y-125019007D01*
X142153350Y-124837645D01*
X142489464Y-124502116D01*
X142671592Y-124063503D01*
X142672007Y-123588580D01*
X142490645Y-123149650D01*
X142302723Y-122961400D01*
X142579664Y-122961400D01*
X142936005Y-123317741D01*
X142824408Y-123586497D01*
X142823993Y-124061420D01*
X143005355Y-124500350D01*
X143340884Y-124836464D01*
X143779497Y-125018592D01*
X144254420Y-125019007D01*
X144693350Y-124837645D01*
X145029464Y-124502116D01*
X145211592Y-124063503D01*
X145211593Y-124061420D01*
X145363993Y-124061420D01*
X145545355Y-124500350D01*
X145880884Y-124836464D01*
X146319497Y-125018592D01*
X146794420Y-125019007D01*
X147233350Y-124837645D01*
X147569464Y-124502116D01*
X147751592Y-124063503D01*
X147752007Y-123588580D01*
X147570645Y-123149650D01*
X147235116Y-122813536D01*
X146796503Y-122631408D01*
X146321580Y-122630993D01*
X145882650Y-122812355D01*
X145546536Y-123147884D01*
X145364408Y-123586497D01*
X145363993Y-124061420D01*
X145211593Y-124061420D01*
X145212007Y-123588580D01*
X145030645Y-123149650D01*
X144695116Y-122813536D01*
X144256503Y-122631408D01*
X143781580Y-122630993D01*
X143510668Y-122742932D01*
X143035368Y-122267632D01*
X143011560Y-122251724D01*
X142903523Y-122179535D01*
X142748000Y-122148600D01*
X142302655Y-122148600D01*
X142489464Y-121962116D01*
X142671592Y-121523503D01*
X142672007Y-121048580D01*
X142490645Y-120609650D01*
X142155116Y-120273536D01*
X141899512Y-120167400D01*
X142325664Y-120167400D01*
X142936005Y-120777741D01*
X142824408Y-121046497D01*
X142823993Y-121521420D01*
X143005355Y-121960350D01*
X143340884Y-122296464D01*
X143779497Y-122478592D01*
X144254420Y-122479007D01*
X144693350Y-122297645D01*
X145029464Y-121962116D01*
X145211592Y-121523503D01*
X145212007Y-121048580D01*
X145030645Y-120609650D01*
X144695116Y-120273536D01*
X144256503Y-120091408D01*
X143781580Y-120090993D01*
X143510668Y-120202931D01*
X143094136Y-119786400D01*
X144484664Y-119786400D01*
X145476005Y-120777741D01*
X145364408Y-121046497D01*
X145363993Y-121521420D01*
X145545355Y-121960350D01*
X145880884Y-122296464D01*
X146319497Y-122478592D01*
X146794420Y-122479007D01*
X147233350Y-122297645D01*
X147569464Y-121962116D01*
X147751592Y-121523503D01*
X147752007Y-121048580D01*
X147570645Y-120609650D01*
X147235116Y-120273536D01*
X146796503Y-120091408D01*
X146321580Y-120090993D01*
X146050668Y-120202932D01*
X144940368Y-119092632D01*
X144808523Y-119004535D01*
X144653000Y-118973600D01*
X141265336Y-118973600D01*
X140741400Y-118449664D01*
X140741400Y-108331000D01*
X141706600Y-108331000D01*
X141706600Y-116459000D01*
X141737535Y-116614523D01*
X141784278Y-116684478D01*
X141825632Y-116746368D01*
X143349631Y-118270368D01*
X143439822Y-118330632D01*
X143481477Y-118358465D01*
X143637000Y-118389400D01*
X145500664Y-118389400D01*
X147978743Y-120867479D01*
X147904408Y-121046497D01*
X147903993Y-121521420D01*
X148085355Y-121960350D01*
X148420884Y-122296464D01*
X148859497Y-122478592D01*
X149334420Y-122479007D01*
X149773350Y-122297645D01*
X150109464Y-121962116D01*
X150291592Y-121523503D01*
X150292007Y-121048580D01*
X150110645Y-120609650D01*
X149775116Y-120273536D01*
X149519512Y-120167400D01*
X149945664Y-120167400D01*
X150556005Y-120777741D01*
X150444408Y-121046497D01*
X150443993Y-121521420D01*
X150625355Y-121960350D01*
X150960884Y-122296464D01*
X151399497Y-122478592D01*
X151874420Y-122479007D01*
X152313350Y-122297645D01*
X152649464Y-121962116D01*
X152831592Y-121523503D01*
X152832007Y-121048580D01*
X152813110Y-121002846D01*
X152984297Y-121174033D01*
X152983993Y-121521420D01*
X153165355Y-121960350D01*
X153500884Y-122296464D01*
X153939497Y-122478592D01*
X154414420Y-122479007D01*
X154853350Y-122297645D01*
X155189464Y-121962116D01*
X155371592Y-121523503D01*
X155372007Y-121048580D01*
X155190645Y-120609650D01*
X154875944Y-120294400D01*
X155152664Y-120294400D01*
X155636005Y-120777741D01*
X155524408Y-121046497D01*
X155523993Y-121521420D01*
X155705355Y-121960350D01*
X156040884Y-122296464D01*
X156479497Y-122478592D01*
X156954420Y-122479007D01*
X157393350Y-122297645D01*
X157729464Y-121962116D01*
X157911592Y-121523503D01*
X157912007Y-121048580D01*
X157730645Y-120609650D01*
X157395116Y-120273536D01*
X156956503Y-120091408D01*
X156481580Y-120090993D01*
X156210668Y-120202932D01*
X155608368Y-119600632D01*
X155570651Y-119575430D01*
X155476523Y-119512535D01*
X155321000Y-119481600D01*
X153203336Y-119481600D01*
X152433368Y-118711632D01*
X152301523Y-118623535D01*
X152146000Y-118592600D01*
X148758336Y-118592600D01*
X146718368Y-116552632D01*
X146586523Y-116464535D01*
X146431000Y-116433600D01*
X144567336Y-116433600D01*
X143662400Y-115528664D01*
X143662400Y-109261336D01*
X146117981Y-106805755D01*
X146811890Y-106805755D01*
X146908360Y-107039228D01*
X147086832Y-107218013D01*
X147320137Y-107314889D01*
X147572755Y-107315110D01*
X147695965Y-107264200D01*
X149237016Y-107264200D01*
X149270884Y-107298068D01*
X149321360Y-107420228D01*
X149499832Y-107599013D01*
X149622953Y-107650137D01*
X151097906Y-109125089D01*
X151097908Y-109125092D01*
X151224547Y-109209709D01*
X151287437Y-109251731D01*
X151511000Y-109296201D01*
X151511005Y-109296200D01*
X163449000Y-109296200D01*
X163672564Y-109251730D01*
X163862092Y-109125092D01*
X164702068Y-108285116D01*
X164824228Y-108234640D01*
X165003013Y-108056168D01*
X165099889Y-107822863D01*
X165100110Y-107570245D01*
X165003640Y-107336772D01*
X164825168Y-107157987D01*
X164591863Y-107061111D01*
X164339245Y-107060890D01*
X164105772Y-107157360D01*
X163926987Y-107335832D01*
X163875863Y-107458953D01*
X163207016Y-108127800D01*
X151752983Y-108127800D01*
X150449116Y-106823932D01*
X150398640Y-106701772D01*
X150220168Y-106522987D01*
X150097047Y-106471863D01*
X149892092Y-106266908D01*
X149799990Y-106205368D01*
X149702564Y-106140270D01*
X149479000Y-106095800D01*
X147695937Y-106095800D01*
X147573863Y-106045111D01*
X147321245Y-106044890D01*
X147087772Y-106141360D01*
X146908987Y-106319832D01*
X146812111Y-106553137D01*
X146811890Y-106805755D01*
X146117981Y-106805755D01*
X146980336Y-105943400D01*
X149945664Y-105943400D01*
X151350631Y-107348368D01*
X151440822Y-107408632D01*
X151482477Y-107436465D01*
X151638000Y-107467400D01*
X157490900Y-107467400D01*
X157576360Y-107674228D01*
X157754832Y-107853013D01*
X157988137Y-107949889D01*
X158240755Y-107950110D01*
X158474228Y-107853640D01*
X158559492Y-107768525D01*
X158643832Y-107853013D01*
X158877137Y-107949889D01*
X159129755Y-107950110D01*
X159363228Y-107853640D01*
X159384881Y-107832025D01*
X159405832Y-107853013D01*
X159639137Y-107949889D01*
X159891755Y-107950110D01*
X160125228Y-107853640D01*
X160146881Y-107832025D01*
X160167832Y-107853013D01*
X160401137Y-107949889D01*
X160653755Y-107950110D01*
X160887228Y-107853640D01*
X161066013Y-107675168D01*
X161162889Y-107441863D01*
X161163110Y-107189245D01*
X161066640Y-106955772D01*
X160906901Y-106795753D01*
X160903465Y-106778477D01*
X160836833Y-106678755D01*
X172211890Y-106678755D01*
X172308360Y-106912228D01*
X172486832Y-107091013D01*
X172720137Y-107187889D01*
X172972755Y-107188110D01*
X173206228Y-107091640D01*
X173385013Y-106913168D01*
X173481889Y-106679863D01*
X173482110Y-106427245D01*
X173385640Y-106193772D01*
X173207168Y-106014987D01*
X172973863Y-105918111D01*
X172721245Y-105917890D01*
X172487772Y-106014360D01*
X172308987Y-106192832D01*
X172212111Y-106426137D01*
X172211890Y-106678755D01*
X160836833Y-106678755D01*
X160815368Y-106646632D01*
X159799368Y-105630632D01*
X159735794Y-105588153D01*
X159667523Y-105542535D01*
X159512000Y-105511600D01*
X152568337Y-105511600D01*
X151163368Y-104106632D01*
X151031523Y-104018535D01*
X150997438Y-104011755D01*
X154939890Y-104011755D01*
X155036360Y-104245228D01*
X155214832Y-104424013D01*
X155448137Y-104520889D01*
X155700755Y-104521110D01*
X155934228Y-104424640D01*
X156066700Y-104292400D01*
X156506356Y-104292400D01*
X156464111Y-104394137D01*
X156463890Y-104646755D01*
X156560360Y-104880228D01*
X156738832Y-105059013D01*
X156972137Y-105155889D01*
X157224755Y-105156110D01*
X157458228Y-105059640D01*
X157590700Y-104927400D01*
X158242000Y-104927400D01*
X158397523Y-104896465D01*
X158529368Y-104808368D01*
X158791336Y-104546400D01*
X165227000Y-104546400D01*
X165382523Y-104515465D01*
X165514368Y-104427368D01*
X165649336Y-104292400D01*
X166455664Y-104292400D01*
X167733632Y-105570368D01*
X167865477Y-105658465D01*
X168021000Y-105689400D01*
X173478546Y-105689400D01*
X173407812Y-106045000D01*
X173498685Y-106501847D01*
X173757468Y-106889144D01*
X174144765Y-107147927D01*
X174601612Y-107238800D01*
X174648388Y-107238800D01*
X175105235Y-107147927D01*
X175492532Y-106889144D01*
X175751315Y-106501847D01*
X175770523Y-106405280D01*
X176026863Y-106405280D01*
X176105446Y-106595038D01*
X176396590Y-106958643D01*
X176804718Y-107183154D01*
X176987200Y-107142952D01*
X176987200Y-106222800D01*
X177342800Y-106222800D01*
X177342800Y-107142952D01*
X177525282Y-107183154D01*
X177933410Y-106958643D01*
X178224554Y-106595038D01*
X178303137Y-106405280D01*
X178261934Y-106222800D01*
X177342800Y-106222800D01*
X176987200Y-106222800D01*
X176987200Y-106222800D01*
X176068066Y-106222800D01*
X176026863Y-106405280D01*
X175770523Y-106405280D01*
X175842188Y-106045000D01*
X175770524Y-105684720D01*
X176026863Y-105684720D01*
X176068066Y-105867200D01*
X176987200Y-105867200D01*
X176987200Y-104947048D01*
X177342800Y-104947048D01*
X177342800Y-105867200D01*
X178261934Y-105867200D01*
X178303137Y-105684720D01*
X178224554Y-105494962D01*
X177933410Y-105131357D01*
X177525282Y-104906846D01*
X177342800Y-104947048D01*
X176987200Y-104947048D01*
X176987200Y-104947048D01*
X176804718Y-104906846D01*
X176396590Y-105131357D01*
X176105446Y-105494962D01*
X176026863Y-105684720D01*
X175770524Y-105684720D01*
X175751315Y-105588153D01*
X175492532Y-105200856D01*
X175416320Y-105149933D01*
X175547368Y-105062368D01*
X176182368Y-104427368D01*
X176184610Y-104424013D01*
X176266052Y-104302127D01*
X176297468Y-104349144D01*
X176684765Y-104607927D01*
X177141612Y-104698800D01*
X177188388Y-104698800D01*
X177645235Y-104607927D01*
X178032532Y-104349144D01*
X178291315Y-103961847D01*
X178382188Y-103505000D01*
X178291315Y-103048153D01*
X178032532Y-102660856D01*
X177645235Y-102402073D01*
X177188388Y-102311200D01*
X177141612Y-102311200D01*
X176684765Y-102402073D01*
X176301400Y-102658229D01*
X176301400Y-102235000D01*
X176270465Y-102079477D01*
X176182368Y-101947632D01*
X175713371Y-101478635D01*
X175751315Y-101421847D01*
X175842188Y-100965000D01*
X175947812Y-100965000D01*
X176038685Y-101421847D01*
X176297468Y-101809144D01*
X176684765Y-102067927D01*
X177141612Y-102158800D01*
X177188388Y-102158800D01*
X177645235Y-102067927D01*
X178032532Y-101809144D01*
X178291315Y-101421847D01*
X178382188Y-100965000D01*
X178291315Y-100508153D01*
X178032532Y-100120856D01*
X177645235Y-99862073D01*
X177188388Y-99771200D01*
X177141612Y-99771200D01*
X176684765Y-99862073D01*
X176297468Y-100120856D01*
X176038685Y-100508153D01*
X175947812Y-100965000D01*
X175842188Y-100965000D01*
X175842188Y-100965000D01*
X175751315Y-100508153D01*
X175492532Y-100120856D01*
X175105235Y-99862073D01*
X174648388Y-99771200D01*
X174601612Y-99771200D01*
X174144765Y-99862073D01*
X173761400Y-100118229D01*
X173761400Y-99863336D01*
X174116017Y-99508719D01*
X174144765Y-99527927D01*
X174601612Y-99618800D01*
X174648388Y-99618800D01*
X175105235Y-99527927D01*
X175492532Y-99269144D01*
X175751315Y-98881847D01*
X175842188Y-98425000D01*
X175947812Y-98425000D01*
X176038685Y-98881847D01*
X176297468Y-99269144D01*
X176684765Y-99527927D01*
X177141612Y-99618800D01*
X177188388Y-99618800D01*
X177645235Y-99527927D01*
X178032532Y-99269144D01*
X178291315Y-98881847D01*
X178382188Y-98425000D01*
X178291315Y-97968153D01*
X178032532Y-97580856D01*
X177645235Y-97322073D01*
X177188388Y-97231200D01*
X177141612Y-97231200D01*
X176684765Y-97322073D01*
X176297468Y-97580856D01*
X176038685Y-97968153D01*
X175947812Y-98425000D01*
X175842188Y-98425000D01*
X175842188Y-98425000D01*
X175751315Y-97968153D01*
X175492532Y-97580856D01*
X175105235Y-97322073D01*
X174648388Y-97231200D01*
X174601612Y-97231200D01*
X174144765Y-97322073D01*
X173761400Y-97578229D01*
X173761400Y-97323336D01*
X173999467Y-97085269D01*
X175488600Y-97085269D01*
X175614504Y-97060841D01*
X175725162Y-96988150D01*
X175799236Y-96878413D01*
X175825269Y-96748600D01*
X175825269Y-96245280D01*
X176026863Y-96245280D01*
X176105446Y-96435038D01*
X176396590Y-96798643D01*
X176804718Y-97023154D01*
X176987200Y-96982952D01*
X176987200Y-96062800D01*
X177342800Y-96062800D01*
X177342800Y-96982952D01*
X177525282Y-97023154D01*
X177933410Y-96798643D01*
X178224554Y-96435038D01*
X178303137Y-96245280D01*
X178261934Y-96062800D01*
X177342800Y-96062800D01*
X176987200Y-96062800D01*
X176987200Y-96062800D01*
X176068066Y-96062800D01*
X176026863Y-96245280D01*
X175825269Y-96245280D01*
X175825269Y-95524720D01*
X176026863Y-95524720D01*
X176068066Y-95707200D01*
X176987200Y-95707200D01*
X176987200Y-94787048D01*
X177342800Y-94787048D01*
X177342800Y-95707200D01*
X178261934Y-95707200D01*
X178303137Y-95524720D01*
X178224554Y-95334962D01*
X177933410Y-94971357D01*
X177525282Y-94746846D01*
X177342800Y-94787048D01*
X176987200Y-94787048D01*
X176987200Y-94787048D01*
X176804718Y-94746846D01*
X176396590Y-94971357D01*
X176105446Y-95334962D01*
X176026863Y-95524720D01*
X175825269Y-95524720D01*
X175825269Y-95021400D01*
X175800841Y-94895496D01*
X175728150Y-94784838D01*
X175618413Y-94710764D01*
X175488600Y-94684731D01*
X173761400Y-94684731D01*
X173635496Y-94709159D01*
X173524838Y-94781850D01*
X173450764Y-94891587D01*
X173424731Y-95021400D01*
X173424731Y-96510533D01*
X173067632Y-96867632D01*
X172979535Y-96999477D01*
X172948600Y-97155000D01*
X172948600Y-98891664D01*
X172686632Y-99153632D01*
X172598535Y-99285477D01*
X172567600Y-99441000D01*
X172567600Y-103463663D01*
X172297664Y-103733600D01*
X168951336Y-103733600D01*
X167673368Y-102455632D01*
X167593212Y-102402073D01*
X167541523Y-102367535D01*
X167386000Y-102336600D01*
X164719000Y-102336600D01*
X164563477Y-102367535D01*
X164431632Y-102455632D01*
X164296664Y-102590600D01*
X158664336Y-102590600D01*
X158402368Y-102328632D01*
X158376279Y-102311200D01*
X158270523Y-102240535D01*
X158115000Y-102209600D01*
X156972000Y-102209600D01*
X156816477Y-102240535D01*
X156710721Y-102311200D01*
X156684632Y-102328632D01*
X156397211Y-102616053D01*
X156211245Y-102615890D01*
X155977772Y-102712360D01*
X155798987Y-102890832D01*
X155702111Y-103124137D01*
X155702000Y-103251168D01*
X155701863Y-103251111D01*
X155449245Y-103250890D01*
X155215772Y-103347360D01*
X155036987Y-103525832D01*
X154940111Y-103759137D01*
X154939890Y-104011755D01*
X150997438Y-104011755D01*
X150876000Y-103987600D01*
X146050000Y-103987600D01*
X145894477Y-104018535D01*
X145762632Y-104106632D01*
X141825632Y-108043632D01*
X141737535Y-108175477D01*
X141706600Y-108331000D01*
X140741400Y-108331000D01*
X140741400Y-105070336D01*
X141900336Y-103911400D01*
X145034000Y-103911400D01*
X145189523Y-103880465D01*
X145321368Y-103792368D01*
X147361336Y-101752400D01*
X161935900Y-101752400D01*
X162021360Y-101959228D01*
X162199832Y-102138013D01*
X162433137Y-102234889D01*
X162685755Y-102235110D01*
X162919228Y-102138640D01*
X163098013Y-101960168D01*
X163168614Y-101790141D01*
X163322137Y-101853889D01*
X163574755Y-101854110D01*
X163808228Y-101757640D01*
X163893492Y-101672525D01*
X163977832Y-101757013D01*
X164211137Y-101853889D01*
X164463755Y-101854110D01*
X164697228Y-101757640D01*
X164782492Y-101672525D01*
X164866832Y-101757013D01*
X165100137Y-101853889D01*
X165352755Y-101854110D01*
X165586228Y-101757640D01*
X165765013Y-101579168D01*
X165861889Y-101345863D01*
X165862110Y-101093245D01*
X165765640Y-100859772D01*
X165587168Y-100680987D01*
X165353863Y-100584111D01*
X165166683Y-100583947D01*
X164879368Y-100296632D01*
X164747523Y-100208535D01*
X164592000Y-100177600D01*
X164252336Y-100177600D01*
X163990368Y-99915632D01*
X163910212Y-99862073D01*
X163858523Y-99827535D01*
X163703000Y-99796600D01*
X146304000Y-99796600D01*
X146148477Y-99827535D01*
X146016632Y-99915632D01*
X143976664Y-101955600D01*
X140970000Y-101955600D01*
X140814477Y-101986535D01*
X140682632Y-102074632D01*
X138523632Y-104233632D01*
X138435535Y-104365477D01*
X138404600Y-104521000D01*
X138404600Y-105825864D01*
X138302947Y-105724211D01*
X138303110Y-105538245D01*
X138206640Y-105304772D01*
X138028168Y-105125987D01*
X137794863Y-105029111D01*
X137542245Y-105028890D01*
X137308772Y-105125360D01*
X137129987Y-105303832D01*
X137033111Y-105537137D01*
X137032890Y-105789755D01*
X111403200Y-105789755D01*
X111403200Y-98550755D01*
X124332890Y-98550755D01*
X124429360Y-98784228D01*
X124607832Y-98963013D01*
X124841137Y-99059889D01*
X125093755Y-99060110D01*
X125327228Y-98963640D01*
X125459700Y-98831400D01*
X126069664Y-98831400D01*
X132173632Y-104935368D01*
X132305478Y-105023466D01*
X132461000Y-105054400D01*
X135906449Y-105054400D01*
X136037832Y-105186013D01*
X136271137Y-105282889D01*
X136523755Y-105283110D01*
X136757228Y-105186640D01*
X136936013Y-105008168D01*
X137032889Y-104774863D01*
X137033110Y-104522245D01*
X136936640Y-104288772D01*
X136758168Y-104109987D01*
X136524863Y-104013111D01*
X136272245Y-104012890D01*
X136038772Y-104109360D01*
X135906300Y-104241600D01*
X132629336Y-104241600D01*
X131764491Y-103376755D01*
X134492890Y-103376755D01*
X134589360Y-103610228D01*
X134767832Y-103789013D01*
X135001137Y-103885889D01*
X135253755Y-103886110D01*
X135487228Y-103789640D01*
X135619700Y-103657400D01*
X138684000Y-103657400D01*
X138839523Y-103626465D01*
X138971368Y-103538368D01*
X140757336Y-101752400D01*
X142875000Y-101752400D01*
X143030523Y-101721465D01*
X143162368Y-101633368D01*
X144084789Y-100710947D01*
X144270755Y-100711110D01*
X144504228Y-100614640D01*
X144683013Y-100436168D01*
X144779889Y-100202863D01*
X144780110Y-99950245D01*
X144683640Y-99716772D01*
X144505168Y-99537987D01*
X144271863Y-99441111D01*
X144019245Y-99440890D01*
X143785772Y-99537360D01*
X143606987Y-99715832D01*
X143510111Y-99949137D01*
X143509947Y-100136317D01*
X142706664Y-100939600D01*
X140589000Y-100939600D01*
X140433477Y-100970535D01*
X140301632Y-101058632D01*
X138515664Y-102844600D01*
X135619551Y-102844600D01*
X135488168Y-102712987D01*
X135254863Y-102616111D01*
X135002245Y-102615890D01*
X134768772Y-102712360D01*
X134589987Y-102890832D01*
X134493111Y-103124137D01*
X134492890Y-103376755D01*
X131764491Y-103376755D01*
X126525368Y-98137632D01*
X126393523Y-98049535D01*
X126238000Y-98018600D01*
X125459551Y-98018600D01*
X125328168Y-97886987D01*
X125094863Y-97790111D01*
X124842245Y-97789890D01*
X124608772Y-97886360D01*
X124429987Y-98064832D01*
X124333111Y-98298137D01*
X124332890Y-98550755D01*
X111403200Y-98550755D01*
X111403200Y-96391755D01*
X130428890Y-96391755D01*
X130525360Y-96625228D01*
X130703832Y-96804013D01*
X130937137Y-96900889D01*
X131189755Y-96901110D01*
X131423228Y-96804640D01*
X131555700Y-96672400D01*
X133892863Y-96672400D01*
X131784664Y-98780600D01*
X131555551Y-98780600D01*
X131424168Y-98648987D01*
X131190863Y-98552111D01*
X130938245Y-98551890D01*
X130704772Y-98648360D01*
X130525987Y-98826832D01*
X130429111Y-99060137D01*
X130428890Y-99312755D01*
X130525360Y-99546228D01*
X130703832Y-99725013D01*
X130937000Y-99821832D01*
X130936890Y-99947755D01*
X131033360Y-100181228D01*
X131211832Y-100360013D01*
X131445000Y-100456832D01*
X131444890Y-100582755D01*
X131541360Y-100816228D01*
X131719832Y-100995013D01*
X131953000Y-101091832D01*
X131952890Y-101217755D01*
X132049360Y-101451228D01*
X132227832Y-101630013D01*
X132461137Y-101726889D01*
X132713755Y-101727110D01*
X132947228Y-101630640D01*
X133126013Y-101452168D01*
X133222889Y-101218863D01*
X133223110Y-100966245D01*
X133126640Y-100732772D01*
X133121400Y-100727523D01*
X133121400Y-100498336D01*
X135423337Y-98196400D01*
X137956864Y-98196400D01*
X136991664Y-99161600D01*
X136889551Y-99161600D01*
X136758168Y-99029987D01*
X136524863Y-98933111D01*
X136272245Y-98932890D01*
X136038772Y-99029360D01*
X135859987Y-99207832D01*
X135763111Y-99441137D01*
X135762890Y-99693755D01*
X135859360Y-99927228D01*
X136037832Y-100106013D01*
X136271000Y-100202832D01*
X136270890Y-100328755D01*
X136367360Y-100562228D01*
X136545832Y-100741013D01*
X136779000Y-100837832D01*
X136778890Y-100963755D01*
X136875360Y-101197228D01*
X137053832Y-101376013D01*
X137287000Y-101472832D01*
X137286890Y-101598755D01*
X137383360Y-101832228D01*
X137561832Y-102011013D01*
X137795137Y-102107889D01*
X138047755Y-102108110D01*
X138281228Y-102011640D01*
X138460013Y-101833168D01*
X138556889Y-101599863D01*
X138557110Y-101347245D01*
X138460640Y-101113772D01*
X138455400Y-101108523D01*
X138455400Y-100752336D01*
X139487336Y-99720400D01*
X140716000Y-99720400D01*
X140871523Y-99689465D01*
X141003368Y-99601368D01*
X141265336Y-99339400D01*
X163661664Y-99339400D01*
X163796632Y-99474368D01*
X163928477Y-99562465D01*
X164084000Y-99593400D01*
X164550664Y-99593400D01*
X164685632Y-99728368D01*
X164817477Y-99816465D01*
X164973000Y-99847400D01*
X165370449Y-99847400D01*
X165501832Y-99979013D01*
X165735137Y-100075889D01*
X165987755Y-100076110D01*
X166221228Y-99979640D01*
X166400013Y-99801168D01*
X166496889Y-99567863D01*
X166497110Y-99315245D01*
X166400640Y-99081772D01*
X166222168Y-98902987D01*
X165988863Y-98806111D01*
X165862000Y-98806000D01*
X165862110Y-98680245D01*
X165765640Y-98446772D01*
X165587168Y-98267987D01*
X165353863Y-98171111D01*
X165227000Y-98171000D01*
X165227110Y-98045245D01*
X165130640Y-97811772D01*
X164952168Y-97632987D01*
X164718863Y-97536111D01*
X164592000Y-97536000D01*
X164592110Y-97410245D01*
X164495640Y-97176772D01*
X164317168Y-96997987D01*
X164083863Y-96901111D01*
X163957000Y-96901000D01*
X164082755Y-96901110D01*
X164316228Y-96804640D01*
X164495013Y-96626168D01*
X164591889Y-96392863D01*
X164592000Y-96266000D01*
X164717755Y-96266110D01*
X164951228Y-96169640D01*
X165130013Y-95991168D01*
X165226889Y-95757863D01*
X165227000Y-95631000D01*
X165352755Y-95631110D01*
X165586228Y-95534640D01*
X165765013Y-95356168D01*
X165861889Y-95122863D01*
X165862110Y-94870245D01*
X165765640Y-94636772D01*
X165587168Y-94457987D01*
X165353863Y-94361111D01*
X165101245Y-94360890D01*
X164867772Y-94457360D01*
X164735300Y-94589600D01*
X164338000Y-94589600D01*
X164182477Y-94620535D01*
X164050632Y-94708632D01*
X163915664Y-94843600D01*
X163576000Y-94843600D01*
X163420477Y-94874535D01*
X163288632Y-94962632D01*
X163153664Y-95097600D01*
X162560000Y-95097600D01*
X162404477Y-95128535D01*
X162272632Y-95216632D01*
X161629664Y-95859600D01*
X161247644Y-95859600D01*
X161289889Y-95757863D01*
X161290110Y-95505245D01*
X161193640Y-95271772D01*
X161015168Y-95092987D01*
X160781863Y-94996111D01*
X160529245Y-94995890D01*
X160295772Y-95092360D01*
X160116987Y-95270832D01*
X160030715Y-95478600D01*
X139065000Y-95478600D01*
X138931045Y-95505245D01*
X138909477Y-95509535D01*
X138777632Y-95597632D01*
X138515664Y-95859600D01*
X131555551Y-95859600D01*
X131424168Y-95727987D01*
X131190863Y-95631111D01*
X130938245Y-95630890D01*
X130704772Y-95727360D01*
X130525987Y-95905832D01*
X130429111Y-96139137D01*
X130428890Y-96391755D01*
X111403200Y-96391755D01*
X111403200Y-95580200D01*
X113527515Y-95580200D01*
X113611246Y-95614968D01*
X114140432Y-95615430D01*
X114140896Y-95615238D01*
X114360432Y-95615430D01*
X114360896Y-95615238D01*
X114580432Y-95615430D01*
X114580896Y-95615238D01*
X114800432Y-95615430D01*
X114800896Y-95615238D01*
X115020432Y-95615430D01*
X115020896Y-95615238D01*
X115240432Y-95615430D01*
X115240896Y-95615238D01*
X115460432Y-95615430D01*
X115949513Y-95413346D01*
X116324031Y-95039481D01*
X116526968Y-94550754D01*
X116527430Y-94021568D01*
X116509741Y-93978755D01*
X135889890Y-93978755D01*
X135986360Y-94212228D01*
X136164832Y-94391013D01*
X136398137Y-94487889D01*
X136525405Y-94488000D01*
X136621360Y-94720228D01*
X136799832Y-94899013D01*
X137033137Y-94995889D01*
X137160405Y-94996000D01*
X137256360Y-95228228D01*
X137434832Y-95407013D01*
X137668137Y-95503889D01*
X137920755Y-95504110D01*
X138154228Y-95407640D01*
X138333013Y-95229168D01*
X138429889Y-94995863D01*
X138430110Y-94743245D01*
X138337828Y-94519908D01*
X138471337Y-94386400D01*
X139150664Y-94386400D01*
X139920632Y-95156368D01*
X140052477Y-95244465D01*
X140208000Y-95275400D01*
X148717000Y-95275400D01*
X148730539Y-95272707D01*
X148737832Y-95280013D01*
X148971137Y-95376889D01*
X149223755Y-95377110D01*
X149457228Y-95280640D01*
X149636013Y-95102168D01*
X149687937Y-94977120D01*
X149733137Y-94995889D01*
X149985755Y-94996110D01*
X150219228Y-94899640D01*
X150398013Y-94721168D01*
X150449937Y-94596120D01*
X150495137Y-94614889D01*
X150747755Y-94615110D01*
X150981228Y-94518640D01*
X151160013Y-94340168D01*
X151211937Y-94215120D01*
X151257137Y-94233889D01*
X151509755Y-94234110D01*
X151743228Y-94137640D01*
X151922013Y-93959168D01*
X152018889Y-93725863D01*
X152019110Y-93473245D01*
X151922640Y-93239772D01*
X151744168Y-93060987D01*
X151510863Y-92964111D01*
X151308674Y-92963934D01*
X151295351Y-92955032D01*
X151222023Y-92906035D01*
X151066500Y-92875100D01*
X148653500Y-92875100D01*
X148497977Y-92906035D01*
X148424649Y-92955032D01*
X148366132Y-92994132D01*
X148040664Y-93319600D01*
X141570139Y-93319600D01*
X141181170Y-92930632D01*
X141098061Y-92875100D01*
X141049325Y-92842535D01*
X140893802Y-92811600D01*
X137541000Y-92811600D01*
X137385477Y-92842535D01*
X137336741Y-92875100D01*
X137253632Y-92930632D01*
X136873939Y-93310325D01*
X136651863Y-93218111D01*
X136399245Y-93217890D01*
X136165772Y-93314360D01*
X135986987Y-93492832D01*
X135890111Y-93726137D01*
X135889890Y-93978755D01*
X116509741Y-93978755D01*
X116325346Y-93532487D01*
X115951481Y-93157969D01*
X115773200Y-93083940D01*
X115773200Y-91380345D01*
X115782757Y-91370805D01*
X115905600Y-91074967D01*
X115905880Y-90754638D01*
X115905749Y-90754321D01*
X115905880Y-90604638D01*
X115905749Y-90604321D01*
X115905880Y-90454638D01*
X115866307Y-90358862D01*
X116644585Y-90358862D01*
X116734684Y-90508870D01*
X117153258Y-90625444D01*
X117584581Y-90572963D01*
X117739316Y-90508870D01*
X117829415Y-90358862D01*
X117237000Y-89766447D01*
X116644585Y-90358862D01*
X115866307Y-90358862D01*
X115783554Y-90158587D01*
X115557245Y-89931883D01*
X115261407Y-89809040D01*
X114941078Y-89808760D01*
X114645027Y-89931086D01*
X114609251Y-89966800D01*
X114249200Y-89966800D01*
X114249200Y-89431258D01*
X116126556Y-89431258D01*
X116179037Y-89862581D01*
X116243130Y-90017316D01*
X116393138Y-90107415D01*
X116985553Y-89515000D01*
X117488447Y-89515000D01*
X118080862Y-90107415D01*
X118230870Y-90017316D01*
X118243723Y-89971167D01*
X118310538Y-90132873D01*
X118617511Y-90440382D01*
X119018795Y-90607010D01*
X119453299Y-90607389D01*
X119854873Y-90441462D01*
X120162382Y-90134489D01*
X120329010Y-89733205D01*
X120329294Y-89406755D01*
X130428890Y-89406755D01*
X130525360Y-89640228D01*
X130703832Y-89819013D01*
X130937137Y-89915889D01*
X131189755Y-89916110D01*
X131423228Y-89819640D01*
X131555700Y-89687400D01*
X132080000Y-89687400D01*
X132235523Y-89656465D01*
X132367368Y-89568368D01*
X132502336Y-89433400D01*
X143595664Y-89433400D01*
X144459206Y-90296942D01*
X144400245Y-90296890D01*
X144166772Y-90393360D01*
X143987987Y-90571832D01*
X143891111Y-90805137D01*
X143890890Y-91057755D01*
X143987360Y-91291228D01*
X144165832Y-91470013D01*
X144399137Y-91566889D01*
X144651755Y-91567110D01*
X144885228Y-91470640D01*
X144941615Y-91414351D01*
X146143632Y-92616368D01*
X146275477Y-92704465D01*
X146431000Y-92735400D01*
X159216664Y-92735400D01*
X159478632Y-92997368D01*
X159610477Y-93085465D01*
X159766000Y-93116400D01*
X161052449Y-93116400D01*
X161183832Y-93248013D01*
X161417137Y-93344889D01*
X161669755Y-93345110D01*
X161903228Y-93248640D01*
X162082013Y-93070168D01*
X162178889Y-92836863D01*
X162179110Y-92584245D01*
X162082640Y-92350772D01*
X161904168Y-92171987D01*
X161670863Y-92075111D01*
X161418245Y-92074890D01*
X161184772Y-92171360D01*
X161052300Y-92303600D01*
X160612644Y-92303600D01*
X160654889Y-92201863D01*
X160655110Y-91949245D01*
X160558640Y-91715772D01*
X160380168Y-91536987D01*
X160146863Y-91440111D01*
X159894245Y-91439890D01*
X159660772Y-91536360D01*
X159655523Y-91541600D01*
X151171336Y-91541600D01*
X150020368Y-90390632D01*
X149972821Y-90358862D01*
X149888523Y-90302535D01*
X149733000Y-90271600D01*
X146853336Y-90271600D01*
X145861491Y-89279755D01*
X147954890Y-89279755D01*
X148051360Y-89513228D01*
X148229832Y-89692013D01*
X148463137Y-89788889D01*
X148715755Y-89789110D01*
X148838965Y-89738200D01*
X150380016Y-89738200D01*
X151605908Y-90964092D01*
X151795436Y-91090730D01*
X152019000Y-91135200D01*
X153294063Y-91135200D01*
X153416137Y-91185889D01*
X153668755Y-91186110D01*
X153791965Y-91135200D01*
X168021000Y-91135200D01*
X168244564Y-91090730D01*
X168434092Y-90964092D01*
X168893068Y-90505116D01*
X169015228Y-90454640D01*
X169194013Y-90276168D01*
X169290889Y-90042863D01*
X169291110Y-89790245D01*
X169194640Y-89556772D01*
X169016168Y-89377987D01*
X168782863Y-89281111D01*
X168530245Y-89280890D01*
X168296772Y-89377360D01*
X168117987Y-89555832D01*
X168066863Y-89678953D01*
X167779016Y-89966800D01*
X153791937Y-89966800D01*
X153669863Y-89916111D01*
X153417245Y-89915890D01*
X153294035Y-89966800D01*
X152260984Y-89966800D01*
X151035092Y-88740908D01*
X150935739Y-88674523D01*
X150845564Y-88614270D01*
X150622000Y-88569800D01*
X148838937Y-88569800D01*
X148716863Y-88519111D01*
X148464245Y-88518890D01*
X148230772Y-88615360D01*
X148051987Y-88793832D01*
X147955111Y-89027137D01*
X147954890Y-89279755D01*
X145861491Y-89279755D01*
X144559368Y-87977632D01*
X144503620Y-87940382D01*
X144427523Y-87889535D01*
X144272000Y-87858600D01*
X134355100Y-87858600D01*
X134269640Y-87651772D01*
X134091168Y-87472987D01*
X133857863Y-87376111D01*
X133605245Y-87375890D01*
X133371772Y-87472360D01*
X133192987Y-87650832D01*
X133096111Y-87884137D01*
X133095890Y-88136755D01*
X133138385Y-88239600D01*
X132190551Y-88239600D01*
X132059168Y-88107987D01*
X131825863Y-88011111D01*
X131573245Y-88010890D01*
X131339772Y-88107360D01*
X131160987Y-88285832D01*
X131064111Y-88519137D01*
X131064000Y-88646000D01*
X130938245Y-88645890D01*
X130704772Y-88742360D01*
X130525987Y-88920832D01*
X130429111Y-89154137D01*
X130428890Y-89406755D01*
X120329294Y-89406755D01*
X120329389Y-89298701D01*
X120163462Y-88897127D01*
X119856489Y-88589618D01*
X119455205Y-88422990D01*
X119020701Y-88422611D01*
X118619127Y-88588538D01*
X118311618Y-88895511D01*
X118246897Y-89051376D01*
X118230870Y-89012684D01*
X118080862Y-88922585D01*
X117488447Y-89515000D01*
X116985553Y-89515000D01*
X116985553Y-89515000D01*
X116393138Y-88922585D01*
X116243130Y-89012684D01*
X116126556Y-89431258D01*
X114249200Y-89431258D01*
X114249200Y-88671138D01*
X116644585Y-88671138D01*
X117237000Y-89263553D01*
X117829415Y-88671138D01*
X117739316Y-88521130D01*
X117320742Y-88404556D01*
X116889419Y-88457037D01*
X116734684Y-88521130D01*
X116644585Y-88671138D01*
X114249200Y-88671138D01*
X114249200Y-87231299D01*
X116144611Y-87231299D01*
X116310538Y-87632873D01*
X116617511Y-87940382D01*
X117018795Y-88107010D01*
X117453299Y-88107389D01*
X117854873Y-87941462D01*
X118162382Y-87634489D01*
X118236978Y-87454843D01*
X118310538Y-87632873D01*
X118617511Y-87940382D01*
X119018795Y-88107010D01*
X119453299Y-88107389D01*
X119854873Y-87941462D01*
X120162382Y-87634489D01*
X120329010Y-87233205D01*
X120329389Y-86798701D01*
X120163462Y-86397127D01*
X119856489Y-86089618D01*
X119455205Y-85922990D01*
X119020701Y-85922611D01*
X118619127Y-86088538D01*
X118311618Y-86395511D01*
X118237022Y-86575157D01*
X118163462Y-86397127D01*
X117856489Y-86089618D01*
X117455205Y-85922990D01*
X117020701Y-85922611D01*
X116619127Y-86088538D01*
X116311618Y-86395511D01*
X116144990Y-86796795D01*
X116144611Y-87231299D01*
X114249200Y-87231299D01*
X114249200Y-86563200D01*
X114610776Y-86563200D01*
X114643835Y-86596317D01*
X114939673Y-86719160D01*
X115260002Y-86719440D01*
X115556053Y-86597114D01*
X115782757Y-86370805D01*
X115905600Y-86074967D01*
X115905880Y-85754638D01*
X115905749Y-85754321D01*
X115905880Y-85604638D01*
X115905749Y-85604321D01*
X115905880Y-85454638D01*
X115783554Y-85158587D01*
X115773200Y-85148215D01*
X115773200Y-84834755D01*
X130428890Y-84834755D01*
X130525360Y-85068228D01*
X130703832Y-85247013D01*
X130937137Y-85343889D01*
X131189755Y-85344110D01*
X131423228Y-85247640D01*
X131602013Y-85069168D01*
X131698889Y-84835863D01*
X131698978Y-84734400D01*
X136694356Y-84734400D01*
X136652111Y-84836137D01*
X136651890Y-85088755D01*
X136748360Y-85322228D01*
X136926832Y-85501013D01*
X137007389Y-85534463D01*
X136927772Y-85567360D01*
X136748987Y-85745832D01*
X136652111Y-85979137D01*
X136651890Y-86231755D01*
X136748360Y-86465228D01*
X136926832Y-86644013D01*
X137160137Y-86740889D01*
X137287000Y-86741000D01*
X137286890Y-86866755D01*
X137383360Y-87100228D01*
X137561832Y-87279013D01*
X137795137Y-87375889D01*
X138047755Y-87376110D01*
X138281228Y-87279640D01*
X138413700Y-87147400D01*
X138430000Y-87147400D01*
X138585523Y-87116465D01*
X138717368Y-87028368D01*
X139487336Y-86258400D01*
X150199664Y-86258400D01*
X152747632Y-88806368D01*
X152879478Y-88894466D01*
X153035000Y-88925400D01*
X169122664Y-88925400D01*
X169900600Y-89703336D01*
X169900600Y-92922664D01*
X169765632Y-93057632D01*
X169677535Y-93189477D01*
X169646600Y-93345000D01*
X169646600Y-93853000D01*
X169677535Y-94008523D01*
X169760307Y-94132399D01*
X169765632Y-94140368D01*
X170027600Y-94402336D01*
X170027600Y-97536000D01*
X170058535Y-97691523D01*
X170138256Y-97810832D01*
X170146632Y-97823368D01*
X170281600Y-97958336D01*
X170281600Y-98393090D01*
X170052863Y-98298111D01*
X169800245Y-98297890D01*
X169566772Y-98394360D01*
X169387987Y-98572832D01*
X169291111Y-98806137D01*
X169290890Y-99058755D01*
X169387360Y-99292228D01*
X169565832Y-99471013D01*
X169799137Y-99567889D01*
X170051755Y-99568110D01*
X170156388Y-99524876D01*
X169986211Y-99695053D01*
X169800245Y-99694890D01*
X169566772Y-99791360D01*
X169387987Y-99969832D01*
X169291111Y-100203137D01*
X169290890Y-100455755D01*
X169387360Y-100689228D01*
X169565832Y-100868013D01*
X169799137Y-100964889D01*
X170051755Y-100965110D01*
X170285228Y-100868640D01*
X170464013Y-100690168D01*
X170560889Y-100456863D01*
X170561053Y-100269683D01*
X170662600Y-100168136D01*
X170662600Y-101981000D01*
X170688110Y-102109249D01*
X170687890Y-102360755D01*
X170784360Y-102594228D01*
X170962832Y-102773013D01*
X171196137Y-102869889D01*
X171448755Y-102870110D01*
X171682228Y-102773640D01*
X171861013Y-102595168D01*
X171957889Y-102361863D01*
X171958110Y-102109245D01*
X171861640Y-101875772D01*
X171683168Y-101696987D01*
X171475400Y-101610715D01*
X171475400Y-97874644D01*
X171577137Y-97916889D01*
X171829755Y-97917110D01*
X172063228Y-97820640D01*
X172242013Y-97642168D01*
X172338889Y-97408863D01*
X172339110Y-97156245D01*
X172242640Y-96922772D01*
X172064168Y-96743987D01*
X171830863Y-96647111D01*
X171643684Y-96646947D01*
X171602400Y-96605664D01*
X171602400Y-94656336D01*
X171991368Y-94267369D01*
X172079465Y-94135523D01*
X172080086Y-94132399D01*
X172110400Y-93980000D01*
X172110400Y-93091000D01*
X172079465Y-92935477D01*
X171991368Y-92803632D01*
X171856400Y-92668664D01*
X171856400Y-88773000D01*
X171825465Y-88617477D01*
X171737368Y-88485632D01*
X170340368Y-87088632D01*
X170208523Y-87000535D01*
X170053000Y-86969600D01*
X153965336Y-86969600D01*
X153933805Y-86938069D01*
X154029228Y-86898640D01*
X154208013Y-86720168D01*
X154304889Y-86486863D01*
X154305110Y-86234245D01*
X154208640Y-86000772D01*
X154030168Y-85821987D01*
X153796863Y-85725111D01*
X153544245Y-85724890D01*
X153410775Y-85780039D01*
X151671368Y-84040632D01*
X151539523Y-83952535D01*
X151384000Y-83921600D01*
X131445000Y-83921600D01*
X131289477Y-83952535D01*
X131157632Y-84040632D01*
X131124211Y-84074053D01*
X130938245Y-84073890D01*
X130704772Y-84170360D01*
X130525987Y-84348832D01*
X130429111Y-84582137D01*
X130428890Y-84834755D01*
X115773200Y-84834755D01*
X115773200Y-83446197D01*
X115949513Y-83373346D01*
X116324031Y-82999481D01*
X116526968Y-82510754D01*
X116527430Y-81981568D01*
X116325346Y-81492487D01*
X115951481Y-81117969D01*
X115462754Y-80915032D01*
X114933568Y-80914570D01*
X114933104Y-80914762D01*
X114713568Y-80914570D01*
X114713104Y-80914762D01*
X114493568Y-80914570D01*
X114493104Y-80914762D01*
X114273568Y-80914570D01*
X114273104Y-80914762D01*
X114053568Y-80914570D01*
X114053104Y-80914762D01*
X113833568Y-80914570D01*
X113833104Y-80914762D01*
X113613568Y-80914570D01*
X113528305Y-80949800D01*
X111403200Y-80949800D01*
X111403200Y-79023122D01*
X129127325Y-79023122D01*
X129230072Y-79183672D01*
X129685789Y-79317369D01*
X130157979Y-79266494D01*
X130357928Y-79183672D01*
X130460675Y-79023122D01*
X129794000Y-78356447D01*
X129127325Y-79023122D01*
X111403200Y-79023122D01*
X111403200Y-77996789D01*
X128581631Y-77996789D01*
X128632506Y-78468979D01*
X128715328Y-78668928D01*
X128875878Y-78771675D01*
X129542553Y-78105000D01*
X130045447Y-78105000D01*
X130712122Y-78771675D01*
X130872672Y-78668928D01*
X130968755Y-78341420D01*
X131139993Y-78341420D01*
X131321355Y-78780350D01*
X131656884Y-79116464D01*
X132095497Y-79298592D01*
X132570420Y-79299007D01*
X133009350Y-79117645D01*
X133345464Y-78782116D01*
X133527592Y-78343503D01*
X133527593Y-78341420D01*
X133679993Y-78341420D01*
X133861355Y-78780350D01*
X134196884Y-79116464D01*
X134635497Y-79298592D01*
X135110420Y-79299007D01*
X135549350Y-79117645D01*
X135885464Y-78782116D01*
X136067592Y-78343503D01*
X136067593Y-78341420D01*
X136219993Y-78341420D01*
X136401355Y-78780350D01*
X136736884Y-79116464D01*
X137175497Y-79298592D01*
X137650420Y-79299007D01*
X138089350Y-79117645D01*
X138425464Y-78782116D01*
X138607592Y-78343503D01*
X138607593Y-78341420D01*
X138759993Y-78341420D01*
X138941355Y-78780350D01*
X139276884Y-79116464D01*
X139715497Y-79298592D01*
X140190420Y-79299007D01*
X140629350Y-79117645D01*
X140965464Y-78782116D01*
X141147592Y-78343503D01*
X141147593Y-78341420D01*
X141299993Y-78341420D01*
X141481355Y-78780350D01*
X141816884Y-79116464D01*
X142255497Y-79298592D01*
X142730420Y-79299007D01*
X143169350Y-79117645D01*
X143505464Y-78782116D01*
X143687592Y-78343503D01*
X143687593Y-78341420D01*
X143839993Y-78341420D01*
X144021355Y-78780350D01*
X144356884Y-79116464D01*
X144795497Y-79298592D01*
X145270420Y-79299007D01*
X145709350Y-79117645D01*
X146045464Y-78782116D01*
X146227592Y-78343503D01*
X146227593Y-78341420D01*
X146379993Y-78341420D01*
X146561355Y-78780350D01*
X146896884Y-79116464D01*
X147335497Y-79298592D01*
X147810420Y-79299007D01*
X148249350Y-79117645D01*
X148585464Y-78782116D01*
X148767592Y-78343503D01*
X148767593Y-78341420D01*
X148919993Y-78341420D01*
X149101355Y-78780350D01*
X149436884Y-79116464D01*
X149875497Y-79298592D01*
X150350420Y-79299007D01*
X150789350Y-79117645D01*
X151125464Y-78782116D01*
X151307592Y-78343503D01*
X151307593Y-78341420D01*
X151459993Y-78341420D01*
X151641355Y-78780350D01*
X151976884Y-79116464D01*
X152415497Y-79298592D01*
X152890420Y-79299007D01*
X153329350Y-79117645D01*
X153665464Y-78782116D01*
X153847592Y-78343503D01*
X153847593Y-78341420D01*
X155523993Y-78341420D01*
X155705355Y-78780350D01*
X156040884Y-79116464D01*
X156479497Y-79298592D01*
X156954420Y-79299007D01*
X157393350Y-79117645D01*
X157729464Y-78782116D01*
X157911592Y-78343503D01*
X157911593Y-78341420D01*
X158063993Y-78341420D01*
X158245355Y-78780350D01*
X158580884Y-79116464D01*
X159019497Y-79298592D01*
X159494420Y-79299007D01*
X159933350Y-79117645D01*
X160269464Y-78782116D01*
X160451592Y-78343503D01*
X160451593Y-78341420D01*
X160603993Y-78341420D01*
X160785355Y-78780350D01*
X161120884Y-79116464D01*
X161559497Y-79298592D01*
X162034420Y-79299007D01*
X162473350Y-79117645D01*
X162809464Y-78782116D01*
X162991592Y-78343503D01*
X162991593Y-78341420D01*
X163143993Y-78341420D01*
X163325355Y-78780350D01*
X163660884Y-79116464D01*
X164099497Y-79298592D01*
X164574420Y-79299007D01*
X165013350Y-79117645D01*
X165349464Y-78782116D01*
X165531592Y-78343503D01*
X165531593Y-78341420D01*
X165683993Y-78341420D01*
X165865355Y-78780350D01*
X166200884Y-79116464D01*
X166639497Y-79298592D01*
X167114420Y-79299007D01*
X167553350Y-79117645D01*
X167889464Y-78782116D01*
X168071592Y-78343503D01*
X168071593Y-78341420D01*
X168223993Y-78341420D01*
X168405355Y-78780350D01*
X168740884Y-79116464D01*
X169179497Y-79298592D01*
X169654420Y-79299007D01*
X170093350Y-79117645D01*
X170429464Y-78782116D01*
X170611592Y-78343503D01*
X170611593Y-78341420D01*
X170763993Y-78341420D01*
X170945355Y-78780350D01*
X171280884Y-79116464D01*
X171719497Y-79298592D01*
X172194420Y-79299007D01*
X172633350Y-79117645D01*
X172969464Y-78782116D01*
X173151592Y-78343503D01*
X173151593Y-78341420D01*
X173303993Y-78341420D01*
X173485355Y-78780350D01*
X173820884Y-79116464D01*
X174259497Y-79298592D01*
X174734420Y-79299007D01*
X175173350Y-79117645D01*
X175509464Y-78782116D01*
X175691592Y-78343503D01*
X175692007Y-77868580D01*
X175510645Y-77429650D01*
X175175116Y-77093536D01*
X174736503Y-76911408D01*
X174261580Y-76910993D01*
X173822650Y-77092355D01*
X173486536Y-77427884D01*
X173304408Y-77866497D01*
X173303993Y-78341420D01*
X173151593Y-78341420D01*
X173152007Y-77868580D01*
X172970645Y-77429650D01*
X172635116Y-77093536D01*
X172196503Y-76911408D01*
X171721580Y-76910993D01*
X171282650Y-77092355D01*
X170946536Y-77427884D01*
X170764408Y-77866497D01*
X170763993Y-78341420D01*
X170611593Y-78341420D01*
X170612007Y-77868580D01*
X170430645Y-77429650D01*
X170095116Y-77093536D01*
X169656503Y-76911408D01*
X169181580Y-76910993D01*
X168742650Y-77092355D01*
X168406536Y-77427884D01*
X168224408Y-77866497D01*
X168223993Y-78341420D01*
X168071593Y-78341420D01*
X168072007Y-77868580D01*
X167890645Y-77429650D01*
X167555116Y-77093536D01*
X167116503Y-76911408D01*
X166641580Y-76910993D01*
X166202650Y-77092355D01*
X165866536Y-77427884D01*
X165684408Y-77866497D01*
X165683993Y-78341420D01*
X165531593Y-78341420D01*
X165532007Y-77868580D01*
X165350645Y-77429650D01*
X165015116Y-77093536D01*
X164576503Y-76911408D01*
X164101580Y-76910993D01*
X163662650Y-77092355D01*
X163326536Y-77427884D01*
X163144408Y-77866497D01*
X163143993Y-78341420D01*
X162991593Y-78341420D01*
X162992007Y-77868580D01*
X162810645Y-77429650D01*
X162475116Y-77093536D01*
X162036503Y-76911408D01*
X161561580Y-76910993D01*
X161122650Y-77092355D01*
X160786536Y-77427884D01*
X160604408Y-77866497D01*
X160603993Y-78341420D01*
X160451593Y-78341420D01*
X160452007Y-77868580D01*
X160270645Y-77429650D01*
X159935116Y-77093536D01*
X159496503Y-76911408D01*
X159021580Y-76910993D01*
X158582650Y-77092355D01*
X158246536Y-77427884D01*
X158064408Y-77866497D01*
X158063993Y-78341420D01*
X157911593Y-78341420D01*
X157912007Y-77868580D01*
X157730645Y-77429650D01*
X157395116Y-77093536D01*
X156956503Y-76911408D01*
X156481580Y-76910993D01*
X156042650Y-77092355D01*
X155706536Y-77427884D01*
X155524408Y-77866497D01*
X155523993Y-78341420D01*
X153847593Y-78341420D01*
X153848007Y-77868580D01*
X153666645Y-77429650D01*
X153331116Y-77093536D01*
X152892503Y-76911408D01*
X152417580Y-76910993D01*
X151978650Y-77092355D01*
X151642536Y-77427884D01*
X151460408Y-77866497D01*
X151459993Y-78341420D01*
X151307593Y-78341420D01*
X151308007Y-77868580D01*
X151126645Y-77429650D01*
X150791116Y-77093536D01*
X150352503Y-76911408D01*
X149877580Y-76910993D01*
X149438650Y-77092355D01*
X149102536Y-77427884D01*
X148920408Y-77866497D01*
X148919993Y-78341420D01*
X148767593Y-78341420D01*
X148768007Y-77868580D01*
X148586645Y-77429650D01*
X148251116Y-77093536D01*
X147812503Y-76911408D01*
X147337580Y-76910993D01*
X146898650Y-77092355D01*
X146562536Y-77427884D01*
X146380408Y-77866497D01*
X146379993Y-78341420D01*
X146227593Y-78341420D01*
X146228007Y-77868580D01*
X146046645Y-77429650D01*
X145711116Y-77093536D01*
X145272503Y-76911408D01*
X144797580Y-76910993D01*
X144358650Y-77092355D01*
X144022536Y-77427884D01*
X143840408Y-77866497D01*
X143839993Y-78341420D01*
X143687593Y-78341420D01*
X143688007Y-77868580D01*
X143506645Y-77429650D01*
X143171116Y-77093536D01*
X142732503Y-76911408D01*
X142257580Y-76910993D01*
X141818650Y-77092355D01*
X141482536Y-77427884D01*
X141300408Y-77866497D01*
X141299993Y-78341420D01*
X141147593Y-78341420D01*
X141148007Y-77868580D01*
X140966645Y-77429650D01*
X140631116Y-77093536D01*
X140192503Y-76911408D01*
X139717580Y-76910993D01*
X139278650Y-77092355D01*
X138942536Y-77427884D01*
X138760408Y-77866497D01*
X138759993Y-78341420D01*
X138607593Y-78341420D01*
X138608007Y-77868580D01*
X138426645Y-77429650D01*
X138091116Y-77093536D01*
X137652503Y-76911408D01*
X137177580Y-76910993D01*
X136738650Y-77092355D01*
X136402536Y-77427884D01*
X136220408Y-77866497D01*
X136219993Y-78341420D01*
X136067593Y-78341420D01*
X136068007Y-77868580D01*
X135886645Y-77429650D01*
X135551116Y-77093536D01*
X135112503Y-76911408D01*
X134637580Y-76910993D01*
X134198650Y-77092355D01*
X133862536Y-77427884D01*
X133680408Y-77866497D01*
X133679993Y-78341420D01*
X133527593Y-78341420D01*
X133528007Y-77868580D01*
X133346645Y-77429650D01*
X133011116Y-77093536D01*
X132572503Y-76911408D01*
X132097580Y-76910993D01*
X131658650Y-77092355D01*
X131322536Y-77427884D01*
X131140408Y-77866497D01*
X131139993Y-78341420D01*
X130968755Y-78341420D01*
X131006369Y-78213211D01*
X130955494Y-77741021D01*
X130872672Y-77541072D01*
X130712122Y-77438325D01*
X130045447Y-78105000D01*
X129542553Y-78105000D01*
X129542553Y-78105000D01*
X128875878Y-77438325D01*
X128715328Y-77541072D01*
X128581631Y-77996789D01*
X111403200Y-77996789D01*
X111403200Y-73430200D01*
X125218851Y-73430200D01*
X124901669Y-73561257D01*
G36*
X112749969Y-81490519D02*
X112547032Y-81979246D01*
X112546570Y-82508432D01*
X112748654Y-82997513D01*
X113122519Y-83372031D01*
X113611246Y-83574968D01*
X114140432Y-83575430D01*
X114140896Y-83575238D01*
X114360432Y-83575430D01*
X114360896Y-83575238D01*
X114580432Y-83575430D01*
X114580896Y-83575238D01*
X114800432Y-83575430D01*
X114800896Y-83575238D01*
X115020432Y-83575430D01*
X115020896Y-83575238D01*
X115240432Y-83575430D01*
X115240896Y-83575238D01*
X115366800Y-83575348D01*
X115366800Y-84852803D01*
X115261407Y-84809040D01*
X114941078Y-84808760D01*
X114645027Y-84931086D01*
X114418323Y-85157395D01*
X114295480Y-85453233D01*
X114295200Y-85773562D01*
X114295331Y-85773879D01*
X114295200Y-85923562D01*
X114295331Y-85923879D01*
X114295200Y-86073562D01*
X114329593Y-86156800D01*
X113919000Y-86156800D01*
X113889840Y-86162600D01*
X113865118Y-86179118D01*
X113848600Y-86203840D01*
X113842800Y-86233000D01*
X113842800Y-90297000D01*
X113848600Y-90326160D01*
X113865118Y-90350882D01*
X113889840Y-90367400D01*
X113919000Y-90373200D01*
X114328713Y-90373200D01*
X114295480Y-90453233D01*
X114295200Y-90773562D01*
X114295331Y-90773879D01*
X114295200Y-90923562D01*
X114295331Y-90923879D01*
X114295200Y-91073562D01*
X114417526Y-91369613D01*
X114643835Y-91596317D01*
X114939673Y-91719160D01*
X115260002Y-91719440D01*
X115366800Y-91675312D01*
X115366800Y-92954948D01*
X114933568Y-92954570D01*
X114933104Y-92954762D01*
X114713568Y-92954570D01*
X114713104Y-92954762D01*
X114493568Y-92954570D01*
X114493104Y-92954762D01*
X114273568Y-92954570D01*
X114273104Y-92954762D01*
X114053568Y-92954570D01*
X114053104Y-92954762D01*
X113833568Y-92954570D01*
X113833104Y-92954762D01*
X113613568Y-92954570D01*
X113124487Y-93156654D01*
X112749969Y-93530519D01*
X112547032Y-94019246D01*
X112546570Y-94548432D01*
X112748654Y-95037513D01*
X112884703Y-95173800D01*
X111403200Y-95173800D01*
X111403200Y-92265692D01*
X111604655Y-92467499D01*
X111909678Y-92594156D01*
X112239953Y-92594444D01*
X112240295Y-92594303D01*
X112402453Y-92594444D01*
X112402795Y-92594303D01*
X112564953Y-92594444D01*
X112565300Y-92594300D01*
X112729953Y-92594444D01*
X112730300Y-92594300D01*
X112894953Y-92594444D01*
X113200196Y-92468320D01*
X113433939Y-92234985D01*
X113560596Y-91929962D01*
X113560884Y-91599687D01*
X113434760Y-91294444D01*
X113201425Y-91060701D01*
X112896402Y-90934044D01*
X112566127Y-90933756D01*
X112565780Y-90933900D01*
X112401127Y-90933756D01*
X112400780Y-90933900D01*
X112236127Y-90933756D01*
X112235785Y-90933897D01*
X112073627Y-90933756D01*
X112073285Y-90933897D01*
X111911127Y-90933756D01*
X111605884Y-91059880D01*
X111403200Y-91262210D01*
X111403200Y-85265692D01*
X111604655Y-85467499D01*
X111909678Y-85594156D01*
X112239953Y-85594444D01*
X112240295Y-85594303D01*
X112402453Y-85594444D01*
X112402795Y-85594303D01*
X112564953Y-85594444D01*
X112565295Y-85594303D01*
X112727453Y-85594444D01*
X112727795Y-85594303D01*
X112889953Y-85594444D01*
X113195196Y-85468320D01*
X113428939Y-85234985D01*
X113555596Y-84929962D01*
X113555884Y-84599687D01*
X113429760Y-84294444D01*
X113196425Y-84060701D01*
X112891402Y-83934044D01*
X112561127Y-83933756D01*
X112560785Y-83933897D01*
X112398627Y-83933756D01*
X112398285Y-83933897D01*
X112236127Y-83933756D01*
X112235785Y-83933897D01*
X112073627Y-83933756D01*
X112073285Y-83933897D01*
X111911127Y-83933756D01*
X111605884Y-84059880D01*
X111403200Y-84262210D01*
X111403200Y-81356200D01*
X112884523Y-81356200D01*
X112749969Y-81490519D01*
X112749969Y-81490519D01*
G37*
X112749969Y-81490519D02*
X112547032Y-81979246D01*
X112546570Y-82508432D01*
X112748654Y-82997513D01*
X113122519Y-83372031D01*
X113611246Y-83574968D01*
X114140432Y-83575430D01*
X114140896Y-83575238D01*
X114360432Y-83575430D01*
X114360896Y-83575238D01*
X114580432Y-83575430D01*
X114580896Y-83575238D01*
X114800432Y-83575430D01*
X114800896Y-83575238D01*
X115020432Y-83575430D01*
X115020896Y-83575238D01*
X115240432Y-83575430D01*
X115240896Y-83575238D01*
X115366800Y-83575348D01*
X115366800Y-84852803D01*
X115261407Y-84809040D01*
X114941078Y-84808760D01*
X114645027Y-84931086D01*
X114418323Y-85157395D01*
X114295480Y-85453233D01*
X114295200Y-85773562D01*
X114295331Y-85773879D01*
X114295200Y-85923562D01*
X114295331Y-85923879D01*
X114295200Y-86073562D01*
X114329593Y-86156800D01*
X113919000Y-86156800D01*
X113889840Y-86162600D01*
X113865118Y-86179118D01*
X113848600Y-86203840D01*
X113842800Y-86233000D01*
X113842800Y-90297000D01*
X113848600Y-90326160D01*
X113865118Y-90350882D01*
X113889840Y-90367400D01*
X113919000Y-90373200D01*
X114328713Y-90373200D01*
X114295480Y-90453233D01*
X114295200Y-90773562D01*
X114295331Y-90773879D01*
X114295200Y-90923562D01*
X114295331Y-90923879D01*
X114295200Y-91073562D01*
X114417526Y-91369613D01*
X114643835Y-91596317D01*
X114939673Y-91719160D01*
X115260002Y-91719440D01*
X115366800Y-91675312D01*
X115366800Y-92954948D01*
X114933568Y-92954570D01*
X114933104Y-92954762D01*
X114713568Y-92954570D01*
X114713104Y-92954762D01*
X114493568Y-92954570D01*
X114493104Y-92954762D01*
X114273568Y-92954570D01*
X114273104Y-92954762D01*
X114053568Y-92954570D01*
X114053104Y-92954762D01*
X113833568Y-92954570D01*
X113833104Y-92954762D01*
X113613568Y-92954570D01*
X113124487Y-93156654D01*
X112749969Y-93530519D01*
X112547032Y-94019246D01*
X112546570Y-94548432D01*
X112748654Y-95037513D01*
X112884703Y-95173800D01*
X111403200Y-95173800D01*
X111403200Y-92265692D01*
X111604655Y-92467499D01*
X111909678Y-92594156D01*
X112239953Y-92594444D01*
X112240295Y-92594303D01*
X112402453Y-92594444D01*
X112402795Y-92594303D01*
X112564953Y-92594444D01*
X112565300Y-92594300D01*
X112729953Y-92594444D01*
X112730300Y-92594300D01*
X112894953Y-92594444D01*
X113200196Y-92468320D01*
X113433939Y-92234985D01*
X113560596Y-91929962D01*
X113560884Y-91599687D01*
X113434760Y-91294444D01*
X113201425Y-91060701D01*
X112896402Y-90934044D01*
X112566127Y-90933756D01*
X112565780Y-90933900D01*
X112401127Y-90933756D01*
X112400780Y-90933900D01*
X112236127Y-90933756D01*
X112235785Y-90933897D01*
X112073627Y-90933756D01*
X112073285Y-90933897D01*
X111911127Y-90933756D01*
X111605884Y-91059880D01*
X111403200Y-91262210D01*
X111403200Y-85265692D01*
X111604655Y-85467499D01*
X111909678Y-85594156D01*
X112239953Y-85594444D01*
X112240295Y-85594303D01*
X112402453Y-85594444D01*
X112402795Y-85594303D01*
X112564953Y-85594444D01*
X112565295Y-85594303D01*
X112727453Y-85594444D01*
X112727795Y-85594303D01*
X112889953Y-85594444D01*
X113195196Y-85468320D01*
X113428939Y-85234985D01*
X113555596Y-84929962D01*
X113555884Y-84599687D01*
X113429760Y-84294444D01*
X113196425Y-84060701D01*
X112891402Y-83934044D01*
X112561127Y-83933756D01*
X112560785Y-83933897D01*
X112398627Y-83933756D01*
X112398285Y-83933897D01*
X112236127Y-83933756D01*
X112235785Y-83933897D01*
X112073627Y-83933756D01*
X112073285Y-83933897D01*
X111911127Y-83933756D01*
X111605884Y-84059880D01*
X111403200Y-84262210D01*
X111403200Y-81356200D01*
X112884523Y-81356200D01*
X112749969Y-81490519D01*
D23*
G36*
X161798000Y-111558605D02*
X161798000Y-113659934D01*
X161747319Y-113781987D01*
X161747081Y-114054816D01*
X161798000Y-114178049D01*
X161798000Y-114553994D01*
X161797999Y-114554000D01*
X161807667Y-114602601D01*
X161835197Y-114643803D01*
X165010197Y-117818803D01*
X165051399Y-117846333D01*
X165100000Y-117856001D01*
X165100000Y-117856000D01*
X171143394Y-117856000D01*
X173655164Y-120367770D01*
X173443495Y-120579070D01*
X173371797Y-120751739D01*
X173264516Y-120492741D01*
X173011805Y-120410800D01*
X172137605Y-121285000D01*
X173011805Y-122159200D01*
X173264516Y-122077259D01*
X173364772Y-121801542D01*
X173442264Y-121989088D01*
X173792070Y-122339505D01*
X174249348Y-122529383D01*
X174744480Y-122529815D01*
X175202088Y-122340736D01*
X175415295Y-122127900D01*
X176657000Y-123369605D01*
X176657000Y-123590199D01*
X176616711Y-123650496D01*
X176582000Y-123825000D01*
X176582000Y-125909000D01*
X159004000Y-125909000D01*
X159004000Y-124071480D01*
X160553185Y-124071480D01*
X160742264Y-124529088D01*
X161092070Y-124879505D01*
X161549348Y-125069383D01*
X162044480Y-125069815D01*
X162502088Y-124880736D01*
X162852505Y-124530930D01*
X163042383Y-124073652D01*
X163042384Y-124071480D01*
X163093185Y-124071480D01*
X163282264Y-124529088D01*
X163632070Y-124879505D01*
X164089348Y-125069383D01*
X164584480Y-125069815D01*
X165042088Y-124880736D01*
X165392505Y-124530930D01*
X165582383Y-124073652D01*
X165582384Y-124071480D01*
X165633185Y-124071480D01*
X165822264Y-124529088D01*
X166172070Y-124879505D01*
X166629348Y-125069383D01*
X167124480Y-125069815D01*
X167582088Y-124880736D01*
X167932505Y-124530930D01*
X168122383Y-124073652D01*
X168122384Y-124071480D01*
X168173185Y-124071480D01*
X168362264Y-124529088D01*
X168712070Y-124879505D01*
X169169348Y-125069383D01*
X169664480Y-125069815D01*
X170122088Y-124880736D01*
X170472505Y-124530930D01*
X170662383Y-124073652D01*
X170662384Y-124071480D01*
X170713185Y-124071480D01*
X170902264Y-124529088D01*
X171252070Y-124879505D01*
X171709348Y-125069383D01*
X172204480Y-125069815D01*
X172662088Y-124880736D01*
X173012505Y-124530930D01*
X173202383Y-124073652D01*
X173202384Y-124071480D01*
X173253185Y-124071480D01*
X173442264Y-124529088D01*
X173792070Y-124879505D01*
X174249348Y-125069383D01*
X174744480Y-125069815D01*
X175202088Y-124880736D01*
X175552505Y-124530930D01*
X175742383Y-124073652D01*
X175742815Y-123578520D01*
X175553736Y-123120912D01*
X175203930Y-122770495D01*
X174746652Y-122580617D01*
X174251520Y-122580185D01*
X173793912Y-122769264D01*
X173443495Y-123119070D01*
X173253617Y-123576348D01*
X173253185Y-124071480D01*
X173202384Y-124071480D01*
X173202815Y-123578520D01*
X173013736Y-123120912D01*
X172663930Y-122770495D01*
X172491261Y-122698797D01*
X172750259Y-122591516D01*
X172832200Y-122338805D01*
X171958000Y-121464605D01*
X171083800Y-122338805D01*
X171165741Y-122591516D01*
X171441458Y-122691772D01*
X171253912Y-122769264D01*
X170903495Y-123119070D01*
X170713617Y-123576348D01*
X170713185Y-124071480D01*
X170662384Y-124071480D01*
X170662815Y-123578520D01*
X170473736Y-123120912D01*
X170123930Y-122770495D01*
X169666652Y-122580617D01*
X169171520Y-122580185D01*
X168713912Y-122769264D01*
X168363495Y-123119070D01*
X168173617Y-123576348D01*
X168173185Y-124071480D01*
X168122384Y-124071480D01*
X168122815Y-123578520D01*
X167933736Y-123120912D01*
X167583930Y-122770495D01*
X167126652Y-122580617D01*
X166631520Y-122580185D01*
X166173912Y-122769264D01*
X165823495Y-123119070D01*
X165633617Y-123576348D01*
X165633185Y-124071480D01*
X165582384Y-124071480D01*
X165582815Y-123578520D01*
X165393736Y-123120912D01*
X165043930Y-122770495D01*
X164586652Y-122580617D01*
X164091520Y-122580185D01*
X163633912Y-122769264D01*
X163283495Y-123119070D01*
X163093617Y-123576348D01*
X163093185Y-124071480D01*
X163042384Y-124071480D01*
X163042815Y-123578520D01*
X162853736Y-123120912D01*
X162503930Y-122770495D01*
X162046652Y-122580617D01*
X161551520Y-122580185D01*
X161093912Y-122769264D01*
X160743495Y-123119070D01*
X160553617Y-123576348D01*
X160553185Y-124071480D01*
X159004000Y-124071480D01*
X159004000Y-120904000D01*
X159004001Y-120904000D01*
X158994333Y-120855399D01*
X158966803Y-120814198D01*
X158966803Y-120814197D01*
X158966799Y-120814194D01*
X157188803Y-119036197D01*
X157147601Y-119008667D01*
X157099000Y-118998999D01*
X157098994Y-118999000D01*
X154484605Y-118999000D01*
X153858422Y-118372816D01*
X160223081Y-118372816D01*
X160327268Y-118624967D01*
X160520018Y-118818054D01*
X160771987Y-118922681D01*
X160948257Y-118922835D01*
X161340800Y-119315378D01*
X161340800Y-120127252D01*
X161093912Y-120229264D01*
X160743495Y-120579070D01*
X160553617Y-121036348D01*
X160553185Y-121531480D01*
X160742264Y-121989088D01*
X161092070Y-122339505D01*
X161549348Y-122529383D01*
X162044480Y-122529815D01*
X162502088Y-122340736D01*
X162852505Y-121990930D01*
X163042383Y-121533652D01*
X163042815Y-121038520D01*
X162853736Y-120580912D01*
X162503930Y-120230495D01*
X162255200Y-120127214D01*
X162255200Y-119126000D01*
X162220398Y-118951037D01*
X162121289Y-118802711D01*
X161691394Y-118372816D01*
X161874081Y-118372816D01*
X161978268Y-118624967D01*
X162171018Y-118818054D01*
X162422987Y-118922681D01*
X162599257Y-118922835D01*
X162610800Y-118934378D01*
X162610800Y-120015000D01*
X162645602Y-120189963D01*
X162744711Y-120338289D01*
X163196060Y-120789638D01*
X163093617Y-121036348D01*
X163093185Y-121531480D01*
X163282264Y-121989088D01*
X163632070Y-122339505D01*
X164089348Y-122529383D01*
X164584480Y-122529815D01*
X165042088Y-122340736D01*
X165392505Y-121990930D01*
X165582383Y-121533652D01*
X165582384Y-121531480D01*
X165633185Y-121531480D01*
X165822264Y-121989088D01*
X166172070Y-122339505D01*
X166629348Y-122529383D01*
X167124480Y-122529815D01*
X167582088Y-122340736D01*
X167932505Y-121990930D01*
X168122383Y-121533652D01*
X168122384Y-121531480D01*
X168173185Y-121531480D01*
X168362264Y-121989088D01*
X168712070Y-122339505D01*
X169169348Y-122529383D01*
X169664480Y-122529815D01*
X170122088Y-122340736D01*
X170472505Y-121990930D01*
X170544203Y-121818261D01*
X170651484Y-122077259D01*
X170904195Y-122159200D01*
X171778395Y-121285000D01*
X170904195Y-120410800D01*
X170651484Y-120492741D01*
X170551228Y-120768458D01*
X170473736Y-120580912D01*
X170124629Y-120231195D01*
X171083800Y-120231195D01*
X171958000Y-121105395D01*
X172832200Y-120231195D01*
X172750259Y-119978484D01*
X172189970Y-119774752D01*
X171594365Y-119800942D01*
X171165741Y-119978484D01*
X171083800Y-120231195D01*
X170124629Y-120231195D01*
X170123930Y-120230495D01*
X169666652Y-120040617D01*
X169171520Y-120040185D01*
X168713912Y-120229264D01*
X168363495Y-120579070D01*
X168173617Y-121036348D01*
X168173185Y-121531480D01*
X168122384Y-121531480D01*
X168122815Y-121038520D01*
X167933736Y-120580912D01*
X167583930Y-120230495D01*
X167126652Y-120040617D01*
X166631520Y-120040185D01*
X166173912Y-120229264D01*
X165823495Y-120579070D01*
X165633617Y-121036348D01*
X165633185Y-121531480D01*
X165582384Y-121531480D01*
X165582815Y-121038520D01*
X165393736Y-120580912D01*
X165043930Y-120230495D01*
X164586652Y-120040617D01*
X164091520Y-120040185D01*
X163842610Y-120143032D01*
X163525200Y-119825622D01*
X163525200Y-118745000D01*
X163490398Y-118570037D01*
X163391289Y-118421711D01*
X163245766Y-118276188D01*
X163245919Y-118101184D01*
X163141732Y-117849033D01*
X162948982Y-117655946D01*
X162697013Y-117551319D01*
X162424184Y-117551081D01*
X162172033Y-117655268D01*
X161978946Y-117848018D01*
X161874319Y-118099987D01*
X161874081Y-118372816D01*
X161691394Y-118372816D01*
X161594766Y-118276188D01*
X161594919Y-118101184D01*
X161490732Y-117849033D01*
X161297982Y-117655946D01*
X161046013Y-117551319D01*
X160773184Y-117551081D01*
X160521033Y-117655268D01*
X160327946Y-117848018D01*
X160223319Y-118099987D01*
X160223081Y-118372816D01*
X153858422Y-118372816D01*
X153505803Y-118020197D01*
X153464601Y-117992667D01*
X153416000Y-117982999D01*
X153415994Y-117983000D01*
X149150605Y-117983000D01*
X144907000Y-113739394D01*
X144907000Y-111431605D01*
X146102605Y-110236000D01*
X160475394Y-110236000D01*
X161798000Y-111558605D01*
X161798000Y-111558605D01*
G37*
X161798000Y-111558605D02*
X161798000Y-113659934D01*
X161747319Y-113781987D01*
X161747081Y-114054816D01*
X161798000Y-114178049D01*
X161798000Y-114553994D01*
X161797999Y-114554000D01*
X161807667Y-114602601D01*
X161835197Y-114643803D01*
X165010197Y-117818803D01*
X165051399Y-117846333D01*
X165100000Y-117856001D01*
X165100000Y-117856000D01*
X171143394Y-117856000D01*
X173655164Y-120367770D01*
X173443495Y-120579070D01*
X173371797Y-120751739D01*
X173264516Y-120492741D01*
X173011805Y-120410800D01*
X172137605Y-121285000D01*
X173011805Y-122159200D01*
X173264516Y-122077259D01*
X173364772Y-121801542D01*
X173442264Y-121989088D01*
X173792070Y-122339505D01*
X174249348Y-122529383D01*
X174744480Y-122529815D01*
X175202088Y-122340736D01*
X175415295Y-122127900D01*
X176657000Y-123369605D01*
X176657000Y-123590199D01*
X176616711Y-123650496D01*
X176582000Y-123825000D01*
X176582000Y-125909000D01*
X159004000Y-125909000D01*
X159004000Y-124071480D01*
X160553185Y-124071480D01*
X160742264Y-124529088D01*
X161092070Y-124879505D01*
X161549348Y-125069383D01*
X162044480Y-125069815D01*
X162502088Y-124880736D01*
X162852505Y-124530930D01*
X163042383Y-124073652D01*
X163042384Y-124071480D01*
X163093185Y-124071480D01*
X163282264Y-124529088D01*
X163632070Y-124879505D01*
X164089348Y-125069383D01*
X164584480Y-125069815D01*
X165042088Y-124880736D01*
X165392505Y-124530930D01*
X165582383Y-124073652D01*
X165582384Y-124071480D01*
X165633185Y-124071480D01*
X165822264Y-124529088D01*
X166172070Y-124879505D01*
X166629348Y-125069383D01*
X167124480Y-125069815D01*
X167582088Y-124880736D01*
X167932505Y-124530930D01*
X168122383Y-124073652D01*
X168122384Y-124071480D01*
X168173185Y-124071480D01*
X168362264Y-124529088D01*
X168712070Y-124879505D01*
X169169348Y-125069383D01*
X169664480Y-125069815D01*
X170122088Y-124880736D01*
X170472505Y-124530930D01*
X170662383Y-124073652D01*
X170662384Y-124071480D01*
X170713185Y-124071480D01*
X170902264Y-124529088D01*
X171252070Y-124879505D01*
X171709348Y-125069383D01*
X172204480Y-125069815D01*
X172662088Y-124880736D01*
X173012505Y-124530930D01*
X173202383Y-124073652D01*
X173202384Y-124071480D01*
X173253185Y-124071480D01*
X173442264Y-124529088D01*
X173792070Y-124879505D01*
X174249348Y-125069383D01*
X174744480Y-125069815D01*
X175202088Y-124880736D01*
X175552505Y-124530930D01*
X175742383Y-124073652D01*
X175742815Y-123578520D01*
X175553736Y-123120912D01*
X175203930Y-122770495D01*
X174746652Y-122580617D01*
X174251520Y-122580185D01*
X173793912Y-122769264D01*
X173443495Y-123119070D01*
X173253617Y-123576348D01*
X173253185Y-124071480D01*
X173202384Y-124071480D01*
X173202815Y-123578520D01*
X173013736Y-123120912D01*
X172663930Y-122770495D01*
X172491261Y-122698797D01*
X172750259Y-122591516D01*
X172832200Y-122338805D01*
X171958000Y-121464605D01*
X171083800Y-122338805D01*
X171165741Y-122591516D01*
X171441458Y-122691772D01*
X171253912Y-122769264D01*
X170903495Y-123119070D01*
X170713617Y-123576348D01*
X170713185Y-124071480D01*
X170662384Y-124071480D01*
X170662815Y-123578520D01*
X170473736Y-123120912D01*
X170123930Y-122770495D01*
X169666652Y-122580617D01*
X169171520Y-122580185D01*
X168713912Y-122769264D01*
X168363495Y-123119070D01*
X168173617Y-123576348D01*
X168173185Y-124071480D01*
X168122384Y-124071480D01*
X168122815Y-123578520D01*
X167933736Y-123120912D01*
X167583930Y-122770495D01*
X167126652Y-122580617D01*
X166631520Y-122580185D01*
X166173912Y-122769264D01*
X165823495Y-123119070D01*
X165633617Y-123576348D01*
X165633185Y-124071480D01*
X165582384Y-124071480D01*
X165582815Y-123578520D01*
X165393736Y-123120912D01*
X165043930Y-122770495D01*
X164586652Y-122580617D01*
X164091520Y-122580185D01*
X163633912Y-122769264D01*
X163283495Y-123119070D01*
X163093617Y-123576348D01*
X163093185Y-124071480D01*
X163042384Y-124071480D01*
X163042815Y-123578520D01*
X162853736Y-123120912D01*
X162503930Y-122770495D01*
X162046652Y-122580617D01*
X161551520Y-122580185D01*
X161093912Y-122769264D01*
X160743495Y-123119070D01*
X160553617Y-123576348D01*
X160553185Y-124071480D01*
X159004000Y-124071480D01*
X159004000Y-120904000D01*
X159004001Y-120904000D01*
X158994333Y-120855399D01*
X158966803Y-120814198D01*
X158966803Y-120814197D01*
X158966799Y-120814194D01*
X157188803Y-119036197D01*
X157147601Y-119008667D01*
X157099000Y-118998999D01*
X157098994Y-118999000D01*
X154484605Y-118999000D01*
X153858422Y-118372816D01*
X160223081Y-118372816D01*
X160327268Y-118624967D01*
X160520018Y-118818054D01*
X160771987Y-118922681D01*
X160948257Y-118922835D01*
X161340800Y-119315378D01*
X161340800Y-120127252D01*
X161093912Y-120229264D01*
X160743495Y-120579070D01*
X160553617Y-121036348D01*
X160553185Y-121531480D01*
X160742264Y-121989088D01*
X161092070Y-122339505D01*
X161549348Y-122529383D01*
X162044480Y-122529815D01*
X162502088Y-122340736D01*
X162852505Y-121990930D01*
X163042383Y-121533652D01*
X163042815Y-121038520D01*
X162853736Y-120580912D01*
X162503930Y-120230495D01*
X162255200Y-120127214D01*
X162255200Y-119126000D01*
X162220398Y-118951037D01*
X162121289Y-118802711D01*
X161691394Y-118372816D01*
X161874081Y-118372816D01*
X161978268Y-118624967D01*
X162171018Y-118818054D01*
X162422987Y-118922681D01*
X162599257Y-118922835D01*
X162610800Y-118934378D01*
X162610800Y-120015000D01*
X162645602Y-120189963D01*
X162744711Y-120338289D01*
X163196060Y-120789638D01*
X163093617Y-121036348D01*
X163093185Y-121531480D01*
X163282264Y-121989088D01*
X163632070Y-122339505D01*
X164089348Y-122529383D01*
X164584480Y-122529815D01*
X165042088Y-122340736D01*
X165392505Y-121990930D01*
X165582383Y-121533652D01*
X165582384Y-121531480D01*
X165633185Y-121531480D01*
X165822264Y-121989088D01*
X166172070Y-122339505D01*
X166629348Y-122529383D01*
X167124480Y-122529815D01*
X167582088Y-122340736D01*
X167932505Y-121990930D01*
X168122383Y-121533652D01*
X168122384Y-121531480D01*
X168173185Y-121531480D01*
X168362264Y-121989088D01*
X168712070Y-122339505D01*
X169169348Y-122529383D01*
X169664480Y-122529815D01*
X170122088Y-122340736D01*
X170472505Y-121990930D01*
X170544203Y-121818261D01*
X170651484Y-122077259D01*
X170904195Y-122159200D01*
X171778395Y-121285000D01*
X170904195Y-120410800D01*
X170651484Y-120492741D01*
X170551228Y-120768458D01*
X170473736Y-120580912D01*
X170124629Y-120231195D01*
X171083800Y-120231195D01*
X171958000Y-121105395D01*
X172832200Y-120231195D01*
X172750259Y-119978484D01*
X172189970Y-119774752D01*
X171594365Y-119800942D01*
X171165741Y-119978484D01*
X171083800Y-120231195D01*
X170124629Y-120231195D01*
X170123930Y-120230495D01*
X169666652Y-120040617D01*
X169171520Y-120040185D01*
X168713912Y-120229264D01*
X168363495Y-120579070D01*
X168173617Y-121036348D01*
X168173185Y-121531480D01*
X168122384Y-121531480D01*
X168122815Y-121038520D01*
X167933736Y-120580912D01*
X167583930Y-120230495D01*
X167126652Y-120040617D01*
X166631520Y-120040185D01*
X166173912Y-120229264D01*
X165823495Y-120579070D01*
X165633617Y-121036348D01*
X165633185Y-121531480D01*
X165582384Y-121531480D01*
X165582815Y-121038520D01*
X165393736Y-120580912D01*
X165043930Y-120230495D01*
X164586652Y-120040617D01*
X164091520Y-120040185D01*
X163842610Y-120143032D01*
X163525200Y-119825622D01*
X163525200Y-118745000D01*
X163490398Y-118570037D01*
X163391289Y-118421711D01*
X163245766Y-118276188D01*
X163245919Y-118101184D01*
X163141732Y-117849033D01*
X162948982Y-117655946D01*
X162697013Y-117551319D01*
X162424184Y-117551081D01*
X162172033Y-117655268D01*
X161978946Y-117848018D01*
X161874319Y-118099987D01*
X161874081Y-118372816D01*
X161691394Y-118372816D01*
X161594766Y-118276188D01*
X161594919Y-118101184D01*
X161490732Y-117849033D01*
X161297982Y-117655946D01*
X161046013Y-117551319D01*
X160773184Y-117551081D01*
X160521033Y-117655268D01*
X160327946Y-117848018D01*
X160223319Y-118099987D01*
X160223081Y-118372816D01*
X153858422Y-118372816D01*
X153505803Y-118020197D01*
X153464601Y-117992667D01*
X153416000Y-117982999D01*
X153415994Y-117983000D01*
X149150605Y-117983000D01*
X144907000Y-113739394D01*
X144907000Y-111431605D01*
X146102605Y-110236000D01*
X160475394Y-110236000D01*
X161798000Y-111558605D01*
M02*
