M48
;DRILL file {KiCad (2015-07-08 BZR 5908, Git 901e961)-product} date 07/12/2015 20:42:11
;FORMAT={-:-/ absolute / metric / decimal}
FMAT,2
METRIC,TZ
T1C0.305
T2C0.500
T3C0.550
T4C0.762
T5C0.813
T6C1.000
T7C1.016
T8C3.048
%
G90
G05
M71
T1
X112.522Y-97.536
X113.03Y-101.727
X113.284Y-108.839
X114.681Y-78.994
X117.348Y-100.076
X118.491Y-108.331
X119.888Y-83.058
X120.015Y-78.994
X121.666Y-108.331
X122.301Y-85.725
X122.301Y-87.63
X122.301Y-92.71
X122.682Y-89.281
X122.809Y-109.347
X123.063Y-95.631
X123.952Y-118.237
X124.333Y-112.903
X124.841Y-80.645
X124.968Y-98.425
X125.73Y-97.282
X126.746Y-83.058
X127.Y-108.585
X127.Y-119.38
X127.254Y-90.678
X127.635Y-85.725
X128.27Y-110.363
X128.524Y-88.011
X128.524Y-91.821
X128.524Y-94.488
X128.524Y-95.885
X128.524Y-96.901
X128.778Y-113.03
X129.413Y-122.555
X130.937Y-108.204
X131.064Y-84.709
X131.064Y-89.281
X131.064Y-96.266
X131.064Y-99.187
X131.572Y-99.822
X131.699Y-88.646
X132.08Y-100.457
X132.588Y-101.092
X132.842Y-117.348
X133.731Y-88.011
X134.239Y-107.061
X135.128Y-103.251
X135.89Y-103.886
X136.271Y-110.363
X136.398Y-99.568
X136.525Y-93.853
X136.525Y-98.425
X136.906Y-100.203
X137.16Y-94.361
X137.287Y-84.963
X137.287Y-86.106
X137.414Y-98.425
X137.414Y-100.838
X137.668Y-105.664
X137.795Y-94.869
X137.922Y-85.471
X137.922Y-86.741
X137.922Y-101.473
X140.462Y-94.234
X141.351Y-104.775
X141.351Y-106.68
X141.478Y-108.712
X141.478Y-110.236
X141.478Y-110.998
X141.478Y-114.427
X141.478Y-115.189
X142.113Y-100.076
X142.24Y-89.916
X143.383Y-83.693
X144.018Y-113.538
X144.145Y-100.076
X144.526Y-90.932
X144.653Y-83.693
X145.288Y-113.538
X145.923Y-83.693
X146.558Y-113.538
X147.32Y-110.617
X147.447Y-103.632
X147.447Y-106.68
X147.701Y-101.981
X147.828Y-113.538
X148.59Y-89.154
X148.59Y-91.313
X149.098Y-94.742
X149.098Y-113.538
X149.479Y-91.313
X149.86Y-94.361
X149.86Y-107.061
X150.114Y-86.614
X150.368Y-113.538
X150.622Y-93.98
X151.384Y-93.599
X151.638Y-113.538
X152.908Y-113.462
X153.543Y-90.551
X153.67Y-85.344
X153.67Y-86.36
X154.178Y-113.538
X155.448Y-113.538
X155.575Y-103.886
X156.337Y-103.251
X156.718Y-95.25
X156.718Y-101.981
X156.718Y-113.538
X157.099Y-104.521
X157.861Y-103.251
X157.988Y-113.538
X158.115Y-107.315
X159.004Y-107.315
X159.766Y-107.315
X160.02Y-92.075
X160.528Y-85.852
X160.528Y-107.315
X160.655Y-95.631
X160.909Y-118.237
X161.417Y-111.633
X161.544Y-92.71
X162.433Y-113.919
X162.56Y-101.6
X162.56Y-118.237
X163.322Y-96.901
X163.449Y-101.219
X163.957Y-96.266
X163.957Y-97.536
X164.338Y-101.219
X164.465Y-107.696
X164.592Y-95.631
X164.592Y-98.171
X164.973Y-112.903
X165.227Y-94.996
X165.227Y-98.806
X165.227Y-101.219
X165.735Y-104.521
X165.862Y-99.441
X165.989Y-91.567
X165.989Y-94.107
X166.243Y-112.903
X167.513Y-112.903
X168.148Y-83.058
X168.656Y-89.916
X169.291Y-116.078
X169.926Y-97.917
X169.926Y-98.933
X169.926Y-100.33
X170.688Y-93.599
X171.323Y-102.235
X171.704Y-97.282
X171.958Y-94.488
X172.847Y-106.553
X176.149Y-110.49
T2
X112.076Y-84.764
X112.076Y-91.764
X112.238Y-84.764
X112.238Y-91.764
X112.401Y-84.764
X112.401Y-91.764
X112.563Y-84.764
X112.566Y-91.764
X112.726Y-84.764
X112.731Y-91.764
T3
X115.101Y-85.614
X115.101Y-85.764
X115.101Y-85.914
X115.101Y-90.614
X115.101Y-90.764
X115.101Y-90.914
T4
X129.794Y-75.565
X129.794Y-78.105
X132.334Y-75.565
X132.334Y-78.105
X134.874Y-75.565
X134.874Y-78.105
X137.414Y-75.565
X137.414Y-78.105
X138.938Y-121.285
X138.938Y-123.825
X139.954Y-75.565
X139.954Y-78.105
X141.478Y-121.285
X141.478Y-123.825
X142.494Y-75.565
X142.494Y-78.105
X144.018Y-121.285
X144.018Y-123.825
X145.034Y-75.565
X145.034Y-78.105
X146.558Y-121.285
X146.558Y-123.825
X147.574Y-75.565
X147.574Y-78.105
X149.098Y-121.285
X149.098Y-123.825
X150.114Y-75.565
X150.114Y-78.105
X151.638Y-121.285
X151.638Y-123.825
X152.654Y-75.565
X152.654Y-78.105
X154.178Y-121.285
X154.178Y-123.825
X156.718Y-75.565
X156.718Y-78.105
X156.718Y-121.285
X156.718Y-123.825
X159.258Y-75.565
X159.258Y-78.105
X161.798Y-75.565
X161.798Y-78.105
X161.798Y-121.285
X161.798Y-123.825
X164.338Y-75.565
X164.338Y-78.105
X164.338Y-121.285
X164.338Y-123.825
X166.878Y-75.565
X166.878Y-78.105
X166.878Y-121.285
X166.878Y-123.825
X169.418Y-75.565
X169.418Y-78.105
X169.418Y-121.285
X169.418Y-123.825
X171.958Y-75.565
X171.958Y-78.105
X171.958Y-121.285
X171.958Y-123.825
X174.498Y-75.565
X174.498Y-78.105
X174.498Y-121.285
X174.498Y-123.825
T5
X117.253Y-86.995
X117.253Y-89.535
X119.252Y-86.995
X119.252Y-89.535
T6
X113.893Y-82.266
X113.893Y-94.264
X114.113Y-82.266
X114.113Y-94.264
X114.333Y-82.266
X114.333Y-94.264
X114.553Y-82.266
X114.553Y-94.264
X114.773Y-82.266
X114.773Y-94.264
X114.993Y-82.266
X114.993Y-94.264
X115.009Y-117.745
X115.009Y-117.995
X115.009Y-118.245
X115.009Y-118.495
X115.009Y-118.745
X115.009Y-118.995
X115.009Y-119.245
X115.009Y-119.495
X115.009Y-119.745
X115.213Y-82.266
X115.213Y-94.264
X117.008Y-123.444
X117.258Y-123.444
X117.508Y-123.444
X117.758Y-123.444
X118.008Y-123.444
X118.258Y-123.444
X118.508Y-123.444
X118.758Y-123.444
X119.008Y-123.444
X121.008Y-117.745
X121.008Y-117.995
X121.008Y-118.245
X121.008Y-118.495
X121.008Y-118.745
X121.008Y-118.995
X121.008Y-119.245
X121.008Y-119.495
X121.008Y-119.745
T7
X117.475Y-116.205
X117.475Y-121.285
X174.625Y-95.885
X174.625Y-98.425
X174.625Y-100.965
X174.625Y-103.505
X174.625Y-106.045
X177.165Y-95.885
X177.165Y-98.425
X177.165Y-100.965
X177.165Y-103.505
X177.165Y-106.045
T8
X124.968Y-123.825
X126.238Y-75.565
X177.038Y-90.805
X177.038Y-118.745
T0
M30
