G04 #@! TF.FileFunction,Legend,Top*
%FSLAX46Y46*%
G04 Gerber Fmt 4.6, Leading zero omitted, Abs format (unit mm)*
G04 Created by KiCad (PCBNEW (2015-07-11 BZR 5925, Git c291b88)-product) date 22/08/2015 23:31:56*
%MOMM*%
G01*
G04 APERTURE LIST*
%ADD10C,0.100000*%
%ADD11C,0.150000*%
%ADD12C,0.254000*%
%ADD13C,0.203200*%
%ADD14C,2.540000*%
%ADD15R,0.601600X0.701600*%
%ADD16R,1.001600X0.601600*%
%ADD17R,0.901700X0.901700*%
%ADD18R,0.751600X1.161600*%
%ADD19R,1.501600X1.301600*%
%ADD20R,0.351600X1.551600*%
%ADD21R,1.551600X0.351600*%
%ADD22R,1.321600X1.011600*%
%ADD23R,0.701600X0.601600*%
%ADD24R,1.351600X1.101600*%
%ADD25R,1.101600X1.351600*%
%ADD26R,0.691600X0.551600*%
%ADD27R,0.601600X1.001600*%
%ADD28R,1.602740X5.402580*%
%ADD29R,1.828800X1.828800*%
%ADD30O,1.828800X1.828800*%
%ADD31R,1.651600X1.401600*%
%ADD32R,1.551600X0.551600*%
%ADD33R,0.899160X0.899160*%
%ADD34R,1.301600X0.501600*%
%ADD35R,1.801600X0.751600*%
%ADD36R,1.701800X2.702560*%
%ADD37R,1.011600X1.321600*%
%ADD38R,1.301600X1.001600*%
%ADD39C,4.165600*%
%ADD40C,1.101600*%
%ADD41C,1.051600*%
%ADD42R,1.451600X0.501600*%
%ADD43C,2.101600*%
%ADD44R,2.641600X1.879600*%
%ADD45O,2.641600X1.879600*%
%ADD46O,1.828800X2.133600*%
%ADD47R,0.551600X0.691600*%
%ADD48C,1.625600*%
G04 APERTURE END LIST*
D10*
D11*
X114433714Y-113087143D02*
X115043238Y-113087143D01*
X114738476Y-113391905D02*
X114738476Y-112782381D01*
X115805143Y-112591905D02*
X115424190Y-112591905D01*
X115386095Y-112972857D01*
X115424190Y-112934762D01*
X115500381Y-112896667D01*
X115690857Y-112896667D01*
X115767047Y-112934762D01*
X115805143Y-112972857D01*
X115843238Y-113049048D01*
X115843238Y-113239524D01*
X115805143Y-113315714D01*
X115767047Y-113353810D01*
X115690857Y-113391905D01*
X115500381Y-113391905D01*
X115424190Y-113353810D01*
X115386095Y-113315714D01*
X116071809Y-112591905D02*
X116338476Y-113391905D01*
X116605143Y-112591905D01*
X116757523Y-113087143D02*
X116795619Y-113049048D01*
X116871809Y-113010952D01*
X117024190Y-113087143D01*
X117100381Y-113049048D01*
X117138476Y-113010952D01*
X117443238Y-113087143D02*
X118052762Y-113087143D01*
X117748000Y-113391905D02*
X117748000Y-112782381D01*
X118395619Y-112668095D02*
X118433714Y-112630000D01*
X118509905Y-112591905D01*
X118700381Y-112591905D01*
X118776571Y-112630000D01*
X118814667Y-112668095D01*
X118852762Y-112744286D01*
X118852762Y-112820476D01*
X118814667Y-112934762D01*
X118357524Y-113391905D01*
X118852762Y-113391905D01*
X119348000Y-112591905D02*
X119424191Y-112591905D01*
X119500381Y-112630000D01*
X119538476Y-112668095D01*
X119576572Y-112744286D01*
X119614667Y-112896667D01*
X119614667Y-113087143D01*
X119576572Y-113239524D01*
X119538476Y-113315714D01*
X119500381Y-113353810D01*
X119424191Y-113391905D01*
X119348000Y-113391905D01*
X119271810Y-113353810D01*
X119233714Y-113315714D01*
X119195619Y-113239524D01*
X119157524Y-113087143D01*
X119157524Y-112896667D01*
X119195619Y-112744286D01*
X119233714Y-112668095D01*
X119271810Y-112630000D01*
X119348000Y-112591905D01*
X119843238Y-112591905D02*
X120109905Y-113391905D01*
X120376572Y-112591905D01*
X114427000Y-121666000D02*
X116586000Y-121666000D01*
X113411000Y-119888000D02*
X113538000Y-119761000D01*
X113411000Y-120523000D02*
X113411000Y-119888000D01*
X114681000Y-122809000D02*
X115697000Y-122809000D01*
X114173000Y-122301000D02*
X114681000Y-122809000D01*
X118364000Y-116586000D02*
X118364000Y-117475000D01*
X120142000Y-115570000D02*
X120777000Y-116205000D01*
X119380000Y-115570000D02*
X120142000Y-115570000D01*
X114214219Y-121539000D02*
G75*
G03X114214219Y-121539000I-803219J0D01*
G01*
X112903000Y-121539000D02*
X113919000Y-121539000D01*
X119167219Y-115570000D02*
G75*
G03X119167219Y-115570000I-803219J0D01*
G01*
X118872000Y-115570000D02*
X117856000Y-115570000D01*
X118364000Y-115062000D02*
X118364000Y-116078000D01*
D12*
X168964429Y-88274071D02*
X169672000Y-88274071D01*
X169291000Y-88709500D01*
X169454286Y-88709500D01*
X169563143Y-88763929D01*
X169617572Y-88818357D01*
X169672000Y-88927214D01*
X169672000Y-89199357D01*
X169617572Y-89308214D01*
X169563143Y-89362643D01*
X169454286Y-89417071D01*
X169127714Y-89417071D01*
X169018857Y-89362643D01*
X168964429Y-89308214D01*
X170161857Y-89308214D02*
X170216285Y-89362643D01*
X170161857Y-89417071D01*
X170107428Y-89362643D01*
X170161857Y-89308214D01*
X170161857Y-89417071D01*
X170597286Y-88274071D02*
X171304857Y-88274071D01*
X170923857Y-88709500D01*
X171087143Y-88709500D01*
X171196000Y-88763929D01*
X171250429Y-88818357D01*
X171304857Y-88927214D01*
X171304857Y-89199357D01*
X171250429Y-89308214D01*
X171196000Y-89362643D01*
X171087143Y-89417071D01*
X170760571Y-89417071D01*
X170651714Y-89362643D01*
X170597286Y-89308214D01*
X171631428Y-88274071D02*
X172012428Y-89417071D01*
X172393428Y-88274071D01*
X173645285Y-89417071D02*
X173645285Y-88274071D01*
X174407285Y-88274071D02*
X174624999Y-88274071D01*
X174733857Y-88328500D01*
X174842714Y-88437357D01*
X174897142Y-88655071D01*
X174897142Y-89036071D01*
X174842714Y-89253786D01*
X174733857Y-89362643D01*
X174624999Y-89417071D01*
X174407285Y-89417071D01*
X174298428Y-89362643D01*
X174189571Y-89253786D01*
X174135142Y-89036071D01*
X174135142Y-88655071D01*
X174189571Y-88437357D01*
X174298428Y-88328500D01*
X174407285Y-88274071D01*
D11*
X165608000Y-118872000D02*
X170053000Y-118872000D01*
X163068000Y-116586000D02*
X163068000Y-119380000D01*
X167894000Y-117729000D02*
X167894000Y-120015000D01*
X165608000Y-117729000D02*
X165608000Y-117983000D01*
X170053000Y-119380000D02*
X170053000Y-120015000D01*
X165608000Y-119380000D02*
X165608000Y-120015000D01*
X170688000Y-117983000D02*
X170053000Y-117983000D01*
X170053000Y-119380000D02*
X170688000Y-119380000D01*
X170053000Y-116713000D02*
X170053000Y-119380000D01*
X172593000Y-116713000D02*
X170053000Y-116713000D01*
X175260000Y-116713000D02*
X175260000Y-117348000D01*
X175260000Y-116713000D02*
X172593000Y-116713000D01*
X172593000Y-117983000D02*
X172593000Y-116713000D01*
X172593000Y-119380000D02*
X172593000Y-118110000D01*
X172593000Y-117983000D02*
X172593000Y-119380000D01*
X170688000Y-117983000D02*
X174879000Y-117983000D01*
X174879000Y-119380000D02*
X170688000Y-119380000D01*
X165608000Y-119253000D02*
X165608000Y-117983000D01*
X165608000Y-119380000D02*
X165608000Y-119253000D01*
X160528000Y-119380000D02*
X165608000Y-119380000D01*
X160528000Y-117983000D02*
X160528000Y-119380000D01*
X160528000Y-117983000D02*
X165608000Y-117983000D01*
X160528000Y-116586000D02*
X160528000Y-117983000D01*
X164719000Y-116586000D02*
X160528000Y-116586000D01*
X155448000Y-119380000D02*
X155448000Y-116586000D01*
X152908000Y-119380000D02*
X152908000Y-116586000D01*
X150368000Y-119380000D02*
X150368000Y-116586000D01*
X147828000Y-116586000D02*
X147701000Y-116586000D01*
X147828000Y-119380000D02*
X147828000Y-116586000D01*
X145288000Y-119380000D02*
X145288000Y-116586000D01*
X142748000Y-119380000D02*
X142748000Y-116586000D01*
X140208000Y-119380000D02*
X140208000Y-116586000D01*
X137668000Y-117983000D02*
X137795000Y-117983000D01*
X137668000Y-116586000D02*
X137668000Y-117983000D01*
X157988000Y-116586000D02*
X137668000Y-116586000D01*
X157988000Y-117983000D02*
X157988000Y-116586000D01*
X157988000Y-117983000D02*
X157988000Y-119380000D01*
X137668000Y-117983000D02*
X157988000Y-117983000D01*
X137668000Y-119380000D02*
X137668000Y-117983000D01*
X157988000Y-119380000D02*
X137668000Y-119380000D01*
X155448000Y-81280000D02*
X175768000Y-81280000D01*
X173228000Y-79883000D02*
X173228000Y-82677000D01*
X170688000Y-82677000D02*
X171450000Y-82677000D01*
X170688000Y-79883000D02*
X170688000Y-82677000D01*
X170688000Y-79883000D02*
X170688000Y-82677000D01*
X168148000Y-79883000D02*
X168148000Y-82677000D01*
X168021000Y-79883000D02*
X168148000Y-79883000D01*
X165608000Y-82677000D02*
X165735000Y-82677000D01*
X165608000Y-79883000D02*
X165608000Y-82677000D01*
X163068000Y-79883000D02*
X163068000Y-82677000D01*
X160528000Y-79883000D02*
X160528000Y-82677000D01*
X157988000Y-79883000D02*
X157988000Y-82677000D01*
X155448000Y-82677000D02*
X155448000Y-79883000D01*
X175768000Y-82677000D02*
X155448000Y-82677000D01*
X175768000Y-79883000D02*
X175768000Y-82677000D01*
X155448000Y-79883000D02*
X175768000Y-79883000D01*
X132334000Y-82677000D02*
X132334000Y-82804000D01*
X131064000Y-82677000D02*
X132334000Y-82677000D01*
X131064000Y-79883000D02*
X131064000Y-82677000D01*
X133604000Y-79883000D02*
X133604000Y-82677000D01*
X136144000Y-79883000D02*
X136144000Y-82677000D01*
X138684000Y-79883000D02*
X138684000Y-82677000D01*
X141224000Y-79883000D02*
X141224000Y-82677000D01*
X143764000Y-79883000D02*
X143764000Y-82677000D01*
X146304000Y-79375000D02*
X146304000Y-82677000D01*
X148844000Y-79883000D02*
X148844000Y-82677000D01*
X151384000Y-79883000D02*
X151384000Y-82677000D01*
X153924000Y-82677000D02*
X153924000Y-79883000D01*
X128524000Y-82677000D02*
X153924000Y-82677000D01*
X128524000Y-79883000D02*
X128524000Y-82677000D01*
X128524000Y-81280000D02*
X153924000Y-81280000D01*
X128524000Y-79883000D02*
X128778000Y-79883000D01*
X128778000Y-79883000D02*
X153924000Y-79883000D01*
X174059905Y-82327714D02*
X174021810Y-82365810D01*
X173907524Y-82403905D01*
X173831334Y-82403905D01*
X173717048Y-82365810D01*
X173640857Y-82289619D01*
X173602762Y-82213429D01*
X173564667Y-82061048D01*
X173564667Y-81946762D01*
X173602762Y-81794381D01*
X173640857Y-81718190D01*
X173717048Y-81642000D01*
X173831334Y-81603905D01*
X173907524Y-81603905D01*
X174021810Y-81642000D01*
X174059905Y-81680095D01*
X174555143Y-81603905D02*
X174631334Y-81603905D01*
X174707524Y-81642000D01*
X174745619Y-81680095D01*
X174783715Y-81756286D01*
X174821810Y-81908667D01*
X174821810Y-82099143D01*
X174783715Y-82251524D01*
X174745619Y-82327714D01*
X174707524Y-82365810D01*
X174631334Y-82403905D01*
X174555143Y-82403905D01*
X174478953Y-82365810D01*
X174440857Y-82327714D01*
X174402762Y-82251524D01*
X174364667Y-82099143D01*
X174364667Y-81908667D01*
X174402762Y-81756286D01*
X174440857Y-81680095D01*
X174478953Y-81642000D01*
X174555143Y-81603905D01*
X171519905Y-82327714D02*
X171481810Y-82365810D01*
X171367524Y-82403905D01*
X171291334Y-82403905D01*
X171177048Y-82365810D01*
X171100857Y-82289619D01*
X171062762Y-82213429D01*
X171024667Y-82061048D01*
X171024667Y-81946762D01*
X171062762Y-81794381D01*
X171100857Y-81718190D01*
X171177048Y-81642000D01*
X171291334Y-81603905D01*
X171367524Y-81603905D01*
X171481810Y-81642000D01*
X171519905Y-81680095D01*
X172281810Y-82403905D02*
X171824667Y-82403905D01*
X172053238Y-82403905D02*
X172053238Y-81603905D01*
X171977048Y-81718190D01*
X171900857Y-81794381D01*
X171824667Y-81832476D01*
X168979905Y-82327714D02*
X168941810Y-82365810D01*
X168827524Y-82403905D01*
X168751334Y-82403905D01*
X168637048Y-82365810D01*
X168560857Y-82289619D01*
X168522762Y-82213429D01*
X168484667Y-82061048D01*
X168484667Y-81946762D01*
X168522762Y-81794381D01*
X168560857Y-81718190D01*
X168637048Y-81642000D01*
X168751334Y-81603905D01*
X168827524Y-81603905D01*
X168941810Y-81642000D01*
X168979905Y-81680095D01*
X169284667Y-81680095D02*
X169322762Y-81642000D01*
X169398953Y-81603905D01*
X169589429Y-81603905D01*
X169665619Y-81642000D01*
X169703715Y-81680095D01*
X169741810Y-81756286D01*
X169741810Y-81832476D01*
X169703715Y-81946762D01*
X169246572Y-82403905D01*
X169741810Y-82403905D01*
X166439905Y-82327714D02*
X166401810Y-82365810D01*
X166287524Y-82403905D01*
X166211334Y-82403905D01*
X166097048Y-82365810D01*
X166020857Y-82289619D01*
X165982762Y-82213429D01*
X165944667Y-82061048D01*
X165944667Y-81946762D01*
X165982762Y-81794381D01*
X166020857Y-81718190D01*
X166097048Y-81642000D01*
X166211334Y-81603905D01*
X166287524Y-81603905D01*
X166401810Y-81642000D01*
X166439905Y-81680095D01*
X166706572Y-81603905D02*
X167201810Y-81603905D01*
X166935143Y-81908667D01*
X167049429Y-81908667D01*
X167125619Y-81946762D01*
X167163715Y-81984857D01*
X167201810Y-82061048D01*
X167201810Y-82251524D01*
X167163715Y-82327714D01*
X167125619Y-82365810D01*
X167049429Y-82403905D01*
X166820857Y-82403905D01*
X166744667Y-82365810D01*
X166706572Y-82327714D01*
X163899905Y-82327714D02*
X163861810Y-82365810D01*
X163747524Y-82403905D01*
X163671334Y-82403905D01*
X163557048Y-82365810D01*
X163480857Y-82289619D01*
X163442762Y-82213429D01*
X163404667Y-82061048D01*
X163404667Y-81946762D01*
X163442762Y-81794381D01*
X163480857Y-81718190D01*
X163557048Y-81642000D01*
X163671334Y-81603905D01*
X163747524Y-81603905D01*
X163861810Y-81642000D01*
X163899905Y-81680095D01*
X164585619Y-81870571D02*
X164585619Y-82403905D01*
X164395143Y-81565810D02*
X164204667Y-82137238D01*
X164699905Y-82137238D01*
X161359905Y-82327714D02*
X161321810Y-82365810D01*
X161207524Y-82403905D01*
X161131334Y-82403905D01*
X161017048Y-82365810D01*
X160940857Y-82289619D01*
X160902762Y-82213429D01*
X160864667Y-82061048D01*
X160864667Y-81946762D01*
X160902762Y-81794381D01*
X160940857Y-81718190D01*
X161017048Y-81642000D01*
X161131334Y-81603905D01*
X161207524Y-81603905D01*
X161321810Y-81642000D01*
X161359905Y-81680095D01*
X162083715Y-81603905D02*
X161702762Y-81603905D01*
X161664667Y-81984857D01*
X161702762Y-81946762D01*
X161778953Y-81908667D01*
X161969429Y-81908667D01*
X162045619Y-81946762D01*
X162083715Y-81984857D01*
X162121810Y-82061048D01*
X162121810Y-82251524D01*
X162083715Y-82327714D01*
X162045619Y-82365810D01*
X161969429Y-82403905D01*
X161778953Y-82403905D01*
X161702762Y-82365810D01*
X161664667Y-82327714D01*
X158819905Y-82327714D02*
X158781810Y-82365810D01*
X158667524Y-82403905D01*
X158591334Y-82403905D01*
X158477048Y-82365810D01*
X158400857Y-82289619D01*
X158362762Y-82213429D01*
X158324667Y-82061048D01*
X158324667Y-81946762D01*
X158362762Y-81794381D01*
X158400857Y-81718190D01*
X158477048Y-81642000D01*
X158591334Y-81603905D01*
X158667524Y-81603905D01*
X158781810Y-81642000D01*
X158819905Y-81680095D01*
X159505619Y-81603905D02*
X159353238Y-81603905D01*
X159277048Y-81642000D01*
X159238953Y-81680095D01*
X159162762Y-81794381D01*
X159124667Y-81946762D01*
X159124667Y-82251524D01*
X159162762Y-82327714D01*
X159200857Y-82365810D01*
X159277048Y-82403905D01*
X159429429Y-82403905D01*
X159505619Y-82365810D01*
X159543715Y-82327714D01*
X159581810Y-82251524D01*
X159581810Y-82061048D01*
X159543715Y-81984857D01*
X159505619Y-81946762D01*
X159429429Y-81908667D01*
X159277048Y-81908667D01*
X159200857Y-81946762D01*
X159162762Y-81984857D01*
X159124667Y-82061048D01*
X156279905Y-82327714D02*
X156241810Y-82365810D01*
X156127524Y-82403905D01*
X156051334Y-82403905D01*
X155937048Y-82365810D01*
X155860857Y-82289619D01*
X155822762Y-82213429D01*
X155784667Y-82061048D01*
X155784667Y-81946762D01*
X155822762Y-81794381D01*
X155860857Y-81718190D01*
X155937048Y-81642000D01*
X156051334Y-81603905D01*
X156127524Y-81603905D01*
X156241810Y-81642000D01*
X156279905Y-81680095D01*
X156546572Y-81603905D02*
X157079905Y-81603905D01*
X156737048Y-82403905D01*
X173602762Y-81006905D02*
X173602762Y-80206905D01*
X173793238Y-80206905D01*
X173907524Y-80245000D01*
X173983715Y-80321190D01*
X174021810Y-80397381D01*
X174059905Y-80549762D01*
X174059905Y-80664048D01*
X174021810Y-80816429D01*
X173983715Y-80892619D01*
X173907524Y-80968810D01*
X173793238Y-81006905D01*
X173602762Y-81006905D01*
X174555143Y-80206905D02*
X174631334Y-80206905D01*
X174707524Y-80245000D01*
X174745619Y-80283095D01*
X174783715Y-80359286D01*
X174821810Y-80511667D01*
X174821810Y-80702143D01*
X174783715Y-80854524D01*
X174745619Y-80930714D01*
X174707524Y-80968810D01*
X174631334Y-81006905D01*
X174555143Y-81006905D01*
X174478953Y-80968810D01*
X174440857Y-80930714D01*
X174402762Y-80854524D01*
X174364667Y-80702143D01*
X174364667Y-80511667D01*
X174402762Y-80359286D01*
X174440857Y-80283095D01*
X174478953Y-80245000D01*
X174555143Y-80206905D01*
X171062762Y-81006905D02*
X171062762Y-80206905D01*
X171253238Y-80206905D01*
X171367524Y-80245000D01*
X171443715Y-80321190D01*
X171481810Y-80397381D01*
X171519905Y-80549762D01*
X171519905Y-80664048D01*
X171481810Y-80816429D01*
X171443715Y-80892619D01*
X171367524Y-80968810D01*
X171253238Y-81006905D01*
X171062762Y-81006905D01*
X172281810Y-81006905D02*
X171824667Y-81006905D01*
X172053238Y-81006905D02*
X172053238Y-80206905D01*
X171977048Y-80321190D01*
X171900857Y-80397381D01*
X171824667Y-80435476D01*
X168522762Y-81006905D02*
X168522762Y-80206905D01*
X168713238Y-80206905D01*
X168827524Y-80245000D01*
X168903715Y-80321190D01*
X168941810Y-80397381D01*
X168979905Y-80549762D01*
X168979905Y-80664048D01*
X168941810Y-80816429D01*
X168903715Y-80892619D01*
X168827524Y-80968810D01*
X168713238Y-81006905D01*
X168522762Y-81006905D01*
X169284667Y-80283095D02*
X169322762Y-80245000D01*
X169398953Y-80206905D01*
X169589429Y-80206905D01*
X169665619Y-80245000D01*
X169703715Y-80283095D01*
X169741810Y-80359286D01*
X169741810Y-80435476D01*
X169703715Y-80549762D01*
X169246572Y-81006905D01*
X169741810Y-81006905D01*
X165982762Y-81006905D02*
X165982762Y-80206905D01*
X166173238Y-80206905D01*
X166287524Y-80245000D01*
X166363715Y-80321190D01*
X166401810Y-80397381D01*
X166439905Y-80549762D01*
X166439905Y-80664048D01*
X166401810Y-80816429D01*
X166363715Y-80892619D01*
X166287524Y-80968810D01*
X166173238Y-81006905D01*
X165982762Y-81006905D01*
X166706572Y-80206905D02*
X167201810Y-80206905D01*
X166935143Y-80511667D01*
X167049429Y-80511667D01*
X167125619Y-80549762D01*
X167163715Y-80587857D01*
X167201810Y-80664048D01*
X167201810Y-80854524D01*
X167163715Y-80930714D01*
X167125619Y-80968810D01*
X167049429Y-81006905D01*
X166820857Y-81006905D01*
X166744667Y-80968810D01*
X166706572Y-80930714D01*
X163442762Y-81006905D02*
X163442762Y-80206905D01*
X163633238Y-80206905D01*
X163747524Y-80245000D01*
X163823715Y-80321190D01*
X163861810Y-80397381D01*
X163899905Y-80549762D01*
X163899905Y-80664048D01*
X163861810Y-80816429D01*
X163823715Y-80892619D01*
X163747524Y-80968810D01*
X163633238Y-81006905D01*
X163442762Y-81006905D01*
X164585619Y-80473571D02*
X164585619Y-81006905D01*
X164395143Y-80168810D02*
X164204667Y-80740238D01*
X164699905Y-80740238D01*
X160902762Y-81006905D02*
X160902762Y-80206905D01*
X161093238Y-80206905D01*
X161207524Y-80245000D01*
X161283715Y-80321190D01*
X161321810Y-80397381D01*
X161359905Y-80549762D01*
X161359905Y-80664048D01*
X161321810Y-80816429D01*
X161283715Y-80892619D01*
X161207524Y-80968810D01*
X161093238Y-81006905D01*
X160902762Y-81006905D01*
X162083715Y-80206905D02*
X161702762Y-80206905D01*
X161664667Y-80587857D01*
X161702762Y-80549762D01*
X161778953Y-80511667D01*
X161969429Y-80511667D01*
X162045619Y-80549762D01*
X162083715Y-80587857D01*
X162121810Y-80664048D01*
X162121810Y-80854524D01*
X162083715Y-80930714D01*
X162045619Y-80968810D01*
X161969429Y-81006905D01*
X161778953Y-81006905D01*
X161702762Y-80968810D01*
X161664667Y-80930714D01*
X158362762Y-81006905D02*
X158362762Y-80206905D01*
X158553238Y-80206905D01*
X158667524Y-80245000D01*
X158743715Y-80321190D01*
X158781810Y-80397381D01*
X158819905Y-80549762D01*
X158819905Y-80664048D01*
X158781810Y-80816429D01*
X158743715Y-80892619D01*
X158667524Y-80968810D01*
X158553238Y-81006905D01*
X158362762Y-81006905D01*
X159505619Y-80206905D02*
X159353238Y-80206905D01*
X159277048Y-80245000D01*
X159238953Y-80283095D01*
X159162762Y-80397381D01*
X159124667Y-80549762D01*
X159124667Y-80854524D01*
X159162762Y-80930714D01*
X159200857Y-80968810D01*
X159277048Y-81006905D01*
X159429429Y-81006905D01*
X159505619Y-80968810D01*
X159543715Y-80930714D01*
X159581810Y-80854524D01*
X159581810Y-80664048D01*
X159543715Y-80587857D01*
X159505619Y-80549762D01*
X159429429Y-80511667D01*
X159277048Y-80511667D01*
X159200857Y-80549762D01*
X159162762Y-80587857D01*
X159124667Y-80664048D01*
X155822762Y-81006905D02*
X155822762Y-80206905D01*
X156013238Y-80206905D01*
X156127524Y-80245000D01*
X156203715Y-80321190D01*
X156241810Y-80397381D01*
X156279905Y-80549762D01*
X156279905Y-80664048D01*
X156241810Y-80816429D01*
X156203715Y-80892619D01*
X156127524Y-80968810D01*
X156013238Y-81006905D01*
X155822762Y-81006905D01*
X156546572Y-80206905D02*
X157079905Y-80206905D01*
X156737048Y-81006905D01*
X152215905Y-82327714D02*
X152177810Y-82365810D01*
X152063524Y-82403905D01*
X151987334Y-82403905D01*
X151873048Y-82365810D01*
X151796857Y-82289619D01*
X151758762Y-82213429D01*
X151720667Y-82061048D01*
X151720667Y-81946762D01*
X151758762Y-81794381D01*
X151796857Y-81718190D01*
X151873048Y-81642000D01*
X151987334Y-81603905D01*
X152063524Y-81603905D01*
X152177810Y-81642000D01*
X152215905Y-81680095D01*
X152673048Y-81946762D02*
X152596857Y-81908667D01*
X152558762Y-81870571D01*
X152520667Y-81794381D01*
X152520667Y-81756286D01*
X152558762Y-81680095D01*
X152596857Y-81642000D01*
X152673048Y-81603905D01*
X152825429Y-81603905D01*
X152901619Y-81642000D01*
X152939715Y-81680095D01*
X152977810Y-81756286D01*
X152977810Y-81794381D01*
X152939715Y-81870571D01*
X152901619Y-81908667D01*
X152825429Y-81946762D01*
X152673048Y-81946762D01*
X152596857Y-81984857D01*
X152558762Y-82022952D01*
X152520667Y-82099143D01*
X152520667Y-82251524D01*
X152558762Y-82327714D01*
X152596857Y-82365810D01*
X152673048Y-82403905D01*
X152825429Y-82403905D01*
X152901619Y-82365810D01*
X152939715Y-82327714D01*
X152977810Y-82251524D01*
X152977810Y-82099143D01*
X152939715Y-82022952D01*
X152901619Y-81984857D01*
X152825429Y-81946762D01*
X149675905Y-82327714D02*
X149637810Y-82365810D01*
X149523524Y-82403905D01*
X149447334Y-82403905D01*
X149333048Y-82365810D01*
X149256857Y-82289619D01*
X149218762Y-82213429D01*
X149180667Y-82061048D01*
X149180667Y-81946762D01*
X149218762Y-81794381D01*
X149256857Y-81718190D01*
X149333048Y-81642000D01*
X149447334Y-81603905D01*
X149523524Y-81603905D01*
X149637810Y-81642000D01*
X149675905Y-81680095D01*
X150056857Y-82403905D02*
X150209238Y-82403905D01*
X150285429Y-82365810D01*
X150323524Y-82327714D01*
X150399715Y-82213429D01*
X150437810Y-82061048D01*
X150437810Y-81756286D01*
X150399715Y-81680095D01*
X150361619Y-81642000D01*
X150285429Y-81603905D01*
X150133048Y-81603905D01*
X150056857Y-81642000D01*
X150018762Y-81680095D01*
X149980667Y-81756286D01*
X149980667Y-81946762D01*
X150018762Y-82022952D01*
X150056857Y-82061048D01*
X150133048Y-82099143D01*
X150285429Y-82099143D01*
X150361619Y-82061048D01*
X150399715Y-82022952D01*
X150437810Y-81946762D01*
X147059714Y-82327714D02*
X147021619Y-82365810D01*
X146907333Y-82403905D01*
X146831143Y-82403905D01*
X146716857Y-82365810D01*
X146640666Y-82289619D01*
X146602571Y-82213429D01*
X146564476Y-82061048D01*
X146564476Y-81946762D01*
X146602571Y-81794381D01*
X146640666Y-81718190D01*
X146716857Y-81642000D01*
X146831143Y-81603905D01*
X146907333Y-81603905D01*
X147021619Y-81642000D01*
X147059714Y-81680095D01*
X147821619Y-82403905D02*
X147364476Y-82403905D01*
X147593047Y-82403905D02*
X147593047Y-81603905D01*
X147516857Y-81718190D01*
X147440666Y-81794381D01*
X147364476Y-81832476D01*
X148316857Y-81603905D02*
X148393048Y-81603905D01*
X148469238Y-81642000D01*
X148507333Y-81680095D01*
X148545429Y-81756286D01*
X148583524Y-81908667D01*
X148583524Y-82099143D01*
X148545429Y-82251524D01*
X148507333Y-82327714D01*
X148469238Y-82365810D01*
X148393048Y-82403905D01*
X148316857Y-82403905D01*
X148240667Y-82365810D01*
X148202571Y-82327714D01*
X148164476Y-82251524D01*
X148126381Y-82099143D01*
X148126381Y-81908667D01*
X148164476Y-81756286D01*
X148202571Y-81680095D01*
X148240667Y-81642000D01*
X148316857Y-81603905D01*
X144519714Y-82327714D02*
X144481619Y-82365810D01*
X144367333Y-82403905D01*
X144291143Y-82403905D01*
X144176857Y-82365810D01*
X144100666Y-82289619D01*
X144062571Y-82213429D01*
X144024476Y-82061048D01*
X144024476Y-81946762D01*
X144062571Y-81794381D01*
X144100666Y-81718190D01*
X144176857Y-81642000D01*
X144291143Y-81603905D01*
X144367333Y-81603905D01*
X144481619Y-81642000D01*
X144519714Y-81680095D01*
X145281619Y-82403905D02*
X144824476Y-82403905D01*
X145053047Y-82403905D02*
X145053047Y-81603905D01*
X144976857Y-81718190D01*
X144900666Y-81794381D01*
X144824476Y-81832476D01*
X146043524Y-82403905D02*
X145586381Y-82403905D01*
X145814952Y-82403905D02*
X145814952Y-81603905D01*
X145738762Y-81718190D01*
X145662571Y-81794381D01*
X145586381Y-81832476D01*
X141979714Y-82327714D02*
X141941619Y-82365810D01*
X141827333Y-82403905D01*
X141751143Y-82403905D01*
X141636857Y-82365810D01*
X141560666Y-82289619D01*
X141522571Y-82213429D01*
X141484476Y-82061048D01*
X141484476Y-81946762D01*
X141522571Y-81794381D01*
X141560666Y-81718190D01*
X141636857Y-81642000D01*
X141751143Y-81603905D01*
X141827333Y-81603905D01*
X141941619Y-81642000D01*
X141979714Y-81680095D01*
X142741619Y-82403905D02*
X142284476Y-82403905D01*
X142513047Y-82403905D02*
X142513047Y-81603905D01*
X142436857Y-81718190D01*
X142360666Y-81794381D01*
X142284476Y-81832476D01*
X143046381Y-81680095D02*
X143084476Y-81642000D01*
X143160667Y-81603905D01*
X143351143Y-81603905D01*
X143427333Y-81642000D01*
X143465429Y-81680095D01*
X143503524Y-81756286D01*
X143503524Y-81832476D01*
X143465429Y-81946762D01*
X143008286Y-82403905D01*
X143503524Y-82403905D01*
X139439714Y-82327714D02*
X139401619Y-82365810D01*
X139287333Y-82403905D01*
X139211143Y-82403905D01*
X139096857Y-82365810D01*
X139020666Y-82289619D01*
X138982571Y-82213429D01*
X138944476Y-82061048D01*
X138944476Y-81946762D01*
X138982571Y-81794381D01*
X139020666Y-81718190D01*
X139096857Y-81642000D01*
X139211143Y-81603905D01*
X139287333Y-81603905D01*
X139401619Y-81642000D01*
X139439714Y-81680095D01*
X140201619Y-82403905D02*
X139744476Y-82403905D01*
X139973047Y-82403905D02*
X139973047Y-81603905D01*
X139896857Y-81718190D01*
X139820666Y-81794381D01*
X139744476Y-81832476D01*
X140468286Y-81603905D02*
X140963524Y-81603905D01*
X140696857Y-81908667D01*
X140811143Y-81908667D01*
X140887333Y-81946762D01*
X140925429Y-81984857D01*
X140963524Y-82061048D01*
X140963524Y-82251524D01*
X140925429Y-82327714D01*
X140887333Y-82365810D01*
X140811143Y-82403905D01*
X140582571Y-82403905D01*
X140506381Y-82365810D01*
X140468286Y-82327714D01*
X136804477Y-81642000D02*
X136728286Y-81603905D01*
X136614001Y-81603905D01*
X136499715Y-81642000D01*
X136423524Y-81718190D01*
X136385429Y-81794381D01*
X136347334Y-81946762D01*
X136347334Y-82061048D01*
X136385429Y-82213429D01*
X136423524Y-82289619D01*
X136499715Y-82365810D01*
X136614001Y-82403905D01*
X136690191Y-82403905D01*
X136804477Y-82365810D01*
X136842572Y-82327714D01*
X136842572Y-82061048D01*
X136690191Y-82061048D01*
X137185429Y-82403905D02*
X137185429Y-81603905D01*
X137642572Y-82403905D01*
X137642572Y-81603905D01*
X138023524Y-82403905D02*
X138023524Y-81603905D01*
X138214000Y-81603905D01*
X138328286Y-81642000D01*
X138404477Y-81718190D01*
X138442572Y-81794381D01*
X138480667Y-81946762D01*
X138480667Y-82061048D01*
X138442572Y-82213429D01*
X138404477Y-82289619D01*
X138328286Y-82365810D01*
X138214000Y-82403905D01*
X138023524Y-82403905D01*
X134359714Y-82327714D02*
X134321619Y-82365810D01*
X134207333Y-82403905D01*
X134131143Y-82403905D01*
X134016857Y-82365810D01*
X133940666Y-82289619D01*
X133902571Y-82213429D01*
X133864476Y-82061048D01*
X133864476Y-81946762D01*
X133902571Y-81794381D01*
X133940666Y-81718190D01*
X134016857Y-81642000D01*
X134131143Y-81603905D01*
X134207333Y-81603905D01*
X134321619Y-81642000D01*
X134359714Y-81680095D01*
X135121619Y-82403905D02*
X134664476Y-82403905D01*
X134893047Y-82403905D02*
X134893047Y-81603905D01*
X134816857Y-81718190D01*
X134740666Y-81794381D01*
X134664476Y-81832476D01*
X135807333Y-81870571D02*
X135807333Y-82403905D01*
X135616857Y-81565810D02*
X135426381Y-82137238D01*
X135921619Y-82137238D01*
X131819714Y-82327714D02*
X131781619Y-82365810D01*
X131667333Y-82403905D01*
X131591143Y-82403905D01*
X131476857Y-82365810D01*
X131400666Y-82289619D01*
X131362571Y-82213429D01*
X131324476Y-82061048D01*
X131324476Y-81946762D01*
X131362571Y-81794381D01*
X131400666Y-81718190D01*
X131476857Y-81642000D01*
X131591143Y-81603905D01*
X131667333Y-81603905D01*
X131781619Y-81642000D01*
X131819714Y-81680095D01*
X132581619Y-82403905D02*
X132124476Y-82403905D01*
X132353047Y-82403905D02*
X132353047Y-81603905D01*
X132276857Y-81718190D01*
X132200666Y-81794381D01*
X132124476Y-81832476D01*
X133305429Y-81603905D02*
X132924476Y-81603905D01*
X132886381Y-81984857D01*
X132924476Y-81946762D01*
X133000667Y-81908667D01*
X133191143Y-81908667D01*
X133267333Y-81946762D01*
X133305429Y-81984857D01*
X133343524Y-82061048D01*
X133343524Y-82251524D01*
X133305429Y-82327714D01*
X133267333Y-82365810D01*
X133191143Y-82403905D01*
X133000667Y-82403905D01*
X132924476Y-82365810D01*
X132886381Y-82327714D01*
X151758762Y-81006905D02*
X151758762Y-80206905D01*
X151949238Y-80206905D01*
X152063524Y-80245000D01*
X152139715Y-80321190D01*
X152177810Y-80397381D01*
X152215905Y-80549762D01*
X152215905Y-80664048D01*
X152177810Y-80816429D01*
X152139715Y-80892619D01*
X152063524Y-80968810D01*
X151949238Y-81006905D01*
X151758762Y-81006905D01*
X152673048Y-80549762D02*
X152596857Y-80511667D01*
X152558762Y-80473571D01*
X152520667Y-80397381D01*
X152520667Y-80359286D01*
X152558762Y-80283095D01*
X152596857Y-80245000D01*
X152673048Y-80206905D01*
X152825429Y-80206905D01*
X152901619Y-80245000D01*
X152939715Y-80283095D01*
X152977810Y-80359286D01*
X152977810Y-80397381D01*
X152939715Y-80473571D01*
X152901619Y-80511667D01*
X152825429Y-80549762D01*
X152673048Y-80549762D01*
X152596857Y-80587857D01*
X152558762Y-80625952D01*
X152520667Y-80702143D01*
X152520667Y-80854524D01*
X152558762Y-80930714D01*
X152596857Y-80968810D01*
X152673048Y-81006905D01*
X152825429Y-81006905D01*
X152901619Y-80968810D01*
X152939715Y-80930714D01*
X152977810Y-80854524D01*
X152977810Y-80702143D01*
X152939715Y-80625952D01*
X152901619Y-80587857D01*
X152825429Y-80549762D01*
X149218762Y-81006905D02*
X149218762Y-80206905D01*
X149409238Y-80206905D01*
X149523524Y-80245000D01*
X149599715Y-80321190D01*
X149637810Y-80397381D01*
X149675905Y-80549762D01*
X149675905Y-80664048D01*
X149637810Y-80816429D01*
X149599715Y-80892619D01*
X149523524Y-80968810D01*
X149409238Y-81006905D01*
X149218762Y-81006905D01*
X150056857Y-81006905D02*
X150209238Y-81006905D01*
X150285429Y-80968810D01*
X150323524Y-80930714D01*
X150399715Y-80816429D01*
X150437810Y-80664048D01*
X150437810Y-80359286D01*
X150399715Y-80283095D01*
X150361619Y-80245000D01*
X150285429Y-80206905D01*
X150133048Y-80206905D01*
X150056857Y-80245000D01*
X150018762Y-80283095D01*
X149980667Y-80359286D01*
X149980667Y-80549762D01*
X150018762Y-80625952D01*
X150056857Y-80664048D01*
X150133048Y-80702143D01*
X150285429Y-80702143D01*
X150361619Y-80664048D01*
X150399715Y-80625952D01*
X150437810Y-80549762D01*
X146602571Y-81006905D02*
X146602571Y-80206905D01*
X146793047Y-80206905D01*
X146907333Y-80245000D01*
X146983524Y-80321190D01*
X147021619Y-80397381D01*
X147059714Y-80549762D01*
X147059714Y-80664048D01*
X147021619Y-80816429D01*
X146983524Y-80892619D01*
X146907333Y-80968810D01*
X146793047Y-81006905D01*
X146602571Y-81006905D01*
X147821619Y-81006905D02*
X147364476Y-81006905D01*
X147593047Y-81006905D02*
X147593047Y-80206905D01*
X147516857Y-80321190D01*
X147440666Y-80397381D01*
X147364476Y-80435476D01*
X148316857Y-80206905D02*
X148393048Y-80206905D01*
X148469238Y-80245000D01*
X148507333Y-80283095D01*
X148545429Y-80359286D01*
X148583524Y-80511667D01*
X148583524Y-80702143D01*
X148545429Y-80854524D01*
X148507333Y-80930714D01*
X148469238Y-80968810D01*
X148393048Y-81006905D01*
X148316857Y-81006905D01*
X148240667Y-80968810D01*
X148202571Y-80930714D01*
X148164476Y-80854524D01*
X148126381Y-80702143D01*
X148126381Y-80511667D01*
X148164476Y-80359286D01*
X148202571Y-80283095D01*
X148240667Y-80245000D01*
X148316857Y-80206905D01*
X144062571Y-81006905D02*
X144062571Y-80206905D01*
X144253047Y-80206905D01*
X144367333Y-80245000D01*
X144443524Y-80321190D01*
X144481619Y-80397381D01*
X144519714Y-80549762D01*
X144519714Y-80664048D01*
X144481619Y-80816429D01*
X144443524Y-80892619D01*
X144367333Y-80968810D01*
X144253047Y-81006905D01*
X144062571Y-81006905D01*
X145281619Y-81006905D02*
X144824476Y-81006905D01*
X145053047Y-81006905D02*
X145053047Y-80206905D01*
X144976857Y-80321190D01*
X144900666Y-80397381D01*
X144824476Y-80435476D01*
X146043524Y-81006905D02*
X145586381Y-81006905D01*
X145814952Y-81006905D02*
X145814952Y-80206905D01*
X145738762Y-80321190D01*
X145662571Y-80397381D01*
X145586381Y-80435476D01*
X141522571Y-81006905D02*
X141522571Y-80206905D01*
X141713047Y-80206905D01*
X141827333Y-80245000D01*
X141903524Y-80321190D01*
X141941619Y-80397381D01*
X141979714Y-80549762D01*
X141979714Y-80664048D01*
X141941619Y-80816429D01*
X141903524Y-80892619D01*
X141827333Y-80968810D01*
X141713047Y-81006905D01*
X141522571Y-81006905D01*
X142741619Y-81006905D02*
X142284476Y-81006905D01*
X142513047Y-81006905D02*
X142513047Y-80206905D01*
X142436857Y-80321190D01*
X142360666Y-80397381D01*
X142284476Y-80435476D01*
X143046381Y-80283095D02*
X143084476Y-80245000D01*
X143160667Y-80206905D01*
X143351143Y-80206905D01*
X143427333Y-80245000D01*
X143465429Y-80283095D01*
X143503524Y-80359286D01*
X143503524Y-80435476D01*
X143465429Y-80549762D01*
X143008286Y-81006905D01*
X143503524Y-81006905D01*
X138982571Y-81006905D02*
X138982571Y-80206905D01*
X139173047Y-80206905D01*
X139287333Y-80245000D01*
X139363524Y-80321190D01*
X139401619Y-80397381D01*
X139439714Y-80549762D01*
X139439714Y-80664048D01*
X139401619Y-80816429D01*
X139363524Y-80892619D01*
X139287333Y-80968810D01*
X139173047Y-81006905D01*
X138982571Y-81006905D01*
X140201619Y-81006905D02*
X139744476Y-81006905D01*
X139973047Y-81006905D02*
X139973047Y-80206905D01*
X139896857Y-80321190D01*
X139820666Y-80397381D01*
X139744476Y-80435476D01*
X140468286Y-80206905D02*
X140963524Y-80206905D01*
X140696857Y-80511667D01*
X140811143Y-80511667D01*
X140887333Y-80549762D01*
X140925429Y-80587857D01*
X140963524Y-80664048D01*
X140963524Y-80854524D01*
X140925429Y-80930714D01*
X140887333Y-80968810D01*
X140811143Y-81006905D01*
X140582571Y-81006905D01*
X140506381Y-80968810D01*
X140468286Y-80930714D01*
X136804477Y-80245000D02*
X136728286Y-80206905D01*
X136614001Y-80206905D01*
X136499715Y-80245000D01*
X136423524Y-80321190D01*
X136385429Y-80397381D01*
X136347334Y-80549762D01*
X136347334Y-80664048D01*
X136385429Y-80816429D01*
X136423524Y-80892619D01*
X136499715Y-80968810D01*
X136614001Y-81006905D01*
X136690191Y-81006905D01*
X136804477Y-80968810D01*
X136842572Y-80930714D01*
X136842572Y-80664048D01*
X136690191Y-80664048D01*
X137185429Y-81006905D02*
X137185429Y-80206905D01*
X137642572Y-81006905D01*
X137642572Y-80206905D01*
X138023524Y-81006905D02*
X138023524Y-80206905D01*
X138214000Y-80206905D01*
X138328286Y-80245000D01*
X138404477Y-80321190D01*
X138442572Y-80397381D01*
X138480667Y-80549762D01*
X138480667Y-80664048D01*
X138442572Y-80816429D01*
X138404477Y-80892619D01*
X138328286Y-80968810D01*
X138214000Y-81006905D01*
X138023524Y-81006905D01*
X133845904Y-80778333D02*
X134148285Y-80778333D01*
X133785428Y-81006905D02*
X133997095Y-80206905D01*
X134208762Y-81006905D01*
X134783286Y-81006905D02*
X134571619Y-80625952D01*
X134420428Y-81006905D02*
X134420428Y-80206905D01*
X134662333Y-80206905D01*
X134722809Y-80245000D01*
X134753048Y-80283095D01*
X134783286Y-80359286D01*
X134783286Y-80473571D01*
X134753048Y-80549762D01*
X134722809Y-80587857D01*
X134662333Y-80625952D01*
X134420428Y-80625952D01*
X135055428Y-80587857D02*
X135267095Y-80587857D01*
X135357809Y-81006905D02*
X135055428Y-81006905D01*
X135055428Y-80206905D01*
X135357809Y-80206905D01*
X135841619Y-80587857D02*
X135629952Y-80587857D01*
X135629952Y-81006905D02*
X135629952Y-80206905D01*
X135932333Y-80206905D01*
X131362571Y-81006905D02*
X131362571Y-80206905D01*
X131553047Y-80206905D01*
X131667333Y-80245000D01*
X131743524Y-80321190D01*
X131781619Y-80397381D01*
X131819714Y-80549762D01*
X131819714Y-80664048D01*
X131781619Y-80816429D01*
X131743524Y-80892619D01*
X131667333Y-80968810D01*
X131553047Y-81006905D01*
X131362571Y-81006905D01*
X132581619Y-81006905D02*
X132124476Y-81006905D01*
X132353047Y-81006905D02*
X132353047Y-80206905D01*
X132276857Y-80321190D01*
X132200666Y-80397381D01*
X132124476Y-80435476D01*
X133267333Y-80473571D02*
X133267333Y-81006905D01*
X133076857Y-80168810D02*
X132886381Y-80740238D01*
X133381619Y-80740238D01*
X129279714Y-82327714D02*
X129241619Y-82365810D01*
X129127333Y-82403905D01*
X129051143Y-82403905D01*
X128936857Y-82365810D01*
X128860666Y-82289619D01*
X128822571Y-82213429D01*
X128784476Y-82061048D01*
X128784476Y-81946762D01*
X128822571Y-81794381D01*
X128860666Y-81718190D01*
X128936857Y-81642000D01*
X129051143Y-81603905D01*
X129127333Y-81603905D01*
X129241619Y-81642000D01*
X129279714Y-81680095D01*
X130041619Y-82403905D02*
X129584476Y-82403905D01*
X129813047Y-82403905D02*
X129813047Y-81603905D01*
X129736857Y-81718190D01*
X129660666Y-81794381D01*
X129584476Y-81832476D01*
X130727333Y-81603905D02*
X130574952Y-81603905D01*
X130498762Y-81642000D01*
X130460667Y-81680095D01*
X130384476Y-81794381D01*
X130346381Y-81946762D01*
X130346381Y-82251524D01*
X130384476Y-82327714D01*
X130422571Y-82365810D01*
X130498762Y-82403905D01*
X130651143Y-82403905D01*
X130727333Y-82365810D01*
X130765429Y-82327714D01*
X130803524Y-82251524D01*
X130803524Y-82061048D01*
X130765429Y-81984857D01*
X130727333Y-81946762D01*
X130651143Y-81908667D01*
X130498762Y-81908667D01*
X130422571Y-81946762D01*
X130384476Y-81984857D01*
X130346381Y-82061048D01*
X128822571Y-81006905D02*
X128822571Y-80206905D01*
X129013047Y-80206905D01*
X129127333Y-80245000D01*
X129203524Y-80321190D01*
X129241619Y-80397381D01*
X129279714Y-80549762D01*
X129279714Y-80664048D01*
X129241619Y-80816429D01*
X129203524Y-80892619D01*
X129127333Y-80968810D01*
X129013047Y-81006905D01*
X128822571Y-81006905D01*
X130041619Y-81006905D02*
X129584476Y-81006905D01*
X129813047Y-81006905D02*
X129813047Y-80206905D01*
X129736857Y-80321190D01*
X129660666Y-80397381D01*
X129584476Y-80435476D01*
X130765429Y-80206905D02*
X130384476Y-80206905D01*
X130346381Y-80587857D01*
X130384476Y-80549762D01*
X130460667Y-80511667D01*
X130651143Y-80511667D01*
X130727333Y-80549762D01*
X130765429Y-80587857D01*
X130803524Y-80664048D01*
X130803524Y-80854524D01*
X130765429Y-80930714D01*
X130727333Y-80968810D01*
X130651143Y-81006905D01*
X130460667Y-81006905D01*
X130384476Y-80968810D01*
X130346381Y-80930714D01*
X172834904Y-117481333D02*
X173137285Y-117481333D01*
X172774428Y-117709905D02*
X172986095Y-116909905D01*
X173197762Y-117709905D01*
X173772286Y-117709905D02*
X173560619Y-117328952D01*
X173409428Y-117709905D02*
X173409428Y-116909905D01*
X173651333Y-116909905D01*
X173711809Y-116948000D01*
X173742048Y-116986095D01*
X173772286Y-117062286D01*
X173772286Y-117176571D01*
X173742048Y-117252762D01*
X173711809Y-117290857D01*
X173651333Y-117328952D01*
X173409428Y-117328952D01*
X174044428Y-117290857D02*
X174256095Y-117290857D01*
X174346809Y-117709905D02*
X174044428Y-117709905D01*
X174044428Y-116909905D01*
X174346809Y-116909905D01*
X174830619Y-117290857D02*
X174618952Y-117290857D01*
X174618952Y-117709905D02*
X174618952Y-116909905D01*
X174921333Y-116909905D01*
X170204190Y-117481333D02*
X170506571Y-117481333D01*
X170143714Y-117709905D02*
X170355381Y-116909905D01*
X170567048Y-117709905D01*
X171111334Y-116948000D02*
X171050857Y-116909905D01*
X170960143Y-116909905D01*
X170869429Y-116948000D01*
X170808953Y-117024190D01*
X170778714Y-117100381D01*
X170748476Y-117252762D01*
X170748476Y-117367048D01*
X170778714Y-117519429D01*
X170808953Y-117595619D01*
X170869429Y-117671810D01*
X170960143Y-117709905D01*
X171020619Y-117709905D01*
X171111334Y-117671810D01*
X171141572Y-117633714D01*
X171141572Y-117367048D01*
X171020619Y-117367048D01*
X171413714Y-117709905D02*
X171413714Y-116909905D01*
X171776572Y-117709905D01*
X171776572Y-116909905D01*
X172078952Y-117709905D02*
X172078952Y-116909905D01*
X172230143Y-116909905D01*
X172320857Y-116948000D01*
X172381333Y-117024190D01*
X172411572Y-117100381D01*
X172441810Y-117252762D01*
X172441810Y-117367048D01*
X172411572Y-117519429D01*
X172381333Y-117595619D01*
X172320857Y-117671810D01*
X172230143Y-117709905D01*
X172078952Y-117709905D01*
X168484667Y-118725905D02*
X168484667Y-117925905D01*
X168941810Y-118725905D01*
X168941810Y-117925905D01*
X169779905Y-118649714D02*
X169741810Y-118687810D01*
X169627524Y-118725905D01*
X169551334Y-118725905D01*
X169437048Y-118687810D01*
X169360857Y-118611619D01*
X169322762Y-118535429D01*
X169284667Y-118383048D01*
X169284667Y-118268762D01*
X169322762Y-118116381D01*
X169360857Y-118040190D01*
X169437048Y-117964000D01*
X169551334Y-117925905D01*
X169627524Y-117925905D01*
X169741810Y-117964000D01*
X169779905Y-118002095D01*
X166001810Y-118497333D02*
X166382762Y-118497333D01*
X165925619Y-118725905D02*
X166192286Y-117925905D01*
X166458953Y-118725905D01*
X166839905Y-118268762D02*
X166763714Y-118230667D01*
X166725619Y-118192571D01*
X166687524Y-118116381D01*
X166687524Y-118078286D01*
X166725619Y-118002095D01*
X166763714Y-117964000D01*
X166839905Y-117925905D01*
X166992286Y-117925905D01*
X167068476Y-117964000D01*
X167106572Y-118002095D01*
X167144667Y-118078286D01*
X167144667Y-118116381D01*
X167106572Y-118192571D01*
X167068476Y-118230667D01*
X166992286Y-118268762D01*
X166839905Y-118268762D01*
X166763714Y-118306857D01*
X166725619Y-118344952D01*
X166687524Y-118421143D01*
X166687524Y-118573524D01*
X166725619Y-118649714D01*
X166763714Y-118687810D01*
X166839905Y-118725905D01*
X166992286Y-118725905D01*
X167068476Y-118687810D01*
X167106572Y-118649714D01*
X167144667Y-118573524D01*
X167144667Y-118421143D01*
X167106572Y-118344952D01*
X167068476Y-118306857D01*
X166992286Y-118268762D01*
X163461810Y-117481333D02*
X163842762Y-117481333D01*
X163385619Y-117709905D02*
X163652286Y-116909905D01*
X163918953Y-117709905D01*
X164109429Y-116909905D02*
X164642762Y-116909905D01*
X164299905Y-117709905D01*
X172986810Y-118878333D02*
X173367762Y-118878333D01*
X172910619Y-119106905D02*
X173177286Y-118306905D01*
X173443953Y-119106905D01*
X174091572Y-118306905D02*
X173710619Y-118306905D01*
X173672524Y-118687857D01*
X173710619Y-118649762D01*
X173786810Y-118611667D01*
X173977286Y-118611667D01*
X174053476Y-118649762D01*
X174091572Y-118687857D01*
X174129667Y-118764048D01*
X174129667Y-118954524D01*
X174091572Y-119030714D01*
X174053476Y-119068810D01*
X173977286Y-119106905D01*
X173786810Y-119106905D01*
X173710619Y-119068810D01*
X173672524Y-119030714D01*
X170446810Y-118878333D02*
X170827762Y-118878333D01*
X170370619Y-119106905D02*
X170637286Y-118306905D01*
X170903953Y-119106905D01*
X171513476Y-118573571D02*
X171513476Y-119106905D01*
X171323000Y-118268810D02*
X171132524Y-118840238D01*
X171627762Y-118840238D01*
X168541810Y-119640333D02*
X168922762Y-119640333D01*
X168465619Y-119868905D02*
X168732286Y-119068905D01*
X168998953Y-119868905D01*
X169189429Y-119068905D02*
X169684667Y-119068905D01*
X169418000Y-119373667D01*
X169532286Y-119373667D01*
X169608476Y-119411762D01*
X169646572Y-119449857D01*
X169684667Y-119526048D01*
X169684667Y-119716524D01*
X169646572Y-119792714D01*
X169608476Y-119830810D01*
X169532286Y-119868905D01*
X169303714Y-119868905D01*
X169227524Y-119830810D01*
X169189429Y-119792714D01*
X166001810Y-119640333D02*
X166382762Y-119640333D01*
X165925619Y-119868905D02*
X166192286Y-119068905D01*
X166458953Y-119868905D01*
X166687524Y-119145095D02*
X166725619Y-119107000D01*
X166801810Y-119068905D01*
X166992286Y-119068905D01*
X167068476Y-119107000D01*
X167106572Y-119145095D01*
X167144667Y-119221286D01*
X167144667Y-119297476D01*
X167106572Y-119411762D01*
X166649429Y-119868905D01*
X167144667Y-119868905D01*
X163461810Y-118878333D02*
X163842762Y-118878333D01*
X163385619Y-119106905D02*
X163652286Y-118306905D01*
X163918953Y-119106905D01*
X164604667Y-119106905D02*
X164147524Y-119106905D01*
X164376095Y-119106905D02*
X164376095Y-118306905D01*
X164299905Y-118421190D01*
X164223714Y-118497381D01*
X164147524Y-118535476D01*
X160921810Y-117481333D02*
X161302762Y-117481333D01*
X160845619Y-117709905D02*
X161112286Y-116909905D01*
X161378953Y-117709905D01*
X161988476Y-116909905D02*
X161836095Y-116909905D01*
X161759905Y-116948000D01*
X161721810Y-116986095D01*
X161645619Y-117100381D01*
X161607524Y-117252762D01*
X161607524Y-117557524D01*
X161645619Y-117633714D01*
X161683714Y-117671810D01*
X161759905Y-117709905D01*
X161912286Y-117709905D01*
X161988476Y-117671810D01*
X162026572Y-117633714D01*
X162064667Y-117557524D01*
X162064667Y-117367048D01*
X162026572Y-117290857D01*
X161988476Y-117252762D01*
X161912286Y-117214667D01*
X161759905Y-117214667D01*
X161683714Y-117252762D01*
X161645619Y-117290857D01*
X161607524Y-117367048D01*
X160921810Y-118878333D02*
X161302762Y-118878333D01*
X160845619Y-119106905D02*
X161112286Y-118306905D01*
X161378953Y-119106905D01*
X161798000Y-118306905D02*
X161874191Y-118306905D01*
X161950381Y-118345000D01*
X161988476Y-118383095D01*
X162026572Y-118459286D01*
X162064667Y-118611667D01*
X162064667Y-118802143D01*
X162026572Y-118954524D01*
X161988476Y-119030714D01*
X161950381Y-119068810D01*
X161874191Y-119106905D01*
X161798000Y-119106905D01*
X161721810Y-119068810D01*
X161683714Y-119030714D01*
X161645619Y-118954524D01*
X161607524Y-118802143D01*
X161607524Y-118611667D01*
X161645619Y-118459286D01*
X161683714Y-118383095D01*
X161721810Y-118345000D01*
X161798000Y-118306905D01*
X156089429Y-117290857D02*
X156203715Y-117328952D01*
X156241810Y-117367048D01*
X156279905Y-117443238D01*
X156279905Y-117557524D01*
X156241810Y-117633714D01*
X156203715Y-117671810D01*
X156127524Y-117709905D01*
X155822762Y-117709905D01*
X155822762Y-116909905D01*
X156089429Y-116909905D01*
X156165619Y-116948000D01*
X156203715Y-116986095D01*
X156241810Y-117062286D01*
X156241810Y-117138476D01*
X156203715Y-117214667D01*
X156165619Y-117252762D01*
X156089429Y-117290857D01*
X155822762Y-117290857D01*
X156775143Y-116909905D02*
X156851334Y-116909905D01*
X156927524Y-116948000D01*
X156965619Y-116986095D01*
X157003715Y-117062286D01*
X157041810Y-117214667D01*
X157041810Y-117405143D01*
X157003715Y-117557524D01*
X156965619Y-117633714D01*
X156927524Y-117671810D01*
X156851334Y-117709905D01*
X156775143Y-117709905D01*
X156698953Y-117671810D01*
X156660857Y-117633714D01*
X156622762Y-117557524D01*
X156584667Y-117405143D01*
X156584667Y-117214667D01*
X156622762Y-117062286D01*
X156660857Y-116986095D01*
X156698953Y-116948000D01*
X156775143Y-116909905D01*
X153549429Y-117290857D02*
X153663715Y-117328952D01*
X153701810Y-117367048D01*
X153739905Y-117443238D01*
X153739905Y-117557524D01*
X153701810Y-117633714D01*
X153663715Y-117671810D01*
X153587524Y-117709905D01*
X153282762Y-117709905D01*
X153282762Y-116909905D01*
X153549429Y-116909905D01*
X153625619Y-116948000D01*
X153663715Y-116986095D01*
X153701810Y-117062286D01*
X153701810Y-117138476D01*
X153663715Y-117214667D01*
X153625619Y-117252762D01*
X153549429Y-117290857D01*
X153282762Y-117290857D01*
X154501810Y-117709905D02*
X154044667Y-117709905D01*
X154273238Y-117709905D02*
X154273238Y-116909905D01*
X154197048Y-117024190D01*
X154120857Y-117100381D01*
X154044667Y-117138476D01*
X151009429Y-117290857D02*
X151123715Y-117328952D01*
X151161810Y-117367048D01*
X151199905Y-117443238D01*
X151199905Y-117557524D01*
X151161810Y-117633714D01*
X151123715Y-117671810D01*
X151047524Y-117709905D01*
X150742762Y-117709905D01*
X150742762Y-116909905D01*
X151009429Y-116909905D01*
X151085619Y-116948000D01*
X151123715Y-116986095D01*
X151161810Y-117062286D01*
X151161810Y-117138476D01*
X151123715Y-117214667D01*
X151085619Y-117252762D01*
X151009429Y-117290857D01*
X150742762Y-117290857D01*
X151504667Y-116986095D02*
X151542762Y-116948000D01*
X151618953Y-116909905D01*
X151809429Y-116909905D01*
X151885619Y-116948000D01*
X151923715Y-116986095D01*
X151961810Y-117062286D01*
X151961810Y-117138476D01*
X151923715Y-117252762D01*
X151466572Y-117709905D01*
X151961810Y-117709905D01*
X148469429Y-117290857D02*
X148583715Y-117328952D01*
X148621810Y-117367048D01*
X148659905Y-117443238D01*
X148659905Y-117557524D01*
X148621810Y-117633714D01*
X148583715Y-117671810D01*
X148507524Y-117709905D01*
X148202762Y-117709905D01*
X148202762Y-116909905D01*
X148469429Y-116909905D01*
X148545619Y-116948000D01*
X148583715Y-116986095D01*
X148621810Y-117062286D01*
X148621810Y-117138476D01*
X148583715Y-117214667D01*
X148545619Y-117252762D01*
X148469429Y-117290857D01*
X148202762Y-117290857D01*
X148926572Y-116909905D02*
X149421810Y-116909905D01*
X149155143Y-117214667D01*
X149269429Y-117214667D01*
X149345619Y-117252762D01*
X149383715Y-117290857D01*
X149421810Y-117367048D01*
X149421810Y-117557524D01*
X149383715Y-117633714D01*
X149345619Y-117671810D01*
X149269429Y-117709905D01*
X149040857Y-117709905D01*
X148964667Y-117671810D01*
X148926572Y-117633714D01*
X145929429Y-117290857D02*
X146043715Y-117328952D01*
X146081810Y-117367048D01*
X146119905Y-117443238D01*
X146119905Y-117557524D01*
X146081810Y-117633714D01*
X146043715Y-117671810D01*
X145967524Y-117709905D01*
X145662762Y-117709905D01*
X145662762Y-116909905D01*
X145929429Y-116909905D01*
X146005619Y-116948000D01*
X146043715Y-116986095D01*
X146081810Y-117062286D01*
X146081810Y-117138476D01*
X146043715Y-117214667D01*
X146005619Y-117252762D01*
X145929429Y-117290857D01*
X145662762Y-117290857D01*
X146805619Y-117176571D02*
X146805619Y-117709905D01*
X146615143Y-116871810D02*
X146424667Y-117443238D01*
X146919905Y-117443238D01*
X143389429Y-117290857D02*
X143503715Y-117328952D01*
X143541810Y-117367048D01*
X143579905Y-117443238D01*
X143579905Y-117557524D01*
X143541810Y-117633714D01*
X143503715Y-117671810D01*
X143427524Y-117709905D01*
X143122762Y-117709905D01*
X143122762Y-116909905D01*
X143389429Y-116909905D01*
X143465619Y-116948000D01*
X143503715Y-116986095D01*
X143541810Y-117062286D01*
X143541810Y-117138476D01*
X143503715Y-117214667D01*
X143465619Y-117252762D01*
X143389429Y-117290857D01*
X143122762Y-117290857D01*
X144303715Y-116909905D02*
X143922762Y-116909905D01*
X143884667Y-117290857D01*
X143922762Y-117252762D01*
X143998953Y-117214667D01*
X144189429Y-117214667D01*
X144265619Y-117252762D01*
X144303715Y-117290857D01*
X144341810Y-117367048D01*
X144341810Y-117557524D01*
X144303715Y-117633714D01*
X144265619Y-117671810D01*
X144189429Y-117709905D01*
X143998953Y-117709905D01*
X143922762Y-117671810D01*
X143884667Y-117633714D01*
X140849429Y-117290857D02*
X140963715Y-117328952D01*
X141001810Y-117367048D01*
X141039905Y-117443238D01*
X141039905Y-117557524D01*
X141001810Y-117633714D01*
X140963715Y-117671810D01*
X140887524Y-117709905D01*
X140582762Y-117709905D01*
X140582762Y-116909905D01*
X140849429Y-116909905D01*
X140925619Y-116948000D01*
X140963715Y-116986095D01*
X141001810Y-117062286D01*
X141001810Y-117138476D01*
X140963715Y-117214667D01*
X140925619Y-117252762D01*
X140849429Y-117290857D01*
X140582762Y-117290857D01*
X141725619Y-116909905D02*
X141573238Y-116909905D01*
X141497048Y-116948000D01*
X141458953Y-116986095D01*
X141382762Y-117100381D01*
X141344667Y-117252762D01*
X141344667Y-117557524D01*
X141382762Y-117633714D01*
X141420857Y-117671810D01*
X141497048Y-117709905D01*
X141649429Y-117709905D01*
X141725619Y-117671810D01*
X141763715Y-117633714D01*
X141801810Y-117557524D01*
X141801810Y-117367048D01*
X141763715Y-117290857D01*
X141725619Y-117252762D01*
X141649429Y-117214667D01*
X141497048Y-117214667D01*
X141420857Y-117252762D01*
X141382762Y-117290857D01*
X141344667Y-117367048D01*
X138309429Y-117290857D02*
X138423715Y-117328952D01*
X138461810Y-117367048D01*
X138499905Y-117443238D01*
X138499905Y-117557524D01*
X138461810Y-117633714D01*
X138423715Y-117671810D01*
X138347524Y-117709905D01*
X138042762Y-117709905D01*
X138042762Y-116909905D01*
X138309429Y-116909905D01*
X138385619Y-116948000D01*
X138423715Y-116986095D01*
X138461810Y-117062286D01*
X138461810Y-117138476D01*
X138423715Y-117214667D01*
X138385619Y-117252762D01*
X138309429Y-117290857D01*
X138042762Y-117290857D01*
X138766572Y-116909905D02*
X139299905Y-116909905D01*
X138957048Y-117709905D01*
X138004667Y-119106905D02*
X138004667Y-118306905D01*
X138461810Y-119106905D01*
X138461810Y-118306905D01*
X139299905Y-119030714D02*
X139261810Y-119068810D01*
X139147524Y-119106905D01*
X139071334Y-119106905D01*
X138957048Y-119068810D01*
X138880857Y-118992619D01*
X138842762Y-118916429D01*
X138804667Y-118764048D01*
X138804667Y-118649762D01*
X138842762Y-118497381D01*
X138880857Y-118421190D01*
X138957048Y-118345000D01*
X139071334Y-118306905D01*
X139147524Y-118306905D01*
X139261810Y-118345000D01*
X139299905Y-118383095D01*
X155841810Y-118306905D02*
X156108477Y-119106905D01*
X156375144Y-118306905D01*
X156641810Y-119106905D02*
X156641810Y-118306905D01*
X157022762Y-119106905D02*
X157022762Y-118306905D01*
X157479905Y-119106905D01*
X157479905Y-118306905D01*
X153568477Y-118345000D02*
X153492286Y-118306905D01*
X153378001Y-118306905D01*
X153263715Y-118345000D01*
X153187524Y-118421190D01*
X153149429Y-118497381D01*
X153111334Y-118649762D01*
X153111334Y-118764048D01*
X153149429Y-118916429D01*
X153187524Y-118992619D01*
X153263715Y-119068810D01*
X153378001Y-119106905D01*
X153454191Y-119106905D01*
X153568477Y-119068810D01*
X153606572Y-119030714D01*
X153606572Y-118764048D01*
X153454191Y-118764048D01*
X153949429Y-119106905D02*
X153949429Y-118306905D01*
X154406572Y-119106905D01*
X154406572Y-118306905D01*
X154787524Y-119106905D02*
X154787524Y-118306905D01*
X154978000Y-118306905D01*
X155092286Y-118345000D01*
X155168477Y-118421190D01*
X155206572Y-118497381D01*
X155244667Y-118649762D01*
X155244667Y-118764048D01*
X155206572Y-118916429D01*
X155168477Y-118992619D01*
X155092286Y-119068810D01*
X154978000Y-119106905D01*
X154787524Y-119106905D01*
X151028477Y-118345000D02*
X150952286Y-118306905D01*
X150838001Y-118306905D01*
X150723715Y-118345000D01*
X150647524Y-118421190D01*
X150609429Y-118497381D01*
X150571334Y-118649762D01*
X150571334Y-118764048D01*
X150609429Y-118916429D01*
X150647524Y-118992619D01*
X150723715Y-119068810D01*
X150838001Y-119106905D01*
X150914191Y-119106905D01*
X151028477Y-119068810D01*
X151066572Y-119030714D01*
X151066572Y-118764048D01*
X150914191Y-118764048D01*
X151409429Y-119106905D02*
X151409429Y-118306905D01*
X151866572Y-119106905D01*
X151866572Y-118306905D01*
X152247524Y-119106905D02*
X152247524Y-118306905D01*
X152438000Y-118306905D01*
X152552286Y-118345000D01*
X152628477Y-118421190D01*
X152666572Y-118497381D01*
X152704667Y-118649762D01*
X152704667Y-118764048D01*
X152666572Y-118916429D01*
X152628477Y-118992619D01*
X152552286Y-119068810D01*
X152438000Y-119106905D01*
X152247524Y-119106905D01*
X148640858Y-118306905D02*
X148259905Y-118306905D01*
X148221810Y-118687857D01*
X148259905Y-118649762D01*
X148336096Y-118611667D01*
X148526572Y-118611667D01*
X148602762Y-118649762D01*
X148640858Y-118687857D01*
X148678953Y-118764048D01*
X148678953Y-118954524D01*
X148640858Y-119030714D01*
X148602762Y-119068810D01*
X148526572Y-119106905D01*
X148336096Y-119106905D01*
X148259905Y-119068810D01*
X148221810Y-119030714D01*
X148907524Y-118306905D02*
X149174191Y-119106905D01*
X149440858Y-118306905D01*
X145567524Y-118306905D02*
X146062762Y-118306905D01*
X145796095Y-118611667D01*
X145910381Y-118611667D01*
X145986571Y-118649762D01*
X146024667Y-118687857D01*
X146062762Y-118764048D01*
X146062762Y-118954524D01*
X146024667Y-119030714D01*
X145986571Y-119068810D01*
X145910381Y-119106905D01*
X145681809Y-119106905D01*
X145605619Y-119068810D01*
X145567524Y-119030714D01*
X146291333Y-118306905D02*
X146558000Y-119106905D01*
X146824667Y-118306905D01*
X147015143Y-118306905D02*
X147510381Y-118306905D01*
X147243714Y-118611667D01*
X147358000Y-118611667D01*
X147434190Y-118649762D01*
X147472286Y-118687857D01*
X147510381Y-118764048D01*
X147510381Y-118954524D01*
X147472286Y-119030714D01*
X147434190Y-119068810D01*
X147358000Y-119106905D01*
X147129428Y-119106905D01*
X147053238Y-119068810D01*
X147015143Y-119030714D01*
X143579905Y-119106905D02*
X143313238Y-118725952D01*
X143122762Y-119106905D02*
X143122762Y-118306905D01*
X143427524Y-118306905D01*
X143503715Y-118345000D01*
X143541810Y-118383095D01*
X143579905Y-118459286D01*
X143579905Y-118573571D01*
X143541810Y-118649762D01*
X143503715Y-118687857D01*
X143427524Y-118725952D01*
X143122762Y-118725952D01*
X143884667Y-119068810D02*
X143998953Y-119106905D01*
X144189429Y-119106905D01*
X144265619Y-119068810D01*
X144303715Y-119030714D01*
X144341810Y-118954524D01*
X144341810Y-118878333D01*
X144303715Y-118802143D01*
X144265619Y-118764048D01*
X144189429Y-118725952D01*
X144037048Y-118687857D01*
X143960857Y-118649762D01*
X143922762Y-118611667D01*
X143884667Y-118535476D01*
X143884667Y-118459286D01*
X143922762Y-118383095D01*
X143960857Y-118345000D01*
X144037048Y-118306905D01*
X144227524Y-118306905D01*
X144341810Y-118345000D01*
X144570381Y-118306905D02*
X145027524Y-118306905D01*
X144798953Y-119106905D02*
X144798953Y-118306905D01*
X140601810Y-118306905D02*
X140868477Y-119106905D01*
X141135144Y-118306905D01*
X141401810Y-119106905D02*
X141401810Y-118306905D01*
X141935143Y-118306905D02*
X142087524Y-118306905D01*
X142163715Y-118345000D01*
X142239905Y-118421190D01*
X142278000Y-118573571D01*
X142278000Y-118840238D01*
X142239905Y-118992619D01*
X142163715Y-119068810D01*
X142087524Y-119106905D01*
X141935143Y-119106905D01*
X141858953Y-119068810D01*
X141782762Y-118992619D01*
X141744667Y-118840238D01*
X141744667Y-118573571D01*
X141782762Y-118421190D01*
X141858953Y-118345000D01*
X141935143Y-118306905D01*
X152113000Y-112645000D02*
X152113000Y-112145000D01*
X151163000Y-112145000D02*
X151163000Y-112645000D01*
X160053000Y-112145000D02*
X160053000Y-112645000D01*
X161003000Y-112645000D02*
X161003000Y-112145000D01*
X167553000Y-83955000D02*
X167553000Y-84955000D01*
X166203000Y-84955000D02*
X166203000Y-83955000D01*
X153583000Y-114435000D02*
X153583000Y-115435000D01*
X152233000Y-115435000D02*
X152233000Y-114435000D01*
X161203000Y-114435000D02*
X161203000Y-115435000D01*
X159853000Y-115435000D02*
X159853000Y-114435000D01*
X161758000Y-112895000D02*
X161758000Y-111895000D01*
X163108000Y-111895000D02*
X163108000Y-112895000D01*
X115472160Y-106029760D02*
X115423900Y-106029760D01*
X112673180Y-106730800D02*
X112673180Y-106029760D01*
X112673180Y-106029760D02*
X112922100Y-106029760D01*
X115472160Y-106029760D02*
X115672820Y-106029760D01*
X115672820Y-106029760D02*
X115672820Y-106730800D01*
X119148000Y-101835000D02*
G75*
G03X119148000Y-101835000I-100000J0D01*
G01*
X118798000Y-102485000D02*
X118798000Y-101985000D01*
X115898000Y-102485000D02*
X118798000Y-102485000D01*
X115898000Y-101985000D02*
X115898000Y-102485000D01*
X118798000Y-101985000D02*
X115898000Y-101985000D01*
X130578000Y-114535000D02*
G75*
G03X130578000Y-114535000I-100000J0D01*
G01*
X130228000Y-115185000D02*
X130228000Y-114685000D01*
X127328000Y-115185000D02*
X130228000Y-115185000D01*
X127328000Y-114685000D02*
X127328000Y-115185000D01*
X130228000Y-114685000D02*
X127328000Y-114685000D01*
X126568000Y-91470000D02*
X123368000Y-91470000D01*
X123368000Y-91470000D02*
X123368000Y-88870000D01*
X123368000Y-88870000D02*
X126568000Y-88870000D01*
X126568000Y-88870000D02*
X126568000Y-91470000D01*
X167673000Y-84205000D02*
X167673000Y-84705000D01*
X168623000Y-84705000D02*
X168623000Y-84205000D01*
X146543000Y-108600000D02*
X147618000Y-108600000D01*
X146543000Y-88250000D02*
X147618000Y-88250000D01*
X166893000Y-88250000D02*
X165818000Y-88250000D01*
X166893000Y-108600000D02*
X165818000Y-108600000D01*
X146543000Y-108600000D02*
X146543000Y-107525000D01*
X166893000Y-108600000D02*
X166893000Y-107525000D01*
X166893000Y-88250000D02*
X166893000Y-89325000D01*
X146543000Y-88250000D02*
X146543000Y-89325000D01*
X147618000Y-108600000D02*
X147618000Y-109700000D01*
X120523000Y-106997500D02*
X120523000Y-107378500D01*
X120523000Y-105981500D02*
X120523000Y-106362500D01*
X120523000Y-106362500D02*
X120904000Y-106997500D01*
X120904000Y-106997500D02*
X120142000Y-106997500D01*
X120142000Y-106997500D02*
X120523000Y-106362500D01*
X121031000Y-106362500D02*
X120015000Y-106362500D01*
X119623000Y-104680000D02*
X119623000Y-108220000D01*
X121423000Y-104680000D02*
X121423000Y-108220000D01*
X144813000Y-84205000D02*
X144813000Y-84705000D01*
X145763000Y-84705000D02*
X145763000Y-84205000D01*
X164813000Y-112645000D02*
X164813000Y-112145000D01*
X163863000Y-112145000D02*
X163863000Y-112645000D01*
X165133000Y-84205000D02*
X165133000Y-84705000D01*
X166083000Y-84705000D02*
X166083000Y-84205000D01*
X142498000Y-107155000D02*
X142998000Y-107155000D01*
X142998000Y-106205000D02*
X142498000Y-106205000D01*
X170438000Y-116680000D02*
X170938000Y-116680000D01*
X170938000Y-115730000D02*
X170438000Y-115730000D01*
X146083000Y-84205000D02*
X146083000Y-84705000D01*
X147033000Y-84705000D02*
X147033000Y-84205000D01*
X144493000Y-112645000D02*
X144493000Y-112145000D01*
X143543000Y-112145000D02*
X143543000Y-112645000D01*
X166083000Y-112645000D02*
X166083000Y-112145000D01*
X165133000Y-112145000D02*
X165133000Y-112645000D01*
X142498000Y-109060000D02*
X142998000Y-109060000D01*
X142998000Y-108110000D02*
X142498000Y-108110000D01*
X162818000Y-115410000D02*
X163318000Y-115410000D01*
X163318000Y-114460000D02*
X162818000Y-114460000D01*
X153383000Y-84705000D02*
X153383000Y-84205000D01*
X152433000Y-84205000D02*
X152433000Y-84705000D01*
X161003000Y-84705000D02*
X161003000Y-84205000D01*
X160053000Y-84205000D02*
X160053000Y-84705000D01*
X167353000Y-112645000D02*
X167353000Y-112145000D01*
X166403000Y-112145000D02*
X166403000Y-112645000D01*
X142498000Y-105250000D02*
X142998000Y-105250000D01*
X142998000Y-104300000D02*
X142498000Y-104300000D01*
X118198000Y-107815000D02*
X118198000Y-106815000D01*
X116498000Y-106815000D02*
X116498000Y-107815000D01*
X120998000Y-102485000D02*
X120998000Y-101985000D01*
X120048000Y-101985000D02*
X120048000Y-102485000D01*
X125468000Y-107735000D02*
X124468000Y-107735000D01*
X124468000Y-109435000D02*
X125468000Y-109435000D01*
X124468000Y-120230000D02*
X125468000Y-120230000D01*
X125468000Y-118530000D02*
X124468000Y-118530000D01*
X132338000Y-114140000D02*
X132838000Y-114140000D01*
X132838000Y-113190000D02*
X132338000Y-113190000D01*
X168623000Y-112645000D02*
X168623000Y-112145000D01*
X167673000Y-112145000D02*
X167673000Y-112645000D01*
X133358000Y-117055000D02*
X134358000Y-117055000D01*
X134358000Y-115355000D02*
X133358000Y-115355000D01*
X128528000Y-111600000D02*
X129028000Y-111600000D01*
X129028000Y-110650000D02*
X128528000Y-110650000D01*
X147033000Y-112645000D02*
X147033000Y-112145000D01*
X146083000Y-112145000D02*
X146083000Y-112645000D01*
X145763000Y-112645000D02*
X145763000Y-112145000D01*
X144813000Y-112145000D02*
X144813000Y-112645000D01*
X149573000Y-112645000D02*
X149573000Y-112145000D01*
X148623000Y-112145000D02*
X148623000Y-112645000D01*
X153383000Y-112645000D02*
X153383000Y-112145000D01*
X152433000Y-112145000D02*
X152433000Y-112645000D01*
X126488000Y-85250000D02*
X125988000Y-85250000D01*
X125988000Y-86200000D02*
X126488000Y-86200000D01*
X123448000Y-86200000D02*
X123948000Y-86200000D01*
X123948000Y-85250000D02*
X123448000Y-85250000D01*
X143543000Y-84205000D02*
X143543000Y-84705000D01*
X144493000Y-84705000D02*
X144493000Y-84205000D01*
X123448000Y-88105000D02*
X123948000Y-88105000D01*
X123948000Y-87155000D02*
X123448000Y-87155000D01*
X126488000Y-87155000D02*
X125988000Y-87155000D01*
X125988000Y-88105000D02*
X126488000Y-88105000D01*
X155923000Y-112645000D02*
X155923000Y-112145000D01*
X154973000Y-112145000D02*
X154973000Y-112645000D01*
X157193000Y-112645000D02*
X157193000Y-112145000D01*
X156243000Y-112145000D02*
X156243000Y-112645000D01*
X158463000Y-112645000D02*
X158463000Y-112145000D01*
X157513000Y-112145000D02*
X157513000Y-112645000D01*
X142498000Y-89375000D02*
X142998000Y-89375000D01*
X142998000Y-88425000D02*
X142498000Y-88425000D01*
X123948000Y-92235000D02*
X123448000Y-92235000D01*
X123448000Y-93185000D02*
X123948000Y-93185000D01*
X142498000Y-91280000D02*
X142998000Y-91280000D01*
X142998000Y-90330000D02*
X142498000Y-90330000D01*
X142998000Y-96680000D02*
X142498000Y-96680000D01*
X142498000Y-97630000D02*
X142998000Y-97630000D01*
X125988000Y-96995000D02*
X126488000Y-96995000D01*
X126488000Y-96045000D02*
X125988000Y-96045000D01*
X148303000Y-112645000D02*
X148303000Y-112145000D01*
X147353000Y-112145000D02*
X147353000Y-112645000D01*
X150843000Y-112645000D02*
X150843000Y-112145000D01*
X149893000Y-112145000D02*
X149893000Y-112645000D01*
X154653000Y-112645000D02*
X154653000Y-112145000D01*
X153703000Y-112145000D02*
X153703000Y-112645000D01*
X125988000Y-81120000D02*
X126488000Y-81120000D01*
X126488000Y-80170000D02*
X125988000Y-80170000D01*
X129413000Y-122237500D02*
X129413000Y-122618500D01*
X129413000Y-121221500D02*
X129413000Y-121602500D01*
X129413000Y-121602500D02*
X129794000Y-122237500D01*
X129794000Y-122237500D02*
X129032000Y-122237500D01*
X129032000Y-122237500D02*
X129413000Y-121602500D01*
X129921000Y-121602500D02*
X128905000Y-121602500D01*
X128513000Y-119920000D02*
X128513000Y-123460000D01*
X130313000Y-119920000D02*
X130313000Y-123460000D01*
X136013000Y-113665000D02*
X136263000Y-113665000D01*
X135513000Y-113665000D02*
X135263000Y-113665000D01*
X135513000Y-113665000D02*
X136013000Y-113315000D01*
X136013000Y-113315000D02*
X136013000Y-114015000D01*
X136013000Y-114015000D02*
X135513000Y-113665000D01*
X135513000Y-113315000D02*
X135513000Y-114015000D01*
X134463000Y-114465000D02*
X136863000Y-114465000D01*
X134463000Y-112865000D02*
X136863000Y-112865000D01*
X123198000Y-83145000D02*
X124198000Y-83145000D01*
X124198000Y-84495000D02*
X123198000Y-84495000D01*
X124968000Y-101092000D02*
X126746000Y-101092000D01*
X126746000Y-101092000D02*
X127381000Y-101727000D01*
X127381000Y-101727000D02*
X127381000Y-105283000D01*
X127381000Y-105283000D02*
X126746000Y-105918000D01*
X126746000Y-105918000D02*
X123190000Y-105918000D01*
X123190000Y-105918000D02*
X122555000Y-105283000D01*
X122555000Y-105283000D02*
X122555000Y-101727000D01*
X122555000Y-101727000D02*
X123190000Y-101092000D01*
X123190000Y-101092000D02*
X124968000Y-101092000D01*
X133858000Y-118872000D02*
X135636000Y-118872000D01*
X135636000Y-118872000D02*
X136271000Y-119507000D01*
X136271000Y-119507000D02*
X136271000Y-123063000D01*
X136271000Y-123063000D02*
X135636000Y-123698000D01*
X135636000Y-123698000D02*
X132080000Y-123698000D01*
X132080000Y-123698000D02*
X131445000Y-123063000D01*
X131445000Y-123063000D02*
X131445000Y-119507000D01*
X131445000Y-119507000D02*
X132080000Y-118872000D01*
X132080000Y-118872000D02*
X133858000Y-118872000D01*
X178435000Y-94615000D02*
X178435000Y-107315000D01*
X178435000Y-107315000D02*
X173355000Y-107315000D01*
X173355000Y-107315000D02*
X173355000Y-97155000D01*
X178435000Y-94615000D02*
X175895000Y-94615000D01*
X174625000Y-94335000D02*
X173075000Y-94335000D01*
X175895000Y-94615000D02*
X175895000Y-97155000D01*
X175895000Y-97155000D02*
X173355000Y-97155000D01*
X173075000Y-94335000D02*
X173075000Y-95885000D01*
X119098714Y-76835000D02*
G75*
G03X119098714Y-76835000I-1750714J0D01*
G01*
X120573000Y-73610000D02*
X120573000Y-73735000D01*
X120573000Y-80060000D02*
X120573000Y-79935000D01*
X114123000Y-80060000D02*
X114123000Y-79935000D01*
X114123000Y-73735000D02*
X114123000Y-73610000D01*
X120573000Y-75435000D02*
X120573000Y-78235000D01*
X114123000Y-73610000D02*
X120573000Y-73610000D01*
X114123000Y-75435000D02*
X114123000Y-78235000D01*
X114123000Y-80060000D02*
X120573000Y-80060000D01*
X168478000Y-117505000D02*
X165278000Y-117505000D01*
X165278000Y-117505000D02*
X165278000Y-114905000D01*
X165278000Y-114905000D02*
X168478000Y-114905000D01*
X168478000Y-114905000D02*
X168478000Y-117505000D01*
X134913000Y-109575000D02*
X134913000Y-109375000D01*
X130263000Y-109575000D02*
X130263000Y-109375000D01*
X130263000Y-106325000D02*
X130263000Y-106525000D01*
X134913000Y-106325000D02*
X134913000Y-106525000D01*
X134913000Y-109575000D02*
X130263000Y-109575000D01*
X134913000Y-106325000D02*
X130263000Y-106325000D01*
X134913000Y-109375000D02*
X136263000Y-109375000D01*
X123248420Y-96070420D02*
X123248420Y-96969580D01*
X123248420Y-96969580D02*
X122849640Y-96969580D01*
X122849640Y-96070420D02*
X122849640Y-96969580D01*
X123248420Y-96070420D02*
X122849640Y-96070420D01*
X124546360Y-96070420D02*
X124546360Y-96969580D01*
X124546360Y-96969580D02*
X124147580Y-96969580D01*
X124147580Y-96070420D02*
X124147580Y-96969580D01*
X124546360Y-96070420D02*
X124147580Y-96070420D01*
X123698000Y-96070420D02*
X123698000Y-96220280D01*
X123698000Y-96220280D02*
X123398280Y-96220280D01*
X123398280Y-96070420D02*
X123398280Y-96220280D01*
X123698000Y-96070420D02*
X123398280Y-96070420D01*
X123698000Y-96819720D02*
X123698000Y-96969580D01*
X123698000Y-96969580D02*
X123398280Y-96969580D01*
X123398280Y-96819720D02*
X123398280Y-96969580D01*
X123698000Y-96819720D02*
X123398280Y-96819720D01*
X123698000Y-96370140D02*
X123698000Y-96669860D01*
X123698000Y-96669860D02*
X123398280Y-96669860D01*
X123398280Y-96370140D02*
X123398280Y-96669860D01*
X123698000Y-96370140D02*
X123398280Y-96370140D01*
X123248420Y-96121220D02*
X124147580Y-96121220D01*
X123248420Y-96918780D02*
X124147580Y-96918780D01*
X171483000Y-95635000D02*
X171483000Y-96135000D01*
X172433000Y-96135000D02*
X172433000Y-95635000D01*
X139188000Y-106205000D02*
X138688000Y-106205000D01*
X138688000Y-107155000D02*
X139188000Y-107155000D01*
X142498000Y-99535000D02*
X142998000Y-99535000D01*
X142998000Y-98585000D02*
X142498000Y-98585000D01*
X171483000Y-105795000D02*
X171483000Y-106295000D01*
X172433000Y-106295000D02*
X172433000Y-105795000D01*
X172433000Y-101215000D02*
X172433000Y-100715000D01*
X171483000Y-100715000D02*
X171483000Y-101215000D01*
X158783000Y-112145000D02*
X158783000Y-112645000D01*
X159733000Y-112645000D02*
X159733000Y-112145000D01*
X139188000Y-104300000D02*
X138688000Y-104300000D01*
X138688000Y-105250000D02*
X139188000Y-105250000D01*
X142998000Y-102395000D02*
X142498000Y-102395000D01*
X142498000Y-103345000D02*
X142998000Y-103345000D01*
X142998000Y-100490000D02*
X142498000Y-100490000D01*
X142498000Y-101440000D02*
X142998000Y-101440000D01*
X125988000Y-95090000D02*
X126488000Y-95090000D01*
X126488000Y-94140000D02*
X125988000Y-94140000D01*
X123448000Y-95090000D02*
X123948000Y-95090000D01*
X123948000Y-94140000D02*
X123448000Y-94140000D01*
X113788000Y-103030000D02*
X113288000Y-103030000D01*
X113288000Y-103980000D02*
X113788000Y-103980000D01*
X117098000Y-98900000D02*
X117598000Y-98900000D01*
X117598000Y-97950000D02*
X117098000Y-97950000D01*
X113288000Y-101440000D02*
X113788000Y-101440000D01*
X113788000Y-100490000D02*
X113288000Y-100490000D01*
X125218000Y-115730000D02*
X124718000Y-115730000D01*
X124718000Y-116680000D02*
X125218000Y-116680000D01*
X173478000Y-115730000D02*
X172978000Y-115730000D01*
X172978000Y-116680000D02*
X173478000Y-116680000D01*
X124718000Y-111600000D02*
X125218000Y-111600000D01*
X125218000Y-110650000D02*
X124718000Y-110650000D01*
X124718000Y-114140000D02*
X125218000Y-114140000D01*
X125218000Y-113190000D02*
X124718000Y-113190000D01*
X148303000Y-115185000D02*
X148303000Y-114685000D01*
X147353000Y-114685000D02*
X147353000Y-115185000D01*
X147033000Y-115185000D02*
X147033000Y-114685000D01*
X146083000Y-114685000D02*
X146083000Y-115185000D01*
X150843000Y-115185000D02*
X150843000Y-114685000D01*
X149893000Y-114685000D02*
X149893000Y-115185000D01*
X154653000Y-115185000D02*
X154653000Y-114685000D01*
X153703000Y-114685000D02*
X153703000Y-115185000D01*
X157193000Y-115185000D02*
X157193000Y-114685000D01*
X156243000Y-114685000D02*
X156243000Y-115185000D01*
X158463000Y-115185000D02*
X158463000Y-114685000D01*
X157513000Y-114685000D02*
X157513000Y-115185000D01*
X159733000Y-115185000D02*
X159733000Y-114685000D01*
X158783000Y-114685000D02*
X158783000Y-115185000D01*
X134243000Y-105250000D02*
X134743000Y-105250000D01*
X134743000Y-104300000D02*
X134243000Y-104300000D01*
X130433000Y-105250000D02*
X130933000Y-105250000D01*
X130933000Y-104300000D02*
X130433000Y-104300000D01*
X125988000Y-93185000D02*
X126488000Y-93185000D01*
X126488000Y-92235000D02*
X125988000Y-92235000D01*
X149573000Y-115185000D02*
X149573000Y-114685000D01*
X148623000Y-114685000D02*
X148623000Y-115185000D01*
X152113000Y-115185000D02*
X152113000Y-114685000D01*
X151163000Y-114685000D02*
X151163000Y-115185000D01*
X155923000Y-115185000D02*
X155923000Y-114685000D01*
X154973000Y-114685000D02*
X154973000Y-115185000D01*
X171163000Y-96135000D02*
X171163000Y-95635000D01*
X170213000Y-95635000D02*
X170213000Y-96135000D01*
X172433000Y-98675000D02*
X172433000Y-98175000D01*
X171483000Y-98175000D02*
X171483000Y-98675000D01*
X171163000Y-101215000D02*
X171163000Y-100715000D01*
X170213000Y-100715000D02*
X170213000Y-101215000D01*
X172433000Y-103755000D02*
X172433000Y-103255000D01*
X171483000Y-103255000D02*
X171483000Y-103755000D01*
X123448000Y-82390000D02*
X123948000Y-82390000D01*
X123948000Y-81440000D02*
X123448000Y-81440000D01*
X126488000Y-81440000D02*
X125988000Y-81440000D01*
X125988000Y-82390000D02*
X126488000Y-82390000D01*
X125988000Y-98900000D02*
X126488000Y-98900000D01*
X126488000Y-97950000D02*
X125988000Y-97950000D01*
X132838000Y-110650000D02*
X132338000Y-110650000D01*
X132338000Y-111600000D02*
X132838000Y-111600000D01*
X136013000Y-110650000D02*
X135513000Y-110650000D01*
X135513000Y-111600000D02*
X136013000Y-111600000D01*
X126488000Y-83345000D02*
X125988000Y-83345000D01*
X125988000Y-84295000D02*
X126488000Y-84295000D01*
X130618000Y-83360000D02*
X130618000Y-83712500D01*
X138368000Y-83360000D02*
X138368000Y-83712500D01*
X138368000Y-102060000D02*
X138368000Y-101707500D01*
X130618000Y-102060000D02*
X130618000Y-101707500D01*
X130618000Y-83360000D02*
X138368000Y-83360000D01*
X130618000Y-102060000D02*
X138368000Y-102060000D01*
X130618000Y-83712500D02*
X129193000Y-83712500D01*
X176613000Y-115150000D02*
X176613000Y-114850000D01*
X171113000Y-115150000D02*
X171113000Y-114850000D01*
X171113000Y-109640000D02*
X171113000Y-109940000D01*
X176613000Y-109640000D02*
X176613000Y-109940000D01*
X176613000Y-115150000D02*
X171113000Y-115150000D01*
X176613000Y-109640000D02*
X171113000Y-109640000D01*
X176613000Y-114850000D02*
X178363000Y-114850000D01*
X140208000Y-111379000D02*
X140208000Y-112141000D01*
X139827000Y-111760000D02*
X140589000Y-111760000D01*
X142494000Y-111506000D02*
X142494000Y-115316000D01*
X138684000Y-110744000D02*
X141732000Y-110744000D01*
X142494000Y-111506000D02*
X141732000Y-110744000D01*
X137922000Y-111506000D02*
X137922000Y-115316000D01*
X137922000Y-111506000D02*
X138684000Y-110744000D01*
X140335000Y-115062000D02*
X140081000Y-115062000D01*
X139573000Y-114935000D02*
X140843000Y-114935000D01*
X141097000Y-114808000D02*
X139319000Y-114808000D01*
X141351000Y-114681000D02*
X139065000Y-114681000D01*
X138938000Y-114554000D02*
X141478000Y-114554000D01*
X141605000Y-114427000D02*
X138811000Y-114427000D01*
X138684000Y-114300000D02*
X141732000Y-114300000D01*
X138557000Y-114173000D02*
X141859000Y-114173000D01*
X142240000Y-113030000D02*
G75*
G03X142240000Y-113030000I-2032000J0D01*
G01*
X137922000Y-115316000D02*
X142494000Y-115316000D01*
X121475500Y-111125000D02*
X121856500Y-111125000D01*
X120459500Y-111125000D02*
X120840500Y-111125000D01*
X120840500Y-111125000D02*
X121475500Y-110744000D01*
X121475500Y-110744000D02*
X121475500Y-111506000D01*
X121475500Y-111506000D02*
X120840500Y-111125000D01*
X120840500Y-110617000D02*
X120840500Y-111633000D01*
X119158000Y-112025000D02*
X122698000Y-112025000D01*
X119158000Y-110225000D02*
X122698000Y-110225000D01*
X113788000Y-97950000D02*
X113288000Y-97950000D01*
X113288000Y-98900000D02*
X113788000Y-98900000D01*
X113038000Y-95845000D02*
X114038000Y-95845000D01*
X114038000Y-97195000D02*
X113038000Y-97195000D01*
X170213000Y-98175000D02*
X170213000Y-98675000D01*
X171163000Y-98675000D02*
X171163000Y-98175000D01*
X109720540Y-83914100D02*
X109720540Y-92614100D01*
X116125540Y-83914100D02*
X116125540Y-92614100D01*
X116125540Y-92614100D02*
X109720540Y-92614100D01*
X110950540Y-92614100D02*
X110950540Y-83914100D01*
X109720540Y-83914100D02*
X116125540Y-83914100D01*
X121808000Y-123245000D02*
X120608000Y-123245000D01*
X107308000Y-123245000D02*
X110808000Y-123245000D01*
X110808000Y-123245000D02*
X115408000Y-123245000D01*
X121808000Y-123245000D02*
X121808000Y-120945000D01*
X121808000Y-114245000D02*
X121808000Y-116545000D01*
X110807500Y-114244120D02*
X110807500Y-123245880D01*
X107307380Y-114244120D02*
X107307380Y-123245880D01*
X121808240Y-114244120D02*
X107307380Y-114244120D01*
D13*
X153289000Y-79375000D02*
X129159000Y-79375000D01*
X129159000Y-76835000D02*
X153289000Y-76835000D01*
X128524000Y-77470000D02*
X129159000Y-76835000D01*
X153289000Y-76835000D02*
X153924000Y-77470000D01*
X153924000Y-77470000D02*
X153924000Y-78740000D01*
X153924000Y-78740000D02*
X153289000Y-79375000D01*
X129159000Y-79375000D02*
X128524000Y-78740000D01*
X128524000Y-78740000D02*
X128524000Y-77470000D01*
X153289000Y-76835000D02*
X129159000Y-76835000D01*
X129159000Y-74295000D02*
X153289000Y-74295000D01*
X128524000Y-74930000D02*
X129159000Y-74295000D01*
X153289000Y-74295000D02*
X153924000Y-74930000D01*
X153924000Y-74930000D02*
X153924000Y-76200000D01*
X153924000Y-76200000D02*
X153289000Y-76835000D01*
X129159000Y-76835000D02*
X128524000Y-76200000D01*
X128524000Y-76200000D02*
X128524000Y-74930000D01*
X175133000Y-79375000D02*
X156083000Y-79375000D01*
X156083000Y-76835000D02*
X175133000Y-76835000D01*
X155448000Y-77470000D02*
X156083000Y-76835000D01*
X175133000Y-76835000D02*
X175768000Y-77470000D01*
X175768000Y-77470000D02*
X175768000Y-78740000D01*
X175768000Y-78740000D02*
X175133000Y-79375000D01*
X156083000Y-79375000D02*
X155448000Y-78740000D01*
X155448000Y-78740000D02*
X155448000Y-77470000D01*
X157353000Y-122555000D02*
X138303000Y-122555000D01*
X138303000Y-120015000D02*
X157353000Y-120015000D01*
X137668000Y-120650000D02*
X138303000Y-120015000D01*
X157353000Y-120015000D02*
X157988000Y-120650000D01*
X157988000Y-120650000D02*
X157988000Y-121920000D01*
X157988000Y-121920000D02*
X157353000Y-122555000D01*
X138303000Y-122555000D02*
X137668000Y-121920000D01*
X137668000Y-121920000D02*
X137668000Y-120650000D01*
X175133000Y-76835000D02*
X156083000Y-76835000D01*
X156083000Y-74295000D02*
X175133000Y-74295000D01*
X155448000Y-74930000D02*
X156083000Y-74295000D01*
X175133000Y-74295000D02*
X175768000Y-74930000D01*
X175768000Y-74930000D02*
X175768000Y-76200000D01*
X175768000Y-76200000D02*
X175133000Y-76835000D01*
X156083000Y-76835000D02*
X155448000Y-76200000D01*
X155448000Y-76200000D02*
X155448000Y-74930000D01*
X157353000Y-125095000D02*
X138303000Y-125095000D01*
X138303000Y-122555000D02*
X157353000Y-122555000D01*
X137668000Y-123190000D02*
X138303000Y-122555000D01*
X157353000Y-122555000D02*
X157988000Y-123190000D01*
X157988000Y-123190000D02*
X157988000Y-124460000D01*
X157988000Y-124460000D02*
X157353000Y-125095000D01*
X138303000Y-125095000D02*
X137668000Y-124460000D01*
X137668000Y-124460000D02*
X137668000Y-123190000D01*
X175133000Y-125095000D02*
X161163000Y-125095000D01*
X161163000Y-122555000D02*
X175133000Y-122555000D01*
X160528000Y-123190000D02*
X161163000Y-122555000D01*
X175133000Y-122555000D02*
X175768000Y-123190000D01*
X175768000Y-123190000D02*
X175768000Y-124460000D01*
X175768000Y-124460000D02*
X175133000Y-125095000D01*
X161163000Y-125095000D02*
X160528000Y-124460000D01*
X160528000Y-124460000D02*
X160528000Y-123190000D01*
D11*
X115125500Y-111125000D02*
X115506500Y-111125000D01*
X114109500Y-111125000D02*
X114490500Y-111125000D01*
X114490500Y-111125000D02*
X115125500Y-110744000D01*
X115125500Y-110744000D02*
X115125500Y-111506000D01*
X115125500Y-111506000D02*
X114490500Y-111125000D01*
X114490500Y-110617000D02*
X114490500Y-111633000D01*
X112808000Y-112025000D02*
X116348000Y-112025000D01*
X112808000Y-110225000D02*
X116348000Y-110225000D01*
D13*
X175133000Y-122555000D02*
X161163000Y-122555000D01*
X161163000Y-120015000D02*
X175133000Y-120015000D01*
X160528000Y-120650000D02*
X161163000Y-120015000D01*
X175133000Y-120015000D02*
X175768000Y-120650000D01*
X175768000Y-120650000D02*
X175768000Y-121920000D01*
X175768000Y-121920000D02*
X175133000Y-122555000D01*
X161163000Y-122555000D02*
X160528000Y-121920000D01*
X160528000Y-121920000D02*
X160528000Y-120650000D01*
D11*
X120523000Y-98175000D02*
X120523000Y-97925000D01*
X120523000Y-98675000D02*
X120523000Y-98925000D01*
X120523000Y-98675000D02*
X120173000Y-98175000D01*
X120173000Y-98175000D02*
X120873000Y-98175000D01*
X120873000Y-98175000D02*
X120523000Y-98675000D01*
X120173000Y-98675000D02*
X120873000Y-98675000D01*
X121323000Y-99725000D02*
X121323000Y-97325000D01*
X119723000Y-99725000D02*
X119723000Y-97325000D01*
X123448000Y-98900000D02*
X123948000Y-98900000D01*
X123948000Y-97950000D02*
X123448000Y-97950000D01*
D12*
X171958000Y-86360000D02*
X171831000Y-85090000D01*
X171831000Y-85090000D02*
X171958000Y-84963000D01*
X171958000Y-84963000D02*
X172085000Y-85090000D01*
X172085000Y-85090000D02*
X171958000Y-86360000D01*
X172085000Y-86995000D02*
G75*
G03X172085000Y-86995000I-127000J0D01*
G01*
X171958000Y-85090000D02*
X171958000Y-86360000D01*
X171958000Y-83820000D02*
X169418000Y-87630000D01*
X169418000Y-87630000D02*
X174498000Y-87630000D01*
X174498000Y-87630000D02*
X171958000Y-83820000D01*
D11*
X104267000Y-82169000D02*
X112458500Y-82169000D01*
X104267000Y-94361000D02*
X112458500Y-94361000D01*
X121285000Y-82169000D02*
X116649500Y-82169000D01*
X121285000Y-94361000D02*
X116649500Y-94361000D01*
X104266000Y-94361000D02*
X104266000Y-82169000D01*
X121284000Y-82169000D02*
X121284000Y-94361000D01*
%LPC*%
D14*
X174498000Y-84455000D03*
D15*
X151638000Y-111845000D03*
X151638000Y-112945000D03*
X160528000Y-112945000D03*
X160528000Y-111845000D03*
D16*
X166878000Y-85205000D03*
X166878000Y-83705000D03*
X152908000Y-115685000D03*
X152908000Y-114185000D03*
X160528000Y-115685000D03*
X160528000Y-114185000D03*
X162433000Y-111645000D03*
X162433000Y-113145000D03*
D17*
X113223000Y-107680760D03*
X115123000Y-107680760D03*
X114173000Y-105681780D03*
D18*
X118298000Y-101135000D03*
X117348000Y-101135000D03*
X116398000Y-101135000D03*
X116398000Y-103335000D03*
X118298000Y-103335000D03*
X117348000Y-103335000D03*
X129728000Y-113835000D03*
X128778000Y-113835000D03*
X127828000Y-113835000D03*
X127828000Y-116035000D03*
X129728000Y-116035000D03*
X128778000Y-116035000D03*
D19*
X126068000Y-89370000D03*
X123868000Y-89370000D03*
X126068000Y-90970000D03*
X123868000Y-90970000D03*
D15*
X168148000Y-85005000D03*
X168148000Y-83905000D03*
D20*
X147968000Y-108975000D03*
X148468000Y-108975000D03*
X148968000Y-108975000D03*
X149468000Y-108975000D03*
X149968000Y-108975000D03*
X150468000Y-108975000D03*
X150968000Y-108975000D03*
X151468000Y-108975000D03*
X151968000Y-108975000D03*
X152468000Y-108975000D03*
X152968000Y-108975000D03*
X153468000Y-108975000D03*
X153968000Y-108975000D03*
X154468000Y-108975000D03*
X154968000Y-108975000D03*
X155468000Y-108975000D03*
X155968000Y-108975000D03*
X156468000Y-108975000D03*
X156968000Y-108975000D03*
X157468000Y-108975000D03*
X157968000Y-108975000D03*
X158468000Y-108975000D03*
X158968000Y-108975000D03*
X159468000Y-108975000D03*
X159968000Y-108975000D03*
X160468000Y-108975000D03*
X160968000Y-108975000D03*
X161468000Y-108975000D03*
X161968000Y-108975000D03*
X162468000Y-108975000D03*
X162968000Y-108975000D03*
X163468000Y-108975000D03*
X163968000Y-108975000D03*
X164468000Y-108975000D03*
X164968000Y-108975000D03*
X165468000Y-108975000D03*
D21*
X167268000Y-107175000D03*
X167268000Y-106675000D03*
X167268000Y-106175000D03*
X167268000Y-105675000D03*
X167268000Y-105175000D03*
X167268000Y-104675000D03*
X167268000Y-104175000D03*
X167268000Y-103675000D03*
X167268000Y-103175000D03*
X167268000Y-102675000D03*
X167268000Y-102175000D03*
X167268000Y-101675000D03*
X167268000Y-101175000D03*
X167268000Y-100675000D03*
X167268000Y-100175000D03*
X167268000Y-99675000D03*
X167268000Y-99175000D03*
X167268000Y-98675000D03*
X167268000Y-98175000D03*
X167268000Y-97675000D03*
X167268000Y-97175000D03*
X167268000Y-96675000D03*
X167268000Y-96175000D03*
X167268000Y-95675000D03*
X167268000Y-95175000D03*
X167268000Y-94675000D03*
X167268000Y-94175000D03*
X167268000Y-93675000D03*
X167268000Y-93175000D03*
X167268000Y-92675000D03*
X167268000Y-92175000D03*
X167268000Y-91675000D03*
X167268000Y-91175000D03*
X167268000Y-90675000D03*
X167268000Y-90175000D03*
X167268000Y-89675000D03*
D20*
X165468000Y-87875000D03*
X164968000Y-87875000D03*
X164468000Y-87875000D03*
X163968000Y-87875000D03*
X163468000Y-87875000D03*
X162968000Y-87875000D03*
X162468000Y-87875000D03*
X161968000Y-87875000D03*
X161468000Y-87875000D03*
X160968000Y-87875000D03*
X160468000Y-87875000D03*
X159968000Y-87875000D03*
X159468000Y-87875000D03*
X158968000Y-87875000D03*
X158468000Y-87875000D03*
X157968000Y-87875000D03*
X157468000Y-87875000D03*
X156968000Y-87875000D03*
X156468000Y-87875000D03*
X155968000Y-87875000D03*
X155468000Y-87875000D03*
X154968000Y-87875000D03*
X154468000Y-87875000D03*
X153968000Y-87875000D03*
X153468000Y-87875000D03*
X152968000Y-87875000D03*
X152468000Y-87875000D03*
X151968000Y-87875000D03*
X151468000Y-87875000D03*
X150968000Y-87875000D03*
X150468000Y-87875000D03*
X149968000Y-87875000D03*
X149468000Y-87875000D03*
X148968000Y-87875000D03*
X148468000Y-87875000D03*
X147968000Y-87875000D03*
D21*
X146168000Y-89675000D03*
X146168000Y-90175000D03*
X146168000Y-90675000D03*
X146168000Y-91175000D03*
X146168000Y-91675000D03*
X146168000Y-92175000D03*
X146168000Y-92675000D03*
X146168000Y-93175000D03*
X146168000Y-93675000D03*
X146168000Y-94175000D03*
X146168000Y-94675000D03*
X146168000Y-95175000D03*
X146168000Y-95675000D03*
X146168000Y-96175000D03*
X146168000Y-96675000D03*
X146168000Y-97175000D03*
X146168000Y-97675000D03*
X146168000Y-98175000D03*
X146168000Y-98675000D03*
X146168000Y-99175000D03*
X146168000Y-99675000D03*
X146168000Y-100175000D03*
X146168000Y-100675000D03*
X146168000Y-101175000D03*
X146168000Y-101675000D03*
X146168000Y-102175000D03*
X146168000Y-102675000D03*
X146168000Y-103175000D03*
X146168000Y-103675000D03*
X146168000Y-104175000D03*
X146168000Y-104675000D03*
X146168000Y-105175000D03*
X146168000Y-105675000D03*
X146168000Y-106175000D03*
X146168000Y-106675000D03*
X146168000Y-107175000D03*
D22*
X120523000Y-105045000D03*
X120523000Y-108315000D03*
D15*
X145288000Y-85005000D03*
X145288000Y-83905000D03*
X164338000Y-111845000D03*
X164338000Y-112945000D03*
X165608000Y-85005000D03*
X165608000Y-83905000D03*
D23*
X143298000Y-106680000D03*
X142198000Y-106680000D03*
X171238000Y-116205000D03*
X170138000Y-116205000D03*
D15*
X146558000Y-85005000D03*
X146558000Y-83905000D03*
X144018000Y-111845000D03*
X144018000Y-112945000D03*
X165608000Y-111845000D03*
X165608000Y-112945000D03*
D23*
X143298000Y-108585000D03*
X142198000Y-108585000D03*
X163618000Y-114935000D03*
X162518000Y-114935000D03*
D15*
X152908000Y-83905000D03*
X152908000Y-85005000D03*
X160528000Y-83905000D03*
X160528000Y-85005000D03*
X166878000Y-111845000D03*
X166878000Y-112945000D03*
D23*
X143298000Y-104775000D03*
X142198000Y-104775000D03*
D24*
X117348000Y-106315000D03*
X117348000Y-108315000D03*
D15*
X120523000Y-101685000D03*
X120523000Y-102785000D03*
D25*
X123968000Y-108585000D03*
X125968000Y-108585000D03*
X125968000Y-119380000D03*
X123968000Y-119380000D03*
D23*
X133138000Y-113665000D03*
X132038000Y-113665000D03*
D15*
X168148000Y-111845000D03*
X168148000Y-112945000D03*
D25*
X134858000Y-116205000D03*
X132858000Y-116205000D03*
D23*
X129328000Y-111125000D03*
X128228000Y-111125000D03*
D15*
X146558000Y-111845000D03*
X146558000Y-112945000D03*
X145288000Y-111845000D03*
X145288000Y-112945000D03*
X149098000Y-111845000D03*
X149098000Y-112945000D03*
X152908000Y-111845000D03*
X152908000Y-112945000D03*
D23*
X125688000Y-85725000D03*
X126788000Y-85725000D03*
X124248000Y-85725000D03*
X123148000Y-85725000D03*
D15*
X144018000Y-85005000D03*
X144018000Y-83905000D03*
D23*
X124248000Y-87630000D03*
X123148000Y-87630000D03*
X125688000Y-87630000D03*
X126788000Y-87630000D03*
D15*
X155448000Y-111845000D03*
X155448000Y-112945000D03*
X156718000Y-111845000D03*
X156718000Y-112945000D03*
X157988000Y-111845000D03*
X157988000Y-112945000D03*
D23*
X143298000Y-88900000D03*
X142198000Y-88900000D03*
X123148000Y-92710000D03*
X124248000Y-92710000D03*
X143298000Y-90805000D03*
X142198000Y-90805000D03*
X142198000Y-97155000D03*
X143298000Y-97155000D03*
X126788000Y-96520000D03*
X125688000Y-96520000D03*
D15*
X147828000Y-111845000D03*
X147828000Y-112945000D03*
X150368000Y-111845000D03*
X150368000Y-112945000D03*
X154178000Y-111845000D03*
X154178000Y-112945000D03*
D23*
X126788000Y-80645000D03*
X125688000Y-80645000D03*
D22*
X129413000Y-120285000D03*
X129413000Y-123555000D03*
D26*
X134708000Y-113665000D03*
X136818000Y-113665000D03*
D27*
X124448000Y-83820000D03*
X122948000Y-83820000D03*
D28*
X122809000Y-103505000D03*
X127127000Y-103505000D03*
X131699000Y-121285000D03*
X136017000Y-121285000D03*
D29*
X174625000Y-95885000D03*
D30*
X177165000Y-95885000D03*
X174625000Y-98425000D03*
X177165000Y-98425000D03*
X174625000Y-100965000D03*
X177165000Y-100965000D03*
X174625000Y-103505000D03*
X177165000Y-103505000D03*
X174625000Y-106045000D03*
X177165000Y-106045000D03*
D31*
X113373000Y-79085000D03*
X113373000Y-74585000D03*
X121323000Y-74585000D03*
X121323000Y-79085000D03*
D19*
X167978000Y-115405000D03*
X165778000Y-115405000D03*
X167978000Y-117005000D03*
X165778000Y-117005000D03*
D32*
X135538000Y-108925000D03*
X135538000Y-108275000D03*
X135538000Y-107625000D03*
X135538000Y-106975000D03*
X129638000Y-106975000D03*
X129638000Y-107625000D03*
X129638000Y-108275000D03*
X129638000Y-108925000D03*
D33*
X124447300Y-96520000D03*
X122948700Y-96520000D03*
D15*
X171958000Y-96435000D03*
X171958000Y-95335000D03*
D23*
X138388000Y-106680000D03*
X139488000Y-106680000D03*
X143298000Y-99060000D03*
X142198000Y-99060000D03*
D15*
X171958000Y-106595000D03*
X171958000Y-105495000D03*
X171958000Y-100415000D03*
X171958000Y-101515000D03*
X159258000Y-112945000D03*
X159258000Y-111845000D03*
D23*
X138388000Y-104775000D03*
X139488000Y-104775000D03*
X142198000Y-102870000D03*
X143298000Y-102870000D03*
X142198000Y-100965000D03*
X143298000Y-100965000D03*
X126788000Y-94615000D03*
X125688000Y-94615000D03*
X124248000Y-94615000D03*
X123148000Y-94615000D03*
X112988000Y-103505000D03*
X114088000Y-103505000D03*
X117898000Y-98425000D03*
X116798000Y-98425000D03*
X114088000Y-100965000D03*
X112988000Y-100965000D03*
X124418000Y-116205000D03*
X125518000Y-116205000D03*
X172678000Y-116205000D03*
X173778000Y-116205000D03*
X125518000Y-111125000D03*
X124418000Y-111125000D03*
X125518000Y-113665000D03*
X124418000Y-113665000D03*
D15*
X147828000Y-114385000D03*
X147828000Y-115485000D03*
X146558000Y-114385000D03*
X146558000Y-115485000D03*
X150368000Y-114385000D03*
X150368000Y-115485000D03*
X154178000Y-114385000D03*
X154178000Y-115485000D03*
X156718000Y-114385000D03*
X156718000Y-115485000D03*
X157988000Y-114385000D03*
X157988000Y-115485000D03*
X159258000Y-114385000D03*
X159258000Y-115485000D03*
D23*
X135043000Y-104775000D03*
X133943000Y-104775000D03*
X131233000Y-104775000D03*
X130133000Y-104775000D03*
X126788000Y-92710000D03*
X125688000Y-92710000D03*
D15*
X149098000Y-114385000D03*
X149098000Y-115485000D03*
X151638000Y-114385000D03*
X151638000Y-115485000D03*
X155448000Y-114385000D03*
X155448000Y-115485000D03*
X170688000Y-95335000D03*
X170688000Y-96435000D03*
X171958000Y-97875000D03*
X171958000Y-98975000D03*
X170688000Y-100415000D03*
X170688000Y-101515000D03*
X171958000Y-102955000D03*
X171958000Y-104055000D03*
D23*
X124248000Y-81915000D03*
X123148000Y-81915000D03*
X125688000Y-81915000D03*
X126788000Y-81915000D03*
X126788000Y-98425000D03*
X125688000Y-98425000D03*
X132038000Y-111125000D03*
X133138000Y-111125000D03*
X135213000Y-111125000D03*
X136313000Y-111125000D03*
X125688000Y-83820000D03*
X126788000Y-83820000D03*
D34*
X129793000Y-84137500D03*
X129793000Y-84772500D03*
X129793000Y-85407500D03*
X129793000Y-86042500D03*
X129793000Y-86677500D03*
X129793000Y-87312500D03*
X129793000Y-87947500D03*
X129793000Y-88582500D03*
X129793000Y-89217500D03*
X129793000Y-89852500D03*
X129793000Y-90487500D03*
X129793000Y-91122500D03*
X129793000Y-91757500D03*
X129793000Y-92392500D03*
X129793000Y-93027500D03*
X129793000Y-93662500D03*
X129793000Y-94297500D03*
X129793000Y-94932500D03*
X129793000Y-95567500D03*
X129793000Y-96202500D03*
X129793000Y-96837500D03*
X129793000Y-97472500D03*
X129793000Y-98107500D03*
X129793000Y-98742500D03*
X129793000Y-99377500D03*
X129793000Y-100012500D03*
X129793000Y-100647500D03*
X129793000Y-101282500D03*
X139193000Y-101282500D03*
X139193000Y-100647500D03*
X139193000Y-100012500D03*
X139193000Y-99377500D03*
X139193000Y-98742500D03*
X139193000Y-98107500D03*
X139193000Y-97472500D03*
X139193000Y-96837500D03*
X139193000Y-96202500D03*
X139193000Y-95567500D03*
X139193000Y-94932500D03*
X139193000Y-94297500D03*
X139193000Y-93662500D03*
X139193000Y-93027500D03*
X139193000Y-92392500D03*
X139193000Y-91757500D03*
X139193000Y-91122500D03*
X139193000Y-90487500D03*
X139193000Y-89852500D03*
X139193000Y-89217500D03*
X139193000Y-88582500D03*
X139193000Y-87947500D03*
X139193000Y-87312500D03*
X139193000Y-86677500D03*
X139193000Y-86042500D03*
X139193000Y-85407500D03*
X139193000Y-84772500D03*
X139193000Y-84137500D03*
D35*
X177513000Y-114300000D03*
X177513000Y-113030000D03*
X177513000Y-111760000D03*
X177513000Y-110490000D03*
X170213000Y-110490000D03*
X170213000Y-111760000D03*
X170213000Y-113030000D03*
X170213000Y-114300000D03*
D36*
X140208000Y-111229140D03*
X140208000Y-114830860D03*
D37*
X119523000Y-111125000D03*
X122793000Y-111125000D03*
D23*
X112988000Y-98425000D03*
X114088000Y-98425000D03*
D38*
X114638000Y-96520000D03*
X112438000Y-96520000D03*
D15*
X170688000Y-98975000D03*
X170688000Y-97875000D03*
D14*
X113538000Y-123825000D03*
X113538000Y-76835000D03*
D39*
X124968000Y-123825000D03*
X177038000Y-118745000D03*
X126238000Y-75565000D03*
X177038000Y-90805000D03*
D40*
X112075540Y-91764100D03*
X112238040Y-91764100D03*
X112730540Y-91764100D03*
X112565540Y-91764100D03*
X112725540Y-84764100D03*
X112563040Y-84764100D03*
X112075540Y-84764100D03*
X112238040Y-84764100D03*
D41*
X115100540Y-90914100D03*
X115100540Y-90614100D03*
X115100540Y-85914100D03*
X115100540Y-85614100D03*
D42*
X115100540Y-86964100D03*
X115100540Y-87614100D03*
X115100540Y-88264100D03*
X115100540Y-88914100D03*
X115100540Y-89564100D03*
D41*
X115100540Y-85764100D03*
X115100540Y-90764100D03*
D40*
X112400540Y-84764100D03*
X112400540Y-91764100D03*
D43*
X119008400Y-123444000D03*
X118758400Y-123444000D03*
X118508400Y-123444000D03*
X118258400Y-123444000D03*
X117008400Y-123444000D03*
X117258400Y-123444000D03*
X117508400Y-123444000D03*
X117758400Y-123444000D03*
X115008660Y-119745000D03*
X115008660Y-119495000D03*
X115008660Y-119245000D03*
X115008660Y-118995000D03*
X115008660Y-117745000D03*
X115008660Y-117995000D03*
X115008660Y-118245000D03*
X115008660Y-118495000D03*
X121008140Y-119745000D03*
X121008140Y-119495000D03*
X121008140Y-119245000D03*
X121008140Y-118995000D03*
X121008140Y-117745000D03*
X121008140Y-117995000D03*
X121008140Y-118245000D03*
X121008140Y-118495000D03*
X121008140Y-118745000D03*
X115008660Y-118745000D03*
X118008400Y-123444000D03*
D44*
X118364000Y-118745000D03*
D45*
X118364000Y-121285000D03*
D46*
X129794000Y-78105000D03*
X132334000Y-78105000D03*
X134874000Y-78105000D03*
X137414000Y-78105000D03*
X139954000Y-78105000D03*
X142494000Y-78105000D03*
X145034000Y-78105000D03*
X147574000Y-78105000D03*
X150114000Y-78105000D03*
X152654000Y-78105000D03*
X129794000Y-75565000D03*
X132334000Y-75565000D03*
X134874000Y-75565000D03*
X137414000Y-75565000D03*
X139954000Y-75565000D03*
X142494000Y-75565000D03*
X145034000Y-75565000D03*
X147574000Y-75565000D03*
X150114000Y-75565000D03*
X152654000Y-75565000D03*
X156718000Y-78105000D03*
X159258000Y-78105000D03*
X161798000Y-78105000D03*
X164338000Y-78105000D03*
X166878000Y-78105000D03*
X169418000Y-78105000D03*
X171958000Y-78105000D03*
X174498000Y-78105000D03*
X138938000Y-121285000D03*
X141478000Y-121285000D03*
X144018000Y-121285000D03*
X146558000Y-121285000D03*
X149098000Y-121285000D03*
X151638000Y-121285000D03*
X154178000Y-121285000D03*
X156718000Y-121285000D03*
X156718000Y-75565000D03*
X159258000Y-75565000D03*
X161798000Y-75565000D03*
X164338000Y-75565000D03*
X166878000Y-75565000D03*
X169418000Y-75565000D03*
X171958000Y-75565000D03*
X174498000Y-75565000D03*
X138938000Y-123825000D03*
X141478000Y-123825000D03*
X144018000Y-123825000D03*
X146558000Y-123825000D03*
X149098000Y-123825000D03*
X151638000Y-123825000D03*
X154178000Y-123825000D03*
X156718000Y-123825000D03*
X161798000Y-123825000D03*
X164338000Y-123825000D03*
X166878000Y-123825000D03*
X169418000Y-123825000D03*
X171958000Y-123825000D03*
X174498000Y-123825000D03*
D37*
X113173000Y-111125000D03*
X116443000Y-111125000D03*
D46*
X161798000Y-121285000D03*
X164338000Y-121285000D03*
X166878000Y-121285000D03*
X169418000Y-121285000D03*
X171958000Y-121285000D03*
X174498000Y-121285000D03*
D47*
X120523000Y-99480000D03*
X120523000Y-97370000D03*
D23*
X124248000Y-98425000D03*
X123148000Y-98425000D03*
D43*
X113893000Y-82265520D03*
X114113000Y-82265520D03*
X114333000Y-82265520D03*
X115213000Y-82265520D03*
X114993000Y-82265520D03*
X114773000Y-82265520D03*
X115213000Y-94264480D03*
X114993000Y-94264480D03*
X114773000Y-94264480D03*
X113893000Y-94264480D03*
X114113000Y-94264480D03*
X114333000Y-94264480D03*
D48*
X119252000Y-86995000D03*
X119252000Y-89535000D03*
X117253020Y-89535000D03*
X117253020Y-86995000D03*
D43*
X114553000Y-82265520D03*
X114553000Y-94264480D03*
M02*
